<svg width="16" height="14" viewBox="0 0 16 14" xmlns="http://www.w3.org/2000/svg">
<path fill-rule="evenodd" clip-rule="evenodd" d="M4 2C4 3.10457 3.10457 4 2 4C0.895431 4 0 3.10457 0 2C0 0.895431 0.895431 0 2 0C3.10457 0 4 0.895431 4 2ZM4 7C4 8.10457 3.10457 9 2 9C0.895431 9 0 8.10457 0 7C0 5.89543 0.895431 5 2 5C3.10457 5 4 5.89543 4 7ZM2 14C3.10457 14 4 13.1046 4 12C4 10.8954 3.10457 10 2 10C0.895431 10 0 10.8954 0 12C0 13.1046 0.895431 14 2 14ZM10 2C10 3.10457 9.10457 4 8 4C6.89543 4 6 3.10457 6 2C6 0.895431 6.89543 0 8 0C9.10457 0 10 0.895431 10 2ZM8 9C9.10457 9 10 8.10457 10 7C10 5.89543 9.10457 5 8 5C6.89543 5 6 5.89543 6 7C6 8.10457 6.89543 9 8 9ZM10 12C10 13.1046 9.10457 14 8 14C6.89543 14 6 13.1046 6 12C6 10.8954 6.89543 10 8 10C9.10457 10 10 10.8954 10 12ZM14 4C15.1046 4 16 3.10457 16 2C16 0.895431 15.1046 0 14 0C12.8954 0 12 0.895431 12 2C12 3.10457 12.8954 4 14 4ZM16 7C16 8.10457 15.1046 9 14 9C12.8954 9 12 8.10457 12 7C12 5.89543 12.8954 5 14 5C15.1046 5 16 5.89543 16 7ZM14 14C15.1046 14 16 13.1046 16 12C16 10.8954 15.1046 10 14 10C12.8954 10 12 10.8954 12 12C12 13.1046 12.8954 14 14 14Z" />
</svg>
