<svg width="17" height="16" viewBox="0 0 17 16" xmlns="http://www.w3.org/2000/svg">
<path d="M8.76855 5C7.11543 5 5.76855 6.34688 5.76855 8C5.76855 9.65312 7.11543 11 8.76855 11C10.4217 11 11.7686 9.65312 11.7686 8C11.7686 6.34688 10.4217 5 8.76855 5ZM16.4686 7.51562L13.5092 6.0375L14.5561 2.9C14.6967 2.475 14.2936 2.07188 13.8717 2.21563L10.7342 3.2625L9.25293 0.3C9.05293 -0.1 8.48418 -0.1 8.28418 0.3L6.80605 3.25938L3.66543 2.2125C3.24043 2.07188 2.8373 2.475 2.98105 2.89687L4.02793 6.03438L1.06855 7.51562C0.668555 7.71562 0.668555 8.28438 1.06855 8.48438L4.02793 9.9625L2.98105 13.1031C2.84043 13.5281 3.24355 13.9313 3.66543 13.7875L6.80293 12.7406L8.28105 15.7C8.48105 16.1 9.0498 16.1 9.2498 15.7L10.7279 12.7406L13.8654 13.7875C14.2904 13.9281 14.6936 13.525 14.5498 13.1031L13.5029 9.96562L16.4623 8.4875C16.8686 8.28438 16.8686 7.71562 16.4686 7.51562ZM11.5967 10.8281C10.0373 12.3875 7.4998 12.3875 5.94043 10.8281C4.38105 9.26875 4.38105 6.73125 5.94043 5.17188C7.4998 3.6125 10.0373 3.6125 11.5967 5.17188C13.1561 6.73125 13.1561 9.26875 11.5967 10.8281Z" />
</svg>
