<svg width="14" height="16" viewBox="0 0 14 16" xmlns="http://www.w3.org/2000/svg">
<path d="M13.6807 11.3216C13.0791 10.6728 11.9536 9.69687 11.9536 6.5C11.9536 4.07188 10.2573 2.12812 7.97009 1.65125V1C7.97009 0.447812 7.52423 0 6.97437 0C6.42452 0 5.97866 0.447812 5.97866 1V1.65125C3.69145 2.12812 1.99518 4.07188 1.99518 6.5C1.99518 9.69687 0.869636 10.6728 0.268098 11.3216C0.0812852 11.5231 -0.00153525 11.7641 2.15267e-05 12C0.00344643 12.5125 0.40416 13 0.999471 13H12.9493C13.5446 13 13.9456 12.5125 13.9487 12C13.9503 11.7641 13.8675 11.5228 13.6807 11.3216ZM2.1026 11.5C2.7633 10.6259 3.48564 9.17719 3.48907 6.51813C3.48907 6.51188 3.4872 6.50625 3.4872 6.5C3.4872 4.56687 5.04833 3 6.97437 3C8.90042 3 10.4616 4.56687 10.4616 6.5C10.4616 6.50625 10.4597 6.51188 10.4597 6.51813C10.4631 9.1775 11.1855 10.6263 11.8461 11.5H2.1026ZM6.97437 16C8.07408 16 8.96611 15.1047 8.96611 14H4.98264C4.98264 15.1047 5.87467 16 6.97437 16Z" />
</svg>
