<svg width="384" height="301" viewBox="0 0 384 301" fill="none" xmlns="http://www.w3.org/2000/svg">
<rect x="0.5" y="0.5" width="383" height="300" rx="2.5" class="rect-1"/>
<path d="M83.9609 195.602C82.7057 195.602 81.7135 196.021 80.9844 196.859C80.2604 197.693 79.8984 198.836 79.8984 200.289C79.8984 201.784 80.2474 202.94 80.9453 203.758C81.6484 204.57 82.6484 204.977 83.9453 204.977C84.7422 204.977 85.651 204.833 86.6719 204.547V205.711C85.8802 206.008 84.9036 206.156 83.7422 206.156C82.0599 206.156 80.7604 205.646 79.8438 204.625C78.9323 203.604 78.4766 202.154 78.4766 200.273C78.4766 199.096 78.6953 198.065 79.1328 197.18C79.5755 196.294 80.2109 195.612 81.0391 195.133C81.8724 194.654 82.8516 194.414 83.9766 194.414C85.1745 194.414 86.2214 194.633 87.1172 195.07L86.5547 196.211C85.6901 195.805 84.8255 195.602 83.9609 195.602ZM96.3594 201.711C96.3594 203.107 96.0078 204.198 95.3047 204.984C94.6016 205.766 93.6302 206.156 92.3906 206.156C91.625 206.156 90.9453 205.977 90.3516 205.617C89.7578 205.258 89.2995 204.742 88.9766 204.07C88.6536 203.398 88.4922 202.612 88.4922 201.711C88.4922 200.315 88.8411 199.229 89.5391 198.453C90.237 197.672 91.2057 197.281 92.4453 197.281C93.6432 197.281 94.5938 197.68 95.2969 198.477C96.0052 199.273 96.3594 200.352 96.3594 201.711ZM89.8359 201.711C89.8359 202.805 90.0547 203.638 90.4922 204.211C90.9297 204.784 91.5729 205.07 92.4219 205.07C93.2708 205.07 93.9141 204.786 94.3516 204.219C94.7943 203.646 95.0156 202.81 95.0156 201.711C95.0156 200.622 94.7943 199.797 94.3516 199.234C93.9141 198.667 93.2656 198.383 92.4062 198.383C91.5573 198.383 90.9167 198.661 90.4844 199.219C90.0521 199.776 89.8359 200.607 89.8359 201.711ZM99.8594 197.438V202.992C99.8594 203.69 100.018 204.211 100.336 204.555C100.654 204.898 101.151 205.07 101.828 205.07C102.724 205.07 103.378 204.826 103.789 204.336C104.206 203.846 104.414 203.047 104.414 201.938V197.438H105.711V206H104.641L104.453 204.852H104.383C104.117 205.273 103.747 205.596 103.273 205.82C102.805 206.044 102.268 206.156 101.664 206.156C100.622 206.156 99.8411 205.909 99.3203 205.414C98.8047 204.919 98.5469 204.128 98.5469 203.039V197.438H99.8594ZM112.375 197.281C112.755 197.281 113.096 197.312 113.398 197.375L113.219 198.578C112.865 198.5 112.552 198.461 112.281 198.461C111.589 198.461 110.995 198.742 110.5 199.305C110.01 199.867 109.766 200.568 109.766 201.406V206H108.469V197.438H109.539L109.688 199.023H109.75C110.068 198.466 110.451 198.036 110.898 197.734C111.346 197.432 111.839 197.281 112.375 197.281ZM117.766 205.086C117.995 205.086 118.216 205.07 118.43 205.039C118.643 205.003 118.812 204.966 118.938 204.93V205.922C118.797 205.99 118.589 206.044 118.312 206.086C118.042 206.133 117.797 206.156 117.578 206.156C115.922 206.156 115.094 205.284 115.094 203.539V198.445H113.867V197.82L115.094 197.281L115.641 195.453H116.391V197.438H118.875V198.445H116.391V203.484C116.391 204 116.513 204.396 116.758 204.672C117.003 204.948 117.339 205.086 117.766 205.086ZM126.18 203.664C126.18 204.461 125.883 205.076 125.289 205.508C124.695 205.94 123.862 206.156 122.789 206.156C121.654 206.156 120.768 205.977 120.133 205.617V204.414C120.544 204.622 120.984 204.786 121.453 204.906C121.927 205.026 122.383 205.086 122.82 205.086C123.497 205.086 124.018 204.979 124.383 204.766C124.747 204.547 124.93 204.216 124.93 203.773C124.93 203.44 124.784 203.156 124.492 202.922C124.206 202.682 123.643 202.401 122.805 202.078C122.008 201.781 121.44 201.523 121.102 201.305C120.768 201.081 120.518 200.828 120.352 200.547C120.19 200.266 120.109 199.93 120.109 199.539C120.109 198.841 120.393 198.292 120.961 197.891C121.529 197.484 122.307 197.281 123.297 197.281C124.219 197.281 125.12 197.469 126 197.844L125.539 198.898C124.68 198.544 123.901 198.367 123.203 198.367C122.589 198.367 122.125 198.464 121.812 198.656C121.5 198.849 121.344 199.115 121.344 199.453C121.344 199.682 121.401 199.878 121.516 200.039C121.635 200.201 121.826 200.354 122.086 200.5C122.346 200.646 122.846 200.857 123.586 201.133C124.602 201.503 125.286 201.875 125.641 202.25C126 202.625 126.18 203.096 126.18 203.664ZM139.445 206L137.875 200.977C137.776 200.669 137.591 199.971 137.32 198.883H137.258C137.049 199.794 136.867 200.497 136.711 200.992L135.094 206H133.594L131.258 197.438H132.617C133.169 199.589 133.589 201.227 133.875 202.352C134.167 203.477 134.333 204.234 134.375 204.625H134.438C134.495 204.328 134.586 203.945 134.711 203.477C134.841 203.003 134.953 202.628 135.047 202.352L136.617 197.438H138.023L139.555 202.352C139.846 203.247 140.044 204 140.148 204.609H140.211C140.232 204.422 140.286 204.133 140.375 203.742C140.469 203.352 141.013 201.25 142.008 197.438H143.352L140.984 206H139.445ZM146.203 206H144.906V197.438H146.203V206ZM144.797 195.117C144.797 194.82 144.87 194.604 145.016 194.469C145.161 194.328 145.344 194.258 145.562 194.258C145.771 194.258 145.951 194.328 146.102 194.469C146.253 194.609 146.328 194.826 146.328 195.117C146.328 195.409 146.253 195.628 146.102 195.773C145.951 195.914 145.771 195.984 145.562 195.984C145.344 195.984 145.161 195.914 145.016 195.773C144.87 195.628 144.797 195.409 144.797 195.117ZM151.719 205.086C151.948 205.086 152.169 205.07 152.383 205.039C152.596 205.003 152.766 204.966 152.891 204.93V205.922C152.75 205.99 152.542 206.044 152.266 206.086C151.995 206.133 151.75 206.156 151.531 206.156C149.875 206.156 149.047 205.284 149.047 203.539V198.445H147.82V197.82L149.047 197.281L149.594 195.453H150.344V197.438H152.828V198.445H150.344V203.484C150.344 204 150.466 204.396 150.711 204.672C150.956 204.948 151.292 205.086 151.719 205.086ZM160.469 206V200.461C160.469 199.763 160.31 199.242 159.992 198.898C159.674 198.555 159.177 198.383 158.5 198.383C157.599 198.383 156.94 198.628 156.523 199.117C156.112 199.607 155.906 200.409 155.906 201.523V206H154.609V193.844H155.906V197.523C155.906 197.966 155.885 198.333 155.844 198.625H155.922C156.177 198.214 156.539 197.891 157.008 197.656C157.482 197.417 158.021 197.297 158.625 197.297C159.672 197.297 160.456 197.547 160.977 198.047C161.503 198.542 161.766 199.331 161.766 200.414V206H160.469ZM172.016 206.156C170.776 206.156 169.815 205.776 169.133 205.016C168.456 204.25 168.117 203.169 168.117 201.773C168.117 200.341 168.461 199.234 169.148 198.453C169.841 197.672 170.826 197.281 172.102 197.281C172.513 197.281 172.924 197.326 173.336 197.414C173.747 197.503 174.07 197.607 174.305 197.727L173.906 198.828C173.62 198.714 173.307 198.62 172.969 198.547C172.63 198.469 172.331 198.43 172.07 198.43C170.331 198.43 169.461 199.539 169.461 201.758C169.461 202.81 169.672 203.617 170.094 204.18C170.521 204.742 171.151 205.023 171.984 205.023C172.698 205.023 173.43 204.87 174.18 204.562V205.711C173.607 206.008 172.885 206.156 172.016 206.156ZM183.609 201.711C183.609 203.107 183.258 204.198 182.555 204.984C181.852 205.766 180.88 206.156 179.641 206.156C178.875 206.156 178.195 205.977 177.602 205.617C177.008 205.258 176.549 204.742 176.227 204.07C175.904 203.398 175.742 202.612 175.742 201.711C175.742 200.315 176.091 199.229 176.789 198.453C177.487 197.672 178.456 197.281 179.695 197.281C180.893 197.281 181.844 197.68 182.547 198.477C183.255 199.273 183.609 200.352 183.609 201.711ZM177.086 201.711C177.086 202.805 177.305 203.638 177.742 204.211C178.18 204.784 178.823 205.07 179.672 205.07C180.521 205.07 181.164 204.786 181.602 204.219C182.044 203.646 182.266 202.81 182.266 201.711C182.266 200.622 182.044 199.797 181.602 199.234C181.164 198.667 180.516 198.383 179.656 198.383C178.807 198.383 178.167 198.661 177.734 199.219C177.302 199.776 177.086 200.607 177.086 201.711ZM196.805 206V200.43C196.805 199.747 196.659 199.237 196.367 198.898C196.076 198.555 195.622 198.383 195.008 198.383C194.201 198.383 193.604 198.615 193.219 199.078C192.833 199.542 192.641 200.255 192.641 201.219V206H191.344V200.43C191.344 199.747 191.198 199.237 190.906 198.898C190.615 198.555 190.159 198.383 189.539 198.383C188.727 198.383 188.13 198.628 187.75 199.117C187.375 199.602 187.188 200.398 187.188 201.508V206H185.891V197.438H186.945L187.156 198.609H187.219C187.464 198.193 187.807 197.867 188.25 197.633C188.698 197.398 189.198 197.281 189.75 197.281C191.089 197.281 191.964 197.766 192.375 198.734H192.438C192.693 198.286 193.062 197.932 193.547 197.672C194.031 197.411 194.583 197.281 195.203 197.281C196.172 197.281 196.896 197.531 197.375 198.031C197.859 198.526 198.102 199.32 198.102 200.414V206H196.805ZM211.695 206V200.43C211.695 199.747 211.549 199.237 211.258 198.898C210.966 198.555 210.513 198.383 209.898 198.383C209.091 198.383 208.495 198.615 208.109 199.078C207.724 199.542 207.531 200.255 207.531 201.219V206H206.234V200.43C206.234 199.747 206.089 199.237 205.797 198.898C205.505 198.555 205.049 198.383 204.43 198.383C203.617 198.383 203.021 198.628 202.641 199.117C202.266 199.602 202.078 200.398 202.078 201.508V206H200.781V197.438H201.836L202.047 198.609H202.109C202.354 198.193 202.698 197.867 203.141 197.633C203.589 197.398 204.089 197.281 204.641 197.281C205.979 197.281 206.854 197.766 207.266 198.734H207.328C207.583 198.286 207.953 197.932 208.438 197.672C208.922 197.411 209.474 197.281 210.094 197.281C211.062 197.281 211.786 197.531 212.266 198.031C212.75 198.526 212.992 199.32 212.992 200.414V206H211.695ZM216.969 206H215.672V197.438H216.969V206ZM215.562 195.117C215.562 194.82 215.635 194.604 215.781 194.469C215.927 194.328 216.109 194.258 216.328 194.258C216.536 194.258 216.716 194.328 216.867 194.469C217.018 194.609 217.094 194.826 217.094 195.117C217.094 195.409 217.018 195.628 216.867 195.773C216.716 195.914 216.536 195.984 216.328 195.984C216.109 195.984 215.927 195.914 215.781 195.773C215.635 195.628 215.562 195.409 215.562 195.117ZM222.484 205.086C222.714 205.086 222.935 205.07 223.148 205.039C223.362 205.003 223.531 204.966 223.656 204.93V205.922C223.516 205.99 223.307 206.044 223.031 206.086C222.76 206.133 222.516 206.156 222.297 206.156C220.641 206.156 219.812 205.284 219.812 203.539V198.445H218.586V197.82L219.812 197.281L220.359 195.453H221.109V197.438H223.594V198.445H221.109V203.484C221.109 204 221.232 204.396 221.477 204.672C221.721 204.948 222.057 205.086 222.484 205.086ZM234.797 206L234.539 204.781H234.477C234.049 205.318 233.622 205.682 233.195 205.875C232.773 206.062 232.245 206.156 231.609 206.156C230.76 206.156 230.094 205.938 229.609 205.5C229.13 205.062 228.891 204.44 228.891 203.633C228.891 201.904 230.273 200.997 233.039 200.914L234.492 200.867V200.336C234.492 199.664 234.346 199.169 234.055 198.852C233.768 198.529 233.307 198.367 232.672 198.367C231.958 198.367 231.151 198.586 230.25 199.023L229.852 198.031C230.273 197.802 230.734 197.622 231.234 197.492C231.74 197.362 232.245 197.297 232.75 197.297C233.771 197.297 234.526 197.523 235.016 197.977C235.51 198.43 235.758 199.156 235.758 200.156V206H234.797ZM231.867 205.086C232.674 205.086 233.307 204.865 233.766 204.422C234.229 203.979 234.461 203.359 234.461 202.562V201.789L233.164 201.844C232.133 201.88 231.388 202.042 230.93 202.328C230.477 202.609 230.25 203.049 230.25 203.648C230.25 204.117 230.391 204.474 230.672 204.719C230.958 204.964 231.357 205.086 231.867 205.086ZM244.297 206V200.461C244.297 199.763 244.138 199.242 243.82 198.898C243.503 198.555 243.005 198.383 242.328 198.383C241.432 198.383 240.776 198.625 240.359 199.109C239.943 199.594 239.734 200.393 239.734 201.508V206H238.438V197.438H239.492L239.703 198.609H239.766C240.031 198.188 240.404 197.862 240.883 197.633C241.362 197.398 241.896 197.281 242.484 197.281C243.516 197.281 244.292 197.531 244.812 198.031C245.333 198.526 245.594 199.32 245.594 200.414V206H244.297ZM254.094 204.852H254.023C253.424 205.721 252.529 206.156 251.336 206.156C250.216 206.156 249.344 205.773 248.719 205.008C248.099 204.242 247.789 203.154 247.789 201.742C247.789 200.331 248.102 199.234 248.727 198.453C249.352 197.672 250.221 197.281 251.336 197.281C252.497 197.281 253.388 197.703 254.008 198.547H254.109L254.055 197.93L254.023 197.328V193.844H255.32V206H254.266L254.094 204.852ZM251.5 205.07C252.385 205.07 253.026 204.831 253.422 204.352C253.823 203.867 254.023 203.089 254.023 202.016V201.742C254.023 200.529 253.82 199.664 253.414 199.148C253.013 198.628 252.37 198.367 251.484 198.367C250.724 198.367 250.141 198.664 249.734 199.258C249.333 199.846 249.133 200.68 249.133 201.758C249.133 202.852 249.333 203.677 249.734 204.234C250.135 204.792 250.724 205.07 251.5 205.07ZM266.141 197.281C266.521 197.281 266.862 197.312 267.164 197.375L266.984 198.578C266.63 198.5 266.318 198.461 266.047 198.461C265.354 198.461 264.76 198.742 264.266 199.305C263.776 199.867 263.531 200.568 263.531 201.406V206H262.234V197.438H263.305L263.453 199.023H263.516C263.833 198.466 264.216 198.036 264.664 197.734C265.112 197.432 265.604 197.281 266.141 197.281ZM272.383 206.156C271.117 206.156 270.117 205.771 269.383 205C268.654 204.229 268.289 203.159 268.289 201.789C268.289 200.409 268.628 199.312 269.305 198.5C269.987 197.688 270.901 197.281 272.047 197.281C273.12 197.281 273.969 197.635 274.594 198.344C275.219 199.047 275.531 199.977 275.531 201.133V201.953H269.633C269.659 202.958 269.911 203.721 270.391 204.242C270.875 204.763 271.555 205.023 272.43 205.023C273.352 205.023 274.263 204.831 275.164 204.445V205.602C274.706 205.799 274.271 205.94 273.859 206.023C273.453 206.112 272.961 206.156 272.383 206.156ZM272.031 198.367C271.344 198.367 270.794 198.591 270.383 199.039C269.977 199.487 269.737 200.107 269.664 200.898H274.141C274.141 200.081 273.958 199.456 273.594 199.023C273.229 198.586 272.708 198.367 272.031 198.367ZM279.625 206L276.375 197.438H277.766L279.609 202.516C280.026 203.703 280.271 204.474 280.344 204.828H280.406C280.464 204.552 280.643 203.982 280.945 203.117C281.253 202.247 281.938 200.354 283 197.438H284.391L281.141 206H279.625ZM289.383 206.156C288.117 206.156 287.117 205.771 286.383 205C285.654 204.229 285.289 203.159 285.289 201.789C285.289 200.409 285.628 199.312 286.305 198.5C286.987 197.688 287.901 197.281 289.047 197.281C290.12 197.281 290.969 197.635 291.594 198.344C292.219 199.047 292.531 199.977 292.531 201.133V201.953H286.633C286.659 202.958 286.911 203.721 287.391 204.242C287.875 204.763 288.555 205.023 289.43 205.023C290.352 205.023 291.263 204.831 292.164 204.445V205.602C291.706 205.799 291.271 205.94 290.859 206.023C290.453 206.112 289.961 206.156 289.383 206.156ZM289.031 198.367C288.344 198.367 287.794 198.591 287.383 199.039C286.977 199.487 286.737 200.107 286.664 200.898H291.141C291.141 200.081 290.958 199.456 290.594 199.023C290.229 198.586 289.708 198.367 289.031 198.367ZM300.016 206L299.758 204.781H299.695C299.268 205.318 298.841 205.682 298.414 205.875C297.992 206.062 297.464 206.156 296.828 206.156C295.979 206.156 295.312 205.938 294.828 205.5C294.349 205.062 294.109 204.44 294.109 203.633C294.109 201.904 295.492 200.997 298.258 200.914L299.711 200.867V200.336C299.711 199.664 299.565 199.169 299.273 198.852C298.987 198.529 298.526 198.367 297.891 198.367C297.177 198.367 296.37 198.586 295.469 199.023L295.07 198.031C295.492 197.802 295.953 197.622 296.453 197.492C296.958 197.362 297.464 197.297 297.969 197.297C298.99 197.297 299.745 197.523 300.234 197.977C300.729 198.43 300.977 199.156 300.977 200.156V206H300.016ZM297.086 205.086C297.893 205.086 298.526 204.865 298.984 204.422C299.448 203.979 299.68 203.359 299.68 202.562V201.789L298.383 201.844C297.352 201.88 296.607 202.042 296.148 202.328C295.695 202.609 295.469 203.049 295.469 203.648C295.469 204.117 295.609 204.474 295.891 204.719C296.177 204.964 296.576 205.086 297.086 205.086ZM304.953 206H303.656V193.844H304.953V206Z" class="path-1"/>
<circle cx="43" cy="247" r="11.5" class="circle-1"/>
<path d="M45.9062 251H40.0996V249.957L42.3086 247.736C42.9609 247.068 43.3926 246.596 43.6035 246.318C43.8184 246.037 43.9746 245.773 44.0723 245.527C44.1699 245.281 44.2188 245.018 44.2188 244.736C44.2188 244.35 44.1016 244.045 43.8672 243.822C43.6367 243.6 43.3164 243.488 42.9062 243.488C42.5781 243.488 42.2598 243.549 41.9512 243.67C41.6465 243.791 41.293 244.01 40.8906 244.326L40.1465 243.418C40.623 243.016 41.0859 242.73 41.5352 242.562C41.9844 242.395 42.4629 242.311 42.9707 242.311C43.7676 242.311 44.4062 242.52 44.8867 242.938C45.3672 243.352 45.6074 243.91 45.6074 244.613C45.6074 245 45.5371 245.367 45.3965 245.715C45.2598 246.062 45.0469 246.422 44.7578 246.793C44.4727 247.16 43.9961 247.658 43.3281 248.287L41.8398 249.729V249.787H45.9062V251Z" class="path-2"/>
<path d="M68.5713 243.764C67.6325 243.764 66.8942 244.096 66.3564 244.762C65.8187 245.427 65.5498 246.345 65.5498 247.517C65.5498 248.743 65.8073 249.67 66.3223 250.299C66.8418 250.928 67.5915 251.242 68.5713 251.242C68.9951 251.242 69.4053 251.201 69.8018 251.119C70.1982 251.033 70.6107 250.923 71.0391 250.791V252.192C70.2552 252.489 69.3665 252.637 68.373 252.637C66.9102 252.637 65.7868 252.195 65.0029 251.311C64.2191 250.422 63.8271 249.153 63.8271 247.503C63.8271 246.464 64.0163 245.555 64.3945 244.775C64.7773 243.996 65.3288 243.399 66.0488 242.984C66.7689 242.57 67.6143 242.362 68.585 242.362C69.6058 242.362 70.5492 242.576 71.415 243.005L70.8271 244.365C70.4899 244.206 70.1322 244.067 69.7539 243.948C69.3802 243.825 68.986 243.764 68.5713 243.764ZM79.7275 248.706C79.7275 249.941 79.4108 250.905 78.7773 251.598C78.1439 252.29 77.262 252.637 76.1318 252.637C75.4255 252.637 74.8011 252.477 74.2588 252.158C73.7165 251.839 73.2995 251.381 73.0078 250.784C72.7161 250.187 72.5703 249.494 72.5703 248.706C72.5703 247.48 72.8848 246.523 73.5137 245.835C74.1426 245.147 75.029 244.803 76.1729 244.803C77.2666 244.803 78.1325 245.156 78.7705 245.862C79.4085 246.564 79.7275 247.512 79.7275 248.706ZM74.2246 248.706C74.2246 250.451 74.8695 251.324 76.1592 251.324C77.4352 251.324 78.0732 250.451 78.0732 248.706C78.0732 246.979 77.4307 246.115 76.1455 246.115C75.471 246.115 74.9811 246.339 74.6758 246.785C74.375 247.232 74.2246 247.872 74.2246 248.706ZM87.9512 252.5H86.3379V247.838C86.3379 247.259 86.2285 246.828 86.0098 246.546C85.791 246.259 85.4492 246.115 84.9844 246.115C84.3646 246.115 83.9089 246.318 83.6172 246.724C83.3301 247.125 83.1865 247.795 83.1865 248.733V252.5H81.5801V244.939H82.8379L83.0635 245.931H83.1455C83.3551 245.571 83.6582 245.293 84.0547 245.097C84.4557 244.901 84.8955 244.803 85.374 244.803C86.5361 244.803 87.3063 245.199 87.6846 245.992H87.7939C88.0173 245.618 88.3317 245.327 88.7373 245.117C89.1429 244.908 89.6077 244.803 90.1318 244.803C91.0342 244.803 91.6904 245.031 92.1006 245.486C92.5153 245.942 92.7227 246.637 92.7227 247.571V252.5H91.1162V247.838C91.1162 247.259 91.0046 246.828 90.7812 246.546C90.5625 246.259 90.2207 246.115 89.7559 246.115C89.1315 246.115 88.6735 246.311 88.3818 246.703C88.0947 247.09 87.9512 247.688 87.9512 248.494V252.5ZM101.336 252.5H99.7227V247.838C99.7227 247.259 99.6133 246.828 99.3945 246.546C99.1758 246.259 98.834 246.115 98.3691 246.115C97.7493 246.115 97.2936 246.318 97.002 246.724C96.7148 247.125 96.5713 247.795 96.5713 248.733V252.5H94.9648V244.939H96.2227L96.4482 245.931H96.5303C96.7399 245.571 97.043 245.293 97.4395 245.097C97.8405 244.901 98.2803 244.803 98.7588 244.803C99.9209 244.803 100.691 245.199 101.069 245.992H101.179C101.402 245.618 101.716 245.327 102.122 245.117C102.528 244.908 102.993 244.803 103.517 244.803C104.419 244.803 105.075 245.031 105.485 245.486C105.9 245.942 106.107 246.637 106.107 247.571V252.5H104.501V247.838C104.501 247.259 104.389 246.828 104.166 246.546C103.947 246.259 103.605 246.115 103.141 246.115C102.516 246.115 102.058 246.311 101.767 246.703C101.479 247.09 101.336 247.688 101.336 248.494V252.5ZM109.956 252.5H108.35V244.939H109.956V252.5ZM108.254 242.937C108.254 242.649 108.331 242.428 108.486 242.273C108.646 242.118 108.871 242.041 109.163 242.041C109.446 242.041 109.664 242.118 109.819 242.273C109.979 242.428 110.059 242.649 110.059 242.937C110.059 243.21 109.979 243.426 109.819 243.586C109.664 243.741 109.446 243.818 109.163 243.818C108.871 243.818 108.646 243.741 108.486 243.586C108.331 243.426 108.254 243.21 108.254 242.937ZM115.076 251.338C115.468 251.338 115.86 251.276 116.252 251.153V252.363C116.074 252.441 115.844 252.505 115.562 252.555C115.284 252.609 114.994 252.637 114.693 252.637C113.171 252.637 112.41 251.835 112.41 250.23V246.156H111.378V245.445L112.485 244.857L113.032 243.258H114.023V244.939H116.177V246.156H114.023V250.203C114.023 250.59 114.119 250.878 114.311 251.064C114.507 251.247 114.762 251.338 115.076 251.338ZM128.194 245.527C128.194 246.571 127.853 247.371 127.169 247.927C126.485 248.483 125.512 248.761 124.25 248.761H123.211V252.5H121.577V242.506H124.455C125.704 242.506 126.638 242.761 127.258 243.271C127.882 243.782 128.194 244.534 128.194 245.527ZM123.211 247.387H124.079C124.918 247.387 125.533 247.241 125.925 246.949C126.317 246.658 126.513 246.202 126.513 245.582C126.513 245.008 126.337 244.579 125.986 244.297C125.635 244.014 125.089 243.873 124.346 243.873H123.211V247.387ZM133.321 252.637C132.146 252.637 131.225 252.295 130.56 251.611C129.899 250.923 129.568 249.978 129.568 248.774C129.568 247.539 129.876 246.569 130.491 245.862C131.106 245.156 131.952 244.803 133.027 244.803C134.025 244.803 134.814 245.106 135.393 245.712C135.971 246.318 136.261 247.152 136.261 248.214V249.082H131.223C131.245 249.816 131.444 250.381 131.817 250.777C132.191 251.169 132.717 251.365 133.396 251.365C133.843 251.365 134.258 251.324 134.641 251.242C135.028 251.156 135.443 251.014 135.885 250.818V252.124C135.493 252.311 135.096 252.443 134.695 252.521C134.294 252.598 133.836 252.637 133.321 252.637ZM133.027 246.02C132.517 246.02 132.107 246.181 131.797 246.505C131.492 246.828 131.309 247.3 131.25 247.92H134.682C134.673 247.296 134.522 246.824 134.23 246.505C133.939 246.181 133.538 246.02 133.027 246.02ZM141.921 244.803C142.244 244.803 142.511 244.826 142.721 244.871L142.563 246.368C142.336 246.313 142.099 246.286 141.853 246.286C141.21 246.286 140.688 246.496 140.287 246.915C139.891 247.334 139.692 247.879 139.692 248.549V252.5H138.086V244.939H139.344L139.556 246.272H139.638C139.888 245.821 140.214 245.464 140.615 245.199C141.021 244.935 141.456 244.803 141.921 244.803ZM145.735 252.5H144.129V244.939H145.735V252.5ZM144.033 242.937C144.033 242.649 144.111 242.428 144.266 242.273C144.425 242.118 144.651 242.041 144.942 242.041C145.225 242.041 145.444 242.118 145.599 242.273C145.758 242.428 145.838 242.649 145.838 242.937C145.838 243.21 145.758 243.426 145.599 243.586C145.444 243.741 145.225 243.818 144.942 243.818C144.651 243.818 144.425 243.741 144.266 243.586C144.111 243.426 144.033 243.21 144.033 242.937ZM154.745 248.706C154.745 249.941 154.428 250.905 153.795 251.598C153.161 252.29 152.28 252.637 151.149 252.637C150.443 252.637 149.819 252.477 149.276 252.158C148.734 251.839 148.317 251.381 148.025 250.784C147.734 250.187 147.588 249.494 147.588 248.706C147.588 247.48 147.902 246.523 148.531 245.835C149.16 245.147 150.047 244.803 151.19 244.803C152.284 244.803 153.15 245.156 153.788 245.862C154.426 246.564 154.745 247.512 154.745 248.706ZM149.242 248.706C149.242 250.451 149.887 251.324 151.177 251.324C152.453 251.324 153.091 250.451 153.091 248.706C153.091 246.979 152.448 246.115 151.163 246.115C150.489 246.115 149.999 246.339 149.693 246.785C149.393 247.232 149.242 247.872 149.242 248.706ZM159.147 252.637C158.204 252.637 157.468 252.295 156.939 251.611C156.411 250.928 156.146 249.968 156.146 248.733C156.146 247.494 156.413 246.53 156.946 245.842C157.484 245.149 158.227 244.803 159.175 244.803C160.168 244.803 160.925 245.17 161.444 245.903H161.526C161.449 245.361 161.41 244.933 161.41 244.618V241.863H163.023V252.5H161.766L161.485 251.509H161.41C160.895 252.261 160.141 252.637 159.147 252.637ZM159.578 251.338C160.239 251.338 160.72 251.153 161.021 250.784C161.321 250.41 161.476 249.807 161.485 248.973V248.747C161.485 247.795 161.33 247.118 161.021 246.717C160.711 246.316 160.225 246.115 159.564 246.115C158.999 246.115 158.564 246.345 158.259 246.806C157.953 247.261 157.801 247.913 157.801 248.761C157.801 249.599 157.949 250.24 158.245 250.682C158.541 251.119 158.986 251.338 159.578 251.338Z" class="path-3"/>
<path d="M181 247L214 247" class="path-4"/>
<circle cx="242" cy="247" r="11.5" class="circle-2"/>
<path d="M244.584 244.402C244.584 244.945 244.426 245.398 244.109 245.762C243.793 246.121 243.348 246.363 242.773 246.488V246.535C243.461 246.621 243.977 246.836 244.32 247.18C244.664 247.52 244.836 247.973 244.836 248.539C244.836 249.363 244.545 250 243.963 250.449C243.381 250.895 242.553 251.117 241.479 251.117C240.529 251.117 239.729 250.963 239.076 250.654V249.43C239.439 249.609 239.824 249.748 240.23 249.846C240.637 249.943 241.027 249.992 241.402 249.992C242.066 249.992 242.562 249.869 242.891 249.623C243.219 249.377 243.383 248.996 243.383 248.48C243.383 248.023 243.201 247.688 242.838 247.473C242.475 247.258 241.904 247.15 241.127 247.15H240.383V246.031H241.139C242.506 246.031 243.189 245.559 243.189 244.613C243.189 244.246 243.07 243.963 242.832 243.764C242.594 243.564 242.242 243.465 241.777 243.465C241.453 243.465 241.141 243.512 240.84 243.605C240.539 243.695 240.184 243.873 239.773 244.139L239.1 243.178C239.885 242.6 240.797 242.311 241.836 242.311C242.699 242.311 243.373 242.496 243.857 242.867C244.342 243.238 244.584 243.75 244.584 244.402Z" class="path-5"/>
<path d="M269.014 242.506H270.709L267.209 252.5H265.486L262 242.506H263.682L265.767 248.72C265.876 249.016 265.992 249.399 266.115 249.868C266.238 250.333 266.318 250.679 266.354 250.907C266.414 250.561 266.505 250.16 266.628 249.704C266.751 249.248 266.851 248.911 266.929 248.692L269.014 242.506ZM278.563 248.706C278.563 249.941 278.247 250.905 277.613 251.598C276.98 252.29 276.098 252.637 274.968 252.637C274.261 252.637 273.637 252.477 273.095 252.158C272.552 251.839 272.135 251.381 271.844 250.784C271.552 250.187 271.406 249.494 271.406 248.706C271.406 247.48 271.721 246.523 272.35 245.835C272.979 245.147 273.865 244.803 275.009 244.803C276.103 244.803 276.968 245.156 277.606 245.862C278.244 246.564 278.563 247.512 278.563 248.706ZM273.061 248.706C273.061 250.451 273.705 251.324 274.995 251.324C276.271 251.324 276.909 250.451 276.909 248.706C276.909 246.979 276.267 246.115 274.981 246.115C274.307 246.115 273.817 246.339 273.512 246.785C273.211 247.232 273.061 247.872 273.061 248.706ZM283.232 251.338C283.624 251.338 284.016 251.276 284.408 251.153V252.363C284.23 252.441 284 252.505 283.718 252.555C283.44 252.609 283.15 252.637 282.85 252.637C281.327 252.637 280.566 251.835 280.566 250.23V246.156H279.534V245.445L280.642 244.857L281.188 243.258H282.18V244.939H284.333V246.156H282.18V250.203C282.18 250.59 282.275 250.878 282.467 251.064C282.663 251.247 282.918 251.338 283.232 251.338ZM287.532 252.5H285.926V244.939H287.532V252.5ZM285.83 242.937C285.83 242.649 285.908 242.428 286.062 242.273C286.222 242.118 286.448 242.041 286.739 242.041C287.022 242.041 287.241 242.118 287.396 242.273C287.555 242.428 287.635 242.649 287.635 242.937C287.635 243.21 287.555 243.426 287.396 243.586C287.241 243.741 287.022 243.818 286.739 243.818C286.448 243.818 286.222 243.741 286.062 243.586C285.908 243.426 285.83 243.21 285.83 242.937ZM296.487 252.5H294.874V247.852C294.874 247.268 294.756 246.833 294.519 246.546C294.286 246.259 293.915 246.115 293.404 246.115C292.725 246.115 292.229 246.316 291.914 246.717C291.6 247.118 291.442 247.79 291.442 248.733V252.5H289.836V244.939H291.094L291.319 245.931H291.401C291.629 245.571 291.953 245.293 292.372 245.097C292.791 244.901 293.256 244.803 293.767 244.803C295.58 244.803 296.487 245.726 296.487 247.571V252.5ZM305.107 244.939V245.821L303.815 246.061C303.934 246.22 304.032 246.416 304.109 246.648C304.187 246.881 304.226 247.127 304.226 247.387C304.226 248.166 303.957 248.779 303.419 249.226C302.881 249.672 302.141 249.896 301.197 249.896C300.956 249.896 300.737 249.877 300.541 249.841C300.195 250.055 300.021 250.306 300.021 250.593C300.021 250.766 300.101 250.896 300.261 250.982C300.425 251.069 300.723 251.112 301.156 251.112H302.476C303.31 251.112 303.943 251.29 304.376 251.646C304.809 252.001 305.025 252.514 305.025 253.184C305.025 254.04 304.672 254.701 303.966 255.166C303.259 255.631 302.239 255.863 300.903 255.863C299.873 255.863 299.087 255.681 298.545 255.316C298.003 254.952 297.731 254.432 297.731 253.758C297.731 253.293 297.877 252.901 298.169 252.582C298.465 252.268 298.878 252.049 299.406 251.926C299.192 251.835 299.014 251.689 298.873 251.488C298.736 251.283 298.668 251.069 298.668 250.846C298.668 250.563 298.748 250.324 298.907 250.128C299.067 249.932 299.304 249.738 299.618 249.547C299.226 249.378 298.907 249.105 298.661 248.727C298.42 248.344 298.299 247.897 298.299 247.387C298.299 246.566 298.556 245.931 299.071 245.479C299.591 245.028 300.329 244.803 301.286 244.803C301.5 244.803 301.724 244.819 301.956 244.851C302.193 244.878 302.371 244.908 302.489 244.939H305.107ZM299.167 253.676C299.167 254.022 299.322 254.289 299.632 254.476C299.946 254.662 300.386 254.756 300.951 254.756C301.826 254.756 302.478 254.631 302.906 254.38C303.335 254.129 303.549 253.797 303.549 253.382C303.549 253.054 303.43 252.819 303.193 252.678C302.961 252.541 302.526 252.473 301.888 252.473H300.671C300.211 252.473 299.844 252.58 299.57 252.794C299.301 253.013 299.167 253.307 299.167 253.676ZM299.857 247.387C299.857 247.861 299.978 248.225 300.22 248.48C300.466 248.736 300.817 248.863 301.272 248.863C302.202 248.863 302.667 248.367 302.667 247.373C302.667 246.881 302.551 246.503 302.318 246.238C302.09 245.969 301.742 245.835 301.272 245.835C300.808 245.835 300.454 245.967 300.213 246.231C299.976 246.496 299.857 246.881 299.857 247.387ZM316.94 245.527C316.94 246.571 316.599 247.371 315.915 247.927C315.231 248.483 314.258 248.761 312.996 248.761H311.957V252.5H310.323V242.506H313.201C314.45 242.506 315.384 242.761 316.004 243.271C316.628 243.782 316.94 244.534 316.94 245.527ZM311.957 247.387H312.825C313.664 247.387 314.279 247.241 314.671 246.949C315.063 246.658 315.259 246.202 315.259 245.582C315.259 245.008 315.083 244.579 314.732 244.297C314.382 244.014 313.835 243.873 313.092 243.873H311.957V247.387ZM322.067 252.637C320.892 252.637 319.971 252.295 319.306 251.611C318.645 250.923 318.314 249.978 318.314 248.774C318.314 247.539 318.622 246.569 319.237 245.862C319.853 245.156 320.698 244.803 321.773 244.803C322.771 244.803 323.56 245.106 324.139 245.712C324.717 246.318 325.007 247.152 325.007 248.214V249.082H319.969C319.992 249.816 320.19 250.381 320.563 250.777C320.937 251.169 321.464 251.365 322.143 251.365C322.589 251.365 323.004 251.324 323.387 251.242C323.774 251.156 324.189 251.014 324.631 250.818V252.124C324.239 252.311 323.842 252.443 323.441 252.521C323.04 252.598 322.582 252.637 322.067 252.637ZM321.773 246.02C321.263 246.02 320.853 246.181 320.543 246.505C320.238 246.828 320.055 247.3 319.996 247.92H323.428C323.419 247.296 323.268 246.824 322.977 246.505C322.685 246.181 322.284 246.02 321.773 246.02ZM330.667 244.803C330.991 244.803 331.257 244.826 331.467 244.871L331.31 246.368C331.082 246.313 330.845 246.286 330.599 246.286C329.956 246.286 329.434 246.496 329.033 246.915C328.637 247.334 328.438 247.879 328.438 248.549V252.5H326.832V244.939H328.09L328.302 246.272H328.384C328.634 245.821 328.96 245.464 329.361 245.199C329.767 244.935 330.202 244.803 330.667 244.803ZM334.481 252.5H332.875V244.939H334.481V252.5ZM332.779 242.937C332.779 242.649 332.857 242.428 333.012 242.273C333.171 242.118 333.397 242.041 333.688 242.041C333.971 242.041 334.19 242.118 334.345 242.273C334.504 242.428 334.584 242.649 334.584 242.937C334.584 243.21 334.504 243.426 334.345 243.586C334.19 243.741 333.971 243.818 333.688 243.818C333.397 243.818 333.171 243.741 333.012 243.586C332.857 243.426 332.779 243.21 332.779 242.937ZM343.491 248.706C343.491 249.941 343.174 250.905 342.541 251.598C341.908 252.29 341.026 252.637 339.896 252.637C339.189 252.637 338.565 252.477 338.022 252.158C337.48 251.839 337.063 251.381 336.771 250.784C336.48 250.187 336.334 249.494 336.334 248.706C336.334 247.48 336.648 246.523 337.277 245.835C337.906 245.147 338.793 244.803 339.937 244.803C341.03 244.803 341.896 245.156 342.534 245.862C343.172 246.564 343.491 247.512 343.491 248.706ZM337.988 248.706C337.988 250.451 338.633 251.324 339.923 251.324C341.199 251.324 341.837 250.451 341.837 248.706C341.837 246.979 341.194 246.115 339.909 246.115C339.235 246.115 338.745 246.339 338.439 246.785C338.139 247.232 337.988 247.872 337.988 248.706ZM347.894 252.637C346.95 252.637 346.214 252.295 345.686 251.611C345.157 250.928 344.893 249.968 344.893 248.733C344.893 247.494 345.159 246.53 345.692 245.842C346.23 245.149 346.973 244.803 347.921 244.803C348.914 244.803 349.671 245.17 350.19 245.903H350.272C350.195 245.361 350.156 244.933 350.156 244.618V241.863H351.77V252.5H350.512L350.231 251.509H350.156C349.641 252.261 348.887 252.637 347.894 252.637ZM348.324 251.338C348.985 251.338 349.466 251.153 349.767 250.784C350.067 250.41 350.222 249.807 350.231 248.973V248.747C350.231 247.795 350.076 247.118 349.767 246.717C349.457 246.316 348.971 246.115 348.311 246.115C347.745 246.115 347.31 246.345 347.005 246.806C346.7 247.261 346.547 247.913 346.547 248.761C346.547 249.599 346.695 250.24 346.991 250.682C347.287 251.119 347.732 251.338 348.324 251.338Z" class="path-6"/>
<path d="M71.4609 48.6016C70.2057 48.6016 69.2135 49.0208 68.4844 49.8594C67.7604 50.6927 67.3984 51.8359 67.3984 53.2891C67.3984 54.7839 67.7474 55.9401 68.4453 56.7578C69.1484 57.5703 70.1484 57.9766 71.4453 57.9766C72.2422 57.9766 73.151 57.8333 74.1719 57.5469V58.7109C73.3802 59.0078 72.4036 59.1562 71.2422 59.1562C69.5599 59.1562 68.2604 58.6458 67.3438 57.625C66.4323 56.6042 65.9766 55.1536 65.9766 53.2734C65.9766 52.0964 66.1953 51.0651 66.6328 50.1797C67.0755 49.2943 67.7109 48.612 68.5391 48.1328C69.3724 47.6536 70.3516 47.4141 71.4766 47.4141C72.6745 47.4141 73.7214 47.6328 74.6172 48.0703L74.0547 49.2109C73.1901 48.8047 72.3255 48.6016 71.4609 48.6016ZM83.8594 54.7109C83.8594 56.1068 83.5078 57.1979 82.8047 57.9844C82.1016 58.7656 81.1302 59.1562 79.8906 59.1562C79.125 59.1562 78.4453 58.9766 77.8516 58.6172C77.2578 58.2578 76.7995 57.7422 76.4766 57.0703C76.1536 56.3984 75.9922 55.612 75.9922 54.7109C75.9922 53.3151 76.3411 52.2292 77.0391 51.4531C77.737 50.6719 78.7057 50.2812 79.9453 50.2812C81.1432 50.2812 82.0938 50.6797 82.7969 51.4766C83.5052 52.2734 83.8594 53.3516 83.8594 54.7109ZM77.3359 54.7109C77.3359 55.8047 77.5547 56.638 77.9922 57.2109C78.4297 57.7839 79.0729 58.0703 79.9219 58.0703C80.7708 58.0703 81.4141 57.7865 81.8516 57.2188C82.2943 56.6458 82.5156 55.8099 82.5156 54.7109C82.5156 53.6224 82.2943 52.7969 81.8516 52.2344C81.4141 51.6667 80.7656 51.3828 79.9062 51.3828C79.0573 51.3828 78.4167 51.6615 77.9844 52.2188C77.5521 52.776 77.3359 53.6068 77.3359 54.7109ZM87.3594 50.4375V55.9922C87.3594 56.6901 87.5182 57.2109 87.8359 57.5547C88.1536 57.8984 88.651 58.0703 89.3281 58.0703C90.224 58.0703 90.8776 57.8255 91.2891 57.3359C91.7057 56.8464 91.9141 56.0469 91.9141 54.9375V50.4375H93.2109V59H92.1406L91.9531 57.8516H91.8828C91.6172 58.2734 91.2474 58.5964 90.7734 58.8203C90.3047 59.0443 89.7682 59.1562 89.1641 59.1562C88.1224 59.1562 87.3411 58.9089 86.8203 58.4141C86.3047 57.9193 86.0469 57.1276 86.0469 56.0391V50.4375H87.3594ZM99.875 50.2812C100.255 50.2812 100.596 50.3125 100.898 50.375L100.719 51.5781C100.365 51.5 100.052 51.4609 99.7812 51.4609C99.0885 51.4609 98.4948 51.7422 98 52.3047C97.5104 52.8672 97.2656 53.5677 97.2656 54.4062V59H95.9688V50.4375H97.0391L97.1875 52.0234H97.25C97.5677 51.4661 97.9505 51.0365 98.3984 50.7344C98.8464 50.4323 99.3385 50.2812 99.875 50.2812ZM105.266 58.0859C105.495 58.0859 105.716 58.0703 105.93 58.0391C106.143 58.0026 106.312 57.9661 106.438 57.9297V58.9219C106.297 58.9896 106.089 59.0443 105.812 59.0859C105.542 59.1328 105.297 59.1562 105.078 59.1562C103.422 59.1562 102.594 58.2839 102.594 56.5391V51.4453H101.367V50.8203L102.594 50.2812L103.141 48.4531H103.891V50.4375H106.375V51.4453H103.891V56.4844C103.891 57 104.013 57.3958 104.258 57.6719C104.503 57.9479 104.839 58.0859 105.266 58.0859ZM113.68 56.6641C113.68 57.4609 113.383 58.0755 112.789 58.5078C112.195 58.9401 111.362 59.1562 110.289 59.1562C109.154 59.1562 108.268 58.9766 107.633 58.6172V57.4141C108.044 57.6224 108.484 57.7865 108.953 57.9062C109.427 58.026 109.883 58.0859 110.32 58.0859C110.997 58.0859 111.518 57.9792 111.883 57.7656C112.247 57.5469 112.43 57.2161 112.43 56.7734C112.43 56.4401 112.284 56.1562 111.992 55.9219C111.706 55.6823 111.143 55.401 110.305 55.0781C109.508 54.7812 108.94 54.5234 108.602 54.3047C108.268 54.0807 108.018 53.8281 107.852 53.5469C107.69 53.2656 107.609 52.9297 107.609 52.5391C107.609 51.8411 107.893 51.2917 108.461 50.8906C109.029 50.4844 109.807 50.2812 110.797 50.2812C111.719 50.2812 112.62 50.4688 113.5 50.8438L113.039 51.8984C112.18 51.5443 111.401 51.3672 110.703 51.3672C110.089 51.3672 109.625 51.4635 109.312 51.6562C109 51.849 108.844 52.1146 108.844 52.4531C108.844 52.6823 108.901 52.8776 109.016 53.0391C109.135 53.2005 109.326 53.3542 109.586 53.5C109.846 53.6458 110.346 53.8568 111.086 54.1328C112.102 54.5026 112.786 54.875 113.141 55.25C113.5 55.625 113.68 56.0964 113.68 56.6641ZM126.945 59L125.375 53.9766C125.276 53.6693 125.091 52.9714 124.82 51.8828H124.758C124.549 52.7943 124.367 53.4974 124.211 53.9922L122.594 59H121.094L118.758 50.4375H120.117C120.669 52.5885 121.089 54.2266 121.375 55.3516C121.667 56.4766 121.833 57.2344 121.875 57.625H121.938C121.995 57.3281 122.086 56.9453 122.211 56.4766C122.341 56.0026 122.453 55.6276 122.547 55.3516L124.117 50.4375H125.523L127.055 55.3516C127.346 56.2474 127.544 57 127.648 57.6094H127.711C127.732 57.4219 127.786 57.1328 127.875 56.7422C127.969 56.3516 128.513 54.25 129.508 50.4375H130.852L128.484 59H126.945ZM133.703 59H132.406V50.4375H133.703V59ZM132.297 48.1172C132.297 47.8203 132.37 47.6042 132.516 47.4688C132.661 47.3281 132.844 47.2578 133.062 47.2578C133.271 47.2578 133.451 47.3281 133.602 47.4688C133.753 47.6094 133.828 47.8255 133.828 48.1172C133.828 48.4089 133.753 48.6276 133.602 48.7734C133.451 48.9141 133.271 48.9844 133.062 48.9844C132.844 48.9844 132.661 48.9141 132.516 48.7734C132.37 48.6276 132.297 48.4089 132.297 48.1172ZM139.219 58.0859C139.448 58.0859 139.669 58.0703 139.883 58.0391C140.096 58.0026 140.266 57.9661 140.391 57.9297V58.9219C140.25 58.9896 140.042 59.0443 139.766 59.0859C139.495 59.1328 139.25 59.1562 139.031 59.1562C137.375 59.1562 136.547 58.2839 136.547 56.5391V51.4453H135.32V50.8203L136.547 50.2812L137.094 48.4531H137.844V50.4375H140.328V51.4453H137.844V56.4844C137.844 57 137.966 57.3958 138.211 57.6719C138.456 57.9479 138.792 58.0859 139.219 58.0859ZM147.969 59V53.4609C147.969 52.763 147.81 52.2422 147.492 51.8984C147.174 51.5547 146.677 51.3828 146 51.3828C145.099 51.3828 144.44 51.6276 144.023 52.1172C143.612 52.6068 143.406 53.4089 143.406 54.5234V59H142.109V46.8438H143.406V50.5234C143.406 50.9661 143.385 51.3333 143.344 51.625H143.422C143.677 51.2135 144.039 50.8906 144.508 50.6562C144.982 50.4167 145.521 50.2969 146.125 50.2969C147.172 50.2969 147.956 50.5469 148.477 51.0469C149.003 51.5417 149.266 52.3307 149.266 53.4141V59H147.969ZM159.328 54.7109C159.328 56.1068 158.977 57.1979 158.273 57.9844C157.57 58.7656 156.599 59.1562 155.359 59.1562C154.594 59.1562 153.914 58.9766 153.32 58.6172C152.727 58.2578 152.268 57.7422 151.945 57.0703C151.622 56.3984 151.461 55.612 151.461 54.7109C151.461 53.3151 151.81 52.2292 152.508 51.4531C153.206 50.6719 154.174 50.2812 155.414 50.2812C156.612 50.2812 157.562 50.6797 158.266 51.4766C158.974 52.2734 159.328 53.3516 159.328 54.7109ZM152.805 54.7109C152.805 55.8047 153.023 56.638 153.461 57.2109C153.898 57.7839 154.542 58.0703 155.391 58.0703C156.24 58.0703 156.883 57.7865 157.32 57.2188C157.763 56.6458 157.984 55.8099 157.984 54.7109C157.984 53.6224 157.763 52.7969 157.32 52.2344C156.883 51.6667 156.234 51.3828 155.375 51.3828C154.526 51.3828 153.885 51.6615 153.453 52.2188C153.021 52.776 152.805 53.6068 152.805 54.7109ZM162.828 50.4375V55.9922C162.828 56.6901 162.987 57.2109 163.305 57.5547C163.622 57.8984 164.12 58.0703 164.797 58.0703C165.693 58.0703 166.346 57.8255 166.758 57.3359C167.174 56.8464 167.383 56.0469 167.383 54.9375V50.4375H168.68V59H167.609L167.422 57.8516H167.352C167.086 58.2734 166.716 58.5964 166.242 58.8203C165.773 59.0443 165.237 59.1562 164.633 59.1562C163.591 59.1562 162.81 58.9089 162.289 58.4141C161.773 57.9193 161.516 57.1276 161.516 56.0391V50.4375H162.828ZM174.203 58.0859C174.432 58.0859 174.654 58.0703 174.867 58.0391C175.081 58.0026 175.25 57.9661 175.375 57.9297V58.9219C175.234 58.9896 175.026 59.0443 174.75 59.0859C174.479 59.1328 174.234 59.1562 174.016 59.1562C172.359 59.1562 171.531 58.2839 171.531 56.5391V51.4453H170.305V50.8203L171.531 50.2812L172.078 48.4531H172.828V50.4375H175.312V51.4453H172.828V56.4844C172.828 57 172.951 57.3958 173.195 57.6719C173.44 57.9479 173.776 58.0859 174.203 58.0859ZM184.672 59.1562C183.432 59.1562 182.471 58.776 181.789 58.0156C181.112 57.25 180.773 56.1693 180.773 54.7734C180.773 53.3411 181.117 52.2344 181.805 51.4531C182.497 50.6719 183.482 50.2812 184.758 50.2812C185.169 50.2812 185.581 50.3255 185.992 50.4141C186.404 50.5026 186.727 50.6068 186.961 50.7266L186.562 51.8281C186.276 51.7135 185.964 51.6198 185.625 51.5469C185.286 51.4688 184.987 51.4297 184.727 51.4297C182.987 51.4297 182.117 52.5391 182.117 54.7578C182.117 55.8099 182.328 56.6172 182.75 57.1797C183.177 57.7422 183.807 58.0234 184.641 58.0234C185.354 58.0234 186.086 57.8698 186.836 57.5625V58.7109C186.263 59.0078 185.542 59.1562 184.672 59.1562ZM196.266 54.7109C196.266 56.1068 195.914 57.1979 195.211 57.9844C194.508 58.7656 193.536 59.1562 192.297 59.1562C191.531 59.1562 190.852 58.9766 190.258 58.6172C189.664 58.2578 189.206 57.7422 188.883 57.0703C188.56 56.3984 188.398 55.612 188.398 54.7109C188.398 53.3151 188.747 52.2292 189.445 51.4531C190.143 50.6719 191.112 50.2812 192.352 50.2812C193.549 50.2812 194.5 50.6797 195.203 51.4766C195.911 52.2734 196.266 53.3516 196.266 54.7109ZM189.742 54.7109C189.742 55.8047 189.961 56.638 190.398 57.2109C190.836 57.7839 191.479 58.0703 192.328 58.0703C193.177 58.0703 193.82 57.7865 194.258 57.2188C194.701 56.6458 194.922 55.8099 194.922 54.7109C194.922 53.6224 194.701 52.7969 194.258 52.2344C193.82 51.6667 193.172 51.3828 192.312 51.3828C191.464 51.3828 190.823 51.6615 190.391 52.2188C189.958 52.776 189.742 53.6068 189.742 54.7109ZM209.461 59V53.4297C209.461 52.7474 209.315 52.237 209.023 51.8984C208.732 51.5547 208.279 51.3828 207.664 51.3828C206.857 51.3828 206.26 51.6146 205.875 52.0781C205.49 52.5417 205.297 53.2552 205.297 54.2188V59H204V53.4297C204 52.7474 203.854 52.237 203.562 51.8984C203.271 51.5547 202.815 51.3828 202.195 51.3828C201.383 51.3828 200.786 51.6276 200.406 52.1172C200.031 52.6016 199.844 53.3984 199.844 54.5078V59H198.547V50.4375H199.602L199.812 51.6094H199.875C200.12 51.1927 200.464 50.8672 200.906 50.6328C201.354 50.3984 201.854 50.2812 202.406 50.2812C203.745 50.2812 204.62 50.7656 205.031 51.7344H205.094C205.349 51.2865 205.719 50.9323 206.203 50.6719C206.688 50.4115 207.24 50.2812 207.859 50.2812C208.828 50.2812 209.552 50.5312 210.031 51.0312C210.516 51.526 210.758 52.3203 210.758 53.4141V59H209.461ZM224.352 59V53.4297C224.352 52.7474 224.206 52.237 223.914 51.8984C223.622 51.5547 223.169 51.3828 222.555 51.3828C221.747 51.3828 221.151 51.6146 220.766 52.0781C220.38 52.5417 220.188 53.2552 220.188 54.2188V59H218.891V53.4297C218.891 52.7474 218.745 52.237 218.453 51.8984C218.161 51.5547 217.706 51.3828 217.086 51.3828C216.273 51.3828 215.677 51.6276 215.297 52.1172C214.922 52.6016 214.734 53.3984 214.734 54.5078V59H213.438V50.4375H214.492L214.703 51.6094H214.766C215.01 51.1927 215.354 50.8672 215.797 50.6328C216.245 50.3984 216.745 50.2812 217.297 50.2812C218.635 50.2812 219.51 50.7656 219.922 51.7344H219.984C220.24 51.2865 220.609 50.9323 221.094 50.6719C221.578 50.4115 222.13 50.2812 222.75 50.2812C223.719 50.2812 224.443 50.5312 224.922 51.0312C225.406 51.526 225.648 52.3203 225.648 53.4141V59H224.352ZM229.625 59H228.328V50.4375H229.625V59ZM228.219 48.1172C228.219 47.8203 228.292 47.6042 228.438 47.4688C228.583 47.3281 228.766 47.2578 228.984 47.2578C229.193 47.2578 229.372 47.3281 229.523 47.4688C229.674 47.6094 229.75 47.8255 229.75 48.1172C229.75 48.4089 229.674 48.6276 229.523 48.7734C229.372 48.9141 229.193 48.9844 228.984 48.9844C228.766 48.9844 228.583 48.9141 228.438 48.7734C228.292 48.6276 228.219 48.4089 228.219 48.1172ZM235.141 58.0859C235.37 58.0859 235.591 58.0703 235.805 58.0391C236.018 58.0026 236.188 57.9661 236.312 57.9297V58.9219C236.172 58.9896 235.964 59.0443 235.688 59.0859C235.417 59.1328 235.172 59.1562 234.953 59.1562C233.297 59.1562 232.469 58.2839 232.469 56.5391V51.4453H231.242V50.8203L232.469 50.2812L233.016 48.4531H233.766V50.4375H236.25V51.4453H233.766V56.4844C233.766 57 233.888 57.3958 234.133 57.6719C234.378 57.9479 234.714 58.0859 235.141 58.0859ZM247.453 59L247.195 57.7812H247.133C246.706 58.3177 246.279 58.6823 245.852 58.875C245.43 59.0625 244.901 59.1562 244.266 59.1562C243.417 59.1562 242.75 58.9375 242.266 58.5C241.786 58.0625 241.547 57.4401 241.547 56.6328C241.547 54.9036 242.93 53.9974 245.695 53.9141L247.148 53.8672V53.3359C247.148 52.6641 247.003 52.1693 246.711 51.8516C246.424 51.5286 245.964 51.3672 245.328 51.3672C244.615 51.3672 243.807 51.5859 242.906 52.0234L242.508 51.0312C242.93 50.8021 243.391 50.6224 243.891 50.4922C244.396 50.362 244.901 50.2969 245.406 50.2969C246.427 50.2969 247.182 50.5234 247.672 50.9766C248.167 51.4297 248.414 52.1562 248.414 53.1562V59H247.453ZM244.523 58.0859C245.331 58.0859 245.964 57.8646 246.422 57.4219C246.885 56.9792 247.117 56.3594 247.117 55.5625V54.7891L245.82 54.8438C244.789 54.8802 244.044 55.0417 243.586 55.3281C243.133 55.6094 242.906 56.0495 242.906 56.6484C242.906 57.1172 243.047 57.474 243.328 57.7188C243.615 57.9635 244.013 58.0859 244.523 58.0859ZM256.953 59V53.4609C256.953 52.763 256.794 52.2422 256.477 51.8984C256.159 51.5547 255.661 51.3828 254.984 51.3828C254.089 51.3828 253.432 51.625 253.016 52.1094C252.599 52.5938 252.391 53.3932 252.391 54.5078V59H251.094V50.4375H252.148L252.359 51.6094H252.422C252.688 51.1875 253.06 50.862 253.539 50.6328C254.018 50.3984 254.552 50.2812 255.141 50.2812C256.172 50.2812 256.948 50.5312 257.469 51.0312C257.99 51.526 258.25 52.3203 258.25 53.4141V59H256.953ZM266.75 57.8516H266.68C266.081 58.7214 265.185 59.1562 263.992 59.1562C262.872 59.1562 262 58.7734 261.375 58.0078C260.755 57.2422 260.445 56.1536 260.445 54.7422C260.445 53.3307 260.758 52.2344 261.383 51.4531C262.008 50.6719 262.878 50.2812 263.992 50.2812C265.154 50.2812 266.044 50.7031 266.664 51.5469H266.766L266.711 50.9297L266.68 50.3281V46.8438H267.977V59H266.922L266.75 57.8516ZM264.156 58.0703C265.042 58.0703 265.682 57.8307 266.078 57.3516C266.479 56.8672 266.68 56.0885 266.68 55.0156V54.7422C266.68 53.5286 266.477 52.6641 266.07 52.1484C265.669 51.6276 265.026 51.3672 264.141 51.3672C263.38 51.3672 262.797 51.6641 262.391 52.2578C261.99 52.8464 261.789 53.6797 261.789 54.7578C261.789 55.8516 261.99 56.6771 262.391 57.2344C262.792 57.7917 263.38 58.0703 264.156 58.0703ZM278.797 50.2812C279.177 50.2812 279.518 50.3125 279.82 50.375L279.641 51.5781C279.286 51.5 278.974 51.4609 278.703 51.4609C278.01 51.4609 277.417 51.7422 276.922 52.3047C276.432 52.8672 276.188 53.5677 276.188 54.4062V59H274.891V50.4375H275.961L276.109 52.0234H276.172C276.49 51.4661 276.872 51.0365 277.32 50.7344C277.768 50.4323 278.26 50.2812 278.797 50.2812ZM285.039 59.1562C283.773 59.1562 282.773 58.7708 282.039 58C281.31 57.2292 280.945 56.1589 280.945 54.7891C280.945 53.4089 281.284 52.3125 281.961 51.5C282.643 50.6875 283.557 50.2812 284.703 50.2812C285.776 50.2812 286.625 50.6354 287.25 51.3438C287.875 52.0469 288.188 52.9766 288.188 54.1328V54.9531H282.289C282.315 55.9583 282.568 56.7214 283.047 57.2422C283.531 57.763 284.211 58.0234 285.086 58.0234C286.008 58.0234 286.919 57.8307 287.82 57.4453V58.6016C287.362 58.7995 286.927 58.9401 286.516 59.0234C286.109 59.112 285.617 59.1562 285.039 59.1562ZM284.688 51.3672C284 51.3672 283.451 51.5911 283.039 52.0391C282.633 52.487 282.393 53.1068 282.32 53.8984H286.797C286.797 53.0807 286.615 52.4557 286.25 52.0234C285.885 51.5859 285.365 51.3672 284.688 51.3672ZM292.281 59L289.031 50.4375H290.422L292.266 55.5156C292.682 56.7031 292.927 57.474 293 57.8281H293.062C293.12 57.5521 293.299 56.9818 293.602 56.1172C293.909 55.2474 294.594 53.3542 295.656 50.4375H297.047L293.797 59H292.281ZM302.039 59.1562C300.773 59.1562 299.773 58.7708 299.039 58C298.31 57.2292 297.945 56.1589 297.945 54.7891C297.945 53.4089 298.284 52.3125 298.961 51.5C299.643 50.6875 300.557 50.2812 301.703 50.2812C302.776 50.2812 303.625 50.6354 304.25 51.3438C304.875 52.0469 305.188 52.9766 305.188 54.1328V54.9531H299.289C299.315 55.9583 299.568 56.7214 300.047 57.2422C300.531 57.763 301.211 58.0234 302.086 58.0234C303.008 58.0234 303.919 57.8307 304.82 57.4453V58.6016C304.362 58.7995 303.927 58.9401 303.516 59.0234C303.109 59.112 302.617 59.1562 302.039 59.1562ZM301.688 51.3672C301 51.3672 300.451 51.5911 300.039 52.0391C299.633 52.487 299.393 53.1068 299.32 53.8984H303.797C303.797 53.0807 303.615 52.4557 303.25 52.0234C302.885 51.5859 302.365 51.3672 301.688 51.3672ZM312.672 59L312.414 57.7812H312.352C311.924 58.3177 311.497 58.6823 311.07 58.875C310.648 59.0625 310.12 59.1562 309.484 59.1562C308.635 59.1562 307.969 58.9375 307.484 58.5C307.005 58.0625 306.766 57.4401 306.766 56.6328C306.766 54.9036 308.148 53.9974 310.914 53.9141L312.367 53.8672V53.3359C312.367 52.6641 312.221 52.1693 311.93 51.8516C311.643 51.5286 311.182 51.3672 310.547 51.3672C309.833 51.3672 309.026 51.5859 308.125 52.0234L307.727 51.0312C308.148 50.8021 308.609 50.6224 309.109 50.4922C309.615 50.362 310.12 50.2969 310.625 50.2969C311.646 50.2969 312.401 50.5234 312.891 50.9766C313.385 51.4297 313.633 52.1562 313.633 53.1562V59H312.672ZM309.742 58.0859C310.549 58.0859 311.182 57.8646 311.641 57.4219C312.104 56.9792 312.336 56.3594 312.336 55.5625V54.7891L311.039 54.8438C310.008 54.8802 309.263 55.0417 308.805 55.3281C308.352 55.6094 308.125 56.0495 308.125 56.6484C308.125 57.1172 308.266 57.474 308.547 57.7188C308.833 57.9635 309.232 58.0859 309.742 58.0859ZM317.609 59H316.312V46.8438H317.609V59Z" class="path-7"/>
<path d="M81.5 100L114.5 100" class="path-8"/>
<circle cx="142.5" cy="100" r="11.5" class="circle-3"/>
<path d="M145.406 104H139.6V102.957L141.809 100.736C142.461 100.068 142.893 99.5957 143.104 99.3184C143.318 99.0371 143.475 98.7734 143.572 98.5273C143.67 98.2812 143.719 98.0176 143.719 97.7363C143.719 97.3496 143.602 97.0449 143.367 96.8223C143.137 96.5996 142.816 96.4883 142.406 96.4883C142.078 96.4883 141.76 96.5488 141.451 96.6699C141.146 96.791 140.793 97.0098 140.391 97.3262L139.646 96.418C140.123 96.0156 140.586 95.7305 141.035 95.5625C141.484 95.3945 141.963 95.3105 142.471 95.3105C143.268 95.3105 143.906 95.5195 144.387 95.9375C144.867 96.3516 145.107 96.9102 145.107 97.6133C145.107 98 145.037 98.3672 144.896 98.7148C144.76 99.0625 144.547 99.4219 144.258 99.793C143.973 100.16 143.496 100.658 142.828 101.287L141.34 102.729V102.787H145.406V104Z" class="path-9"/>
<path d="M169.514 95.5059H171.209L167.709 105.5H165.986L162.5 95.5059H164.182L166.267 101.72C166.376 102.016 166.492 102.399 166.615 102.868C166.738 103.333 166.818 103.679 166.854 103.907C166.914 103.561 167.005 103.16 167.128 102.704C167.251 102.248 167.351 101.911 167.429 101.692L169.514 95.5059ZM179.063 101.706C179.063 102.941 178.747 103.905 178.113 104.598C177.48 105.29 176.598 105.637 175.468 105.637C174.761 105.637 174.137 105.477 173.595 105.158C173.052 104.839 172.635 104.381 172.344 103.784C172.052 103.187 171.906 102.494 171.906 101.706C171.906 100.48 172.221 99.5231 172.85 98.835C173.479 98.1468 174.365 97.8027 175.509 97.8027C176.603 97.8027 177.468 98.1559 178.106 98.8623C178.744 99.5641 179.063 100.512 179.063 101.706ZM173.561 101.706C173.561 103.451 174.205 104.324 175.495 104.324C176.771 104.324 177.409 103.451 177.409 101.706C177.409 99.9788 176.767 99.1152 175.481 99.1152C174.807 99.1152 174.317 99.3385 174.012 99.7852C173.711 100.232 173.561 100.872 173.561 101.706ZM183.732 104.338C184.124 104.338 184.516 104.276 184.908 104.153V105.363C184.73 105.441 184.5 105.505 184.218 105.555C183.94 105.609 183.65 105.637 183.35 105.637C181.827 105.637 181.066 104.835 181.066 103.23V99.1562H180.034V98.4453L181.142 97.8574L181.688 96.2578H182.68V97.9395H184.833V99.1562H182.68V103.203C182.68 103.59 182.775 103.878 182.967 104.064C183.163 104.247 183.418 104.338 183.732 104.338ZM188.032 105.5H186.426V97.9395H188.032V105.5ZM186.33 95.9365C186.33 95.6494 186.408 95.4284 186.562 95.2734C186.722 95.1185 186.948 95.041 187.239 95.041C187.522 95.041 187.741 95.1185 187.896 95.2734C188.055 95.4284 188.135 95.6494 188.135 95.9365C188.135 96.21 188.055 96.4264 187.896 96.5859C187.741 96.7409 187.522 96.8184 187.239 96.8184C186.948 96.8184 186.722 96.7409 186.562 96.5859C186.408 96.4264 186.33 96.21 186.33 95.9365ZM196.987 105.5H195.374V100.852C195.374 100.268 195.256 99.833 195.019 99.5459C194.786 99.2588 194.415 99.1152 193.904 99.1152C193.225 99.1152 192.729 99.3158 192.414 99.7168C192.1 100.118 191.942 100.79 191.942 101.733V105.5H190.336V97.9395H191.594L191.819 98.9307H191.901C192.129 98.5706 192.453 98.2926 192.872 98.0967C193.291 97.9007 193.756 97.8027 194.267 97.8027C196.08 97.8027 196.987 98.7256 196.987 100.571V105.5ZM205.607 97.9395V98.8213L204.315 99.0605C204.434 99.2201 204.532 99.416 204.609 99.6484C204.687 99.8809 204.726 100.127 204.726 100.387C204.726 101.166 204.457 101.779 203.919 102.226C203.381 102.672 202.641 102.896 201.697 102.896C201.456 102.896 201.237 102.877 201.041 102.841C200.695 103.055 200.521 103.306 200.521 103.593C200.521 103.766 200.601 103.896 200.761 103.982C200.925 104.069 201.223 104.112 201.656 104.112H202.976C203.81 104.112 204.443 104.29 204.876 104.646C205.309 105.001 205.525 105.514 205.525 106.184C205.525 107.04 205.172 107.701 204.466 108.166C203.759 108.631 202.739 108.863 201.403 108.863C200.373 108.863 199.587 108.681 199.045 108.316C198.503 107.952 198.231 107.432 198.231 106.758C198.231 106.293 198.377 105.901 198.669 105.582C198.965 105.268 199.378 105.049 199.906 104.926C199.692 104.835 199.514 104.689 199.373 104.488C199.236 104.283 199.168 104.069 199.168 103.846C199.168 103.563 199.248 103.324 199.407 103.128C199.567 102.932 199.804 102.738 200.118 102.547C199.726 102.378 199.407 102.105 199.161 101.727C198.92 101.344 198.799 100.897 198.799 100.387C198.799 99.5664 199.056 98.9307 199.571 98.4795C200.091 98.0283 200.829 97.8027 201.786 97.8027C202 97.8027 202.224 97.8187 202.456 97.8506C202.693 97.8779 202.871 97.9076 202.989 97.9395H205.607ZM199.667 106.676C199.667 107.022 199.822 107.289 200.132 107.476C200.446 107.662 200.886 107.756 201.451 107.756C202.326 107.756 202.978 107.631 203.406 107.38C203.835 107.129 204.049 106.797 204.049 106.382C204.049 106.054 203.93 105.819 203.693 105.678C203.461 105.541 203.026 105.473 202.388 105.473H201.171C200.711 105.473 200.344 105.58 200.07 105.794C199.801 106.013 199.667 106.307 199.667 106.676ZM200.357 100.387C200.357 100.861 200.478 101.225 200.72 101.48C200.966 101.736 201.317 101.863 201.772 101.863C202.702 101.863 203.167 101.367 203.167 100.373C203.167 99.8809 203.051 99.5026 202.818 99.2383C202.59 98.9694 202.242 98.835 201.772 98.835C201.308 98.835 200.954 98.9671 200.713 99.2314C200.476 99.4958 200.357 99.8809 200.357 100.387ZM217.44 98.5273C217.44 99.571 217.099 100.371 216.415 100.927C215.731 101.483 214.758 101.761 213.496 101.761H212.457V105.5H210.823V95.5059H213.701C214.95 95.5059 215.884 95.7611 216.504 96.2715C217.128 96.7819 217.44 97.5339 217.44 98.5273ZM212.457 100.387H213.325C214.164 100.387 214.779 100.241 215.171 99.9492C215.563 99.6576 215.759 99.2018 215.759 98.582C215.759 98.0078 215.583 97.5794 215.232 97.2969C214.882 97.0143 214.335 96.873 213.592 96.873H212.457V100.387ZM222.567 105.637C221.392 105.637 220.471 105.295 219.806 104.611C219.145 103.923 218.814 102.978 218.814 101.774C218.814 100.539 219.122 99.5687 219.737 98.8623C220.353 98.1559 221.198 97.8027 222.273 97.8027C223.271 97.8027 224.06 98.1058 224.639 98.7119C225.217 99.318 225.507 100.152 225.507 101.214V102.082H220.469C220.492 102.816 220.69 103.381 221.063 103.777C221.437 104.169 221.964 104.365 222.643 104.365C223.089 104.365 223.504 104.324 223.887 104.242C224.274 104.156 224.689 104.014 225.131 103.818V105.124C224.739 105.311 224.342 105.443 223.941 105.521C223.54 105.598 223.082 105.637 222.567 105.637ZM222.273 99.0195C221.763 99.0195 221.353 99.1813 221.043 99.5049C220.738 99.8285 220.555 100.3 220.496 100.92H223.928C223.919 100.296 223.768 99.8239 223.477 99.5049C223.185 99.1813 222.784 99.0195 222.273 99.0195ZM231.167 97.8027C231.491 97.8027 231.757 97.8255 231.967 97.8711L231.81 99.3682C231.582 99.3135 231.345 99.2861 231.099 99.2861C230.456 99.2861 229.934 99.4958 229.533 99.915C229.137 100.334 228.938 100.879 228.938 101.549V105.5H227.332V97.9395H228.59L228.802 99.2725H228.884C229.134 98.8213 229.46 98.4635 229.861 98.1992C230.267 97.9349 230.702 97.8027 231.167 97.8027ZM234.981 105.5H233.375V97.9395H234.981V105.5ZM233.279 95.9365C233.279 95.6494 233.357 95.4284 233.512 95.2734C233.671 95.1185 233.897 95.041 234.188 95.041C234.471 95.041 234.69 95.1185 234.845 95.2734C235.004 95.4284 235.084 95.6494 235.084 95.9365C235.084 96.21 235.004 96.4264 234.845 96.5859C234.69 96.7409 234.471 96.8184 234.188 96.8184C233.897 96.8184 233.671 96.7409 233.512 96.5859C233.357 96.4264 233.279 96.21 233.279 95.9365ZM243.991 101.706C243.991 102.941 243.674 103.905 243.041 104.598C242.408 105.29 241.526 105.637 240.396 105.637C239.689 105.637 239.065 105.477 238.522 105.158C237.98 104.839 237.563 104.381 237.271 103.784C236.98 103.187 236.834 102.494 236.834 101.706C236.834 100.48 237.148 99.5231 237.777 98.835C238.406 98.1468 239.293 97.8027 240.437 97.8027C241.53 97.8027 242.396 98.1559 243.034 98.8623C243.672 99.5641 243.991 100.512 243.991 101.706ZM238.488 101.706C238.488 103.451 239.133 104.324 240.423 104.324C241.699 104.324 242.337 103.451 242.337 101.706C242.337 99.9788 241.694 99.1152 240.409 99.1152C239.735 99.1152 239.245 99.3385 238.939 99.7852C238.639 100.232 238.488 100.872 238.488 101.706ZM248.394 105.637C247.45 105.637 246.714 105.295 246.186 104.611C245.657 103.928 245.393 102.968 245.393 101.733C245.393 100.494 245.659 99.5299 246.192 98.8418C246.73 98.1491 247.473 97.8027 248.421 97.8027C249.414 97.8027 250.171 98.1696 250.69 98.9033H250.772C250.695 98.361 250.656 97.9326 250.656 97.6182V94.8633H252.27V105.5H251.012L250.731 104.509H250.656C250.141 105.261 249.387 105.637 248.394 105.637ZM248.824 104.338C249.485 104.338 249.966 104.153 250.267 103.784C250.567 103.41 250.722 102.807 250.731 101.973V101.747C250.731 100.795 250.576 100.118 250.267 99.7168C249.957 99.3158 249.471 99.1152 248.811 99.1152C248.245 99.1152 247.81 99.3454 247.505 99.8057C247.2 100.261 247.047 100.913 247.047 101.761C247.047 102.599 247.195 103.24 247.491 103.682C247.787 104.119 248.232 104.338 248.824 104.338Z" class="path-10"/>
<path d="M269.5 100L302.5 100" class="path-11"/>
</svg>
