<svg viewBox="0 0 384 301" fill="none" xmlns="http://www.w3.org/2000/svg">
<rect x="0.5" y="0.5" width="383" height="300" rx="2.5" class="rect-1"/>
<rect x="25" y="98.7461" width="155" height="45" rx="3" class="rect-2"/>
<path d="M66.2422 119.277C66.2422 120.47 65.8516 121.384 65.0703 122.02C64.2891 122.655 63.1771 122.973 61.7344 122.973H60.5469V127.246H58.6797V115.824H61.9688C63.3958 115.824 64.4635 116.116 65.1719 116.699C65.8854 117.283 66.2422 118.142 66.2422 119.277ZM60.5469 121.402H61.5391C62.4974 121.402 63.2005 121.236 63.6484 120.902C64.0964 120.569 64.3203 120.048 64.3203 119.34C64.3203 118.684 64.1198 118.194 63.7188 117.871C63.3177 117.548 62.6927 117.387 61.8438 117.387H60.5469V121.402ZM73.7344 127.246L73.3672 126.043H73.3047C72.888 126.569 72.4688 126.928 72.0469 127.121C71.625 127.309 71.0833 127.402 70.4219 127.402C69.5729 127.402 68.9089 127.173 68.4297 126.715C67.9557 126.257 67.7188 125.608 67.7188 124.77C67.7188 123.879 68.0495 123.207 68.7109 122.754C69.3724 122.301 70.3802 122.053 71.7344 122.012L73.2266 121.965V121.504C73.2266 120.952 73.0964 120.54 72.8359 120.27C72.5807 119.993 72.1823 119.855 71.6406 119.855C71.1979 119.855 70.7734 119.921 70.3672 120.051C69.9609 120.181 69.5703 120.335 69.1953 120.512L68.6016 119.199C69.0703 118.954 69.5833 118.77 70.1406 118.645C70.6979 118.514 71.224 118.449 71.7188 118.449C72.8177 118.449 73.6458 118.689 74.2031 119.168C74.7656 119.647 75.0469 120.4 75.0469 121.426V127.246H73.7344ZM71 125.996C71.6667 125.996 72.2005 125.811 72.6016 125.441C73.0078 125.066 73.2109 124.543 73.2109 123.871V123.121L72.1016 123.168C71.237 123.199 70.6068 123.345 70.2109 123.605C69.8203 123.861 69.625 124.254 69.625 124.785C69.625 125.171 69.7396 125.47 69.9688 125.684C70.1979 125.892 70.5417 125.996 71 125.996ZM76.2969 118.605H78.2969L80.0547 123.504C80.3203 124.202 80.4974 124.858 80.5859 125.473H80.6484C80.6953 125.186 80.7812 124.84 80.9062 124.434C81.0312 124.022 81.6927 122.079 82.8906 118.605H84.875L81.1797 128.395C80.5078 130.191 79.388 131.09 77.8203 131.09C77.4141 131.09 77.0182 131.046 76.6328 130.957V129.504C76.9089 129.566 77.224 129.598 77.5781 129.598C78.4635 129.598 79.0859 129.085 79.4453 128.059L79.7656 127.246L76.2969 118.605ZM97.4766 127.246H89.7344V125.855L92.6797 122.895C93.5495 122.004 94.125 121.374 94.4062 121.004C94.6927 120.629 94.901 120.277 95.0312 119.949C95.1615 119.621 95.2266 119.27 95.2266 118.895C95.2266 118.379 95.0703 117.973 94.7578 117.676C94.4505 117.379 94.0234 117.23 93.4766 117.23C93.0391 117.23 92.6146 117.311 92.2031 117.473C91.7969 117.634 91.3255 117.926 90.7891 118.348L89.7969 117.137C90.4323 116.6 91.0495 116.22 91.6484 115.996C92.2474 115.772 92.8854 115.66 93.5625 115.66C94.625 115.66 95.4766 115.939 96.1172 116.496C96.7578 117.048 97.0781 117.793 97.0781 118.73C97.0781 119.246 96.9844 119.736 96.7969 120.199C96.6146 120.663 96.3307 121.142 95.9453 121.637C95.5651 122.126 94.9297 122.79 94.0391 123.629L92.0547 125.551V125.629H97.4766V127.246ZM102.75 120.113C103.901 120.113 104.812 120.418 105.484 121.027C106.156 121.637 106.492 122.467 106.492 123.52C106.492 124.738 106.109 125.691 105.344 126.379C104.583 127.061 103.5 127.402 102.094 127.402C100.818 127.402 99.8151 127.197 99.0859 126.785V125.121C99.5078 125.361 99.9922 125.546 100.539 125.676C101.086 125.806 101.594 125.871 102.062 125.871C102.891 125.871 103.521 125.686 103.953 125.316C104.385 124.947 104.602 124.405 104.602 123.691C104.602 122.327 103.732 121.645 101.992 121.645C101.747 121.645 101.445 121.671 101.086 121.723C100.727 121.77 100.411 121.824 100.141 121.887L99.3203 121.402L99.7578 115.824H105.695V117.457H101.375L101.117 120.285C101.299 120.254 101.521 120.217 101.781 120.176C102.047 120.134 102.37 120.113 102.75 120.113ZM115.758 121.535C115.758 123.52 115.438 124.993 114.797 125.957C114.161 126.921 113.188 127.402 111.875 127.402C110.604 127.402 109.641 126.905 108.984 125.91C108.328 124.915 108 123.457 108 121.535C108 119.52 108.318 118.035 108.953 117.082C109.594 116.124 110.568 115.645 111.875 115.645C113.151 115.645 114.117 116.145 114.773 117.145C115.43 118.145 115.758 119.608 115.758 121.535ZM109.859 121.535C109.859 123.092 110.018 124.204 110.336 124.871C110.659 125.538 111.172 125.871 111.875 125.871C112.578 125.871 113.091 125.533 113.414 124.855C113.742 124.178 113.906 123.072 113.906 121.535C113.906 120.004 113.742 118.897 113.414 118.215C113.091 117.527 112.578 117.184 111.875 117.184C111.172 117.184 110.659 117.52 110.336 118.191C110.018 118.863 109.859 119.978 109.859 121.535ZM131.406 121.426C131.406 123.311 130.883 124.754 129.836 125.754C128.789 126.749 127.281 127.246 125.312 127.246H122.117V115.824H125.648C127.466 115.824 128.88 116.314 129.891 117.293C130.901 118.272 131.406 119.65 131.406 121.426ZM129.438 121.488C129.438 118.754 128.159 117.387 125.602 117.387H123.984V125.676H125.312C128.062 125.676 129.438 124.28 129.438 121.488ZM140.953 127.246L139.812 124.074H135.445L134.328 127.246H132.359L136.633 115.777H138.664L142.938 127.246H140.953ZM139.32 122.465L138.25 119.355C138.172 119.147 138.062 118.819 137.922 118.371C137.786 117.923 137.693 117.595 137.641 117.387C137.5 118.027 137.294 118.728 137.023 119.488L135.992 122.465H139.32ZM144.445 127.246V115.824H146.312V127.246H144.445Z" class="path-1"/>
<rect x="204" y="98.7461" width="155" height="45" rx="3" class="rect-3"/>
<path d="M245.242 119.277C245.242 120.47 244.852 121.384 244.07 122.02C243.289 122.655 242.177 122.973 240.734 122.973H239.547V127.246H237.68V115.824H240.969C242.396 115.824 243.464 116.116 244.172 116.699C244.885 117.283 245.242 118.142 245.242 119.277ZM239.547 121.402H240.539C241.497 121.402 242.201 121.236 242.648 120.902C243.096 120.569 243.32 120.048 243.32 119.34C243.32 118.684 243.12 118.194 242.719 117.871C242.318 117.548 241.693 117.387 240.844 117.387H239.547V121.402ZM252.734 127.246L252.367 126.043H252.305C251.888 126.569 251.469 126.928 251.047 127.121C250.625 127.309 250.083 127.402 249.422 127.402C248.573 127.402 247.909 127.173 247.43 126.715C246.956 126.257 246.719 125.608 246.719 124.77C246.719 123.879 247.049 123.207 247.711 122.754C248.372 122.301 249.38 122.053 250.734 122.012L252.227 121.965V121.504C252.227 120.952 252.096 120.54 251.836 120.27C251.581 119.993 251.182 119.855 250.641 119.855C250.198 119.855 249.773 119.921 249.367 120.051C248.961 120.181 248.57 120.335 248.195 120.512L247.602 119.199C248.07 118.954 248.583 118.77 249.141 118.645C249.698 118.514 250.224 118.449 250.719 118.449C251.818 118.449 252.646 118.689 253.203 119.168C253.766 119.647 254.047 120.4 254.047 121.426V127.246H252.734ZM250 125.996C250.667 125.996 251.201 125.811 251.602 125.441C252.008 125.066 252.211 124.543 252.211 123.871V123.121L251.102 123.168C250.237 123.199 249.607 123.345 249.211 123.605C248.82 123.861 248.625 124.254 248.625 124.785C248.625 125.171 248.74 125.47 248.969 125.684C249.198 125.892 249.542 125.996 250 125.996ZM255.297 118.605H257.297L259.055 123.504C259.32 124.202 259.497 124.858 259.586 125.473H259.648C259.695 125.186 259.781 124.84 259.906 124.434C260.031 124.022 260.693 122.079 261.891 118.605H263.875L260.18 128.395C259.508 130.191 258.388 131.09 256.82 131.09C256.414 131.09 256.018 131.046 255.633 130.957V129.504C255.909 129.566 256.224 129.598 256.578 129.598C257.464 129.598 258.086 129.085 258.445 128.059L258.766 127.246L255.297 118.605ZM274.125 127.246H272.289V119.871C272.289 118.991 272.31 118.293 272.352 117.777C272.232 117.902 272.083 118.04 271.906 118.191C271.734 118.342 271.151 118.822 270.156 119.629L269.234 118.465L272.594 115.824H274.125V127.246ZM281.75 120.113C282.901 120.113 283.812 120.418 284.484 121.027C285.156 121.637 285.492 122.467 285.492 123.52C285.492 124.738 285.109 125.691 284.344 126.379C283.583 127.061 282.5 127.402 281.094 127.402C279.818 127.402 278.815 127.197 278.086 126.785V125.121C278.508 125.361 278.992 125.546 279.539 125.676C280.086 125.806 280.594 125.871 281.062 125.871C281.891 125.871 282.521 125.686 282.953 125.316C283.385 124.947 283.602 124.405 283.602 123.691C283.602 122.327 282.732 121.645 280.992 121.645C280.747 121.645 280.445 121.671 280.086 121.723C279.727 121.77 279.411 121.824 279.141 121.887L278.32 121.402L278.758 115.824H284.695V117.457H280.375L280.117 120.285C280.299 120.254 280.521 120.217 280.781 120.176C281.047 120.134 281.37 120.113 281.75 120.113ZM294.758 121.535C294.758 123.52 294.438 124.993 293.797 125.957C293.161 126.921 292.188 127.402 290.875 127.402C289.604 127.402 288.641 126.905 287.984 125.91C287.328 124.915 287 123.457 287 121.535C287 119.52 287.318 118.035 287.953 117.082C288.594 116.124 289.568 115.645 290.875 115.645C292.151 115.645 293.117 116.145 293.773 117.145C294.43 118.145 294.758 119.608 294.758 121.535ZM288.859 121.535C288.859 123.092 289.018 124.204 289.336 124.871C289.659 125.538 290.172 125.871 290.875 125.871C291.578 125.871 292.091 125.533 292.414 124.855C292.742 124.178 292.906 123.072 292.906 121.535C292.906 120.004 292.742 118.897 292.414 118.215C292.091 117.527 291.578 117.184 290.875 117.184C290.172 117.184 289.659 117.52 289.336 118.191C289.018 118.863 288.859 119.978 288.859 121.535ZM310.406 121.426C310.406 123.311 309.883 124.754 308.836 125.754C307.789 126.749 306.281 127.246 304.312 127.246H301.117V115.824H304.648C306.466 115.824 307.88 116.314 308.891 117.293C309.901 118.272 310.406 119.65 310.406 121.426ZM308.438 121.488C308.438 118.754 307.159 117.387 304.602 117.387H302.984V125.676H304.312C307.062 125.676 308.438 124.28 308.438 121.488ZM319.953 127.246L318.812 124.074H314.445L313.328 127.246H311.359L315.633 115.777H317.664L321.938 127.246H319.953ZM318.32 122.465L317.25 119.355C317.172 119.147 317.062 118.819 316.922 118.371C316.786 117.923 316.693 117.595 316.641 117.387C316.5 118.027 316.294 118.728 316.023 119.488L314.992 122.465H318.32ZM323.445 127.246V115.824H325.312V127.246H323.445Z" class="path-2"/>
<path d="M1 192H383V298C383 299.105 382.105 300 381 300H3C1.89543 300 1 299.105 1 298V192Z" class="path-3"/>
<rect x="87.5" y="224.246" width="210" height="44" rx="2.5" class="rect-4"/>
<path d="M122.5 246.137H123.797C124.667 246.137 125.297 245.975 125.688 245.652C126.078 245.329 126.273 244.85 126.273 244.215C126.273 243.569 126.062 243.105 125.641 242.824C125.219 242.543 124.583 242.402 123.734 242.402H122.5V246.137ZM122.5 247.684V252.246H120.633V240.824H123.859C125.333 240.824 126.424 241.1 127.133 241.652C127.841 242.204 128.195 243.038 128.195 244.152C128.195 245.574 127.456 246.587 125.977 247.191L129.203 252.246H127.078L124.344 247.684H122.5ZM134.445 252.402C133.102 252.402 132.049 252.012 131.289 251.23C130.534 250.444 130.156 249.363 130.156 247.988C130.156 246.577 130.508 245.467 131.211 244.66C131.914 243.853 132.88 243.449 134.109 243.449C135.25 243.449 136.151 243.796 136.812 244.488C137.474 245.181 137.805 246.134 137.805 247.348V248.34H132.047C132.073 249.178 132.299 249.824 132.727 250.277C133.154 250.725 133.755 250.949 134.531 250.949C135.042 250.949 135.516 250.902 135.953 250.809C136.396 250.71 136.87 250.548 137.375 250.324V251.816C136.927 252.03 136.474 252.181 136.016 252.27C135.557 252.358 135.034 252.402 134.445 252.402ZM134.109 244.84C133.526 244.84 133.057 245.025 132.703 245.395C132.354 245.764 132.146 246.303 132.078 247.012H136C135.99 246.298 135.818 245.759 135.484 245.395C135.151 245.025 134.693 244.84 134.109 244.84ZM144.227 244.996H142.117V252.246H140.273V244.996H138.852V244.137L140.273 243.574V243.012C140.273 241.991 140.513 241.236 140.992 240.746C141.471 240.251 142.203 240.004 143.188 240.004C143.833 240.004 144.469 240.111 145.094 240.324L144.609 241.715C144.156 241.569 143.724 241.496 143.312 241.496C142.896 241.496 142.591 241.626 142.398 241.887C142.211 242.142 142.117 242.527 142.117 243.043V243.605H144.227V244.996ZM151.797 252.246L151.539 251.113H151.445C151.19 251.514 150.826 251.829 150.352 252.059C149.883 252.288 149.346 252.402 148.742 252.402C147.695 252.402 146.914 252.142 146.398 251.621C145.883 251.1 145.625 250.311 145.625 249.254V243.605H147.477V248.934C147.477 249.595 147.612 250.092 147.883 250.426C148.154 250.754 148.578 250.918 149.156 250.918C149.927 250.918 150.492 250.689 150.852 250.23C151.216 249.767 151.398 248.993 151.398 247.91V243.605H153.242V252.246H151.797ZM161.664 249.785C161.664 250.629 161.357 251.277 160.742 251.73C160.128 252.178 159.247 252.402 158.102 252.402C156.951 252.402 156.026 252.228 155.328 251.879V250.293C156.344 250.762 157.289 250.996 158.164 250.996C159.294 250.996 159.859 250.655 159.859 249.973C159.859 249.754 159.797 249.572 159.672 249.426C159.547 249.28 159.341 249.129 159.055 248.973C158.768 248.816 158.37 248.639 157.859 248.441C156.865 248.056 156.19 247.671 155.836 247.285C155.487 246.9 155.312 246.4 155.312 245.785C155.312 245.046 155.609 244.473 156.203 244.066C156.802 243.655 157.615 243.449 158.641 243.449C159.656 243.449 160.617 243.655 161.523 244.066L160.93 245.449C159.997 245.064 159.214 244.871 158.578 244.871C157.609 244.871 157.125 245.147 157.125 245.699C157.125 245.97 157.25 246.199 157.5 246.387C157.755 246.574 158.307 246.832 159.156 247.16C159.87 247.436 160.388 247.689 160.711 247.918C161.034 248.147 161.273 248.413 161.43 248.715C161.586 249.012 161.664 249.368 161.664 249.785ZM167.43 252.402C166.086 252.402 165.034 252.012 164.273 251.23C163.518 250.444 163.141 249.363 163.141 247.988C163.141 246.577 163.492 245.467 164.195 244.66C164.898 243.853 165.865 243.449 167.094 243.449C168.234 243.449 169.135 243.796 169.797 244.488C170.458 245.181 170.789 246.134 170.789 247.348V248.34H165.031C165.057 249.178 165.284 249.824 165.711 250.277C166.138 250.725 166.74 250.949 167.516 250.949C168.026 250.949 168.5 250.902 168.938 250.809C169.38 250.71 169.854 250.548 170.359 250.324V251.816C169.911 252.03 169.458 252.181 169 252.27C168.542 252.358 168.018 252.402 167.43 252.402ZM167.094 244.84C166.51 244.84 166.042 245.025 165.688 245.395C165.339 245.764 165.13 246.303 165.062 247.012H168.984C168.974 246.298 168.802 245.759 168.469 245.395C168.135 245.025 167.677 244.84 167.094 244.84ZM180.25 250.918C180.698 250.918 181.146 250.848 181.594 250.707V252.09C181.391 252.178 181.128 252.251 180.805 252.309C180.487 252.371 180.156 252.402 179.812 252.402C178.073 252.402 177.203 251.486 177.203 249.652V244.996H176.023V244.184L177.289 243.512L177.914 241.684H179.047V243.605H181.508V244.996H179.047V249.621C179.047 250.064 179.156 250.392 179.375 250.605C179.599 250.814 179.891 250.918 180.25 250.918ZM190.992 247.91C190.992 249.322 190.63 250.423 189.906 251.215C189.182 252.007 188.174 252.402 186.883 252.402C186.076 252.402 185.362 252.22 184.742 251.855C184.122 251.491 183.646 250.967 183.312 250.285C182.979 249.603 182.812 248.811 182.812 247.91C182.812 246.509 183.172 245.415 183.891 244.629C184.609 243.842 185.622 243.449 186.93 243.449C188.18 243.449 189.169 243.853 189.898 244.66C190.628 245.462 190.992 246.546 190.992 247.91ZM184.703 247.91C184.703 249.905 185.44 250.902 186.914 250.902C188.372 250.902 189.102 249.905 189.102 247.91C189.102 245.936 188.367 244.949 186.898 244.949C186.128 244.949 185.568 245.204 185.219 245.715C184.875 246.225 184.703 246.957 184.703 247.91ZM204.547 252.246L203.406 249.074H199.039L197.922 252.246H195.953L200.227 240.777H202.258L206.531 252.246H204.547ZM202.914 247.465L201.844 244.355C201.766 244.147 201.656 243.819 201.516 243.371C201.38 242.923 201.286 242.595 201.234 242.387C201.094 243.027 200.888 243.728 200.617 244.488L199.586 247.465H202.914ZM212.227 243.449C212.596 243.449 212.901 243.475 213.141 243.527L212.961 245.238C212.701 245.176 212.43 245.145 212.148 245.145C211.414 245.145 210.818 245.384 210.359 245.863C209.906 246.342 209.68 246.965 209.68 247.73V252.246H207.844V243.605H209.281L209.523 245.129H209.617C209.904 244.613 210.276 244.204 210.734 243.902C211.198 243.6 211.695 243.449 212.227 243.449ZM219.164 243.449C220.242 243.449 221.081 243.84 221.68 244.621C222.284 245.402 222.586 246.499 222.586 247.91C222.586 249.327 222.281 250.431 221.672 251.223C221.062 252.009 220.216 252.402 219.133 252.402C218.039 252.402 217.19 252.009 216.586 251.223H216.461L216.125 252.246H214.75V240.09H216.586V242.98C216.586 243.194 216.576 243.512 216.555 243.934C216.534 244.355 216.518 244.624 216.508 244.738H216.586C217.169 243.879 218.029 243.449 219.164 243.449ZM218.688 244.949C217.948 244.949 217.414 245.168 217.086 245.605C216.763 246.038 216.596 246.764 216.586 247.785V247.91C216.586 248.962 216.753 249.725 217.086 250.199C217.419 250.668 217.964 250.902 218.719 250.902C219.37 250.902 219.862 250.645 220.195 250.129C220.534 249.613 220.703 248.868 220.703 247.895C220.703 245.931 220.031 244.949 218.688 244.949ZM226.555 252.246H224.719V243.605H226.555V252.246ZM224.609 241.316C224.609 240.988 224.698 240.736 224.875 240.559C225.057 240.382 225.315 240.293 225.648 240.293C225.971 240.293 226.221 240.382 226.398 240.559C226.581 240.736 226.672 240.988 226.672 241.316C226.672 241.629 226.581 241.876 226.398 242.059C226.221 242.236 225.971 242.324 225.648 242.324C225.315 242.324 225.057 242.236 224.875 242.059C224.698 241.876 224.609 241.629 224.609 241.316ZM232.406 250.918C232.854 250.918 233.302 250.848 233.75 250.707V252.09C233.547 252.178 233.284 252.251 232.961 252.309C232.643 252.371 232.312 252.402 231.969 252.402C230.229 252.402 229.359 251.486 229.359 249.652V244.996H228.18V244.184L229.445 243.512L230.07 241.684H231.203V243.605H233.664V244.996H231.203V249.621C231.203 250.064 231.312 250.392 231.531 250.605C231.755 250.814 232.047 250.918 232.406 250.918ZM239.867 243.449C240.237 243.449 240.542 243.475 240.781 243.527L240.602 245.238C240.341 245.176 240.07 245.145 239.789 245.145C239.055 245.145 238.458 245.384 238 245.863C237.547 246.342 237.32 246.965 237.32 247.73V252.246H235.484V243.605H236.922L237.164 245.129H237.258C237.544 244.613 237.917 244.204 238.375 243.902C238.839 243.6 239.336 243.449 239.867 243.449ZM247.797 252.246L247.43 251.043H247.367C246.951 251.569 246.531 251.928 246.109 252.121C245.688 252.309 245.146 252.402 244.484 252.402C243.635 252.402 242.971 252.173 242.492 251.715C242.018 251.257 241.781 250.608 241.781 249.77C241.781 248.879 242.112 248.207 242.773 247.754C243.435 247.301 244.443 247.053 245.797 247.012L247.289 246.965V246.504C247.289 245.952 247.159 245.54 246.898 245.27C246.643 244.993 246.245 244.855 245.703 244.855C245.26 244.855 244.836 244.921 244.43 245.051C244.023 245.181 243.633 245.335 243.258 245.512L242.664 244.199C243.133 243.954 243.646 243.77 244.203 243.645C244.76 243.514 245.286 243.449 245.781 243.449C246.88 243.449 247.708 243.689 248.266 244.168C248.828 244.647 249.109 245.4 249.109 246.426V252.246H247.797ZM245.062 250.996C245.729 250.996 246.263 250.811 246.664 250.441C247.07 250.066 247.273 249.543 247.273 248.871V248.121L246.164 248.168C245.299 248.199 244.669 248.345 244.273 248.605C243.883 248.861 243.688 249.254 243.688 249.785C243.688 250.171 243.802 250.47 244.031 250.684C244.26 250.892 244.604 250.996 245.062 250.996ZM254.891 250.918C255.339 250.918 255.786 250.848 256.234 250.707V252.09C256.031 252.178 255.768 252.251 255.445 252.309C255.128 252.371 254.797 252.402 254.453 252.402C252.714 252.402 251.844 251.486 251.844 249.652V244.996H250.664V244.184L251.93 243.512L252.555 241.684H253.688V243.605H256.148V244.996H253.688V249.621C253.688 250.064 253.797 250.392 254.016 250.605C254.24 250.814 254.531 250.918 254.891 250.918ZM261.742 252.402C260.398 252.402 259.346 252.012 258.586 251.23C257.831 250.444 257.453 249.363 257.453 247.988C257.453 246.577 257.805 245.467 258.508 244.66C259.211 243.853 260.177 243.449 261.406 243.449C262.547 243.449 263.448 243.796 264.109 244.488C264.771 245.181 265.102 246.134 265.102 247.348V248.34H259.344C259.37 249.178 259.596 249.824 260.023 250.277C260.451 250.725 261.052 250.949 261.828 250.949C262.339 250.949 262.812 250.902 263.25 250.809C263.693 250.71 264.167 250.548 264.672 250.324V251.816C264.224 252.03 263.771 252.181 263.312 252.27C262.854 252.358 262.331 252.402 261.742 252.402ZM261.406 244.84C260.823 244.84 260.354 245.025 260 245.395C259.651 245.764 259.443 246.303 259.375 247.012H263.297C263.286 246.298 263.115 245.759 262.781 245.395C262.448 245.025 261.99 244.84 261.406 244.84Z" class="path-4"/>
<rect x="87.5" y="224.246" width="210" height="44" rx="2.5" class="rect-5"/>
<path d="M146.094 50.3242H147.523L143.406 61.7461H142.094L138 50.3242H139.406L142.031 57.7148C142.333 58.5638 142.573 59.3893 142.75 60.1914C142.938 59.3477 143.182 58.5065 143.484 57.668L146.094 50.3242ZM156.297 57.457C156.297 58.8529 155.945 59.944 155.242 60.7305C154.539 61.5117 153.568 61.9023 152.328 61.9023C151.562 61.9023 150.883 61.7227 150.289 61.3633C149.695 61.0039 149.237 60.4883 148.914 59.8164C148.591 59.1445 148.43 58.3581 148.43 57.457C148.43 56.0612 148.779 54.9753 149.477 54.1992C150.174 53.418 151.143 53.0273 152.383 53.0273C153.581 53.0273 154.531 53.4258 155.234 54.2227C155.943 55.0195 156.297 56.0977 156.297 57.457ZM149.773 57.457C149.773 58.5508 149.992 59.3841 150.43 59.957C150.867 60.5299 151.51 60.8164 152.359 60.8164C153.208 60.8164 153.852 60.5326 154.289 59.9648C154.732 59.3919 154.953 58.556 154.953 57.457C154.953 56.3685 154.732 55.543 154.289 54.9805C153.852 54.4128 153.203 54.1289 152.344 54.1289C151.495 54.1289 150.854 54.4076 150.422 54.9648C149.99 55.5221 149.773 56.3529 149.773 57.457ZM161.344 60.832C161.573 60.832 161.794 60.8164 162.008 60.7852C162.221 60.7487 162.391 60.7122 162.516 60.6758V61.668C162.375 61.7357 162.167 61.7904 161.891 61.832C161.62 61.8789 161.375 61.9023 161.156 61.9023C159.5 61.9023 158.672 61.0299 158.672 59.2852V54.1914H157.445V53.5664L158.672 53.0273L159.219 51.1992H159.969V53.1836H162.453V54.1914H159.969V59.2305C159.969 59.7461 160.091 60.1419 160.336 60.418C160.581 60.694 160.917 60.832 161.344 60.832ZM165.531 61.7461H164.234V53.1836H165.531V61.7461ZM164.125 50.8633C164.125 50.5664 164.198 50.3503 164.344 50.2148C164.49 50.0742 164.672 50.0039 164.891 50.0039C165.099 50.0039 165.279 50.0742 165.43 50.2148C165.581 50.3555 165.656 50.5716 165.656 50.8633C165.656 51.1549 165.581 51.3737 165.43 51.5195C165.279 51.6602 165.099 51.7305 164.891 51.7305C164.672 51.7305 164.49 51.6602 164.344 51.5195C164.198 51.3737 164.125 51.1549 164.125 50.8633ZM174.141 61.7461V56.207C174.141 55.5091 173.982 54.9883 173.664 54.6445C173.346 54.3008 172.849 54.1289 172.172 54.1289C171.276 54.1289 170.62 54.3711 170.203 54.8555C169.786 55.3398 169.578 56.1393 169.578 57.2539V61.7461H168.281V53.1836H169.336L169.547 54.3555H169.609C169.875 53.9336 170.247 53.6081 170.727 53.3789C171.206 53.1445 171.74 53.0273 172.328 53.0273C173.359 53.0273 174.135 53.2773 174.656 53.7773C175.177 54.2721 175.438 55.0664 175.438 56.1602V61.7461H174.141ZM185.117 53.1836V54.0039L183.531 54.1914C183.677 54.3737 183.807 54.6133 183.922 54.9102C184.036 55.2018 184.094 55.5326 184.094 55.9023C184.094 56.7409 183.807 57.4102 183.234 57.9102C182.661 58.4102 181.875 58.6602 180.875 58.6602C180.62 58.6602 180.38 58.6393 180.156 58.5977C179.604 58.8893 179.328 59.2565 179.328 59.6992C179.328 59.9336 179.424 60.1081 179.617 60.2227C179.81 60.332 180.141 60.3867 180.609 60.3867H182.125C183.052 60.3867 183.763 60.582 184.258 60.9727C184.758 61.3633 185.008 61.931 185.008 62.6758C185.008 63.6237 184.628 64.3451 183.867 64.8398C183.107 65.3398 181.997 65.5898 180.539 65.5898C179.419 65.5898 178.555 65.3815 177.945 64.9648C177.341 64.5482 177.039 63.9596 177.039 63.1992C177.039 62.6784 177.206 62.2279 177.539 61.8477C177.872 61.4674 178.341 61.2096 178.945 61.0742C178.727 60.9753 178.542 60.8216 178.391 60.6133C178.245 60.4049 178.172 60.1628 178.172 59.8867C178.172 59.5742 178.255 59.3008 178.422 59.0664C178.589 58.832 178.852 58.6055 179.211 58.3867C178.768 58.2044 178.406 57.8945 178.125 57.457C177.849 57.0195 177.711 56.5195 177.711 55.957C177.711 55.0195 177.992 54.2982 178.555 53.793C179.117 53.2826 179.914 53.0273 180.945 53.0273C181.393 53.0273 181.797 53.0794 182.156 53.1836H185.117ZM178.289 63.1836C178.289 63.6471 178.484 63.9987 178.875 64.2383C179.266 64.4779 179.826 64.5977 180.555 64.5977C181.643 64.5977 182.448 64.4336 182.969 64.1055C183.495 63.7826 183.758 63.3424 183.758 62.7852C183.758 62.3216 183.615 61.9987 183.328 61.8164C183.042 61.6393 182.503 61.5508 181.711 61.5508H180.156C179.568 61.5508 179.109 61.6914 178.781 61.9727C178.453 62.2539 178.289 62.6576 178.289 63.1836ZM178.992 55.9258C178.992 56.5247 179.161 56.9779 179.5 57.2852C179.839 57.5924 180.31 57.7461 180.914 57.7461C182.18 57.7461 182.812 57.1315 182.812 55.9023C182.812 54.6159 182.172 53.9727 180.891 53.9727C180.281 53.9727 179.812 54.1367 179.484 54.4648C179.156 54.793 178.992 55.2799 178.992 55.9258ZM198.422 57.457C198.422 58.8529 198.07 59.944 197.367 60.7305C196.664 61.5117 195.693 61.9023 194.453 61.9023C193.688 61.9023 193.008 61.7227 192.414 61.3633C191.82 61.0039 191.362 60.4883 191.039 59.8164C190.716 59.1445 190.555 58.3581 190.555 57.457C190.555 56.0612 190.904 54.9753 191.602 54.1992C192.299 53.418 193.268 53.0273 194.508 53.0273C195.706 53.0273 196.656 53.4258 197.359 54.2227C198.068 55.0195 198.422 56.0977 198.422 57.457ZM191.898 57.457C191.898 58.5508 192.117 59.3841 192.555 59.957C192.992 60.5299 193.635 60.8164 194.484 60.8164C195.333 60.8164 195.977 60.5326 196.414 59.9648C196.857 59.3919 197.078 58.556 197.078 57.457C197.078 56.3685 196.857 55.543 196.414 54.9805C195.977 54.4128 195.328 54.1289 194.469 54.1289C193.62 54.1289 192.979 54.4076 192.547 54.9648C192.115 55.5221 191.898 56.3529 191.898 57.457ZM204.688 61.9023C204.13 61.9023 203.62 61.8008 203.156 61.5977C202.698 61.3893 202.312 61.0716 202 60.6445H201.906C201.969 61.1445 202 61.6185 202 62.0664V65.5898H200.703V53.1836H201.758L201.938 54.3555H202C202.333 53.8867 202.721 53.5482 203.164 53.3398C203.607 53.1315 204.115 53.0273 204.688 53.0273C205.823 53.0273 206.698 53.4154 207.312 54.1914C207.932 54.9674 208.242 56.056 208.242 57.457C208.242 58.8633 207.927 59.957 207.297 60.7383C206.672 61.5143 205.802 61.9023 204.688 61.9023ZM204.5 54.1289C203.625 54.1289 202.992 54.3711 202.602 54.8555C202.211 55.3398 202.01 56.1107 202 57.168V57.457C202 58.6602 202.201 59.5221 202.602 60.043C203.003 60.5586 203.646 60.8164 204.531 60.8164C205.271 60.8164 205.849 60.5169 206.266 59.918C206.688 59.319 206.898 58.4935 206.898 57.4414C206.898 56.3737 206.688 55.556 206.266 54.9883C205.849 54.4154 205.26 54.1289 204.5 54.1289ZM213.281 60.832C213.51 60.832 213.732 60.8164 213.945 60.7852C214.159 60.7487 214.328 60.7122 214.453 60.6758V61.668C214.312 61.7357 214.104 61.7904 213.828 61.832C213.557 61.8789 213.312 61.9023 213.094 61.9023C211.438 61.9023 210.609 61.0299 210.609 59.2852V54.1914H209.383V53.5664L210.609 53.0273L211.156 51.1992H211.906V53.1836H214.391V54.1914H211.906V59.2305C211.906 59.7461 212.029 60.1419 212.273 60.418C212.518 60.694 212.854 60.832 213.281 60.832ZM217.469 61.7461H216.172V53.1836H217.469V61.7461ZM216.062 50.8633C216.062 50.5664 216.135 50.3503 216.281 50.2148C216.427 50.0742 216.609 50.0039 216.828 50.0039C217.036 50.0039 217.216 50.0742 217.367 50.2148C217.518 50.3555 217.594 50.5716 217.594 50.8633C217.594 51.1549 217.518 51.3737 217.367 51.5195C217.216 51.6602 217.036 51.7305 216.828 51.7305C216.609 51.7305 216.427 51.6602 216.281 51.5195C216.135 51.3737 216.062 51.1549 216.062 50.8633ZM227.609 57.457C227.609 58.8529 227.258 59.944 226.555 60.7305C225.852 61.5117 224.88 61.9023 223.641 61.9023C222.875 61.9023 222.195 61.7227 221.602 61.3633C221.008 61.0039 220.549 60.4883 220.227 59.8164C219.904 59.1445 219.742 58.3581 219.742 57.457C219.742 56.0612 220.091 54.9753 220.789 54.1992C221.487 53.418 222.456 53.0273 223.695 53.0273C224.893 53.0273 225.844 53.4258 226.547 54.2227C227.255 55.0195 227.609 56.0977 227.609 57.457ZM221.086 57.457C221.086 58.5508 221.305 59.3841 221.742 59.957C222.18 60.5299 222.823 60.8164 223.672 60.8164C224.521 60.8164 225.164 60.5326 225.602 59.9648C226.044 59.3919 226.266 58.556 226.266 57.457C226.266 56.3685 226.044 55.543 225.602 54.9805C225.164 54.4128 224.516 54.1289 223.656 54.1289C222.807 54.1289 222.167 54.4076 221.734 54.9648C221.302 55.5221 221.086 56.3529 221.086 57.457ZM235.75 61.7461V56.207C235.75 55.5091 235.591 54.9883 235.273 54.6445C234.956 54.3008 234.458 54.1289 233.781 54.1289C232.885 54.1289 232.229 54.3711 231.812 54.8555C231.396 55.3398 231.188 56.1393 231.188 57.2539V61.7461H229.891V53.1836H230.945L231.156 54.3555H231.219C231.484 53.9336 231.857 53.6081 232.336 53.3789C232.815 53.1445 233.349 53.0273 233.938 53.0273C234.969 53.0273 235.745 53.2773 236.266 53.7773C236.786 54.2721 237.047 55.0664 237.047 56.1602V61.7461H235.75ZM245.242 59.4102C245.242 60.207 244.945 60.8216 244.352 61.2539C243.758 61.6862 242.924 61.9023 241.852 61.9023C240.716 61.9023 239.831 61.7227 239.195 61.3633V60.1602C239.607 60.3685 240.047 60.5326 240.516 60.6523C240.99 60.7721 241.445 60.832 241.883 60.832C242.56 60.832 243.081 60.7253 243.445 60.5117C243.81 60.293 243.992 59.9622 243.992 59.5195C243.992 59.1862 243.846 58.9023 243.555 58.668C243.268 58.4284 242.706 58.1471 241.867 57.8242C241.07 57.5273 240.503 57.2695 240.164 57.0508C239.831 56.8268 239.581 56.5742 239.414 56.293C239.253 56.0117 239.172 55.6758 239.172 55.2852C239.172 54.5872 239.456 54.0378 240.023 53.6367C240.591 53.2305 241.37 53.0273 242.359 53.0273C243.281 53.0273 244.182 53.2148 245.062 53.5898L244.602 54.6445C243.742 54.2904 242.964 54.1133 242.266 54.1133C241.651 54.1133 241.188 54.2096 240.875 54.4023C240.562 54.5951 240.406 54.8607 240.406 55.1992C240.406 55.4284 240.464 55.6237 240.578 55.7852C240.698 55.9466 240.888 56.1003 241.148 56.2461C241.409 56.3919 241.909 56.6029 242.648 56.8789C243.664 57.2487 244.349 57.6211 244.703 57.9961C245.062 58.3711 245.242 58.8424 245.242 59.4102Z" class="path-5"/>
</svg>
