<svg width="130" height="24" viewBox="0 0 130 24" fill="none" xmlns="http://www.w3.org/2000/svg">
<g clip-path="url(#clip0_7764_14467)">
<path fill-rule="evenodd" clip-rule="evenodd" d="M3.94811 13.4681C3.94811 14.0162 3.74986 14.4464 3.35336 14.7584C2.95687 15.0704 2.40992 15.2264 1.71253 15.2264C1.01515 15.2264 0.444303 15.1182 0 14.9017V13.9488C0.281204 14.0809 0.579281 14.1849 0.894234 14.2608C1.21199 14.3367 1.50725 14.3746 1.78002 14.3746C2.17934 14.3746 2.4732 14.2988 2.6616 14.147C2.85282 13.9952 2.94843 13.7913 2.94843 13.5355C2.94843 13.305 2.86125 13.1097 2.68691 12.9494C2.51256 12.7892 2.15262 12.5994 1.60709 12.3801C1.04467 12.1524 0.648176 11.8924 0.417589 11.6C0.187001 11.3077 0.0717071 10.9563 0.0717071 10.5458C0.0717071 10.0314 0.25449 9.62663 0.620055 9.33143C0.985622 9.03623 1.47633 8.88867 2.09216 8.88867C2.68269 8.88867 3.2704 9.01801 3.85531 9.27658L3.53474 10.0989C2.98639 9.86841 2.4971 9.75312 2.06685 9.75312C1.74066 9.75312 1.49319 9.82476 1.32447 9.96814C1.15575 10.1088 1.07139 10.2957 1.07139 10.529C1.07139 10.6892 1.10513 10.827 1.17262 10.9423C1.24011 11.0547 1.35118 11.1615 1.50585 11.2627C1.66051 11.3639 1.93891 11.4975 2.34102 11.6633C2.79377 11.8516 3.12559 12.0273 3.33649 12.1904C3.54739 12.3535 3.70206 12.5376 3.80048 12.7428C3.89889 12.948 3.94811 13.1897 3.94811 13.4681ZM8.63019 15.1424H5.14185V8.97754H8.63019V9.82936H6.14996V11.5076H8.47412V12.351H6.14996V14.2864H8.63019V15.1424ZM11.2242 10.3688C11.5561 9.95836 12.0116 9.75312 12.5909 9.75312C12.8468 9.75312 13.09 9.79107 13.3206 9.86698C13.554 9.94005 13.7747 10.0258 13.9828 10.1241L14.3456 9.28503C13.8113 9.02076 13.2292 8.88867 12.5993 8.88867C12.0003 8.88867 11.4787 9.01658 11.0344 9.2724C10.5901 9.52823 10.2498 9.89649 10.0136 10.3772C9.78023 10.8579 9.66357 11.4187 9.66357 12.0597C9.66357 13.0773 9.90534 13.8602 10.389 14.4084C10.8728 14.9537 11.5659 15.2264 12.4685 15.2264C13.0815 15.2264 13.6299 15.1351 14.1136 14.9524V14.088C13.8492 14.1695 13.5948 14.2369 13.3501 14.2904C13.1054 14.3409 12.8524 14.3663 12.5909 14.3663C11.9863 14.3663 11.5237 14.1722 11.2032 13.7843C10.8854 13.3964 10.7265 12.8243 10.7265 12.0681C10.7265 11.3456 10.8924 10.7792 11.2242 10.3688ZM20.2763 8.97754V12.9666C20.2763 13.422 20.1779 13.8212 19.981 14.1642C19.787 14.5043 19.5043 14.7671 19.1332 14.9527C18.7648 15.1354 18.3233 15.2268 17.8087 15.2268C17.0438 15.2268 16.4491 15.0244 16.0245 14.6196C15.5998 14.2148 15.3876 13.6582 15.3876 12.9497V8.97754H16.3999V12.8781C16.3999 13.3869 16.518 13.7622 16.7542 14.0039C16.9904 14.2457 17.3532 14.3666 17.8425 14.3666C18.7929 14.3666 19.2682 13.8676 19.2682 12.8696V8.97754H20.2763ZM23.562 11.8449H22.8618V9.82936H23.5283C23.9867 9.82936 24.3297 9.90527 24.5575 10.057C24.7853 10.2088 24.8992 10.459 24.8992 10.8076C24.8992 11.1506 24.7937 11.4092 24.5828 11.5835C24.3719 11.7578 24.0317 11.8449 23.562 11.8449ZM22.8618 15.1424V12.6798H23.8573L25.3336 15.1424H26.481L24.7389 12.4142C25.5375 12.0881 25.9368 11.5414 25.9368 10.7739C25.9368 10.1723 25.7456 9.72252 25.3631 9.42456C24.9807 9.12652 24.3916 8.97754 23.5958 8.97754H21.8538V15.1424H22.8618ZM30.8678 15.1424H27.3794V8.97754H30.8678V9.82936H28.3875V11.5076H30.7116V12.351H28.3875V14.2864H30.8678V15.1424ZM36.3724 14.337C36.9376 13.7973 37.2202 13.0186 37.2202 12.001C37.2202 11.0423 36.9474 10.2988 36.4019 9.77034C35.8564 9.24181 35.0929 8.97754 34.1115 8.97754H32.205V15.1424H33.9301C34.993 15.1424 35.8071 14.874 36.3724 14.337ZM34.0862 9.82092C35.4669 9.82092 36.1572 10.5589 36.1572 12.0347C36.1572 13.5414 35.4148 14.2949 33.9301 14.2949H33.213V9.82092H34.0862ZM40.8267 8.97754H42.5687C43.387 8.97754 43.9789 9.09985 44.3446 9.34438C44.7101 9.58901 44.8929 9.97549 44.8929 10.504C44.8929 10.8695 44.7902 11.1717 44.585 11.4106C44.3824 11.6468 44.0858 11.7999 43.6949 11.8702V11.9124C44.6313 12.0726 45.0995 12.5646 45.0995 13.3883C45.0995 13.9392 44.9125 14.3694 44.5386 14.6786C44.1673 14.9878 43.6471 15.1424 42.9778 15.1424H40.8267V8.97754ZM41.5437 11.6173H42.7248C43.231 11.6173 43.5951 11.5385 43.8173 11.3811C44.0394 11.2208 44.1504 10.9524 44.1504 10.5757C44.1504 10.2299 44.0268 9.98118 43.7793 9.82936C43.5319 9.67469 43.1381 9.59745 42.5982 9.59745H41.5437V11.6173ZM41.5437 12.2245V14.531H42.8302C43.328 14.531 43.702 14.4354 43.9523 14.2443C44.2053 14.0503 44.3318 13.7481 44.3318 13.3377C44.3318 12.9553 44.2025 12.6742 43.9438 12.4943C43.6879 12.3144 43.297 12.2245 42.7712 12.2245H41.5437ZM49.6424 8.97754L47.9974 12.06L46.365 8.97754H45.5804L47.6347 12.7853V15.1424H48.3602V12.7516L50.4186 8.97754H49.6424Z" fill="white"/>
<path fill-rule="evenodd" clip-rule="evenodd" d="M67.4152 0L80.8426 0.600108L86.2788 12.6776L78.6093 23.7156L65.1089 22.8511L59.5742 9.76524L67.4152 0ZM77.2593 6.96173L67.528 11.213L75.8476 17.6449L77.2593 6.96173ZM76.1326 4.83147L68.3557 1.48329L66.722 8.52299L76.1326 4.83147ZM74.1614 19.2633L65.7095 13.2286L65.9139 21.4059L74.1614 19.2633ZM84.9289 12.6509L79.1692 6.80705L77.649 18.0445L84.9289 12.6509ZM76.1431 20.5777L69.0149 22.4405L77.3976 22.9772L76.1431 20.5777ZM83.8033 15.3023L77.5635 19.95L78.8034 22.3728L83.8033 15.3023ZM80.8519 2.28756L79.6399 4.77524L84.1509 9.36027L80.8519 2.28756ZM79.3419 1.09712L71.4205 0.775615L77.9547 3.63336L79.3419 1.09712ZM66.2584 2.24752L60.71 9.25289L64.4196 10.0386L66.2584 2.24752ZM64.1959 11.4128L60.4685 10.6236L64.3578 19.7854L64.1959 11.4128Z" fill="white"/>
<path fill-rule="evenodd" clip-rule="evenodd" d="M92.0063 11.4188H91.7173V8.84673H90.9429V14.8825H91.7173V12.0557H91.9832L94.4222 15.0331L95.0117 14.5349L92.6652 11.6966L94.6649 9.15966L94.0754 8.69629L92.0063 11.4188ZM98.7453 8.84668H97.9708V14.8825H101.9V14.1873H98.7453V8.84668ZM104.755 8.84668H108.512V9.54176H105.53V11.3491H107.992V12.0442H105.53V14.1874H108.512V14.8826H104.755V8.84668ZM113.644 8.84668H111.598V14.8824H112.373V12.2988H113.494L115.03 15.033L115.701 14.6275L114.222 12.1831C114.949 11.9629 115.446 11.2331 115.446 10.4917C115.446 9.32168 114.649 8.84668 113.644 8.84668ZM114.637 10.4917C114.637 11.1754 114.14 11.6039 113.39 11.6039H112.373V9.54176H113.62C114.314 9.54176 114.637 9.94728 114.637 10.4917ZM122.417 11.8701C122.417 12.3567 122.382 14.9864 120.278 14.9864C119.307 14.9864 118.14 14.2914 118.14 11.8701C118.14 9.46039 119.284 8.74219 120.278 8.74219C121.238 8.74219 122.417 9.43728 122.417 11.8701ZM118.949 11.8701C118.949 12.7505 119.111 14.2566 120.278 14.2566C121.446 14.2566 121.608 12.7505 121.608 11.8701C121.608 10.9781 121.446 9.47204 120.278 9.47204C119.111 9.47204 118.949 10.9781 118.949 11.8701ZM127.271 14.2566C126.462 14.2566 126.104 13.7122 125.954 12.9707L125.26 13.1907C125.445 14.268 126.15 14.9863 127.271 14.9863C128.381 14.9863 129.179 14.3375 129.179 13.1907C129.179 12.5652 128.89 12.0786 128.346 11.7774L127.063 11.2097C126.601 11.0013 126.254 10.8391 126.254 10.2713C126.254 9.72697 126.74 9.47204 127.237 9.47204C127.896 9.47204 128.208 9.8891 128.346 10.4799L129.086 10.2598C128.843 9.32146 128.254 8.74219 127.248 8.74219C126.3 8.74219 125.48 9.3099 125.48 10.3293C125.48 11.3647 126.172 11.6485 126.96 11.9717C127.036 12.0029 127.113 12.0344 127.191 12.0671C127.239 12.087 127.287 12.1065 127.335 12.1259C127.878 12.3444 128.404 12.5563 128.404 13.2371C128.404 13.9091 127.907 14.2566 127.271 14.2566Z" fill="white"/>
</g>
<defs>
<clipPath id="clip0_7764_14467">
<rect width="129.818" height="24" fill="white"/>
</clipPath>
</defs>
</svg>
