<svg width="176" height="24" viewBox="0 0 176 24" fill="none" xmlns="http://www.w3.org/2000/svg">
<g clip-path="url(#clip0_7764_14466)">
<path fill-rule="evenodd" clip-rule="evenodd" d="M104.805 0.747746L91.3267 0.145996L83.4696 9.95989L89.0251 23.1151L102.578 23.9709L110.28 12.8867L104.805 0.747746ZM91.4534 11.4126L101.225 7.14392L99.8056 17.8811L91.4534 11.4126ZM92.2858 1.63454L100.093 4.99717L90.6479 8.71508L92.2858 1.63454ZM89.6337 13.4396L98.114 19.5087L89.8403 21.6685L89.6337 13.4396ZM103.14 6.98625L108.923 12.8447L101.605 18.2811L103.14 6.98625ZM92.9461 22.7006L100.099 20.8134L101.363 23.2425L92.9461 22.7006ZM101.528 20.1965L107.794 15.5312L102.775 22.6324L101.528 20.1965ZM103.605 4.94623L104.833 2.44421L108.136 9.54954L103.605 4.94623ZM95.3483 0.924691L103.297 1.24691L101.909 3.79436L95.3483 0.924691ZM84.6077 9.44558L90.1756 2.40153L88.3331 10.236L84.6077 9.44558ZM84.3632 10.815L88.108 11.6068L88.2567 20.0306L84.3632 10.815ZM117.755 11.3665H117.312V7.38006H116.112V16.7375H117.312V12.3545H117.72L121.493 16.9674L122.41 16.1998L118.778 11.7996L121.872 7.86546L120.961 7.14941L117.755 11.3665ZM128.18 7.38037H126.987V16.7371H133.065V15.6603H128.18V7.38037ZM137.485 7.38037H143.298V8.4627H138.685V11.2628H142.496V12.3369H138.687V15.6603H143.3V16.7371H137.485V7.38037ZM151.237 7.38037H148.07L148.104 16.7364H149.287V12.7321H151.02L153.386 16.9671L154.419 16.3398L152.13 12.5531C152.68 12.3678 153.159 12.015 153.498 11.5442C153.837 11.0734 154.021 10.5082 154.023 9.92782C154.023 8.11982 152.793 7.38037 151.237 7.38037ZM152.775 9.92989C152.775 10.9881 152.024 11.6567 150.841 11.6567H149.272V8.46338H151.205C151.292 8.45179 151.38 8.44879 151.467 8.45443C151.836 8.47677 152.181 8.64473 152.427 8.9214C152.672 9.19806 152.797 9.5608 152.775 9.92989ZM164.843 12.0703C164.843 12.8215 164.79 16.896 161.538 16.896C160.03 16.896 158.226 15.8199 158.226 12.0703C158.226 8.32073 160.001 7.22119 161.538 7.22119C163.076 7.22119 164.843 8.29732 164.843 12.0703ZM159.479 12.0703C159.479 13.4301 159.727 15.7662 161.537 15.7662C163.346 15.7662 163.589 13.4005 163.589 12.0703C163.589 10.7401 163.341 8.3524 161.537 8.3524C159.732 8.3524 159.449 10.6899 159.449 12.0703H159.479ZM172.324 15.7704C171.07 15.7704 170.52 14.9215 170.283 13.7738L169.223 14.1235C169.506 15.7904 170.612 16.903 172.333 16.903C174.054 16.903 175.294 15.8978 175.294 14.1235C175.31 13.6729 175.198 13.227 174.969 12.8383C174.741 12.4495 174.406 12.1342 174.004 11.9293L172.023 11.0542C171.307 10.7292 170.77 10.4421 170.77 9.59939C170.77 8.75666 171.522 8.36008 172.29 8.36008C173.307 8.36008 173.791 9.01072 174.004 9.92161L175.151 9.58424C174.773 8.11429 173.862 7.21924 172.307 7.21924C170.84 7.21924 169.569 8.09983 169.569 9.67925C169.569 11.2591 170.609 11.6969 171.807 12.2009L171.808 12.2013L171.809 12.2015C171.944 12.2583 172.081 12.3159 172.218 12.3761C172.296 12.4085 172.375 12.4402 172.453 12.4718C173.287 12.8091 174.098 13.1366 174.098 14.191C174.098 15.2334 173.306 15.7704 172.324 15.7704ZM5.598 13.8605C5.598 14.6389 5.31691 15.2497 4.75471 15.6927C4.19252 16.1358 3.41702 16.3574 2.42819 16.3574C1.43938 16.3574 0.629974 16.2036 0 15.8963V14.5431C0.398717 14.7308 0.821359 14.8784 1.26793 14.9862C1.71848 15.0939 2.13712 15.1478 2.52388 15.1478C3.09007 15.1478 3.50673 15.0401 3.77387 14.8245C4.04499 14.609 4.18056 14.3195 4.18056 13.9563C4.18056 13.629 4.05696 13.3515 3.80975 13.124C3.56254 12.8965 3.05218 12.627 2.27868 12.3157C1.48123 11.9923 0.919045 11.6231 0.592096 11.2079C0.265148 10.7928 0.101673 10.2938 0.101673 9.71096C0.101673 8.98053 0.36084 8.40572 0.879173 7.98654C1.39751 7.56736 2.09327 7.35783 2.96646 7.35783C3.80377 7.35783 4.63709 7.54148 5.46643 7.90866L5.01188 9.07633C4.23438 8.74904 3.54062 8.58533 2.93057 8.58533C2.46807 8.58533 2.11719 8.68706 1.87796 8.89066C1.63873 9.09034 1.51912 9.35578 1.51912 9.68711C1.51912 9.91456 1.56696 10.1102 1.66265 10.2739C1.75835 10.4336 1.91584 10.5852 2.13513 10.7289C2.35442 10.8726 2.74916 11.0623 3.31932 11.2978C3.96127 11.5651 4.43175 11.8147 4.73079 12.0462C5.02982 12.2778 5.24913 12.5392 5.38868 12.8306C5.52822 13.122 5.598 13.4653 5.598 13.8605ZM12.2369 16.2381H7.29078V7.48402H12.2369V8.69359H8.72018V11.0766H12.0156V12.2742H8.72018V15.0225H12.2369V16.2381ZM15.9157 9.45953C16.3862 8.87677 17.0321 8.58533 17.8535 8.58533C18.2163 8.58533 18.5611 8.63923 18.8882 8.74702C19.2191 8.85077 19.532 8.97257 19.827 9.11217L20.3414 7.92065C19.5838 7.5454 18.7586 7.35783 17.8654 7.35783C17.0161 7.35783 16.2765 7.53946 15.6465 7.90273C15.0165 8.26599 14.5341 8.78892 14.1992 9.47152C13.8683 10.1541 13.7028 10.9504 13.7028 11.8606C13.7028 13.3056 14.0456 14.4174 14.7315 15.1958C15.4173 15.9701 16.4001 16.3574 17.68 16.3574C18.5491 16.3574 19.3266 16.2276 20.0125 15.9682V14.7407C19.6377 14.8565 19.2768 14.9523 18.93 15.0281C18.5831 15.1 18.2242 15.1359 17.8535 15.1359C16.9962 15.1359 16.3403 14.8604 15.8858 14.3096C15.4352 13.7587 15.2099 12.9464 15.2099 11.8726C15.2099 10.8467 15.4452 10.0423 15.9157 9.45953ZM28.7514 7.48402V13.1484C28.7514 13.7951 28.6118 14.3619 28.3327 14.849C28.0576 15.3319 27.6568 15.7051 27.1306 15.9687C26.6082 16.2281 25.9823 16.3578 25.2526 16.3578C24.1681 16.3578 23.3248 16.0704 22.7228 15.4956C22.1206 14.9208 21.8197 14.1304 21.8197 13.1244V7.48402H23.255V13.0227C23.255 13.7452 23.4225 14.2781 23.7574 14.6214C24.0923 14.9647 24.6067 15.1364 25.3005 15.1364C26.6481 15.1364 27.3219 14.4278 27.3219 13.0107V7.48402H28.7514ZM33.4085 11.5556H32.4157V8.69359H33.3607C34.0106 8.69359 34.497 8.80139 34.82 9.01684C35.1429 9.23243 35.3044 9.58774 35.3044 10.0827C35.3044 10.5697 35.1549 10.9369 34.8558 11.1844C34.5568 11.4319 34.0744 11.5556 33.4085 11.5556ZM32.4157 16.2381V12.7412H33.8272L35.9204 16.2381H37.5473L35.0772 12.3641C36.2095 11.901 36.7757 11.1246 36.7757 10.0348C36.7757 9.18055 36.5046 8.54188 35.9623 8.11878C35.42 7.69557 34.5848 7.48402 33.4564 7.48402H30.9864V16.2381H32.4157ZM43.7663 16.2381H38.8202V7.48402H43.7663V8.69359H40.2496V11.0766H43.5449V12.2742H40.2496V15.0225H43.7663V16.2381ZM51.5734 15.0944C52.3749 14.328 52.7755 13.2223 52.7755 11.7773C52.7755 10.416 52.3888 9.36016 51.6153 8.60978C50.8418 7.85928 49.7592 7.48402 48.3677 7.48402H45.6645V16.2381H48.1105C49.6176 16.2381 50.772 15.8569 51.5734 15.0944ZM48.3318 8.6816C50.2895 8.6816 51.2683 9.72949 51.2683 11.8251C51.2683 13.9647 50.2157 15.0345 48.1105 15.0345H47.0938V8.6816H48.3318ZM57.8874 7.48402H60.3575C61.5177 7.48402 62.357 7.6577 62.8754 8.00493C63.3937 8.35229 63.6529 8.9011 63.6529 9.65161C63.6529 10.1705 63.5073 10.5997 63.2163 10.9389C62.9291 11.2743 62.5085 11.4918 61.9543 11.5916V11.6514C63.282 11.879 63.9459 12.5777 63.9459 13.7472C63.9459 14.5295 63.6808 15.1403 63.1505 15.5794C62.6242 16.0186 61.8865 16.2381 60.9375 16.2381H57.8874V7.48402ZM58.9041 11.2324H60.5787C61.2965 11.2324 61.8127 11.1206 62.1278 10.897C62.4427 10.6695 62.6002 10.2883 62.6002 9.75334C62.6002 9.26234 62.4248 8.90918 62.074 8.69359C61.7231 8.47397 61.1648 8.36428 60.3993 8.36428H58.9041V11.2324ZM58.9041 12.0946V15.3699H60.7282C61.434 15.3699 61.9643 15.2341 62.3192 14.9627C62.678 14.6873 62.8574 14.2582 62.8574 13.6754C62.8574 13.1324 62.674 12.7333 62.3072 12.4778C61.9444 12.2223 61.3901 12.0946 60.6445 12.0946H58.9041ZM70.387 7.48402L68.0545 11.8611L65.74 7.48402H64.6275L67.5402 12.8909V16.2381H68.5688V12.8431L71.4875 7.48402H70.387Z" fill="white"/>
</g>
<defs>
<clipPath id="clip0_7764_14466">
<rect width="176" height="24" fill="white"/>
</clipPath>
</defs>
</svg>
