<svg width="24" height="24" viewBox="0 0 24 24" fill="none" xmlns="http://www.w3.org/2000/svg">
<path d="M12 24C18.6274 24 24 18.6274 24 12C24 5.37258 18.6274 0 12 0C5.37258 0 0 5.37258 0 12C0 18.6274 5.37258 24 12 24Z" fill="#213147"/>
<g clip-path="url(#clip0_0_768)">
<path d="M5.44629 8.864V15.136C5.44629 15.5392 5.65749 15.904 6.00949 16.1088L11.4431 19.2448C11.7887 19.4432 12.2175 19.4432 12.5631 19.2448L17.9967 16.1088C18.3423 15.9104 18.5599 15.5392 18.5599 15.136V8.864C18.5599 8.4608 18.3487 8.096 17.9967 7.8912L12.5631 4.7552C12.2175 4.5568 11.7887 4.5568 11.4431 4.7552L6.00949 7.8912C5.66389 8.0896 5.45269 8.4608 5.45269 8.864H5.44629Z" fill="#213147"/>
<path d="M13.1838 13.216L12.4094 15.3408C12.3902 15.3984 12.3902 15.4624 12.4094 15.5264L13.7406 19.1808L15.283 18.2912L13.4334 13.216C13.3886 13.1008 13.2286 13.1008 13.1838 13.216Z" fill="#12AAFF"/>
<path d="M14.7391 9.6448C14.6943 9.5296 14.5343 9.5296 14.4895 9.6448L13.7151 11.7696C13.6959 11.8272 13.6959 11.8912 13.7151 11.9552L15.8975 17.9392L17.4399 17.0496L14.7391 9.6512V9.6448Z" fill="#12AAFF"/>
<path d="M11.9999 4.992C12.0383 4.992 12.0767 5.0048 12.1087 5.024L17.9839 8.416C18.0543 8.4544 18.0927 8.5312 18.0927 8.608V15.392C18.0927 15.4688 18.0479 15.5456 17.9839 15.584L12.1087 18.976C12.0767 18.9952 12.0383 19.008 11.9999 19.008C11.9615 19.008 11.9231 18.9952 11.8911 18.976L6.01589 15.584C5.94549 15.5456 5.90709 15.4688 5.90709 15.392V8.6016C5.90709 8.5248 5.95189 8.448 6.01589 8.4096L11.8911 5.0176C11.9231 4.9984 11.9615 4.9856 11.9999 4.9856V4.992ZM11.9999 4C11.7887 4 11.5839 4.0512 11.3919 4.16L5.51669 7.552C5.13909 7.7696 4.90869 8.1664 4.90869 8.6016V15.3856C4.90869 15.8208 5.13909 16.2176 5.51669 16.4352L11.3919 19.8272C11.5775 19.936 11.7887 19.9872 11.9999 19.9872C12.2111 19.9872 12.4159 19.936 12.6079 19.8272L18.4831 16.4352C18.8607 16.2176 19.0911 15.8208 19.0911 15.3856V8.6016C19.0911 8.1664 18.8607 7.7696 18.4831 7.552L12.6015 4.16C12.4159 4.0512 12.2047 4 11.9935 4H11.9999Z" fill="#9DCCED"/>
<path d="M8.10889 17.9456L8.65289 16.4608L9.74089 17.3632L8.72329 18.2976L8.10889 17.9456Z" fill="#213147"/>
<path d="M11.5008 8.1216H10.0096C9.90081 8.1216 9.79841 8.192 9.76001 8.2944L6.56641 17.0496L8.10881 17.9392L11.6288 8.2944C11.6608 8.2048 11.5968 8.1152 11.5072 8.1152L11.5008 8.1216Z" fill="white"/>
<path d="M14.1119 8.1216H12.6207C12.5119 8.1216 12.4095 8.192 12.3711 8.2944L8.72314 18.2912L10.2655 19.1808L14.2335 8.2944C14.2655 8.2048 14.2015 8.1152 14.1119 8.1152V8.1216Z" fill="white"/>
</g>
<defs>
<clipPath id="clip0_0_768">
<rect width="16" height="16" fill="white" transform="translate(4 4)"/>
</clipPath>
</defs>
</svg>
