<svg xmlns="http://www.w3.org/2000/svg" width="24" height="24" viewBox="0 0 24 24" fill="none">
  <g clip-path="url(#clip0_19594_33455)">
    <path d="M12 24C18.6274 24 24 18.6274 24 12C24 5.37258 18.6274 0 12 0C5.37258 0 0 5.37258 0 12C0 18.6274 5.37258 24 12 24Z" fill="#FABB36"/>
    <path d="M19.1159 10.0201H17.6919C16.9079 7.84411 14.7999 6.35211 12.0199 6.35211H7.44786V10.0201H5.85986V11.3361H7.44786V12.7161H5.85986V14.0321H7.44786V17.6561H12.0199C14.7679 17.6561 16.8599 16.1761 17.6639 14.0321H19.1159V12.7161H17.9839C18.0119 12.4841 18.0279 12.2441 18.0279 12.0041V11.9721C18.0279 11.7561 18.0159 11.5441 17.9959 11.3361H19.1199V10.0201H19.1159ZM8.72786 7.52411H12.0199C14.0599 7.52411 15.5759 8.52811 16.2759 10.0161H8.72786V7.52411ZM12.0199 16.4721H8.72786V14.0281H16.2679C15.5639 15.4921 14.0519 16.4721 12.0199 16.4721ZM16.7039 12.0321C16.7039 12.2641 16.6879 12.4921 16.6559 12.7121H8.72786V11.3321H16.6599C16.6879 11.5481 16.7039 11.7721 16.7039 12.0001V12.0321Z" fill="white"/>
  </g>
  <defs>
    <clipPath id="clip0_19594_33455">
      <rect width="24" height="24" fill="white"/>
    </clipPath>
  </defs>
</svg>