<svg width="24" height="24" viewBox="0 0 24 24" fill="none" xmlns="http://www.w3.org/2000/svg">
<path d="M12 24C18.65 24 24 18.65 24 12C24 5.34996 18.65 0 12 0C5.34996 0 0 5.34996 0 12C0 18.65 5.34996 24 12 24Z" fill="#00A6C4"/>
<g clip-path="url(#clip0_7515_9807)">
<path d="M8.7028 13.1103C9.16262 13.1103 9.61121 12.957 9.97383 12.6766L7.05794 9.76074C6.35514 10.6692 6.52336 11.9776 7.43178 12.6804C7.79813 12.957 8.24299 13.1103 8.7028 13.1103Z" fill="white"/>
<path d="M17.3757 11.0279C17.3757 10.5681 17.2224 10.1195 16.9421 9.75684L14.0262 12.6727C14.9346 13.3755 16.2393 13.2073 16.9421 12.2989C17.2224 11.9363 17.3757 11.4877 17.3757 11.0279Z" fill="white"/>
<path d="M18.8449 7.854L17.5551 9.14372C18.5944 10.3886 18.4299 12.2428 17.185 13.282C16.0935 14.1942 14.5084 14.1942 13.4168 13.282L12 14.6989L10.5869 13.2858C9.34206 14.325 7.48785 14.1605 6.4486 12.9157C5.53645 11.8241 5.53645 10.2391 6.4486 9.14746L5.78692 8.48578L5.15888 7.854C4.4 9.1026 4 10.5381 4 11.9998C4 16.4185 7.58131 19.9998 12 19.9998C16.4187 19.9998 20 16.4185 20 11.9998C20.0037 10.5381 19.6 9.1026 18.8449 7.854Z" fill="white"/>
<path d="M17.7869 6.47846C14.7402 3.2822 9.6785 3.16257 6.48224 6.2093C6.38878 6.29902 6.29907 6.38874 6.21308 6.47846C6.01495 6.6878 5.82804 6.90463 5.65234 7.13266L12 13.4841L18.3477 7.13266C18.1757 6.90463 17.985 6.6878 17.7869 6.47846ZM12 5.04668C13.8692 5.04668 15.6112 5.76818 16.9196 7.08407L12 12.0037L7.08037 7.08407C8.38878 5.76818 10.1308 5.04668 12 5.04668Z" fill="white"/>
</g>
<defs>
<clipPath id="clip0_7515_9807">
<rect width="16" height="16" fill="white" transform="translate(4 4)"/>
</clipPath>
</defs>
</svg>
