<svg xmlns="http://www.w3.org/2000/svg" width="24" height="24" viewBox="0 0 24 24" fill="none">
  <g clip-path="url(#clip0_19413_126343)">
    <path d="M12 24C18.65 24 24 18.65 24 12C24 5.34996 18.65 0 12 0C5.34996 0 0 5.34996 0 12C0 18.65 5.34996 24 12 24Z" fill="#FF0420"/>
    <path fill-rule="evenodd" clip-rule="evenodd" d="M6.74582 14.6849C7.20215 15.0212 7.78755 15.1893 8.50208 15.1893C9.36675 15.1893 10.0573 14.9882 10.5737 14.5859C11.09 14.1776 11.4532 13.5621 11.6634 12.7395C11.7895 12.2352 11.8976 11.7158 11.9876 11.1814C12.0177 10.9892 12.0327 10.8301 12.0327 10.704C12.0327 10.2837 11.9276 9.92349 11.7175 9.62327C11.5073 9.31704 11.2191 9.08881 10.8529 8.93874C10.4866 8.78266 10.0723 8.70459 9.6099 8.70459C7.9107 8.70459 6.85689 9.53019 6.4486 11.1814C6.30451 11.7878 6.19343 12.3072 6.11533 12.7395C6.08533 12.9317 6.07031 13.0938 6.07031 13.2259C6.07031 13.8564 6.29548 14.3427 6.74582 14.6849ZM9.48382 13.5952C9.24967 13.7933 8.96445 13.8924 8.62815 13.8924C8.05177 13.8924 7.76355 13.6162 7.76355 13.0637C7.76355 12.9317 7.77555 12.8056 7.79962 12.6855C7.90762 12.1031 8.01578 11.6107 8.12385 11.2084C8.22593 10.8001 8.39408 10.4969 8.62815 10.2987C8.86837 10.1006 9.1566 10.0015 9.49282 10.0015C10.0633 10.0015 10.3484 10.2747 10.3484 10.8211C10.3484 10.9532 10.3364 11.0823 10.3124 11.2084C10.2404 11.6287 10.1353 12.1211 9.9972 12.6855C9.89513 13.0938 9.72405 13.397 9.48382 13.5952ZM12.2936 15.0365C12.3296 15.0786 12.3807 15.0996 12.4468 15.0996H13.6717C13.7317 15.0996 13.7887 15.0786 13.8428 15.0365C13.8968 14.9945 13.9298 14.9405 13.9419 14.8744L14.3561 12.902H15.572C16.3586 12.902 16.9771 12.7368 17.4274 12.4066C17.8837 12.0764 18.187 11.5659 18.337 10.8754C18.3731 10.7133 18.3911 10.5572 18.3911 10.4071C18.3911 9.88475 18.187 9.48545 17.7787 9.20922C17.3764 8.933 16.842 8.79492 16.1755 8.79492H13.7797C13.7197 8.79492 13.6627 8.81592 13.6086 8.85792C13.5545 8.9 13.5215 8.95407 13.5095 9.02007L12.2666 14.8744C12.2546 14.9345 12.2636 14.9885 12.2936 15.0365ZM16.2925 11.4519C16.1064 11.5899 15.8872 11.659 15.6351 11.659H14.5993L14.9416 10.0469H16.0224C16.2685 10.0469 16.4427 10.0949 16.5448 10.191C16.6468 10.281 16.6978 10.4131 16.6978 10.5873C16.6978 10.6653 16.6888 10.7553 16.6708 10.8574C16.6108 11.1156 16.4847 11.3138 16.2925 11.4519Z" fill="white"/>
  </g>
  <defs>
    <clipPath id="clip0_19413_126343">
      <rect width="24" height="24" fill="white"/>
    </clipPath>
  </defs>
</svg>