<svg viewBox="0 0 24 24" fill="none" xmlns="http://www.w3.org/2000/svg">
<circle cx="12" cy="12" r="12" fill="#9013FE"/>
<g clip-path="url(#clip0_19274_81036)">
<path fill-rule="evenodd" clip-rule="evenodd" d="M8.90429 5.4375L16.4465 5.77469L19.5 12.5607L15.192 18.7627L7.60885 18.277L4.5 10.9244L8.90429 5.4375ZM14.4337 9.34913L8.96762 11.7378L13.6408 15.3518L14.4337 9.34913ZM13.8009 8.15219L9.43257 6.27092L8.51495 10.2264L13.8009 8.15219ZM12.6937 16.2611L7.94616 12.8703L8.061 17.465L12.6937 16.2611ZM18.7417 12.5457L15.5065 9.26222L14.6526 15.5763L18.7417 12.5457ZM13.8067 16.9996L9.80285 18.0463L14.5114 18.3479L13.8067 16.9996ZM18.1095 14.0355L14.6046 16.6469L15.3011 18.0082L18.1095 14.0355ZM16.4517 6.72283L15.7709 8.12059L18.3048 10.6968L16.4517 6.72283ZM15.6035 6.05395L11.154 5.8733L14.8243 7.479L15.6035 6.05395ZM8.25453 6.70033L5.13798 10.6365L7.22165 11.0779L8.25453 6.70033ZM7.09601 11.8501L5.0023 11.4067L7.18692 16.5544L7.09601 11.8501Z" fill="white"/>
</g>
<defs>
<clipPath id="clip0_19274_81036">
<rect width="15" height="15" fill="white" transform="translate(4.5 4.5)"/>
</clipPath>
</defs>
</svg>
