<svg xmlns="http://www.w3.org/2000/svg" width="24" height="24" viewBox="0 0 24 24" fill="none">
  <g clip-path="url(#clip0_19274_80440)">
    <path d="M12 24C18.65 24 24 18.65 24 12C24 5.34996 18.65 0 12 0C5.34996 0 0 5.34996 0 12C0 18.65 5.34996 24 12 24Z" fill="#8A46FF"/>
    <path d="M16.0738 9.37829C15.7786 9.19649 15.3948 9.19649 15.0701 9.37829L12.7675 10.772L11.2029 11.681L8.90037 13.0748C8.60518 13.2566 8.2214 13.2566 7.89668 13.0748L6.06642 11.9841C5.77122 11.8023 5.56457 11.469 5.56457 11.1053V8.95409C5.56457 8.5905 5.7417 8.25721 6.06642 8.07541L7.86716 7.01492C8.16236 6.83312 8.54611 6.83312 8.87085 7.01492L10.6716 8.07541C10.9668 8.25721 11.1734 8.5905 11.1734 8.95409V10.3479L12.738 9.40859V8.01481C12.738 7.65121 12.5609 7.31792 12.2362 7.13612L8.90037 5.13635C8.60518 4.95455 8.2214 4.95455 7.89668 5.13635L4.50185 7.13612C4.17712 7.31792 4 7.65121 4 8.01481V12.0447C4 12.4082 4.17712 12.7415 4.50185 12.9233L7.89668 14.9231C8.19188 15.1049 8.57566 15.1049 8.90037 14.9231L11.2029 13.5596L12.7675 12.6203L15.0701 11.2569C15.3653 11.0751 15.7491 11.0751 16.0738 11.2569L17.8745 12.3174C18.1698 12.4992 18.3764 12.8325 18.3764 13.196V15.3473C18.3764 15.7109 18.1993 16.0442 17.8745 16.226L16.0738 17.3168C15.7786 17.4986 15.3948 17.4986 15.0701 17.3168L13.2694 16.2563C12.9742 16.0745 12.7675 15.7412 12.7675 15.3776V13.9838L11.2029 14.9231V16.3169C11.2029 16.6805 11.3801 17.0138 11.7048 17.1956L15.0996 19.1954C15.3948 19.3772 15.7786 19.3772 16.1033 19.1954L19.4982 17.1956C19.7934 17.0138 20 16.6805 20 16.3169V12.287C20 11.9235 19.8229 11.5902 19.4982 11.4084L16.0738 9.37829Z" fill="white"/>
  </g>
  <defs>
    <clipPath id="clip0_19274_80440">
      <rect width="24" height="24" fill="white"/>
    </clipPath>
  </defs>
</svg>