<svg xmlns="http://www.w3.org/2000/svg" width="24" height="24" viewBox="0 0 24 24" fill="none">
  <path d="M12 24C18.65 24 24 18.65 24 12C24 5.34996 18.65 0 12 0C5.34996 0 0 5.34996 0 12C0 18.65 5.34996 24 12 24Z" fill="#2775CA"/>
  <path d="M15.2995 13.9001C15.2995 12.1501 14.2495 11.5501 12.1495 11.3002C10.6496 11.1001 10.3496 10.7002 10.3496 10.0001C10.3496 9.29999 10.8496 8.85011 11.8495 8.85011C12.7495 8.85011 13.2496 9.15011 13.4995 9.90011C13.5496 10.0501 13.6996 10.1501 13.8496 10.1501H14.6495C14.8495 10.1501 14.9995 10.0001 14.9995 9.80015V9.75011C14.7995 8.65007 13.8995 7.8001 12.7495 7.70014V6.50014C12.7495 6.3001 12.5995 6.1501 12.3496 6.10006H11.5996C11.3995 6.10006 11.2495 6.25006 11.1995 6.50014V7.6501C9.69952 7.85014 8.74961 8.85011 8.74961 10.1001C8.74961 11.7502 9.74956 12.4001 11.8495 12.6502C13.2496 12.9001 13.6996 13.2001 13.6996 14.0002C13.6996 14.8002 12.9995 15.3502 12.0496 15.3502C10.7495 15.3502 10.2995 14.8001 10.1495 14.0501C10.0996 13.8502 9.9496 13.7501 9.7996 13.7501H8.94953C8.74961 13.7501 8.59961 13.9001 8.59961 14.1001V14.1502C8.79953 15.4001 9.59956 16.3001 11.2495 16.5502V17.7502C11.2495 17.9501 11.3995 18.1001 11.6495 18.1501H12.3995C12.5995 18.1501 12.7495 18.0001 12.7996 17.7502V16.5502C14.2996 16.3001 15.2995 15.2501 15.2995 13.9001Z" fill="white"/>
  <path d="M9.45 19.1502C5.55 17.7503 3.54996 13.4003 5.00004 9.55022C5.75004 7.45022 7.40004 5.85026 9.45 5.10026C9.65004 5.0003 9.75 4.8503 9.75 4.60022V3.90026C9.75 3.70022 9.65004 3.55022 9.45 3.5003C9.39996 3.5003 9.3 3.5003 9.24996 3.55022C4.5 5.05022 1.89996 10.1003 3.39996 14.8503C4.29996 17.6502 6.45 19.8003 9.24996 20.7003C9.45 20.8002 9.65004 20.7003 9.69996 20.5002C9.75 20.4503 9.75 20.4003 9.75 20.3003V19.6002C9.75 19.4502 9.6 19.2503 9.45 19.1502ZM14.75 3.55022C14.55 3.45026 14.35 3.55022 14.3 3.75026C14.25 3.8003 14.25 3.85022 14.25 3.9503V4.65026C14.25 4.8503 14.4 5.05022 14.55 5.1503C18.45 6.55022 20.45 10.9002 19 14.7503C18.25 16.8503 16.6 18.4503 14.55 19.2003C14.35 19.3002 14.25 19.4502 14.25 19.7003V20.4003C14.25 20.6003 14.35 20.7503 14.55 20.8002C14.6 20.8002 14.7 20.8002 14.75 20.7503C19.5 19.2503 22.1 14.2002 20.6 9.45026C19.7 6.60026 17.5 4.45022 14.75 3.55022Z" fill="white"/>
</svg>