<svg width="194" height="46" viewBox="0 0 194 46" fill="none" xmlns="http://www.w3.org/2000/svg">
<path fill-rule="evenodd" clip-rule="evenodd" d="M15.5618 0L42.2108 1.164L53 24.5901L37.7785 46L10.9846 44.3232L0 18.9412L15.5618 0ZM35.0991 13.5034L15.7856 21.7493L32.2974 34.2251L35.0991 13.5034ZM32.8631 9.37139L17.4284 2.87706L14.1862 16.5317L32.8631 9.37139ZM28.9509 37.3641L12.1764 25.6589L12.5822 41.5201L28.9509 37.3641ZM50.3207 24.5384L38.8897 13.2033L35.8726 35.0003L50.3207 24.5384ZM32.8838 39.9136L18.7368 43.527L35.3736 44.568L32.8838 39.9136ZM48.0868 29.6812L35.7031 38.6962L38.1637 43.3955L48.0868 29.6812ZM42.2292 4.43708L39.824 9.26233L48.7768 18.1556L42.2292 4.43708ZM39.2324 2.12804L23.511 1.50443L36.4793 7.04747L39.2324 2.12804ZM13.266 4.35942L2.25421 17.9475L9.6165 19.4714L13.266 4.35942ZM9.17257 22.1368L1.77479 20.6063L9.4938 38.3768L9.17257 22.1368Z" fill="white"/>
<path d="M62.6136 22.8182V21.9091L69.9318 18.1818V19.6364L64.3182 22.3409L64.3636 22.25V22.4773L64.3182 22.3864L69.9318 25.0909V26.5455L62.6136 22.8182ZM78.6269 28H75.036V16.3636H78.786C79.9148 16.3636 80.8807 16.5966 81.6837 17.0625C82.4867 17.5246 83.1023 18.1894 83.5303 19.0568C83.9583 19.9205 84.1723 20.9545 84.1723 22.1591C84.1723 23.3712 83.9564 24.4148 83.5246 25.2898C83.0928 26.161 82.464 26.8314 81.6382 27.3011C80.8125 27.767 79.8087 28 78.6269 28ZM76.4451 26.75H78.536C79.4981 26.75 80.2954 26.5644 80.928 26.1932C81.5606 25.822 82.0322 25.2936 82.3428 24.608C82.6534 23.9223 82.8087 23.1061 82.8087 22.1591C82.8087 21.2197 82.6553 20.411 82.3485 19.733C82.0416 19.0511 81.5833 18.5284 80.9735 18.1648C80.3636 17.7973 79.6041 17.6136 78.6951 17.6136H76.4451V26.75ZM88.616 28V16.3636H95.6387V17.6136H90.0251V21.5455H95.2751V22.7955H90.0251V26.75H95.7296V28H88.616ZM100.736 16.3636L104.19 26.1591H104.327L107.781 16.3636H109.258L104.986 28H103.531L99.2585 16.3636H100.736ZM112.515 17.6136V16.3636H121.242V17.6136H117.583V28H116.174V17.6136H112.515ZM134.83 22.1818C134.83 23.4091 134.609 24.4697 134.166 25.3636C133.722 26.2576 133.114 26.947 132.342 27.4318C131.569 27.9167 130.686 28.1591 129.694 28.1591C128.702 28.1591 127.819 27.9167 127.046 27.4318C126.274 26.947 125.666 26.2576 125.222 25.3636C124.779 24.4697 124.558 23.4091 124.558 22.1818C124.558 20.9545 124.779 19.8939 125.222 19C125.666 18.1061 126.274 17.4167 127.046 16.9318C127.819 16.447 128.702 16.2045 129.694 16.2045C130.686 16.2045 131.569 16.447 132.342 16.9318C133.114 17.4167 133.722 18.1061 134.166 19C134.609 19.8939 134.83 20.9545 134.83 22.1818ZM133.467 22.1818C133.467 21.1742 133.298 20.3239 132.961 19.6307C132.628 18.9375 132.175 18.4129 131.603 18.0568C131.035 17.7008 130.399 17.5227 129.694 17.5227C128.989 17.5227 128.351 17.7008 127.779 18.0568C127.211 18.4129 126.758 18.9375 126.421 19.6307C126.088 20.3239 125.921 21.1742 125.921 22.1818C125.921 23.1894 126.088 24.0398 126.421 24.733C126.758 25.4261 127.211 25.9508 127.779 26.3068C128.351 26.6629 128.989 26.8409 129.694 26.8409C130.399 26.8409 131.035 26.6629 131.603 26.3068C132.175 25.9508 132.628 25.4261 132.961 24.733C133.298 24.0398 133.467 23.1894 133.467 22.1818ZM149.098 22.1818C149.098 23.4091 148.876 24.4697 148.433 25.3636C147.99 26.2576 147.382 26.947 146.609 27.4318C145.837 27.9167 144.954 28.1591 143.962 28.1591C142.969 28.1591 142.087 27.9167 141.314 27.4318C140.541 26.947 139.933 26.2576 139.49 25.3636C139.047 24.4697 138.825 23.4091 138.825 22.1818C138.825 20.9545 139.047 19.8939 139.49 19C139.933 18.1061 140.541 17.4167 141.314 16.9318C142.087 16.447 142.969 16.2045 143.962 16.2045C144.954 16.2045 145.837 16.447 146.609 16.9318C147.382 17.4167 147.99 18.1061 148.433 19C148.876 19.8939 149.098 20.9545 149.098 22.1818ZM147.734 22.1818C147.734 21.1742 147.566 20.3239 147.229 19.6307C146.895 18.9375 146.443 18.4129 145.871 18.0568C145.302 17.7008 144.666 17.5227 143.962 17.5227C143.257 17.5227 142.619 17.7008 142.047 18.0568C141.479 18.4129 141.026 18.9375 140.689 19.6307C140.355 20.3239 140.189 21.1742 140.189 22.1818C140.189 23.1894 140.355 24.0398 140.689 24.733C141.026 25.4261 141.479 25.9508 142.047 26.3068C142.619 26.6629 143.257 26.8409 143.962 26.8409C144.666 26.8409 145.302 26.6629 145.871 26.3068C146.443 25.9508 146.895 25.4261 147.229 24.733C147.566 24.0398 147.734 23.1894 147.734 22.1818ZM153.547 28V16.3636H154.956V26.75H160.365V28H153.547ZM170.991 19.2727C170.923 18.697 170.646 18.25 170.161 17.9318C169.676 17.6136 169.082 17.4545 168.377 17.4545C167.862 17.4545 167.411 17.5379 167.025 17.7045C166.642 17.8712 166.343 18.1004 166.127 18.392C165.915 18.6837 165.809 19.0152 165.809 19.3864C165.809 19.697 165.883 19.964 166.031 20.1875C166.182 20.4072 166.375 20.5909 166.61 20.7386C166.845 20.8826 167.091 21.0019 167.349 21.0966C167.606 21.1875 167.843 21.2614 168.059 21.3182L169.241 21.6364C169.544 21.7159 169.881 21.8258 170.252 21.9659C170.627 22.1061 170.985 22.2973 171.326 22.5398C171.671 22.7784 171.955 23.0852 172.178 23.4602C172.402 23.8352 172.514 24.2955 172.514 24.8409C172.514 25.4697 172.349 26.0379 172.019 26.5455C171.694 27.053 171.216 27.4564 170.587 27.7557C169.962 28.0549 169.203 28.2045 168.309 28.2045C167.476 28.2045 166.754 28.0701 166.144 27.8011C165.538 27.5322 165.061 27.1572 164.712 26.6761C164.368 26.1951 164.173 25.6364 164.127 25H165.582C165.62 25.4394 165.767 25.803 166.025 26.0909C166.286 26.375 166.616 26.5871 167.014 26.7273C167.415 26.8636 167.847 26.9318 168.309 26.9318C168.847 26.9318 169.33 26.8447 169.758 26.6705C170.186 26.4924 170.525 26.2462 170.775 25.9318C171.025 25.6136 171.15 25.2424 171.15 24.8182C171.15 24.4318 171.042 24.1174 170.826 23.875C170.61 23.6326 170.326 23.4356 169.974 23.2841C169.622 23.1326 169.241 23 168.832 22.8864L167.4 22.4773C166.491 22.2159 165.771 21.8428 165.241 21.358C164.711 20.8731 164.445 20.2386 164.445 19.4545C164.445 18.803 164.622 18.2348 164.974 17.75C165.33 17.2614 165.807 16.8826 166.406 16.6136C167.008 16.3409 167.68 16.2045 168.423 16.2045C169.173 16.2045 169.839 16.339 170.423 16.608C171.006 16.8731 171.468 17.2367 171.809 17.6989C172.154 18.161 172.336 18.6856 172.354 19.2727H170.991ZM180.842 15.8182L177.092 29.75H175.865L179.615 15.8182H180.842ZM192.216 23.9091L184.898 27.6364V26.1818L190.512 23.4773L190.466 23.5682V23.3409L190.512 23.4318L184.898 20.7273V19.2727L192.216 23V23.9091Z" fill="white"/>
</svg>
