<svg width="238" height="275" viewBox="0 0 238 275" fill="none" xmlns="http://www.w3.org/2000/svg">
<path fill-rule="evenodd" clip-rule="evenodd" d="M118.998 0L237.996 68.75V206.25L118.998 275L0 206.25V68.75L118.998 0Z" fill="#F0F9FF"/>
<mask id="mask0_11691_167817" style="mask-type:alpha" maskUnits="userSpaceOnUse" x="14" y="16" width="210" height="243">
<path d="M118.904 16.5527L223.495 76.9794V197.833L118.904 258.259L14.3125 197.833V76.9794L118.904 16.5527Z" fill="white"/>
</mask>
<g mask="url(#mask0_11691_167817)">
<path d="M118.904 16.5527L223.495 76.9794V197.833L118.904 258.259L14.3125 197.833V76.9794L118.904 16.5527Z" fill="url(#paint0_linear_11691_167817)"/>
<path d="M219.94 205.781H27.082V268.23H219.94V205.781Z" fill="#9013FE"/>
<path fill-rule="evenodd" clip-rule="evenodd" d="M86.6347 12.6055L65.8008 130.167H171.816L150.972 12.6055H86.6347Z" fill="white" fill-opacity="0.178568"/>
</g>
<mask id="mask1_11691_167817" style="mask-type:alpha" maskUnits="userSpaceOnUse" x="14" y="16" width="210" height="243">
<path d="M118.904 16.5527L223.495 76.9794V197.833L118.904 258.259L14.3125 197.833V76.9794L118.904 16.5527Z" fill="white"/>
</mask>
<g mask="url(#mask1_11691_167817)">
<path d="M118.904 16.5527L223.495 76.9794V197.833L118.904 258.259L14.3125 197.833V76.9794L118.904 16.5527Z" fill="url(#paint1_linear_11691_167817)" stroke="#4D00B4" stroke-width="0.5"/>
<path d="M210.164 168.16H27.832V268.229H210.164V168.16Z" fill="#9013FE"/>
</g>
<path d="M188.566 82.7637H49.8081C49.5064 82.7637 49.2617 83.0085 49.2617 83.3105V87.6717C49.2617 87.9737 49.5064 88.2185 49.8081 88.2185H188.566C188.868 88.2185 189.112 87.9737 189.112 87.6717V83.3105C189.112 83.0085 188.868 82.7637 188.566 82.7637Z" fill="#4D00B4"/>
<path d="M188.566 65.082H49.8081C49.5064 65.082 49.2617 65.3268 49.2617 65.6288V69.9901C49.2617 70.2921 49.5064 70.5369 49.8081 70.5369H188.566C188.868 70.5369 189.112 70.2921 189.112 69.9901V65.6288C189.112 65.3268 188.868 65.082 188.566 65.082Z" fill="#4D00B4"/>
<path d="M188.566 100.443H49.8081C49.5064 100.443 49.2617 100.688 49.2617 100.99V105.351C49.2617 105.653 49.5064 105.898 49.8081 105.898H188.566C188.868 105.898 189.112 105.653 189.112 105.351V100.99C189.112 100.688 188.868 100.443 188.566 100.443Z" fill="#4D00B4"/>
<path d="M188.566 118.127H49.8081C49.5064 118.127 49.2617 118.372 49.2617 118.674V123.035C49.2617 123.337 49.5064 123.582 49.8081 123.582H188.566C188.868 123.582 189.112 123.337 189.112 123.035V118.674C189.112 118.372 188.868 118.127 188.566 118.127Z" fill="#4D00B4"/>
<path d="M188.566 135.807H49.8081C49.5064 135.807 49.2617 136.051 49.2617 136.353V140.715C49.2617 141.017 49.5064 141.261 49.8081 141.261H188.566C188.868 141.261 189.112 141.017 189.112 140.715V136.353C189.112 136.051 188.868 135.807 188.566 135.807Z" fill="#4D00B4"/>
<path d="M188.566 153.488H49.8081C49.5064 153.488 49.2617 153.733 49.2617 154.035V158.396C49.2617 158.698 49.5064 158.943 49.8081 158.943H188.566C188.868 158.943 189.112 158.698 189.112 158.396V154.035C189.112 153.733 188.868 153.488 188.566 153.488Z" fill="#4D00B4"/>
<path d="M88.9414 198.605H81.1953L79.1797 203H76.2383L85.1914 183.77L93.8281 203H90.8398L88.9414 198.605ZM87.8281 196.039L85.1445 189.887L82.332 196.039H87.8281ZM98.832 195.652V203H96.1016V184.906H99.1953C100.711 184.906 101.855 185.012 102.629 185.223C103.41 185.434 104.098 185.832 104.691 186.418C105.73 187.434 106.25 188.715 106.25 190.262C106.25 191.918 105.695 193.23 104.586 194.199C103.477 195.168 101.98 195.652 100.098 195.652H98.832ZM98.832 193.121H99.8516C102.359 193.121 103.613 192.156 103.613 190.227C103.613 188.359 102.32 187.426 99.7344 187.426H98.832V193.121ZM111.793 195.652V203H109.062V184.906H112.156C113.672 184.906 114.816 185.012 115.59 185.223C116.371 185.434 117.059 185.832 117.652 186.418C118.691 187.434 119.211 188.715 119.211 190.262C119.211 191.918 118.656 193.23 117.547 194.199C116.438 195.168 114.941 195.652 113.059 195.652H111.793ZM111.793 193.121H112.812C115.32 193.121 116.574 192.156 116.574 190.227C116.574 188.359 115.281 187.426 112.695 187.426H111.793V193.121ZM132.008 187.473H124.754V191.82H131.797V194.387H124.754V200.434H132.008V203H122.023V184.906H132.008V187.473ZM146.223 198.605H138.477L136.461 203H133.52L142.473 183.77L151.109 203H148.121L146.223 198.605ZM145.109 196.039L142.426 189.887L139.613 196.039H145.109ZM156.113 184.906V200.434H161.434V203H153.383V184.906H156.113Z" fill="white"/>
<defs>
<linearGradient id="paint0_linear_11691_167817" x1="118.904" y1="16.5527" x2="118.904" y2="258.259" gradientUnits="userSpaceOnUse">
<stop stop-color="#8400DB"/>
<stop offset="1" stop-color="#4D00B4"/>
</linearGradient>
<linearGradient id="paint1_linear_11691_167817" x1="118.904" y1="16.5527" x2="118.904" y2="258.259" gradientUnits="userSpaceOnUse">
<stop stop-color="#8400DB"/>
<stop offset="1" stop-color="#4D00B4"/>
</linearGradient>
</defs>
</svg>
