<svg viewBox="0 0 350 350" fill="none" xmlns="http://www.w3.org/2000/svg">
<path fillRule="evenodd" clipRule="evenodd" d="M326.109 87.5L174.554 0L23 87.5V262.5L174.554 350L326.109 262.5V87.5ZM307.641 97.973L174.435 21.0664L41.2285 97.973V251.786L174.435 328.693L307.641 251.786V97.973Z" fill="#F0F9FF"/>
<path d="M174.435 21.0664L307.641 97.973V251.786L174.435 328.693L41.2285 251.786V97.973L174.435 21.0664Z" fill="#7E1BD4"/>
<path d="M290.662 261.589L174.435 328.693L58.4463 261.727V214.021H290.662V261.589Z" fill="#973AE8"/>
<path d="M139.093 254.796H129.821L127.409 260.056H123.888L134.604 237.037L144.943 260.056H141.366L139.093 254.796ZM137.761 251.724L134.548 244.359L131.182 251.724H137.761ZM150.918 251.261V260.056H147.65V238.398H151.353C153.167 238.398 154.537 238.524 155.463 238.776C156.398 239.029 157.221 239.506 157.932 240.207C159.176 241.423 159.797 242.957 159.797 244.808C159.797 246.791 159.133 248.362 157.806 249.521C156.478 250.681 154.687 251.261 152.433 251.261H150.918ZM150.918 248.231H152.139C155.14 248.231 156.641 247.076 156.641 244.766C156.641 242.531 155.094 241.414 151.998 241.414H150.918V248.231ZM166.432 251.261V260.056H163.164V238.398H166.867C168.681 238.398 170.051 238.524 170.977 238.776C171.912 239.029 172.735 239.506 173.446 240.207C174.69 241.423 175.312 242.957 175.312 244.808C175.312 246.791 174.648 248.362 173.32 249.521C171.992 250.681 170.201 251.261 167.947 251.261H166.432ZM166.432 248.231H167.653C170.655 248.231 172.155 247.076 172.155 244.766C172.155 242.531 170.608 241.414 167.512 241.414H166.432V248.231ZM190.629 241.47H181.946V246.674H190.377V249.746H181.946V256.984H190.629V260.056H178.678V238.398H190.629V241.47ZM207.644 254.796H198.372L195.96 260.056H192.439L203.156 237.037L213.494 260.056H209.917L207.644 254.796ZM206.312 251.724L203.099 244.359L199.733 251.724H206.312ZM219.469 238.398V256.984H225.838V260.056H216.201V238.398H219.469Z" fill="white"/>
<path d="M117.316 90.3982C113.386 90.3982 110.328 91.2378 108.145 92.917C106.034 94.5232 104.978 97.2611 104.978 101.131C104.978 102.883 105.342 104.379 106.07 105.621C106.798 106.862 107.708 107.92 108.8 108.796C109.965 109.673 111.275 110.403 112.731 110.987C114.259 111.498 115.788 111.936 117.316 112.301V90.3982ZM103.341 136.832C103.268 141.65 104.323 145.447 106.507 148.221C108.691 150.996 112.294 152.456 117.316 152.602V126.1C114.332 125.296 111.348 124.347 108.363 123.252C105.452 122.084 102.795 120.624 100.393 118.872C98.0635 117.046 96.171 114.783 94.7152 112.082C93.2594 109.381 92.5315 106.022 92.5315 102.007C92.5315 98.5022 93.1866 95.4358 94.4968 92.8075C95.8798 90.1062 97.6996 87.8794 99.956 86.1272C102.285 84.302 104.942 82.9148 107.926 81.9657C110.911 81.0166 114.041 80.542 117.316 80.542V72H122.011V80.542C125.287 80.542 128.38 80.9801 131.292 81.8562C134.203 82.7323 136.715 84.0465 138.825 85.7987C141.009 87.5509 142.72 89.7776 143.957 92.479C145.267 95.1803 145.922 98.3197 145.922 101.897H133.475C133.33 98.1737 132.347 95.3263 130.527 93.3551C128.781 91.3838 125.942 90.3982 122.011 90.3982V113.506C125.287 114.382 128.489 115.404 131.619 116.572C134.749 117.74 137.515 119.237 139.917 121.062C142.319 122.887 144.248 125.15 145.704 127.852C147.16 130.553 147.888 133.875 147.888 137.817C147.888 141.906 147.196 145.483 145.813 148.55C144.503 151.543 142.683 154.062 140.354 156.106C138.025 158.077 135.295 159.574 132.165 160.596C129.035 161.691 125.651 162.312 122.011 162.458V171H117.316V162.458C113.386 162.385 109.783 161.764 106.507 160.596C103.232 159.428 100.429 157.785 98.0999 155.668C95.7706 153.478 93.9509 150.813 92.6407 147.674C91.4033 144.534 90.821 140.92 90.8938 136.832H103.341ZM122.011 152.602C125.942 152.31 129.144 151.178 131.619 149.207C134.167 147.163 135.441 143.95 135.441 139.57C135.441 137.525 135.04 135.81 134.24 134.423C133.512 133.035 132.493 131.867 131.183 130.918C129.945 129.969 128.526 129.202 126.924 128.618C125.323 128.034 123.685 127.523 122.011 127.085V152.602Z" fill="#4D00B4"/>
<path d="M228.316 133.398C224.386 133.398 221.328 134.238 219.145 135.917C217.034 137.523 215.978 140.261 215.978 144.131C215.978 145.883 216.342 147.379 217.07 148.621C217.798 149.862 218.708 150.92 219.8 151.796C220.965 152.673 222.275 153.403 223.731 153.987C225.259 154.498 226.788 154.936 228.316 155.301V133.398ZM214.341 179.832C214.268 184.65 215.323 188.447 217.507 191.221C219.691 193.996 223.294 195.456 228.316 195.602V169.1C225.332 168.296 222.348 167.347 219.363 166.252C216.452 165.084 213.795 163.624 211.393 161.872C209.063 160.046 207.171 157.783 205.715 155.082C204.259 152.381 203.532 149.022 203.532 145.007C203.532 141.502 204.187 138.436 205.497 135.808C206.88 133.106 208.7 130.879 210.956 129.127C213.285 127.302 215.942 125.915 218.926 124.966C221.911 124.017 225.041 123.542 228.316 123.542V115H233.011V123.542C236.287 123.542 239.38 123.98 242.292 124.856C245.203 125.732 247.715 127.046 249.825 128.799C252.009 130.551 253.72 132.778 254.957 135.479C256.267 138.18 256.922 141.32 256.922 144.897H244.475C244.33 141.174 243.347 138.326 241.527 136.355C239.781 134.384 236.942 133.398 233.011 133.398V156.506C236.287 157.382 239.489 158.404 242.619 159.572C245.749 160.74 248.515 162.237 250.917 164.062C253.319 165.887 255.248 168.15 256.704 170.852C258.16 173.553 258.888 176.875 258.888 180.817C258.888 184.906 258.196 188.483 256.813 191.55C255.503 194.543 253.683 197.062 251.354 199.106C249.025 201.077 246.295 202.574 243.165 203.596C240.035 204.691 236.651 205.312 233.011 205.458V214H228.316V205.458C224.386 205.385 220.783 204.764 217.507 203.596C214.232 202.428 211.429 200.785 209.1 198.668C206.771 196.478 204.951 193.813 203.641 190.674C202.403 187.534 201.821 183.92 201.894 179.832H214.341ZM233.011 195.602C236.942 195.31 240.144 194.178 242.619 192.207C245.167 190.163 246.441 186.95 246.441 182.57C246.441 180.525 246.04 178.81 245.24 177.423C244.512 176.035 243.493 174.867 242.183 173.918C240.945 172.969 239.526 172.202 237.924 171.618C236.323 171.034 234.685 170.523 233.011 170.085V195.602Z" fill="#4D00B4"/>
<path d="M121.888 172.91V181.75C121.888 189.058 139.524 195 161.263 195C183.001 195 200.638 189.058 200.638 181.75V172.91C192.168 178.934 176.685 181.75 161.263 181.75C145.841 181.75 130.357 178.934 121.888 172.91ZM187.513 115.5C209.251 115.5 226.888 109.558 226.888 102.25C226.888 94.9418 209.251 89 187.513 89C165.774 89 148.138 94.9418 148.138 102.25C148.138 109.558 165.774 115.5 187.513 115.5ZM121.888 151.192V161.875C121.888 169.183 139.524 175.125 161.263 175.125C183.001 175.125 200.638 169.183 200.638 161.875V151.192C192.168 158.231 176.664 161.875 161.263 161.875C145.861 161.875 130.357 158.231 121.888 151.192ZM207.2 153.47C218.951 151.171 226.888 146.907 226.888 142V133.16C222.13 136.555 215.137 138.874 207.2 140.302V153.47ZM161.263 122.125C139.524 122.125 121.888 129.537 121.888 138.688C121.888 147.838 139.524 155.25 161.263 155.25C183.001 155.25 200.638 147.838 200.638 138.688C200.638 129.537 183.001 122.125 161.263 122.125ZM206.236 133.781C218.541 131.545 226.888 127.156 226.888 122.125V113.285C219.607 118.481 207.098 121.276 193.932 121.939C199.981 124.899 204.432 128.874 206.236 133.781Z" fill="white"/>
</svg>
