<svg xmlns="http://www.w3.org/2000/svg" width="17" height="17" viewBox="0 0 17 17" fill="none">
  <g clip-path="url(#clip0_13095_238428)">
    <path d="M15.1464 7.30281L15.9366 8.09558C16.2712 8.43126 16.2712 8.97405 15.9366 9.30616L9.02065 16.2482C8.68607 16.5839 8.14504 16.5839 7.81401 16.2482L0.894494 9.30616C0.559908 8.97048 0.559908 8.42769 0.894494 8.09558L1.68469 7.30281C2.02283 6.96356 2.57454 6.97071 2.90557 7.3171L6.99178 11.6202V1.35705C6.99178 0.8821 7.37264 0.5 7.84604 0.5H8.98506C9.45846 0.5 9.83932 0.8821 9.83932 1.35705V11.6202L13.9255 7.3171C14.2566 6.96714 14.8083 6.95999 15.1464 7.30281Z" fill="#009AFF"/>
  </g>
  <defs>
    <clipPath id="clip0_13095_238428">
      <rect width="16" height="16" fill="white" transform="translate(0.643555 0.5)"/>
    </clipPath>
  </defs>
</svg>