<svg viewBox="0 0 14 14" fill="none" xmlns="http://www.w3.org/2000/svg">
<g clip-path="url(#clip0_14494_52647)">
<path d="M2.09129 12.7461C0.447944 11.0975 0.478572 8.43913 2.13027 6.79659L8.02976 0.9297C9.27614 -0.309845 11.3021 -0.309955 12.5486 0.9297C13.783 2.15727 13.7845 4.13791 12.5486 5.36693L7.406 10.4762C6.56633 11.3111 5.19445 11.2995 4.36901 10.4489C3.57378 9.62937 3.59929 8.33047 4.40985 7.52437L8.45262 3.50936C8.62649 3.33671 8.91139 3.33376 9.08897 3.50277L9.73194 4.1147C9.90955 4.28373 9.91256 4.56073 9.73872 4.73337L5.69637 8.748C5.55766 8.88595 5.54911 9.11518 5.67815 9.24818C5.80111 9.37489 5.99441 9.37699 6.11937 9.25269L11.262 4.14349C11.8136 3.59492 11.8136 2.70179 11.2617 2.15292C10.722 1.61625 9.85664 1.61597 9.31673 2.15292L3.41721 8.01979C2.4395 8.99213 2.42443 10.566 3.38371 11.5283C4.34024 12.4879 5.88641 12.4891 6.84471 11.5362L11.6839 6.7237C11.8576 6.55091 12.1425 6.54779 12.3203 6.7167L12.9637 7.32821C13.1414 7.49711 13.1446 7.7741 12.9709 7.94689L8.13168 12.7593C6.45611 14.4256 3.74579 14.4059 2.09129 12.7461Z"/>
</g>
<defs>
<clipPath id="clip0_14494_52647">
<rect width="14" height="14" fill="white"/>
</clipPath>
</defs>
</svg>
