<svg  viewBox="0 0 350 350" fill="none" xmlns="http://www.w3.org/2000/svg">
<path fillRule="evenodd" clipRule="evenodd" d="M326.109 87.5L174.554 0L23 87.5V262.5L174.554 350L326.109 262.5V87.5ZM307.641 97.973L174.435 21.0664L41.2285 97.973V251.786L174.435 328.693L307.641 251.786V97.973Z" fill="#F0F9FF"/>
<path d="M174.435 21.0664L307.641 97.973V251.786L174.435 328.693L41.2285 251.786V97.973L174.435 21.0664Z" fill="#7E1BD4"/>
<path fillRule="evenodd" clipRule="evenodd" d="M174.554 62.3547L77.002 118.677V231.321L174.554 287.643L272.107 231.321V118.677L174.554 62.3547ZM275.107 116.945L174.554 58.8906L74.002 116.945V233.053L174.554 291.107L275.107 233.053V116.945Z" fill="#B45FFF"/>
<path d="M238.247 57.4617V231.26L174.835 195.35L110.888 231.26V58.0695L175.094 21L238.247 57.4617Z" fill="#4D00B4"/>
<path d="M230.985 53.268V227.14L229.039 226.038V52.1445L230.985 53.268Z" fill="#9013FE"/>
<path d="M120.309 52.6292V225.968L118.363 227.061V53.7527L120.309 52.6292Z" fill="#9013FE"/>
<path fillRule="evenodd" clipRule="evenodd" d="M149.657 66.9959L146.28 69.7649L147.869 65.6974L144.192 63.3412L148.552 63.5963L149.657 59.3711L150.761 63.5963L155.121 63.3412L151.444 65.6974L153.034 69.7649L149.657 66.9959ZM162.584 66.9959L159.207 69.7649L160.797 65.6974L157.12 63.3412L161.479 63.5963L162.584 59.3711L163.689 63.5963L168.048 63.3412L164.371 65.6974L165.961 69.7649L162.584 66.9959ZM172.135 69.7649L175.512 66.9959L178.889 69.7649L177.299 65.6974L180.976 63.3412L176.616 63.5963L175.512 59.3711L174.407 63.5963L170.047 63.3412L173.724 65.6974L172.135 69.7649ZM188.439 66.9959L185.062 69.7649L186.652 65.6974L182.975 63.3412L187.335 63.5963L188.439 59.3711L189.544 63.5963L193.904 63.3412L190.227 65.6974L191.817 69.7649L188.439 66.9959ZM197.99 69.7649L201.367 66.9959L204.744 69.7649L203.154 65.6974L206.831 63.3412L202.471 63.5963L201.367 59.3711L200.262 63.5963L195.902 63.3412L199.579 65.6974L197.99 69.7649Z" fill="#FCFEFF"/>
<path fillRule="evenodd" clipRule="evenodd" d="M180.315 104.18C180.315 106.747 179.736 108.223 178.799 109.059L204.699 116.787C205.408 116.175 206.331 115.803 207.344 115.803C209.579 115.803 211.391 117.608 211.391 119.835C211.391 121.454 210.432 122.846 209.05 123.488L218.114 149.563C220.988 150.02 222.888 150.694 222.888 151.586C222.888 155.244 215.724 158.21 206.888 158.21C198.051 158.21 190.888 155.244 190.888 151.586C190.888 150.638 193.034 149.936 196.214 149.48L205.308 123.316C204.473 122.831 203.83 122.058 203.514 121.132C203.208 119.863 202.498 119.062 201.382 118.729C200.048 118.331 198.741 118.286 197.282 118.235C195.439 118.172 193.352 118.1 190.661 117.297L177.502 113.371V140.19C178.527 140.922 179.197 142.115 179.197 143.467C179.197 144.363 178.9 145.189 178.403 145.859C179.74 146.85 180.609 148.431 180.609 150.219C180.609 152.382 179.338 154.245 177.502 155.121V160.721C183.478 161.032 188.03 162.643 188.03 164.584C188.03 164.616 188.029 164.649 188.026 164.682C197.672 165.513 204.331 167.284 204.331 169.334L204.378 172.194C204.378 175.043 191.547 177.329 175.69 177.329C159.833 177.329 147.002 174.996 147.002 172.147L146.908 169.334C146.908 167.317 153.356 165.57 162.752 164.723C162.747 164.676 162.745 164.63 162.745 164.584C162.745 162.675 167.151 161.085 172.984 160.737V155.212C171.046 154.376 169.689 152.456 169.689 150.219C169.689 148.432 170.559 146.85 171.895 145.859C171.399 145.189 171.101 144.364 171.101 143.467C171.101 142.034 171.854 140.779 172.984 140.064V112.022L157.977 107.544C156.978 107.246 155.517 106.455 153.955 105.609L153.955 105.609C152.163 104.639 150.239 103.598 148.732 103.148C147.688 102.836 146.616 103.062 145.516 103.826C145.304 103.998 145.074 104.148 144.83 104.276L153.874 130.295C156.882 130.753 158.888 131.439 158.888 132.355C158.888 136.014 151.724 138.98 142.888 138.98C134.051 138.98 126.888 136.014 126.888 132.355C126.888 131.467 128.775 130.794 131.634 130.337L140.758 104.088C139.645 103.369 138.907 102.123 138.907 100.704C138.907 98.4766 140.719 96.6712 142.955 96.6712C144.776 96.6712 146.315 97.8695 146.824 99.5175L170.083 106.458C169.955 105.815 169.887 105.062 169.887 104.18C169.887 100.745 171.625 96.6846 175.101 92C178.577 96.6846 180.315 100.745 180.315 104.18ZM208.25 123.762L217.17 149.425C211.541 148.671 202.966 148.648 197.154 149.355L206.084 123.665C206.481 123.795 206.904 123.867 207.344 123.867C207.656 123.867 207.958 123.828 208.25 123.762ZM132.578 130.198L141.521 104.471C141.967 104.64 142.449 104.736 142.955 104.736C143.331 104.736 143.694 104.681 144.04 104.585L152.931 130.163C147.109 129.416 138.308 129.427 132.578 130.198Z" fill="white"/>
<path d="M167.799 222.45L184.771 223.207L191.643 238.447L181.948 252.375L164.884 251.284L157.888 234.772L167.799 222.45ZM180.242 231.235L167.941 236.599L178.458 244.715L180.242 231.235ZM178.818 228.547L168.988 224.322L166.923 233.205L178.818 228.547ZM176.326 246.757L165.643 239.142L165.901 249.461L176.326 246.757ZM189.936 238.413L182.656 231.039L180.735 245.219L189.936 238.413ZM178.831 248.416L169.821 250.766L180.417 251.443L178.831 248.416ZM188.514 241.759L180.627 247.624L182.194 250.681L188.514 241.759ZM184.783 225.337L183.251 228.476L188.953 234.261L184.783 225.337ZM182.874 223.835L172.862 223.429L181.121 227.035L182.874 223.835ZM166.337 225.286L159.323 234.126L164.012 235.117L166.337 225.286ZM163.73 236.851L159.018 235.855L163.934 247.416L163.73 236.851Z" fill="white"/>
</svg>
