<svg width="16" height="16" viewBox="0 0 16 16" fill="none" xmlns="http://www.w3.org/2000/svg">
<path d="M15.0617 2.00153C13.5394 2.089 10.5139 2.40737 8.64611 3.565C8.51722 3.64487 8.44417 3.7869 8.44417 3.9354V14.1692C8.44417 14.4941 8.795 14.6994 9.09083 14.5486C11.0125 13.5693 13.7917 13.3021 15.1658 13.229C15.635 13.204 15.9997 12.8232 15.9997 12.3667V2.86496C16 2.36687 15.5733 1.97228 15.0617 2.00153ZM7.35361 3.565C5.48611 2.40737 2.46056 2.08928 0.938333 2.00153C0.426667 1.97228 0 2.36687 0 2.86496V12.367C0 12.8237 0.364722 13.2046 0.833889 13.2293C2.20861 13.3024 4.98917 13.5699 6.91083 14.5498C7.20583 14.7002 7.55556 14.4952 7.55556 14.1712V3.93034C7.55556 3.78156 7.48278 3.64515 7.35361 3.565Z" fill="#9013FE"/>
</svg>
