<svg
  fill="#000000"
  width="24px"
  height="24px"
  viewBox="8 8 48 48"
  version="1.1"
  xmlns="http://www.w3.org/2000/svg"
  xmlns:xlink="http://www.w3.org/1999/xlink"
  xml:space="preserve"
  xmlns:serif="http://www.serif.com/"
  style="fill-rule:evenodd;clip-rule:evenodd;stroke-linejoin:round;stroke-miterlimit:2;"
><g id="SVGRepo_bgCarrier" stroke-width="0" /><g
    id="SVGRepo_tracerCarrier"
    stroke-linecap="round"
    stroke-linejoin="round"
  /><g id="SVGRepo_iconCarrier"> <rect id="Icons" x="-384" y="-320" width="1280" height="800" style="fill:none;" /> <g
      id="Icons1"
      serif:id="Icons"
    > <g id="Strike"> </g> <g id="H1"> </g> <g id="H2"> </g> <g id="H3"> </g> <g id="list-ul"> </g> <g
        id="hamburger-1"
      > </g> <g id="hamburger-2"> </g> <g id="list-ol"> </g> <g id="list-task"> </g> <g id="trash"> </g> <g
        id="vertical-menu"
      > </g> <g id="horizontal-menu"> </g> <g id="sidebar-2"> </g> <g id="Pen"> </g> <g
        id="Pen1"
        serif:id="Pen"
      > </g> <g id="clock"> </g> <g id="external-link"> </g> <g id="hr"> </g> <g id="info"> </g> <g
        id="warning"
      > </g> <g id="plus-circle"> </g> <g id="minus-circle"> </g> <g id="vue"> </g> <g id="cog"> </g> <g
        id="logo"
      > </g> <g id="radio-check"> </g> <g id="eye-slash"> </g> <g id="eye"> </g> <g id="toggle-off"> </g> <g
        id="shredder"
      > </g> <g> <path
          d="M9.89,30.496c-1.14,1.122 -1.784,2.653 -1.791,4.252c-0.006,1.599 0.627,3.135 1.758,4.266c3.028,3.028 7.071,7.071 10.081,10.082c2.327,2.326 6.093,2.349 8.448,0.051c5.91,-5.768 16.235,-15.846 19.334,-18.871c0.578,-0.564 0.905,-1.338 0.905,-2.146c0,-4.228 0,-17.607 0,-17.607l-17.22,0c-0.788,0 -1.544,0.309 -2.105,0.862c-3.065,3.018 -13.447,13.239 -19.41,19.111Zm34.735,-15.973l0,11.945c0,0.811 -0.329,1.587 -0.91,2.152c-3.069,2.981 -13.093,12.718 -17.485,16.984c-1.161,1.127 -3.012,1.114 -4.157,-0.031c-2.387,-2.386 -6.296,-6.296 -8.709,-8.709c-0.562,-0.562 -0.876,-1.325 -0.872,-2.12c0.003,-0.795 0.324,-1.555 0.892,-2.112c4.455,-4.373 14.545,-14.278 17.573,-17.25c0.561,-0.551 1.316,-0.859 2.102,-0.859c3.202,0 11.566,0 11.566,0Zm-7.907,2.462c-1.751,0.015 -3.45,1.017 -4.266,2.553c-0.708,1.331 -0.75,2.987 -0.118,4.356c0.836,1.812 2.851,3.021 4.882,2.809c2.042,-0.212 3.899,-1.835 4.304,-3.896c0.296,-1.503 -0.162,-3.136 -1.213,-4.251c-0.899,-0.953 -2.18,-1.548 -3.495,-1.57c-0.031,-0.001 -0.062,-0.001 -0.094,-0.001Zm0.008,2.519c1.105,0.007 2.142,0.849 2.343,1.961c0.069,0.384 0.043,0.786 -0.09,1.154c-0.393,1.079 -1.62,1.811 -2.764,1.536c-1.139,-0.274 -1.997,-1.489 -1.802,-2.67c0.177,-1.069 1.146,-1.963 2.27,-1.981c0.014,0 0.029,0 0.043,0Z"
        /> <path
          d="M48.625,13.137l0,4.001l3.362,0l0,11.945c0,0.811 -0.328,1.587 -0.909,2.152c-3.069,2.981 -13.093,12.717 -17.485,16.983c-1.161,1.128 -3.013,1.114 -4.157,-0.03l-0.034,-0.034l-1.016,0.993c-0.663,0.646 -1.437,1.109 -2.259,1.389l1.174,1.174c2.327,2.327 6.093,2.35 8.447,0.051c5.91,-5.768 16.235,-15.845 19.335,-18.87c0.578,-0.565 0.904,-1.339 0.904,-2.147c0,-4.227 0,-17.607 0,-17.607l-7.362,0Z"
        /> </g> <g id="spinner--loading--dots-" serif:id="spinner [loading, dots]"> </g> <g id="react"> </g> <g
        id="check-selected"
      > </g> <g id="turn-off"> </g> <g id="code-block"> </g> <g id="user"> </g> <g id="coffee-bean"> </g> <g
        id="coffee-beans"
      > <g id="coffee-bean1" serif:id="coffee-bean"> </g> </g> <g id="coffee-bean-filled"> </g> <g
        id="coffee-beans-filled"
      > <g id="coffee-bean2" serif:id="coffee-bean"> </g> </g> <g id="clipboard"> </g> <g id="clipboard-paste"> </g> <g
        id="clipboard-copy"
      > </g> <g id="Layer1"> </g> </g> </g></svg>
