<svg viewBox="0 0 16 16" fill="none" xmlns="http://www.w3.org/2000/svg">
<path d="M16 7.61765C16 6.96608 15.6403 6.40331 15.1111 6.09779V1.88263C15.1111 1.64136 14.9172 1 14.2222 1C14.0244 1 13.8281 1.06563 13.6672 1.19357L11.3053 3.06939C10.1189 4.01075 8.62944 4.52941 7.11111 4.52941H1.77778C0.795833 4.52941 0 5.31939 0 6.29412V8.94118C0 9.9159 0.795833 10.7059 1.77778 10.7059H2.71389C2.67528 10.9949 2.65333 11.2888 2.65333 11.5882C2.65333 12.6848 2.91056 13.721 3.36333 14.6472C3.5075 14.942 3.82222 15.1176 4.15222 15.1176H6.21556C6.93917 15.1176 7.37361 14.2949 6.935 13.7235C6.47944 13.1301 6.20861 12.3901 6.20861 11.5882C6.20861 11.2819 6.25361 10.9874 6.33111 10.7059H7.11111C8.62944 10.7059 10.1189 11.2245 11.305 12.1659L13.6669 14.0417C13.8245 14.1669 14.0202 14.2351 14.2219 14.2353C14.9142 14.2353 15.1108 13.6072 15.1108 13.3529V9.13778C15.6403 8.83199 16 8.26921 16 7.61765ZM13.3333 11.5171L12.4153 10.7881C10.9153 9.59688 9.03111 8.94118 7.11111 8.94118V6.29412C9.03111 6.29412 10.9153 5.63842 12.4153 4.44724L13.3333 3.7182V11.5171Z"/>
</svg>
