<svg viewBox="0 0 14 15" xmlns="http://www.w3.org/2000/svg">
<g clip-path="url(#clip0_11557_149808)">
<path d="M4.92188 8.375H3.82812C3.64766 8.375 3.5 8.22734 3.5 8.04688V6.95312C3.5 6.77266 3.64766 6.625 3.82812 6.625H4.92188C5.10234 6.625 5.25 6.77266 5.25 6.95312V8.04688C5.25 8.22734 5.10234 8.375 4.92188 8.375ZM7.875 8.04688V6.95312C7.875 6.77266 7.72734 6.625 7.54688 6.625H6.45312C6.27266 6.625 6.125 6.77266 6.125 6.95312V8.04688C6.125 8.22734 6.27266 8.375 6.45312 8.375H7.54688C7.72734 8.375 7.875 8.22734 7.875 8.04688ZM10.5 8.04688V6.95312C10.5 6.77266 10.3523 6.625 10.1719 6.625H9.07812C8.89766 6.625 8.75 6.77266 8.75 6.95312V8.04688C8.75 8.22734 8.89766 8.375 9.07812 8.375H10.1719C10.3523 8.375 10.5 8.22734 10.5 8.04688ZM7.875 10.6719V9.57812C7.875 9.39766 7.72734 9.25 7.54688 9.25H6.45312C6.27266 9.25 6.125 9.39766 6.125 9.57812V10.6719C6.125 10.8523 6.27266 11 6.45312 11H7.54688C7.72734 11 7.875 10.8523 7.875 10.6719ZM5.25 10.6719V9.57812C5.25 9.39766 5.10234 9.25 4.92188 9.25H3.82812C3.64766 9.25 3.5 9.39766 3.5 9.57812V10.6719C3.5 10.8523 3.64766 11 3.82812 11H4.92188C5.10234 11 5.25 10.8523 5.25 10.6719ZM10.5 10.6719V9.57812C10.5 9.39766 10.3523 9.25 10.1719 9.25H9.07812C8.89766 9.25 8.75 9.39766 8.75 9.57812V10.6719C8.75 10.8523 8.89766 11 9.07812 11H10.1719C10.3523 11 10.5 10.8523 10.5 10.6719ZM13.125 3.5625V13.1875C13.125 13.9121 12.5371 14.5 11.8125 14.5H2.1875C1.46289 14.5 0.875 13.9121 0.875 13.1875V3.5625C0.875 2.83789 1.46289 2.25 2.1875 2.25H3.5V0.828125C3.5 0.647656 3.64766 0.5 3.82812 0.5H4.92188C5.10234 0.5 5.25 0.647656 5.25 0.828125V2.25H8.75V0.828125C8.75 0.647656 8.89766 0.5 9.07812 0.5H10.1719C10.3523 0.5 10.5 0.647656 10.5 0.828125V2.25H11.8125C12.5371 2.25 13.125 2.83789 13.125 3.5625ZM11.8125 13.0234V4.875H2.1875V13.0234C2.1875 13.1137 2.26133 13.1875 2.35156 13.1875H11.6484C11.7387 13.1875 11.8125 13.1137 11.8125 13.0234Z" />
</g>
<defs>
<clipPath id="clip0_11557_149808">
<rect transform="translate(0 0.5)"/>
</clipPath>
</defs>
</svg>
