<svg width="17" height="16" viewBox="0 0 17 16" fill="none" xmlns="http://www.w3.org/2000/svg">
<g clip-path="url(#clip0_10896_604)">
<path d="M4.84341 1.75V4.25C4.84341 4.66422 4.50763 5 4.09341 5H0.926758C0.512539 5 0.176758 4.66422 0.176758 4.25V1.75C0.176758 1.33578 0.512539 1 0.926758 1H4.09341C4.50763 1 4.84341 1.33578 4.84341 1.75ZM10.5101 9.25V6.75C10.5101 6.33578 10.1743 6 9.7601 6H6.59341C6.17919 6 5.84341 6.33578 5.84341 6.75V9.25C5.84341 9.66422 6.17919 10 6.59341 10H9.76007C10.1743 10 10.5101 9.66422 10.5101 9.25ZM11.5101 1.75V4.25C11.5101 4.66422 11.8459 5 12.2601 5H15.4268C15.841 5 16.1768 4.66422 16.1768 4.25V1.75C16.1768 1.33578 15.841 1 15.4268 1H12.2601C11.8459 1 11.5101 1.33578 11.5101 1.75ZM10.5101 4.25V1.75C10.5101 1.33578 10.1743 1 9.7601 1H6.59341C6.17919 1 5.84341 1.33578 5.84341 1.75V4.25C5.84341 4.66422 6.17919 5 6.59341 5H9.76007C10.1743 5 10.5101 4.66422 10.5101 4.25ZM4.09341 6H0.926758C0.512539 6 0.176758 6.33578 0.176758 6.75V9.25C0.176758 9.66422 0.512539 10 0.926758 10H4.09341C4.50763 10 4.84341 9.66422 4.84341 9.25V6.75C4.84341 6.33578 4.50763 6 4.09341 6ZM0.176758 11.75V14.25C0.176758 14.6642 0.512539 15 0.926758 15H4.09341C4.50763 15 4.84341 14.6642 4.84341 14.25V11.75C4.84341 11.3358 4.50763 11 4.09341 11H0.926758C0.512539 11 0.176758 11.3358 0.176758 11.75ZM12.2601 10H15.4268C15.841 10 16.1768 9.66422 16.1768 9.25V6.75C16.1768 6.33578 15.841 6 15.4268 6H12.2601C11.8459 6 11.5101 6.33578 11.5101 6.75V9.25C11.5101 9.66422 11.8459 10 12.2601 10ZM12.2601 15H15.4268C15.841 15 16.1768 14.6642 16.1768 14.25V11.75C16.1768 11.3358 15.841 11 15.4268 11H12.2601C11.8459 11 11.5101 11.3358 11.5101 11.75V14.25C11.5101 14.6642 11.8459 15 12.2601 15ZM5.84341 11.75V14.25C5.84341 14.6642 6.17919 15 6.59341 15H9.76007C10.1743 15 10.5101 14.6642 10.5101 14.25V11.75C10.5101 11.3358 10.1743 11 9.76007 11H6.59341C6.17919 11 5.84341 11.3358 5.84341 11.75Z" />
</g>
<defs>
<clipPath id="clip0_10896_604">
<rect width="16" height="16" fill="white" transform="translate(0.176758)"/>
</clipPath>
</defs>
</svg>
