<svg xmlns="http://www.w3.org/2000/svg" width="80" height="80" viewBox="0 0 80 80" fill="none">
  <circle cx="40" cy="40" r="39.5" fill="#2A1260" stroke="#BECCE5"/>
  <path d="M47.0508 17C48.2809 17 49.443 17.5664 50.2012 18.5352L57.1504 27.4141C57.701 28.1177 57.9999 28.9855 58 29.8789V59C58 61.2091 56.2091 63 54 63H26L25.7939 62.9951C23.6806 62.8879 22 61.14 22 59V21C22 18.7909 23.7909 17 26 17H47.0508ZM26 19C24.8954 19 24 19.8954 24 21V59C24 60.1046 24.8954 61 26 61H54C55.1046 61 56 60.1046 56 59V29.8789C56 29.7509 55.986 29.6243 55.9619 29.5H47V19H26ZM51.5 49.5H29V46.5H51.5V49.5ZM51.5 39.5H29V36.5H51.5V39.5ZM48 28.5H55.4609L48.626 19.7676C48.454 19.5478 48.2394 19.3715 48 19.2422V28.5Z" fill="white"/>
</svg>