<svg width="15" height="15" viewBox="0 0 15 15" fill="none" xmlns="http://www.w3.org/2000/svg">
<g clip-path="url(#clip0_21837_70275)">
<g clip-path="url(#clip1_21837_70275)">
<path d="M11.3344 10.125H11.9469C12.1219 10.125 12.2969 9.95 12.2969 9.775V3.475C12.2969 3.3 12.1219 3.125 11.9469 3.125H11.3344C11.1594 3.125 10.9844 3.3 10.9844 3.475V9.775C10.9844 9.95 11.1594 10.125 11.3344 10.125ZM6.08437 10.125H6.69688C6.87187 10.125 7.04688 9.95 7.04688 9.775V4.35C7.04688 4.175 6.87187 4 6.69688 4H6.08437C5.90938 4 5.73438 4.175 5.73438 4.35V9.775C5.73438 9.95 5.90938 10.125 6.08437 10.125ZM8.70937 10.125H9.32188C9.49688 10.125 9.67188 9.95 9.67188 9.775V6.1C9.67188 5.925 9.49688 5.75 9.32188 5.75H8.70937C8.53437 5.75 8.35938 5.925 8.35938 6.1V9.775C8.35938 9.95 8.53437 10.125 8.70937 10.125ZM14.0469 11.4375H1.79688V2.6875C1.79688 2.44578 1.60109 2.25 1.35938 2.25H0.921875C0.680156 2.25 0.484375 2.44578 0.484375 2.6875V11.875C0.484375 12.3582 0.876211 12.75 1.35938 12.75H14.0469C14.2886 12.75 14.4844 12.5542 14.4844 12.3125V11.875C14.4844 11.6333 14.2886 11.4375 14.0469 11.4375ZM3.45938 10.125H4.07187C4.24687 10.125 4.42188 9.95 4.42188 9.775V7.85C4.42188 7.675 4.24687 7.5 4.07187 7.5H3.45938C3.28438 7.5 3.10938 7.675 3.10938 7.85V9.775C3.10938 9.95 3.28438 10.125 3.45938 10.125Z"/>
</g>
</g>
<defs>
<clipPath id="clip0_21837_70275">
<rect width="14" height="14" fill="white" transform="translate(0.484375 0.5)"/>
</clipPath>
<clipPath id="clip1_21837_70275">
<rect width="14" height="14" fill="white" transform="translate(0.484375 0.5)"/>
</clipPath>
</defs>
</svg>
