<svg viewBox="0 0 16 17" fill="none" xmlns="http://www.w3.org/2000/svg">
<g clip-path="url(#clip0_14018_54599)">
<path d="M4.50207 7C3.94895 7 3.50207 7.44688 3.50207 8C3.50207 8.55312 3.94895 9 4.50207 9C5.0552 9 5.50207 8.55312 5.50207 8C5.50207 7.44688 5.0552 7 4.50207 7ZM8.00207 7C7.44895 7 7.00207 7.44688 7.00207 8C7.00207 8.55312 7.44895 9 8.00207 9C8.5552 9 9.00207 8.55312 9.00207 8C9.00207 7.44688 8.5552 7 8.00207 7ZM11.5021 7C10.9489 7 10.5021 7.44688 10.5021 8C10.5021 8.55312 10.9489 9 11.5021 9C12.0552 9 12.5021 8.55312 12.5021 8C12.5021 7.44688 12.0552 7 11.5021 7ZM8.00207 1.5C3.58332 1.5 0.00207401 4.40937 0.00207401 8C0.00207401 9.4875 0.623949 10.85 1.6552 11.9469C1.18957 13.1781 0.220824 14.2219 0.205199 14.2344C-0.00105099 14.4531 -0.057301 14.7719 0.061449 15.0469C0.180199 15.3219 0.452074 15.5 0.752074 15.5C2.67395 15.5 4.18957 14.6969 5.09895 14.0531C6.00207 14.3375 6.97707 14.5 8.00207 14.5C12.4208 14.5 16.0021 11.5906 16.0021 8C16.0021 4.40937 12.4208 1.5 8.00207 1.5ZM8.00207 13C7.1677 13 6.3427 12.8719 5.55207 12.6219L4.8427 12.3969L4.23332 12.8281C3.78645 13.1438 3.17395 13.4969 2.43645 13.7344C2.66457 13.3562 2.88645 12.9312 3.05832 12.4781L3.38957 11.6L2.74582 10.9187C2.1802 10.3156 1.50207 9.31875 1.50207 8C1.50207 5.24375 4.4177 3 8.00207 3C11.5864 3 14.5021 5.24375 14.5021 8C14.5021 10.7563 11.5864 13 8.00207 13Z"/>
</g>
<defs>
<clipPath id="clip0_14018_54599">
<rect transform="translate(0 0.5)"/>
</clipPath>
</defs>
</svg>
