<svg width="16" height="17" viewBox="0 0 16 17" fill="none" xmlns="http://www.w3.org/2000/svg">
<g clip-path="url(#clip0_13289_179292)">
<path fill-rule="evenodd" clip-rule="evenodd" d="M0 8.5C0 4.08214 3.58214 0.5 8 0.5C12.4179 0.5 16 4.08214 16 8.5C16 12.9179 12.4179 16.5 8 16.5C3.58214 16.5 0 12.9179 0 8.5ZM1.35714 8.5C1.35714 12.1679 4.33214 15.1429 8 15.1429C11.6679 15.1429 14.6429 12.1679 14.6429 8.5C14.6429 4.83214 11.6679 1.85714 8 1.85714C4.33214 1.85714 1.35714 4.83214 1.35714 8.5ZM10.5017 5.66016H11.3392C11.4553 5.66016 11.5232 5.7923 11.4535 5.88694L7.6928 11.1012C7.64024 11.1746 7.57095 11.2344 7.49067 11.2756C7.4104 11.3168 7.32145 11.3384 7.2312 11.3384C7.14095 11.3384 7.052 11.3168 6.97172 11.2756C6.89144 11.2344 6.82215 11.1746 6.76959 11.1012L4.54459 8.01551C4.47673 7.92087 4.54459 7.78873 4.66066 7.78873H5.49816C5.68209 7.78873 5.85352 7.87801 5.96066 8.02623L7.23209 9.79051L10.0392 5.89766C10.1464 5.74766 10.3196 5.66016 10.5017 5.66016Z" fill="#00C42B"/>
</g>
<defs>
<clipPath id="clip0_13289_179292">
<rect width="16" height="16" fill="white" transform="translate(0 0.5)"/>
</clipPath>
</defs>
</svg>
