<svg xmlns="http://www.w3.org/2000/svg" width="16" height="17" viewBox="0 0 16 17" fill="none">
  <g clip-path="url(#clip0_19668_84870)">
    <path d="M8 0.5C3.58065 0.5 0 4.08065 0 8.5C0 12.9194 3.58065 16.5 8 16.5C12.4194 16.5 16 12.9194 16 8.5C16 4.08065 12.4194 0.5 8 0.5ZM8 14.9516C4.43548 14.9516 1.54839 12.0645 1.54839 8.5C1.54839 4.93548 4.43548 2.04839 8 2.04839C11.5645 2.04839 14.4516 4.93548 14.4516 8.5C14.4516 12.0645 11.5645 14.9516 8 14.9516ZM9.99355 11.5839L7.25484 9.59355C7.15484 9.51935 7.09677 9.40323 7.09677 9.28065V3.98387C7.09677 3.77097 7.27097 3.59677 7.48387 3.59677H8.51613C8.72903 3.59677 8.90323 3.77097 8.90323 3.98387V8.55484L11.0581 10.1226C11.2323 10.2484 11.2677 10.4903 11.1419 10.6645L10.5355 11.5C10.4097 11.671 10.1677 11.7097 9.99355 11.5839Z"/>
  </g>
  <defs>
    <clipPath id="clip0_19668_84870">
      <rect width="16" height="16" fill="white" transform="translate(0 0.5)"/>
    </clipPath>
  </defs>
</svg>