<svg width="16" height="16" viewBox="0 0 16 16" fill="none" xmlns="http://www.w3.org/2000/svg">
<path fill-rule="evenodd" clip-rule="evenodd" d="M0 8C0 3.58214 3.58214 0 8 0C12.4179 0 16 3.58214 16 8C16 12.4179 12.4179 16 8 16C3.58214 16 0 12.4179 0 8ZM1.35714 8C1.35714 11.6679 4.33214 14.6429 8 14.6429C11.6679 14.6429 14.6429 11.6679 14.6429 8C14.6429 4.33214 11.6679 1.35714 8 1.35714C4.33214 1.35714 1.35714 4.33214 1.35714 8ZM10.9533 5.03302C11.0319 5.03302 11.0962 5.0973 11.0962 5.17587C11.0962 5.2098 11.0855 5.24373 11.064 5.26873L8.74082 8.03659L11.0605 10.8027C11.0819 10.8294 11.0944 10.8616 11.0944 10.8955C11.0944 10.9759 11.0301 11.0384 10.9515 11.0384L9.77297 11.033L7.99975 8.91873L6.22654 11.0348L5.04618 11.0402C4.96761 11.0402 4.90332 10.9759 4.90332 10.8973C4.9037 10.8634 4.91567 10.8306 4.93725 10.8044L7.26046 8.03837L4.93725 5.27052C4.91582 5.24373 4.90332 5.21159 4.90332 5.17766C4.90332 5.0973 4.96761 5.0348 5.04618 5.0348L6.22654 5.04016L7.99975 7.15445L9.77475 5.03837L10.9533 5.03302Z" fill="#9013FE"/>
</svg>
