<svg width="16" height="16" viewBox="0 0 16 16" fill="none" xmlns="http://www.w3.org/2000/svg">
<path d="M14.6759 11.9489L10.5399 7.81284L14.631 3.72172C15.133 3.21971 15.1285 2.40099 14.621 1.89346L13.7019 0.974331C13.1943 0.4668 12.3756 0.462326 11.8736 0.96434L7.78249 5.05546L3.64641 0.919383C3.13888 0.411852 2.32016 0.407378 1.81815 0.909392L0.90901 1.81853C0.406995 2.32054 0.411469 3.13926 0.919 3.64679L5.05507 7.78287L0.963958 11.874C0.461943 12.376 0.466417 13.1947 0.973948 13.7023L1.89308 14.6214C2.40061 15.1289 3.21933 15.1334 3.72134 14.6314L7.81246 10.5403L11.9485 14.6763C12.4561 15.1839 13.2748 15.1883 13.7768 14.6863L14.6859 13.7772C15.1879 13.2752 15.1835 12.4564 14.6759 11.9489Z"/>
</svg>
