<svg xmlns="http://www.w3.org/2000/svg" width="14" height="14" viewBox="0 0 14 14">
  <path d="M12.9029 11.0657L9.22641 7.38919L12.863 3.75264C13.3092 3.30641 13.3052 2.57866 12.8541 2.12752L12.0371 1.31052C11.5859 0.859377 10.8582 0.8554 10.412 1.30164L6.7754 4.93818L3.09889 1.26167C2.64776 0.810535 1.92 0.806558 1.47377 1.25279L0.665647 2.06092C0.219412 2.50715 0.223389 3.2349 0.674528 3.68604L4.35104 7.36255L0.714489 10.9991C0.268254 11.4453 0.272231 12.1731 0.72337 12.6242L1.54037 13.4412C1.99151 13.8924 2.71926 13.8963 3.1655 13.4501L6.80205 9.81356L10.4786 13.4901C10.9297 13.9412 11.6574 13.9452 12.1037 13.4989L12.9118 12.6908C13.358 12.2446 13.3541 11.5168 12.9029 11.0657Z" />
</svg>