<svg width="48" height="48" viewBox="0 0 48 48" fill="none" xmlns="http://www.w3.org/2000/svg">
<defs>
<linearGradient id="gradientcurate" x1="23.7907" y1="45.796" x2="23.7907" y2="2.12909" gradientUnits="userSpaceOnUse">
<stop stop-color="#9013FE"/>
<stop offset="1" stop-color="#4D00B4"/>
</linearGradient>
</defs>
<path fill-rule="evenodd" clip-rule="evenodd" d="M24.2665 0.117778L44.219 11.6782C44.4901 11.8352 44.6571 12.1255 44.6571 12.4397V35.5603C44.6571 35.8745 44.4901 36.1648 44.219 36.3218L24.2665 47.8822C23.9955 48.0393 23.6616 48.0393 23.3905 47.8822L3.43808 36.3218C3.167 36.1648 3 35.8745 3 35.5603V12.4397C3 12.1255 3.167 11.8352 3.43808 11.6782L23.3905 0.117778C23.6616 -0.0392594 23.9955 -0.0392594 24.2665 0.117778Z" fill="#AE52FF"/>
<path fill-rule="evenodd" clip-rule="evenodd" d="M24.2287 45.6782L42.3115 35.2011C42.5826 35.044 42.7496 34.7537 42.7496 34.4396V13.4855C42.7496 13.1714 42.5826 12.8811 42.3115 12.724L24.2287 2.24687C23.9576 2.08984 23.6237 2.08984 23.3527 2.24687L5.26987 12.724C4.99879 12.8811 4.83179 13.1714 4.83179 13.4855V34.4396C4.83179 34.7537 4.99879 35.044 5.26987 35.2011L23.3527 45.6782C23.6237 45.8353 23.9576 45.8353 24.2287 45.6782Z" fill="url(#gradientcurate)"/>
<path d="M35.8349 12.3307H11.7463V13.699H35.8349V12.3307Z" fill="#9013FE"/>
<path d="M35.8349 16.6635H11.7463V18.0318H35.8349V16.6635Z" fill="#9013FE"/>
<path d="M35.8349 20.9973H11.7463V22.3657H35.8349V20.9973Z" fill="#9013FE"/>
<path d="M35.8349 25.3302H11.7463V26.6985H35.8349V25.3302Z" fill="#9013FE"/>
<path d="M35.8349 29.6641H11.7463V31.0324H35.8349V29.6641Z" fill="#9013FE"/>
<path fill-rule="evenodd" clip-rule="evenodd" d="M23.8421 46.0261L4.84072 35.2745C4.74345 35.2195 4.70905 35.0957 4.76389 34.9981C4.78196 34.9659 4.80843 34.9393 4.84045 34.9211L23.9422 24.0753L42.7539 34.903C42.8508 34.9588 42.8842 35.0828 42.8287 35.18C42.8108 35.2112 42.785 35.2372 42.7539 35.2551L24.042 46.0254C23.9801 46.061 23.9042 46.0613 23.8421 46.0261Z" fill="#4D00B4"/>
<path d="M13.7457 33.7895L29.123 43.2158C29.3015 43.3252 29.5346 43.2687 29.6436 43.0896C29.7527 42.9104 29.6963 42.6765 29.5178 42.5671L14.1406 33.1407C13.9621 33.0313 13.729 33.0878 13.6199 33.267C13.5109 33.4461 13.5672 33.6801 13.7457 33.7895Z" fill="#9013FE"/>
<path d="M22.9873 28.4675L38.3646 37.8939C38.5431 38.0033 38.7762 37.9468 38.8853 37.7676C38.9943 37.5885 38.938 37.3545 38.7595 37.2451L23.3821 27.8187C23.2036 27.7093 22.9705 27.7658 22.8615 27.945C22.7525 28.1241 22.8088 28.358 22.9873 28.4675Z" fill="#9013FE"/>
<path fill-rule="evenodd" clip-rule="evenodd" d="M23.9254 32.778L30.9279 28.722C31.0113 28.6737 31.0627 28.5843 31.0627 28.4877V13.0504C31.0627 12.9537 31.0113 12.8644 30.9279 12.8161L23.9254 8.76007C23.842 8.71177 23.7393 8.71177 23.656 8.76007L16.6535 12.8161C16.5701 12.8644 16.5187 12.9537 16.5187 13.0504V28.4877C16.5187 28.5843 16.5701 28.6737 16.6535 28.722L23.656 32.778C23.7393 32.8263 23.842 32.8263 23.9254 32.778Z" fill="white"/>
<path d="M22.5988 18.3067L20.26 15.9544C20.1195 15.8131 20.1195 15.584 20.26 15.4426L20.7689 14.9308C20.9094 14.7895 21.1372 14.7895 21.2777 14.9308L22.8533 16.5154L26.2278 13.1214C26.3684 12.9801 26.5962 12.9801 26.7367 13.1214L27.2455 13.6332C27.3861 13.7745 27.3861 14.0036 27.2455 14.145L23.1077 18.3067C22.9672 18.4481 22.7393 18.4481 22.5988 18.3067Z" fill="#4D00B4"/>
<path fill-rule="evenodd" clip-rule="evenodd" d="M14.8732 37.4152L20.2126 34.3215C20.296 34.2732 20.3474 34.1839 20.3474 34.0872V27.9C20.3474 27.8034 20.296 27.7141 20.2126 27.6657L14.8732 24.5721C14.7898 24.5238 14.6871 24.5238 14.6037 24.5721L9.26431 27.6657C9.1809 27.7141 9.12952 27.8034 9.12952 27.9V34.0872C9.12952 34.1839 9.1809 34.2732 9.26431 34.3215L14.6037 37.4152C14.6871 37.4635 14.7898 37.4635 14.8732 37.4152Z" fill="#EBD4FF"/>
<path d="M14.7385 33.6159C16.1818 33.6159 17.3519 32.4417 17.3519 30.9933C17.3519 29.5448 16.1818 28.3706 14.7385 28.3706C13.2952 28.3706 12.1251 29.5448 12.1251 30.9933C12.1251 32.4417 13.2952 33.6159 14.7385 33.6159ZM14.7385 32.7037C13.7972 32.7037 13.0341 31.9379 13.0341 30.9933C13.0341 30.0486 13.7972 29.2828 14.7385 29.2828C15.6798 29.2828 16.4429 30.0486 16.4429 30.9933C16.4429 31.9379 15.6798 32.7037 14.7385 32.7037Z" fill="#9013FE"/>
<path d="M29.775 32.5525C30.026 32.5525 30.2295 32.3483 30.2295 32.0964C30.2295 31.8445 30.026 31.6403 29.775 31.6403C29.5239 31.6403 29.3204 31.8445 29.3204 32.0964C29.3204 32.3483 29.5239 32.5525 29.775 32.5525Z" fill="white"/>
<path d="M30.9112 33.2363C31.1622 33.2363 31.3657 33.0321 31.3657 32.7802C31.3657 32.5283 31.1622 32.3241 30.9112 32.3241C30.6602 32.3241 30.4567 32.5283 30.4567 32.7802C30.4567 33.0321 30.6602 33.2363 30.9112 33.2363Z" fill="white"/>
<path d="M32.0474 33.92C32.2984 33.92 32.5019 33.7158 32.5019 33.4639C32.5019 33.212 32.2984 33.0078 32.0474 33.0078C31.7964 33.0078 31.5929 33.212 31.5929 33.4639C31.5929 33.7158 31.7964 33.92 32.0474 33.92Z" fill="white"/>
<path d="M36.441 36.6571C36.692 36.6571 36.8955 36.4529 36.8955 36.201C36.8955 35.9491 36.692 35.7449 36.441 35.7449C36.1899 35.7449 35.9865 35.9491 35.9865 36.201C35.9865 36.4529 36.1899 36.6571 36.441 36.6571Z" fill="white"/>
<path d="M19.3213 37.1136C19.5723 37.1136 19.7758 36.9094 19.7758 36.6575C19.7758 36.4056 19.5723 36.2014 19.3213 36.2014C19.0703 36.2014 18.8668 36.4056 18.8668 36.6575C18.8668 36.9094 19.0703 37.1136 19.3213 37.1136Z" fill="white"/>
<path d="M23.1847 39.5454C23.4357 39.5454 23.6392 39.3412 23.6392 39.0893C23.6392 38.8374 23.4357 38.6332 23.1847 38.6332C22.9337 38.6332 22.7302 38.8374 22.7302 39.0893C22.7302 39.3412 22.9337 39.5454 23.1847 39.5454Z" fill="white"/>
<path d="M24.3208 40.2301C24.5718 40.2301 24.7753 40.0259 24.7753 39.774C24.7753 39.5221 24.5718 39.3179 24.3208 39.3179C24.0698 39.3179 23.8663 39.5221 23.8663 39.774C23.8663 40.0259 24.0698 40.2301 24.3208 40.2301Z" fill="white"/>

</svg>
