<svg viewBox="0 0 14 15" fill="none" xmlns="http://www.w3.org/2000/svg">
<path d="M11.7841 1.375H2.69318C1.68807 1.375 0.875 2.15758 0.875 3.125V11.875C0.875 12.8424 1.68807 13.625 2.69318 13.625H11.7841C12.7892 13.625 13.6023 12.8424 13.6023 11.875V3.125C13.6023 2.15758 12.7898 1.375 11.7841 1.375ZM4.51136 5.75C4.01136 5.75 3.60227 5.35625 3.60227 4.875C3.60227 4.39375 4.0108 4 4.51136 4C5.01193 4 5.42045 4.3932 5.42045 4.875C5.42045 5.3568 5.01136 5.75 4.51136 5.75ZM9.96591 11C9.46534 11 9.05682 10.6068 9.05682 10.125C9.05682 9.6432 9.46534 9.25 9.96591 9.25C10.4665 9.25 10.875 9.6432 10.875 10.125C10.875 10.6068 10.4659 11 9.96591 11Z"/>
</svg>
