<svg height="800px" width="800px" version="1.1" id="_x32_" xmlns="http://www.w3.org/2000/svg" xmlns:xlink="http://www.w3.org/1999/xlink" 
	 viewBox="0 0 512 512"  xml:space="preserve">
<g>
	<path class="st0" d="M454.609,111.204L280.557,6.804C272.992,2.268,264.503,0,255.999,0c-8.507,0-16.995,2.268-24.557,6.796
		L57.391,111.204c-5.346,3.202-9.917,7.369-13.556,12.192l207.904,124.708c2.622,1.575,5.9,1.575,8.519,0L468.16,123.396
		C464.524,118.573,459.951,114.406,454.609,111.204z M157.711,130.313c-10.96,7.611-28.456,7.422-39.081-0.452
		c-10.618-7.859-10.342-20.413,0.618-28.031c10.964-7.626,28.46-7.422,39.081,0.438C168.95,110.134,168.674,122.68,157.711,130.313z
		 M274.159,131.021c-10.594,7.362-27.496,7.166-37.762-0.429c-10.263-7.596-9.992-19.727,0.599-27.089
		c10.591-7.362,27.492-7.174,37.759,0.43C285.018,111.528,284.75,123.659,274.159,131.021z M391.908,132.702
		c-10.964,7.618-28.461,7.414-39.085-0.444c-10.617-7.86-10.343-20.42,0.621-28.046c10.957-7.61,28.456-7.422,39.078,0.452
		C403.147,112.523,402.868,125.076,391.908,132.702z"/>
	<path class="st0" d="M246.136,258.366L38.007,133.523c-2.46,5.802-3.798,12.117-3.798,18.62v208.084
		c0,16.773,8.797,32.311,23.182,40.946l174.051,104.392c5.829,3.497,12.204,5.629,18.714,6.435V265.464
		C250.156,262.556,248.63,259.858,246.136,258.366z M75.845,369.736c-12.056-6.57-21.829-21.671-21.829-33.727
		c0-12.056,9.773-16.502,21.829-9.932c12.056,6.571,21.826,21.671,21.826,33.728C97.671,371.861,87.901,376.307,75.845,369.736z
		 M75.845,247.87c-12.056-6.579-21.829-21.679-21.829-33.728c0-12.056,9.773-16.502,21.829-9.931
		c12.056,6.57,21.826,21.671,21.826,33.728C97.671,249.987,87.901,254.44,75.845,247.87z M197.715,436.158
		c-12.052-6.57-21.826-21.671-21.826-33.728c0-12.048,9.773-16.494,21.826-9.924c12.056,6.571,21.826,21.671,21.826,33.72
		C219.541,438.284,209.771,442.729,197.715,436.158z M197.715,314.292c-12.052-6.571-21.826-21.671-21.826-33.728
		s9.773-16.502,21.826-9.931c12.056,6.57,21.826,21.671,21.826,33.727C219.541,316.417,209.771,320.862,197.715,314.292z"/>
	<path class="st0" d="M473.993,133.523l-208.13,124.843c-2.494,1.492-4.02,4.19-4.02,7.099V512
		c6.511-0.806,12.886-2.938,18.714-6.435l174.052-104.392c14.38-8.635,23.182-24.173,23.182-40.946V152.142
		C477.791,145.64,476.453,139.325,473.993,133.523z M370.478,355.11c-19.287,10.512-34.922,3.398-34.922-15.892
		c0-19.282,15.635-43.447,34.922-53.951c19.293-10.519,34.925-3.406,34.925,15.884C405.403,320.434,389.771,344.598,370.478,355.11z
		"/>
</g>
</svg>