<svg  viewBox="0 0 275 275" fill="none" xmlns="http://www.w3.org/2000/svg">
<path fill-rule="evenodd" clip-rule="evenodd" d="M256.227 68.75L137.149 0L18.0703 68.75V206.25L137.149 275L256.227 206.25V68.75ZM241.717 76.9788L137.055 16.5522L32.3927 76.9788V197.832L137.055 258.259L241.717 197.832V76.9788Z" fill="#F0F9FF"/>
<path d="M137.057 16.5508L241.719 76.9774V197.831L137.057 258.257L32.3945 197.831V76.9774L137.057 16.5508Z" fill="#7E1BD4"/>
<path fill-rule="evenodd" clip-rule="evenodd" d="M137.15 48.9913L60.5017 93.2443V181.75L137.15 226.003L213.799 181.75V93.2443L137.15 48.9913ZM216.156 91.8834L137.15 46.2695L58.1445 91.8834V183.111L137.15 228.725L216.156 183.111V91.8834Z" fill="#B45FFF"/>
<path d="M187.193 45.1485V181.704L137.369 153.489L87.125 181.704V45.626L137.573 16.5L187.193 45.1485Z" fill="#4D00B4"/>
<path d="M181.489 41.8515V178.465L179.96 177.599V40.9688L181.489 41.8515Z" fill="#9013FE"/>
<path d="M94.529 41.3496V177.545L93 178.403V42.2323L94.529 41.3496Z" fill="#9013FE"/>
<path fill-rule="evenodd" clip-rule="evenodd" d="M117.586 52.6394L114.933 54.815L116.182 51.6191L113.293 49.7678L116.718 49.9682L117.586 46.6484L118.454 49.9682L121.88 49.7678L118.991 51.6191L120.24 54.815L117.586 52.6394ZM127.744 52.6394L125.09 54.815L126.339 51.6191L123.45 49.7678L126.876 49.9682L127.744 46.6484L128.611 49.9682L132.037 49.7678L129.148 51.6191L130.397 54.815L127.744 52.6394ZM135.248 54.815L137.901 52.6394L140.554 54.815L139.305 51.6191L142.194 49.7678L138.769 49.9682L137.901 46.6484L137.033 49.9682L133.608 49.7678L136.497 51.6191L135.248 54.815ZM148.059 52.6394L145.405 54.815L146.654 51.6191L143.765 49.7678L147.191 49.9682L148.059 46.6484L148.926 49.9682L152.352 49.7678L149.463 51.6191L150.712 54.815L148.059 52.6394ZM155.562 54.815L158.216 52.6394L160.869 54.815L159.62 51.6191L162.509 49.7678L159.084 49.9682L158.216 46.6484L157.348 49.9682L153.922 49.7678L156.811 51.6191L155.562 54.815Z" fill="#FCFEFF"/>
<path fill-rule="evenodd" clip-rule="evenodd" d="M141.678 81.8553C141.678 83.8718 141.223 85.0319 140.487 85.6885L160.836 91.7608C161.394 91.2802 162.119 90.9873 162.915 90.9873C164.671 90.9873 166.095 92.4058 166.095 94.1556C166.095 95.4275 165.341 96.5213 164.255 97.0255L171.377 117.513C173.635 117.872 175.128 118.402 175.128 119.102C175.128 121.977 169.499 124.307 162.556 124.307C155.613 124.307 149.985 121.977 149.985 119.102C149.985 118.358 151.671 117.807 154.17 117.448L161.315 96.8909C160.659 96.5096 160.154 95.9021 159.905 95.1747C159.666 94.1774 159.107 93.548 158.23 93.2863C157.182 92.9736 156.155 92.9382 155.009 92.8987C153.561 92.8488 151.922 92.7924 149.807 92.1613L139.468 89.0763V110.149C140.273 110.724 140.799 111.661 140.799 112.723C140.799 113.428 140.566 114.076 140.175 114.603C141.226 115.382 141.909 116.624 141.909 118.029C141.909 119.729 140.91 121.192 139.468 121.88V126.28C144.163 126.525 147.74 127.791 147.74 129.315C147.74 129.341 147.739 129.367 147.737 129.392C155.315 130.046 160.548 131.437 160.548 133.048L160.585 135.295C160.585 137.533 150.503 139.329 138.044 139.329C125.585 139.329 115.503 137.496 115.503 135.258L115.43 133.048C115.43 131.462 120.496 130.09 127.879 129.424C127.875 129.388 127.873 129.352 127.873 129.315C127.873 127.815 131.335 126.566 135.918 126.293V121.951C134.395 121.295 133.329 119.787 133.329 118.029C133.329 116.625 134.012 115.382 135.062 114.603C134.672 114.077 134.438 113.428 134.438 112.724C134.438 111.598 135.03 110.612 135.918 110.05V88.017L124.127 84.4984C123.342 84.2643 122.193 83.6424 120.966 82.978L120.966 82.978C119.558 82.2159 118.047 81.3977 116.863 81.0443C116.042 80.7994 115.2 80.9769 114.336 81.5767C114.169 81.7122 113.989 81.8301 113.797 81.9302L120.903 102.374C123.266 102.734 124.842 103.273 124.842 103.993C124.842 106.867 119.214 109.198 112.271 109.198C105.328 109.198 99.6992 106.867 99.6992 103.993C99.6992 103.295 101.182 102.766 103.428 102.407L110.597 81.7825C109.723 81.218 109.143 80.2392 109.143 79.1237C109.143 77.3739 110.567 75.9554 112.323 75.9554C113.754 75.9554 114.964 76.8969 115.363 78.1918L133.638 83.645C133.538 83.14 133.484 82.5482 133.484 81.8553C133.484 79.1559 134.85 75.9659 137.581 72.2852C140.312 75.9659 141.678 79.1559 141.678 81.8553ZM163.626 97.241L170.635 117.405C166.213 116.813 159.475 116.794 154.909 117.35L161.925 97.165C162.237 97.2667 162.569 97.3235 162.915 97.3235C163.16 97.3235 163.397 97.2932 163.626 97.241ZM104.17 102.298L111.197 82.0838C111.548 82.2162 111.926 82.2921 112.323 82.2921C112.619 82.2921 112.904 82.2487 113.176 82.1736L120.162 102.271C115.587 101.683 108.672 101.692 104.17 102.298Z" fill="white"/>
<path d="M131.842 174.781L145.178 175.376L150.577 187.35L142.96 198.294L129.552 197.436L124.055 184.463L131.842 174.781ZM141.619 181.683L131.954 185.898L140.217 192.275L141.619 181.683ZM140.5 179.571L132.776 176.252L131.154 183.231L140.5 179.571ZM138.542 193.879L130.148 187.896L130.351 196.004L138.542 193.879ZM149.236 187.324L143.516 181.53L142.006 192.671L149.236 187.324ZM140.51 195.183L133.431 197.029L141.756 197.562L140.51 195.183ZM148.118 189.952L141.921 194.56L143.152 196.962L148.118 189.952ZM145.187 177.049L143.983 179.516L148.463 184.061L145.187 177.049ZM143.687 175.869L135.82 175.55L142.309 178.383L143.687 175.869ZM130.693 177.01L125.183 183.955L128.867 184.734L130.693 177.01ZM128.645 186.096L124.943 185.314L128.806 194.397L128.645 186.096Z" fill="white"/>
</svg>
