<svg width="48" height="48" viewBox="0 0 48 48" fill="none" xmlns="http://www.w3.org/2000/svg">
<g clip-path="url(#clip0_12574_209960)">
<path fill-rule="evenodd" clip-rule="evenodd" d="M47.9531 23.909C47.9531 37.137 37.2072 47.8517 23.9623 47.8517C10.7173 47.8517 -0.0285645 37.137 -0.0285645 23.909C-0.0285645 10.681 10.7173 -0.0336914 23.9623 -0.0336914C37.2072 -0.0336914 47.9531 10.681 47.9531 23.909ZM45.6531 23.909C45.6531 35.8619 35.9418 45.5517 23.9623 45.5517C11.9828 45.5517 2.27144 35.8619 2.27144 23.909C2.27144 11.9561 11.9828 2.26631 23.9623 2.26631C35.9418 2.26631 45.6531 11.9561 45.6531 23.909Z" fill="#9013FE"/>
<path d="M23.9623 45.5515C35.9419 45.5515 45.6532 35.8617 45.6532 23.9088C45.6532 11.9559 35.9419 2.26611 23.9623 2.26611C11.9828 2.26611 2.27148 11.9559 2.27148 23.9088C2.27148 35.8617 11.9828 45.5515 23.9623 45.5515Z" fill="#1E075F"/>
<path fill-rule="evenodd" clip-rule="evenodd" d="M21.6679 19L27.9491 19.2772L30.4921 24.8554L26.9044 29.9535L20.5891 29.5543L18 23.5103L21.6679 19ZM25.7045 28.4736L22.3729 29.3293L26.2908 29.5758L25.7045 28.4736ZM29.2846 26.0504L26.3684 28.1853L26.9478 29.2982L29.2846 26.0504ZM20.828 25.0979L20.9236 28.854L24.7783 27.8698L20.828 25.0979ZM18.3785 23.9013L20.1963 28.1097L20.1207 24.2638L18.3785 23.9013ZM27.1188 22.1482L26.4083 27.31L29.8107 24.8325L27.1188 22.1482ZM26.2261 22.2192L21.678 24.172L25.5664 27.1265L26.2261 22.2192ZM21.0846 20.0538L18.4914 23.2717L20.2252 23.6326L21.0846 20.0538ZM27.9052 20.0722L27.3388 21.2149L29.4471 23.321L27.9052 20.0722ZM22.0648 19.7028L21.3013 22.9364L25.6996 21.2407L22.0648 19.7028ZM23.4972 19.3777L26.5512 20.6904L27.1995 19.5254L23.4972 19.3777Z" fill="#9013FE"/>
<path fill-rule="evenodd" clip-rule="evenodd" d="M43.5332 31.5745C43.5332 33.2929 40.1347 34.6859 35.9425 34.6859C31.7503 34.6859 28.3518 33.2929 28.3518 31.5745C28.3518 29.856 43.5332 29.856 43.5332 31.5745ZM43.0032 31.5904C43.0032 31.945 39.8338 32.2325 35.9243 32.2325C32.0148 32.2325 28.8455 31.945 28.8455 31.5904C28.8455 31.2357 32.0148 30.9482 35.9243 30.9482C39.8338 30.9482 43.0032 31.2357 43.0032 31.5904Z" fill="white"/>
<path d="M35.9243 32.2325C39.8338 32.2325 43.0032 31.945 43.0032 31.5904C43.0032 31.2357 39.8338 30.9482 35.9243 30.9482C32.0148 30.9482 28.8455 31.2357 28.8455 31.5904C28.8455 31.945 32.0148 32.2325 35.9243 32.2325Z" fill="#009AFF"/>
<path fill-rule="evenodd" clip-rule="evenodd" d="M19.5329 31.5745C19.5329 33.2929 16.1344 34.6859 11.9422 34.6859C7.75002 34.6859 4.35156 33.2929 4.35156 31.5745C4.35156 29.856 19.5329 29.856 19.5329 31.5745ZM19.0029 31.5904C19.0029 31.945 15.8336 32.2325 11.9241 32.2325C8.01453 32.2325 4.84521 31.945 4.84521 31.5904C4.84521 31.2357 8.01453 30.9482 11.9241 30.9482C15.8336 30.9482 19.0029 31.2357 19.0029 31.5904Z" fill="white"/>
<path d="M11.9241 32.2325C15.8336 32.2325 19.0029 31.945 19.0029 31.5904C19.0029 31.2357 15.8336 30.9482 11.9241 30.9482C8.01453 30.9482 4.84521 31.2357 4.84521 31.5904C4.84521 31.945 8.01453 32.2325 11.9241 32.2325Z" fill="#009AFF"/>
<path fill-rule="evenodd" clip-rule="evenodd" d="M13.0977 20.8494C13.0977 21.642 12.4536 22.2846 11.6592 22.2846C10.8647 22.2846 10.2207 21.642 10.2207 20.8494C10.2207 20.0567 10.8647 19.4141 11.6592 19.4141C12.4536 19.4141 13.0977 20.0567 13.0977 20.8494ZM12.492 20.8495C12.492 21.3084 12.1192 21.6805 11.6592 21.6805C11.1993 21.6805 10.8264 21.3084 10.8264 20.8495C10.8264 20.3906 11.1993 20.0186 11.6592 20.0186C12.1192 20.0186 12.492 20.3906 12.492 20.8495Z" fill="white"/>
<path fill-rule="evenodd" clip-rule="evenodd" d="M37.9307 20.8494C37.9307 21.642 37.2866 22.2846 36.4922 22.2846C35.6977 22.2846 35.0537 21.642 35.0537 20.8494C35.0537 20.0567 35.6977 19.4141 36.4922 19.4141C37.2866 19.4141 37.9307 20.0567 37.9307 20.8494ZM37.3248 20.8495C37.3248 21.3084 36.9519 21.6805 36.492 21.6805C36.032 21.6805 35.6592 21.3084 35.6592 20.8495C35.6592 20.3906 36.032 20.0186 36.492 20.0186C36.9519 20.0186 37.3248 20.3906 37.3248 20.8495Z" fill="white"/>
<path fill-rule="evenodd" clip-rule="evenodd" d="M24.1513 11.5284L24.1891 2.76554C24.1897 2.61952 24.0716 2.50063 23.9253 2.5C23.779 2.49938 23.6598 2.61724 23.6592 2.76326L23.6213 11.5261C23.6212 11.5601 23.6275 11.5926 23.6391 11.6226L21.4514 13.8054C18.2323 14.4442 15.1619 16.3617 12.2454 19.5382C12.6048 19.6985 12.8862 20.0015 13.0173 20.3751C16.4781 16.5783 20.0976 14.6995 23.8863 14.6995C27.6759 14.6995 31.4235 16.5788 35.1348 20.3732C35.266 20.0008 35.5467 19.6987 35.9051 19.5386C32.779 16.3552 29.5821 14.4368 26.3174 13.8018L24.1335 11.6227C24.1448 11.5934 24.1511 11.5616 24.1513 11.5284ZM37.8675 20.4274C37.9086 20.5608 37.9307 20.7025 37.9307 20.8494C37.9307 21.1081 37.8621 21.3509 37.742 21.5605H39.8428C40.1564 21.5605 40.4106 21.3069 40.4106 20.994C40.4106 20.681 40.1564 20.4274 39.8428 20.4274H37.8675ZM36.9471 22.2114C36.8197 22.2537 36.6843 22.2788 36.5438 22.2837L41.9958 30.7585C42.1904 30.8007 42.37 30.8456 42.5324 30.8934L36.9471 22.2114ZM28.483 32.1532C28.4777 32.1418 28.4726 32.1304 28.4677 32.1189L28.4419 32.1532H28.483ZM29.3986 30.8801C29.5734 30.8302 29.767 30.7835 29.9771 30.7399L36.3369 22.2764C36.1977 22.2615 36.0644 22.2267 35.9399 22.1751L29.3986 30.8801ZM8.28877 20.4274H10.2839C10.2428 20.5608 10.2207 20.7025 10.2207 20.8494C10.2207 21.1081 10.2893 21.3509 10.4094 21.5605H8.28877C7.97517 21.5605 7.72095 21.3069 7.72095 20.994C7.72095 20.681 7.97517 20.4274 8.28877 20.4274ZM4.46899 32.1531L4.47705 32.1409L4.48259 32.1531H4.46899ZM5.83511 30.7703C5.63533 30.8148 5.45211 30.8623 5.28773 30.9129L11.0672 22.1579C11.1861 22.2115 11.3136 22.2495 11.4471 22.2691L5.83511 30.7703ZM18.4213 30.862C18.2488 30.8147 18.059 30.7704 17.8542 30.7289L11.6508 22.2846L11.6592 22.2846C11.8039 22.2846 11.9436 22.2633 12.0754 22.2237L18.4213 30.862ZM24.7082 13.5931L23.9244 12.811L23.1455 13.5882C23.3916 13.5737 23.6386 13.5664 23.8863 13.5664C24.1608 13.5664 24.4347 13.5753 24.7082 13.5931Z" fill="#E1BEFF"/>
</g>
<defs>
<clipPath id="clip0_12574_209960">
<rect width="48" height="48" fill="white"/>
</clipPath>
</defs>
</svg>
