<svg width="48" height="48" viewBox="0 0 48 48" fill="none" xmlns="http://www.w3.org/2000/svg">
<g clip-path="url(#clip0_15970_30786)">
<path d="M24 47.8934C37.2548 47.8934 48 37.1721 48 23.9467C48 10.7213 37.2548 0 24 0C10.7452 0 0 10.7213 0 23.9467C0 37.1721 10.7452 47.8934 24 47.8934Z" fill="url(#paint0_linear_15970_30786)"/>
<path d="M23.9622 45.5516C35.9417 45.5516 45.6531 35.8618 45.6531 23.9089C45.6531 11.956 35.9417 2.26624 23.9622 2.26624C11.9827 2.26624 2.27136 11.956 2.27136 23.9089C2.27136 35.8618 11.9827 45.5516 23.9622 45.5516Z" fill="url(#paint1_linear_15970_30786)"/>
<path fill-rule="evenodd" clip-rule="evenodd" d="M21.3839 18.2808L27.665 18.5579L30.208 24.1362L26.6203 29.2343L20.305 28.835L17.7159 22.791L21.3839 18.2808ZM25.4204 27.7544L22.0889 28.6101L26.0067 28.8566L25.4204 27.7544ZM29.0006 25.3312L26.0843 27.466L26.6638 28.5789L29.0006 25.3312ZM20.544 24.3786L20.6395 28.1348L24.4942 27.1506L20.544 24.3786ZM18.0945 23.1821L19.9123 27.3904L19.8366 23.5445L18.0945 23.1821ZM26.8347 21.429L26.1242 26.5908L29.5266 24.1133L26.8347 21.429ZM25.9421 21.5L21.3939 23.4528L25.2823 26.4072L25.9421 21.5ZM20.8006 19.3346L18.2074 22.5524L19.9411 22.9133L20.8006 19.3346ZM27.6212 19.353L27.0547 20.4957L29.1631 22.6017L27.6212 19.353ZM21.7808 18.9835L21.0173 22.2172L25.4155 20.5215L21.7808 18.9835ZM23.2132 18.6585L26.2671 19.9711L26.9154 18.8062L23.2132 18.6585Z" fill="url(#paint2_linear_15970_30786)"/>
<path d="M35.9425 34.6858C40.1347 34.6858 43.5332 33.2928 43.5332 31.5743C43.5332 29.8559 28.3518 29.8559 28.3518 31.5743C28.3518 33.2928 31.7503 34.6858 35.9425 34.6858Z" fill="white"/>
<path d="M43.3428 31.8064L36.4698 21.1229L28.4418 31.8064H43.3428ZM42.65 31.4287H29.1987L36.4457 21.7847L42.65 31.4287Z" fill="#E1BEFF"/>
<path d="M11.9423 34.6858C16.1346 34.6858 19.533 33.2928 19.533 31.5743C19.533 29.8559 4.35168 29.8559 4.35168 31.5743C4.35168 33.2928 7.75014 34.6858 11.9423 34.6858Z" fill="white"/>
<path d="M19.37 31.8063L11.5216 21.1229L4.46912 31.8063H19.37ZM18.6231 31.4286H5.17174L11.5382 21.7844L18.6231 31.4286Z" fill="#E1BEFF"/>
<path fill-rule="evenodd" clip-rule="evenodd" d="M23.8863 11.0294L26.6497 13.7867H21.1229L23.8863 11.0294Z" fill="#E1BEFF"/>
<path fill-rule="evenodd" clip-rule="evenodd" d="M23.9243 12.4645L25.5142 14.0508H22.3344L23.9243 12.4645Z" fill="#4D00B4"/>
<path d="M23.8865 13.22C19.4761 13.22 15.3301 15.5228 11.461 20.081H8.28889C7.97529 20.081 7.72107 20.3346 7.72107 20.6475C7.72107 20.9604 7.97529 21.2141 8.28889 21.2141H11.7256C11.8942 21.2141 12.054 21.1394 12.1619 21.0101C15.8806 16.5555 19.7844 14.3531 23.8865 14.3531C27.9951 14.3531 32.0545 16.5622 36.0717 21.026C36.1794 21.1457 36.333 21.2141 36.4942 21.2141H39.8429C40.1565 21.2141 40.4107 20.9604 40.4107 20.6475C40.4107 20.3346 40.1565 20.081 39.8429 20.081H36.7462C32.5842 15.5216 28.2953 13.22 23.8865 13.22Z" fill="#E1BEFF"/>
<path d="M11.9242 32.2322C15.8337 32.2322 19.0031 31.9447 19.0031 31.5901C19.0031 31.2355 15.8337 30.948 11.9242 30.948C8.01465 30.948 4.84534 31.2355 4.84534 31.5901C4.84534 31.9447 8.01465 32.2322 11.9242 32.2322Z" fill="#009AFF"/>
<path d="M35.9243 32.2322C39.8338 32.2322 43.0032 31.9447 43.0032 31.5901C43.0032 31.2355 39.8338 30.948 35.9243 30.948C32.0148 30.948 28.8455 31.2355 28.8455 31.5901C28.8455 31.9447 32.0148 32.2322 35.9243 32.2322Z" fill="#009AFF"/>
<path d="M11.6593 22.2844C12.4538 22.2844 13.0978 21.6418 13.0978 20.8491C13.0978 20.0564 12.4538 19.4138 11.6593 19.4138C10.8649 19.4138 10.2208 20.0564 10.2208 20.8491C10.2208 21.6418 10.8649 22.2844 11.6593 22.2844Z" fill="white"/>
<path d="M11.6592 21.6804C12.1192 21.6804 12.492 21.3083 12.492 20.8494C12.492 20.3905 12.1192 20.0184 11.6592 20.0184C11.1993 20.0184 10.8264 20.3905 10.8264 20.8494C10.8264 21.3083 11.1993 21.6804 11.6592 21.6804Z" fill="#4D00B4"/>
<path d="M36.4922 22.2844C37.2866 22.2844 37.9307 21.6418 37.9307 20.8491C37.9307 20.0564 37.2866 19.4138 36.4922 19.4138C35.6977 19.4138 35.0537 20.0564 35.0537 20.8491C35.0537 21.6418 35.6977 22.2844 36.4922 22.2844Z" fill="white"/>
<path d="M36.4921 21.6804C36.9521 21.6804 37.3249 21.3083 37.3249 20.8494C37.3249 20.3905 36.9521 20.0184 36.4921 20.0184C36.0322 20.0184 35.6593 20.3905 35.6593 20.8494C35.6593 21.3083 36.0322 21.6804 36.4921 21.6804Z" fill="#4D00B4"/>
<path d="M24.1514 11.1818L24.1892 2.41898C24.1899 2.27296 24.0717 2.15408 23.9254 2.15344C23.7791 2.15282 23.6599 2.27068 23.6593 2.4167L23.6215 11.1795C23.6208 11.3256 23.7389 11.4445 23.8853 11.4451C24.0316 11.4457 24.1507 11.3278 24.1514 11.1818Z" fill="#E1BEFF"/>
</g>
<defs>
<linearGradient id="paint0_linear_15970_30786" x1="24" y1="47.8934" x2="24" y2="10.5838" gradientUnits="userSpaceOnUse">
<stop stop-color="#4D00B4"/>
<stop offset="1" stop-color="#9013FE"/>
</linearGradient>
<linearGradient id="paint1_linear_15970_30786" x1="23.9622" y1="2.26624" x2="23.9622" y2="45.5516" gradientUnits="userSpaceOnUse">
<stop stop-color="#4D00B4"/>
<stop offset="1" stop-color="#1E075F"/>
</linearGradient>
<linearGradient id="paint2_linear_15970_30786" x1="23.962" y1="18.2808" x2="23.962" y2="29.2343" gradientUnits="userSpaceOnUse">
<stop stop-color="#C89EFF"/>
<stop offset="1" stop-color="#7911F9"/>
</linearGradient>
<clipPath id="clip0_15970_30786">
<rect width="48" height="48" fill="white"/>
</clipPath>
</defs>
</svg>
