<svg viewBox="0 0 16 16" fill="none" xmlns="http://www.w3.org/2000/svg">
<path d="M11.2308 7.75V8.625C11.2308 8.83125 11.0577 9 10.8462 9H5.46154C5.25 9 5.07692 8.83125 5.07692 8.625V7.75C5.07692 7.54375 5.25 7.375 5.46154 7.375H10.8462C11.0577 7.375 11.2308 7.54375 11.2308 7.75ZM10.8462 10H5.46154C5.25 10 5.07692 10.1687 5.07692 10.375V11.25C5.07692 11.4563 5.25 11.625 5.46154 11.625H10.8462C11.0577 11.625 11.2308 11.4563 11.2308 11.25V10.375C11.2308 10.1687 11.0577 10 10.8462 10ZM14.3077 4.12187V14.5C14.3077 15.3281 13.6186 16 12.7692 16H3.53846C2.6891 16 2 15.3281 2 14.5V1.5C2 0.671875 2.6891 0 3.53846 0H10.0801C10.4872 0 10.8782 0.159375 11.1667 0.440625L13.8558 3.0625C14.1442 3.34063 14.3077 3.725 14.3077 4.12187ZM10.2051 1.62188V4H12.6442L10.2051 1.62188ZM12.7692 14.5V5.5H9.4359C9.00962 5.5 8.66667 5.16563 8.66667 4.75V1.5H3.53846V14.5H12.7692Z"/>
</svg>
