<svg width="14" height="15" viewBox="0 0 14 15" fill="none" xmlns="http://www.w3.org/2000/svg">
<g clip-path="url(#clip0_22126_42353)">
<path d="M6.81115 3.10177C6.25363 3.10177 5.82 3.2205 5.51026 3.45796C5.21085 3.6851 5.06115 4.07227 5.06115 4.61947C5.06115 4.86726 5.11277 5.07891 5.21602 5.25442C5.31926 5.42994 5.44832 5.57965 5.60318 5.70354C5.76838 5.82743 5.95422 5.93068 6.16071 6.01327C6.37752 6.08555 6.59433 6.14749 6.81115 6.19911V3.10177ZM4.82885 9.66814C4.81852 10.3496 4.96823 10.8864 5.27796 11.2788C5.5877 11.6711 6.09876 11.8776 6.81115 11.8982V8.15044C6.38784 8.03687 5.96454 7.90265 5.54124 7.74779C5.12826 7.5826 4.75141 7.37611 4.41071 7.12832C4.08032 6.87021 3.81189 6.55015 3.6054 6.16814C3.39891 5.78614 3.29566 5.31121 3.29566 4.74336C3.29566 4.24779 3.38858 3.81416 3.57442 3.44248C3.77059 3.06047 4.0287 2.74557 4.34876 2.49779C4.67914 2.23968 5.05599 2.04351 5.47929 1.90929C5.90259 1.77507 6.34655 1.70796 6.81115 1.70796V0.5H7.47708V1.70796C7.94168 1.70796 8.38047 1.76991 8.79345 1.8938C9.20643 2.0177 9.56262 2.20354 9.86203 2.45133C10.1718 2.69911 10.4144 3.01401 10.5899 3.39602C10.7758 3.77802 10.8687 4.22198 10.8687 4.72788H9.10318C9.08253 4.20133 8.94315 3.79867 8.68504 3.51991C8.43725 3.24115 8.0346 3.10177 7.47708 3.10177V6.36947C7.94168 6.49336 8.39596 6.6379 8.83991 6.8031C9.28386 6.96829 9.67619 7.17994 10.0169 7.43805C10.3576 7.69616 10.6312 8.01622 10.8377 8.39823C11.0442 8.78024 11.1474 9.25 11.1474 9.80752C11.1474 10.3857 11.0493 10.8916 10.8532 11.3252C10.6673 11.7485 10.4092 12.1047 10.0788 12.3938C9.74846 12.6726 9.3613 12.8842 8.91734 13.0288C8.47339 13.1836 7.9933 13.2714 7.47708 13.292V14.5H6.81115V13.292C6.25363 13.2817 5.74256 13.194 5.27796 13.0288C4.81336 12.8636 4.41587 12.6313 4.08548 12.3319C3.7551 12.0221 3.49699 11.6453 3.31115 11.2013C3.13563 10.7574 3.05304 10.2463 3.06336 9.66814H4.82885ZM7.47708 11.8982C8.0346 11.8569 8.48888 11.6969 8.83991 11.4181C9.20127 11.1291 9.38195 10.6748 9.38195 10.0553C9.38195 9.76622 9.32516 9.5236 9.21159 9.32743C9.10835 9.13127 8.9638 8.96607 8.77796 8.83186C8.60245 8.69764 8.40112 8.58923 8.17398 8.50664C7.94684 8.42404 7.71454 8.35177 7.47708 8.28982V11.8982Z" fill="#B45FFF"/>
</g>
<defs>
<clipPath id="clip0_22126_42353">
<rect width="14" height="14" fill="white" transform="translate(0 0.5)"/>
</clipPath>
</defs>
</svg>
