<svg xmlns="http://www.w3.org/2000/svg" width="80" height="80" viewBox="0 0 80 80" fill="none">
  <circle cx="40" cy="40" r="39.5" fill="#2A1260" stroke="#BECCE5"/>
  <path d="M35.9473 54.123L35.7812 54.1191C34.0757 54.0326 32.7197 52.6216 32.7197 50.8945V27.4912H22.2285C21.3371 27.4912 20.6143 28.2141 20.6143 29.1055V59.7715C20.6143 60.6629 21.3371 61.3857 22.2285 61.3857H44.8242C45.7156 61.3857 46.4385 60.6629 46.4385 59.7715V54.123H35.9473ZM35.9473 18.6143C35.0559 18.6143 34.333 19.3371 34.333 20.2285V50.8945C34.333 51.7859 35.0559 52.5087 35.9473 52.5088H58.5439C59.4353 52.5087 60.1582 51.7859 60.1582 50.8945V27.3936C60.1582 27.2903 60.1464 27.1881 60.127 27.0879H52.8945V18.6143H35.9473ZM56.5264 43.2285H38.3682V40.8066H56.5264V43.2285ZM56.5264 35.1582H38.3682V32.7373H56.5264V35.1582ZM53.7021 26.2803H59.7227L54.207 19.2334C54.0683 19.0562 53.8952 18.9139 53.7021 18.8096V26.2803ZM48.0527 59.7715C48.0527 61.5543 46.607 63 44.8242 63H22.2285L22.0615 62.9961C20.3561 62.9094 19 61.4984 19 59.7715V29.1055C19 27.3227 20.4457 25.877 22.2285 25.877H32.7197V20.2285C32.7197 18.4457 34.1645 17.0001 35.9473 17H52.9355C53.9283 17 54.8667 17.4575 55.4785 18.2393L61.0859 25.4043C61.5302 25.9721 61.7714 26.6725 61.7715 27.3936V50.8945C61.7715 52.6773 60.3267 54.123 58.5439 54.123H48.0527V59.7715Z" fill="white"/>
</svg>