<svg width="48" height="48" viewBox="0 0 48 48" fill="none" xmlns="http://www.w3.org/2000/svg">
<path fill-rule="evenodd" clip-rule="evenodd" d="M3 11.9983L23.8053 0L44.549 11.9987V12.5925C44.549 27.7491 37.6953 39.4767 24.1142 47.6846L23.5924 48L23.0651 47.694C9.73123 39.9574 3.02436 28.212 3.0009 12.5941L3 11.9983ZM43.5195 12.5925C43.5195 27.3668 36.8736 38.7704 23.5817 46.8036C10.5704 39.2541 4.05332 27.8505 4.03039 12.5925L23.8045 1.18887L43.5195 12.5925Z" fill="#4D00B4"/>
<path fill-rule="evenodd" clip-rule="evenodd" d="M23.5986 43.7522C35.0993 36.7088 40.8632 26.8088 40.9506 14.0089L23.8031 4.09397L6.60375 14.0092C6.70673 27.2412 12.3627 37.1338 23.5986 43.7522ZM6.08777 13.7126C6.10831 27.3773 11.947 37.5902 23.6039 44.3513C35.5121 37.157 41.4662 26.9441 41.4662 13.7126L23.8035 3.49976L6.08777 13.7126Z" fill="#4D00B4"/>
<path fill-rule="evenodd" clip-rule="evenodd" d="M18.6386 12.7626L30.438 13.2836L35.2152 23.7703L28.4755 33.3545L16.612 32.6039L11.7483 21.2416L18.6386 12.7626ZM26.2686 30.6602L20.0188 32.2711L27.3686 32.7352L26.2686 30.6602ZM32.985 26.0984L27.5141 30.1174L28.6012 32.2124L32.985 26.0984ZM17.1206 24.3052L17.2998 31.3764L24.5312 29.5235L17.1206 24.3052ZM12.5253 22.0526L15.9354 29.975L15.7935 22.735L12.5253 22.0526ZM28.9219 18.7523L27.589 28.4697L33.9719 23.8057L28.9219 18.7523ZM27.2473 18.886L18.715 22.5622L26.0096 28.1241L27.2473 18.886ZM17.6019 14.8095L12.7371 20.8673L15.9896 21.5467L17.6019 14.8095ZM30.3972 14.8441L29.3346 16.9953L33.2898 20.9601L30.3972 14.8441ZM19.4408 14.1487L18.0084 20.2361L26.2595 17.0439L19.4408 14.1487ZM22.1279 13.5367L27.857 16.0079L29.0733 13.8147L22.1279 13.5367Z" fill="#9013FE"/>
</svg>
