<svg width="32" height="33" viewBox="0 0 32 33" fill="none" xmlns="http://www.w3.org/2000/svg">
<path fill-rule="evenodd" clip-rule="evenodd" d="M16.3335 15.2479L19.9978 12.9521L16.3335 6.5L12.6668 12.9521L16.3335 15.2479ZM12.6668 13.6893L16.3335 15.9852L20.0002 13.6893L16.3335 19.1667L12.6668 13.6893ZM16.6823 23.1653C16.6823 23.7979 16.5238 24.2896 16.2066 24.6404C15.8912 24.9913 15.4438 25.1667 14.8644 25.1667C14.2779 25.1667 13.827 24.993 13.5116 24.6457C13.1979 24.2967 13.0411 23.8014 13.0411 23.16C13.0411 22.5186 13.1988 22.026 13.5142 21.6823C13.8314 21.3385 14.2832 21.1667 14.8697 21.1667C15.4473 21.1667 15.8939 21.3412 16.2092 21.6903C16.5246 22.0393 16.6823 22.531 16.6823 23.1653ZM13.7162 23.1653C13.7162 23.6437 13.8128 24.007 14.0059 24.255C14.1991 24.5013 14.4852 24.6245 14.8644 24.6245C15.2418 24.6245 15.5262 24.5022 15.7175 24.2577C15.9107 24.0132 16.0072 23.6491 16.0072 23.1653C16.0072 22.6887 15.9116 22.3272 15.7202 22.081C15.5306 21.8347 15.2471 21.7115 14.8697 21.7115C14.4888 21.7115 14.2008 21.8347 14.0059 22.081C13.8128 22.3272 13.7162 22.6887 13.7162 23.1653ZM12.0604 21.2278H12.7195L11.3587 25.1135H10.689L9.3335 21.2278H9.98732L10.7979 23.6437C10.8405 23.7589 10.8857 23.9078 10.9335 24.0903C10.9813 24.271 11.0123 24.4056 11.0265 24.4942C11.0496 24.3596 11.085 24.2037 11.1328 24.0265C11.1807 23.8493 11.2197 23.7182 11.2498 23.6331L12.0604 21.2278ZM18.2239 25.1135H18.8591V21.7726H20.0019V21.2278H17.081V21.7726H18.2239V25.1135ZM22.7979 25.1135H20.5999V21.2278H22.7979V21.7647H21.2352V22.8225H22.6996V23.354H21.2352V24.574H22.7979V25.1135Z"/>
</svg>
