<svg viewBox="0 0 16 16" fill="none" xmlns="http://www.w3.org/2000/svg">
<g clip-path="url(#clip0_11047_6900)">
<path d="M7.9995 5.05078C7.70509 5.05544 7.41286 5.1028 7.13172 5.19141C7.26176 5.42296 7.331 5.68441 7.33283 5.95078C7.33283 6.15761 7.29259 6.36242 7.21442 6.55351C7.13625 6.7446 7.02166 6.91822 6.87722 7.06447C6.73277 7.21073 6.56129 7.32674 6.37256 7.40589C6.18383 7.48504 5.98155 7.52578 5.77727 7.52578C5.51419 7.52393 5.25597 7.45383 5.02727 7.32216C4.84684 7.95575 4.86787 8.63077 5.08739 9.2516C5.3069 9.87242 5.71378 10.4076 6.25038 10.7813C6.78698 11.1549 7.4261 11.3482 8.07721 11.3337C8.72832 11.3192 9.35842 11.0976 9.87824 10.7003C10.3981 10.3031 10.7813 9.75031 10.9736 9.1203C11.1659 8.49028 11.1575 7.81498 10.9497 7.19004C10.7419 6.56511 10.3451 6.02222 9.81563 5.63827C9.28614 5.25433 8.65076 5.04879 7.9995 5.05078ZM15.9028 7.79016C14.3964 4.81425 11.4142 2.80078 7.9995 2.80078C4.58477 2.80078 1.60172 4.81566 0.0961632 7.79044C0.0326193 7.91771 -0.000488281 8.05832 -0.000488281 8.20092C-0.000488281 8.34353 0.0326193 8.48414 0.0961632 8.61141C1.60255 11.5873 4.58477 13.6008 7.9995 13.6008C11.4142 13.6008 14.3973 11.5859 15.9028 8.61112C15.9664 8.48386 15.9995 8.34325 15.9995 8.20064C15.9995 8.05803 15.9664 7.91742 15.9028 7.79016ZM7.9995 12.2508C5.25922 12.2508 2.747 10.7039 1.39033 8.20078C2.747 5.69766 5.25894 4.15078 7.9995 4.15078C10.7401 4.15078 13.252 5.69766 14.6087 8.20078C13.2523 10.7039 10.7401 12.2508 7.9995 12.2508Z"/>
</g>
<defs>
<clipPath id="clip0_11047_6900">
<rect width="16" height="14.4" transform="translate(0 1)"/>
</clipPath>
</defs>
</svg>
