<svg xmlns="http://www.w3.org/2000/svg" width="16" height="17" viewBox="0 0 16 17" fill="none">
  <g clip-path="url(#clip0_19884_66179)">
    <path d="M7 0.5C7.55312 0.5 8 0.946875 8 1.5V1.875L11 1.5C11.5531 1.5 12 1.94687 12 2.5C12 3.05312 11.5531 3.5 11 3.5L8 3.125L7.03125 3.00312L7 3L6.96875 3.00312L6 3.125L3 3.5C2.44688 3.5 2 3.05312 2 2.5C2 1.94687 2.44688 1.5 3 1.5L6 1.875V1.5C6 0.946875 6.44688 0.5 7 0.5ZM0 7.5C0 6.94688 0.446875 6.5 1 6.5H4L4.70625 5.79375C4.89375 5.60625 5.14687 5.5 5.4125 5.5H6V4.13125L7 4.00625L8 4.13125V5.5H8.58438C8.85 5.5 9.10312 5.60625 9.29062 5.79375L10 6.5H11C13.7625 6.5 16 8.7375 16 11.5C16 12.0531 15.5531 12.5 15 12.5H13C12.4469 12.5 12 12.0531 12 11.5C12 10.9469 11.5531 10.5 11 10.5H9.87187C9.24062 11.4062 8.1875 12 7 12C5.8125 12 4.75938 11.4062 4.12813 10.5H1C0.446875 10.5 0 10.0531 0 9.5V7.5ZM13.65 13.7312C13.7094 13.5906 13.8469 13.5 14 13.5C14.1531 13.5 14.2875 13.5906 14.35 13.7312L14.9187 15.0562C14.975 15.1844 15.0031 15.325 15.0031 15.4656V15.5C15.0031 16.0531 14.5563 16.5 14.0031 16.5C13.45 16.5 13.0031 16.0531 13.0031 15.5V15.4625C13.0031 15.3219 13.0312 15.1844 13.0875 15.0531L13.6562 13.7281L13.65 13.7312Z" />
  </g>
  <defs>
    <clipPath id="clip0_19884_66179">
      <rect width="16" height="16" fill="white" transform="translate(0 0.5)"/>
    </clipPath>
  </defs>
</svg>