<svg xmlns="http://www.w3.org/2000/svg" width="16" height="17" viewBox="0 0 16 17" fill="none">
  <g clip-path="url(#clip0_19668_84865)">
    <path d="M1 2.5C1 1.39688 1.89688 0.5 3 0.5H8C9.10312 0.5 10 1.39688 10 2.5V8.5H10.25C11.7688 8.5 13 9.73125 13 11.25V12.25C13 12.6656 13.3344 13 13.75 13C14.1656 13 14.5 12.6656 14.5 12.25V7.4375C13.6375 7.21562 13 6.43125 13 5.5V3.5L12 2.5C11.725 2.225 11.725 1.775 12 1.5C12.275 1.225 12.725 1.225 13 1.5L15.4156 3.91563C15.7906 4.29063 16 4.8 16 5.33125V5.75V6.5V7.5V12.25C16 13.4937 14.9937 14.5 13.75 14.5C12.5063 14.5 11.5 13.4937 11.5 12.25V11.25C11.5 10.5594 10.9406 10 10.25 10H10V14.5C10.5531 14.5 11 14.9469 11 15.5C11 16.0531 10.5531 16.5 10 16.5H1C0.446875 16.5 0 16.0531 0 15.5C0 14.9469 0.446875 14.5 1 14.5V2.5ZM3 3V6C3 6.275 3.225 6.5 3.5 6.5H7.5C7.775 6.5 8 6.275 8 6V3C8 2.725 7.775 2.5 7.5 2.5H3.5C3.225 2.5 3 2.725 3 3Z" fill="#999999"/>
  </g>
  <defs>
    <clipPath id="clip0_19668_84865">
      <rect width="16" height="16" fill="white" transform="translate(0 0.5)"/>
    </clipPath>
  </defs>
</svg>