<svg width="16" height="17" viewBox="0 0 16 17" fill="none" xmlns="http://www.w3.org/2000/svg">
<path d="M15.849 8.62302L15.3629 8.13689C15.1615 7.93552 14.835 7.93552 14.6337 8.13689L14.5121 8.25843L12.0814 5.82776L12.203 5.70622C12.4043 5.50485 12.4043 5.17837 12.203 4.97702L11.7168 4.49087C11.5155 4.2895 11.189 4.2895 10.9876 4.49087L8.31388 7.16462C8.1125 7.36599 8.1125 7.69247 8.31388 7.89382L8.8 8.37994C9.00138 8.58131 9.32785 8.58131 9.5292 8.37994L9.65074 8.25841L10.5015 9.10914L8.76039 10.8502L8.63885 10.7287C8.37036 10.4602 7.93506 10.4602 7.66657 10.7287L5.20137 13.1939C4.93288 13.4624 4.93288 13.8977 5.20137 14.1662L6.17364 15.1385C6.44213 15.407 6.87743 15.407 7.14592 15.1385L9.61115 12.6733C9.87964 12.4048 9.87964 11.9695 9.61115 11.701L9.48961 11.5795L11.2307 9.83836L12.0814 10.6891L11.9599 10.8106C11.7585 11.012 11.7585 11.3385 11.9599 11.5398L12.446 12.026C12.6474 12.2273 12.9739 12.2273 13.1752 12.026L15.849 9.35221C16.0503 9.15086 16.0503 8.82439 15.849 8.62302Z" fill="#65DC7F"/>
<g clip-path="url(#clip0_24237_1972)">
<path d="M3.5 2.33984C5.43281 2.33984 7 3.90703 7 5.83984C7 7.77266 5.43281 9.33984 3.5 9.33984C1.56719 9.33984 0 7.77266 0 5.83984C0 3.90703 1.56719 2.33984 3.5 2.33984ZM3.5 2.93359C1.89531 2.93359 0.59375 4.23516 0.59375 5.83984C0.59375 7.44453 1.89531 8.74609 3.5 8.74609C5.10469 8.74609 6.40625 7.44453 6.40625 5.83984C6.40625 4.23516 5.10469 2.93359 3.5 2.93359ZM4.96094 4.59766C5.01165 4.59767 5.04104 4.6549 5.01074 4.69629L3.36523 6.97754C3.34231 7.00954 3.31233 7.03568 3.27734 7.05371C3.24235 7.07169 3.20341 7.08197 3.16406 7.08203C3.12458 7.08203 3.08493 7.07175 3.0498 7.05371C3.01487 7.03568 2.98481 7.0095 2.96191 6.97754L1.98828 5.62793C1.95859 5.58652 1.98828 5.52832 2.03906 5.52832H2.40527C2.48574 5.52832 2.56055 5.56798 2.60742 5.63281L3.16406 6.4043L4.39258 4.70117C4.43947 4.63573 4.51516 4.59766 4.59473 4.59766H4.96094Z" fill="#65DC7F"/>
</g>
<defs>
<clipPath id="clip0_24237_1972">
<rect width="7" height="7" fill="white" transform="translate(0 2.33984)"/>
</clipPath>
</defs>
</svg>
