<svg viewBox="0 0 12 13" fill="none" xmlns="http://www.w3.org/2000/svg">
<path d="M11.8352 5.17255L11.3049 4.64223C11.0852 4.42255 10.7291 4.42255 10.5094 4.64223L10.3768 4.77482L7.72516 2.12318L7.85775 1.99059C8.07743 1.77091 8.07743 1.41476 7.85775 1.1951L7.32743 0.664759C7.10775 0.44508 6.75159 0.44508 6.53194 0.664759L3.61512 3.58157C3.39545 3.80125 3.39545 4.15741 3.61512 4.37706L4.14544 4.90738C4.36512 5.12706 4.72128 5.12706 4.94093 4.90738L5.07352 4.77479L6.00159 5.70287L4.10222 7.60224L3.96964 7.46965C3.67674 7.17676 3.20188 7.17676 2.90898 7.46965L0.219673 10.159C-0.0732244 10.4519 -0.0732244 10.9268 0.219673 11.2197L1.28033 12.2803C1.57323 12.5732 2.0481 12.5732 2.341 12.2803L5.03032 9.591C5.32322 9.2981 5.32322 8.82324 5.03032 8.53034L4.89774 8.39775L6.79711 6.49838L7.72518 7.42646L7.5926 7.55904C7.37292 7.77872 7.37292 8.13488 7.5926 8.35453L8.12292 8.88485C8.3426 9.10453 8.69875 9.10453 8.91841 8.88485L11.8352 5.96804C12.0549 5.74838 12.0549 5.39223 11.8352 5.17255Z"/>
</svg>
