<svg width="48" height="48" viewBox="0 0 48 48" fill="none" xmlns="http://www.w3.org/2000/svg">
<path d="M23.2043 47.7778C23.4564 47.9234 23.7423 48 24.0334 48C24.3245 48 24.6105 47.9234 24.8626 47.7778L44.2383 36.6041C44.4903 36.4592 44.6997 36.2505 44.8454 35.9989C44.991 35.7473 45.0678 35.4617 45.0679 35.171V12.8279C45.068 12.537 44.9913 12.2512 44.8456 11.9994C44.7 11.7476 44.4905 11.5386 44.2383 11.3936L24.8626 0.222168C24.6105 0.0766231 24.3245 0 24.0334 0C23.7423 0 23.4564 0.0766231 23.2043 0.222168L3.8286 11.3948C3.57669 11.5397 3.36744 11.7485 3.22197 12.0001C3.07649 12.2518 2.99993 12.5373 3 12.8279V35.1721C2.99997 35.4628 3.07659 35.7483 3.22212 35.9999C3.36766 36.2515 3.57696 36.4603 3.82892 36.6052L23.2043 47.7778ZM24.0329 46.3437L4.6572 35.1721V12.8279L24.0329 1.65417L43.4086 12.8279V35.1721L24.0329 46.3437Z" fill="#4D00B4"/>
<path d="M40.4055 13.7857L24.7052 4.73465C24.5004 4.61706 24.2684 4.55518 24.0323 4.55518C23.7962 4.55518 23.5642 4.61706 23.3594 4.73465L7.65908 13.7857C7.45516 13.9032 7.28577 14.0723 7.16793 14.276C7.05009 14.4797 6.98797 14.7108 6.98779 14.9462V33.0482C6.98789 33.2837 7.04997 33.5151 7.16781 33.719C7.28564 33.9229 7.45508 34.0921 7.65908 34.2098L23.3594 43.2608C23.5638 43.3794 23.796 43.4418 24.0323 43.4418C24.2686 43.4418 24.5008 43.3794 24.7052 43.2608L40.4055 34.2098C40.6095 34.0921 40.779 33.9229 40.8968 33.719C41.0146 33.5151 41.0767 33.2837 41.0768 33.0482V14.9462C41.0766 14.7108 41.0145 14.4797 40.8967 14.276C40.7788 14.0723 40.6094 13.9032 40.4055 13.7857ZM40.2751 32.6291C40.2749 32.8529 40.2157 33.0727 40.1035 33.2664C39.9914 33.4601 39.8302 33.6208 39.6362 33.7325L24.6729 42.3622C24.4781 42.4729 24.2579 42.5311 24.0339 42.5311C23.8099 42.5311 23.5897 42.4729 23.395 42.3622L8.43273 33.7325C8.23813 33.6206 8.07648 33.4594 7.9641 33.2651C7.85173 33.0708 7.7926 32.8503 7.79269 32.6259V15.3718C7.79315 15.1474 7.8525 14.9271 7.96482 14.7329C8.07715 14.5387 8.23849 14.3774 8.43273 14.2652L23.4003 5.63975C23.5944 5.52696 23.8148 5.46754 24.0393 5.46754C24.2638 5.46754 24.4842 5.52696 24.6783 5.63975L39.6416 14.2663C39.8347 14.379 39.9948 14.5404 40.106 14.7344C40.2171 14.9284 40.2755 15.1482 40.2751 15.3718V32.6291Z" fill="#4D00B4"/>
<path fill-rule="evenodd" clip-rule="evenodd" d="M21.3918 14.6095L23.6554 12.3458C23.6979 12.3033 23.7668 12.3033 23.8093 12.3458L29.3842 17.9207C29.4267 17.9632 29.4267 18.0321 29.3842 18.0746L27.1206 20.3383C27.0781 20.3808 27.0092 20.3808 26.9667 20.3383L21.3918 14.7634C21.3493 14.7209 21.3493 14.652 21.3918 14.6095ZM16.1058 21.4697L21.449 16.1264C21.6443 15.9312 21.9608 15.9312 22.1561 16.1264L25.606 19.5763C25.8013 19.7716 25.8013 20.0881 25.606 20.2834L20.2627 25.6266C20.0675 25.8219 19.7509 25.8219 19.5556 25.6266L16.1058 22.1768C15.9105 21.9815 15.9105 21.6649 16.1058 21.4697ZM14.5588 21.4443L12.2952 23.708C12.2527 23.7505 12.2527 23.8194 12.2952 23.8619L17.8701 29.4368C17.9126 29.4793 17.9815 29.4793 18.024 29.4368L20.2877 27.1731C20.3302 27.1306 20.3302 27.0617 20.2877 27.0192L14.7127 21.4443C14.6702 21.4018 14.6013 21.4018 14.5588 21.4443ZM22.7262 23.4812L31.5052 33.2418C31.7201 33.481 32.2301 33.3308 32.6367 32.907C33.0468 32.4851 33.1877 31.9547 32.9576 31.7312L23.5723 22.6003L22.7262 23.4812Z" fill="#9021FE"/>
</svg>
