<svg  viewBox="0 0 16 17" fill="none" xmlns="http://www.w3.org/2000/svg">
<path d="M4.66666 2.25V4.75C4.66666 5.16422 4.33087 5.5 3.91666 5.5H0.75C0.335781 5.5 0 5.16422 0 4.75V2.25C0 1.83578 0.335781 1.5 0.75 1.5H3.91666C4.33087 1.5 4.66666 1.83578 4.66666 2.25ZM10.3333 9.75V7.25C10.3333 6.83578 9.99756 6.5 9.58334 6.5H6.41666C6.00244 6.5 5.66666 6.83578 5.66666 7.25V9.75C5.66666 10.1642 6.00244 10.5 6.41666 10.5H9.58331C9.99756 10.5 10.3333 10.1642 10.3333 9.75ZM11.3333 2.25V4.75C11.3333 5.16422 11.6691 5.5 12.0833 5.5H15.25C15.6642 5.5 16 5.16422 16 4.75V2.25C16 1.83578 15.6642 1.5 15.25 1.5H12.0833C11.6691 1.5 11.3333 1.83578 11.3333 2.25ZM10.3333 4.75V2.25C10.3333 1.83578 9.99756 1.5 9.58334 1.5H6.41666C6.00244 1.5 5.66666 1.83578 5.66666 2.25V4.75C5.66666 5.16422 6.00244 5.5 6.41666 5.5H9.58331C9.99756 5.5 10.3333 5.16422 10.3333 4.75ZM3.91666 6.5H0.75C0.335781 6.5 0 6.83578 0 7.25V9.75C0 10.1642 0.335781 10.5 0.75 10.5H3.91666C4.33087 10.5 4.66666 10.1642 4.66666 9.75V7.25C4.66666 6.83578 4.33087 6.5 3.91666 6.5ZM0 12.25V14.75C0 15.1642 0.335781 15.5 0.75 15.5H3.91666C4.33087 15.5 4.66666 15.1642 4.66666 14.75V12.25C4.66666 11.8358 4.33087 11.5 3.91666 11.5H0.75C0.335781 11.5 0 11.8358 0 12.25ZM12.0833 10.5H15.25C15.6642 10.5 16 10.1642 16 9.75V7.25C16 6.83578 15.6642 6.5 15.25 6.5H12.0833C11.6691 6.5 11.3333 6.83578 11.3333 7.25V9.75C11.3333 10.1642 11.6691 10.5 12.0833 10.5ZM12.0833 15.5H15.25C15.6642 15.5 16 15.1642 16 14.75V12.25C16 11.8358 15.6642 11.5 15.25 11.5H12.0833C11.6691 11.5 11.3333 11.8358 11.3333 12.25V14.75C11.3333 15.1642 11.6691 15.5 12.0833 15.5ZM5.66666 12.25V14.75C5.66666 15.1642 6.00244 15.5 6.41666 15.5H9.58331C9.99753 15.5 10.3333 15.1642 10.3333 14.75V12.25C10.3333 11.8358 9.99753 11.5 9.58331 11.5H6.41666C6.00244 11.5 5.66666 11.8358 5.66666 12.25Z" />
</svg>
