<svg viewBox="0 0 14 15" fill="none" xmlns="http://www.w3.org/2000/svg">
<g clip-path="url(#clip0_15151_15061)">
<path d="M2.275 14.5L11.585 14.5C11.9523 14.5 12.25 14.2062 12.25 13.8438L12.25 13.4062C12.25 13.0438 11.9523 12.75 11.585 12.75C11.585 10.2627 10.1714 8.16352 8.23667 7.5C10.1714 6.83648 11.585 4.73732 11.585 2.25C11.9523 2.25 12.25 1.95619 12.25 1.59375L12.25 1.15625C12.25 0.793809 11.9523 0.5 11.585 0.5L2.275 0.499999C1.90773 0.499999 1.61 0.793808 1.61 1.15625L1.61 1.59375C1.61 1.95619 1.90773 2.25 2.275 2.25C2.275 4.73732 3.68857 6.83648 5.62333 7.5C3.68857 8.16352 2.275 10.2627 2.275 12.75C1.90773 12.75 1.61 13.0438 1.61 13.4062L1.61 13.8437C1.61 14.2062 1.90773 14.5 2.275 14.5ZM4.04833 2.25L9.81167 2.25C9.81167 4.36799 8.53143 6.1875 6.93 6.1875C5.32885 6.1875 4.04833 4.36868 4.04833 2.25Z" />
</g>
<defs>
<clipPath id="clip0_15151_15061">
<rect width="14" height="14" fill="white" transform="translate(0 0.5)"/>
</clipPath>
</defs>
</svg>
