<svg viewBox="0 0 48 48" fill="none" xmlns="http://www.w3.org/2000/svg">
<path fill-rule="evenodd" clip-rule="evenodd" d="M14.0937 3L38.2287 4.079L48 25.7943L34.2145 45.6406L9.94832 44.0863L0 20.5579L14.0937 3ZM31.7879 15.5172L14.2964 23.161L29.2505 34.7256L31.7879 15.5172ZM29.7628 11.687L15.7842 5.66695L12.8478 18.3244L29.7628 11.687ZM26.2197 37.6354L11.0277 26.7851L11.3952 41.4879L26.2197 37.6354ZM45.5734 25.7464L35.2209 15.2391L32.4884 35.4442L45.5734 25.7464ZM29.7816 39.9987L16.9691 43.3482L32.0365 44.3132L29.7816 39.9987ZM43.5503 30.5136L32.3348 38.8702L34.5634 43.2263L43.5503 30.5136ZM38.2453 7.11304L36.067 11.5859L44.1752 19.8297L38.2453 7.11304ZM35.5312 4.97263L21.293 4.39456L33.0378 9.53279L35.5312 4.97263ZM12.0145 7.04105L2.04155 19.6368L8.70928 21.0494L12.0145 7.04105ZM8.30723 23.5202L1.60736 22.1014L8.59816 38.5742L8.30723 23.5202Z" fill="#9013FE"/>
</svg>
