<svg viewBox="0 0 49 48" fill="none">
  <path fill-rule="evenodd" clip-rule="evenodd" d="M28.2488 16.6644C28.2488 17.2258 28.1235 17.5488 27.9206 17.7316L33.5277 19.4222C33.6813 19.2884 33.8812 19.2068 34.1003 19.2068C34.5843 19.2068 34.9767 19.6018 34.9767 20.0889C34.9767 20.443 34.7689 20.7476 34.4698 20.8879L36.4321 26.5919C37.0543 26.6919 37.4656 26.8394 37.4656 27.0344C37.4656 27.8347 35.9147 28.4834 34.0017 28.4834C32.0886 28.4834 30.5377 27.8347 30.5377 27.0344C30.5377 26.8271 31.0023 26.6736 31.6908 26.5736L33.6597 20.8505C33.479 20.7443 33.3396 20.5752 33.2712 20.3726C33.2051 20.095 33.0512 19.9198 32.8096 19.8469C32.5208 19.7599 32.2379 19.75 31.9221 19.739C31.523 19.7251 31.0713 19.7094 30.4886 19.5337L27.6398 18.6748V24.5416C27.8617 24.7016 28.0067 24.9627 28.0067 25.2584C28.0067 25.4545 27.9424 25.6351 27.8348 25.7816C28.1241 25.9984 28.3124 26.3444 28.3124 26.7354C28.3124 27.2087 28.0373 27.6161 27.6398 27.8078V29.0326C28.9335 29.1008 29.9191 29.4532 29.9191 29.8777L29.9189 29.8864L29.9182 29.8992C32.0064 30.081 33.4481 30.4683 33.4481 30.9168L33.4584 31.5425C33.4584 32.1657 30.6804 32.6656 27.2474 32.6656C23.8145 32.6656 21.0366 32.1554 21.0366 31.5323L21.0162 30.9168C21.0162 30.4755 22.4123 30.0934 24.4465 29.908C24.4454 29.898 24.4448 29.8878 24.4448 29.8777C24.4448 29.4601 25.3987 29.1123 26.6615 29.0362V27.8275C26.242 27.6448 25.9483 27.2248 25.9483 26.7355C25.9483 26.3445 26.1365 25.9985 26.4259 25.7816C26.3184 25.6351 26.254 25.4546 26.254 25.2584C26.254 24.945 26.4169 24.6705 26.6615 24.514V18.3799L23.4126 17.4003C23.1964 17.3351 22.8799 17.162 22.5418 16.977C22.1539 16.7648 21.7374 16.537 21.4111 16.4386C21.185 16.3704 20.9529 16.4199 20.7149 16.5869C20.669 16.6246 20.6192 16.6574 20.5663 16.6853L22.5244 22.3771C23.1755 22.4771 23.6098 22.6273 23.6098 22.8277C23.6098 23.628 22.0589 24.2768 20.1458 24.2768C18.2327 24.2768 16.6819 23.628 16.6819 22.8277C16.6819 22.6333 17.0906 22.4862 17.7094 22.3862L19.6848 16.6442C19.4438 16.487 19.284 16.2145 19.284 15.9039C19.284 15.4168 19.6763 15.0218 20.1603 15.0218C20.5546 15.0218 20.8879 15.2839 20.998 15.6445L26.0335 17.1627C26.0059 17.0221 25.9911 16.8573 25.9911 16.6644C25.9911 15.9129 26.3674 15.0247 27.1199 14C27.8725 15.0247 28.2488 15.9129 28.2488 16.6644ZM34.2965 20.9479L36.2278 26.5618C35.0091 26.3969 33.1526 26.3918 31.8943 26.5464L33.8276 20.9268C33.9135 20.9551 34.0051 20.9709 34.1004 20.9709C34.1679 20.9709 34.2334 20.9625 34.2965 20.9479ZM17.9139 22.3559L19.85 16.728C19.9466 16.7649 20.0509 16.786 20.1603 16.786C20.2418 16.786 20.3204 16.7739 20.3952 16.753L22.3201 22.3482C21.0596 22.1847 19.1542 22.1873 17.9139 22.3559ZM18.0533 26.8646L14.0308 26.6875L11.6819 29.5699L13.3399 33.4323L17.3843 33.6875L19.6819 30.4295L18.0533 26.8646ZM14.0646 29.9972L16.9799 28.7424L16.557 31.8957L14.0646 29.9972ZM14.3126 27.1253L16.6423 28.1136L13.8232 29.2032L14.3126 27.1253ZM13.5198 30.5921L16.0518 32.3733L13.5811 33.0058L13.5198 30.5921ZM17.552 28.6967L19.2775 30.4216L17.0966 32.0136L17.552 28.6967ZM14.5101 33.3112L16.6455 32.7613L17.0213 33.4696L14.5101 33.3112ZM17.071 32.576L18.9403 31.2042L17.4425 33.2912L17.071 32.576ZM17.693 28.097L18.0561 27.3627L19.0444 29.4503L17.693 28.097ZM15.2307 26.9164L17.6038 27.0113L17.1882 27.7599L15.2307 26.9164ZM12.0221 29.4186L13.6843 27.3509L13.1334 29.6505L12.0221 29.4186ZM11.9498 29.8232L13.0664 30.0562L13.1149 32.5275L11.9498 29.8232Z"/>
</svg>