<svg width="32" height="33" viewBox="0 0 32 33" fill="none" xmlns="http://www.w3.org/2000/svg">
<path fill-rule="evenodd" clip-rule="evenodd" d="M17.4926 11.1957C17.6278 11.0739 17.7114 10.8586 17.7114 10.4843C17.7114 9.98327 17.4605 9.39117 16.9588 8.70801C16.4571 9.39117 16.2062 9.98327 16.2062 10.4843C16.2062 10.6129 16.2161 10.7227 16.2345 10.8165L12.8775 9.80431C12.8041 9.56397 12.5819 9.38923 12.3191 9.38923C11.9964 9.38923 11.7349 9.65251 11.7349 9.97729C11.7349 10.1843 11.8414 10.366 12.002 10.4708L10.6851 14.2988C10.2726 14.3654 10.0001 14.4636 10.0001 14.5931C10.0001 15.1267 11.034 15.5592 12.3094 15.5592C13.5848 15.5592 14.6187 15.1267 14.6187 14.5931C14.6187 14.4596 14.3292 14.3594 13.8951 14.2927L12.5897 10.4982C12.625 10.4796 12.6582 10.4577 12.6888 10.4326C12.8475 10.3212 13.0022 10.2883 13.1529 10.3338C13.3705 10.3993 13.6481 10.5512 13.9067 10.6927C14.1321 10.816 14.3431 10.9314 14.4873 10.9749L16.6532 11.6279V15.7174C16.4901 15.8216 16.3815 16.0047 16.3815 16.2136C16.3815 16.3444 16.4244 16.4648 16.4961 16.5624C16.3032 16.707 16.1777 16.9377 16.1777 17.1983C16.1777 17.5246 16.3736 17.8045 16.6532 17.9264V18.7321C15.8113 18.7828 15.1754 19.0147 15.1754 19.2931C15.1754 19.2999 15.1758 19.3067 15.1765 19.3134C13.8204 19.437 12.8897 19.6917 12.8897 19.9859L12.9033 20.3962C12.9033 20.8116 14.7552 21.1518 17.0438 21.1518C19.3325 21.1518 21.1844 20.8184 21.1844 20.403L21.1776 19.9859C21.1776 19.6869 20.2164 19.4287 18.8243 19.3074C18.8245 19.3046 18.8247 19.3018 18.8248 19.2989C18.8249 19.297 18.8249 19.2951 18.8249 19.2931C18.8249 19.0102 18.1679 18.7752 17.3054 18.7298V17.9132C17.5704 17.7854 17.7538 17.5138 17.7538 17.1983C17.7538 16.9376 17.6283 16.707 17.4354 16.5624C17.5071 16.4647 17.55 16.3444 17.55 16.2136C17.55 16.0165 17.4533 15.8424 17.3054 15.7357V11.8245L19.2046 12.3971C19.5931 12.5143 19.8942 12.5248 20.1602 12.534C20.3708 12.5413 20.5594 12.5479 20.7519 12.606C20.913 12.6545 21.0156 12.7713 21.0597 12.9564C21.1053 13.0915 21.1982 13.2042 21.3186 13.275L20.006 17.0904C19.547 17.157 19.2373 17.2594 19.2373 17.3976C19.2373 17.9311 20.2712 18.3636 21.5466 18.3636C22.822 18.3636 23.8559 17.9311 23.8559 17.3976C23.8559 17.2676 23.5817 17.1693 23.1669 17.1026L21.8587 13.3C22.0581 13.2064 22.1966 13.0034 22.1966 12.7673C22.1966 12.4425 21.9351 12.1792 21.6124 12.1792C21.4663 12.1792 21.333 12.2336 21.2306 12.3228L17.4926 11.1957ZM23.0307 17.0825L21.7432 13.34C21.7011 13.3497 21.6575 13.3553 21.6125 13.3553C21.5489 13.3553 21.4879 13.3447 21.4306 13.3259L20.1418 17.0723C20.9806 16.9692 22.2182 16.9726 23.0307 17.0825ZM12.1122 10.5267L10.8214 14.2786C11.6484 14.1662 12.9186 14.1645 13.7589 14.2735L12.4757 10.5434C12.4258 10.5573 12.3734 10.5653 12.3191 10.5653C12.2461 10.5653 12.1766 10.5513 12.1122 10.5267ZM11.7468 23.1663H8.20011C8.0602 23.1663 7.94678 23.0544 7.94678 22.9163V22.7497C7.94678 22.6116 8.0602 22.4997 8.20011 22.4997C8.20011 21.5521 8.73861 20.7524 9.47567 20.4997C8.73861 20.2469 8.20011 19.4472 8.20011 18.4997C8.0602 18.4997 7.94678 18.3877 7.94678 18.2497V18.083C7.94678 17.9449 8.0602 17.833 8.20011 17.833H11.7468C11.8867 17.833 12.0001 17.9449 12.0001 18.083V18.2497C12.0001 18.3877 11.8867 18.4997 11.7468 18.4997C11.7468 19.4472 11.2083 20.2469 10.4712 20.4997C11.2083 20.7524 11.7468 21.5521 11.7468 22.4997C11.8867 22.4997 12.0001 22.6116 12.0001 22.7497V22.9163C12.0001 23.0544 11.8867 23.1663 11.7468 23.1663ZM11.0712 18.4997H8.87567C8.87567 19.3068 9.36348 19.9997 9.97344 19.9997C10.5835 19.9997 11.0712 19.3065 11.0712 18.4997Z"/>
</svg>
