<svg viewBox="0 0 14 15" xmlns="http://www.w3.org/2000/svg">
<g clip-path="url(#clip0_12054_167323)">
<path fill-rule="evenodd" clip-rule="evenodd" d="M7.79156 3.15129C7.79156 3.52555 7.70712 3.74087 7.57048 3.86274L11.3474 4.98979C11.4509 4.90059 11.5856 4.84623 11.7332 4.84623C12.0592 4.84623 12.3235 5.10951 12.3235 5.43429C12.3235 5.67037 12.1835 5.87337 11.982 5.96696L13.3039 9.76961C13.723 9.83625 14 9.93458 14 10.0646C14 10.5981 12.9553 11.0306 11.6667 11.0306C10.378 11.0306 9.33337 10.5981 9.33337 10.0646C9.33337 9.92642 9.64629 9.82404 10.1101 9.75743L11.4363 5.94197C11.3146 5.8712 11.2207 5.75845 11.1747 5.62343C11.1301 5.43834 11.0265 5.32151 10.8637 5.27295C10.6692 5.2149 10.4786 5.20833 10.2659 5.201C9.99706 5.19174 9.6928 5.18126 9.30029 5.06414L7.38131 4.49154V8.40273C7.53077 8.5094 7.62846 8.68344 7.62846 8.88059C7.62846 9.01134 7.58514 9.13172 7.51265 9.22937C7.70758 9.37395 7.83439 9.60457 7.83439 9.86526C7.83439 10.1808 7.64906 10.4524 7.38131 10.5802V11.3968C8.25276 11.4422 8.91665 11.6771 8.91665 11.9601C8.91665 11.9649 8.91645 11.9697 8.91607 11.9744C10.3227 12.0957 11.2938 12.3539 11.2938 12.6529L11.3007 13.07C11.3007 13.4854 9.42951 13.8188 7.11703 13.8188C4.80456 13.8188 2.93338 13.4786 2.93338 13.0632L2.91966 12.6529C2.91966 12.3587 3.86005 12.104 5.2303 11.9804C5.22955 11.9736 5.22916 11.9669 5.22916 11.9601C5.22916 11.6817 5.87174 11.4498 6.72236 11.3991V10.5934C6.43979 10.4715 6.2419 10.1916 6.2419 9.86531C6.2419 9.60465 6.36871 9.37399 6.56364 9.22941C6.49119 9.13176 6.44782 9.01142 6.44782 8.88063C6.44782 8.67167 6.55754 8.48864 6.72236 8.38435V4.29493L4.53389 3.64186C4.38825 3.5984 4.17506 3.48298 3.94728 3.35966L3.94727 3.35966L3.94727 3.35966L3.94726 3.35966L3.94726 3.35966C3.68597 3.2182 3.40547 3.06634 3.18566 3.00075C3.03336 2.9553 2.87703 2.98824 2.71666 3.09957C2.68578 3.12472 2.65221 3.14659 2.61659 3.16518L3.93556 6.95973C4.37412 7.02642 4.66664 7.12656 4.66664 7.26014C4.66664 7.79367 3.62198 8.22618 2.33332 8.22618C1.04466 8.22618 0 7.79367 0 7.26014C0 7.13055 0.275299 7.03244 0.692166 6.9658L2.02279 3.13777C1.86048 3.03298 1.75282 2.85131 1.75282 2.64428C1.75282 2.3195 2.0171 2.05622 2.34312 2.05622C2.60872 2.05622 2.83322 2.23096 2.90739 2.47131L6.29933 3.48345C6.2807 3.38972 6.27073 3.27989 6.27073 3.15129C6.27073 2.65026 6.5242 2.05816 7.03114 1.375C7.53808 2.05816 7.79156 2.65026 7.79156 3.15129ZM11.8653 6.00696L13.1662 9.74952C12.3453 9.63958 11.0947 9.63618 10.2472 9.73929L11.5495 5.99285C11.6073 6.01172 11.669 6.02227 11.7332 6.02227C11.7787 6.02227 11.8228 6.01665 11.8653 6.00696ZM0.829894 6.94559L2.13407 3.19369C2.19914 3.21827 2.2694 3.23234 2.34312 3.23234C2.39802 3.23234 2.45094 3.2243 2.50135 3.21035L3.79797 6.9405C2.9489 6.83147 1.66543 6.83317 0.829894 6.94559Z" />
</g>
<defs>
<clipPath id="clip0_12054_167323">
<rect transform="translate(0 0.5)"/>
</clipPath>
</defs>
</svg>
