<svg width="48" height="48" viewBox="0 0 48 48" fill="none" xmlns="http://www.w3.org/2000/svg">
<path fill-rule="evenodd" clip-rule="evenodd" d="M35.3 27.2703C35.3012 27.2879 35.3012 27.3057 35.3 27.3233V27.2703ZM19.8194 18.1093C19.4769 17.4628 18.4083 16.3099 16.8164 16.5824C16.2011 16.6715 15.6341 16.9658 15.2072 17.4176C14.7802 17.8695 14.5186 18.4524 14.4646 19.0717C14.458 19.1835 14.4959 19.2935 14.57 19.3775C14.6441 19.4615 14.7484 19.5129 14.8602 19.5203H14.8891C14.9949 19.5202 15.0969 19.4805 15.1749 19.4091C15.253 19.3377 15.3016 19.2397 15.3113 19.1344C15.3559 18.7065 15.5423 18.3058 15.8408 17.9959C16.1393 17.6861 16.5327 17.4848 16.9587 17.4242C18.3384 17.183 19.0427 18.4614 19.0692 18.5145C19.122 18.614 19.2122 18.6884 19.3198 18.7214C19.4275 18.7544 19.5438 18.7433 19.6433 18.6906C19.7428 18.6378 19.8172 18.5477 19.8502 18.44C19.8833 18.3323 19.8722 18.216 19.8194 18.1165V18.1093ZM28.8357 16.3678C28.4932 15.7213 27.4246 14.5684 25.8327 14.8409C25.2174 14.9299 24.6503 15.2243 24.2234 15.6761C23.7965 16.128 23.5349 16.7109 23.4809 17.3302C23.4743 17.4427 23.5124 17.5532 23.587 17.6377C23.6615 17.7222 23.7665 17.7738 23.8789 17.7812H23.9054C24.0131 17.7808 24.1167 17.7395 24.1951 17.6656C24.2734 17.5917 24.3208 17.4907 24.3275 17.3832C24.3593 17.1193 24.4412 16.8639 24.5687 16.6307C24.7095 16.3696 24.9105 16.1459 25.1551 15.9781C25.3997 15.8103 25.6807 15.7032 25.975 15.6658C27.3547 15.4246 28.059 16.703 28.0855 16.7561C28.1387 16.8552 28.229 16.9291 28.3366 16.9617C28.4443 16.9942 28.5604 16.9827 28.6596 16.9298C28.7568 16.878 28.8298 16.79 28.8628 16.6848C28.8957 16.5797 28.886 16.4658 28.8357 16.3678ZM23.6835 2.44776C22.7402 2.44811 21.7977 2.5061 20.8614 2.62143C20.7495 2.92726 20.5649 3.20127 20.3235 3.41982L21.0833 6.01761C21.4355 5.98866 21.7876 5.97419 22.1398 5.97419C26.4574 5.97419 30.3722 8.15952 32.7529 12.5953C32.7529 12.5953 33.7732 14.4236 34.504 17.581C35.8717 17.5087 37.1332 18.6857 37.3744 20.3139C37.6156 21.8624 36.8389 23.288 35.6208 23.7101L36.3444 27.8347C36.3918 28.0894 36.3444 28.3526 36.2111 28.5748C36.0778 28.7969 35.8678 28.9627 35.6208 29.0407C23.8379 33.5489 12.658 33.3824 12.658 33.3824C12.4072 33.3999 12.1589 33.3237 11.9611 33.1686C11.7633 33.0136 11.63 32.7907 11.587 32.543L10.8224 28.2013C10.6805 28.2065 10.5383 28.1984 10.3979 28.1772C8.95065 27.9625 7.98582 26.3971 8.22703 24.6821C8.28936 24.1835 8.46474 23.7057 8.73979 23.2852C9.01485 22.8647 9.38232 22.5125 9.81417 22.2556C9.65738 20.9893 9.45718 18.9101 9.59708 17.4122L9.61879 17.2168C9.64291 17.019 9.67185 16.8309 9.71045 16.6596C10.5064 11.3024 13.893 7.77359 18.4373 6.49519L18.2636 3.79369C17.9878 3.68181 17.7405 3.50955 17.54 3.28957C13.6154 4.38755 10.0599 6.52454 7.24868 9.47505C4.43749 12.4256 2.47484 16.0802 1.56783 20.0533C0.660822 24.0264 0.843078 28.1707 2.09537 32.0488C3.34767 35.927 5.62356 39.3952 8.68291 42.0876C10.8538 38.7903 13.6662 37.1018 15.345 38.0715L15.4101 38.1101C16.3283 36.7478 17.5941 35.656 19.0765 34.9479C21.2348 33.9559 23.5852 33.4518 25.9605 33.4717C28.5612 33.4481 31.1282 34.0608 33.4379 35.2566C33.7533 34.4164 34.1381 33.604 34.5884 32.8277C35.6112 31.0548 36.8895 29.5666 38.1921 28.6331C39.5935 27.6273 40.8839 27.3716 41.8101 27.9095C42.7364 28.4474 43.173 29.6968 43.0017 31.4142C42.8425 33.0086 42.1937 34.861 41.1709 36.6315C40.3085 38.1828 39.1564 39.5543 37.7772 40.6717C37.9522 41.2899 38.0574 41.9259 38.0908 42.5676C41.6921 39.6016 44.2893 35.5956 45.5272 31.0973C46.7651 26.5991 46.5832 21.8283 45.0064 17.4374C43.4296 13.0464 40.5349 9.24979 36.7181 6.56669C32.9014 3.88359 28.349 2.44503 23.6835 2.44776ZM25.9267 22.9647C25.8877 22.9251 25.8411 22.8936 25.7898 22.8721C25.7384 22.8505 25.6833 22.8395 25.6276 22.8395C25.572 22.8395 25.5168 22.8505 25.4655 22.8721C25.4142 22.8936 25.3676 22.9251 25.3285 22.9647C25.3285 22.9647 24.6049 23.6425 23.136 23.9054C22.2811 24.0642 21.401 24.0229 20.5647 23.7848C20.5113 23.7615 20.4536 23.7493 20.3952 23.7492C20.3369 23.7491 20.2791 23.7611 20.2256 23.7843C20.1721 23.8075 20.1239 23.8415 20.0841 23.8842C20.0443 23.9269 20.0137 23.9773 19.9943 24.0323C19.9748 24.0873 19.9669 24.1457 19.9711 24.2039C19.9752 24.2621 19.9913 24.3188 20.0184 24.3705C20.0454 24.4222 20.0828 24.4678 20.1283 24.5044C20.1737 24.541 20.2262 24.5678 20.2825 24.5832C20.8595 24.7568 21.4602 24.8382 22.0626 24.8244C22.4719 24.8246 22.8803 24.7883 23.2831 24.7159C25.0029 24.4096 25.8761 23.5871 25.9123 23.5509C25.9907 23.4744 26.0361 23.3703 26.0388 23.2608C26.0415 23.1512 26.0013 23.045 25.9267 22.9647ZM27.497 8.16434C27.4661 9.20471 27.1544 10.2174 26.5949 11.095C28.2679 11.2699 29.9179 11.62 31.5179 12.1394C30.5307 10.4993 29.1483 9.13265 27.497 8.16434ZM14.8264 45.9541L14.6938 45.8962L14.8337 45.9565L14.8264 45.9541ZM14.9084 38.8289C14.7119 38.7188 14.4896 38.663 14.2644 38.6673C12.9185 38.6673 10.902 40.3026 9.36311 42.6423V42.6568C10.728 43.7698 12.2183 44.7194 13.8037 45.4861V43.3539C13.8042 41.7808 14.2025 40.2333 14.9615 38.8554L14.9084 38.8289Z" fill="#7BC8F9"/>
<path fill-rule="evenodd" clip-rule="evenodd" d="M15.2028 13.0587C13.5611 13.8884 12.0337 14.927 10.6584 16.1486C11.0313 13.9614 12.0309 11.9295 13.536 10.2993C13.8247 11.356 14.4018 12.3115 15.2028 13.0587Z" fill="white"/>
<path fill-rule="evenodd" clip-rule="evenodd" d="M31.518 12.1396C29.918 11.6202 28.268 11.2701 26.595 11.0952C27.1554 10.2178 27.4679 9.20515 27.4995 8.16455C29.1499 9.13318 30.5315 10.4998 31.518 12.1396Z" fill="white"/>
<path fill-rule="evenodd" clip-rule="evenodd" d="M37.3745 20.3141C37.1333 18.686 35.8718 17.5089 34.5041 17.5812C33.7805 14.4239 32.753 12.5955 32.753 12.5955C30.3819 8.15974 26.4671 5.97441 22.1399 5.97441C21.7878 5.97441 21.4356 5.98889 21.0834 6.01783L20.3236 3.42004C20.5615 3.20042 20.7428 2.9265 20.8519 2.62165C20.9671 2.30107 20.9954 1.9557 20.9339 1.62064C20.8809 1.32688 20.7618 1.04901 20.5857 0.807989C20.4096 0.566972 20.181 0.369113 19.9172 0.229349C19.6535 0.089586 19.3614 0.0115701 19.0631 0.00119157C18.7647 -0.00918695 18.468 0.0483429 18.1951 0.169438C17.9223 0.290534 17.6805 0.47203 17.4881 0.700226C17.2956 0.928422 17.1576 1.19735 17.0842 1.48672C17.0109 1.77609 17.0043 2.07832 17.0649 2.37062C17.1255 2.66291 17.2517 2.93762 17.434 3.17401L17.5305 3.28979C17.731 3.50978 17.9782 3.68203 18.2541 3.79391L18.4278 6.49542C13.8931 7.77381 10.5065 11.3027 9.71056 16.6574C9.67197 16.8287 9.64303 17.0168 9.61891 17.2146L9.5972 17.41C9.4573 18.9079 9.6575 20.9871 9.81428 22.2534C9.38259 22.5108 9.01541 22.8635 8.74076 23.2844C8.46612 23.7054 8.29127 24.1835 8.22956 24.6824C7.97388 26.3973 8.95318 27.9628 10.4004 28.1774C10.5409 28.1986 10.683 28.2067 10.8249 28.2015L11.5896 32.5433C11.6325 32.7909 11.7658 33.0138 11.9637 33.1689C12.1615 33.3239 12.4098 33.4001 12.6605 33.3827C12.6605 33.3827 23.8404 33.5443 35.6233 29.0409C35.8704 28.9629 36.0803 28.7972 36.2136 28.575C36.3469 28.3529 36.3943 28.0896 36.3469 27.8349L35.6233 23.7103C36.839 23.2882 37.606 21.8627 37.3745 20.3141ZM31.518 12.1396C29.9181 11.6202 28.268 11.2701 26.595 11.0952C27.1554 10.2178 27.4679 9.20516 27.4995 8.16456C29.15 9.13319 30.5315 10.4998 31.518 12.1396ZM19.0983 7.1322L18.7076 3.1909C18.5922 3.16667 18.4809 3.12606 18.3771 3.07029C18.1242 2.93663 17.9225 2.72331 17.8031 2.46337C17.6838 2.20343 17.6535 1.91139 17.7169 1.63248C17.7804 1.35358 17.934 1.10339 18.1541 0.92066C18.3741 0.737933 18.6483 0.632875 18.9341 0.62176C19.2199 0.610645 19.5014 0.694094 19.735 0.85918C19.9686 1.02427 20.1412 1.26177 20.2261 1.5349C20.311 1.80804 20.3035 2.10155 20.2047 2.36997C20.1059 2.6384 19.9213 2.86674 19.6796 3.01964L20.6444 6.8524C22.6743 6.58699 24.7381 6.88575 26.6095 7.71592C26.6649 8.0922 26.7518 9.38748 25.6229 11.0132C23.856 10.8911 22.0808 10.9891 20.3381 11.3051C18.8471 11.5834 17.3951 12.0402 16.0133 12.6655C14.4213 11.2399 14.2935 9.81441 14.2742 9.59009C15.6604 8.3936 17.3155 7.55031 19.0983 7.1322ZM13.5361 10.2992C13.8247 11.3559 14.4019 12.3114 15.2028 13.0586C13.5612 13.8884 12.0337 14.9269 10.6585 16.1485C11.0314 13.9613 12.031 11.9294 13.5361 10.2992ZM35.2929 27.4755C35.2929 27.49 35.2929 27.5045 35.2929 27.5189C35.2676 27.7291 35.1874 27.9289 35.0603 28.0983C34.9333 28.2677 34.7639 28.4006 34.5693 28.4838C34.4916 28.5218 34.4109 28.5533 34.3281 28.5778C32.3178 29.3023 30.2721 29.9246 28.199 30.4424C25.6647 31.0712 23.0965 31.5544 20.5069 31.8896C18.1787 32.2153 15.8315 32.3861 13.4806 32.4009H13.3287H13.278L13.2056 32.3865L13.1357 32.3696L13.0657 32.3479L12.9982 32.3213L12.9307 32.29L12.8824 32.2659L12.8487 32.2466L12.8149 32.2273L12.7763 32.2007L12.7136 32.1525C12.68 32.1269 12.6485 32.0987 12.6195 32.0681C12.593 32.044 12.5713 32.0198 12.5471 31.9933L12.5254 31.9619C12.5161 31.9526 12.508 31.942 12.5013 31.9306L12.47 31.8872L12.4362 31.8365L12.4169 31.8028C12.4079 31.7888 12.3999 31.7743 12.3928 31.7593C12.3928 31.7352 12.3711 31.7135 12.3614 31.6894L12.3494 31.6604L12.3349 31.6218C12.3298 31.6102 12.3258 31.5981 12.3228 31.5857C12.3228 31.564 12.3084 31.5398 12.3035 31.5181C12.3035 31.4916 12.2915 31.4627 12.2866 31.4337L12.0864 30.2807C16.2073 29.9395 20.3083 29.3897 24.3735 28.6333C30.2734 27.5455 33.8215 26.4263 35.0879 25.98L35.071 25.8836L35.0903 25.98L35.276 27.0582C35.2899 27.1331 35.2979 27.2089 35.3001 27.285V27.3356C35.3001 27.3774 35.2977 27.4241 35.2929 27.4755ZM35.4472 22.7213C35.3246 22.7738 35.1957 22.8103 35.0637 22.8299C34.8905 22.8589 34.7136 22.8589 34.5403 22.8299L34.7164 23.8405L34.9335 25.0828H34.919C34.3425 25.2854 32.8109 25.8064 30.3361 26.4142C28.7007 26.8267 26.6553 27.285 24.2046 27.736C19.9425 28.5199 16.322 28.9589 14.074 29.1833C13.0826 29.2846 12.3518 29.3425 11.9465 29.3738L11.7053 27.9941L11.5365 27.0293C11.2679 27.1695 10.9655 27.2322 10.6633 27.2102H10.5596C9.56584 27.0631 8.90011 26.0042 9.07619 24.8174C9.11163 24.5137 9.20732 24.22 9.35767 23.9537C9.50801 23.6874 9.70999 23.4537 9.95177 23.2665C10.2004 23.0819 10.4949 22.9693 10.8032 22.9408L10.7092 22.4005C10.685 22.2558 10.6609 22.1135 10.6392 21.9712C10.3966 20.4943 10.3383 18.9929 10.4655 17.5016C11.2085 16.7467 14.9616 13.1599 20.4997 12.1396C26.443 11.0422 31.7086 13.1045 32.1427 13.2805C32.8421 14.7118 33.349 16.2293 33.6503 17.7935C33.6864 17.972 33.7202 18.1553 33.754 18.3362L33.8336 18.8018C34.0143 18.6893 34.2163 18.6153 34.4269 18.5847C34.5195 18.5703 34.6132 18.5654 34.7067 18.5702C35.592 18.5991 36.3831 19.3806 36.5399 20.4419C36.6967 21.4526 36.2215 22.3909 35.4472 22.7213Z" fill="white"/>
<path fill-rule="evenodd" clip-rule="evenodd" d="M25.9146 23.5632C25.8785 23.5993 25.0053 24.4219 23.2855 24.7282C22.8827 24.8006 22.4742 24.8369 22.065 24.8367C21.4626 24.8505 20.8619 24.7691 20.2849 24.5955C20.2317 24.5771 20.1826 24.5485 20.1405 24.5111C20.0983 24.4738 20.064 24.4285 20.0393 24.3779C20.0147 24.3273 20.0003 24.2723 19.9969 24.2161C19.9935 24.1599 20.0012 24.1036 20.0196 24.0504C20.0379 23.9972 20.0666 23.9481 20.1039 23.906C20.1413 23.8638 20.1866 23.8295 20.2372 23.8048C20.2878 23.7802 20.3428 23.7658 20.399 23.7624C20.4552 23.759 20.5115 23.7667 20.5647 23.7851C21.4012 24.0187 22.2803 24.0559 23.1335 23.8936C24.6025 23.6307 25.3189 22.9577 25.3261 22.9529C25.407 22.8752 25.5155 22.8328 25.6277 22.835C25.7399 22.8373 25.8466 22.884 25.9243 22.965C26.002 23.0459 26.0444 23.1544 26.0421 23.2666C26.0399 23.3787 25.9932 23.4854 25.9122 23.5632H25.9146Z" fill="white"/>
<path fill-rule="evenodd" clip-rule="evenodd" d="M19.6433 18.6835C19.5437 18.7356 19.4276 18.7464 19.3201 18.7134C19.2126 18.6804 19.1225 18.6064 19.0692 18.5074C19.0427 18.4543 18.3456 17.1807 16.9587 17.4171C16.5316 17.4781 16.1373 17.6803 15.8387 17.9916C15.5401 18.3029 15.3544 18.7053 15.3112 19.1345C15.3033 19.2412 15.2555 19.3409 15.1772 19.4138C15.099 19.4867 14.9961 19.5274 14.8891 19.5277H14.8602C14.7484 19.5202 14.6441 19.4689 14.57 19.3849C14.4959 19.3008 14.458 19.1909 14.4646 19.079C14.5186 18.4597 14.7802 17.8769 15.2071 17.425C15.6341 16.9731 16.2011 16.6788 16.8164 16.5898C18.4083 16.3172 19.4696 17.4702 19.8194 18.1166C19.8693 18.2155 19.8788 18.3299 19.846 18.4356C19.8131 18.5414 19.7404 18.6303 19.6433 18.6835Z" fill="white"/>
<path fill-rule="evenodd" clip-rule="evenodd" d="M28.6597 16.9399C28.5605 16.9928 28.4443 17.0043 28.3367 16.9718C28.2291 16.9392 28.1388 16.8653 28.0856 16.7662C28.0591 16.7131 27.362 15.442 25.975 15.6759C25.6808 15.7133 25.3997 15.8204 25.1551 15.9882C24.9106 16.156 24.7096 16.3797 24.5688 16.6408C24.4412 16.874 24.3594 17.1294 24.3276 17.3933C24.3209 17.5008 24.2735 17.6018 24.1951 17.6757C24.1168 17.7496 24.0132 17.7909 23.9055 17.7913H23.879C23.7665 17.7839 23.6616 17.7323 23.587 17.6478C23.5125 17.5633 23.4743 17.4528 23.481 17.3403C23.5349 16.721 23.7966 16.1381 24.2235 15.6862C24.6504 15.2344 25.2175 14.94 25.8327 14.851C27.4247 14.5785 28.486 15.7314 28.8357 16.3779C28.886 16.4759 28.8958 16.5898 28.8628 16.6949C28.8299 16.8001 28.7569 16.8881 28.6597 16.9399Z" fill="white"/>
<path fill-rule="evenodd" clip-rule="evenodd" d="M35.0877 25.9632H35.0852L35.0684 25.8667L35.0877 25.9632Z" fill="white"/>
<path fill-rule="evenodd" clip-rule="evenodd" d="M35.3 27.3358C35.3013 27.3181 35.3013 27.3004 35.3 27.2827V27.3358Z" fill="white"/>
<path fill-rule="evenodd" clip-rule="evenodd" d="M15.2028 13.0587C13.5611 13.8884 12.0337 14.927 10.6584 16.1486C11.0313 13.9614 12.0309 11.9295 13.536 10.2993C13.8247 11.356 14.4018 12.3115 15.2028 13.0587Z" fill="#4AA8F7"/>
<path fill-rule="evenodd" clip-rule="evenodd" d="M31.518 12.1396C29.918 11.6202 28.268 11.2701 26.595 11.0952C27.1554 10.2178 27.4679 9.20515 27.4995 8.16455C29.1499 9.13318 30.5315 10.4998 31.518 12.1396Z" fill="#4AA8F7"/>
<path fill-rule="evenodd" clip-rule="evenodd" d="M36.5446 20.4393C36.3878 19.378 35.5967 18.5965 34.7114 18.5676C34.6179 18.5628 34.5242 18.5677 34.4316 18.582C34.221 18.6127 34.019 18.6866 33.8383 18.7991L33.7587 18.3336C33.7249 18.1527 33.6911 17.9694 33.655 17.7909C33.3522 16.2264 32.8436 14.7089 32.1426 13.2779C31.7084 13.1018 26.4429 11.0395 20.4996 12.137C14.9518 13.1597 11.2083 16.7441 10.4654 17.499C10.3382 18.9903 10.3965 20.4916 10.6391 21.9686C10.6608 22.1109 10.6849 22.2532 10.709 22.3979L10.8031 22.9382C10.4948 22.9666 10.2002 23.0793 9.95163 23.2639C9.70747 23.4475 9.50237 23.6779 9.3483 23.9418C9.19424 24.2056 9.0943 24.4975 9.05435 24.8003C8.87827 25.975 9.53676 27.046 10.5378 27.1931H10.6415C10.9437 27.2151 11.2461 27.1525 11.5146 27.0122L11.6835 27.977L11.9247 29.3567C12.3299 29.3254 13.0608 29.2675 14.0521 29.1662C16.3122 28.937 19.9327 28.498 24.1949 27.7189C26.6455 27.2679 28.6909 26.8096 30.3263 26.3971C32.7963 25.7772 34.3279 25.2683 34.9092 25.0657H34.9237L34.7066 23.8235L34.5305 22.8128C34.7038 22.8418 34.8807 22.8418 35.0539 22.8128C35.1859 22.7932 35.3148 22.7567 35.4375 22.7043C36.2214 22.3907 36.6966 21.4524 36.5446 20.4393ZM19.6433 18.6833C19.5437 18.7355 19.4276 18.7463 19.3201 18.7133C19.2126 18.6803 19.1225 18.6063 19.0692 18.5073C19.0427 18.4542 18.3456 17.1806 16.9587 17.417C16.5316 17.4779 16.1373 17.6802 15.8387 17.9915C15.5401 18.3028 15.3544 18.7052 15.3112 19.1344C15.3033 19.2411 15.2555 19.3408 15.1772 19.4137C15.099 19.4866 14.9961 19.5273 14.8891 19.5276H14.8602C14.7484 19.5201 14.6441 19.4688 14.57 19.3847C14.4959 19.3007 14.458 19.1908 14.4646 19.0789C14.5186 18.4596 14.7802 17.8768 15.2071 17.4249C15.634 16.973 16.2011 16.6787 16.8164 16.5897C18.4083 16.3171 19.4696 17.4701 19.8194 18.1165C19.8693 18.2154 19.8788 18.3298 19.8459 18.4355C19.8131 18.5413 19.7404 18.6302 19.6433 18.6833ZM25.9146 23.5629C25.8785 23.5991 25.0053 24.4216 23.2855 24.728C22.8827 24.8004 22.4743 24.8367 22.065 24.8365C21.4626 24.8503 20.8619 24.7689 20.2849 24.5953C20.2317 24.5769 20.1826 24.5483 20.1405 24.5109C20.0983 24.4736 20.064 24.4283 20.0393 24.3777C20.0147 24.3271 20.0003 24.2721 19.9969 24.2159C19.9935 24.1597 20.0012 24.1034 20.0196 24.0502C20.0379 23.997 20.0666 23.9479 20.104 23.9058C20.1413 23.8636 20.1866 23.8293 20.2372 23.8046C20.2878 23.78 20.3428 23.7656 20.399 23.7622C20.4552 23.7588 20.5115 23.7665 20.5647 23.7849C21.4012 24.0185 22.2803 24.0557 23.1335 23.8934C24.6025 23.6305 25.3189 22.9575 25.3261 22.9527C25.407 22.875 25.5155 22.8326 25.6277 22.8348C25.7399 22.8371 25.8466 22.8838 25.9243 22.9648C26.002 23.0457 26.0444 23.1542 26.0422 23.2664C26.0399 23.3785 25.9932 23.4852 25.9122 23.5629H25.9146ZM28.6596 16.9394C28.5604 16.9924 28.4442 17.0039 28.3366 16.9713C28.229 16.9388 28.1387 16.8648 28.0855 16.7658C28.059 16.7127 27.3619 15.4415 25.975 15.6755C25.6807 15.7129 25.3996 15.8199 25.1551 15.9877C24.9105 16.1555 24.7095 16.3793 24.5687 16.6403C24.4412 16.8736 24.3593 17.129 24.3275 17.3929C24.3208 17.5004 24.2734 17.6013 24.195 17.6752C24.1167 17.7491 24.0131 17.7905 23.9054 17.7909H23.8789C23.7664 17.7834 23.6615 17.7318 23.5869 17.6474C23.5124 17.5629 23.4743 17.4523 23.4809 17.3398C23.5348 16.7205 23.7965 16.1377 24.2234 15.6858C24.6503 15.2339 25.2174 14.9396 25.8326 14.8506C27.4246 14.578 28.4859 15.731 28.8357 16.3774C28.886 16.4755 28.8957 16.5893 28.8627 16.6945C28.8298 16.7996 28.7568 16.8876 28.6596 16.9394Z" fill="#7BC8F9"/>
<path fill-rule="evenodd" clip-rule="evenodd" d="M19.6433 18.6835C19.5437 18.7356 19.4276 18.7464 19.3201 18.7134C19.2126 18.6804 19.1225 18.6064 19.0692 18.5074C19.0427 18.4543 18.3456 17.1807 16.9587 17.4171C16.5316 17.4781 16.1373 17.6803 15.8387 17.9916C15.5401 18.3029 15.3544 18.7053 15.3112 19.1345C15.3033 19.2412 15.2555 19.3409 15.1772 19.4138C15.099 19.4867 14.9961 19.5274 14.8891 19.5277H14.8602C14.7484 19.5202 14.6441 19.4689 14.57 19.3849C14.4959 19.3008 14.458 19.1909 14.4646 19.079C14.5186 18.4597 14.7802 17.8769 15.2071 17.425C15.6341 16.9731 16.2011 16.6788 16.8164 16.5898C18.4083 16.3172 19.4696 17.4702 19.8194 18.1166C19.8693 18.2155 19.8788 18.3299 19.846 18.4356C19.8131 18.5414 19.7404 18.6303 19.6433 18.6835Z" fill="#4AA8F7"/>
<path fill-rule="evenodd" clip-rule="evenodd" d="M28.6597 16.9399C28.5605 16.9928 28.4443 17.0043 28.3367 16.9718C28.2291 16.9392 28.1388 16.8653 28.0856 16.7662C28.0591 16.7131 27.362 15.442 25.975 15.6759C25.6808 15.7133 25.3997 15.8204 25.1551 15.9882C24.9106 16.156 24.7096 16.3797 24.5688 16.6408C24.4412 16.874 24.3594 17.1294 24.3276 17.3933C24.3209 17.5008 24.2735 17.6018 24.1951 17.6757C24.1168 17.7496 24.0132 17.7909 23.9055 17.7913H23.879C23.7665 17.7839 23.6616 17.7323 23.587 17.6478C23.5125 17.5633 23.4743 17.4528 23.481 17.3403C23.5349 16.721 23.7966 16.1381 24.2235 15.6862C24.6504 15.2344 25.2175 14.94 25.8327 14.851C27.4247 14.5785 28.486 15.7314 28.8357 16.3779C28.886 16.4759 28.8958 16.5898 28.8628 16.6949C28.8299 16.8001 28.7569 16.8881 28.6597 16.9399Z" fill="#4AA8F7"/>
<path fill-rule="evenodd" clip-rule="evenodd" d="M31.518 12.1396C29.918 11.6202 28.268 11.2701 26.595 11.0952C27.1554 10.2178 27.4679 9.20515 27.4995 8.16455C29.1499 9.13318 30.5315 10.4998 31.518 12.1396Z" fill="#1746BD"/>
<path fill-rule="evenodd" clip-rule="evenodd" d="M15.2028 13.0587C13.5611 13.8884 12.0337 14.927 10.6584 16.1486C11.0313 13.9614 12.0309 11.9295 13.536 10.2993C13.8247 11.356 14.4018 12.3115 15.2028 13.0587Z" fill="#1746BD"/>
<path fill-rule="evenodd" clip-rule="evenodd" d="M34.0094 36.4028L33.9877 36.4824L33.9226 36.4365C33.9226 36.41 33.9371 36.3835 33.9443 36.3569L34.0094 36.4028Z" fill="#4AA8F7"/>
<path fill-rule="evenodd" clip-rule="evenodd" d="M41.9428 32.4394C41.6187 33.756 41.1035 35.0181 40.4136 36.1854C39.6572 37.5419 38.6685 38.7551 37.4925 39.7697C36.8356 38.1249 35.6994 36.7155 34.2314 35.7246C34.5393 34.8759 34.9227 34.0565 35.3772 33.2764C35.9643 32.2435 36.6773 31.2875 37.4998 30.4302C38.8028 31.4389 40.3248 32.1272 41.9428 32.4394Z" fill="#4AA8F7"/>
<path fill-rule="evenodd" clip-rule="evenodd" d="M42.1285 31.3277C42.1285 31.4194 42.1092 31.511 42.0972 31.6051C40.6572 31.3209 39.2995 30.7167 38.1245 29.837C38.3247 29.6658 38.5249 29.5066 38.7251 29.3546C39.4801 28.8143 40.1724 28.5297 40.7512 28.5297C40.9719 28.524 41.19 28.5773 41.3832 28.6841C41.9886 29.0411 42.2733 30.0035 42.1285 31.3277Z" fill="#4AA8F7"/>
<path d="M42.1285 31.3277C42.1285 31.4194 42.1092 31.511 42.0972 31.6051C40.6572 31.3209 39.2995 30.7167 38.1245 29.837C38.3247 29.6658 38.5249 29.5066 38.7251 29.3546C39.4801 28.8143 40.1724 28.5297 40.7512 28.5297C40.9719 28.524 41.19 28.5773 41.3832 28.6841C41.9886 29.0411 42.2733 30.0035 42.1285 31.3277Z" fill="#1746BD"/>
<path d="M33.9443 36.3569C33.9443 36.3835 33.9274 36.41 33.9226 36.4365L33.9877 36.4824L34.0094 36.4028L33.9443 36.3569ZM33.9443 36.3569C33.9443 36.3835 33.9274 36.41 33.9226 36.4365L33.9877 36.4824L34.0094 36.4028L33.9443 36.3569ZM33.9443 36.3569C33.9443 36.3835 33.9274 36.41 33.9226 36.4365L33.9877 36.4824L34.0094 36.4028L33.9443 36.3569ZM33.9443 36.3569C33.9443 36.3835 33.9274 36.41 33.9226 36.4365L33.9877 36.4824L34.0094 36.4028L33.9443 36.3569ZM33.9443 36.3569C33.9443 36.3835 33.9274 36.41 33.9226 36.4365L33.9877 36.4824L34.0094 36.4028L33.9443 36.3569ZM33.9443 36.3569C33.9443 36.3835 33.9274 36.41 33.9226 36.4365L33.9877 36.4824L34.0094 36.4028L33.9443 36.3569ZM33.9443 36.3569C33.9443 36.3835 33.9274 36.41 33.9226 36.4365L33.9877 36.4824L34.0094 36.4028L33.9443 36.3569ZM33.9443 36.3569C33.9443 36.3835 33.9274 36.41 33.9226 36.4365L33.9877 36.4824L34.0094 36.4028L33.9443 36.3569ZM33.9443 36.3569C33.9443 36.3835 33.9274 36.41 33.9226 36.4365L33.9877 36.4824L34.0094 36.4028L33.9443 36.3569ZM33.9443 36.3569C33.9443 36.3835 33.9274 36.41 33.9226 36.4365L33.9877 36.4824L34.0094 36.4028L33.9443 36.3569Z" fill="white"/>
<path fill-rule="evenodd" clip-rule="evenodd" d="M14.9543 38.8554C14.1953 40.2333 13.7971 41.7808 13.7966 43.3539V45.4862C12.2111 44.7194 10.7208 43.7698 9.35596 42.6568V42.6424C10.9021 40.3027 12.9186 38.6721 14.2645 38.6721C14.4897 38.6678 14.712 38.7236 14.9085 38.8337L14.9543 38.8554Z" fill="#4AA8F7"/>
<path d="M14.8265 45.9544L14.6938 45.8965L14.8337 45.9568L14.8265 45.9544Z" fill="white"/>
<path d="M14.8265 45.9544L14.6938 45.8965L14.8337 45.9568L14.8265 45.9544Z" fill="white"/>
<path d="M15.7117 46.3062L15.5887 46.2628L15.3885 46.1832L15.21 46.1133L15.7117 46.3062Z" fill="#1746BD"/>
<path d="M15.9674 46.4029H15.9408L15.854 46.3691L15.9674 46.4029Z" fill="#1746BD"/>
<path d="M22.5282 47.7174C22.3376 47.7174 22.1471 47.6981 21.9565 47.6836L22.5282 47.7174Z" fill="#1746BD"/>
<path d="M24.424 47.7344C24.1828 47.7344 23.9416 47.7464 23.6835 47.7464C23.9416 47.7464 24.1828 47.744 24.424 47.7344Z" fill="#1746BD"/>
<path d="M26.3706 47.5967C26.0498 47.6353 25.7266 47.6666 25.4058 47.6907C25.7266 47.657 26.0498 47.628 26.3706 47.5967Z" fill="#1746BD"/>
<path d="M37.2804 42.7365V43.2189L37.1959 43.2816L37.167 43.3033L37.1381 43.325C36.8969 43.4987 36.6556 43.6675 36.4144 43.8315C36.371 43.8629 36.3276 43.8894 36.2842 43.9184L36.1732 43.9932L36.0116 44.0993L35.8162 44.2247L35.5895 44.367L35.4231 44.4683L35.3025 44.5407C35.2446 44.5769 35.1891 44.6106 35.1312 44.642C35.0227 44.7071 34.9117 44.7698 34.8032 44.8301L34.6223 44.9314C34.562 44.9652 34.5017 44.999 34.439 45.0303C34.3352 45.0882 34.2291 45.1437 34.123 45.1992L33.9517 45.286L33.5561 45.4838L33.3559 45.5779C33.2233 45.643 33.0882 45.7033 32.9531 45.7636C32.8181 45.8239 32.6733 45.8866 32.5334 45.9469L32.3163 46.0362C32.174 46.0965 32.0293 46.1544 31.8846 46.2098L31.6651 46.2943C31.4456 46.3763 31.2261 46.4559 31.0018 46.5355L30.7799 46.6102C30.7051 46.6368 30.6303 46.6585 30.5555 46.6826L30.3312 46.7526L30.1045 46.8225L29.8778 46.8876L29.6486 46.9503L29.4195 47.0106C29.1638 47.0782 28.9057 47.1409 28.6452 47.1988L28.3171 47.2687L28.0181 47.329L27.7455 47.3797L27.5766 47.4086L27.3354 47.4521L27.0942 47.4882L26.8144 47.5292L26.6359 47.5534H26.5877L26.3754 47.5799C26.0546 47.6185 25.7314 47.6474 25.4106 47.674L24.9282 47.7053H24.687H24.4458C24.2046 47.7053 23.9634 47.7174 23.7053 47.7174C23.5147 47.7174 23.3242 47.7174 23.136 47.7174H23.0878C22.9093 47.7174 22.7284 47.7053 22.5499 47.6957L21.9783 47.6619L21.7033 47.6378L21.4211 47.6112L21.1075 47.5968C20.9676 47.5823 20.8253 47.5654 20.6854 47.5461L20.5069 47.522L20.2657 47.4858L20.0534 47.4545L19.7133 47.3966L19.4359 47.3556L19.161 47.3001L18.9728 47.2639L18.8788 47.2422L18.5917 47.1795L18.3505 47.1192C17.8319 46.9962 17.3182 46.8514 16.814 46.6923L16.7561 46.673L16.5149 46.5982L16.3364 46.5379L16.1362 46.4679L15.9626 46.4076L15.8492 46.3642L15.7407 46.3184H15.7117L15.21 46.1254L15.1111 46.0844H15.0918L14.9471 46.0241L14.8434 45.9807L14.7107 45.9228L14.6625 45.9011V43.354C14.6538 42.4189 14.8005 41.4888 15.0966 40.6018C15.0966 40.6018 15.0966 40.5849 15.0966 40.5753C15.1159 40.515 15.1377 40.4547 15.1594 40.3968C15.2593 40.1298 15.3728 39.8682 15.4995 39.6129C15.5284 39.5526 15.5598 39.4923 15.5911 39.4319C15.6225 39.3716 15.6514 39.3186 15.6828 39.2631C15.7141 39.2076 15.7334 39.1714 15.76 39.1256C15.7865 39.0798 15.8106 39.0388 15.8371 38.9954C15.8637 38.952 15.895 38.8989 15.9264 38.8506C15.9578 38.8024 15.9867 38.7542 16.0181 38.7059C16.8593 37.4125 18.04 36.3752 19.4311 35.7077C21.4732 34.7702 23.6968 34.2942 25.9437 34.3136C28.5704 34.3136 31.1248 34.9335 33.1582 36.0623L33.2281 36.1009L33.2956 36.1419C33.3801 36.1901 33.4669 36.2432 33.5513 36.2963C33.6357 36.3493 33.7226 36.4072 33.8094 36.4651L33.8745 36.5109C33.898 36.5256 33.9206 36.5418 33.9421 36.5592C34.1133 36.6798 34.2774 36.8004 34.439 36.9451L34.5837 37.0681L34.6126 37.0971C35.5812 37.9669 36.3216 39.0609 36.769 40.2834C36.769 40.3075 36.7883 40.3316 36.7955 40.3558C36.8028 40.3799 36.8148 40.4064 36.8221 40.4305C36.8558 40.527 36.8872 40.6235 36.9161 40.72C36.9475 40.8189 36.974 40.9154 37.0006 41.0143C37.0006 41.0408 37.015 41.0673 37.0199 41.0939C37.0247 41.1204 37.0343 41.1445 37.0392 41.171C37.1717 41.6835 37.2525 42.2079 37.2804 42.7365Z" fill="#1746BD"/>
<path fill-rule="evenodd" clip-rule="evenodd" d="M25.6302 11.013C23.8633 10.8909 22.088 10.9889 20.3453 11.3048C18.8544 11.5832 17.4023 12.04 16.0205 12.6652C14.4213 11.2397 14.2935 9.81419 14.2742 9.58987C15.6604 8.39337 17.3155 7.55008 19.0983 7.13198L18.7075 3.19067C18.8731 3.22453 19.0437 3.22453 19.2092 3.19067C19.3806 3.16334 19.5446 3.10182 19.6917 3.00977L20.6565 6.84253C22.6864 6.57711 24.7502 6.87588 26.6215 7.70605C26.677 8.09198 26.7638 9.38725 25.6302 11.013Z" fill="#4AA8F7"/>
<path fill-rule="evenodd" clip-rule="evenodd" d="M35.3 27.2706C35.3012 27.2883 35.3012 27.306 35.3 27.3237V27.2706ZM25.9267 22.9651C25.8876 22.9254 25.8411 22.8939 25.7897 22.8724C25.7384 22.8509 25.6833 22.8398 25.6276 22.8398C25.5719 22.8398 25.5168 22.8509 25.4655 22.8724C25.4141 22.8939 25.3676 22.9254 25.3285 22.9651C25.3285 22.9651 24.6049 23.6429 23.1359 23.9058C22.281 24.0646 21.401 24.0233 20.5647 23.7852C20.5112 23.7618 20.4535 23.7497 20.3952 23.7496C20.3368 23.7495 20.2791 23.7614 20.2256 23.7847C20.172 23.8079 20.1239 23.8419 20.0841 23.8846C20.0443 23.9272 20.0137 23.9776 19.9942 24.0327C19.9748 24.0877 19.9669 24.1461 19.971 24.2043C19.9752 24.2625 19.9913 24.3192 20.0183 24.3709C20.0454 24.4226 20.0828 24.4682 20.1282 24.5048C20.1737 24.5414 20.2262 24.5682 20.2825 24.5836C20.8594 24.7572 21.4602 24.8386 22.0626 24.8248C22.4718 24.825 22.8803 24.7887 23.2831 24.7163C25.0029 24.4099 25.876 23.5874 25.9122 23.5512C25.9906 23.4748 26.0361 23.3706 26.0388 23.2611C26.0415 23.1516 26.0012 23.0454 25.9267 22.9651Z" fill="#4AA8F7"/>
<path fill-rule="evenodd" clip-rule="evenodd" d="M20.268 1.6884C20.2296 1.47009 20.1361 1.26517 19.9965 1.09298C19.8569 0.920789 19.6758 0.787 19.4701 0.704233C19.2645 0.621467 19.0411 0.592451 18.8212 0.619924C18.6012 0.647396 18.3919 0.730451 18.2129 0.861253C18.0339 0.992055 17.8912 1.16629 17.7983 1.36753C17.7053 1.56877 17.6651 1.79037 17.6816 2.01144C17.698 2.2325 17.7704 2.44574 17.8921 2.63104C18.0138 2.81633 18.1807 2.96758 18.377 3.07051C18.4808 3.12627 18.5921 3.16689 18.7074 3.19111C18.873 3.22497 19.0436 3.22497 19.2091 3.19111C19.378 3.1614 19.5394 3.09871 19.684 3.00661C19.8286 2.91451 19.9537 2.79482 20.052 2.65436C20.1503 2.51391 20.22 2.35546 20.2571 2.18806C20.2942 2.02065 20.2979 1.84759 20.268 1.67875V1.6884ZM19.0162 2.05744C18.9743 2.06447 18.9314 2.05475 18.8966 2.03038C18.8619 2.00601 18.8381 1.96894 18.8305 1.92719C18.8247 1.89565 18.8284 1.86311 18.8412 1.8337C18.854 1.80428 18.8752 1.77934 18.9022 1.76203C18.9292 1.74472 18.9607 1.73583 18.9928 1.73649C19.0248 1.73716 19.056 1.74734 19.0822 1.76575C19.1085 1.78417 19.1286 1.80997 19.1402 1.83988C19.1517 1.8698 19.1541 1.90247 19.147 1.93375C19.14 1.96502 19.1237 1.99348 19.1004 2.01551C19.0771 2.03754 19.0478 2.05213 19.0162 2.05744Z" fill="#1746BD"/>
<path fill-rule="evenodd" clip-rule="evenodd" d="M25.9146 23.5632C25.8785 23.5993 25.0053 24.4219 23.2855 24.7282C22.8827 24.8006 22.4742 24.8369 22.065 24.8367C21.4626 24.8505 20.8619 24.7691 20.2849 24.5955C20.2317 24.5771 20.1826 24.5485 20.1405 24.5111C20.0983 24.4738 20.064 24.4285 20.0393 24.3779C20.0147 24.3273 20.0003 24.2723 19.9969 24.2161C19.9935 24.1599 20.0012 24.1036 20.0196 24.0504C20.0379 23.9972 20.0666 23.9481 20.1039 23.906C20.1413 23.8638 20.1866 23.8295 20.2372 23.8048C20.2878 23.7802 20.3428 23.7658 20.399 23.7624C20.4552 23.759 20.5115 23.7667 20.5647 23.7851C21.4012 24.0187 22.2803 24.0559 23.1335 23.8936C24.6025 23.6307 25.3189 22.9577 25.3261 22.9529C25.407 22.8752 25.5155 22.8328 25.6277 22.835C25.7399 22.8373 25.8466 22.884 25.9243 22.965C26.002 23.0459 26.0444 23.1544 26.0421 23.2666C26.0399 23.3787 25.9932 23.4854 25.9122 23.5632H25.9146Z" fill="#4AA8F7"/>
<path d="M19.6433 18.6835C19.5437 18.7356 19.4276 18.7464 19.3201 18.7134C19.2126 18.6804 19.1225 18.6064 19.0692 18.5074C19.0427 18.4543 18.3456 17.1807 16.9587 17.4171C16.5316 17.4781 16.1373 17.6803 15.8387 17.9916C15.5401 18.3029 15.3544 18.7053 15.3112 19.1345C15.3033 19.2412 15.2555 19.3409 15.1772 19.4138C15.099 19.4867 14.9961 19.5274 14.8891 19.5277H14.8602C14.7484 19.5202 14.6441 19.4689 14.57 19.3849C14.4959 19.3008 14.458 19.1909 14.4646 19.079C14.5186 18.4597 14.7802 17.8769 15.2071 17.425C15.6341 16.9731 16.2011 16.6788 16.8164 16.5898C18.4083 16.3172 19.4696 17.4702 19.8194 18.1166C19.8693 18.2155 19.8788 18.3299 19.846 18.4356C19.8131 18.5414 19.7404 18.6303 19.6433 18.6835Z" fill="white"/>
<path d="M28.6597 16.9399C28.5605 16.9928 28.4443 17.0043 28.3367 16.9718C28.2291 16.9392 28.1388 16.8653 28.0856 16.7662C28.0591 16.7131 27.362 15.442 25.975 15.6759C25.6808 15.7133 25.3997 15.8204 25.1551 15.9882C24.9106 16.156 24.7096 16.3797 24.5688 16.6408C24.4412 16.874 24.3594 17.1294 24.3276 17.3933C24.3209 17.5008 24.2735 17.6018 24.1951 17.6757C24.1168 17.7496 24.0132 17.7909 23.9055 17.7913H23.879C23.7665 17.7839 23.6616 17.7323 23.587 17.6478C23.5125 17.5633 23.4743 17.4528 23.481 17.3403C23.5349 16.721 23.7966 16.1381 24.2235 15.6862C24.6504 15.2344 25.2175 14.94 25.8327 14.851C27.4247 14.5785 28.486 15.7314 28.8357 16.3779C28.886 16.4759 28.8958 16.5898 28.8628 16.6949C28.8299 16.8001 28.7569 16.8881 28.6597 16.9399Z" fill="white"/>
<path d="M25.9146 23.5632C25.8785 23.5993 25.0053 24.4219 23.2855 24.7282C22.8827 24.8006 22.4742 24.8369 22.065 24.8367C21.4626 24.8505 20.8619 24.7691 20.2849 24.5955C20.2317 24.5771 20.1826 24.5485 20.1405 24.5111C20.0983 24.4738 20.064 24.4285 20.0393 24.3779C20.0147 24.3273 20.0003 24.2723 19.9969 24.2161C19.9935 24.1599 20.0012 24.1036 20.0196 24.0504C20.0379 23.9972 20.0666 23.9481 20.1039 23.906C20.1413 23.8638 20.1866 23.8295 20.2372 23.8048C20.2878 23.7802 20.3428 23.7658 20.399 23.7624C20.4552 23.759 20.5115 23.7667 20.5647 23.7851C21.4012 24.0187 22.2803 24.0559 23.1335 23.8936C24.6025 23.6307 25.3189 22.9577 25.3261 22.9529C25.407 22.8752 25.5155 22.8328 25.6277 22.835C25.7399 22.8373 25.8466 22.884 25.9243 22.965C26.002 23.0459 26.0444 23.1544 26.0421 23.2666C26.0399 23.3787 25.9932 23.4854 25.9122 23.5632H25.9146Z" fill="white"/>
<path d="M9.62111 17.2051L9.5994 17.4005C9.59211 17.3345 9.59952 17.2678 9.62111 17.2051Z" fill="white"/>
<path fill-rule="evenodd" clip-rule="evenodd" d="M35.3001 27.3356C35.3001 27.3854 35.3001 27.4361 35.3001 27.4875C35.3001 27.502 35.3001 27.5165 35.3001 27.5309C35.2748 27.7411 35.1946 27.9409 35.0675 28.1103C34.9405 28.2797 34.7712 28.4126 34.5765 28.4958C34.4988 28.5338 34.4182 28.5653 34.3353 28.5898C32.325 29.3143 30.2794 29.9366 28.2062 30.4544C25.6719 31.0832 23.1037 31.5664 20.5142 31.9016C18.1833 32.2236 15.8336 32.3904 13.4806 32.4009H13.3286H13.278L13.2056 32.3864L13.1357 32.3695L13.0657 32.3478L12.9982 32.3213L12.9306 32.2899L12.8824 32.2658L12.8486 32.2465L12.8149 32.2272L12.7763 32.2007L12.7136 32.1524C12.68 32.1269 12.6485 32.0986 12.6195 32.068L12.5471 31.9932L12.5254 31.9619C12.5161 31.9525 12.508 31.942 12.5013 31.9305L12.4699 31.8871L12.4362 31.8365L12.4169 31.8027C12.4079 31.7887 12.3999 31.7742 12.3928 31.7593C12.3928 31.7352 12.371 31.7134 12.3614 31.6893L12.3493 31.6604L12.3349 31.6218C12.3298 31.6101 12.3257 31.598 12.3228 31.5856C12.3228 31.5639 12.3083 31.5398 12.3035 31.5181C12.3035 31.4915 12.2915 31.4626 12.2866 31.4337L12.0864 30.2807C16.2073 29.9395 20.3082 29.3896 24.3735 28.6332C30.2734 27.5454 33.8215 26.4262 35.0878 25.98L35.2736 27.0582C35.2874 27.133 35.2955 27.2088 35.2977 27.2849C35.2996 27.3017 35.3004 27.3186 35.3001 27.3356Z" fill="#1746BD"/>
<path fill-rule="evenodd" clip-rule="evenodd" d="M35.0877 25.9632H35.0852L35.0684 25.8667L35.0877 25.9632Z" fill="#1746BD"/>
<path d="M37.7048 42.9006C37.7222 42.884 37.7408 42.8687 37.7603 42.8547L37.7048 42.9006ZM37.8713 42.7679L38.0401 42.6328C37.9846 42.6786 37.9316 42.7221 37.8713 42.7727V42.7679Z" fill="white"/>
<path d="M37.7603 42.8574C37.7408 42.8714 37.7222 42.8867 37.7048 42.9032L37.7603 42.8574Z" fill="white"/>
<path d="M37.7048 42.9008C37.7222 42.8842 37.7408 42.8689 37.7603 42.855L37.7048 42.9008Z" fill="white"/>
<path d="M37.8713 42.7728L38.0402 42.6377C37.9847 42.6787 37.9316 42.7221 37.8713 42.7728Z" fill="white"/>
<path d="M33.9443 36.3569C33.9443 36.3835 33.9274 36.41 33.9226 36.4365L33.9877 36.4824L34.0094 36.4028L33.9443 36.3569Z" fill="white"/>
<path d="M41.8318 27.912C40.8935 27.3717 39.6031 27.6274 38.2137 28.6357C36.9112 29.5691 35.6328 31.0477 34.6101 32.8302C34.1598 33.6065 33.775 34.419 33.4596 35.2592C31.1499 34.0634 28.5829 33.4506 25.9822 33.4742C23.6069 33.4544 21.2565 33.9584 19.0982 34.9504C17.6158 35.6585 16.3499 36.7504 15.4318 38.1126L15.3667 38.074C13.6783 37.1092 10.8875 38.7977 8.70459 42.0901L8.82278 42.1938L9.03745 42.3772L9.25695 42.5605L9.37755 42.6594V42.6449C10.902 40.3028 12.9185 38.6722 14.2644 38.6722C14.4896 38.668 14.7119 38.7238 14.9084 38.8338L14.9542 38.8604C14.1952 40.2383 13.797 41.7857 13.7964 43.3589V45.4911L13.8736 45.5297L14.2161 45.6913L14.2789 45.7203L14.4212 45.783L14.5538 45.8409L14.631 45.8747V43.354C14.6324 42.4172 14.7897 41.4871 15.0965 40.6019C15.0965 40.6019 15.0965 40.585 15.0965 40.5754C15.1158 40.5151 15.1376 40.4548 15.1593 40.3969C15.2592 40.1299 15.3727 39.8683 15.4994 39.6129C15.5283 39.5526 15.5597 39.4923 15.591 39.432C15.6224 39.3717 15.6513 39.3187 15.6827 39.2632C15.714 39.2077 15.7333 39.1715 15.7599 39.1257C15.7864 39.0799 15.8105 39.0389 15.8371 38.9955C15.8636 38.952 15.8949 38.899 15.9263 38.8507C15.9577 38.8025 15.9866 38.7542 16.018 38.706C16.8592 37.4125 18.0399 36.3753 19.431 35.7078C21.4731 34.7703 23.6967 34.2943 25.9436 34.3136C28.5703 34.3136 31.1247 34.9335 33.1581 36.0624L33.228 36.101L33.2955 36.142C33.38 36.1902 33.4668 36.2433 33.5512 36.2964C33.6356 36.3494 33.7225 36.4073 33.8093 36.4652L33.8744 36.511C33.8979 36.5257 33.9205 36.5418 33.942 36.5593C34.1132 36.6799 34.2773 36.8005 34.4389 36.9452L34.5836 37.0682L34.6125 37.0972C35.5811 37.967 36.3215 39.061 36.7689 40.2835C36.7689 40.3076 36.7882 40.3317 36.7954 40.3559C36.8027 40.38 36.8147 40.4065 36.822 40.4306C36.8557 40.5271 36.8871 40.6236 36.916 40.7201C36.9474 40.819 36.9739 40.9155 37.0005 41.0144C37.0005 41.0409 37.0149 41.0674 37.0198 41.0939C37.0246 41.1205 37.0342 41.1446 37.0391 41.1711C37.1633 41.6836 37.236 42.2072 37.2561 42.7341V43.2166L37.3333 43.1587L37.4829 43.0429C37.5456 42.9971 37.6059 42.9488 37.6662 42.9006L37.7217 42.8572L37.7747 42.8137L37.8302 42.7679C37.8881 42.7221 37.9436 42.6787 37.9991 42.6304L38.0714 42.5701C38.038 41.9284 37.9329 41.2925 37.7579 40.6742C39.1371 39.5569 40.2891 38.1854 41.1516 36.634C42.1743 34.8636 42.8232 33.016 42.9824 31.4168C43.1946 29.6994 42.7701 28.4548 41.8318 27.912ZM33.9878 36.4821L33.9227 36.4363C33.9227 36.4097 33.9372 36.3832 33.9444 36.3567L34.0095 36.4025L33.9878 36.4821ZM40.4135 36.1854C39.6572 37.542 38.6685 38.7552 37.4925 39.7697C36.8356 38.1249 35.6994 36.7156 34.2314 35.7247C34.5393 34.876 34.9227 34.0566 35.3772 33.2765C35.9643 32.2436 36.6772 31.2875 37.4998 30.4302C38.8028 31.439 40.3248 32.1272 41.9428 32.4395C41.6187 33.7561 41.1034 35.0181 40.4135 36.1854ZM42.1285 31.3275C42.1285 31.4192 42.1092 31.5108 42.0972 31.6049C40.6572 31.3207 39.2995 30.7165 38.1245 29.8369C38.3247 29.6656 38.5249 29.5064 38.7251 29.3544C39.4801 28.8141 40.1723 28.5295 40.7512 28.5295C40.9719 28.5238 41.19 28.5771 41.3832 28.6839C41.9886 29.0409 42.2732 30.0033 42.1285 31.3275Z" fill="white"/>
</svg>
