<svg width="17" height="16" viewBox="0 0 17 16" fill="none" xmlns="http://www.w3.org/2000/svg">
<g clip-path="url(#clip0_10896_605)">
<path d="M3.17676 2.5C3.17676 3.32844 2.5052 4 1.67676 4C0.84832 4 0.176758 3.32844 0.176758 2.5C0.176758 1.67156 0.84832 1 1.67676 1C2.5052 1 3.17676 1.67156 3.17676 2.5ZM1.67676 6C0.84832 6 0.176758 6.67156 0.176758 7.5C0.176758 8.32844 0.84832 9 1.67676 9C2.5052 9 3.17676 8.32844 3.17676 7.5C3.17676 6.67156 2.5052 6 1.67676 6ZM1.67676 11C0.84832 11 0.176758 11.6716 0.176758 12.5C0.176758 13.3284 0.84832 14 1.67676 14C2.5052 14 3.17676 13.3284 3.17676 12.5C3.17676 11.6716 2.5052 11 1.67676 11ZM4.67676 3.625H15.6768C15.9529 3.625 16.1768 3.40116 16.1768 3.125V1.875C16.1768 1.59884 15.9529 1.375 15.6768 1.375H4.67676C4.4006 1.375 4.17676 1.59884 4.17676 1.875V3.125C4.17676 3.40116 4.4006 3.625 4.67676 3.625ZM4.67676 8.625H15.6768C15.9529 8.625 16.1768 8.40116 16.1768 8.125V6.875C16.1768 6.59884 15.9529 6.375 15.6768 6.375H4.67676C4.4006 6.375 4.17676 6.59884 4.17676 6.875V8.125C4.17676 8.40116 4.4006 8.625 4.67676 8.625ZM4.67676 13.625H15.6768C15.9529 13.625 16.1768 13.4012 16.1768 13.125V11.875C16.1768 11.5988 15.9529 11.375 15.6768 11.375H4.67676C4.4006 11.375 4.17676 11.5988 4.17676 11.875V13.125C4.17676 13.4012 4.4006 13.625 4.67676 13.625Z" />
</g>
<defs>
<clipPath id="clip0_10896_605">
<rect width="16" height="16" fill="white" transform="translate(0.176758)"/>
</clipPath>
</defs>
</svg>
