<svg  viewBox="0 0 16 16" fill="none" xmlns="http://www.w3.org/2000/svg">
<path d="M3 3C3 3.82844 2.32844 4.5 1.5 4.5C0.671562 4.5 0 3.82844 0 3C0 2.17156 0.671562 1.5 1.5 1.5C2.32844 1.5 3 2.17156 3 3ZM1.5 6.5C0.671562 6.5 0 7.17156 0 8C0 8.82844 0.671562 9.5 1.5 9.5C2.32844 9.5 3 8.82844 3 8C3 7.17156 2.32844 6.5 1.5 6.5ZM1.5 11.5C0.671562 11.5 0 12.1716 0 13C0 13.8284 0.671562 14.5 1.5 14.5C2.32844 14.5 3 13.8284 3 13C3 12.1716 2.32844 11.5 1.5 11.5ZM4.5 4.125H15.5C15.7762 4.125 16 3.90116 16 3.625V2.375C16 2.09884 15.7762 1.875 15.5 1.875H4.5C4.22384 1.875 4 2.09884 4 2.375V3.625C4 3.90116 4.22384 4.125 4.5 4.125ZM4.5 9.125H15.5C15.7762 9.125 16 8.90116 16 8.625V7.375C16 7.09884 15.7762 6.875 15.5 6.875H4.5C4.22384 6.875 4 7.09884 4 7.375V8.625C4 8.90116 4.22384 9.125 4.5 9.125ZM4.5 14.125H15.5C15.7762 14.125 16 13.9012 16 13.625V12.375C16 12.0988 15.7762 11.875 15.5 11.875H4.5C4.22384 11.875 4 12.0988 4 12.375V13.625C4 13.9012 4.22384 14.125 4.5 14.125Z" />
</svg>
