<svg viewBox="0 0 14 15" fill="none" xmlns="http://www.w3.org/2000/svg">
<path d="M11.7083 6.625H11.0583V4.65625C11.0583 2.36484 9.21125 0.5 6.94167 0.5C4.67208 0.5 2.825 2.36484 2.825 4.65625V6.625H2.175C1.45729 6.625 0.875 7.21289 0.875 7.9375V13.1875C0.875 13.9121 1.45729 14.5 2.175 14.5H11.7083C12.426 14.5 13.0083 13.9121 13.0083 13.1875V7.9375C13.0083 7.21289 12.426 6.625 11.7083 6.625ZM8.89167 6.625H4.99167V4.65625C4.99167 3.5707 5.86646 2.6875 6.94167 2.6875C8.01688 2.6875 8.89167 3.5707 8.89167 4.65625V6.625Z"/>
</svg>
