<svg  viewBox="10 9 28 28" fill="none" xmlns="http://www.w3.org/2000/svg">
<g clip-path="url(#clip0_14856_32616)">
<path fill-rule="evenodd" clip-rule="evenodd" d="M19.6025 9.3125L30.0528 9.78456L34.2837 19.285L28.3147 27.9678L17.8076 27.2878L13.5 16.9941L19.6025 9.3125ZM27.264 14.7888L19.6903 18.1329L26.1653 23.1925L27.264 14.7888ZM26.3871 13.1131L20.3345 10.4793L19.063 16.0169L26.3871 13.1131ZM24.853 24.4655L18.2749 19.7185L18.4341 26.1509L24.853 24.4655ZM33.233 19.264L28.7504 14.6671L27.5673 23.5068L33.233 19.264ZM26.3952 25.4994L20.8475 26.9648L27.3716 27.387L26.3952 25.4994ZM32.357 21.3497L27.5008 25.0057L28.4657 26.9115L32.357 21.3497ZM30.06 11.112L29.1168 13.0688L32.6276 16.6755L30.06 11.112ZM28.8848 10.1755L22.7197 9.92262L27.8052 12.1706L28.8848 10.1755ZM18.7022 11.0805L14.384 16.5911L17.2711 17.2091L18.7022 11.0805ZM17.097 18.2901L14.196 17.6694L17.2229 24.8762L17.097 18.2901Z"/>
</g>
<path fill-rule="evenodd" clip-rule="evenodd" d="M18.5937 37L16.8536 31.9891H16.8208C16.8673 32.7332 16.8906 33.4309 16.8906 34.0821V37H16V31H17.383L19.0492 35.7729H19.0739L20.7893 31H22.1765V37H21.2326V34.0328C21.2326 33.7346 21.2394 33.3461 21.2531 32.8673C21.2695 32.3885 21.2832 32.0985 21.2941 31.9973H21.2613L19.4596 37H18.5937Z"/>
<path fill-rule="evenodd" clip-rule="evenodd" d="M23.7565 37V31H24.7373V37H23.7565Z"/>
<path fill-rule="evenodd" clip-rule="evenodd" d="M31.3242 37H30.1217L27.171 32.2189H27.1382L27.1587 32.4856C27.197 32.9945 27.2161 33.4596 27.2161 33.881V37H26.3256V31H27.5157L30.4583 35.7565H30.4829C30.4774 35.6936 30.4665 35.4651 30.4501 35.0711C30.4337 34.6744 30.4254 34.3653 30.4254 34.1436V31H31.3242V37Z"/>
<defs>
<clipPath id="clip0_14856_32616">
<rect width="20.7837" height="21" fill="white" transform="translate(13.5 8)"/>
</clipPath>
</defs>
</svg>
