<svg fill="#000000" version="1.1" id="Capa_1" xmlns="http://www.w3.org/2000/svg" xmlns:xlink="http://www.w3.org/1999/xlink" viewBox="0 0 373.482 373.482" xml:space="preserve">
<g>
	<path d="M355.488,84.873c-2.401-22.768-13.499-43.217-31.249-57.579l-10.213-8.266C298.863,6.757,279.765,0,260.246,0
		c-26.031,0-50.317,11.563-66.632,31.726L36.583,225.781c-14.386,17.773-20.989,40.088-18.591,62.831
		c2.398,22.741,13.51,43.188,31.288,57.576l10.213,8.266c15.161,12.271,34.258,19.028,53.772,19.028
		c3.013,0,6.061-0.161,9.059-0.479c22.604-2.383,42.957-13.367,57.251-30.859c0.048-0.056,0.076-0.089,105.94-130.895
		c18.854-23.303,15.236-57.602-8.063-76.458l-5.353-4.329c-9.628-7.792-21.757-12.083-34.149-12.083
		c-16.527,0-31.947,7.343-42.307,20.145L89.902,269.192c-6.909,8.54-5.584,21.11,2.956,28.021c3.534,2.859,7.981,4.434,12.521,4.434
		c6.048,0,11.697-2.691,15.5-7.389l105.739-130.668c2.766-3.417,6.886-5.377,11.302-5.377c3.356,0,6.507,1.115,9.113,3.224
		l5.354,4.334c3.008,2.434,4.888,5.9,5.295,9.762c0.406,3.862-0.709,7.645-3.144,10.651l-105.618,130.52
		c-8.721,10.77-21.703,16.945-35.618,16.946c-10.432,0-20.64-3.611-28.744-10.171l-10.213-8.264
		c-9.504-7.693-15.445-18.625-16.726-30.781c-1.282-12.157,2.247-24.088,9.938-33.59L224.589,56.791
		c8.721-10.776,21.707-16.957,35.628-16.957c10.433,0,20.642,3.611,28.744,10.169l10.212,8.264
		c19.619,15.877,22.664,44.754,6.789,64.372c-3.348,4.138-4.884,9.33-4.326,14.623c0.559,5.292,3.145,10.051,7.28,13.397
		c3.535,2.86,7.982,4.436,12.522,4.436l0,0c6.048,0,11.696-2.693,15.498-7.39C351.301,129.955,357.89,107.64,355.488,84.873z"/>
</g>
</svg>