<svg viewBox="0 0 16 17" fill="none" xmlns="http://www.w3.org/2000/svg">
<g clip-path="url(#clip0_14018_54611)">
<path d="M15.975 12.5939L15.2484 15.7439C15.1464 16.1892 14.755 16.5008 14.2966 16.5008C6.4125 16.5002 0 10.0877 0 2.20331C0 1.74518 0.311531 1.35331 0.756875 1.25175L3.90687 0.525184C4.36562 0.418872 4.83437 0.656996 5.025 1.09143L6.47875 4.48205C6.64869 4.88143 6.53406 5.34674 6.19812 5.62112L4.51562 6.97205C5.5775 9.13517 7.33625 10.8939 9.5 11.9564L10.8775 10.2752C11.149 9.9383 11.6178 9.82174 12.0172 9.9947L15.4078 11.4481C15.8156 11.6627 16.0813 12.1377 15.975 12.5939Z"/>
</g>
</svg>
