<svg viewBox="0 0 14 15" xmlns="http://www.w3.org/2000/svg">
<g clip-path="url(#clip0_11557_149813)">
<path d="M0 11.5824V12.75C0 13.7152 2.35156 14.5 5.25 14.5C8.14844 14.5 10.5 13.7152 10.5 12.75V11.5824C9.3707 12.3781 7.30625 12.75 5.25 12.75C3.19375 12.75 1.1293 12.3781 0 11.5824ZM8.75 4C11.6484 4 14 3.21523 14 2.25C14 1.28477 11.6484 0.5 8.75 0.5C5.85156 0.5 3.5 1.28477 3.5 2.25C3.5 3.21523 5.85156 4 8.75 4ZM0 8.71406V10.125C0 11.0902 2.35156 11.875 5.25 11.875C8.14844 11.875 10.5 11.0902 10.5 10.125V8.71406C9.3707 9.64375 7.30352 10.125 5.25 10.125C3.19648 10.125 1.1293 9.64375 0 8.71406ZM11.375 9.01484C12.9418 8.71133 14 8.14805 14 7.5V6.33242C13.3656 6.78086 12.4332 7.08711 11.375 7.27578V9.01484ZM5.25 4.875C2.35156 4.875 0 5.85391 0 7.0625C0 8.27109 2.35156 9.25 5.25 9.25C8.14844 9.25 10.5 8.27109 10.5 7.0625C10.5 5.85391 8.14844 4.875 5.25 4.875ZM11.2465 6.41445C12.8871 6.11914 14 5.53945 14 4.875V3.70742C13.0293 4.39375 11.3613 4.76289 9.60586 4.85039C10.4125 5.24141 11.0059 5.76641 11.2465 6.41445Z" />
</g>
<defs>
<clipPath id="clip0_11557_149813">
<rect transform="translate(0 0.5)"/>
</clipPath>
</defs>
</svg>
