<svg width="49" height="48" viewBox="0 0 49 48" fill="none" xmlns="http://www.w3.org/2000/svg">
<path fill-rule="evenodd" clip-rule="evenodd" d="M27.335 27.575L34.3304 23.225L27.335 11L20.335 23.225L27.335 27.575ZM20.335 24.6219L27.335 28.9719L34.335 24.6219L27.335 35L20.335 24.6219ZM13.2712 26L18.2993 26.2277L20.335 30.8111L17.463 35L12.4075 34.6719L10.335 29.7059L13.2712 26ZM16.9574 28.642L13.3134 30.2553L16.4288 32.6962L16.9574 28.642ZM16.5355 27.8335L13.6233 26.5629L13.0116 29.2345L16.5355 27.8335ZM15.7974 33.3104L12.6324 31.0202L12.709 34.1235L15.7974 33.3104ZM19.8294 30.801L17.6726 28.5833L17.1034 32.8479L19.8294 30.801ZM16.5395 33.8092L13.8702 34.5161L17.0092 34.7198L16.5395 33.8092ZM19.4079 31.8072L17.0714 33.571L17.5357 34.4904L19.4079 31.8072ZM18.3027 26.8681L17.8489 27.8122L19.5381 29.5522L18.3027 26.8681ZM17.7373 26.4164L14.771 26.2943L17.2178 27.3789L17.7373 26.4164ZM12.838 26.8529L10.7603 29.5115L12.1494 29.8096L12.838 26.8529ZM12.0656 30.3311L10.6698 30.0317L12.1262 33.5085L12.0656 30.3311Z"/>
</svg>
