<svg width="48" height="48" viewBox="0 0 48 48" fill="none" xmlns="http://www.w3.org/2000/svg">
<path fill-rule="evenodd" clip-rule="evenodd" d="M29.5858 9.43018L20.5351 9L15.25 16L18.9806 25.3803L28.0804 26L33.25 18.0876L29.5858 9.43018ZM20.6112 17.0378L27.1705 13.9904L26.2189 21.6484L20.6112 17.0378ZM21.1691 10.0633L26.411 12.4633L20.0679 15.1095L21.1691 10.0633ZM19.3854 18.4827L25.0824 22.8085L19.5232 24.3444L19.3854 18.4827ZM28.4578 13.8795L32.34 18.0686L27.4332 21.9349L28.4578 13.8795ZM21.6134 25.0861L26.4181 23.7507L27.2637 25.4708L21.6134 25.0861ZM27.3756 23.3008L31.5814 19.9691L28.2113 25.0375L27.3756 23.3008ZM28.7751 12.423L29.592 10.6398L31.8157 15.7097L28.7751 12.423ZM23.2349 9.55598L28.5742 9.78645L27.6392 11.6045L23.2349 9.55598ZM16.0156 15.6328L19.7554 10.6111L18.516 16.1959L16.0156 15.6328ZM15.8528 16.6154L18.3652 17.181L18.4743 23.1827L15.8528 16.6154Z"/>
<path d="M9 29C9 28.8619 9.11193 28.75 9.25 28.75L39.25 28.75C39.3881 28.75 39.5 28.8619 39.5 29C39.5 29.1381 39.3881 29.25 39.25 29.25L9.25 29.25C9.11193 29.25 9 29.1381 9 29Z"/>
<path fill-rule="evenodd" clip-rule="evenodd" d="M13.8424 36.2389C13.836 36.6283 13.9286 36.9351 14.1201 37.1593C14.3117 37.3835 14.6277 37.5015 15.0683 37.5133V35.3717C14.8065 35.3068 14.5447 35.2301 14.2829 35.1416C14.0275 35.0472 13.7945 34.9292 13.5838 34.7876C13.3795 34.6401 13.2134 34.4572 13.0857 34.2389C12.958 34.0206 12.8942 33.7493 12.8942 33.4248C12.8942 33.1416 12.9517 32.8938 13.0666 32.6814C13.1879 32.4631 13.3475 32.2832 13.5455 32.1416C13.7498 31.9941 13.9828 31.882 14.2446 31.8053C14.5064 31.7286 14.781 31.6903 15.0683 31.6903V31H15.4801V31.6903C15.7675 31.6903 16.0388 31.7257 16.2942 31.7965C16.5496 31.8673 16.7699 31.9735 16.9551 32.115C17.1466 32.2566 17.2967 32.4366 17.4052 32.6549C17.5201 32.8732 17.5776 33.1268 17.5776 33.4159H16.4858C16.473 33.115 16.3868 32.885 16.2272 32.7257C16.0739 32.5664 15.8249 32.4867 15.4801 32.4867V34.354C15.7675 34.4248 16.0484 34.5074 16.3229 34.6018C16.5975 34.6962 16.8401 34.8171 17.0508 34.9646C17.2615 35.1121 17.4307 35.295 17.5584 35.5133C17.6861 35.7316 17.75 36 17.75 36.3186C17.75 36.649 17.6893 36.9381 17.568 37.1858C17.4531 37.4277 17.2935 37.6313 17.0892 37.7965C16.8848 37.9558 16.6454 38.0767 16.3708 38.1593C16.0963 38.2478 15.7994 38.2979 15.4801 38.3097V39H15.0683V38.3097C14.7235 38.3038 14.4074 38.2537 14.1201 38.1593C13.8328 38.0649 13.587 37.9322 13.3826 37.7611C13.1783 37.5841 13.0187 37.3687 12.9038 37.115C12.7952 36.8614 12.7441 36.5693 12.7505 36.2389H13.8424ZM15.0683 32.4867C14.7235 32.4867 14.4553 32.5546 14.2638 32.6903C14.0786 32.8201 13.986 33.0413 13.986 33.354C13.986 33.4956 14.018 33.6165 14.0818 33.7168C14.1457 33.8171 14.2255 33.9027 14.3212 33.9735C14.4234 34.0442 14.5383 34.1032 14.666 34.1504C14.8001 34.1917 14.9342 34.2271 15.0683 34.2566V32.4867ZM15.4801 37.5133C15.8249 37.4897 16.1059 37.3982 16.3229 37.2389C16.5464 37.0737 16.6582 36.8142 16.6582 36.4602C16.6582 36.295 16.623 36.1563 16.5528 36.0442C16.489 35.9322 16.3996 35.8378 16.2846 35.7611C16.1761 35.6844 16.0516 35.6224 15.9111 35.5752C15.7706 35.528 15.627 35.4867 15.4801 35.4513V37.5133Z"/>
<path d="M30.4014 36.3812C30.4014 36.9181 30.2073 37.3393 29.8191 37.6449C29.431 37.9505 28.8955 38.1033 28.2127 38.1033C27.53 38.1033 26.9711 37.9973 26.5361 37.7853V36.852C26.8114 36.9814 27.1033 37.0833 27.4116 37.1576C27.7227 37.2319 28.0118 37.2691 28.2788 37.2691C28.6698 37.2691 28.9574 37.1948 29.1419 37.0461C29.3291 36.8974 29.4227 36.6978 29.4227 36.4473C29.4227 36.2216 29.3374 36.0302 29.1667 35.8733C28.996 35.7164 28.6436 35.5306 28.1095 35.3158C27.5589 35.0928 27.1707 34.8382 26.945 34.5518C26.7192 34.2655 26.6063 33.9214 26.6063 33.5194C26.6063 33.0156 26.7853 32.6192 27.1432 32.3301C27.5011 32.0411 27.9815 31.8965 28.5844 31.8965C29.1625 31.8965 29.7379 32.0232 30.3106 32.2764L29.9967 33.0817C29.4599 32.856 28.9808 32.7431 28.5596 32.7431C28.2403 32.7431 27.998 32.8133 27.8328 32.9537C27.6676 33.0913 27.585 33.2744 27.585 33.5029C27.585 33.6599 27.6181 33.7948 27.6842 33.9076C27.7502 34.0178 27.859 34.1224 28.0104 34.2215C28.1618 34.3206 28.4344 34.4514 28.828 34.6138C29.2713 34.7982 29.5962 34.9703 29.8026 35.13C30.0091 35.2897 30.1605 35.47 30.2569 35.671C30.3532 35.8719 30.4014 36.1087 30.4014 36.3812Z"/>
<path d="M25.5362 31.94V35.8466C25.5362 36.2926 25.4398 36.6835 25.2471 37.0194C25.0572 37.3525 24.7805 37.6099 24.4171 37.7916C24.0564 37.9705 23.6242 38.06 23.1204 38.06C22.3715 38.06 21.7893 37.8618 21.3736 37.4654C20.9579 37.0689 20.75 36.5238 20.75 35.83V31.94H21.7411V35.7598C21.7411 36.2581 21.8567 36.6257 22.088 36.8624C22.3192 37.0992 22.6744 37.2176 23.1534 37.2176C24.0839 37.2176 24.5492 36.7289 24.5492 35.7516V31.94H25.5362Z"/>
<path fill-rule="evenodd" clip-rule="evenodd" d="M35.4814 37.2297C36.0348 36.7011 36.3114 35.9385 36.3114 34.9419C36.3114 34.0031 36.0444 33.2749 35.5103 32.7574C34.9762 32.2398 34.2288 31.981 33.2679 31.981H31.4014V38.0184H33.0904C34.131 38.0184 34.928 37.7555 35.4814 37.2297ZM33.2432 32.8069C34.5949 32.8069 35.2708 33.5296 35.2708 34.9749C35.2708 36.4506 34.544 37.1884 33.0904 37.1884H32.3883V32.8069H33.2432Z"/>
</svg>
