<svg viewBox="0 0 22 22" xmlns="http://www.w3.org/2000/svg">
<g clip-path="url(#clip0_13719_38976)">
<path fill-rule="evenodd" clip-rule="evenodd" d="M6.60249 1.8125L17.0528 2.28456L21.2837 11.785L15.3147 20.4678L4.80756 19.7878L0.5 9.49409L6.60249 1.8125ZM14.264 7.28878L6.69025 10.6329L13.1653 15.6925L14.264 7.28878ZM13.3871 5.61306L7.33447 2.97929L6.06304 8.51691L13.3871 5.61306ZM11.853 16.9655L5.27494 12.2185L5.43405 18.6509L11.853 16.9655ZM20.233 11.764L15.7504 7.1671L14.5673 16.0068L20.233 11.764ZM13.3952 17.9994L7.84753 19.4648L14.3716 19.887L13.3952 17.9994ZM19.357 13.8497L14.5008 17.5057L15.4657 19.4115L19.357 13.8497ZM17.06 3.61196L16.1168 5.56883L19.6276 9.1755L17.06 3.61196ZM15.8848 2.67553L9.71972 2.42262L14.8052 4.6706L15.8848 2.67553ZM5.7022 3.58046L1.38398 9.09109L4.27107 9.7091L5.7022 3.58046ZM4.09698 10.7901L1.19598 10.1694L4.22295 17.3762L4.09698 10.7901Z" />
</g>
<defs>
<clipPath id="clip0_13719_38976">
<rect transform="translate(0.5 0.5)"/>
</clipPath>
</defs>
</svg>
