<svg width="48" height="48" viewBox="0 0 48 48" fill="none" xmlns="http://www.w3.org/2000/svg">
<path d="M41.3014 32.2732C41.7068 32.9821 41.6457 33.6615 40.9178 34.6792C40.7468 34.9183 40.7027 35.1328 40.7427 35.4587L40.7465 35.4887C40.7596 35.5854 40.7748 35.6688 40.8069 35.8177L40.882 36.1566L40.9058 36.2683C40.9551 36.5052 40.9809 36.6707 40.9956 36.8604L40.9992 36.9114C41.025 37.304 40.9814 37.6754 40.8496 38.0451C40.564 38.8468 39.8847 39.5703 38.7228 40.2923L38.6313 40.3486C38.0662 40.6923 37.4642 40.9483 36.8113 41.1361L36.7098 41.1648C35.9842 41.367 35.4153 41.4513 34.2028 41.5709L33.7675 41.6133C32.4704 41.7438 31.9239 41.8721 31.487 42.184L31.4696 42.1965C30.9471 42.5805 30.6624 43.3018 30.6504 44.6285L30.6498 44.755C30.6384 45.9345 30.0978 46.8474 29.0776 47.3902C28.1511 47.8832 26.8481 48.064 25.1559 47.9659C21.9344 47.7793 17.1732 46.567 10.8418 44.3324L10.0825 44.0644L10.4057 43.3268C12.0998 39.4603 11.3741 34.8907 8.15608 29.5663L7.22319 28.02C6.29403 26.475 5.91935 25.8275 5.45962 24.9764L5.30038 24.6798L5.21317 24.5152C4.40815 22.987 3.8513 21.6763 3.48923 20.4C2.29533 16.1914 3.23477 12.1619 6.87995 6.57541C11.3695 -0.305075 19.605 -1.76192 31.3898 2.09268C37.579 4.17859 40.7027 9.03745 40.7027 16.4954V16.6668L40.6281 16.821C39.8194 18.4939 39.8194 19.8622 40.5799 21.0203C40.8345 21.4079 41.1406 21.822 41.5787 22.3805L41.7409 22.5864L42.3778 23.3888C43.0412 24.2282 43.3084 24.5896 43.5963 25.0453L43.6731 25.1684L43.717 25.2405C44.249 26.1246 44.4508 26.8375 44.1907 27.4968C44.0155 27.9409 43.6692 28.2718 43.1903 28.5355C42.8592 28.7178 42.4845 28.8607 41.975 29.0174L41.8606 29.0519C41.6974 29.1006 41.4478 29.174 41.3116 29.2143L41.1947 29.2494L41.1307 29.2693C41.0064 29.3083 40.9039 29.3432 40.8202 29.3751L40.8545 29.4248C40.8873 29.472 40.9267 29.5272 40.9738 29.5921L41.051 29.698L41.1005 29.7666C41.3484 30.1132 41.4788 30.3443 41.5671 30.6509C41.7112 31.151 41.6333 31.6553 41.3131 32.1208L41.294 32.1482C41.2871 32.1579 41.2807 32.1672 41.2749 32.1759L41.2589 32.2005L41.3014 32.2732ZM39.204 16.1272C39.1067 9.49761 36.3612 5.34689 30.9184 3.51249C19.7146 -0.152074 12.1871 1.17951 8.13279 7.39296C4.70562 12.6453 3.86602 16.2466 4.92842 19.9917C5.26488 21.1777 5.79618 22.4208 6.57983 23.8995L6.72717 24.1751C7.23283 25.1146 7.61332 25.7694 8.73637 27.633L9.43637 28.7925C12.6899 34.1755 13.5896 38.9855 12.0747 43.1789C17.9169 45.2059 22.3151 46.3028 25.2424 46.4724L25.357 46.4786C26.7411 46.5481 27.751 46.4014 28.3749 46.0694C28.9028 45.7886 29.1461 45.382 29.1538 44.7482L29.1541 44.6618C29.1635 42.8543 29.6347 41.6679 30.618 40.9662C31.0448 40.6616 31.5452 40.4638 32.1546 40.3311L32.2119 40.3188C32.5833 40.2407 32.9403 40.1926 33.5458 40.1318L34.0985 40.0778C35.1978 39.9687 35.7031 39.8926 36.32 39.7204L36.3978 39.6983C36.9278 39.5459 37.4077 39.3418 37.8539 39.0704L37.9331 39.0217C38.8304 38.4646 39.2839 37.9823 39.4404 37.5429C39.5461 37.2463 39.5343 36.9953 39.4052 36.407L39.3522 36.1683L39.3385 36.105C39.3017 35.9334 39.2825 35.8261 39.264 35.689L39.2592 35.6518C39.1757 34.9844 39.2864 34.4043 39.6789 33.8402L39.7235 33.7772C39.8489 33.599 39.9368 33.4489 39.9917 33.3257C40.0295 33.2407 40.0473 33.1797 40.0521 33.1388L40.053 33.1303C40.0545 33.1114 40.0534 33.104 40.0226 33.05L39.9595 32.942L39.9347 32.8985C39.6475 32.3883 39.6566 31.8851 40.0555 31.3088L40.08 31.2739L40.0905 31.258C40.1844 31.1117 40.148 31.0011 39.8504 30.5906L39.6874 30.3671L39.6344 30.2934C39.58 30.2169 39.5486 30.1691 39.51 30.1062L39.4652 30.0318C39.3363 29.8114 39.2521 29.6 39.22 29.3691C39.2112 29.3062 39.2067 29.243 39.2067 29.1794C39.2067 28.7041 39.4832 28.3825 39.8991 28.1533C40.1111 28.0366 40.3562 27.9432 40.7119 27.8327L40.8437 27.7926C40.9614 27.7576 41.2068 27.6855 41.38 27.6341L41.5354 27.5874L41.6074 27.565C42.3522 27.3302 42.7324 27.1167 42.7991 26.9477C42.8013 26.9423 42.8036 26.9273 42.803 26.8975C42.8009 26.8452 42.7881 26.7755 42.7617 26.69C42.7019 26.4959 42.5822 26.2509 42.4024 25.958L42.3468 25.8686C42.0945 25.4676 41.8512 25.1365 41.2479 24.372L40.5676 23.5146L40.4348 23.3461L40.3204 23.2001C39.9234 22.6912 39.6286 22.2914 39.3732 21.9077L39.3295 21.8415C38.2949 20.2662 38.2589 18.4209 39.178 16.3904L39.2062 16.3289L39.204 16.1272Z" fill="#FF6800"/>
<path fill-rule="evenodd" clip-rule="evenodd" d="M8.79654 29.1799C3.79648 20.907 1.09883 16.8051 7.50668 6.98467C11.7786 0.437706 19.6601 -0.956513 31.1513 2.80202C37.0204 4.7801 39.955 9.34473 39.955 16.4959C39.0388 18.3911 39.0388 20.0363 39.955 21.4314C41.3293 23.524 43.9676 26.0253 43.4952 27.2227C43.0228 28.4201 39.955 28.4201 39.955 29.1799C39.955 29.9397 41.4141 30.6885 40.6845 31.7155C39.955 32.7424 41.5543 32.5043 40.3097 34.2446C39.0652 35.9848 42.0397 37.4005 38.2429 39.7099C34.4461 42.0194 29.9023 39.1677 29.9023 44.7173C29.9023 48.417 23.6319 48.0538 11.0911 43.6275C12.8948 39.511 12.1299 34.6951 8.79654 29.1799Z" fill="#FFFCF0"/>
<path fill-rule="evenodd" clip-rule="evenodd" d="M38.0582 15.5391C37.1852 9.84358 35.4435 6.58338 32.8334 5.7585C28.9181 4.52118 17.7041 -0.141819 11.6155 5.03491C7.55644 8.48607 5.38702 12.9386 5.10723 18.3925C5.61758 20.4796 6.88353 22.9358 8.90509 25.7612C11.9374 29.9993 12.8177 29.097 12.8177 27.3491C12.8177 25.6013 18.3846 30.209 19.9948 23.923C21.0683 19.7324 23.1362 18.2227 26.1987 19.394C31.4898 19.9447 34.7917 19.6109 36.1042 18.3925C37.4167 17.1742 38.0681 16.223 38.0582 15.5391Z" fill="url(#paint0_linear_15970_30808)"/>
<path d="M21.529 23.1187C25.153 23.1187 28.0909 20.1807 28.0909 16.5565C28.0909 12.9323 25.153 9.99426 21.529 9.99426C17.9049 9.99426 14.967 12.9323 14.967 16.5565C14.967 20.1807 17.9049 23.1187 21.529 23.1187ZM21.529 22.5066C18.2429 22.5066 15.579 19.8427 15.579 16.5565C15.579 13.2703 18.2429 10.6063 21.529 10.6063C24.815 10.6063 27.4789 13.2703 27.4789 16.5565C27.4789 19.8427 24.815 22.5066 21.529 22.5066Z" fill="white"/>
<path d="M21.5289 22.5067C24.815 22.5067 27.4788 19.8427 27.4788 16.5565C27.4788 13.2703 24.815 10.6063 21.5289 10.6063C18.2428 10.6063 15.579 13.2703 15.579 16.5565C15.579 19.8427 18.2428 22.5067 21.5289 22.5067Z" fill="#FF6800"/>
<path d="M23.6029 16.6322L21.5296 17.9296L19.455 16.6322L21.5296 12.9863L23.6029 16.6322ZM21.5289 18.3491L19.455 17.0665L21.5289 20.1265L23.6029 17.0665L21.5289 18.3491Z" fill="white"/>
<path d="M8.10748 17.623C8.96586 15.7385 9.74049 15.5287 10.6595 16.8857L10.6874 16.9273C11.8357 18.6568 13.1631 18.6032 14.4921 16.7938L14.552 16.7123L14.2879 16.1514L14.1188 16.3816C12.9942 17.9128 12.0468 17.9694 11.1046 16.5796L11.076 16.537C9.90743 14.777 8.69435 15.0732 7.67246 17.3167L7.63037 17.4091L7.98951 17.882L8.10748 17.623ZM7.96256 17.2843L7.98187 17.4576L8.0031 17.4113L8.02431 17.3656L7.96256 17.2843ZM10.7632 16.681L10.7928 16.7251C11.8821 18.3658 13.1236 18.311 14.3928 16.5829L14.102 16.5547L14.1579 16.6733C12.9994 18.2055 11.9852 18.2359 11.0005 16.7837L10.9707 16.7392C9.872 15.0845 8.76441 15.3605 7.79807 17.4821L8.08817 17.4497L8.02431 17.3656C8.92237 15.4458 9.7888 15.2433 10.7632 16.681ZM14.2013 16.7656L14.2181 16.5925L14.1879 16.6333L14.1579 16.6733L14.2013 16.7656Z" fill="white"/>
<path d="M10.6235 11.0953C11.4819 9.21079 12.2565 9.00104 13.1755 10.358L13.2034 10.3996C14.3517 12.1291 15.6791 12.0755 17.0081 10.2661L17.068 10.1845L16.8039 9.62367L16.6348 9.85391C15.5102 11.385 14.5628 11.4417 13.6206 10.0519L13.592 10.0093C12.4234 8.24927 11.2103 8.54544 10.1885 10.7889L10.1464 10.8813L10.5055 11.3543L10.6235 11.0953ZM10.4785 10.7566L10.4979 10.9299L10.5191 10.8836L10.5403 10.8379L10.4785 10.7566ZM13.2792 10.1533L13.3088 10.1974C14.3981 11.8381 15.6396 11.7833 16.9088 10.0552L16.618 10.027L16.6738 10.1456C15.5154 11.6778 14.5012 11.7082 13.5165 10.256L13.4867 10.2115C12.388 8.55681 11.2804 8.83283 10.3141 10.9544L10.6042 10.922L10.5403 10.8379C11.4384 8.91812 12.3048 8.71555 13.2792 10.1533ZM16.7173 10.2379L16.7341 10.0648L16.7039 10.1056L16.6738 10.1456L16.7173 10.2379Z" fill="white"/>
<path d="M15.2654 6.66194L15.3834 6.40293L15.4516 6.25619L15.5215 6.11272C16.323 4.50578 17.0609 4.38263 17.9266 5.65269L17.9633 5.70723C19.0974 7.41533 20.4063 7.38416 21.7188 5.63991L21.8279 5.49216L21.5638 4.93129L21.3946 5.16153C20.2752 6.68571 19.3313 6.74875 18.3933 5.3783L18.3519 5.31691C17.1966 3.57689 15.9978 3.84659 14.9833 6.02083L14.9062 6.18896L15.2654 6.66194ZM15.2384 6.06421L15.2577 6.2375L15.3002 6.14555L15.2384 6.06421ZM18.0308 5.44867L18.0687 5.50499C19.158 7.14568 20.3994 7.09088 21.6687 5.36281L21.3779 5.3346L21.4337 5.45324L21.3352 5.58038C20.2228 6.97934 19.2423 6.97457 18.2898 5.58334L18.2466 5.51915C17.1479 3.86443 16.0403 4.14044 15.074 6.26198L15.364 6.22965L15.3002 6.14555C16.1957 4.23121 17.0597 4.02434 18.0308 5.44867ZM21.4772 5.54549L21.494 5.37242L21.4337 5.45324L21.4772 5.54549Z" fill="white"/>
<path d="M23.9512 8.85117C24.8096 6.96664 25.5842 6.7569 26.5033 8.11387L26.5312 8.15547C27.6795 9.88493 29.0069 9.83136 30.3358 8.02194L30.3957 7.9404L30.1316 7.37953L29.9625 7.60977C28.8379 9.1409 27.8906 9.19754 26.9483 7.80771L26.9198 7.76515C25.7512 6.00513 24.5381 6.3013 23.5162 8.5448L23.4741 8.63721L23.8333 9.11018L23.9512 8.85117ZM23.8063 8.51246L23.8256 8.68574L23.8468 8.63945L23.8681 8.59379L23.8063 8.51246ZM26.607 7.90916L26.6365 7.95323C27.7259 9.59393 28.9673 9.53912 30.2365 7.81105L29.9457 7.78284L30.0016 7.90149C28.8432 9.43363 27.8289 9.46406 26.8443 8.01185L26.8144 7.96739C25.7158 6.31267 24.6082 6.58869 23.6418 8.71023L23.9319 8.67789L23.8681 8.59379C24.7661 6.67398 25.6326 6.47141 26.607 7.90916ZM30.045 7.99373L30.0618 7.82066L30.0317 7.86141L30.0016 7.90149L30.045 7.99373Z" fill="white"/>
<path d="M9.84345 24.0185C10.7018 22.134 11.4765 21.9243 12.3955 23.2812L12.4234 23.3228C13.5717 25.0523 14.8991 24.9987 16.2281 23.1893L16.2879 23.1078L16.0238 22.5469L15.8547 22.7771C14.7302 24.3083 13.7828 24.3649 12.8405 22.9751L12.812 22.9325C11.6434 21.1725 10.4303 21.4687 9.40842 23.7122L9.36633 23.8046L9.72547 24.2775L9.84345 24.0185ZM9.69852 23.6798L9.71783 23.8531L9.73906 23.8068L9.76027 23.7611L9.69852 23.6798ZM12.4992 23.0765L12.5287 23.1206C13.6181 24.7613 14.8595 24.7065 16.1288 22.9784L15.8379 22.9502L15.8938 23.0688C14.7354 24.601 13.7211 24.6314 12.7365 23.1792L12.7066 23.1347C11.608 21.48 10.5004 21.756 9.53404 23.8776L9.82413 23.8452L9.76027 23.7611C10.6583 21.8413 11.5248 21.6388 12.4992 23.0765ZM15.9372 23.1611L15.954 22.988L15.9239 23.0288L15.8938 23.0688L15.9372 23.1611Z" fill="white"/>
<path d="M28.4549 13.9778C29.3133 12.0932 30.0879 11.8835 31.0069 13.2405L31.0348 13.2821C32.1831 15.0115 33.5105 14.9579 34.8395 13.1485L34.8994 13.067L34.6353 12.5061L34.4662 12.7364C33.3416 14.2675 32.3943 14.3241 31.452 12.9343L31.4234 12.8917C30.2548 11.1317 29.0418 11.4279 28.0199 13.6714L27.9778 13.7638L28.3369 14.2368L28.4549 13.9778ZM28.31 13.639L28.3293 13.8123L28.3505 13.766L28.3717 13.7204L28.31 13.639ZM31.1106 13.0357L31.1402 13.0798C32.2295 14.7205 33.471 14.6657 34.7402 12.9376L34.4494 12.9094L34.5053 13.0281C33.3468 14.5602 32.3326 14.5906 31.3479 13.1384L31.3181 13.094C30.2194 11.4393 29.1118 11.7153 28.1455 13.8368L28.4356 13.8045L28.3717 13.7204C29.2698 11.8006 30.1362 11.598 31.1106 13.0357ZM34.5487 13.1203L34.5655 12.9472L34.5353 12.988L34.5053 13.0281L34.5487 13.1203Z" fill="white"/>
<defs>
<linearGradient id="paint0_linear_15970_30808" x1="10.6152" y1="15.7265" x2="29.4556" y2="9.71681" gradientUnits="userSpaceOnUse">
<stop stop-color="#FF9900"/>
<stop offset="1" stop-color="#FFC700"/>
</linearGradient>
</defs>
</svg>
