<svg xmlns="http://www.w3.org/2000/svg" fill="none" viewBox="0 0 48 48">
<defs><linearGradient id="gradientpoh" x1="2.981%" x2="45.577%" y1="23.872%" y2="23.872%" gradientUnits=><stop stop-color="#FF993B"/><stop offset="1" stop-color="#FF8CA7"/></linearGradient></defs>
<path fill="url(#gradientpoh)" d="M45.41 27.503a4.313 4.313 0 0 0-.456-.788c-1.08-1.411-2.2-2.801-3.322-4.15a4.44 4.44 0 0 1-1.079-3.113c.22-2.263.135-4.545-.25-6.785a12.884 12.884 0 0 0-2.988-6.433A18.33 18.33 0 0 0 23.552.01a21.16 21.16 0 0 0-8.179 1.39 20.758 20.758 0 0 0-9.777 7.284 13.962 13.962 0 0 0-2.594 7.574c-.026 2.054.275 4.1.892 6.059.747 2.324 1.744 4.565 2.657 6.827a63.116 63.116 0 0 1 2.491 6.66c.957 3.012.913 6.251-.124 9.235v.27a1.307 1.307 0 0 0 .871 1.784 30.297 30.297 0 0 0 8.843.872 31.832 31.832 0 0 0 8.698-.789 2.49 2.49 0 0 0 1.723-2.075c.094-.462.233-.914.415-1.349.196-.444.512-.826.913-1.1a3.614 3.614 0 0 1 2.076-.601c1.074.007 2.145.118 3.197.332.934.124 1.806.27 2.72.332a2.782 2.782 0 0 0 2.324-.872 3.797 3.797 0 0 0 .83-3.963 1.557 1.557 0 0 1 .395-1.66c.254-.24.525-.462.81-.664a1.037 1.037 0 0 0 .394-.934.996.996 0 0 0-.664-.788c0-.146-.332-.27 0-.332.332-.063.726 0 .913-.478a.996.996 0 0 0 0-1.203c-.124-.187-.27-.332-.394-.52a.975.975 0 0 1 .394-1.472l.81-.395c.332-.186.726-.332 1.058-.518a1.183 1.183 0 0 0 .166-1.412Zm-23.145 5.022-6.643-9.815 6.643 4.15 6.643-4.15-6.643 9.815Zm0-6.889-6.643-4.15 6.643-11.62 6.643 11.62-6.643 4.15Z"/></svg>