<svg width="239" height="275" viewBox="0 0 239 275" fill="none" xmlns="http://www.w3.org/2000/svg">
<path fill-rule="evenodd" clip-rule="evenodd" d="M119.078 0L238.157 68.75V206.25L119.078 275L0 206.25V68.75L119.078 0Z" fill="#F0F9FF"/>
<mask id="mask0_11610_145256" style="mask-type:alpha" maskUnits="userSpaceOnUse" x="14" y="16" width="210" height="243">
<path d="M118.985 16.5527L223.647 76.9794V197.833L118.985 258.259L14.3225 197.833V76.9794L118.985 16.5527Z" fill="white"/>
</mask>
<g mask="url(#mask0_11610_145256)">
<path d="M118.985 16.5527L223.647 76.9794V197.833L118.985 258.259L14.3225 197.833V76.9794L118.985 16.5527Z" fill="url(#paint0_linear_11610_145256)"/>
<path d="M220.088 205.78H27.0985V268.228H220.088V205.78Z" fill="#9013FE"/>
<path fill-rule="evenodd" clip-rule="evenodd" d="M86.6949 12.6025L65.8469 130.164H171.934L151.076 12.6025H86.6949Z" fill="white" fill-opacity="0.178568"/>
</g>
<mask id="mask1_11610_145256" style="mask-type:alpha" maskUnits="userSpaceOnUse" x="14" y="16" width="210" height="243">
<path d="M118.985 16.5527L223.647 76.9794V197.833L118.985 258.259L14.3225 197.833V76.9794L118.985 16.5527Z" fill="white"/>
</mask>
<g mask="url(#mask1_11610_145256)">
<path d="M118.985 16.5527L223.647 76.9794V197.833L118.985 258.259L14.3225 197.833V76.9794L118.985 16.5527Z" fill="url(#paint1_linear_11610_145256)" stroke="#4D00B4" stroke-width="0.5"/>
</g>
<path d="M200.199 90.6648V184.335L119.079 231.17L37.9576 184.335V90.6648L119.079 43.8296L200.199 90.6648ZM42.1883 93.1074V181.893L119.079 226.285L195.969 181.893V93.1074L119.079 48.7149L42.1883 93.1074Z" fill="#9013FE"/>
<path fill-rule="evenodd" clip-rule="evenodd" d="M119.079 64.7061L182.12 101.103V173.897L119.079 210.294L56.037 173.897V101.103L119.079 64.7061Z" fill="#4D00B4"/>
<path d="M176.374 154.862C176.42 154.746 176.446 154.628 176.446 154.509C176.446 154.179 176.262 153.859 175.921 153.555L163.119 116.624C164.938 115.777 166.202 113.938 166.202 111.801C166.202 108.861 163.816 106.477 160.872 106.477C159.54 106.477 158.324 106.969 157.39 107.777L121.58 97.0612V86.2719L115.631 81.0713V95.2811L81.1864 84.9743C80.5167 82.7982 78.4898 81.2162 76.0917 81.2162C73.1482 81.2162 70.7621 83.5999 70.7621 86.5404C70.7621 88.4149 71.7341 90.0597 73.1995 91.0085L60.3935 127.953L60.6088 128.027C60.5236 128.184 60.4749 128.343 60.4749 128.506C60.4749 130.551 67.4575 132.21 76.0709 132.21C83.7585 132.21 90.1423 130.888 91.4267 129.15L91.6669 129.067L91.5947 128.859C91.6412 128.743 91.6669 128.625 91.6669 128.506C91.6669 128.175 91.4824 127.856 91.1415 127.551L78.5608 91.2566C78.8824 91.0883 79.1855 90.8903 79.4644 90.6626C80.9122 89.6546 82.3237 89.3563 83.6988 89.7678C87.4135 90.8794 93.0484 94.7276 95.8716 95.5725C100.263 96.8864 106.849 98.8574 115.631 101.485V138.511C114.143 139.455 113.152 141.112 113.152 143.004C113.152 144.188 113.544 145.278 114.198 146.162C112.438 147.471 111.293 149.559 111.293 151.919C111.293 154.873 113.08 157.408 115.631 158.511V170.377C96.3793 170.693 81.2972 173.608 81.2972 177.158L81.421 180.873C81.421 184.634 98.3155 187.714 119.194 187.714C140.073 187.714 156.968 184.696 156.968 180.935L156.906 177.158C156.906 173.547 141.304 170.593 121.58 170.363V158.392C123.998 157.235 125.671 154.776 125.671 151.919C125.671 149.559 124.526 147.471 122.766 146.162C123.421 145.277 123.812 144.188 123.812 143.004C123.812 141.219 122.93 139.643 121.58 138.677V103.265C129.281 105.57 135.056 107.298 138.906 108.45C145.255 110.349 149.047 109.151 153.022 110.34C154.492 110.78 155.428 111.838 155.83 113.514C156.246 114.736 157.093 115.757 158.192 116.398L145.173 153.956L145.389 154.03C145.303 154.187 145.255 154.347 145.255 154.509C145.255 156.555 152.237 158.213 160.85 158.213C168.538 158.213 174.922 156.891 176.206 155.153L176.446 155.07L176.374 154.862ZM89.6611 126.69C86.9865 125.563 81.9041 124.802 76.0702 124.802C69.8019 124.802 64.4005 125.68 61.9222 126.947L74.2042 91.5148C74.7918 91.7373 75.4261 91.8647 76.0917 91.8647C76.5874 91.8647 77.0652 91.7919 77.5204 91.6656L89.6611 126.69ZM146.703 152.95L159.214 116.858C159.736 117.029 160.293 117.125 160.873 117.125C161.284 117.125 161.681 117.074 162.065 116.986L174.442 152.692C171.768 151.566 166.685 150.805 160.851 150.805C154.582 150.805 149.181 151.683 146.703 152.95Z" fill="white"/>
<path fill-rule="evenodd" clip-rule="evenodd" d="M118.42 98.9403C122.211 98.9403 125.285 97.9386 125.285 91.1342C125.285 86.5979 122.997 81.2371 118.42 75.0518C113.843 81.2371 111.554 86.5979 111.554 91.1342C111.554 97.9386 114.628 98.9403 118.42 98.9403Z" fill="white"/>
<path fill-rule="evenodd" clip-rule="evenodd" d="M76.0038 137.079C87.6388 137.079 97.0708 133.163 97.0708 128.332C97.0708 123.501 54.9368 123.501 54.9368 128.332C54.9368 133.163 64.3688 137.079 76.0038 137.079Z" fill="white"/>
<path fill-rule="evenodd" clip-rule="evenodd" d="M160.272 162.472C171.907 162.472 181.339 158.556 181.339 153.725C181.339 148.895 139.205 148.895 139.205 153.725C139.205 158.556 148.637 162.472 160.272 162.472Z" fill="white"/>
<path d="M118.796 176.06C127.99 176.06 135.443 173.744 135.443 170.888C135.443 168.031 127.99 165.715 118.796 165.715C109.603 165.715 102.15 168.031 102.15 170.888C102.15 173.744 109.603 176.06 118.796 176.06Z" fill="white"/>
<defs>
<linearGradient id="paint0_linear_11610_145256" x1="118.985" y1="16.5527" x2="118.985" y2="258.259" gradientUnits="userSpaceOnUse">
<stop stop-color="#8400DB"/>
<stop offset="1" stop-color="#4D00B4"/>
</linearGradient>
<linearGradient id="paint1_linear_11610_145256" x1="118.985" y1="16.5527" x2="118.985" y2="258.259" gradientUnits="userSpaceOnUse">
<stop stop-color="#8400DB"/>
<stop offset="1" stop-color="#4D00B4"/>
</linearGradient>
</defs>
</svg>
