<svg width="16" height="16" viewBox="0 0 16 16" fill="none" xmlns="http://www.w3.org/2000/svg">
<path d="M8.845 2.3746L8.255 1.16093C8.1575 0.950184 7.8525 0.942566 7.745 1.16093L7.155 2.3746L5.8475 2.56503C5.615 2.60057 5.515 2.89257 5.6875 3.06776L6.6375 4.00722L6.4125 5.33007C6.3775 5.5662 6.6175 5.74901 6.8325 5.63983L8.005 5.01014L9.17 5.62968C9.385 5.73886 9.6275 5.55604 9.59 5.31991L9.365 3.99706L10.315 3.06776C10.485 2.89511 10.3875 2.60311 10.155 2.56503L8.8475 2.3746H8.845ZM6.4 7.50096C5.9575 7.50096 5.6 7.86405 5.6 8.31346V13.1885C5.6 13.6379 5.9575 14.001 6.4 14.001H9.6C10.0425 14.001 10.4 13.6379 10.4 13.1885V8.31346C10.4 7.86405 10.0425 7.50096 9.6 7.50096H6.4ZM0.8 9.12597C0.3575 9.12597 0 9.48905 0 9.93847V13.1885C0 13.6379 0.3575 14.001 0.8 14.001H4C4.4425 14.001 4.8 13.6379 4.8 13.1885V9.93847C4.8 9.48905 4.4425 9.12597 4 9.12597H0.8ZM11.2 11.5635V13.1885C11.2 13.6379 11.5575 14.001 12 14.001H15.2C15.6425 14.001 16 13.6379 16 13.1885V11.5635C16 11.1141 15.6425 10.751 15.2 10.751H12C11.5575 10.751 11.2 11.1141 11.2 11.5635Z"/>
</svg>
