<svg viewBox="6 6 36 36" xmlns="http://www.w3.org/2000/svg">
<g clip-path="url(#clip0_13762_38788)">
<path fill-rule="evenodd" clip-rule="evenodd" d="M19.6025 14.8125L30.0528 15.2846L34.2837 24.785L28.3147 33.4678L17.8076 32.7878L13.5 22.4941L19.6025 14.8125ZM27.264 20.2888L19.6903 23.6329L26.1653 28.6925L27.264 20.2888ZM26.3871 18.6131L20.3345 15.9793L19.063 21.5169L26.3871 18.6131ZM24.853 29.9655L18.2749 25.2185L18.4341 31.6509L24.853 29.9655ZM33.233 24.764L28.7504 20.1671L27.5673 29.0068L33.233 24.764ZM26.3952 30.9994L20.8475 32.4648L27.3716 32.887L26.3952 30.9994ZM32.357 26.8497L27.5008 30.5057L28.4657 32.4115L32.357 26.8497ZM30.06 16.612L29.1168 18.5688L32.6276 22.1755L30.06 16.612ZM28.8848 15.6755L22.7197 15.4226L27.8052 17.6706L28.8848 15.6755ZM18.7022 16.5805L14.384 22.0911L17.2711 22.7091L18.7022 16.5805ZM17.097 23.7901L14.196 23.1694L17.2229 30.3762L17.097 23.7901Z" />
</g>
<g clip-path="url(#clip1_13762_38788)">
<path d="M8.2993 25.6257L8.1011 25.8233C8.01718 25.9069 7.88149 25.9069 7.79846 25.8233L6.06294 24.0943C5.97902 24.0106 5.97902 23.8754 6.06294 23.7926L7.79846 22.0627C7.88238 21.9791 8.01808 21.9791 8.1011 22.0627L8.2993 22.2603C8.38411 22.3448 8.38232 22.4827 8.29573 22.5655L7.21995 23.5871L9.78574 23.5871C9.90447 23.5871 10 23.6823 10 23.8006L10 24.0854C10 24.2037 9.90447 24.2989 9.78574 24.2989L7.21995 24.2989L8.29573 25.3205C8.38322 25.4033 8.385 25.5412 8.2993 25.6257V25.6257Z" />
</g>
<g clip-path="url(#clip2_13762_38788)">
<path d="M39.7007 22.3743L39.8989 22.1767C39.9828 22.0931 40.1185 22.0931 40.2015 22.1767L41.9371 23.9057C42.021 23.9894 42.021 24.1246 41.9371 24.2074L40.2015 25.9373C40.1176 26.0209 39.9819 26.0209 39.8989 25.9373L39.7007 25.7397C39.6159 25.6552 39.6177 25.5173 39.7043 25.4345L40.78 24.4129L38.2143 24.4129C38.0955 24.4129 38 24.3177 38 24.1994L38 23.9146C38 23.7963 38.0955 23.7011 38.2143 23.7011L40.78 23.7011L39.7043 22.6795C39.6168 22.5967 39.615 22.4588 39.7007 22.3743V22.3743Z" />
</g>
<g clip-path="url(#clip3_13762_38788)">
<path d="M22.3743 8.2993L22.1767 8.1011C22.0931 8.01718 22.0931 7.88149 22.1767 7.79846L23.9057 6.06294C23.9894 5.97902 24.1246 5.97902 24.2074 6.06294L25.9373 7.79846C26.0209 7.88238 26.0209 8.01808 25.9373 8.1011L25.7397 8.2993C25.6552 8.38411 25.5173 8.38232 25.4345 8.29573L24.4129 7.21995L24.4129 9.78574C24.4129 9.90447 24.3177 10 24.1994 10L23.9146 10C23.7963 10 23.7011 9.90447 23.7011 9.78574L23.7011 7.21995L22.6795 8.29573C22.5967 8.38322 22.4588 8.385 22.3743 8.2993V8.2993Z" />
</g>
<g clip-path="url(#clip4_13762_38788)">
<path d="M25.6257 39.7007L25.8233 39.8989C25.9069 39.9828 25.9069 40.1185 25.8233 40.2015L24.0943 41.9371C24.0106 42.021 23.8754 42.021 23.7926 41.9371L22.0627 40.2015C21.9791 40.1176 21.9791 39.9819 22.0627 39.8989L22.2603 39.7007C22.3448 39.6159 22.4827 39.6177 22.5655 39.7043L23.5871 40.78L23.5871 38.2143C23.5871 38.0955 23.6823 38 23.8006 38L24.0854 38C24.2037 38 24.2989 38.0955 24.2989 38.2143L24.2989 40.78L25.3205 39.7043C25.4033 39.6168 25.5412 39.615 25.6257 39.7007V39.7007Z" />
</g>
<defs>
<clipPath id="clip0_13762_38788">
<rect transform="translate(13.5 13.5)"/>
</clipPath>
<clipPath id="clip1_13762_38788">
<rect transform="translate(6 26) rotate(-90)"/>
</clipPath>
<clipPath id="clip2_13762_38788">
<rect transform="translate(42 22) rotate(90)"/>
</clipPath>
<clipPath id="clip3_13762_38788">
<rect transform="translate(22 6)"/>
</clipPath>
<clipPath id="clip4_13762_38788">
<rect transform="translate(26 42) rotate(-180)"/>
</clipPath>
</defs>
</svg>
