<svg width="48" height="48" viewBox="0 0 48 48" fill="none" xmlns="http://www.w3.org/2000/svg">
<path d="M14 29.6236V31.375C14 32.8229 17.5273 34 21.875 34C26.2227 34 29.75 32.8229 29.75 31.375V29.6236C28.0561 30.8172 24.9594 31.375 21.875 31.375C18.7906 31.375 15.6939 30.8172 14 29.6236ZM27.125 18.25C31.4727 18.25 35 17.0729 35 15.625C35 14.1771 31.4727 13 27.125 13C22.7773 13 19.25 14.1771 19.25 15.625C19.25 17.0729 22.7773 18.25 27.125 18.25ZM14 25.3211V27.4375C14 28.8854 17.5273 30.0625 21.875 30.0625C26.2227 30.0625 29.75 28.8854 29.75 27.4375V25.3211C28.0561 26.7156 24.9553 27.4375 21.875 27.4375C18.7947 27.4375 15.6939 26.7156 14 25.3211ZM31.0625 25.7723C33.4127 25.317 35 24.4721 35 23.5V21.7486C34.0484 22.4213 32.6498 22.8807 31.0625 23.1637V25.7723ZM21.875 19.5625C17.5273 19.5625 14 21.0309 14 22.8438C14 24.6566 17.5273 26.125 21.875 26.125C26.2227 26.125 29.75 24.6566 29.75 22.8438C29.75 21.0309 26.2227 19.5625 21.875 19.5625ZM30.8697 21.8717C33.3307 21.4287 35 20.5592 35 19.5625V17.8111C33.5439 18.8406 31.042 19.3943 28.4088 19.5256C29.6187 20.1121 30.5088 20.8996 30.8697 21.8717Z"/>
</svg>
