<svg width="15" height="15" viewBox="0 0 15 15" fill="none" xmlns="http://www.w3.org/2000/svg">
<g clip-path="url(#clip0_16930_50355)">
<path fill-rule="evenodd" clip-rule="evenodd" d="M1.96382 5.27C1.68215 5.935 1.53215 6.64167 1.51549 7.37C1.51382 7.44167 1.45549 7.5 1.38215 7.5H0.382154C0.364361 7.50001 0.346746 7.49645 0.330348 7.48954C0.31395 7.48263 0.299101 7.47251 0.286675 7.45978C0.274249 7.44704 0.264499 7.43195 0.257997 7.41538C0.251496 7.39882 0.248376 7.38112 0.248821 7.36333C0.320488 3.56 3.42715 0.5 7.24549 0.5C9.48549 0.5 11.4788 1.55167 12.7605 3.19167L13.7005 2.45667C13.7872 2.38667 13.9155 2.45 13.9155 2.56167L13.9022 5.57667C13.9022 5.66167 13.8205 5.725 13.7372 5.705L10.8088 4.98833C10.7844 4.98239 10.7622 4.96968 10.7447 4.95167C10.7273 4.93367 10.7152 4.91109 10.71 4.88654C10.7048 4.86199 10.7066 4.83647 10.7152 4.8129C10.7239 4.78934 10.739 4.76869 10.7588 4.75333L11.7622 3.97C11.6188 3.78667 11.4638 3.61167 11.2988 3.44667C10.7773 2.9222 10.1585 2.50441 9.47715 2.21667C8.77215 1.91833 8.02215 1.76667 7.24715 1.76667C6.47215 1.76667 5.72215 1.91833 5.01549 2.21667C4.33215 2.505 3.71882 2.91833 3.19215 3.44667C2.66549 3.975 2.25215 4.58667 1.96382 5.27ZM13.1155 7.5H14.1155C14.1333 7.49999 14.1509 7.50355 14.1673 7.51046C14.1837 7.51737 14.1985 7.52749 14.211 7.54022C14.2234 7.55296 14.2331 7.56805 14.2396 7.58462C14.2461 7.60118 14.2493 7.61888 14.2488 7.63667C14.1772 11.4383 11.0722 14.5 7.25215 14.5C5.01215 14.5 3.01882 13.4483 1.73715 11.81L0.797154 12.545C0.710488 12.615 0.582154 12.5517 0.582154 12.44L0.593821 9.42333C0.593821 9.33833 0.675488 9.275 0.758821 9.295L3.68715 10.0117C3.71154 10.0176 3.73375 10.0303 3.75123 10.0483C3.76872 10.0663 3.78076 10.0889 3.78599 10.1135C3.79121 10.138 3.7894 10.1635 3.78076 10.1871C3.77212 10.2107 3.75701 10.2313 3.73715 10.2467L2.73382 11.03C2.87715 11.2133 3.03215 11.3883 3.19715 11.5533C3.72843 12.0871 4.36013 12.5103 5.05582 12.7987C5.75151 13.087 6.49741 13.2347 7.25049 13.2333C8.00381 13.2348 8.74998 13.0871 9.44594 12.7987C10.1419 12.5104 10.7739 12.0871 11.3055 11.5533C11.8322 11.0267 12.2455 10.4133 12.5338 9.73C12.8155 9.065 12.9655 8.35833 12.9822 7.63C12.9838 7.55833 13.0422 7.5 13.1155 7.5ZM9.56967 6.68723L9.80169 6.91924C9.89779 7.01535 9.89779 7.17117 9.80169 7.26727L8.52558 8.54337C8.42948 8.63948 8.27367 8.63948 8.17756 8.54337L7.94554 8.31136C7.84943 8.21526 7.84943 8.05944 7.94554 7.96333L8.00355 7.90533L7.59751 7.49929L6.76654 8.33027L6.82455 8.38827C6.95269 8.51641 6.95269 8.72417 6.82455 8.85231L5.64796 10.0289C5.51982 10.157 5.31207 10.157 5.18393 10.0289L4.71989 9.56485C4.59174 9.43671 4.59174 9.22896 4.71989 9.10081L5.89646 7.92422C6.0246 7.79608 6.23235 7.79608 6.3605 7.92422L6.4185 7.98223L7.24948 7.15126L6.84344 6.74522L6.78544 6.80323C6.68934 6.89934 6.53352 6.89934 6.43741 6.80323L6.2054 6.57121C6.10929 6.47511 6.10929 6.3193 6.2054 6.22319L7.4815 4.94708C7.5776 4.85097 7.73342 4.85097 7.82953 4.94708L8.06154 5.17911C8.15765 5.27521 8.15765 5.43102 8.06154 5.52713L8.00354 5.58514L9.16364 6.74523L9.22165 6.68723C9.31775 6.59112 9.47356 6.59112 9.56967 6.68723Z" fill="#B45FFF"/>
</g>
<defs>
<clipPath id="clip0_16930_50355">
<rect width="14" height="14" fill="white" transform="translate(0.248779 0.5)"/>
</clipPath>
</defs>
</svg>
