<svg xmlns="http://www.w3.org/2000/svg" width="14" height="14" viewBox="0 0 14 14" fill="none">
  <path d="M1.26671 6.87C1.28337 6.14167 1.43337 5.435 1.71504 4.77C2.00337 4.08667 2.41671 3.475 2.94337 2.94667C3.47004 2.41833 4.08337 2.005 4.76671 1.71667C5.47337 1.41833 6.22337 1.26667 6.99837 1.26667C7.77337 1.26667 8.52337 1.41833 9.22837 1.71667C9.90975 2.00441 10.5285 2.4222 11.05 2.94667C11.215 3.11167 11.37 3.28667 11.5134 3.47L10.51 4.25333C10.4902 4.26869 10.4751 4.28934 10.4664 4.3129C10.4578 4.33647 10.456 4.36199 10.4612 4.38654C10.4664 4.41109 10.4785 4.43367 10.496 4.45167C10.5134 4.46968 10.5357 4.48239 10.56 4.48833L13.4884 5.205C13.5717 5.225 13.6534 5.16167 13.6534 5.07667L13.6667 2.06167C13.6667 1.95 13.5384 1.88667 13.4517 1.95667L12.5117 2.69167C11.23 1.05167 9.23671 0 6.99671 0C3.17837 0 0.0717083 3.06 4.16767e-05 6.86333C-0.000403165 6.88112 0.00271688 6.89882 0.00921806 6.91538C0.0157192 6.93195 0.02547 6.94704 0.0378957 6.95978C0.0503214 6.97251 0.0651708 6.98263 0.0815687 6.98954C0.0979666 6.99645 0.115581 7.00001 0.133375 7H1.13337C1.20671 7 1.26504 6.94167 1.26671 6.87ZM13.8667 7H12.8667C12.7934 7 12.735 7.05833 12.7334 7.13C12.7167 7.85833 12.5667 8.565 12.285 9.23C11.9967 9.91333 11.5834 10.5267 11.0567 11.0533C10.5251 11.5871 9.89312 12.0104 9.19716 12.2987C8.5012 12.5871 7.75503 12.7348 7.00171 12.7333C6.24863 12.7347 5.50273 12.587 4.80704 12.2987C4.11135 12.0103 3.47965 11.5871 2.94837 11.0533C2.78337 10.8883 2.62837 10.7133 2.48504 10.53L3.48837 9.74667C3.50823 9.73131 3.52334 9.71066 3.53198 9.6871C3.54062 9.66353 3.54243 9.63801 3.53721 9.61346C3.53198 9.58891 3.51994 9.56633 3.50245 9.54833C3.48497 9.53032 3.46276 9.51761 3.43837 9.51167L0.510042 8.795C0.426708 8.775 0.345042 8.83833 0.345042 8.92333L0.333375 11.94C0.333375 12.0517 0.461708 12.115 0.548375 12.045L1.48837 11.31C2.77004 12.9483 4.76337 14 7.00337 14C10.8234 14 13.9284 10.9383 14 7.13667C14.0005 7.11888 13.9974 7.10118 13.9909 7.08462C13.9844 7.06806 13.9746 7.05296 13.9622 7.04022C13.9498 7.02749 13.9349 7.01737 13.9185 7.01046C13.9021 7.00355 13.8845 6.99999 13.8667 7Z" fill="#E5E5E5"/>
</svg>