<svg width="48" height="48" viewBox="0 0 48 48" fill="none" xmlns="http://www.w3.org/2000/svg">
<path d="M23.2042 47.7782C23.717 48.0739 24.3487 48.0739 24.8615 47.7782L44.237 36.6058C44.7498 36.3102 45.0657 35.7638 45.0657 35.1724V12.8276C45.0657 12.2363 44.7498 11.6898 44.237 11.3942L24.8615 0.221752C24.3487 -0.0739136 23.717 -0.0739136 23.2042 0.221752L3.82863 11.3942C3.31587 11.6898 3 12.2363 3 12.8276V35.1724C3 35.7638 3.31587 36.3102 3.82863 36.6058L23.2042 47.7782ZM24.0328 46.3448L4.65726 35.1724V12.8276L24.0328 1.65517L43.4084 12.8276V35.1724L24.0328 46.3448Z" fill="#4D00B4"/>
<path fill-rule="evenodd" clip-rule="evenodd" d="M18.6377 13.7129L31.0577 14.2614L36.0861 25.2996L28.992 35.3878L16.5045 34.5977L11.385 22.6379L18.6377 13.7129ZM26.669 32.5518L20.0905 34.2474L27.8268 34.7359L26.669 32.5518ZM33.7386 27.7501L27.98 31.9804L29.1243 34.1857L33.7386 27.7501ZM17.0398 25.8626L17.2285 33.3056L24.8402 31.3553L17.0398 25.8626ZM12.2029 23.4915L15.7924 31.8306L15.643 24.2098L12.2029 23.4915ZM29.4618 20.0176L28.0589 30.2461L34.7774 25.3367L29.4618 20.0176ZM27.6992 20.1584L18.7181 24.0279L26.3964 29.8823L27.6992 20.1584ZM17.5465 15.8675L12.4259 22.2439L15.8494 22.959L17.5465 15.8675ZM31.0148 15.9039L29.8963 18.1682L34.0595 22.3415L31.0148 15.9039ZM19.4821 15.1719L17.9744 21.5795L26.6594 18.2194L19.4821 15.1719ZM22.3105 14.5277L28.341 17.1289L29.6212 14.8204L22.3105 14.5277Z" fill="#9013FE"/>
<path fill-rule="evenodd" clip-rule="evenodd" d="M44.0625 12.6081L37.8125 16.215L37.6875 15.9985L43.9375 12.3916L44.0625 12.6081ZM10.3124 32.1461L4.31244 35.6081L4.1875 35.3916L10.1875 31.9295L10.3124 32.1461Z" fill="#4D00B4"/>
<path fill-rule="evenodd" clip-rule="evenodd" d="M43.9368 35.6085L37.7099 31.9613L37.8363 31.7456L44.0632 35.3928L43.9368 35.6085ZM10.1619 16.1103L3.9355 12.3574L4.06456 12.1433L10.2909 15.8962L10.1619 16.1103Z" fill="#4D00B4"/>
<path fill-rule="evenodd" clip-rule="evenodd" d="M24.0231 47L24.0231 39.746L24.2731 39.746L24.2731 47L24.0231 47ZM23.9764 7.96479L23.9764 0.999689L24.2264 0.999689L24.2264 7.96479L23.9764 7.96479Z" fill="#4D00B4"/>
</svg>
