<svg  viewBox="0 0 350 350" fill="none" xmlns="http://www.w3.org/2000/svg">
<path fillRule="evenodd" clipRule="evenodd" d="M326.109 87.5L174.554 0L23 87.5V262.5L174.554 350L326.109 262.5V87.5ZM307.641 97.973L174.435 21.0664L41.2285 97.973V251.786L174.435 328.693L307.641 251.786V97.973Z" fill="#F0F9FF"/>
<path d="M174.435 21.0664L307.641 97.973V251.786L174.435 328.693L41.2285 251.786V97.973L174.435 21.0664Z" fill="#7E1BD4"/>
<path d="M290.662 261.589L174.435 328.693L58.4463 261.727V214.021H290.662V261.589Z" fill="#973AE8"/>
<path d="M89.2074 82.832H260.379C262.296 82.832 263.849 84.3856 263.849 86.3021V86.3045C263.849 88.221 262.296 89.7746 260.379 89.7746H89.2074C87.2909 89.7746 85.7373 88.221 85.7373 86.3045V86.3021C85.7373 84.3856 87.2909 82.832 89.2074 82.832Z" fill="#4D00B4"/>
<path d="M89.2074 105.335H260.379C262.296 105.335 263.849 106.889 263.849 108.806V108.808C263.849 110.724 262.296 112.278 260.379 112.278H89.2074C87.2909 112.278 85.7373 110.724 85.7373 108.808V108.806C85.7373 106.889 87.2909 105.335 89.2074 105.335Z" fill="#4D00B4"/>
<path d="M260.379 127.839H89.2074C87.2909 127.839 85.7373 129.392 85.7373 131.309V131.311C85.7373 133.228 87.2909 134.781 89.2074 134.781H260.379C262.296 134.781 263.849 133.228 263.849 131.311V131.309C263.849 129.392 262.296 127.839 260.379 127.839Z" fill="#4D00B4"/>
<path d="M89.2074 150.342H260.379C262.296 150.342 263.849 151.896 263.849 153.812V153.815C263.849 155.731 262.296 157.285 260.379 157.285H89.2074C87.2909 157.285 85.7373 155.731 85.7373 153.815V153.812C85.7373 151.896 87.2909 150.342 89.2074 150.342Z" fill="#4D00B4"/>
<path d="M260.379 172.846H89.2074C87.2909 172.846 85.7373 174.399 85.7373 176.316V176.318C85.7373 178.235 87.2909 179.788 89.2074 179.788H260.379C262.296 179.788 263.849 178.235 263.849 176.318V176.316C263.849 174.399 262.296 172.846 260.379 172.846Z" fill="#4D00B4"/>
<path d="M89.2074 195.349H260.379C262.296 195.349 263.849 196.903 263.849 198.819V198.822C263.849 200.738 262.296 202.292 260.379 202.292H89.2074C87.2909 202.292 85.7373 200.738 85.7373 198.822V198.819C85.7373 196.903 87.2909 195.349 89.2074 195.349Z" fill="#4D00B4"/>
<path d="M131.092 236.614L137.08 251.618L143.152 236.614H146.727L137.01 259.891L127.517 236.614H131.092ZM147.386 247.341C147.386 244.293 148.504 241.676 150.738 239.488C152.963 237.301 155.636 236.207 158.759 236.207C161.844 236.207 164.489 237.31 166.695 239.516C168.911 241.723 170.019 244.373 170.019 247.467C170.019 250.58 168.906 253.221 166.681 255.39C164.447 257.568 161.75 258.657 158.59 258.657C155.795 258.657 153.285 257.689 151.06 255.754C148.611 253.614 147.386 250.809 147.386 247.341ZM150.682 247.383C150.682 249.776 151.486 251.744 153.094 253.286C154.692 254.829 156.538 255.6 158.632 255.6C160.904 255.6 162.82 254.815 164.382 253.244C165.943 251.655 166.723 249.72 166.723 247.439C166.723 245.13 165.952 243.195 164.41 241.634C162.876 240.063 160.979 239.278 158.717 239.278C156.464 239.278 154.561 240.063 153.009 241.634C151.458 243.186 150.682 245.102 150.682 247.383ZM179.33 239.685V258.264H176.062V239.685H171.084V236.614H184.293V239.685H179.33ZM199.157 239.685H190.477V244.887H198.905V247.958H190.477V255.193H199.157V258.264H187.21V236.614H199.157V239.685ZM203.448 258.264V236.614H207.991C210.17 236.614 211.89 236.829 213.152 237.259C214.507 237.679 215.736 238.395 216.84 239.404C219.074 241.442 220.191 244.12 220.191 247.439C220.191 250.767 219.027 253.459 216.699 255.516C215.531 256.544 214.306 257.259 213.025 257.661C211.829 258.063 210.132 258.264 207.935 258.264H203.448ZM206.715 255.193H208.188C209.655 255.193 210.875 255.039 211.848 254.731C212.82 254.403 213.698 253.885 214.484 253.174C216.092 251.706 216.896 249.795 216.896 247.439C216.896 245.065 216.101 243.139 214.512 241.662C213.081 240.344 210.973 239.685 208.188 239.685H206.715V255.193Z" fill="white"/>
<path fillRule="evenodd" clipRule="evenodd" d="M184.273 95.4367C184.273 99.8744 183.272 102.427 181.652 103.872L226.436 117.236C227.662 116.178 229.259 115.534 231.009 115.534C234.875 115.534 238.009 118.656 238.009 122.507C238.009 125.306 236.349 127.713 233.96 128.823L249.633 173.911C254.603 174.701 257.888 175.867 257.888 177.409C257.888 183.735 245.501 188.863 230.221 188.863C214.941 188.863 202.555 183.735 202.555 177.409C202.555 175.77 206.265 174.556 211.764 173.767L227.49 128.526C226.046 127.687 224.933 126.35 224.387 124.749C223.859 122.555 222.63 121.169 220.7 120.594C218.394 119.905 216.134 119.827 213.612 119.74C210.424 119.631 206.816 119.506 202.162 118.118L179.409 111.328V157.704C181.181 158.969 182.339 161.032 182.339 163.37C182.339 164.92 181.825 166.348 180.966 167.505C183.277 169.22 184.781 171.954 184.781 175.045C184.781 178.786 182.583 182.007 179.409 183.522V193.204C189.742 193.744 197.613 196.529 197.613 199.884C197.613 199.941 197.611 199.998 197.607 200.054C214.285 201.492 225.8 204.553 225.8 208.099L225.882 213.045C225.882 217.97 203.694 221.922 176.275 221.922C148.856 221.922 126.669 217.889 126.669 212.963L126.506 208.099C126.506 204.61 137.657 201.59 153.904 200.124C153.895 200.045 153.89 199.965 153.89 199.884C153.89 196.583 161.509 193.834 171.595 193.232V183.678C168.245 182.234 165.899 178.914 165.899 175.046C165.899 171.955 167.402 169.22 169.713 167.506C168.854 166.348 168.34 164.921 168.34 163.37C168.34 160.893 169.641 158.722 171.595 157.486V108.997L145.646 101.253C143.92 100.738 141.392 99.3696 138.691 97.9074C135.593 96.2301 132.267 94.4294 129.66 93.6517C127.854 93.1128 126.001 93.5034 124.099 94.8235C123.733 95.1217 123.335 95.381 122.913 95.6014L138.552 140.594C143.752 141.385 147.221 142.572 147.221 144.156C147.221 150.482 134.834 155.61 119.554 155.61C104.274 155.61 91.8877 150.482 91.8877 144.156C91.8877 142.619 95.1518 141.456 100.095 140.666L115.872 95.2764C113.947 94.034 112.671 91.8798 112.671 89.4251C112.671 85.5741 115.805 82.4524 119.67 82.4524C122.819 82.4524 125.481 84.5243 126.361 87.3741L166.579 99.3752C166.359 98.2638 166.24 96.9615 166.24 95.4367C166.24 89.4959 169.246 82.4754 175.257 74.375C181.268 82.4754 184.273 89.4959 184.273 95.4367ZM232.576 129.297L248.001 173.673C238.268 172.369 223.439 172.329 213.39 173.552L228.831 129.129C229.517 129.353 230.249 129.478 231.01 129.478C231.549 129.478 232.072 129.412 232.576 129.297ZM101.728 140.426L117.191 95.9395C117.963 96.2309 118.796 96.3978 119.67 96.3978C120.321 96.3978 120.949 96.3024 121.546 96.137L136.921 140.366C126.853 139.073 111.635 139.093 101.728 140.426Z" fill="white"/>
</svg>
