<svg width="16" height="16" viewBox="0 0 16 16" fill="none" xmlns="http://www.w3.org/2000/svg">
<path d="M11.2361 3H11.9214C11.9871 3 12.0234 3.07549 11.9832 3.12549L7.19513 9.19289C7.06866 9.35171 6.8275 9.35171 6.70201 9.19289L4.01682 5.79107C3.97663 5.74009 4.0129 5.6646 4.07859 5.6646H4.76385C4.81124 5.66466 4.858 5.67545 4.90061 5.69616C4.94323 5.71688 4.9806 5.74698 5.00992 5.7842L6.94808 8.23999L10.9901 3.1196C11.0489 3.04412 11.1401 3 11.2361 3Z"/>
<path fill-rule="evenodd" clip-rule="evenodd" d="M13.2571 2.70117L13.3334 3.20585V11.5882H2.66669V3.20585L2.74295 2.70117C2.89075 1.7231 3.73133 1 4.7205 1H11.2795C12.2687 1 13.1093 1.7231 13.2571 2.70117ZM3.16669 11.0882V3.24342L3.23734 2.77588C3.34819 2.04233 3.97862 1.5 4.7205 1.5H11.2795C12.0214 1.5 12.6519 2.04233 12.7627 2.77588L12.8334 3.24342V11.0882H3.16669Z"/>
<path d="M0 10.2649C0 9.53424 0.597222 8.94141 1.33333 8.94141H1.77778V12.4708H14.2222V8.94141H14.6667C15.4028 8.94141 16 9.53424 16 10.2649V12.912C16 13.6427 15.4028 14.2355 14.6667 14.2355H1.33333C0.597222 14.2355 0 13.6427 0 12.912V10.2649Z"/>
</svg>
