<svg width="239" height="275" viewBox="0 0 239 275" fill="none" xmlns="http://www.w3.org/2000/svg">
<g clip-path="url(#clip0_13191_185171)">
<path fill-rule="evenodd" clip-rule="evenodd" d="M119.037 0L238.036 68.75V206.25L119.037 275L0.0380859 206.25V68.75L119.037 0Z" fill="#F0F9FF"/>
<mask id="mask0_13191_185171" style="mask-type:alpha" maskUnits="userSpaceOnUse" x="14" y="16" width="210" height="243">
<path d="M118.943 16.5527L223.535 76.9794V197.833L118.943 258.259L14.3506 197.833V76.9794L118.943 16.5527Z" fill="white"/>
</mask>
<g mask="url(#mask0_13191_185171)">
<path d="M118.943 16.5527L223.535 76.9794V197.833L118.943 258.259L14.3506 197.833V76.9794L118.943 16.5527Z" fill="url(#paint0_linear_13191_185171)"/>
<path d="M219.979 205.779H27.1182V268.228H219.979V205.779Z" fill="#9013FE"/>
<path fill-rule="evenodd" clip-rule="evenodd" d="M86.675 12.6035L65.8408 130.165H171.858L151.014 12.6035H86.675Z" fill="white" fill-opacity="0.178568"/>
</g>
<mask id="mask1_13191_185171" style="mask-type:alpha" maskUnits="userSpaceOnUse" x="14" y="16" width="210" height="243">
<path d="M118.943 16.5527L223.535 76.9794V197.833L118.943 258.259L14.3506 197.833V76.9794L118.943 16.5527Z" fill="white"/>
</mask>
<g mask="url(#mask1_13191_185171)">
<path d="M118.943 16.5527L223.535 76.9794V197.833L118.943 258.259L14.3506 197.833V76.9794L118.943 16.5527Z" fill="url(#paint1_linear_13191_185171)" stroke="#4D00B4" stroke-width="0.5"/>
<path d="M210.204 168.16H27.8701V268.229H210.204V168.16Z" fill="#9013FE"/>
</g>
<path d="M172.233 166.156H122.984V171.799H172.233V166.156Z" fill="white"/>
<path d="M164.338 161.643H130.879V167.286H164.338V161.643Z" fill="white"/>
<path d="M188.605 82.7637H49.8453C49.5435 82.7637 49.2988 83.0085 49.2988 83.3105V87.6717C49.2988 87.9737 49.5435 88.2185 49.8453 88.2185H188.605C188.906 88.2185 189.151 87.9737 189.151 87.6717V83.3105C189.151 83.0085 188.906 82.7637 188.605 82.7637Z" fill="#4D00B4"/>
<path d="M188.605 65.082H49.8453C49.5435 65.082 49.2988 65.3268 49.2988 65.6288V69.9901C49.2988 70.2921 49.5435 70.5369 49.8453 70.5369H188.605C188.906 70.5369 189.151 70.2921 189.151 69.9901V65.6288C189.151 65.3268 188.906 65.082 188.605 65.082Z" fill="#4D00B4"/>
<path d="M188.605 100.445H49.8453C49.5435 100.445 49.2988 100.69 49.2988 100.992V105.353C49.2988 105.655 49.5435 105.9 49.8453 105.9H188.605C188.906 105.9 189.151 105.655 189.151 105.353V100.992C189.151 100.69 188.906 100.445 188.605 100.445Z" fill="#4D00B4"/>
<path d="M188.605 118.125H49.8453C49.5435 118.125 49.2988 118.37 49.2988 118.672V123.033C49.2988 123.335 49.5435 123.58 49.8453 123.58H188.605C188.906 123.58 189.151 123.335 189.151 123.033V118.672C189.151 118.37 188.906 118.125 188.605 118.125Z" fill="#4D00B4"/>
<path d="M188.605 135.807H49.8453C49.5435 135.807 49.2988 136.051 49.2988 136.353V140.715C49.2988 141.017 49.5435 141.262 49.8453 141.262H188.605C188.906 141.262 189.151 141.017 189.151 140.715V136.353C189.151 136.051 188.906 135.807 188.605 135.807Z" fill="#4D00B4"/>
<path d="M188.605 153.488H49.8453C49.5435 153.488 49.2988 153.733 49.2988 154.035V158.396C49.2988 158.698 49.5435 158.943 49.8453 158.943H188.605C188.906 158.943 189.151 158.698 189.151 158.396V154.035C189.151 153.733 188.906 153.488 188.605 153.488Z" fill="#4D00B4"/>
<path d="M148.29 157.675V149.943C148.29 149.553 147.974 149.236 147.583 149.236C147.193 149.236 146.877 149.553 146.877 149.943V157.675C146.877 158.065 147.193 158.381 147.583 158.381C147.974 158.381 148.29 158.065 148.29 157.675Z" fill="#009AFF"/>
<path d="M170.259 161.49L178.075 146.5C178.256 146.154 178.121 145.727 177.774 145.547C177.428 145.367 177 145.501 176.82 145.847L169.003 160.837C168.822 161.183 168.957 161.61 169.304 161.79C169.651 161.971 170.078 161.836 170.259 161.49Z" fill="#009AFF"/>
<path d="M125.568 161.49L117.752 146.5C117.571 146.154 117.706 145.727 118.053 145.547C118.399 145.367 118.827 145.501 119.008 145.847L126.824 160.837C127.005 161.183 126.87 161.61 126.523 161.79C126.176 161.971 125.749 161.836 125.568 161.49Z" fill="#009AFF"/>
<path fill-rule="evenodd" clip-rule="evenodd" d="M97.7408 103.231C76.5015 82.8365 51.3011 72.6391 22.1396 72.6391L74.5863 42.0469C90.649 46.7894 106.754 56.559 126.715 75.3513L97.7408 103.231Z" fill="url(#paint2_linear_13191_185171)" fill-opacity="0.4"/>
<path fill-rule="evenodd" clip-rule="evenodd" d="M165.955 109.867L157.589 111.06L133.686 87.1984L134.881 78.8468L130.101 74.0744C128.121 72.0976 124.91 72.0976 122.93 74.0744L96.6378 100.322C94.6576 102.299 94.6576 105.504 96.6378 107.481L101.418 112.253L109.784 111.06L118.15 119.411L101.029 136.503C75.9194 152.056 64.2535 162.907 66.0307 169.055L75.5917 178.6C82.4047 179.525 93.2739 167.879 108.2 143.662L125.321 126.57L133.687 134.921L132.491 143.273L137.272 148.045C139.252 150.022 142.462 150.022 144.442 148.045L170.735 121.797C172.715 119.821 172.715 116.616 170.735 114.639L165.955 109.867Z" fill="white"/>
<path fill-rule="evenodd" clip-rule="evenodd" d="M161.574 157.203L160.19 157.932L160.454 156.389L159.334 155.297L160.882 155.072L161.574 153.668L162.266 155.072L163.814 155.297L162.694 156.389L162.958 157.932L161.574 157.203Z" fill="#F8E71C"/>
<path fill-rule="evenodd" clip-rule="evenodd" d="M126.809 138.914L125.425 139.643L125.689 138.1L124.569 137.007L126.117 136.782L126.809 135.379L127.502 136.782L129.049 137.007L127.929 138.1L128.194 139.643L126.809 138.914Z" fill="#F8E71C"/>
<path fill-rule="evenodd" clip-rule="evenodd" d="M132.933 154.942L131.549 155.67L131.813 154.127L130.693 153.035L132.241 152.81L132.933 151.406L133.626 152.81L135.173 153.035L134.053 154.127L134.318 155.67L132.933 154.942Z" fill="#F8E71C"/>
<path fill-rule="evenodd" clip-rule="evenodd" d="M186.446 122.416L185.062 123.144L185.326 121.602L184.206 120.509L185.754 120.284L186.446 118.881L187.138 120.284L188.686 120.509L187.566 121.602L187.83 123.144L186.446 122.416Z" fill="#F8E71C"/>
<path fill-rule="evenodd" clip-rule="evenodd" d="M110.088 157.086L109.118 157.596L109.304 156.516L108.52 155.751L109.603 155.594L110.088 154.611L110.572 155.594L111.656 155.751L110.872 156.516L111.057 157.596L110.088 157.086Z" fill="#F8E71C"/>
<path fill-rule="evenodd" clip-rule="evenodd" d="M167.463 141.152L166.493 141.662L166.679 140.582L165.895 139.818L166.978 139.66L167.463 138.678L167.947 139.66L169.031 139.818L168.247 140.582L168.432 141.662L167.463 141.152Z" fill="#F8E71C"/>
<path fill-rule="evenodd" clip-rule="evenodd" d="M103.021 127.955L102.052 128.465L102.237 127.385L101.453 126.62L102.537 126.463L103.021 125.48L103.506 126.463L104.589 126.62L103.805 127.385L103.99 128.465L103.021 127.955Z" fill="#F8E71C"/>
<path fill-rule="evenodd" clip-rule="evenodd" d="M190.45 146.338L189.481 146.848L189.666 145.768L188.882 145.003L189.965 144.846L190.45 143.863L190.934 144.846L192.018 145.003L191.234 145.768L191.419 146.848L190.45 146.338Z" fill="#F8E71C"/>
<path d="M84.9596 185.098L89.6587 196.864L94.4239 185.098H97.2301L89.6037 203.351L82.1533 185.098H84.9596ZM97.7473 193.51C97.7473 191.12 98.6241 189.068 100.378 187.352C102.124 185.637 104.222 184.779 106.672 184.779C109.093 184.779 111.17 185.644 112.901 187.374C114.64 189.104 115.509 191.183 115.509 193.609C115.509 196.05 114.636 198.121 112.89 199.822C111.137 201.53 109.02 202.384 106.54 202.384C104.347 202.384 102.377 201.625 100.631 200.108C98.7084 198.429 97.7473 196.23 97.7473 193.51ZM100.334 193.543C100.334 195.42 100.964 196.963 102.226 198.172C103.481 199.382 104.93 199.987 106.573 199.987C108.356 199.987 109.86 199.371 111.085 198.139C112.311 196.893 112.923 195.376 112.923 193.587C112.923 191.776 112.318 190.259 111.107 189.035C109.904 187.803 108.415 187.187 106.639 187.187C104.871 187.187 103.378 187.803 102.16 189.035C100.942 190.252 100.334 191.754 100.334 193.543ZM122.817 187.506V202.076H120.252V187.506H116.346V185.098H126.712V187.506H122.817ZM138.378 187.506H131.566V191.586H138.18V193.994H131.566V199.668H138.378V202.076H129.001V185.098H138.378V187.506ZM141.745 202.076V185.098H145.311C147.02 185.098 148.37 185.267 149.361 185.604C150.424 185.934 151.389 186.495 152.255 187.286C154.008 188.884 154.885 190.985 154.885 193.587C154.885 196.197 153.972 198.308 152.145 199.921C151.228 200.727 150.267 201.288 149.262 201.603C148.322 201.918 146.991 202.076 145.267 202.076H141.745ZM144.309 199.668H145.465C146.617 199.668 147.574 199.547 148.337 199.305C149.1 199.048 149.79 198.642 150.406 198.084C151.668 196.933 152.299 195.434 152.299 193.587C152.299 191.725 151.675 190.215 150.428 189.057C149.306 188.023 147.651 187.506 145.465 187.506H144.309V199.668Z" fill="white"/>
</g>
<defs>
<linearGradient id="paint0_linear_13191_185171" x1="118.943" y1="16.5527" x2="118.943" y2="258.259" gradientUnits="userSpaceOnUse">
<stop stop-color="#8400DB"/>
<stop offset="1" stop-color="#4D00B4"/>
</linearGradient>
<linearGradient id="paint1_linear_13191_185171" x1="118.943" y1="16.5527" x2="118.943" y2="258.259" gradientUnits="userSpaceOnUse">
<stop stop-color="#8400DB"/>
<stop offset="1" stop-color="#4D00B4"/>
</linearGradient>
<linearGradient id="paint2_linear_13191_185171" x1="74.4275" y1="42.0469" x2="74.4275" y2="102.555" gradientUnits="userSpaceOnUse">
<stop stop-color="white" stop-opacity="0.0295291"/>
<stop offset="1" stop-color="#D3A9FB"/>
</linearGradient>
<clipPath id="clip0_13191_185171">
<rect width="238.074" height="275" fill="white"/>
</clipPath>
</defs>
</svg>
