<svg viewBox="0 0 49 48" fill="none" xmlns="http://www.w3.org/2000/svg">
<path fill-rule="evenodd" clip-rule="evenodd" d="M19.1196 11L29.5699 11.4721L33.8008 20.9725L27.8318 29.6553L17.3247 28.9753L13.0171 18.6816L19.1196 11ZM26.781 16.4763L19.2073 19.8204L25.6824 24.88L26.781 16.4763ZM25.9042 14.8006L19.8516 12.1668L18.5801 17.7044L25.9042 14.8006ZM24.3701 26.153L17.792 21.406L17.9511 27.8384L24.3701 26.153ZM32.7501 20.9515L28.2675 16.3546L27.0844 25.1943L32.7501 20.9515ZM25.9123 27.1869L20.3646 28.6523L26.8887 29.0745L25.9123 27.1869ZM31.8741 23.0372L27.0179 26.6932L27.9828 28.599L31.8741 23.0372ZM29.5771 12.7995L28.6339 14.7563L32.1447 18.363L29.5771 12.7995ZM28.4019 11.863L22.2368 11.6101L27.3223 13.8581L28.4019 11.863ZM18.2193 12.768L13.9011 18.2786L16.7882 18.8966L18.2193 12.768ZM16.6141 19.9776L13.7131 19.3569L16.74 26.5637L16.6141 19.9776ZM11.0171 30.1C11.0171 28.9406 11.9647 28 13.1326 28H13.8378V33.5999H33.5826V28H34.2878C35.4557 28 36.4033 28.9406 36.4033 30.1V34.2999C36.4033 35.4592 35.4557 36.3999 34.2878 36.3999H13.1326C11.9647 36.3999 11.0171 35.4592 11.0171 34.2999V30.1Z" fill="#B45FFF"/>
</svg>
