<svg  viewBox="10 9 28 28" fill="none" xmlns="http://www.w3.org/2000/svg">
<g clip-path="url(#clip0_14856_32598)">
<path fill-rule="evenodd" clip-rule="evenodd" d="M19.6025 9.3125L30.0528 9.78456L34.2837 19.285L28.3147 27.9678L17.8076 27.2878L13.5 16.9941L19.6025 9.3125ZM27.264 14.7888L19.6903 18.1329L26.1653 23.1925L27.264 14.7888ZM26.3871 13.1131L20.3345 10.4793L19.063 16.0169L26.3871 13.1131ZM24.853 24.4655L18.2749 19.7185L18.4341 26.1509L24.853 24.4655ZM33.233 19.264L28.7504 14.6671L27.5673 23.5068L33.233 19.264ZM26.3952 25.4994L20.8475 26.9648L27.3716 27.387L26.3952 25.4994ZM32.357 21.3497L27.5008 25.0057L28.4657 26.9115L32.357 21.3497ZM30.06 11.112L29.1168 13.0688L32.6276 16.6755L30.06 11.112ZM28.8848 10.1755L22.7197 9.92262L27.8052 12.1706L28.8848 10.1755ZM18.7022 11.0805L14.384 16.5911L17.2711 17.2091L18.7022 11.0805ZM17.097 18.2901L14.196 17.6694L17.2229 24.8762L17.097 18.2901Z"/>
</g>
<path fill-rule="evenodd" clip-rule="evenodd" d="M18.0904 31.0917H19.0791L17.0379 36.9203H16.0332L14 31.0917H14.9807L16.1967 34.7156C16.2605 34.8884 16.3282 35.1116 16.4 35.3854C16.4718 35.6565 16.5183 35.8585 16.5395 35.9914C16.5741 35.7894 16.6272 35.5555 16.699 35.2897C16.7708 35.0239 16.8292 34.8272 16.8744 34.6997L18.0904 31.0917Z"/>
<path fill-rule="evenodd" clip-rule="evenodd" d="M25.0233 33.998C25.0233 34.9468 24.7854 35.6844 24.3096 36.2106C23.8365 36.7369 23.1654 37 22.2963 37C21.4166 37 20.7402 36.7395 20.2671 36.2186C19.7967 35.695 19.5615 34.9522 19.5615 33.99C19.5615 33.0279 19.798 32.289 20.2711 31.7734C20.7468 31.2578 21.4246 31 22.3043 31C23.1708 31 23.8405 31.2618 24.3136 31.7854C24.7867 32.309 25.0233 33.0465 25.0233 33.998ZM20.5741 33.998C20.5741 34.7156 20.7189 35.2605 21.0086 35.6326C21.2983 36.002 21.7276 36.1867 22.2963 36.1867C22.8625 36.1867 23.289 36.0033 23.5761 35.6365C23.8658 35.2698 24.0106 34.7236 24.0106 33.998C24.0106 33.2831 23.8671 32.7409 23.5801 32.3714C23.2957 32.002 22.8704 31.8173 22.3043 31.8173C21.7329 31.8173 21.301 32.002 21.0086 32.3714C20.7189 32.7409 20.5741 33.2831 20.5741 33.998Z"/>
<path fill-rule="evenodd" clip-rule="evenodd" d="M28.2884 36.9203H27.3355V31.909H25.6213V31.0917H30.0027V31.909H28.2884V36.9203Z"/>
<path fill-rule="evenodd" clip-rule="evenodd" d="M34.1967 36.9203H30.8997V31.0917H34.1967V31.897H31.8525V33.4837H34.0492V34.2811H31.8525V36.111H34.1967V36.9203Z"/>
<defs>
<clipPath id="clip0_14856_32598">
<rect width="20.7837" height="21" fill="white" transform="translate(13.5 8)"/>
</clipPath>
</defs>
</svg>
