<svg xmlns="http://www.w3.org/2000/svg" width="12" height="12" viewBox="0 0 12 12" fill="none">
  <g clip-path="url(#clip0_20139_63576)">
    <path d="M10.5 0.75C10.9148 0.75 11.25 1.08586 11.25 1.5C11.25 1.91414 10.9148 2.25 10.5 2.25H1.875C1.66781 2.25 1.5 2.41875 1.5 2.625C1.5 2.83125 1.66781 3 1.875 3H10.5C11.3273 3 12 3.67266 12 4.5V9.75C12 10.5773 11.3273 11.25 10.5 11.25H1.5C0.671484 11.25 0 10.5773 0 9.75V2.25C0 1.42148 0.671484 0.75 1.5 0.75H10.5ZM9.75 7.875C10.1648 7.875 10.5 7.53984 10.5 7.125C10.5 6.71016 10.1648 6.375 9.75 6.375C9.33516 6.375 9 6.71016 9 7.125C9 7.53984 9.33516 7.875 9.75 7.875Z" fill="#BECCE5"/>
  </g>
  <defs>
    <clipPath id="clip0_20139_63576">
      <rect width="12" height="12" fill="white"/>
    </clipPath>
  </defs>
</svg>