<svg xmlns="http://www.w3.org/2000/svg" width="64" height="64" viewBox="0 0 64 64" fill="none">
  <g clip-path="url(#clip0_21895_68964)">
    <path
      fill-rule="evenodd"
      clip-rule="evenodd"
      d="M0 32C0 14.3286 14.3286 0 32 0C49.6714 0 64 14.3286 64 32C64 49.6714 49.6714 64 32 64C14.3286 64 0 49.6714 0 32ZM5.42857 32C5.42857 46.6714 17.3286 58.5714 32 58.5714C46.6714 58.5714 58.5714 46.6714 58.5714 32C58.5714 17.3286 46.6714 5.42857 32 5.42857C17.3286 5.42857 5.42857 17.3286 5.42857 32ZM29.5745 46.9958C28.9315 46.3528 28.5703 45.4807 28.5703 44.5714C28.5703 43.6621 28.9315 42.79 29.5745 42.1471C30.2175 41.5041 31.0896 41.1429 31.9989 41.1429C32.9082 41.1429 33.7803 41.5041 34.4232 42.1471C35.0662 42.79 35.4275 43.6621 35.4275 44.5714C35.4275 45.4807 35.0662 46.3528 34.4232 46.9958C33.7803 47.6388 32.9082 48 31.9989 48C31.0896 48 30.2175 47.6388 29.5745 46.9958ZM33.7132 36.5714H30.2846C29.9703 36.5714 29.7132 36.3143 29.7132 36V16.5714C29.7132 16.2571 29.9703 16 30.2846 16H33.7132C34.0275 16 34.2846 16.2571 34.2846 16.5714V36C34.2846 36.3143 34.0275 36.5714 33.7132 36.5714Z"
      fill="#FFC46B"
    />
  </g>
  <defs>
    <clipPath id="clip0_21895_68964">
      <rect width="64" height="64" fill="white" />
    </clipPath>
  </defs>
</svg>
