<svg width="179" height="24" viewBox="0 0 179 24" fill="none" xmlns="http://www.w3.org/2000/svg">
<g clip-path="url(#clip0_14070_61093)">
<path fill-rule="evenodd" clip-rule="evenodd" d="M5.59763 13.8605C5.59763 14.6389 5.31655 15.2497 4.7544 15.6927C4.19225 16.1359 3.41679 16.3574 2.42803 16.3574C1.43929 16.3574 0.629933 16.2037 0 15.8963V14.5431C0.398691 14.7308 0.821304 14.8785 1.26785 14.9863C1.71837 15.0939 2.13698 15.1478 2.52372 15.1478C3.08987 15.1478 3.50649 15.0402 3.77362 14.8246C4.04473 14.609 4.18029 14.3196 4.18029 13.9563C4.18029 13.629 4.05669 13.3516 3.8095 13.124C3.56231 12.8966 3.05198 12.6271 2.27852 12.3157C1.48113 11.9923 0.918984 11.6231 0.592057 11.208C0.26513 10.7929 0.101667 10.2939 0.101667 9.71104C0.101667 8.9806 0.360816 8.40579 0.879114 7.98661C1.39742 7.56743 2.09314 7.35791 2.96627 7.35791C3.80352 7.35791 4.63678 7.54156 5.46607 7.90874L5.01155 9.0764C4.23411 8.74911 3.54038 8.5854 2.93038 8.5854C2.4679 8.5854 2.11705 8.68714 1.87784 8.89073C1.63862 9.09041 1.51902 9.35585 1.51902 9.68718C1.51902 9.91463 1.56686 10.1103 1.66254 10.274C1.75822 10.4336 1.91571 10.5852 2.13498 10.729C2.35427 10.8726 2.74898 11.0623 3.3191 11.2979C3.96101 11.5652 4.43146 11.8147 4.73047 12.0462C5.02949 12.2778 5.24878 12.5392 5.38832 12.8307C5.52785 13.122 5.59763 13.4653 5.59763 13.8605ZM12.2361 16.2381H7.29029V7.4841H12.2361V8.69367H8.7196V11.0767H12.0148V12.2743H8.7196V15.0226H12.2361V16.2381ZM15.9146 9.45961C16.3851 8.87685 17.031 8.5854 17.8523 8.5854C18.2151 8.5854 18.5598 8.6393 18.8869 8.74709C19.2178 8.85085 19.5307 8.97265 19.8257 9.11225L20.3401 7.92073C19.5826 7.54547 18.7573 7.35791 17.8642 7.35791C17.0149 7.35791 16.2755 7.53954 15.6455 7.9028C15.0155 8.26607 14.5331 8.789 14.1983 9.4716C13.8674 10.1542 13.7019 10.9505 13.7019 11.8607C13.7019 13.3057 14.0447 14.4174 14.7305 15.1958C15.4163 15.9702 16.399 16.3574 17.6788 16.3574C18.548 16.3574 19.3254 16.2277 20.0112 15.9683V14.7408C19.6364 14.8565 19.2755 14.9523 18.9288 15.0282C18.5818 15.1 18.2231 15.136 17.8523 15.136C16.9951 15.136 16.3393 14.8604 15.8848 14.3096C15.4343 13.7588 15.2089 12.9464 15.2089 11.8727C15.2089 10.8468 15.4441 10.0423 15.9146 9.45961ZM28.7495 7.4841V13.1485C28.7495 13.7951 28.6099 14.362 28.3308 14.849C28.0557 15.332 27.6549 15.7052 27.1288 15.9687C26.6065 16.2281 25.9805 16.3579 25.2508 16.3579C24.1665 16.3579 23.3232 16.0705 22.7212 15.4957C22.1192 14.9209 21.8182 14.1305 21.8182 13.1245V7.4841H23.2535V13.0228C23.2535 13.7452 23.4209 14.2782 23.7558 14.6215C24.0907 14.9648 24.605 15.1365 25.2988 15.1365C26.6463 15.1365 27.3202 14.4279 27.3202 13.0108V7.4841H28.7495ZM33.4063 11.5557H32.4135V8.69367H33.3585C34.0084 8.69367 34.4947 8.80146 34.8177 9.01692C35.1405 9.2325 35.3021 9.58781 35.3021 10.0827C35.3021 10.5698 35.1525 10.937 34.8536 11.1845C34.5545 11.432 34.0722 11.5557 33.4063 11.5557ZM32.4135 16.2381V12.7413H33.825L35.918 16.2381H37.5448L35.0749 12.3641C36.2071 11.901 36.7732 11.1247 36.7732 10.0349C36.7732 9.18063 36.5022 8.54195 35.9599 8.11886C35.4177 7.69564 34.5825 7.4841 33.4542 7.4841H30.9843V16.2381H32.4135ZM43.7634 16.2381H38.8176V7.4841H43.7634V8.69367H40.247V11.0767H43.542V12.2743H40.247V15.0226H43.7634V16.2381ZM51.5701 15.0944C52.3714 14.328 52.772 13.2223 52.772 11.7773C52.772 10.4161 52.3853 9.36024 51.6119 8.60986C50.8385 7.85935 49.7559 7.4841 48.3646 7.4841H45.6614V16.2381H48.1074C49.6144 16.2381 50.7686 15.8569 51.5701 15.0944ZM48.3286 8.68168C50.2861 8.68168 51.2649 9.72956 51.2649 11.8252C51.2649 13.9647 50.2124 15.0346 48.1074 15.0346H47.0906V8.68168H48.3286ZM57.8836 7.4841H60.3534C61.5137 7.4841 62.3529 7.65778 62.8713 8.00501C63.3895 8.35237 63.6487 8.90118 63.6487 9.65168C63.6487 10.1706 63.5031 10.5997 63.2121 10.939C62.925 11.2744 62.5044 11.4918 61.9502 11.5917V11.6515C63.2778 11.8791 63.9417 12.5777 63.9417 13.7473C63.9417 14.5296 63.6765 15.1404 63.1463 15.5795C62.6201 16.0186 61.8824 16.2381 60.9335 16.2381H57.8836V7.4841ZM58.9002 11.2324H60.5747C61.2924 11.2324 61.8087 11.1206 62.1237 10.8971C62.4386 10.6695 62.5961 10.2883 62.5961 9.75342C62.5961 9.26242 62.4207 8.90925 62.0699 8.69367C61.719 8.47405 61.1608 8.36436 60.3954 8.36436H58.9002V11.2324ZM58.9002 12.0947V15.37H60.7243C61.43 15.37 61.9602 15.2341 62.315 14.9628C62.6739 14.6874 62.8532 14.2582 62.8532 13.6754C62.8532 13.1324 62.6698 12.7333 62.303 12.4779C61.9403 12.2224 61.386 12.0947 60.6405 12.0947H58.9002ZM70.3823 7.4841L68.05 11.8612L65.7357 7.4841H64.6233L67.5357 12.891V16.2381H68.5643V12.8432L71.4827 7.4841H70.3823Z" fill="white"/>
<path fill-rule="evenodd" clip-rule="evenodd" d="M91.3872 0L104.954 0.607306L110.448 12.8297L102.698 24L89.0569 23.1252L83.4644 9.88237L91.3872 0ZM101.334 7.04523L91.5011 11.3475L99.9073 17.8565L101.334 7.04523ZM100.196 4.88942L92.3375 1.50108L90.6867 8.62522L100.196 4.88942ZM98.2038 19.4943L89.6636 13.3873L89.8702 21.6626L98.2038 19.4943ZM109.084 12.8027L103.264 6.88869L101.727 18.261L109.084 12.8027ZM100.206 20.8245L93.0036 22.7097L101.474 23.2528L100.206 20.8245ZM107.946 15.4858L101.642 20.1893L102.895 22.6411L107.946 15.4858ZM104.964 2.315L103.739 4.83252L108.297 9.47253L104.964 2.315ZM103.439 1.11028L95.4342 0.784918L102.037 3.67694L103.439 1.11028ZM90.2184 2.27448L84.612 9.36387L88.3603 10.159L90.2184 2.27448ZM88.1343 11.5497L84.3679 10.7511L88.2978 20.0227L88.1343 11.5497Z" fill="white"/>
<path fill-rule="evenodd" clip-rule="evenodd" d="M119.791 11.1542H119.335V7.09532H118.115V16.6203H119.335V12.1593H119.755L123.598 16.8579L124.526 16.0718L120.829 11.5927L123.98 7.58914L123.051 6.85791L119.791 11.1542ZM130.41 7.09525H129.189V16.6202H135.381V15.5231H130.41V7.09525ZM139.879 7.09525H145.798V8.19215H141.099V11.0443H144.978V12.1411H141.099V15.5233H145.798V16.6204H139.879V7.09525ZM153.884 7.09525H150.66V16.6201H151.881V12.543H153.648L156.069 16.8577L157.125 16.2178L154.795 12.3604C155.941 12.0129 156.724 10.8611 156.724 9.69126C156.724 7.84483 155.468 7.09525 153.884 7.09525ZM155.449 9.69126C155.449 10.7701 154.666 11.4464 153.484 11.4464H151.881V8.19215H153.846C154.94 8.19215 155.449 8.83208 155.449 9.69126ZM167.708 11.8664C167.708 12.6343 167.653 16.7843 164.338 16.7843C162.808 16.7843 160.969 15.6875 160.969 11.8664C160.969 8.06372 162.773 6.93034 164.338 6.93034C165.85 6.93034 167.708 8.02725 167.708 11.8664ZM162.244 11.8664C162.244 13.2558 162.499 15.6325 164.338 15.6325C166.178 15.6325 166.433 13.2558 166.433 11.8664C166.433 10.4587 166.178 8.0821 164.338 8.0821C162.499 8.0821 162.244 10.4587 162.244 11.8664ZM175.357 15.6325C174.082 15.6325 173.517 14.7734 173.28 13.6033L172.188 13.9505C172.48 15.6506 173.59 16.7841 175.357 16.7841C177.105 16.7841 178.363 15.7603 178.363 13.9505C178.363 12.9633 177.906 12.1955 177.051 11.7201L175.029 10.8243C174.301 10.4954 173.754 10.2394 173.754 9.34345C173.754 8.48441 174.519 8.0821 175.302 8.0821C176.341 8.0821 176.832 8.74027 177.051 9.67253L178.217 9.32521C177.834 7.84447 176.905 6.93034 175.32 6.93034C173.827 6.93034 172.534 7.82624 172.534 9.43491C172.534 11.0689 173.625 11.5168 174.867 12.0268C174.987 12.076 175.108 12.1258 175.229 12.1772C175.305 12.2086 175.382 12.2394 175.458 12.2701C176.313 12.6149 177.141 12.9493 177.141 14.0237C177.141 15.0842 176.359 15.6325 175.357 15.6325Z" fill="white"/>
</g>
<defs>
<clipPath id="clip0_14070_61093">
<rect width="178.725" height="24" fill="white"/>
</clipPath>
</defs>
</svg>
