<svg viewBox="0 0 373 255" fill="none" xmlns="http://www.w3.org/2000/svg">
<rect x="0.4117" y="0.4117" width="372.177" height="253.607" rx="2.0585" class="rect-bg" stroke-width="0.8234"/>
<path d="M34.213 35.016C32.8878 35.016 31.8457 35.4856 31.0866 36.4247C30.3276 37.3639 29.948 38.6601 29.948 40.3134C29.948 42.0438 30.3115 43.3529 31.0384 44.2406C31.7717 45.1283 32.8299 45.5722 34.213 45.5722C34.8112 45.5722 35.3902 45.5143 35.9498 45.3985C36.5095 45.2763 37.0917 45.1219 37.6964 44.9354V46.9134C36.5899 47.3316 35.3355 47.5406 33.9332 47.5406C31.8682 47.5406 30.2825 46.9167 29.1761 45.6687C28.0697 44.4143 27.5164 42.6228 27.5164 40.2941C27.5164 38.8274 27.7834 37.5441 28.3173 36.444C28.8577 35.344 29.636 34.5013 30.6524 33.9159C31.6688 33.3306 32.8621 33.0379 34.2323 33.0379C35.6732 33.0379 37.0048 33.3402 38.2271 33.9449L37.3972 35.8651C36.9212 35.6399 36.4162 35.4437 35.8823 35.2765C35.3548 35.1028 34.7984 35.016 34.213 35.016ZM45.9078 36.4826C46.3646 36.4826 46.7409 36.5148 47.0368 36.5791L46.8149 38.6923C46.4932 38.6151 46.1587 38.5765 45.8113 38.5765C44.9043 38.5765 44.1678 38.8724 43.6017 39.4642C43.042 40.0561 42.7622 40.8248 42.7622 41.7704V47.3477H40.4946V36.6756H42.2701L42.5692 38.5572H42.685C43.0388 37.9204 43.4987 37.4154 44.0648 37.0423C44.6374 36.6692 45.2517 36.4826 45.9078 36.4826ZM58.4904 41.9923C58.4904 43.7356 58.0433 45.0962 57.1492 46.074C56.255 47.0517 55.0103 47.5406 53.4149 47.5406C52.4178 47.5406 51.5365 47.3155 50.771 46.8652C50.0055 46.4149 49.4169 45.7684 49.0052 44.9257C48.5935 44.083 48.3877 43.1052 48.3877 41.9923C48.3877 40.2619 48.8315 38.911 49.7193 37.9397C50.607 36.9683 51.8582 36.4826 53.4728 36.4826C55.0167 36.4826 56.2389 36.9812 57.1395 37.9783C58.0401 38.9689 58.4904 40.3069 58.4904 41.9923ZM50.7228 41.9923C50.7228 44.4561 51.633 45.688 53.4535 45.688C55.2547 45.688 56.1553 44.4561 56.1553 41.9923C56.1553 39.5543 55.2483 38.3353 53.4342 38.3353C52.4822 38.3353 51.7906 38.6505 51.3596 39.2809C50.9351 39.9113 50.7228 40.8151 50.7228 41.9923ZM69.8572 47.3477L68.4773 42.3687C68.3101 41.8412 68.0078 40.6157 67.5703 38.6923H67.4835C67.1104 40.4292 66.8145 41.6611 66.5958 42.388L65.1773 47.3477H62.6685L59.6773 36.6756H61.9931L63.3536 41.9344C63.6624 43.2339 63.8811 44.3468 64.0098 45.2731H64.0677C64.132 44.8035 64.2285 44.2663 64.3571 43.6617C64.4922 43.0505 64.608 42.5938 64.7045 42.2915L66.3256 36.6756H68.8151L70.3879 42.2915C70.4844 42.6067 70.6034 43.0891 70.7449 43.7389C70.8929 44.3886 70.9797 44.8935 71.0054 45.2538H71.0826C71.1791 44.4625 71.4043 43.3561 71.7581 41.9344L73.1379 36.6756H75.4151L72.4046 47.3477H69.8572ZM80.8573 47.5406C79.5257 47.5406 78.4868 47.0582 77.7406 46.0933C76.9944 45.1283 76.6213 43.7742 76.6213 42.0309C76.6213 40.2812 76.9976 38.9207 77.7502 37.9493C78.5093 36.9715 79.5579 36.4826 80.8959 36.4826C82.2982 36.4826 83.3661 37.0005 84.0994 38.0362H84.2152C84.1059 37.2707 84.0512 36.666 84.0512 36.2221V32.3335H86.3284V47.3477H84.5529L84.1573 45.9485H84.0512C83.3243 47.0099 82.2596 47.5406 80.8573 47.5406ZM81.4652 45.7073C82.3979 45.7073 83.0766 45.4468 83.5012 44.9257C83.9257 44.3982 84.1445 43.5459 84.1573 42.3687V42.0502C84.1573 40.7058 83.9386 39.7505 83.5012 39.1844C83.0637 38.6183 82.3786 38.3353 81.4459 38.3353C80.6482 38.3353 80.0339 38.6601 79.6029 39.3099C79.1719 39.9531 78.9564 40.873 78.9564 42.0695C78.9564 43.2532 79.1655 44.157 79.5836 44.781C80.0017 45.3985 80.6289 45.7073 81.4652 45.7073ZM94.9258 38.3932H92.3206V47.3477H90.0433V38.3932H88.2872V37.3318L90.0433 36.637V35.9423C90.0433 34.6815 90.3393 33.7487 90.9311 33.144C91.5229 32.5329 92.4267 32.2273 93.6425 32.2273C94.4402 32.2273 95.225 32.3592 95.9969 32.623L95.3987 34.3405C94.839 34.1604 94.3051 34.0703 93.7969 34.0703C93.2823 34.0703 92.9059 34.2312 92.6679 34.5528C92.4363 34.868 92.3206 35.344 92.3206 35.9809V36.6756H94.9258V38.3932ZM104.276 47.3477L103.958 45.9485H103.842C103.527 46.4438 103.076 46.833 102.491 47.1161C101.912 47.3991 101.249 47.5406 100.503 47.5406C99.2101 47.5406 98.2452 47.219 97.6083 46.5757C96.9715 45.9324 96.6531 44.9579 96.6531 43.652V36.6756H98.9399V43.2564C98.9399 44.0734 99.1072 44.6877 99.4417 45.0994C99.7762 45.5047 100.3 45.7073 101.014 45.7073C101.967 45.7073 102.665 45.4242 103.108 44.8582C103.559 44.2856 103.784 43.3304 103.784 41.9923V36.6756H106.061V47.3477H104.276ZM118.682 47.3477H116.405V40.7862C116.405 39.9628 116.238 39.3485 115.903 38.9432C115.575 38.5379 115.051 38.3353 114.33 38.3353C113.372 38.3353 112.671 38.6183 112.227 39.1844C111.783 39.7505 111.561 40.6993 111.561 42.0309V47.3477H109.294V36.6756H111.069L111.387 38.0748H111.503C111.825 37.5666 112.282 37.1742 112.873 36.8976C113.465 36.6209 114.121 36.4826 114.842 36.4826C117.402 36.4826 118.682 37.7853 118.682 40.3906V47.3477ZM125.437 47.5406C124.105 47.5406 123.066 47.0582 122.32 46.0933C121.574 45.1283 121.201 43.7742 121.201 42.0309C121.201 40.2812 121.577 38.9207 122.33 37.9493C123.089 36.9715 124.137 36.4826 125.475 36.4826C126.878 36.4826 127.945 37.0005 128.679 38.0362H128.795C128.685 37.2707 128.631 36.666 128.631 36.2221V32.3335H130.908V47.3477H129.132L128.737 45.9485H128.631C127.904 47.0099 126.839 47.5406 125.437 47.5406ZM126.045 45.7073C126.977 45.7073 127.656 45.4468 128.081 44.9257C128.505 44.3982 128.724 43.5459 128.737 42.3687V42.0502C128.737 40.7058 128.518 39.7505 128.081 39.1844C127.643 38.6183 126.958 38.3353 126.025 38.3353C125.228 38.3353 124.613 38.6601 124.182 39.3099C123.751 39.9531 123.536 40.873 123.536 42.0695C123.536 43.2532 123.745 44.157 124.163 44.781C124.581 45.3985 125.208 45.7073 126.045 45.7073ZM136.417 47.3477H134.15V36.6756H136.417V47.3477ZM134.015 33.8484C134.015 33.4431 134.124 33.1311 134.343 32.9124C134.568 32.6937 134.886 32.5844 135.298 32.5844C135.697 32.5844 136.006 32.6937 136.224 32.9124C136.45 33.1311 136.562 33.4431 136.562 33.8484C136.562 34.2344 136.45 34.5399 136.224 34.7651C136.006 34.9838 135.697 35.0932 135.298 35.0932C134.886 35.0932 134.568 34.9838 134.343 34.7651C134.124 34.5399 134.015 34.2344 134.015 33.8484ZM149.058 47.3477H146.781V40.7862C146.781 39.9628 146.613 39.3485 146.279 38.9432C145.951 38.5379 145.427 38.3353 144.706 38.3353C143.748 38.3353 143.046 38.6183 142.603 39.1844C142.159 39.7505 141.937 40.6993 141.937 42.0309V47.3477H139.669V36.6756H141.445L141.763 38.0748H141.879C142.201 37.5666 142.657 37.1742 143.249 36.8976C143.841 36.6209 144.497 36.4826 145.218 36.4826C147.778 36.4826 149.058 37.7853 149.058 40.3906V47.3477ZM161.226 36.6756V37.9204L159.402 38.2581C159.569 38.4832 159.707 38.7599 159.817 39.0879C159.926 39.416 159.981 39.7634 159.981 40.13C159.981 41.2301 159.601 42.0953 158.842 42.7257C158.083 43.3561 157.038 43.6713 155.706 43.6713C155.365 43.6713 155.057 43.6456 154.78 43.5941C154.291 43.8965 154.047 44.2503 154.047 44.6555C154.047 44.9 154.159 45.0833 154.384 45.2055C154.616 45.3278 155.037 45.3889 155.648 45.3889H157.511C158.688 45.3889 159.582 45.6397 160.193 46.1415C160.804 46.6433 161.11 47.367 161.11 48.3126C161.11 49.5219 160.611 50.4547 159.614 51.1108C158.617 51.767 157.176 52.0951 155.291 52.0951C153.838 52.0951 152.728 51.8378 151.962 51.3231C151.197 50.8085 150.814 50.0752 150.814 49.1231C150.814 48.467 151.02 47.9137 151.432 47.4634C151.85 47.0196 152.432 46.7108 153.178 46.5371C152.876 46.4085 152.625 46.2026 152.426 45.9196C152.233 45.6301 152.136 45.3278 152.136 45.0125C152.136 44.6137 152.249 44.276 152.474 43.9994C152.699 43.7228 153.033 43.4494 153.477 43.1792C152.924 42.9412 152.474 42.5552 152.126 42.0213C151.785 41.4809 151.615 40.8505 151.615 40.13C151.615 38.9721 151.978 38.0748 152.705 37.4379C153.439 36.8011 154.481 36.4826 155.832 36.4826C156.134 36.4826 156.449 36.5052 156.777 36.5502C157.112 36.5888 157.363 36.6306 157.53 36.6756H161.226ZM152.84 49.0073C152.84 49.4962 153.059 49.8725 153.497 50.1363C153.94 50.4 154.561 50.5319 155.359 50.5319C156.594 50.5319 157.514 50.355 158.119 50.0012C158.723 49.6474 159.026 49.1778 159.026 48.5924C159.026 48.1292 158.858 47.798 158.524 47.5985C158.196 47.4056 157.581 47.3091 156.681 47.3091H154.963C154.314 47.3091 153.796 47.4602 153.41 47.7626C153.03 48.0713 152.84 48.4863 152.84 49.0073ZM153.815 40.13C153.815 40.7991 153.985 41.3137 154.326 41.6739C154.674 42.0342 155.169 42.2143 155.812 42.2143C157.125 42.2143 157.781 41.5131 157.781 40.1107C157.781 39.416 157.617 38.8821 157.289 38.509C156.967 38.1294 156.475 37.9397 155.812 37.9397C155.156 37.9397 154.658 38.1262 154.317 38.4993C153.982 38.8724 153.815 39.416 153.815 40.13ZM172.322 45.7073C172.875 45.7073 173.429 45.6204 173.982 45.4468V47.1547C173.731 47.264 173.406 47.3541 173.007 47.4248C172.615 47.502 172.206 47.5406 171.782 47.5406C169.633 47.5406 168.559 46.4085 168.559 44.1441V38.3932H167.102V37.3897L168.665 36.5598L169.437 34.3019H170.836V36.6756H173.876V38.3932H170.836V44.1055C170.836 44.6523 170.971 45.0576 171.241 45.3213C171.518 45.5786 171.878 45.7073 172.322 45.7073ZM185.513 47.3477H183.235V40.7862C183.235 39.9628 183.068 39.3485 182.734 38.9432C182.406 38.5379 181.881 38.3353 181.161 38.3353C180.209 38.3353 179.508 38.6216 179.057 39.1941C178.613 39.7602 178.392 40.7122 178.392 42.0502V47.3477H176.124V32.3335H178.392V36.1449C178.392 36.756 178.353 37.409 178.276 38.1037H178.42C178.729 37.5891 179.157 37.1902 179.704 36.9072C180.257 36.6242 180.9 36.4826 181.634 36.4826C184.22 36.4826 185.513 37.7853 185.513 40.3906V47.3477ZM193.329 47.5406C191.669 47.5406 190.369 47.0582 189.43 46.0933C188.497 45.1219 188.031 43.7871 188.031 42.0888C188.031 40.3455 188.465 38.9754 189.334 37.9783C190.202 36.9812 191.395 36.4826 192.914 36.4826C194.322 36.4826 195.435 36.9104 196.252 37.766C197.069 38.6216 197.478 39.7988 197.478 41.2976V42.523H190.366C190.398 43.5587 190.678 44.3564 191.206 44.9161C191.733 45.4693 192.476 45.7459 193.435 45.7459C194.065 45.7459 194.65 45.688 195.191 45.5722C195.738 45.45 196.323 45.2506 196.947 44.9739V46.8169C196.394 47.0807 195.834 47.2672 195.268 47.3766C194.702 47.486 194.055 47.5406 193.329 47.5406ZM192.914 38.2002C192.193 38.2002 191.614 38.4286 191.177 38.8853C190.746 39.342 190.488 40.0078 190.405 40.8827H195.249C195.236 40.0014 195.024 39.3356 194.612 38.8853C194.2 38.4286 193.634 38.2002 192.914 38.2002ZM214.18 47.3477L212.772 43.4301H207.378L205.998 47.3477H203.566L208.844 33.1826H211.353L216.631 47.3477H214.18ZM212.164 41.4423L210.842 37.6019C210.745 37.3446 210.61 36.9394 210.437 36.3861C210.269 35.8329 210.154 35.4277 210.089 35.1703C209.916 35.9616 209.661 36.8268 209.327 37.766L208.053 41.4423H212.164ZM223.666 47.5406C222.315 47.5406 221.266 47.055 220.52 46.0836H220.385C220.475 46.9842 220.52 47.531 220.52 47.724V52.0951H218.252V36.6756H220.086C220.137 36.875 220.243 37.3511 220.404 38.1037H220.52C221.228 37.023 222.289 36.4826 223.704 36.4826C225.036 36.4826 226.072 36.9651 226.811 37.93C227.558 38.8949 227.931 40.2491 227.931 41.9923C227.931 43.7356 227.551 45.0962 226.792 46.074C226.039 47.0517 224.997 47.5406 223.666 47.5406ZM223.116 38.3353C222.215 38.3353 221.556 38.599 221.138 39.1265C220.726 39.654 220.52 40.4967 220.52 41.6546V41.9923C220.52 43.2918 220.726 44.2342 221.138 44.8196C221.549 45.3985 222.221 45.688 223.154 45.688C223.939 45.688 224.544 45.3664 224.968 44.7231C225.393 44.0798 225.605 43.1631 225.605 41.973C225.605 40.7765 225.393 39.8727 224.968 39.2616C224.55 38.6441 223.933 38.3353 223.116 38.3353ZM235.978 47.5406C234.627 47.5406 233.579 47.055 232.832 46.0836H232.697C232.787 46.9842 232.832 47.531 232.832 47.724V52.0951H230.565V36.6756H232.398C232.45 36.875 232.556 37.3511 232.717 38.1037H232.832C233.54 37.023 234.601 36.4826 236.017 36.4826C237.348 36.4826 238.384 36.9651 239.124 37.93C239.87 38.8949 240.243 40.2491 240.243 41.9923C240.243 43.7356 239.863 45.0962 239.104 46.074C238.352 47.0517 237.31 47.5406 235.978 47.5406ZM235.428 38.3353C234.527 38.3353 233.868 38.599 233.45 39.1265C233.038 39.654 232.832 40.4967 232.832 41.6546V41.9923C232.832 43.2918 233.038 44.2342 233.45 44.8196C233.862 45.3985 234.534 45.688 235.467 45.688C236.251 45.688 236.856 45.3664 237.281 44.7231C237.705 44.0798 237.918 43.1631 237.918 41.973C237.918 40.7765 237.705 39.8727 237.281 39.2616C236.863 38.6441 236.245 38.3353 235.428 38.3353ZM247.538 47.5406C245.878 47.5406 244.579 47.0582 243.64 46.0933C242.707 45.1219 242.24 43.7871 242.24 42.0888C242.24 40.3455 242.675 38.9754 243.543 37.9783C244.411 36.9812 245.605 36.4826 247.123 36.4826C248.532 36.4826 249.645 36.9104 250.462 37.766C251.278 38.6216 251.687 39.7988 251.687 41.2976V42.523H244.576C244.608 43.5587 244.888 44.3564 245.415 44.9161C245.942 45.4693 246.685 45.7459 247.644 45.7459C248.274 45.7459 248.86 45.688 249.4 45.5722C249.947 45.45 250.532 45.2506 251.156 44.9739V46.8169C250.603 47.0807 250.043 47.2672 249.477 47.3766C248.911 47.486 248.265 47.5406 247.538 47.5406ZM247.123 38.2002C246.402 38.2002 245.823 38.4286 245.386 38.8853C244.955 39.342 244.698 40.0078 244.614 40.8827H249.458C249.445 40.0014 249.233 39.3356 248.821 38.8853C248.409 38.4286 247.843 38.2002 247.123 38.2002ZM260.941 47.3477L260.487 45.8617H260.41C259.895 46.5114 259.377 46.9553 258.856 47.1933C258.335 47.4248 257.666 47.5406 256.849 47.5406C255.801 47.5406 254.981 47.2576 254.389 46.6915C253.803 46.1254 253.511 45.3245 253.511 44.2889C253.511 43.1888 253.919 42.359 254.736 41.7994C255.553 41.2397 256.798 40.9341 258.47 40.8827L260.313 40.8248V40.2555C260.313 39.5736 260.153 39.0654 259.831 38.7309C259.516 38.39 259.024 38.2195 258.355 38.2195C257.808 38.2195 257.284 38.2999 256.782 38.4607C256.28 38.6216 255.798 38.8113 255.334 39.03L254.601 37.409C255.18 37.1066 255.814 36.8783 256.502 36.7239C257.19 36.5631 257.84 36.4826 258.451 36.4826C259.808 36.4826 260.831 36.7786 261.52 37.3704C262.214 37.9622 262.562 38.8917 262.562 40.159V47.3477H260.941ZM257.563 45.8038C258.387 45.8038 259.046 45.5754 259.541 45.1187C260.043 44.6555 260.294 44.009 260.294 43.1792V42.2529L258.924 42.3108C257.856 42.3494 257.078 42.5295 256.589 42.8511C256.106 43.1663 255.865 43.652 255.865 44.3082C255.865 44.7842 256.007 45.1541 256.29 45.4178C256.573 45.6751 256.997 45.8038 257.563 45.8038ZM267.994 47.3477H265.727V32.3335H267.994V47.3477Z" class="path-1" />
<rect x="26.7525" y="191.783" width="319.844" height="35.5382" rx="2.01922" class="rect-fg" stroke-width="0.807686"/>
<path d="M46.3996 208.543C46.3996 210.168 46.1423 211.382 45.6277 212.184C45.1173 212.985 44.3347 213.386 43.2797 213.386C42.2676 213.386 41.4978 212.977 40.9703 212.158C40.4428 211.334 40.1791 210.129 40.1791 208.543C40.1791 206.904 40.4343 205.689 40.9446 204.895C41.4549 204.102 42.2333 203.705 43.2797 203.705C44.3004 203.705 45.0745 204.119 45.602 204.947C46.1337 205.774 46.3996 206.973 46.3996 208.543ZM41.2598 208.543C41.2598 209.911 41.4206 210.908 41.7423 211.534C42.0639 212.156 42.5764 212.467 43.2797 212.467C43.9916 212.467 44.5062 212.151 44.8236 211.521C45.1452 210.886 45.306 209.893 45.306 208.543C45.306 207.192 45.1452 206.203 44.8236 205.577C44.5062 204.947 43.9916 204.631 43.2797 204.631C42.5764 204.631 42.0639 204.942 41.7423 205.564C41.4206 206.182 41.2598 207.175 41.2598 208.543ZM48.04 212.576C48.04 212.289 48.1043 212.072 48.233 211.926C48.3659 211.776 48.5546 211.701 48.7991 211.701C49.0478 211.701 49.2408 211.776 49.378 211.926C49.5195 212.072 49.5903 212.289 49.5903 212.576C49.5903 212.855 49.5195 213.069 49.378 213.219C49.2365 213.369 49.0435 213.444 48.7991 213.444C48.5803 213.444 48.3981 213.378 48.2523 213.245C48.1107 213.108 48.04 212.885 48.04 212.576ZM57.4512 208.543C57.4512 210.168 57.1939 211.382 56.6793 212.184C56.1689 212.985 55.3863 213.386 54.3313 213.386C53.3192 213.386 52.5494 212.977 52.0219 212.158C51.4944 211.334 51.2307 210.129 51.2307 208.543C51.2307 206.904 51.4858 205.689 51.9962 204.895C52.5065 204.102 53.2849 203.705 54.3313 203.705C55.3519 203.705 56.126 204.119 56.6535 204.947C57.1853 205.774 57.4512 206.973 57.4512 208.543ZM52.3114 208.543C52.3114 209.911 52.4722 210.908 52.7938 211.534C53.1155 212.156 53.628 212.467 54.3313 212.467C55.0432 212.467 55.5578 212.151 55.8752 211.521C56.1968 210.886 56.3576 209.893 56.3576 208.543C56.3576 207.192 56.1968 206.203 55.8752 205.577C55.5578 204.947 55.0432 204.631 54.3313 204.631C53.628 204.631 53.1155 204.942 52.7938 205.564C52.4722 206.182 52.3114 207.175 52.3114 208.543ZM64.9904 208.543C64.9904 210.168 64.7331 211.382 64.2185 212.184C63.7082 212.985 62.9255 213.386 61.8705 213.386C60.8584 213.386 60.0886 212.977 59.5612 212.158C59.0337 211.334 58.7699 210.129 58.7699 208.543C58.7699 206.904 59.0251 205.689 59.5354 204.895C60.0458 204.102 60.8241 203.705 61.8705 203.705C62.8912 203.705 63.6653 204.119 64.1928 204.947C64.7246 205.774 64.9904 206.973 64.9904 208.543ZM59.8506 208.543C59.8506 209.911 60.0114 210.908 60.3331 211.534C60.6547 212.156 61.1672 212.467 61.8705 212.467C62.5824 212.467 63.0971 212.151 63.4144 211.521C63.736 210.886 63.8969 209.893 63.8969 208.543C63.8969 207.192 63.736 206.203 63.4144 205.577C63.0971 204.947 62.5824 204.631 61.8705 204.631C61.1672 204.631 60.6547 204.942 60.3331 205.564C60.0114 206.182 59.8506 207.175 59.8506 208.543ZM72.9221 211.096H71.5262V213.258H70.5034V211.096H65.9296V210.164L70.394 203.802H71.5262V210.125H72.9221V211.096ZM70.5034 210.125V206.999C70.5034 206.385 70.5248 205.693 70.5677 204.921H70.5162C70.3104 205.333 70.1174 205.674 69.9373 205.944L66.9975 210.125H70.5034ZM83.1503 213.258H77.9075V203.853H83.1503V204.824H79.0011V207.854H82.8994V208.819H79.0011V212.28H83.1503V213.258ZM88.1357 213.258H87.0421V204.824H84.0637V203.853H91.1141V204.824H88.1357V213.258ZM99.6761 213.258H98.5826V208.832H93.6293V213.258H92.5357V203.853H93.6293V207.854H98.5826V203.853H99.6761V213.258Z" class="path-2" />
<path d="M33.7279 177.5H32.771V173.627H28.4369V177.5H27.48V169.271H28.4369V172.772H32.771V169.271H33.7279V177.5ZM41.1747 174.41C41.1747 175.416 40.9214 176.202 40.4148 176.768C39.9082 177.331 39.2084 177.613 38.3153 177.613C37.7637 177.613 37.274 177.483 36.8462 177.224C36.4184 176.965 36.0882 176.594 35.8555 176.11C35.6229 175.626 35.5065 175.059 35.5065 174.41C35.5065 173.404 35.758 172.622 36.2608 172.063C36.7636 171.5 37.4616 171.218 38.3547 171.218C39.2177 171.218 39.9026 171.505 40.4091 172.08C40.9195 172.654 41.1747 173.43 41.1747 174.41ZM36.4747 174.41C36.4747 175.198 36.6323 175.798 36.9475 176.211C37.2627 176.624 37.7261 176.83 38.3378 176.83C38.9494 176.83 39.4129 176.626 39.7281 176.217C40.047 175.804 40.2065 175.202 40.2065 174.41C40.2065 173.626 40.047 173.031 39.7281 172.626C39.4129 172.217 38.9457 172.012 38.3265 172.012C37.7149 172.012 37.2533 172.213 36.9419 172.614C36.6304 173.016 36.4747 173.614 36.4747 174.41ZM47.8559 177.5L46.7246 173.881C46.6533 173.659 46.52 173.157 46.3249 172.372H46.2799C46.1298 173.029 45.9985 173.536 45.8859 173.892L44.7207 177.5H43.64L41.957 171.331H42.9364C43.3342 172.881 43.6363 174.061 43.8427 174.871C44.0528 175.682 44.1729 176.228 44.2029 176.509H44.2479C44.2892 176.295 44.3549 176.02 44.4449 175.682C44.5387 175.34 44.6194 175.07 44.687 174.871L45.8183 171.331H46.8315L47.9347 174.871C48.1449 175.517 48.2875 176.059 48.3625 176.498H48.4075C48.4226 176.363 48.462 176.155 48.5257 175.873C48.5933 175.592 48.9854 174.078 49.7021 171.331H50.6703L48.9648 177.5H47.8559ZM62.6482 177.5V173.487C62.6482 172.995 62.5431 172.627 62.333 172.384C62.1228 172.136 61.7964 172.012 61.3536 172.012C60.7719 172.012 60.3423 172.179 60.0646 172.513C59.7869 172.847 59.6481 173.361 59.6481 174.055V177.5H58.7137V173.487C58.7137 172.995 58.6086 172.627 58.3985 172.384C58.1884 172.136 57.86 172.012 57.4135 172.012C56.8281 172.012 56.3984 172.188 56.1245 172.541C55.8543 172.89 55.7192 173.464 55.7192 174.263V177.5H54.7849V171.331H55.5447L55.6967 172.175H55.7417C55.9181 171.875 56.1658 171.641 56.4847 171.472C56.8074 171.303 57.1677 171.218 57.5654 171.218C58.5298 171.218 59.1602 171.567 59.4567 172.265H59.5017C59.6856 171.943 59.952 171.687 60.301 171.5C60.65 171.312 61.0477 171.218 61.4943 171.218C62.1922 171.218 62.7138 171.398 63.0591 171.759C63.408 172.115 63.5825 172.687 63.5825 173.475V177.5H62.6482ZM66.3913 171.331V175.333C66.3913 175.836 66.5057 176.211 66.7346 176.459C66.9635 176.706 67.3219 176.83 67.8097 176.83C68.4551 176.83 68.9261 176.654 69.2225 176.301C69.5227 175.948 69.6728 175.372 69.6728 174.573V171.331H70.6072V177.5H69.836L69.7009 176.673H69.6503C69.4589 176.977 69.1925 177.209 68.851 177.371C68.5133 177.532 68.1268 177.613 67.6915 177.613C66.941 177.613 66.3781 177.434 66.0029 177.078C65.6314 176.721 65.4456 176.151 65.4456 175.367V171.331H66.3913ZM75.0595 177.613C74.1664 177.613 73.4741 177.339 72.9825 176.791C72.4947 176.239 72.2507 175.461 72.2507 174.455C72.2507 173.423 72.4984 172.626 72.9937 172.063C73.4928 171.5 74.202 171.218 75.1214 171.218C75.4178 171.218 75.7143 171.25 76.0107 171.314C76.3072 171.378 76.5398 171.453 76.7087 171.539L76.4216 172.333C76.2152 172.25 75.9901 172.183 75.7462 172.13C75.5023 172.074 75.2865 172.046 75.0989 172.046C73.8455 172.046 73.2189 172.845 73.2189 174.444C73.2189 175.202 73.3709 175.783 73.6748 176.189C73.9825 176.594 74.4366 176.796 75.037 176.796C75.551 176.796 76.0783 176.686 76.6186 176.464V177.292C76.2059 177.506 75.6861 177.613 75.0595 177.613ZM82.3093 177.5V173.509C82.3093 173.006 82.1948 172.631 81.9659 172.384C81.737 172.136 81.3786 172.012 80.8908 172.012C80.2416 172.012 79.767 172.188 79.4668 172.541C79.1703 172.894 79.0221 173.472 79.0221 174.275V177.5H78.0877V168.742H79.0221V171.393C79.0221 171.712 79.0071 171.976 78.9771 172.186H79.0333C79.2172 171.89 79.478 171.657 79.8157 171.489C80.1572 171.316 80.5456 171.23 80.9809 171.23C81.7351 171.23 82.2999 171.41 82.6751 171.77C83.0541 172.126 83.2436 172.695 83.2436 173.475V177.5H82.3093ZM92.3621 176.673H92.3115C91.8799 177.299 91.2345 177.613 90.3752 177.613C89.5684 177.613 88.9399 177.337 88.4896 176.785C88.043 176.234 87.8198 175.449 87.8198 174.432C87.8198 173.415 88.0449 172.626 88.4952 172.063C88.9455 171.5 89.5722 171.218 90.3752 171.218C91.212 171.218 91.8537 171.522 92.3002 172.13H92.3734L92.334 171.686L92.3115 171.252V168.742H93.2458V177.5H92.486L92.3621 176.673ZM90.4934 176.83C91.1313 176.83 91.5929 176.658 91.8781 176.312C92.167 175.963 92.3115 175.402 92.3115 174.629V174.432C92.3115 173.558 92.1651 172.935 91.8724 172.564C91.5835 172.188 91.1201 172.001 90.4821 172.001C89.9343 172.001 89.514 172.215 89.2213 172.642C88.9324 173.066 88.7879 173.667 88.7879 174.444C88.7879 175.232 88.9324 175.826 89.2213 176.228C89.5102 176.629 89.9343 176.83 90.4934 176.83ZM100.558 174.41C100.558 175.416 100.304 176.202 99.7976 176.768C99.2911 177.331 98.5912 177.613 97.6981 177.613C97.1465 177.613 96.6568 177.483 96.229 177.224C95.8013 176.965 95.471 176.594 95.2384 176.11C95.0057 175.626 94.8894 175.059 94.8894 174.41C94.8894 173.404 95.1408 172.622 95.6437 172.063C96.1465 171.5 96.8445 171.218 97.7375 171.218C98.6006 171.218 99.2854 171.505 99.792 172.08C100.302 172.654 100.558 173.43 100.558 174.41ZM95.8576 174.41C95.8576 175.198 96.0152 175.798 96.3304 176.211C96.6456 176.624 97.109 176.83 97.7207 176.83C98.3323 176.83 98.7957 176.626 99.1109 176.217C99.4299 175.804 99.5894 175.202 99.5894 174.41C99.5894 173.626 99.4299 173.031 99.1109 172.626C98.7957 172.217 98.3286 172.012 97.7094 172.012C97.0977 172.012 96.6362 172.213 96.3247 172.614C96.0133 173.016 95.8576 173.614 95.8576 174.41ZM104.216 171.331H105.218L106.569 174.849C106.865 175.652 107.049 176.232 107.121 176.588H107.166C107.214 176.397 107.316 176.07 107.47 175.609C107.627 175.143 108.138 173.718 109.001 171.331H110.002L107.351 178.356C107.089 179.05 106.781 179.541 106.428 179.83C106.079 180.123 105.65 180.269 105.139 180.269C104.854 180.269 104.573 180.237 104.295 180.174V179.425C104.501 179.47 104.732 179.493 104.987 179.493C105.629 179.493 106.087 179.132 106.361 178.412L106.704 177.534L104.216 171.331ZM116.329 174.41C116.329 175.416 116.076 176.202 115.569 176.768C115.063 177.331 114.363 177.613 113.47 177.613C112.918 177.613 112.428 177.483 112.001 177.224C111.573 176.965 111.243 176.594 111.01 176.11C110.777 175.626 110.661 175.059 110.661 174.41C110.661 173.404 110.912 172.622 111.415 172.063C111.918 171.5 112.616 171.218 113.509 171.218C114.372 171.218 115.057 171.505 115.564 172.08C116.074 172.654 116.329 173.43 116.329 174.41ZM111.629 174.41C111.629 175.198 111.787 175.798 112.102 176.211C112.417 176.624 112.881 176.83 113.492 176.83C114.104 176.83 114.567 176.626 114.883 176.217C115.202 175.804 115.361 175.202 115.361 174.41C115.361 173.626 115.202 173.031 114.883 172.626C114.567 172.217 114.1 172.012 113.481 172.012C112.869 172.012 112.408 172.213 112.096 172.614C111.785 173.016 111.629 173.614 111.629 174.41ZM118.851 171.331V175.333C118.851 175.836 118.965 176.211 119.194 176.459C119.423 176.706 119.781 176.83 120.269 176.83C120.915 176.83 121.386 176.654 121.682 176.301C121.982 175.948 122.132 175.372 122.132 174.573V171.331H123.067V177.5H122.296L122.161 176.673H122.11C121.918 176.977 121.652 177.209 121.311 177.371C120.973 177.532 120.586 177.613 120.151 177.613C119.401 177.613 118.838 177.434 118.462 177.078C118.091 176.721 117.905 176.151 117.905 175.367V171.331H118.851ZM133.086 177.5L131.954 173.881C131.883 173.659 131.75 173.157 131.555 172.372H131.51C131.36 173.029 131.228 173.536 131.116 173.892L129.951 177.5H128.87L127.187 171.331H128.166C128.564 172.881 128.866 174.061 129.073 174.871C129.283 175.682 129.403 176.228 129.433 176.509H129.478C129.519 176.295 129.585 176.02 129.675 175.682C129.769 175.34 129.849 175.07 129.917 174.871L131.048 171.331H132.061L133.165 174.871C133.375 175.517 133.517 176.059 133.592 176.498H133.637C133.652 176.363 133.692 176.155 133.756 175.873C133.823 175.592 134.215 174.078 134.932 171.331H135.9L134.195 177.5H133.086ZM140.814 177.5L140.628 176.622H140.583C140.276 177.008 139.968 177.271 139.66 177.41C139.356 177.545 138.975 177.613 138.518 177.613C137.906 177.613 137.426 177.455 137.077 177.14C136.731 176.825 136.559 176.376 136.559 175.795C136.559 174.549 137.555 173.896 139.548 173.836L140.595 173.802V173.419C140.595 172.935 140.489 172.579 140.279 172.35C140.073 172.117 139.741 172.001 139.283 172.001C138.769 172.001 138.187 172.158 137.538 172.474L137.251 171.759C137.555 171.594 137.887 171.464 138.247 171.37C138.611 171.277 138.975 171.23 139.339 171.23C140.075 171.23 140.619 171.393 140.972 171.719C141.328 172.046 141.506 172.569 141.506 173.29V177.5H140.814ZM138.703 176.841C139.285 176.841 139.741 176.682 140.071 176.363C140.405 176.044 140.572 175.597 140.572 175.023V174.466L139.638 174.506C138.895 174.532 138.358 174.648 138.028 174.855C137.701 175.057 137.538 175.374 137.538 175.806C137.538 176.143 137.639 176.401 137.842 176.577C138.048 176.753 138.336 176.841 138.703 176.841ZM147.659 177.5V173.509C147.659 173.006 147.544 172.631 147.315 172.384C147.086 172.136 146.728 172.012 146.24 172.012C145.595 172.012 145.122 172.186 144.822 172.535C144.521 172.884 144.371 173.46 144.371 174.263V177.5H143.437V171.331H144.197L144.349 172.175H144.394C144.585 171.871 144.854 171.637 145.199 171.472C145.544 171.303 145.929 171.218 146.353 171.218C147.096 171.218 147.655 171.398 148.03 171.759C148.405 172.115 148.593 172.687 148.593 173.475V177.5H147.659ZM152.51 176.841C152.676 176.841 152.835 176.83 152.989 176.808C153.143 176.781 153.265 176.755 153.355 176.729V177.444C153.253 177.492 153.103 177.532 152.905 177.562C152.709 177.596 152.533 177.613 152.375 177.613C151.182 177.613 150.585 176.984 150.585 175.727V172.057H149.702V171.607L150.585 171.218L150.979 169.901H151.52V171.331H153.31V172.057H151.52V175.688C151.52 176.059 151.608 176.344 151.784 176.543C151.961 176.742 152.203 176.841 152.51 176.841ZM159.58 176.841C159.745 176.841 159.905 176.83 160.059 176.808C160.212 176.781 160.334 176.755 160.424 176.729V177.444C160.323 177.492 160.173 177.532 159.974 177.562C159.779 177.596 159.603 177.613 159.445 177.613C158.252 177.613 157.655 176.984 157.655 175.727V172.057H156.771V171.607L157.655 171.218L158.049 169.901H158.59V171.331H160.379V172.057H158.59V175.688C158.59 176.059 158.678 176.344 158.854 176.543C159.03 176.742 159.272 176.841 159.58 176.841ZM166.988 174.41C166.988 175.416 166.734 176.202 166.228 176.768C165.721 177.331 165.021 177.613 164.128 177.613C163.577 177.613 163.087 177.483 162.659 177.224C162.231 176.965 161.901 176.594 161.668 176.11C161.436 175.626 161.319 175.059 161.319 174.41C161.319 173.404 161.571 172.622 162.074 172.063C162.577 171.5 163.274 171.218 164.168 171.218C165.031 171.218 165.715 171.505 166.222 172.08C166.732 172.654 166.988 173.43 166.988 174.41ZM162.288 174.41C162.288 175.198 162.445 175.798 162.76 176.211C163.076 176.624 163.539 176.83 164.151 176.83C164.762 176.83 165.226 176.626 165.541 176.217C165.86 175.804 166.019 175.202 166.019 174.41C166.019 173.626 165.86 173.031 165.541 172.626C165.226 172.217 164.759 172.012 164.139 172.012C163.528 172.012 163.066 172.213 162.755 172.614C162.443 173.016 162.288 173.614 162.288 174.41ZM174.406 172.057H172.836V177.5H171.901V172.057H170.798V171.635L171.901 171.297V170.954C171.901 169.438 172.564 168.68 173.888 168.68C174.215 168.68 174.598 168.745 175.037 168.877L174.795 169.625C174.434 169.509 174.127 169.451 173.871 169.451C173.519 169.451 173.258 169.569 173.089 169.806C172.92 170.038 172.836 170.413 172.836 170.931V171.331H174.406V172.057ZM176.41 171.331V175.333C176.41 175.836 176.524 176.211 176.753 176.459C176.982 176.706 177.341 176.83 177.828 176.83C178.474 176.83 178.945 176.654 179.241 176.301C179.541 175.948 179.692 175.372 179.692 174.573V171.331H180.626V177.5H179.855L179.72 176.673H179.669C179.478 176.977 179.211 177.209 178.87 177.371C178.532 177.532 178.146 177.613 177.71 177.613C176.96 177.613 176.397 177.434 176.022 177.078C175.65 176.721 175.464 176.151 175.464 175.367V171.331H176.41ZM186.834 177.5V173.509C186.834 173.006 186.72 172.631 186.491 172.384C186.262 172.136 185.904 172.012 185.416 172.012C184.771 172.012 184.298 172.186 183.997 172.535C183.697 172.884 183.547 173.46 183.547 174.263V177.5H182.613V171.331H183.373L183.525 172.175H183.57C183.761 171.871 184.029 171.637 184.375 171.472C184.72 171.303 185.104 171.218 185.529 171.218C186.271 171.218 186.831 171.398 187.206 171.759C187.581 172.115 187.769 172.687 187.769 173.475V177.5H186.834ZM193.893 176.673H193.842C193.411 177.299 192.765 177.613 191.906 177.613C191.099 177.613 190.471 177.337 190.02 176.785C189.574 176.234 189.35 175.449 189.35 174.432C189.35 173.415 189.576 172.626 190.026 172.063C190.476 171.5 191.103 171.218 191.906 171.218C192.743 171.218 193.384 171.522 193.831 172.13H193.904L193.865 171.686L193.842 171.252V168.742H194.776V177.5H194.017L193.893 176.673ZM192.024 176.83C192.662 176.83 193.124 176.658 193.409 176.312C193.698 175.963 193.842 175.402 193.842 174.629V174.432C193.842 173.558 193.696 172.935 193.403 172.564C193.114 172.188 192.651 172.001 192.013 172.001C191.465 172.001 191.045 172.215 190.752 172.642C190.463 173.066 190.319 173.667 190.319 174.444C190.319 175.232 190.463 175.826 190.752 176.228C191.041 176.629 191.465 176.83 192.024 176.83ZM197.399 175.232V174.928C197.399 174.489 197.467 174.128 197.602 173.847C197.737 173.562 197.989 173.262 198.356 172.946C198.867 172.515 199.188 172.19 199.319 171.973C199.454 171.755 199.521 171.492 199.521 171.185C199.521 170.802 199.398 170.507 199.15 170.301C198.906 170.091 198.553 169.986 198.092 169.986C197.795 169.986 197.506 170.021 197.225 170.093C196.944 170.16 196.621 170.286 196.257 170.47L195.925 169.71C196.634 169.338 197.375 169.153 198.148 169.153C198.865 169.153 199.422 169.329 199.82 169.682C200.218 170.034 200.416 170.532 200.416 171.173C200.416 171.447 200.379 171.689 200.304 171.899C200.233 172.106 200.126 172.303 199.983 172.49C199.84 172.674 199.533 172.973 199.06 173.385C198.681 173.708 198.43 173.976 198.306 174.19C198.186 174.404 198.126 174.689 198.126 175.046V175.232H197.399ZM197.124 176.903C197.124 176.393 197.349 176.138 197.799 176.138C198.017 176.138 198.184 176.204 198.3 176.335C198.42 176.466 198.48 176.656 198.48 176.903C198.48 177.144 198.42 177.331 198.3 177.466C198.18 177.598 198.013 177.663 197.799 177.663C197.604 177.663 197.443 177.605 197.315 177.489C197.187 177.369 197.124 177.174 197.124 176.903ZM204.182 174.342C204.182 173.348 204.327 172.417 204.615 171.55C204.908 170.684 205.328 169.924 205.876 169.271H206.788C206.248 169.995 205.841 170.791 205.567 171.657C205.297 172.524 205.161 173.415 205.161 174.331C205.161 175.232 205.3 176.112 205.578 176.971C205.856 177.83 206.255 178.614 206.777 179.324H205.876C205.325 178.686 204.904 177.941 204.615 177.089C204.327 176.237 204.182 175.322 204.182 174.342ZM212.85 177.5H208.263V169.271H212.85V170.121H209.22V172.772H212.631V173.616H209.22V176.644H212.85V177.5ZM217.213 177.5H216.256V170.121H213.65V169.271H219.819V170.121H217.213V177.5ZM227.31 177.5H226.354V173.627H222.019V177.5H221.063V169.271H222.019V172.772H226.354V169.271H227.31V177.5ZM231.391 174.342C231.391 175.329 231.245 176.249 230.952 177.1C230.663 177.952 230.245 178.693 229.697 179.324H228.796C229.318 178.618 229.718 177.836 229.995 176.977C230.273 176.113 230.412 175.232 230.412 174.331C230.412 173.415 230.275 172.524 230.001 171.657C229.731 170.791 229.325 169.995 228.785 169.271H229.697C230.249 169.928 230.669 170.691 230.958 171.562C231.247 172.429 231.391 173.355 231.391 174.342Z" class="path-3"/>
<rect x="262.541" y="191.023" width="84.6976" height="37.053" rx="2.4702" class="rect-accent"/>
<path d="M291.683 214.551H290.158V205.146H295.465V206.445H291.683V209.385H295.227V210.691H291.683V214.551ZM302.027 214.551L301.815 213.618H301.737C301.527 213.948 301.227 214.208 300.837 214.396C300.451 214.585 300.009 214.679 299.512 214.679C298.65 214.679 298.006 214.465 297.582 214.036C297.157 213.607 296.945 212.958 296.945 212.087V207.436H298.469V211.823C298.469 212.368 298.581 212.777 298.804 213.052C299.027 213.322 299.376 213.457 299.853 213.457C300.487 213.457 300.953 213.269 301.248 212.891C301.549 212.509 301.699 211.873 301.699 210.981V207.436H303.217V214.551H302.027ZM311.631 214.551H310.113V210.176C310.113 209.628 310.001 209.218 309.778 208.948C309.56 208.678 309.21 208.543 308.73 208.543C308.091 208.543 307.623 208.731 307.327 209.109C307.032 209.486 306.884 210.119 306.884 211.006V214.551H305.372V207.436H306.556L306.768 208.369H306.845C307.059 208.03 307.364 207.768 307.758 207.584C308.153 207.4 308.59 207.307 309.071 207.307C310.778 207.307 311.631 208.176 311.631 209.913V214.551ZM316.134 214.679C315.246 214.679 314.554 214.358 314.056 213.715C313.559 213.071 313.31 212.168 313.31 211.006C313.31 209.84 313.561 208.933 314.063 208.285C314.569 207.633 315.268 207.307 316.16 207.307C317.095 207.307 317.806 207.653 318.295 208.343H318.373C318.3 207.833 318.263 207.43 318.263 207.134V204.541H319.781V214.551H318.598L318.334 213.618H318.263C317.779 214.326 317.069 214.679 316.134 214.679ZM316.539 213.457C317.161 213.457 317.614 213.284 317.897 212.936C318.18 212.584 318.325 212.016 318.334 211.231V211.019C318.334 210.123 318.188 209.486 317.897 209.109C317.605 208.731 317.148 208.543 316.526 208.543C315.995 208.543 315.585 208.759 315.298 209.192C315.01 209.621 314.867 210.234 314.867 211.032C314.867 211.821 315.006 212.424 315.285 212.84C315.564 213.251 315.982 213.457 316.539 213.457Z" class="path-4"/>
<path d="M30.5366 87.2812H29.4431V78.8478H26.4647V77.8765H33.515V78.8478H30.5366V87.2812ZM39.6005 87.2812V82.7204C39.6005 82.1457 39.4697 81.7169 39.2081 81.4338C38.9465 81.1508 38.5369 81.0093 37.9794 81.0093C37.2375 81.0093 36.695 81.2108 36.3519 81.6139C36.0131 82.0171 35.8437 82.6775 35.8437 83.5953V87.2812H34.7759V77.2718H35.8437V80.3017C35.8437 80.6662 35.8265 80.9685 35.7922 81.2087H35.8566C36.0667 80.8699 36.3648 80.604 36.7507 80.411C37.141 80.2137 37.5849 80.1151 38.0823 80.1151C38.9443 80.1151 39.5897 80.321 40.0186 80.7327C40.4517 81.1401 40.6683 81.7898 40.6683 82.6818V87.2812H39.6005ZM45.8467 87.4099C44.8046 87.4099 43.9812 87.0926 43.3765 86.4579C42.7761 85.8231 42.4759 84.9419 42.4759 83.814C42.4759 82.6775 42.7547 81.7748 43.3122 81.1058C43.874 80.4367 44.6266 80.1022 45.5701 80.1022C46.4536 80.1022 47.1526 80.3939 47.6672 80.9771C48.1818 81.556 48.4391 82.3216 48.4391 83.2736V83.9491H43.5824C43.6038 84.7767 43.8118 85.405 44.2064 85.8339C44.6052 86.2627 45.1648 86.4771 45.8853 86.4771C46.6444 86.4771 47.3949 86.3185 48.1368 86.0011V86.9532C47.7594 87.1161 47.4013 87.2319 47.0625 87.3005C46.728 87.3735 46.3227 87.4099 45.8467 87.4099ZM45.5572 80.9964C44.9912 80.9964 44.5387 81.1808 44.1999 81.5496C43.8654 81.9184 43.6681 82.4288 43.6081 83.0806H47.2941C47.2941 82.4073 47.144 81.8927 46.8438 81.5368C46.5436 81.1765 46.1148 80.9964 45.5572 80.9964ZM52.8328 90.4462C52.4253 90.4462 52.0951 90.3926 51.8421 90.2854V89.4169C52.138 89.5027 52.4296 89.5456 52.717 89.5456C53.0515 89.5456 53.2959 89.4534 53.4503 89.269C53.609 89.0889 53.6883 88.8123 53.6883 88.4392V80.2309H54.7562V88.362C54.7562 89.7514 54.115 90.4462 52.8328 90.4462ZM53.5983 78.3203C53.5983 78.0759 53.6583 77.8979 53.7784 77.7864C53.8985 77.6706 54.0486 77.6127 54.2287 77.6127C54.4002 77.6127 54.5482 77.6706 54.6725 77.7864C54.7969 77.9022 54.8591 78.0802 54.8591 78.3203C54.8591 78.5605 54.7969 78.7406 54.6725 78.8607C54.5482 78.9765 54.4002 79.0344 54.2287 79.0344C54.0486 79.0344 53.8985 78.9765 53.7784 78.8607C53.6583 78.7406 53.5983 78.5605 53.5983 78.3203ZM58.024 80.2309V84.8046C58.024 85.3793 58.1548 85.8081 58.4164 86.0912C58.678 86.3742 59.0876 86.5157 59.6451 86.5157C60.3827 86.5157 60.9209 86.3142 61.2597 85.9111C61.6028 85.5079 61.7744 84.8496 61.7744 83.9362V80.2309H62.8422V87.2812H61.9609L61.8065 86.3356H61.7486C61.5299 86.683 61.2254 86.9489 60.8352 87.1333C60.4492 87.3177 60.0075 87.4099 59.51 87.4099C58.6523 87.4099 58.009 87.2062 57.5802 86.7988C57.1556 86.3914 56.9433 85.7395 56.9433 84.8432V80.2309H58.024ZM68.3294 80.1022C68.6425 80.1022 68.9234 80.128 69.1721 80.1794L69.0241 81.1701C68.7325 81.1058 68.4752 81.0736 68.2522 81.0736C67.6818 81.0736 67.1929 81.3052 66.7855 81.7683C66.3824 82.2315 66.1808 82.8083 66.1808 83.4988V87.2812H65.113V80.2309H65.9943L66.1165 81.5368H66.168C66.4296 81.0779 66.7448 80.7241 67.1136 80.4753C67.4824 80.2266 67.8877 80.1022 68.3294 80.1022ZM69.3715 80.2309H70.5165L72.0604 84.2514C72.3992 85.1691 72.6094 85.8317 72.6908 86.2391H72.7423C72.798 86.0204 72.9138 85.6473 73.0897 85.1198C73.2698 84.588 73.853 82.9584 74.8394 80.2309H75.9844L72.9546 88.259C72.6544 89.0524 72.3027 89.6142 71.8996 89.9444C71.5008 90.2789 71.0097 90.4462 70.4265 90.4462C70.1006 90.4462 69.7789 90.4097 69.4616 90.3368V89.4813C69.6974 89.5327 69.9612 89.5585 70.2528 89.5585C70.9861 89.5585 71.5093 89.1468 71.8224 88.3234L72.2148 87.3198L69.3715 80.2309ZM85.3506 86.3356H85.2927C84.7995 87.0518 84.0619 87.4099 83.0798 87.4099C82.1578 87.4099 81.4395 87.0947 80.9248 86.4643C80.4145 85.8339 80.1593 84.9376 80.1593 83.7754C80.1593 82.6132 80.4166 81.7104 80.9313 81.0672C81.4459 80.4239 82.1621 80.1022 83.0798 80.1022C84.0362 80.1022 84.7695 80.4496 85.2798 81.1443H85.3635L85.3184 80.6362L85.2927 80.1408V77.2718H86.3606V87.2812H85.4921L85.3506 86.3356ZM83.2149 86.5157C83.944 86.5157 84.4715 86.3185 84.7974 85.9239C85.1276 85.5251 85.2927 84.884 85.2927 84.0005V83.7754C85.2927 82.7761 85.1255 82.0642 84.791 81.6397C84.4607 81.2108 83.9311 80.9964 83.202 80.9964C82.5759 80.9964 82.0956 81.2408 81.7611 81.7297C81.4309 82.2143 81.2658 82.9005 81.2658 83.7882C81.2658 84.6888 81.4309 85.3686 81.7611 85.8274C82.0913 86.2863 82.5759 86.5157 83.2149 86.5157ZM91.6097 87.4099C90.5676 87.4099 89.7442 87.0926 89.1395 86.4579C88.5391 85.8231 88.2389 84.9419 88.2389 83.814C88.2389 82.6775 88.5177 81.7748 89.0752 81.1058C89.637 80.4367 90.3896 80.1022 91.3331 80.1022C92.2166 80.1022 92.9156 80.3939 93.4302 80.9771C93.9448 81.556 94.2022 82.3216 94.2022 83.2736V83.9491H89.3454C89.3668 84.7767 89.5748 85.405 89.9694 85.8339C90.3682 86.2627 90.9279 86.4771 91.6483 86.4771C92.4074 86.4771 93.1579 86.3185 93.8998 86.0011V86.9532C93.5224 87.1161 93.1643 87.2319 92.8255 87.3005C92.491 87.3735 92.0858 87.4099 91.6097 87.4099ZM91.3203 80.9964C90.7542 80.9964 90.3017 81.1808 89.9629 81.5496C89.6284 81.9184 89.4312 82.4288 89.3711 83.0806H93.0571C93.0571 82.4073 92.907 81.8927 92.6068 81.5368C92.3066 81.1765 91.8778 80.9964 91.3203 80.9964ZM98.8466 87.4099C97.826 87.4099 97.0347 87.0968 96.4729 86.4707C95.9154 85.8403 95.6367 84.9504 95.6367 83.8011C95.6367 82.6218 95.9197 81.7104 96.4858 81.0672C97.0562 80.4239 97.8667 80.1022 98.9174 80.1022C99.2562 80.1022 99.595 80.1387 99.9338 80.2116C100.273 80.2845 100.538 80.3703 100.731 80.4689L100.403 81.3759C100.168 81.2816 99.9102 81.2044 99.6314 81.1443C99.3527 81.08 99.1061 81.0479 98.8917 81.0479C97.4593 81.0479 96.7431 81.9613 96.7431 83.7882C96.7431 84.6545 96.9168 85.3192 97.2642 85.7824C97.6158 86.2456 98.1347 86.4771 98.8209 86.4771C99.4084 86.4771 100.011 86.3506 100.629 86.0976V87.0432C100.157 87.2877 99.5628 87.4099 98.8466 87.4099ZM103.375 87.2812H102.307V80.2309H103.375V87.2812ZM102.217 78.3203C102.217 78.0759 102.277 77.8979 102.398 77.7864C102.518 77.6706 102.668 77.6127 102.848 77.6127C103.019 77.6127 103.167 77.6706 103.292 77.7864C103.416 77.9022 103.478 78.0802 103.478 78.3203C103.478 78.5605 103.416 78.7406 103.292 78.8607C103.167 78.9765 103.019 79.0344 102.848 79.0344C102.668 79.0344 102.518 78.9765 102.398 78.8607C102.277 78.7406 102.217 78.5605 102.217 78.3203ZM110.188 85.3578C110.188 86.014 109.943 86.52 109.454 86.876C108.965 87.2319 108.279 87.4099 107.396 87.4099C106.461 87.4099 105.732 87.262 105.209 86.966V85.9754C105.547 86.1469 105.91 86.282 106.296 86.3807C106.686 86.4793 107.061 86.5286 107.422 86.5286C107.979 86.5286 108.408 86.4407 108.708 86.2649C109.008 86.0847 109.158 85.8124 109.158 85.4479C109.158 85.1734 109.038 84.9397 108.798 84.7467C108.562 84.5495 108.099 84.3179 107.409 84.052C106.753 83.8075 106.285 83.5953 106.006 83.4151C105.732 83.2307 105.526 83.0227 105.389 82.7911C105.256 82.5596 105.189 82.283 105.189 81.9613C105.189 81.3867 105.423 80.9342 105.891 80.604C106.358 80.2695 106.999 80.1022 107.814 80.1022C108.573 80.1022 109.315 80.2566 110.04 80.5654L109.66 81.4338C108.953 81.1422 108.311 80.9964 107.737 80.9964C107.231 80.9964 106.849 81.0757 106.592 81.2344C106.334 81.3931 106.206 81.6118 106.206 81.8906C106.206 82.0793 106.253 82.2401 106.347 82.373C106.446 82.506 106.602 82.6325 106.817 82.7526C107.031 82.8726 107.443 83.0463 108.052 83.2736C108.888 83.5781 109.452 83.8847 109.744 84.1935C110.04 84.5023 110.188 84.8904 110.188 85.3578ZM112.999 87.2812H111.931V80.2309H112.999V87.2812ZM111.841 78.3203C111.841 78.0759 111.901 77.8979 112.021 77.7864C112.141 77.6706 112.291 77.6127 112.471 77.6127C112.643 77.6127 112.791 77.6706 112.915 77.7864C113.04 77.9022 113.102 78.0802 113.102 78.3203C113.102 78.5605 113.04 78.7406 112.915 78.8607C112.791 78.9765 112.643 79.0344 112.471 79.0344C112.291 79.0344 112.141 78.9765 112.021 78.8607C111.901 78.7406 111.841 78.5605 111.841 78.3203ZM121.349 83.7496C121.349 84.899 121.059 85.7974 120.48 86.445C119.901 87.0883 119.101 87.4099 118.081 87.4099C117.45 87.4099 116.891 87.262 116.402 86.966C115.913 86.6701 115.535 86.2456 115.27 85.6923C115.004 85.1391 114.871 84.4916 114.871 83.7496C114.871 82.6003 115.158 81.7061 115.733 81.0672C116.307 80.4239 117.105 80.1022 118.126 80.1022C119.112 80.1022 119.895 80.4303 120.474 81.0865C121.057 81.7426 121.349 82.6303 121.349 83.7496ZM115.977 83.7496C115.977 84.6502 116.157 85.3364 116.518 85.8081C116.878 86.2799 117.407 86.5157 118.106 86.5157C118.806 86.5157 119.335 86.282 119.695 85.8146C120.06 85.3428 120.242 84.6545 120.242 83.7496C120.242 82.8533 120.06 82.1736 119.695 81.7104C119.335 81.243 118.801 81.0093 118.094 81.0093C117.395 81.0093 116.867 81.2387 116.511 81.6976C116.155 82.1564 115.977 82.8405 115.977 83.7496ZM128.052 87.2812V82.7204C128.052 82.1457 127.921 81.7169 127.659 81.4338C127.398 81.1508 126.988 81.0093 126.431 81.0093C125.693 81.0093 125.153 81.2087 124.809 81.6075C124.466 82.0063 124.295 82.6646 124.295 83.5824V87.2812H123.227V80.2309H124.095L124.269 81.1958H124.321C124.539 80.8484 124.846 80.5804 125.24 80.3917C125.635 80.1987 126.075 80.1022 126.559 80.1022C127.408 80.1022 128.047 80.3081 128.476 80.7198C128.905 81.1272 129.119 81.7812 129.119 82.6818V87.2812H128.052ZM135.81 87.2812H134.742V80.2309H135.81V87.2812ZM134.652 78.3203C134.652 78.0759 134.712 77.8979 134.832 77.7864C134.952 77.6706 135.102 77.6127 135.282 77.6127C135.454 77.6127 135.602 77.6706 135.726 77.7864C135.85 77.9022 135.912 78.0802 135.912 78.3203C135.912 78.5605 135.85 78.7406 135.726 78.8607C135.602 78.9765 135.454 79.0344 135.282 79.0344C135.102 79.0344 134.952 78.9765 134.832 78.8607C134.712 78.7406 134.652 78.5605 134.652 78.3203ZM142.622 85.3578C142.622 86.014 142.377 86.52 141.889 86.876C141.4 87.2319 140.714 87.4099 139.83 87.4099C138.895 87.4099 138.166 87.262 137.643 86.966V85.9754C137.982 86.1469 138.344 86.282 138.73 86.3807C139.12 86.4793 139.496 86.5286 139.856 86.5286C140.413 86.5286 140.842 86.4407 141.142 86.2649C141.443 86.0847 141.593 85.8124 141.593 85.4479C141.593 85.1734 141.473 84.9397 141.232 84.7467C140.997 84.5495 140.533 84.3179 139.843 84.052C139.187 83.8075 138.719 83.5953 138.441 83.4151C138.166 83.2307 137.96 83.0227 137.823 82.7911C137.69 82.5596 137.624 82.283 137.624 81.9613C137.624 81.3867 137.857 80.9342 138.325 80.604C138.792 80.2695 139.433 80.1022 140.248 80.1022C141.007 80.1022 141.749 80.2566 142.474 80.5654L142.094 81.4338C141.387 81.1422 140.746 80.9964 140.171 80.9964C139.665 80.9964 139.283 81.0757 139.026 81.2344C138.769 81.3931 138.64 81.6118 138.64 81.8906C138.64 82.0793 138.687 82.2401 138.782 82.373C138.88 82.506 139.037 82.6325 139.251 82.7526C139.466 82.8726 139.877 83.0463 140.486 83.2736C141.322 83.5781 141.886 83.8847 142.178 84.1935C142.474 84.5023 142.622 84.8904 142.622 85.3578ZM152.123 87.2812L151.911 86.2777H151.859C151.508 86.7195 151.156 87.0196 150.804 87.1783C150.457 87.3327 150.022 87.4099 149.499 87.4099C148.8 87.4099 148.251 87.2298 147.852 86.8696C147.457 86.5093 147.26 85.9968 147.26 85.3321C147.26 83.9083 148.399 83.1621 150.676 83.0935L151.872 83.0549V82.6175C151.872 82.0642 151.752 81.6568 151.512 81.3952C151.276 81.1293 150.897 80.9964 150.373 80.9964C149.786 80.9964 149.121 81.1765 148.379 81.5368L148.051 80.7198C148.399 80.5311 148.778 80.3831 149.19 80.2759C149.606 80.1687 150.022 80.1151 150.438 80.1151C151.278 80.1151 151.9 80.3017 152.303 80.6748C152.711 81.0479 152.914 81.6461 152.914 82.4695V87.2812H152.123ZM149.711 86.5286C150.376 86.5286 150.897 86.3463 151.274 85.9818C151.656 85.6173 151.847 85.107 151.847 84.4508V83.814L150.779 83.859C149.93 83.889 149.316 84.022 148.939 84.2578C148.566 84.4894 148.379 84.8518 148.379 85.345C148.379 85.7309 148.495 86.0247 148.727 86.2263C148.963 86.4278 149.291 86.5286 149.711 86.5286ZM158.402 87.4099C157.943 87.4099 157.522 87.3263 157.141 87.159C156.763 86.9875 156.446 86.7259 156.189 86.3742H156.112C156.163 86.7859 156.189 87.1762 156.189 87.545V90.4462H155.121V80.2309H155.989L156.137 81.1958H156.189C156.463 80.8098 156.783 80.5311 157.147 80.3595C157.512 80.188 157.93 80.1022 158.402 80.1022C159.336 80.1022 160.057 80.4217 160.563 81.0607C161.073 81.6997 161.329 82.596 161.329 83.7496C161.329 84.9075 161.069 85.8081 160.55 86.4514C160.036 87.0904 159.319 87.4099 158.402 87.4099ZM158.247 81.0093C157.527 81.0093 157.006 81.2087 156.684 81.6075C156.362 82.0063 156.197 82.6411 156.189 83.5116V83.7496C156.189 84.7403 156.354 85.45 156.684 85.8789C157.014 86.3035 157.544 86.5157 158.273 86.5157C158.882 86.5157 159.358 86.2692 159.701 85.776C160.048 85.2828 160.222 84.6031 160.222 83.7368C160.222 82.8576 160.048 82.1843 159.701 81.7169C159.358 81.2451 158.873 81.0093 158.247 81.0093ZM166.481 87.4099C166.022 87.4099 165.602 87.3263 165.22 87.159C164.843 86.9875 164.526 86.7259 164.268 86.3742H164.191C164.243 86.7859 164.268 87.1762 164.268 87.545V90.4462H163.2V80.2309H164.069L164.217 81.1958H164.268C164.543 80.8098 164.862 80.5311 165.227 80.3595C165.591 80.188 166.009 80.1022 166.481 80.1022C167.416 80.1022 168.137 80.4217 168.643 81.0607C169.153 81.6997 169.408 82.596 169.408 83.7496C169.408 84.9075 169.149 85.8081 168.63 86.4514C168.115 87.0904 167.399 87.4099 166.481 87.4099ZM166.327 81.0093C165.606 81.0093 165.085 81.2087 164.764 81.6075C164.442 82.0063 164.277 82.6411 164.268 83.5116V83.7496C164.268 84.7403 164.433 85.45 164.764 85.8789C165.094 86.3035 165.623 86.5157 166.353 86.5157C166.962 86.5157 167.438 86.2692 167.781 85.776C168.128 85.2828 168.302 84.6031 168.302 83.7368C168.302 82.8576 168.128 82.1843 167.781 81.7169C167.438 81.2451 166.953 81.0093 166.327 81.0093ZM174.258 87.4099C173.216 87.4099 172.393 87.0926 171.788 86.4579C171.188 85.8231 170.888 84.9419 170.888 83.814C170.888 82.6775 171.166 81.7748 171.724 81.1058C172.286 80.4367 173.038 80.1022 173.982 80.1022C174.865 80.1022 175.564 80.3939 176.079 80.9771C176.594 81.556 176.851 82.3216 176.851 83.2736V83.9491H171.994C172.016 84.7767 172.224 85.405 172.618 85.8339C173.017 86.2627 173.577 86.4771 174.297 86.4771C175.056 86.4771 175.807 86.3185 176.549 86.0011V86.9532C176.171 87.1161 175.813 87.2319 175.474 87.3005C175.14 87.3735 174.734 87.4099 174.258 87.4099ZM173.969 80.9964C173.403 80.9964 172.95 81.1808 172.612 81.5496C172.277 81.9184 172.08 82.4288 172.02 83.0806H175.706C175.706 82.4073 175.556 81.8927 175.256 81.5368C174.955 81.1765 174.527 80.9964 173.969 80.9964ZM183.014 87.2812L182.801 86.2777H182.75C182.398 86.7195 182.046 87.0196 181.695 87.1783C181.347 87.3327 180.912 87.4099 180.389 87.4099C179.69 87.4099 179.141 87.2298 178.742 86.8696C178.348 86.5093 178.15 85.9968 178.15 85.3321C178.15 83.9083 179.289 83.1621 181.566 83.0935L182.763 83.0549V82.6175C182.763 82.0642 182.643 81.6568 182.402 81.3952C182.167 81.1293 181.787 80.9964 181.264 80.9964C180.676 80.9964 180.012 81.1765 179.27 81.5368L178.942 80.7198C179.289 80.5311 179.668 80.3831 180.08 80.2759C180.496 80.1687 180.912 80.1151 181.328 80.1151C182.169 80.1151 182.791 80.3017 183.194 80.6748C183.601 81.0479 183.805 81.6461 183.805 82.4695V87.2812H183.014ZM180.601 86.5286C181.266 86.5286 181.787 86.3463 182.164 85.9818C182.546 85.6173 182.737 85.107 182.737 84.4508V83.814L181.669 83.859C180.82 83.889 180.207 84.022 179.829 84.2578C179.456 84.4894 179.27 84.8518 179.27 85.345C179.27 85.7309 179.385 86.0247 179.617 86.2263C179.853 86.4278 180.181 86.5286 180.601 86.5286ZM187.079 87.2812H186.011V77.2718H187.079V87.2812ZM192.322 87.4099C191.28 87.4099 190.456 87.0926 189.852 86.4579C189.251 85.8231 188.951 84.9419 188.951 83.814C188.951 82.6775 189.23 81.7748 189.787 81.1058C190.349 80.4367 191.102 80.1022 192.045 80.1022C192.929 80.1022 193.628 80.3939 194.142 80.9771C194.657 81.556 194.914 82.3216 194.914 83.2736V83.9491H190.057C190.079 84.7767 190.287 85.405 190.681 85.8339C191.08 86.2627 191.64 86.4771 192.36 86.4771C193.119 86.4771 193.87 86.3185 194.612 86.0011V86.9532C194.234 87.1161 193.876 87.2319 193.538 87.3005C193.203 87.3735 192.798 87.4099 192.322 87.4099ZM192.032 80.9964C191.466 80.9964 191.014 81.1808 190.675 81.5496C190.34 81.9184 190.143 82.4288 190.083 83.0806H193.769C193.769 82.4073 193.619 81.8927 193.319 81.5368C193.019 81.1765 192.59 80.9964 192.032 80.9964ZM201.54 86.3356H201.482C200.989 87.0518 200.251 87.4099 199.269 87.4099C198.347 87.4099 197.629 87.0947 197.114 86.4643C196.604 85.8339 196.349 84.9376 196.349 83.7754C196.349 82.6132 196.606 81.7104 197.121 81.0672C197.635 80.4239 198.351 80.1022 199.269 80.1022C200.226 80.1022 200.959 80.4496 201.469 81.1443H201.553L201.508 80.6362L201.482 80.1408V77.2718H202.55V87.2812H201.682L201.54 86.3356ZM199.404 86.5157C200.133 86.5157 200.661 86.3185 200.987 85.9239C201.317 85.5251 201.482 84.884 201.482 84.0005V83.7754C201.482 82.7761 201.315 82.0642 200.98 81.6397C200.65 81.2108 200.121 80.9964 199.391 80.9964C198.765 80.9964 198.285 81.2408 197.951 81.7297C197.62 82.2143 197.455 82.9005 197.455 83.7882C197.455 84.6888 197.62 85.3686 197.951 85.8274C198.281 86.2863 198.765 86.5157 199.404 86.5157ZM214 87.2812L212.707 83.145C212.626 82.8919 212.474 82.3173 212.251 81.421H212.199C212.028 82.1715 211.878 82.7504 211.749 83.1578L210.417 87.2812H209.182L207.259 80.2309H208.378C208.833 82.0021 209.178 83.3508 209.414 84.2771C209.654 85.2035 209.791 85.8274 209.825 86.1491H209.877C209.924 85.9046 209.999 85.5894 210.102 85.2035C210.209 84.8132 210.301 84.5044 210.379 84.2771L211.672 80.2309H212.83L214.09 84.2771C214.331 85.0148 214.494 85.6345 214.579 86.1362H214.631C214.648 85.9818 214.693 85.7438 214.766 85.4222C214.843 85.1005 215.291 83.3701 216.11 80.2309H217.217L215.268 87.2812H214ZM223.321 87.2812V82.7204C223.321 82.1457 223.191 81.7169 222.929 81.4338C222.667 81.1508 222.258 81.0093 221.7 81.0093C220.959 81.0093 220.416 81.2108 220.073 81.6139C219.734 82.0171 219.565 82.6775 219.565 83.5953V87.2812H218.497V77.2718H219.565V80.3017C219.565 80.6662 219.548 80.9685 219.513 81.2087H219.578C219.788 80.8699 220.086 80.604 220.472 80.411C220.862 80.2137 221.306 80.1151 221.803 80.1151C222.665 80.1151 223.311 80.321 223.74 80.7327C224.173 81.1401 224.389 81.7898 224.389 82.6818V87.2812H223.321ZM229.568 87.4099C228.526 87.4099 227.702 87.0926 227.098 86.4579C226.497 85.8231 226.197 84.9419 226.197 83.814C226.197 82.6775 226.476 81.7748 227.033 81.1058C227.595 80.4367 228.348 80.1022 229.291 80.1022C230.175 80.1022 230.874 80.3939 231.388 80.9771C231.903 81.556 232.16 82.3216 232.16 83.2736V83.9491H227.303C227.325 84.7767 227.533 85.405 227.927 85.8339C228.326 86.2627 228.886 86.4771 229.606 86.4771C230.365 86.4771 231.116 86.3185 231.858 86.0011V86.9532C231.48 87.1161 231.122 87.2319 230.784 87.3005C230.449 87.3735 230.044 87.4099 229.568 87.4099ZM229.278 80.9964C228.712 80.9964 228.26 81.1808 227.921 81.5496C227.586 81.9184 227.389 82.4288 227.329 83.0806H231.015C231.015 82.4073 230.865 81.8927 230.565 81.5368C230.265 81.1765 229.836 80.9964 229.278 80.9964ZM238.812 87.2812V82.7204C238.812 82.1457 238.681 81.7169 238.419 81.4338C238.158 81.1508 237.748 81.0093 237.191 81.0093C236.453 81.0093 235.913 81.2087 235.57 81.6075C235.226 82.0063 235.055 82.6646 235.055 83.5824V87.2812H233.987V80.2309H234.856L235.029 81.1958H235.081C235.299 80.8484 235.606 80.5804 236.001 80.3917C236.395 80.1987 236.835 80.1022 237.319 80.1022C238.168 80.1022 238.807 80.3081 239.236 80.7198C239.665 81.1272 239.88 81.7812 239.88 82.6818V87.2812H238.812ZM250.05 85.3578C250.05 86.014 249.805 86.52 249.316 86.876C248.828 87.2319 248.141 87.4099 247.258 87.4099C246.323 87.4099 245.594 87.262 245.071 86.966V85.9754C245.41 86.1469 245.772 86.282 246.158 86.3807C246.548 86.4793 246.923 86.5286 247.284 86.5286C247.841 86.5286 248.27 86.4407 248.57 86.2649C248.87 86.0847 249.021 85.8124 249.021 85.4479C249.021 85.1734 248.901 84.9397 248.66 84.7467C248.424 84.5495 247.961 84.3179 247.271 84.052C246.615 83.8075 246.147 83.5953 245.869 83.4151C245.594 83.2307 245.388 83.0227 245.251 82.7911C245.118 82.5596 245.052 82.283 245.052 81.9613C245.052 81.3867 245.285 80.9342 245.753 80.604C246.22 80.2695 246.861 80.1022 247.676 80.1022C248.435 80.1022 249.177 80.2566 249.902 80.5654L249.522 81.4338C248.815 81.1422 248.174 80.9964 247.599 80.9964C247.093 80.9964 246.711 81.0757 246.454 81.2344C246.197 81.3931 246.068 81.6118 246.068 81.8906C246.068 82.0793 246.115 82.2401 246.209 82.373C246.308 82.506 246.465 82.6325 246.679 82.7526C246.893 82.8726 247.305 83.0463 247.914 83.2736C248.75 83.5781 249.314 83.8847 249.606 84.1935C249.902 84.5023 250.05 84.8904 250.05 85.3578ZM254.07 86.5286C254.259 86.5286 254.441 86.5157 254.617 86.49C254.793 86.46 254.932 86.43 255.035 86.4V87.2169C254.919 87.2727 254.748 87.3177 254.521 87.352C254.298 87.3906 254.096 87.4099 253.916 87.4099C252.552 87.4099 251.87 86.6916 251.87 85.2549V81.0607H250.86V80.5461L251.87 80.1022L252.321 78.597H252.938V80.2309H254.984V81.0607H252.938V85.2099C252.938 85.6345 253.039 85.9604 253.24 86.1877C253.442 86.415 253.719 86.5286 254.07 86.5286ZM260.786 87.2812L260.574 86.2777H260.522C260.171 86.7195 259.819 87.0196 259.467 87.1783C259.12 87.3327 258.685 87.4099 258.162 87.4099C257.463 87.4099 256.914 87.2298 256.515 86.8696C256.12 86.5093 255.923 85.9968 255.923 85.3321C255.923 83.9083 257.062 83.1621 259.339 83.0935L260.535 83.0549V82.6175C260.535 82.0642 260.415 81.6568 260.175 81.3952C259.939 81.1293 259.56 80.9964 259.036 80.9964C258.449 80.9964 257.784 81.1765 257.042 81.5368L256.714 80.7198C257.062 80.5311 257.441 80.3831 257.853 80.2759C258.269 80.1687 258.685 80.1151 259.101 80.1151C259.941 80.1151 260.563 80.3017 260.966 80.6748C261.374 81.0479 261.577 81.6461 261.577 82.4695V87.2812H260.786ZM258.374 86.5286C259.039 86.5286 259.56 86.3463 259.937 85.9818C260.319 85.6173 260.51 85.107 260.51 84.4508V83.814L259.442 83.859C258.593 83.889 257.979 84.022 257.602 84.2578C257.229 84.4894 257.042 84.8518 257.042 85.345C257.042 85.7309 257.158 86.0247 257.39 86.2263C257.626 86.4278 257.954 86.5286 258.374 86.5286ZM269.554 80.2309V80.9063L268.248 81.0607C268.368 81.2108 268.476 81.4081 268.57 81.6525C268.664 81.8927 268.711 82.165 268.711 82.4695C268.711 83.16 268.476 83.711 268.004 84.1227C267.532 84.5344 266.884 84.7403 266.061 84.7403C265.851 84.7403 265.654 84.7231 265.469 84.6888C265.015 84.929 264.787 85.2313 264.787 85.5959C264.787 85.7888 264.867 85.9325 265.025 86.0269C265.184 86.1169 265.456 86.1619 265.842 86.1619H267.09C267.854 86.1619 268.439 86.3228 268.846 86.6444C269.258 86.966 269.464 87.4335 269.464 88.0468C269.464 88.8273 269.151 89.4212 268.525 89.8286C267.899 90.2403 266.985 90.4462 265.784 90.4462C264.862 90.4462 264.151 90.2747 263.649 89.9316C263.151 89.5885 262.903 89.1039 262.903 88.4778C262.903 88.0489 263.04 87.6779 263.314 87.3649C263.589 87.0518 263.975 86.8395 264.472 86.728C264.292 86.6465 264.14 86.52 264.015 86.3485C263.895 86.177 263.835 85.9775 263.835 85.7502C263.835 85.4929 263.904 85.2678 264.041 85.0748C264.178 84.8818 264.395 84.6953 264.691 84.5151C264.326 84.365 264.028 84.1099 263.797 83.7496C263.569 83.3894 263.456 82.9777 263.456 82.5145C263.456 81.7426 263.687 81.1486 264.151 80.7327C264.614 80.3124 265.27 80.1022 266.119 80.1022C266.488 80.1022 266.82 80.1451 267.116 80.2309H269.554ZM263.932 88.4649C263.932 88.8466 264.093 89.136 264.414 89.3333C264.736 89.5306 265.197 89.6292 265.797 89.6292C266.694 89.6292 267.356 89.4941 267.785 89.224C268.218 88.9581 268.435 88.5957 268.435 88.1368C268.435 87.7551 268.317 87.4892 268.081 87.3391C267.845 87.1933 267.401 87.1204 266.749 87.1204H265.469C264.985 87.1204 264.607 87.2362 264.337 87.4678C264.067 87.6994 263.932 88.0317 263.932 88.4649ZM264.511 82.4888C264.511 82.982 264.65 83.3551 264.929 83.6081C265.208 83.8611 265.596 83.9877 266.093 83.9877C267.135 83.9877 267.656 83.4816 267.656 82.4695C267.656 81.4102 267.129 80.8806 266.074 80.8806C265.572 80.8806 265.186 81.0157 264.916 81.2859C264.646 81.556 264.511 81.957 264.511 82.4888ZM273.98 87.4099C272.938 87.4099 272.114 87.0926 271.51 86.4579C270.909 85.8231 270.609 84.9419 270.609 83.814C270.609 82.6775 270.888 81.7748 271.445 81.1058C272.007 80.4367 272.76 80.1022 273.703 80.1022C274.587 80.1022 275.286 80.3939 275.8 80.9771C276.315 81.556 276.572 82.3216 276.572 83.2736V83.9491H271.716C271.737 84.7767 271.945 85.405 272.34 85.8339C272.738 86.2627 273.298 86.4771 274.018 86.4771C274.778 86.4771 275.528 86.3185 276.27 86.0011V86.9532C275.893 87.1161 275.534 87.2319 275.196 87.3005C274.861 87.3735 274.456 87.4099 273.98 87.4099ZM273.69 80.9964C273.124 80.9964 272.672 81.1808 272.333 81.5496C271.999 81.9184 271.801 82.4288 271.741 83.0806H275.427C275.427 82.4073 275.277 81.8927 274.977 81.5368C274.677 81.1765 274.248 80.9964 273.69 80.9964ZM282.947 85.3578C282.947 86.014 282.703 86.52 282.214 86.876C281.725 87.2319 281.039 87.4099 280.155 87.4099C279.22 87.4099 278.491 87.262 277.968 86.966V85.9754C278.307 86.1469 278.669 86.282 279.055 86.3807C279.446 86.4793 279.821 86.5286 280.181 86.5286C280.739 86.5286 281.167 86.4407 281.468 86.2649C281.768 86.0847 281.918 85.8124 281.918 85.4479C281.918 85.1734 281.798 84.9397 281.558 84.7467C281.322 84.5495 280.859 84.3179 280.168 84.052C279.512 83.8075 279.045 83.5953 278.766 83.4151C278.491 83.2307 278.286 83.0227 278.148 82.7911C278.015 82.5596 277.949 82.283 277.949 81.9613C277.949 81.3867 278.183 80.9342 278.65 80.604C279.118 80.2695 279.759 80.1022 280.574 80.1022C281.333 80.1022 282.074 80.2566 282.799 80.5654L282.42 81.4338C281.712 81.1422 281.071 80.9964 280.496 80.9964C279.99 80.9964 279.609 81.0757 279.351 81.2344C279.094 81.3931 278.965 81.6118 278.965 81.8906C278.965 82.0793 279.012 82.2401 279.107 82.373C279.205 82.506 279.362 82.6325 279.576 82.7526C279.791 82.8726 280.203 83.0463 280.812 83.2736C281.648 83.5781 282.212 83.8847 282.503 84.1935C282.799 84.5023 282.947 84.8904 282.947 85.3578ZM291.58 87.2812H290.538V80.5783C290.538 80.0208 290.555 79.4933 290.589 78.9958C290.499 79.0859 290.399 79.1802 290.287 79.2788C290.176 79.3775 289.665 79.7956 288.756 80.5332L288.19 79.7999L290.679 77.8765H291.58V87.2812ZM303.41 87.2812L303.198 86.2777H303.146C302.795 86.7195 302.443 87.0196 302.091 87.1783C301.744 87.3327 301.309 87.4099 300.785 87.4099C300.086 87.4099 299.537 87.2298 299.139 86.8696C298.744 86.5093 298.547 85.9968 298.547 85.3321C298.547 83.9083 299.685 83.1621 301.963 83.0935L303.159 83.0549V82.6175C303.159 82.0642 303.039 81.6568 302.799 81.3952C302.563 81.1293 302.183 80.9964 301.66 80.9964C301.073 80.9964 300.408 81.1765 299.666 81.5368L299.338 80.7198C299.685 80.5311 300.065 80.3831 300.477 80.2759C300.893 80.1687 301.309 80.1151 301.725 80.1151C302.565 80.1151 303.187 80.3017 303.59 80.6748C303.997 81.0479 304.201 81.6461 304.201 82.4695V87.2812H303.41ZM300.998 86.5286C301.662 86.5286 302.183 86.3463 302.561 85.9818C302.943 85.6173 303.133 85.107 303.133 84.4508V83.814L302.066 83.859C301.216 83.889 300.603 84.022 300.226 84.2578C299.853 84.4894 299.666 84.8518 299.666 85.345C299.666 85.7309 299.782 86.0247 300.013 86.2263C300.249 86.4278 300.577 86.5286 300.998 86.5286ZM311.232 87.2812V82.7204C311.232 82.1457 311.101 81.7169 310.84 81.4338C310.578 81.1508 310.169 81.0093 309.611 81.0093C308.874 81.0093 308.333 81.2087 307.99 81.6075C307.647 82.0063 307.476 82.6646 307.476 83.5824V87.2812H306.408V80.2309H307.276L307.45 81.1958H307.501C307.72 80.8484 308.027 80.5804 308.421 80.3917C308.816 80.1987 309.255 80.1022 309.74 80.1022C310.589 80.1022 311.228 80.3081 311.657 80.7198C312.086 81.1272 312.3 81.7812 312.3 82.6818V87.2812H311.232ZM319.299 86.3356H319.241C318.748 87.0518 318.01 87.4099 317.028 87.4099C316.106 87.4099 315.388 87.0947 314.873 86.4643C314.363 85.8339 314.108 84.9376 314.108 83.7754C314.108 82.6132 314.365 81.7104 314.88 81.0672C315.394 80.4239 316.111 80.1022 317.028 80.1022C317.985 80.1022 318.718 80.4496 319.228 81.1443H319.312L319.267 80.6362L319.241 80.1408V77.2718H320.309V87.2812H319.441L319.299 86.3356ZM317.163 86.5157C317.892 86.5157 318.42 86.3185 318.746 85.9239C319.076 85.5251 319.241 84.884 319.241 84.0005V83.7754C319.241 82.7761 319.074 82.0642 318.739 81.6397C318.409 81.2108 317.88 80.9964 317.15 80.9964C316.524 80.9964 316.044 81.2408 315.71 81.7297C315.379 82.2143 315.214 82.9005 315.214 83.7882C315.214 84.6888 315.379 85.3686 315.71 85.8274C316.04 86.2863 316.524 86.5157 317.163 86.5157ZM331.695 87.2812H325.513V86.3614L327.99 83.8719C328.745 83.1085 329.242 82.5639 329.482 82.2379C329.722 81.912 329.902 81.5946 330.023 81.2859C330.143 80.9771 330.203 80.6447 330.203 80.2888C330.203 79.787 330.05 79.3903 329.746 79.0987C329.441 78.8028 329.019 78.6549 328.479 78.6549C328.088 78.6549 327.717 78.7192 327.366 78.8478C327.018 78.9765 326.63 79.2102 326.201 79.549L325.635 78.8221C326.502 78.1016 327.445 77.7414 328.466 77.7414C329.349 77.7414 330.042 77.9687 330.544 78.4233C331.045 78.8736 331.296 79.4804 331.296 80.2438C331.296 80.8399 331.129 81.4295 330.794 82.0128C330.46 82.596 329.834 83.3336 328.916 84.2257L326.858 86.2391V86.2906H331.695V87.2812ZM31.8168 105.281L31.6045 104.278H31.553C31.2014 104.719 30.8497 105.02 30.498 105.178C30.1507 105.333 29.7154 105.41 29.1922 105.41C28.4931 105.41 27.9442 105.23 27.5454 104.87C27.1508 104.509 26.9536 103.997 26.9536 103.332C26.9536 101.908 28.0922 101.162 30.3694 101.093L31.5659 101.055V100.617C31.5659 100.064 31.4458 99.6568 31.2056 99.3952C30.9698 99.1293 30.5902 98.9964 30.067 98.9964C29.4795 98.9964 28.8148 99.1765 28.0729 99.5368L27.7448 98.7198C28.0922 98.5311 28.4717 98.3831 28.8834 98.2759C29.2994 98.1687 29.7154 98.1151 30.1314 98.1151C30.9719 98.1151 31.5938 98.3017 31.9969 98.6748C32.4043 99.0479 32.608 99.6461 32.608 100.47V105.281H31.8168ZM29.4045 104.529C30.0692 104.529 30.5902 104.346 30.9676 103.982C31.3493 103.617 31.5402 103.107 31.5402 102.451V101.814L30.4723 101.859C29.6232 101.889 29.0099 102.022 28.6325 102.258C28.2594 102.489 28.0729 102.852 28.0729 103.345C28.0729 103.731 28.1887 104.025 28.4202 104.226C28.6561 104.428 28.9842 104.529 29.4045 104.529ZM38.0309 98.1022C38.3439 98.1022 38.6248 98.128 38.8736 98.1794L38.7256 99.1701C38.434 99.1058 38.1767 99.0736 37.9537 99.0736C37.3833 99.0736 36.8944 99.3052 36.487 99.7683C36.0839 100.231 35.8823 100.808 35.8823 101.499V105.281H34.8145V98.2309H35.6957L35.818 99.5368H35.8694C36.131 99.0779 36.4462 98.7241 36.8151 98.4753C37.1839 98.2266 37.5891 98.1022 38.0309 98.1022ZM43.1707 105.41C42.1286 105.41 41.3052 105.093 40.7005 104.458C40.1001 103.823 39.7999 102.942 39.7999 101.814C39.7999 100.678 40.0786 99.7748 40.6361 99.1058C41.1979 98.4367 41.9506 98.1022 42.8941 98.1022C43.7775 98.1022 44.4765 98.3939 44.9912 98.9771C45.5058 99.556 45.7631 100.322 45.7631 101.274V101.949H40.9063C40.9278 102.777 41.1358 103.405 41.5303 103.834C41.9291 104.263 42.4888 104.477 43.2093 104.477C43.9683 104.477 44.7188 104.318 45.4608 104.001V104.953C45.0834 105.116 44.7253 105.232 44.3865 105.301C44.052 105.373 43.6467 105.41 43.1707 105.41ZM42.8812 98.9964C42.3151 98.9964 41.8627 99.1808 41.5239 99.5496C41.1894 99.9184 40.9921 100.429 40.9321 101.081H44.6181C44.6181 100.407 44.468 99.8927 44.1678 99.5368C43.8676 99.1765 43.4387 98.9964 42.8812 98.9964ZM54.1901 99.0607H52.3953V105.281H51.3275V99.0607H50.0666V98.5783L51.3275 98.1923V97.7999C51.3275 96.0673 52.0844 95.201 53.5983 95.201C53.9714 95.201 54.4088 95.2761 54.9105 95.4262L54.6339 96.2817C54.2222 96.1488 53.8706 96.0823 53.579 96.0823C53.1758 96.0823 52.8778 96.2174 52.6848 96.4876C52.4918 96.7535 52.3953 97.1823 52.3953 97.7742V98.2309H54.1901V99.0607ZM56.4802 98.2309V102.805C56.4802 103.379 56.611 103.808 56.8726 104.091C57.1342 104.374 57.5437 104.516 58.1012 104.516C58.8389 104.516 59.3771 104.314 59.7159 103.911C60.0589 103.508 60.2305 102.85 60.2305 101.936V98.2309H61.2983V105.281H60.417L60.2626 104.336H60.2048C59.986 104.683 59.6816 104.949 59.2913 105.133C58.9053 105.318 58.4636 105.41 57.9661 105.41C57.1084 105.41 56.4651 105.206 56.0363 104.799C55.6117 104.391 55.3994 103.74 55.3994 102.843V98.2309H56.4802ZM64.637 105.281H63.5691V95.2718H64.637V105.281ZM67.9692 105.281H66.9013V95.2718H67.9692V105.281ZM69.1142 98.2309H70.2592L71.8031 102.251C72.1419 103.169 72.352 103.832 72.4335 104.239H72.485C72.5407 104.02 72.6565 103.647 72.8324 103.12C73.0125 102.588 73.5957 100.958 74.5821 98.2309H75.7271L72.6973 106.259C72.3971 107.052 72.0454 107.614 71.6423 107.944C71.2435 108.279 70.7524 108.446 70.1692 108.446C69.8432 108.446 69.5216 108.41 69.2043 108.337V107.481C69.4401 107.533 69.7039 107.558 69.9955 107.558C70.7288 107.558 71.252 107.147 71.5651 106.323L71.9575 105.32L69.1142 98.2309ZM83.4722 99.0607H81.6775V105.281H80.6096V99.0607H79.3488V98.5783L80.6096 98.1923V97.7999C80.6096 96.0673 81.3666 95.201 82.8804 95.201C83.2535 95.201 83.6909 95.2761 84.1927 95.4262L83.9161 96.2817C83.5044 96.1488 83.1527 96.0823 82.8611 96.0823C82.458 96.0823 82.1599 96.2174 81.9669 96.4876C81.774 96.7535 81.6775 97.1823 81.6775 97.7742V98.2309H83.4722V99.0607ZM85.7623 98.2309V102.805C85.7623 103.379 85.8931 103.808 86.1547 104.091C86.4163 104.374 86.8259 104.516 87.3834 104.516C88.121 104.516 88.6592 104.314 88.998 103.911C89.3411 103.508 89.5126 102.85 89.5126 101.936V98.2309H90.5805V105.281H89.6992L89.5448 104.336H89.4869C89.2682 104.683 88.9637 104.949 88.5734 105.133C88.1875 105.318 87.7458 105.41 87.2483 105.41C86.3906 105.41 85.7473 105.206 85.3184 104.799C84.8939 104.391 84.6816 103.74 84.6816 102.843V98.2309H85.7623ZM97.6759 105.281V100.72C97.6759 100.146 97.5451 99.7169 97.2835 99.4338C97.0219 99.1508 96.6123 99.0093 96.0548 99.0093C95.3172 99.0093 94.7768 99.2087 94.4337 99.6075C94.0906 100.006 93.9191 100.665 93.9191 101.582V105.281H92.8513V98.2309H93.7197L93.8934 99.1958H93.9448C94.1636 98.8484 94.4702 98.5804 94.8647 98.3917C95.2593 98.1987 95.6989 98.1022 96.1835 98.1022C97.0326 98.1022 97.6716 98.3081 98.1004 98.7198C98.5293 99.1272 98.7437 99.7812 98.7437 100.682V105.281H97.6759ZM105.743 104.336H105.685C105.192 105.052 104.454 105.41 103.472 105.41C102.55 105.41 101.831 105.095 101.317 104.464C100.807 103.834 100.551 102.938 100.551 101.775C100.551 100.613 100.809 99.7104 101.323 99.0672C101.838 98.4239 102.554 98.1022 103.472 98.1022C104.428 98.1022 105.162 98.4496 105.672 99.1443H105.755L105.71 98.6362L105.685 98.1408V95.2718H106.753V105.281H105.884L105.743 104.336ZM103.607 104.516C104.336 104.516 104.863 104.318 105.189 103.924C105.52 103.525 105.685 102.884 105.685 102.001V101.775C105.685 100.776 105.517 100.064 105.183 99.6397C104.853 99.2108 104.323 98.9964 103.594 98.9964C102.968 98.9964 102.488 99.2408 102.153 99.7297C101.823 100.214 101.658 100.901 101.658 101.788C101.658 102.689 101.823 103.369 102.153 103.827C102.483 104.286 102.968 104.516 103.607 104.516ZM112.002 105.41C110.96 105.41 110.136 105.093 109.532 104.458C108.931 103.823 108.631 102.942 108.631 101.814C108.631 100.678 108.91 99.7748 109.467 99.1058C110.029 98.4367 110.782 98.1022 111.725 98.1022C112.609 98.1022 113.308 98.3939 113.822 98.9771C114.337 99.556 114.594 100.322 114.594 101.274V101.949H109.737C109.759 102.777 109.967 103.405 110.361 103.834C110.76 104.263 111.32 104.477 112.04 104.477C112.799 104.477 113.55 104.318 114.292 104.001V104.953C113.914 105.116 113.556 105.232 113.218 105.301C112.883 105.373 112.478 105.41 112.002 105.41ZM111.712 98.9964C111.146 98.9964 110.694 99.1808 110.355 99.5496C110.02 99.9184 109.823 100.429 109.763 101.081H113.449C113.449 100.407 113.299 99.8927 112.999 99.5368C112.699 99.1765 112.27 98.9964 111.712 98.9964ZM121.22 104.336H121.162C120.669 105.052 119.931 105.41 118.949 105.41C118.027 105.41 117.309 105.095 116.794 104.464C116.284 103.834 116.029 102.938 116.029 101.775C116.029 100.613 116.286 99.7104 116.801 99.0672C117.315 98.4239 118.031 98.1022 118.949 98.1022C119.906 98.1022 120.639 98.4496 121.149 99.1443H121.233L121.188 98.6362L121.162 98.1408V95.2718H122.23V105.281H121.361L121.22 104.336ZM119.084 104.516C119.813 104.516 120.341 104.318 120.667 103.924C120.997 103.525 121.162 102.884 121.162 102.001V101.775C121.162 100.776 120.995 100.064 120.66 99.6397C120.33 99.2108 119.8 98.9964 119.071 98.9964C118.445 98.9964 117.965 99.2408 117.63 99.7297C117.3 100.214 117.135 100.901 117.135 101.788C117.135 102.689 117.3 103.369 117.63 103.827C117.961 104.286 118.445 104.516 119.084 104.516ZM124.346 104.599C124.346 104.312 124.411 104.095 124.539 103.95C124.672 103.8 124.861 103.725 125.105 103.725C125.354 103.725 125.547 103.8 125.684 103.95C125.826 104.095 125.897 104.312 125.897 104.599C125.897 104.878 125.826 105.093 125.684 105.243C125.543 105.393 125.35 105.468 125.105 105.468C124.887 105.468 124.704 105.401 124.559 105.268C124.417 105.131 124.346 104.908 124.346 104.599Z" class="path-5"/>
</svg>
