<svg viewBox="0 0 332 346" fill="none" xmlns="http://www.w3.org/2000/svg">
<path d="M0.364835 2.18903C0.364835 1.18156 1.18155 0.364835 2.18901 0.364835H329.811C330.818 0.364835 331.635 1.18155 331.635 2.18901V343.675C331.635 344.682 330.818 345.499 329.811 345.499H2.18903C1.18156 345.499 0.364835 344.682 0.364835 343.675V2.18903Z" class="path-1" stroke-width="0.72967"/>
<circle cx="191.174" cy="313.032" r="17.5121" class="circle-1" />
<g clip-path="url(#clip0_13917_211177)">
<path d="M187.827 309.727C188.814 308.73 188.814 307.112 187.827 306.115C186.84 305.118 185.239 305.118 184.252 306.115C183.265 307.112 183.265 308.73 184.252 309.727C185.24 310.724 186.84 310.724 187.827 309.727ZM197.937 316.331C196.95 315.333 195.349 315.333 194.363 316.331C193.376 317.328 193.376 318.945 194.363 319.942C195.349 320.94 196.95 320.94 197.937 319.942C198.924 318.945 198.924 317.328 197.937 316.331ZM197.86 307.096L196.967 306.193C196.473 305.694 195.673 305.694 195.18 306.193L184.329 317.157C183.836 317.655 183.836 318.464 184.329 318.962L185.223 319.865C185.716 320.364 186.517 320.364 187.01 319.865L197.86 308.901C198.354 308.403 198.354 307.594 197.86 307.096Z" class="path-2"/>
</g>
<circle cx="36.4835" cy="313.032" r="17.5121" class="circle-2"/>
<g clip-path="url(#clip1_13917_211177)">
<path d="M40.6183 313.172L36.1434 315.95L31.6655 313.172L36.1434 305.367L40.6183 313.172ZM36.1434 316.842L31.6655 314.064L36.1434 320.69L40.6212 314.064L36.1434 316.842Z" class="path-3"/>
</g>
<path d="M71.8327 313.106C71.8327 314.554 71.599 315.63 71.1315 316.333C70.6679 317.036 69.9572 317.387 68.9995 317.387C68.0722 317.387 67.3692 317.025 66.8903 316.299C66.4115 315.573 66.1721 314.509 66.1721 313.106C66.1721 311.636 66.4039 310.552 66.8675 309.857C67.335 309.158 68.0456 308.808 68.9995 308.808C69.9306 308.808 70.6356 309.173 71.1144 309.903C71.5933 310.632 71.8327 311.7 71.8327 313.106ZM67.5288 313.106C67.5288 314.243 67.6447 315.054 67.8765 315.54C68.1121 316.027 68.4865 316.27 68.9995 316.27C69.5126 316.27 69.8869 316.023 70.1225 315.529C70.362 315.035 70.4817 314.227 70.4817 313.106C70.4817 311.989 70.362 311.181 70.1225 310.684C69.8869 310.182 69.5126 309.931 68.9995 309.931C68.4865 309.931 68.1121 310.176 67.8765 310.667C67.6447 311.157 67.5288 311.97 67.5288 313.106ZM73.0982 316.561C73.0982 316.283 73.1704 316.071 73.3148 315.922C73.4593 315.774 73.6683 315.7 73.9419 315.7C74.2193 315.7 74.4303 315.778 74.5747 315.934C74.7191 316.086 74.7913 316.295 74.7913 316.561C74.7913 316.831 74.7172 317.045 74.569 317.205C74.4246 317.361 74.2155 317.439 73.9419 317.439C73.6683 317.439 73.4593 317.361 73.3148 317.205C73.1704 317.049 73.0982 316.834 73.0982 316.561ZM81.7175 313.106C81.7175 314.554 81.4837 315.63 81.0163 316.333C80.5526 317.036 79.842 317.387 78.8843 317.387C77.957 317.387 77.2539 317.025 76.7751 316.299C76.2962 315.573 76.0568 314.509 76.0568 313.106C76.0568 311.636 76.2886 310.552 76.7523 309.857C77.2197 309.158 77.9304 308.808 78.8843 308.808C79.8154 308.808 80.5203 309.173 80.9992 309.903C81.478 310.632 81.7175 311.7 81.7175 313.106ZM77.4135 313.106C77.4135 314.243 77.5295 315.054 77.7613 315.54C77.9969 316.027 78.3712 316.27 78.8843 316.27C79.3973 316.27 79.7717 316.023 80.0073 315.529C80.2467 315.035 80.3664 314.227 80.3664 313.106C80.3664 311.989 80.2467 311.181 80.0073 310.684C79.7717 310.182 79.3973 309.931 78.8843 309.931C78.3712 309.931 77.9969 310.176 77.7613 310.667C77.5295 311.157 77.4135 311.97 77.4135 313.106ZM86.6712 317.273H85.3316V311.892C85.3316 311.25 85.3468 310.741 85.3772 310.364C85.2898 310.456 85.1815 310.556 85.0523 310.667C84.9269 310.777 84.5012 311.126 83.7754 311.715L83.1027 310.866L85.5539 308.939H86.6712V317.273ZM89.4303 313.722C89.4303 310.461 90.7585 308.831 93.415 308.831C93.833 308.831 94.1865 308.863 94.4753 308.928V310.045C94.1865 309.962 93.852 309.92 93.472 309.92C92.5789 309.92 91.9081 310.159 91.4597 310.638C91.0113 311.117 90.768 311.885 90.73 312.941H90.7984C90.9771 312.633 91.2279 312.396 91.5509 312.228C91.8739 312.057 92.254 311.972 92.691 311.972C93.4473 311.972 94.0363 312.204 94.4582 312.667C94.88 313.131 95.0909 313.76 95.0909 314.554C95.0909 315.428 94.8458 316.12 94.3556 316.629C93.8691 317.135 93.2041 317.387 92.3604 317.387C91.7637 317.387 91.245 317.245 90.8041 316.96C90.3633 316.671 90.0232 316.253 89.7837 315.706C89.5481 315.155 89.4303 314.493 89.4303 313.722ZM92.3376 316.282C92.7974 316.282 93.1509 316.133 93.3979 315.837C93.6487 315.54 93.7741 315.117 93.7741 314.566C93.7741 314.087 93.6563 313.711 93.4207 313.437C93.1889 313.163 92.8392 313.027 92.3718 313.027C92.083 313.027 91.8169 313.089 91.5737 313.215C91.3305 313.336 91.1386 313.505 90.998 313.722C90.8573 313.935 90.787 314.153 90.787 314.378C90.787 314.913 90.9314 315.366 91.2203 315.734C91.5129 316.099 91.8853 316.282 92.3376 316.282ZM104.411 317.273H99.697V308.939H104.411V310.091H101.059V312.36H104.2V313.5H101.059V316.116H104.411V317.273ZM109.097 317.273H107.735V310.108H105.284V308.939H111.548V310.108H109.097V317.273ZM119.404 317.273H118.036V313.517H114.193V317.273H112.831V308.939H114.193V312.348H118.036V308.939H119.404V317.273Z" class="path-4"/>
<path d="M224.807 317.273H223.467V311.892C223.467 311.25 223.483 310.741 223.513 310.364C223.426 310.456 223.317 310.556 223.188 310.667C223.063 310.777 222.637 311.126 221.911 311.715L221.238 310.866L223.69 308.939H224.807V317.273ZM233.193 313.106C233.193 314.554 232.959 315.63 232.491 316.333C232.028 317.036 231.317 317.387 230.359 317.387C229.432 317.387 228.729 317.025 228.25 316.299C227.771 315.573 227.532 314.509 227.532 313.106C227.532 311.636 227.764 310.552 228.227 309.857C228.695 309.158 229.405 308.808 230.359 308.808C231.29 308.808 231.995 309.173 232.474 309.903C232.953 310.632 233.193 311.7 233.193 313.106ZM228.889 313.106C228.889 314.243 229.005 315.054 229.236 315.54C229.472 316.027 229.846 316.27 230.359 316.27C230.872 316.27 231.247 316.023 231.482 315.529C231.722 315.035 231.842 314.227 231.842 313.106C231.842 311.989 231.722 311.181 231.482 310.684C231.247 310.182 230.872 309.931 230.359 309.931C229.846 309.931 229.472 310.176 229.236 310.667C229.005 311.157 228.889 311.97 228.889 313.106ZM239.862 313.106C239.862 314.554 239.628 315.63 239.161 316.333C238.697 317.036 237.987 317.387 237.029 317.387C236.102 317.387 235.399 317.025 234.92 316.299C234.441 315.573 234.202 314.509 234.202 313.106C234.202 311.636 234.433 310.552 234.897 309.857C235.364 309.158 236.075 308.808 237.029 308.808C237.96 308.808 238.665 309.173 239.144 309.903C239.623 310.632 239.862 311.7 239.862 313.106ZM235.558 313.106C235.558 314.243 235.674 315.054 235.906 315.54C236.142 316.027 236.516 316.27 237.029 316.27C237.542 316.27 237.916 316.023 238.152 315.529C238.391 315.035 238.511 314.227 238.511 313.106C238.511 311.989 238.391 311.181 238.152 310.684C237.916 310.182 237.542 309.931 237.029 309.931C236.516 309.931 236.142 310.176 235.906 310.667C235.674 311.157 235.558 311.97 235.558 313.106ZM241.96 311.436C241.96 312.002 242.015 312.424 242.125 312.702C242.236 312.979 242.416 313.118 242.667 313.118C243.168 313.118 243.419 312.557 243.419 311.436C243.419 310.315 243.168 309.754 242.667 309.754C242.416 309.754 242.236 309.893 242.125 310.171C242.015 310.448 241.96 310.87 241.96 311.436ZM244.525 311.425C244.525 312.299 244.368 312.956 244.052 313.397C243.74 313.834 243.279 314.053 242.667 314.053C242.089 314.053 241.641 313.827 241.322 313.374C241.006 312.918 240.848 312.268 240.848 311.425C240.848 309.688 241.455 308.82 242.667 308.82C243.264 308.82 243.721 309.046 244.041 309.498C244.364 309.946 244.525 310.589 244.525 311.425ZM247.387 314.765C247.387 315.331 247.442 315.755 247.552 316.036C247.666 316.318 247.849 316.458 248.099 316.458C248.597 316.458 248.846 315.894 248.846 314.765C248.846 313.652 248.597 313.095 248.099 313.095C247.849 313.095 247.666 313.232 247.552 313.505C247.442 313.779 247.387 314.199 247.387 314.765ZM249.952 314.765C249.952 315.639 249.794 316.295 249.479 316.732C249.164 317.169 248.704 317.387 248.099 317.387C247.522 317.387 247.073 317.163 246.754 316.715C246.435 316.263 246.275 315.613 246.275 314.765C246.275 313.028 246.883 312.16 248.099 312.16C248.685 312.16 249.139 312.384 249.462 312.833C249.789 313.281 249.952 313.925 249.952 314.765ZM248.259 308.939L243.636 317.273H242.53L247.153 308.939H248.259ZM255.932 312.816H256.878C257.513 312.816 257.973 312.698 258.258 312.462C258.543 312.227 258.685 311.877 258.685 311.413C258.685 310.942 258.531 310.604 258.224 310.399C257.916 310.193 257.452 310.091 256.833 310.091H255.932V312.816ZM255.932 313.944V317.273H254.57V308.939H256.924C257.999 308.939 258.796 309.141 259.312 309.543C259.829 309.946 260.088 310.554 260.088 311.368C260.088 312.405 259.548 313.144 258.469 313.585L260.823 317.273H259.273L257.277 313.944H255.932ZM269.437 313.095C269.437 314.452 269.096 315.506 268.416 316.259C267.74 317.011 266.78 317.387 265.537 317.387C264.28 317.387 263.312 317.015 262.636 316.27C261.963 315.521 261.627 314.459 261.627 313.084C261.627 311.708 261.965 310.651 262.642 309.914C263.322 309.177 264.291 308.808 265.549 308.808C266.788 308.808 267.745 309.182 268.422 309.931C269.098 310.68 269.437 311.734 269.437 313.095ZM263.075 313.095C263.075 314.121 263.282 314.9 263.696 315.432C264.11 315.96 264.724 316.225 265.537 316.225C266.347 316.225 266.957 315.962 267.367 315.438C267.782 314.913 267.989 314.132 267.989 313.095C267.989 312.073 267.783 311.297 267.373 310.769C266.966 310.241 266.358 309.977 265.549 309.977C264.732 309.977 264.114 310.241 263.696 310.769C263.282 311.297 263.075 312.073 263.075 313.095ZM271.227 317.273V308.939H272.589V317.273H271.227Z" class="path-5"/>
<path d="M20.822 269.92V272.953H19.974V265.661H21.9742C22.8687 265.661 23.5288 265.832 23.9544 266.174C24.3834 266.517 24.5979 267.032 24.5979 267.721C24.5979 268.685 24.1091 269.337 23.1314 269.676L25.1116 272.953H24.1091L22.3433 269.92H20.822ZM20.822 269.192H21.9842C22.5827 269.192 23.0217 269.074 23.301 268.838C23.5803 268.599 23.72 268.241 23.72 267.766C23.72 267.283 23.577 266.936 23.291 266.723C23.0084 266.51 22.5528 266.404 21.9243 266.404H20.822V269.192ZM28.4735 273.053C27.6655 273.053 27.027 272.807 26.5582 272.315C26.0926 271.823 25.8598 271.139 25.8598 270.265C25.8598 269.383 26.076 268.683 26.5083 268.165C26.9439 267.646 27.5275 267.387 28.2591 267.387C28.9441 267.387 29.4861 267.613 29.8851 268.065C30.2842 268.514 30.4837 269.107 30.4837 269.846V270.369H26.7178C26.7344 271.011 26.8957 271.498 27.2016 271.831C27.5109 272.163 27.9448 272.33 28.5035 272.33C29.092 272.33 29.674 272.207 30.2493 271.961V272.699C29.9566 272.825 29.679 272.915 29.4163 272.968C29.1569 273.025 28.8426 273.053 28.4735 273.053ZM28.2491 268.08C27.8101 268.08 27.4593 268.223 27.1966 268.509C26.9372 268.795 26.7843 269.191 26.7377 269.696H29.5958C29.5958 269.174 29.4794 268.775 29.2467 268.499C29.0139 268.22 28.6814 268.08 28.2491 268.08ZM33.666 272.37C33.8123 272.37 33.9537 272.36 34.09 272.34C34.2263 272.316 34.3344 272.293 34.4142 272.27V272.903C34.3244 272.946 34.1914 272.981 34.0152 273.008C33.8423 273.038 33.686 273.053 33.5463 273.053C32.4889 273.053 31.9601 272.496 31.9601 271.382V268.13H31.177V267.731L31.9601 267.387L32.3093 266.219H32.7881V267.486H34.3743V268.13H32.7881V271.347C32.7881 271.676 32.8663 271.929 33.0226 272.105C33.1789 272.281 33.3934 272.37 33.666 272.37ZM36.2897 267.486V271.033C36.2897 271.478 36.3911 271.811 36.594 272.03C36.7968 272.25 37.1144 272.36 37.5467 272.36C38.1186 272.36 38.536 272.203 38.7987 271.891C39.0647 271.578 39.1977 271.068 39.1977 270.359V267.486H40.0257V272.953H39.3423L39.2226 272.22H39.1777C39.0082 272.489 38.7721 272.695 38.4695 272.838C38.1702 272.981 37.8277 273.053 37.4419 273.053C36.7769 273.053 36.2781 272.895 35.9455 272.579C35.6163 272.263 35.4517 271.758 35.4517 271.063V267.486H36.2897ZM44.2805 267.387C44.5232 267.387 44.741 267.406 44.9339 267.446L44.8192 268.215C44.593 268.165 44.3935 268.14 44.2206 268.14C43.7783 268.14 43.3992 268.319 43.0833 268.678C42.7708 269.038 42.6145 269.485 42.6145 270.02V272.953H41.7865V267.486H42.4698L42.5646 268.499H42.6045C42.8073 268.143 43.0517 267.869 43.3377 267.676C43.6237 267.483 43.9379 267.387 44.2805 267.387ZM49.6974 272.953V269.417C49.6974 268.971 49.596 268.639 49.3931 268.419C49.1903 268.2 48.8727 268.09 48.4404 268.09C47.8685 268.09 47.4495 268.244 47.1835 268.554C46.9174 268.863 46.7844 269.373 46.7844 270.085V272.953H45.9564V267.486H46.6298L46.7645 268.234H46.8044C46.974 267.965 47.2117 267.757 47.5177 267.611C47.8236 267.461 48.1644 267.387 48.5402 267.387C49.1986 267.387 49.6941 267.546 50.0266 267.865C50.3591 268.181 50.5254 268.688 50.5254 269.387V272.953H49.6974ZM59.6035 270.215C59.6035 271.106 59.3791 271.803 58.9301 272.305C58.4812 272.803 57.8611 273.053 57.0696 273.053C56.5808 273.053 56.1469 272.938 55.7678 272.709C55.3887 272.479 55.0961 272.15 54.8899 271.721C54.6837 271.292 54.5806 270.79 54.5806 270.215C54.5806 269.324 54.8034 268.63 55.249 268.135C55.6946 267.636 56.3131 267.387 57.1045 267.387C57.8694 267.387 58.4762 267.641 58.9252 268.15C59.3774 268.658 59.6035 269.347 59.6035 270.215ZM55.4386 270.215C55.4386 270.913 55.5782 271.445 55.8576 271.811C56.1369 272.177 56.5476 272.36 57.0896 272.36C57.6316 272.36 58.0423 272.178 58.3216 271.816C58.6043 271.45 58.7456 270.916 58.7456 270.215C58.7456 269.52 58.6043 268.993 58.3216 268.634C58.0423 268.271 57.6283 268.09 57.0796 268.09C56.5376 268.09 56.1286 268.268 55.8526 268.624C55.5766 268.979 55.4386 269.51 55.4386 270.215ZM63.5241 268.13H62.1324V272.953H61.3044V268.13H60.3268V267.756L61.3044 267.456V267.152C61.3044 265.809 61.8913 265.137 63.0652 265.137C63.3545 265.137 63.6937 265.195 64.0827 265.312L63.8683 265.975C63.549 265.872 63.2763 265.82 63.0502 265.82C62.7376 265.82 62.5065 265.925 62.3569 266.135C62.2073 266.341 62.1324 266.673 62.1324 267.132V267.486H63.5241V268.13Z" class="path-6"/>
<rect x="19.3363" y="206.134" width="293.327" height="32.1055" rx="1.82418" class="rect-1" stroke-width="0.72967"/>
<rect x="143.745" y="206.5" width="168.554" height="31.3758" rx="2.18901" class="rect-2"/>
<path d="M173.828 223.058C173.828 224.076 173.572 224.873 173.059 225.446C172.546 226.016 171.837 226.302 170.932 226.302C170.374 226.302 169.878 226.17 169.445 225.908C169.011 225.646 168.677 225.27 168.441 224.779C168.206 224.289 168.088 223.715 168.088 223.058C168.088 222.039 168.342 221.247 168.852 220.681C169.361 220.111 170.068 219.826 170.972 219.826C171.846 219.826 172.54 220.116 173.053 220.698C173.57 221.279 173.828 222.066 173.828 223.058ZM169.068 223.058C169.068 223.856 169.228 224.464 169.547 224.882C169.866 225.3 170.336 225.509 170.955 225.509C171.575 225.509 172.044 225.302 172.363 224.888C172.686 224.47 172.848 223.86 172.848 223.058C172.848 222.264 172.686 221.661 172.363 221.251C172.044 220.837 171.571 220.629 170.944 220.629C170.324 220.629 169.857 220.833 169.541 221.239C169.226 221.646 169.068 222.252 169.068 223.058ZM176.382 219.94V223.993C176.382 224.502 176.498 224.882 176.73 225.133C176.962 225.384 177.325 225.509 177.819 225.509C178.472 225.509 178.949 225.331 179.249 224.973C179.554 224.616 179.706 224.033 179.706 223.223V219.94H180.652V226.188H179.871L179.734 225.35H179.683C179.489 225.657 179.219 225.893 178.873 226.056C178.531 226.22 178.14 226.302 177.699 226.302C176.939 226.302 176.369 226.121 175.989 225.76C175.613 225.399 175.424 224.821 175.424 224.027V219.94H176.382ZM184.682 225.521C184.849 225.521 185.011 225.509 185.167 225.486C185.322 225.46 185.446 225.433 185.537 225.407V226.13C185.435 226.18 185.283 226.22 185.081 226.25C184.884 226.284 184.705 226.302 184.545 226.302C183.337 226.302 182.733 225.665 182.733 224.392V220.675H181.838V220.219L182.733 219.826L183.132 218.492H183.679V219.94H185.492V220.675H183.679V224.352C183.679 224.728 183.768 225.017 183.947 225.218C184.125 225.42 184.37 225.521 184.682 225.521ZM195.217 223.058C195.217 224.076 194.96 224.873 194.447 225.446C193.934 226.016 193.225 226.302 192.321 226.302C191.762 226.302 191.266 226.17 190.833 225.908C190.4 225.646 190.065 225.27 189.83 224.779C189.594 224.289 189.476 223.715 189.476 223.058C189.476 222.039 189.731 221.247 190.24 220.681C190.749 220.111 191.456 219.826 192.361 219.826C193.235 219.826 193.928 220.116 194.441 220.698C194.958 221.279 195.217 222.066 195.217 223.058ZM190.457 223.058C190.457 223.856 190.616 224.464 190.936 224.882C191.255 225.3 191.724 225.509 192.344 225.509C192.963 225.509 193.432 225.302 193.752 224.888C194.075 224.47 194.236 223.86 194.236 223.058C194.236 222.264 194.075 221.661 193.752 221.251C193.432 220.837 192.959 220.629 192.332 220.629C191.713 220.629 191.245 220.833 190.93 221.239C190.614 221.646 190.457 222.252 190.457 223.058ZM199.697 220.675H198.107V226.188H197.161V220.675H196.043V220.248L197.161 219.905V219.558C197.161 218.022 197.831 217.255 199.173 217.255C199.504 217.255 199.891 217.321 200.336 217.454L200.091 218.212C199.726 218.095 199.414 218.036 199.156 218.036C198.799 218.036 198.534 218.155 198.363 218.395C198.192 218.63 198.107 219.011 198.107 219.535V219.94H199.697V220.675ZM208.961 222.009C208.961 223.449 208.733 224.525 208.277 225.236C207.824 225.946 207.131 226.302 206.196 226.302C205.299 226.302 204.617 225.939 204.149 225.213C203.682 224.483 203.448 223.415 203.448 222.009C203.448 220.557 203.674 219.48 204.127 218.777C204.579 218.074 205.269 217.722 206.196 217.722C207.1 217.722 207.786 218.089 208.254 218.822C208.725 219.556 208.961 220.618 208.961 222.009ZM204.406 222.009C204.406 223.221 204.549 224.105 204.834 224.66C205.119 225.211 205.573 225.486 206.196 225.486C206.827 225.486 207.283 225.207 207.564 224.648C207.849 224.086 207.992 223.206 207.992 222.009C207.992 220.812 207.849 219.936 207.564 219.381C207.283 218.822 206.827 218.543 206.196 218.543C205.573 218.543 205.119 218.819 204.834 219.37C204.549 219.917 204.406 220.797 204.406 222.009ZM210.414 225.583C210.414 225.329 210.471 225.137 210.585 225.007C210.703 224.874 210.87 224.808 211.087 224.808C211.307 224.808 211.479 224.874 211.6 225.007C211.726 225.137 211.788 225.329 211.788 225.583C211.788 225.83 211.726 226.02 211.6 226.153C211.475 226.286 211.304 226.353 211.087 226.353C210.893 226.353 210.732 226.294 210.603 226.176C210.477 226.054 210.414 225.857 210.414 225.583ZM218.754 222.009C218.754 223.449 218.526 224.525 218.07 225.236C217.618 225.946 216.924 226.302 215.99 226.302C215.093 226.302 214.41 225.939 213.943 225.213C213.476 224.483 213.242 223.415 213.242 222.009C213.242 220.557 213.468 219.48 213.92 218.777C214.372 218.074 215.062 217.722 215.99 217.722C216.894 217.722 217.58 218.089 218.047 218.822C218.519 219.556 218.754 220.618 218.754 222.009ZM214.2 222.009C214.2 223.221 214.342 224.105 214.627 224.66C214.912 225.211 215.366 225.486 215.99 225.486C216.62 225.486 217.076 225.207 217.358 224.648C217.643 224.086 217.785 223.206 217.785 222.009C217.785 220.812 217.643 219.936 217.358 219.381C217.076 218.822 216.62 218.543 215.99 218.543C215.366 218.543 214.912 218.819 214.627 219.37C214.342 219.917 214.2 220.797 214.2 222.009ZM223.417 226.188H222.494V220.248C222.494 219.753 222.509 219.286 222.539 218.845C222.46 218.925 222.37 219.009 222.272 219.096C222.173 219.183 221.72 219.554 220.915 220.208L220.413 219.558L222.619 217.853H223.417V226.188ZM234.847 226.188H230.201V217.853H234.847V218.714H231.17V221.399H234.625V222.254H231.17V225.321H234.847V226.188ZM239.265 226.188H238.296V218.714H235.656V217.853H241.904V218.714H239.265V226.188ZM249.492 226.188H248.523V222.266H244.133V226.188H243.164V217.853H244.133V221.399H248.523V217.853H249.492V226.188ZM257.524 219.826C257.801 219.826 258.05 219.848 258.271 219.894L258.139 220.772C257.881 220.715 257.653 220.686 257.455 220.686C256.95 220.686 256.517 220.892 256.156 221.302C255.798 221.713 255.62 222.224 255.62 222.836V226.188H254.673V219.94H255.454L255.563 221.097H255.608C255.84 220.69 256.12 220.377 256.446 220.156C256.773 219.936 257.132 219.826 257.524 219.826ZM262.078 226.302C261.155 226.302 260.425 226.02 259.889 225.458C259.357 224.895 259.091 224.114 259.091 223.115C259.091 222.108 259.338 221.308 259.832 220.715C260.33 220.122 260.997 219.826 261.833 219.826C262.616 219.826 263.236 220.084 263.692 220.601C264.148 221.114 264.376 221.792 264.376 222.636V223.235H260.072C260.091 223.968 260.275 224.525 260.625 224.905C260.978 225.285 261.474 225.475 262.113 225.475C262.785 225.475 263.45 225.334 264.108 225.053V225.897C263.773 226.041 263.456 226.144 263.156 226.205C262.859 226.269 262.5 226.302 262.078 226.302ZM261.822 220.618C261.32 220.618 260.919 220.781 260.619 221.108C260.323 221.435 260.148 221.887 260.095 222.465H263.361C263.361 221.868 263.228 221.412 262.962 221.097C262.696 220.778 262.316 220.618 261.822 220.618ZM268.355 225.509C268.986 225.509 269.445 225.34 269.734 225.002C270.023 224.664 270.177 224.093 270.196 223.292V223.081C270.196 222.207 270.048 221.578 269.751 221.194C269.455 220.81 268.986 220.618 268.343 220.618C267.789 220.618 267.363 220.835 267.066 221.268C266.774 221.697 266.628 222.305 266.628 223.092C266.628 223.879 266.772 224.479 267.061 224.893C267.353 225.304 267.785 225.509 268.355 225.509ZM268.212 226.302C267.407 226.302 266.778 226.018 266.325 225.452C265.873 224.886 265.647 224.095 265.647 223.081C265.647 222.058 265.875 221.26 266.331 220.686C266.787 220.113 267.422 219.826 268.235 219.826C269.09 219.826 269.748 220.149 270.207 220.795H270.259L270.396 219.94H271.142V228.992H270.196V226.319C270.196 225.939 270.217 225.616 270.259 225.35H270.185C269.748 225.984 269.09 226.302 268.212 226.302ZM274.044 219.94V223.993C274.044 224.502 274.16 224.882 274.392 225.133C274.623 225.384 274.986 225.509 275.48 225.509C276.134 225.509 276.611 225.331 276.911 224.973C277.215 224.616 277.367 224.033 277.367 223.223V219.94H278.314V226.188H277.533L277.396 225.35H277.345C277.151 225.657 276.881 225.893 276.535 226.056C276.193 226.22 275.802 226.302 275.361 226.302C274.601 226.302 274.031 226.121 273.651 225.76C273.274 225.399 273.086 224.821 273.086 224.027V219.94H274.044ZM281.272 226.188H280.326V219.94H281.272V226.188ZM280.246 218.247C280.246 218.03 280.299 217.872 280.406 217.773C280.512 217.671 280.645 217.62 280.805 217.62C280.957 217.62 281.088 217.671 281.198 217.773C281.308 217.876 281.363 218.034 281.363 218.247C281.363 218.459 281.308 218.619 281.198 218.725C281.088 218.828 280.957 218.879 280.805 218.879C280.645 218.879 280.512 218.828 280.406 218.725C280.299 218.619 280.246 218.459 280.246 218.247ZM286.129 219.826C286.407 219.826 286.655 219.848 286.876 219.894L286.745 220.772C286.486 220.715 286.258 220.686 286.061 220.686C285.555 220.686 285.122 220.892 284.761 221.302C284.404 221.713 284.225 222.224 284.225 222.836V226.188H283.279V219.94H284.06L284.168 221.097H284.214C284.446 220.69 284.725 220.377 285.052 220.156C285.379 219.936 285.738 219.826 286.129 219.826ZM290.684 226.302C289.76 226.302 289.031 226.02 288.495 225.458C287.963 224.895 287.697 224.114 287.697 223.115C287.697 222.108 287.944 221.308 288.438 220.715C288.936 220.122 289.603 219.826 290.439 219.826C291.222 219.826 291.841 220.084 292.297 220.601C292.753 221.114 292.981 221.792 292.981 222.636V223.235H288.677C288.696 223.968 288.881 224.525 289.23 224.905C289.584 225.285 290.08 225.475 290.718 225.475C291.391 225.475 292.056 225.334 292.713 225.053V225.897C292.379 226.041 292.061 226.144 291.761 226.205C291.465 226.269 291.106 226.302 290.684 226.302ZM290.427 220.618C289.926 220.618 289.525 220.781 289.225 221.108C288.928 221.435 288.753 221.887 288.7 222.465H291.966C291.966 221.868 291.833 221.412 291.567 221.097C291.301 220.778 290.921 220.618 290.427 220.618ZM298.853 225.35H298.801C298.364 225.984 297.711 226.302 296.84 226.302C296.023 226.302 295.387 226.022 294.931 225.464C294.479 224.905 294.252 224.111 294.252 223.081C294.252 222.051 294.48 221.251 294.936 220.681C295.392 220.111 296.027 219.826 296.84 219.826C297.688 219.826 298.338 220.134 298.79 220.749H298.864L298.824 220.299L298.801 219.86V217.317H299.748V226.188H298.978L298.853 225.35ZM296.96 225.509C297.606 225.509 298.074 225.334 298.362 224.985C298.655 224.631 298.801 224.063 298.801 223.28V223.081C298.801 222.195 298.653 221.564 298.357 221.188C298.064 220.808 297.595 220.618 296.949 220.618C296.394 220.618 295.968 220.835 295.672 221.268C295.379 221.697 295.233 222.305 295.233 223.092C295.233 223.89 295.379 224.493 295.672 224.899C295.964 225.306 296.394 225.509 296.96 225.509Z" class="path-7"/>
<path d="M36.7401 221.884C36.7401 223.324 36.5121 224.4 36.0561 225.111C35.6038 225.821 34.9103 226.177 33.9754 226.177C33.0785 226.177 32.3963 225.814 31.9289 225.088C31.4614 224.358 31.2277 223.29 31.2277 221.884C31.2277 220.432 31.4538 219.355 31.9061 218.652C32.3583 217.949 33.0481 217.597 33.9754 217.597C34.8798 217.597 35.5658 217.964 36.0333 218.697C36.5045 219.431 36.7401 220.493 36.7401 221.884ZM32.1854 221.884C32.1854 223.096 32.3279 223.98 32.6129 224.535C32.898 225.086 33.3521 225.361 33.9754 225.361C34.6062 225.361 35.0623 225.082 35.3435 224.523C35.6285 223.961 35.771 223.081 35.771 221.884C35.771 220.687 35.6285 219.811 35.3435 219.256C35.0623 218.697 34.6062 218.418 33.9754 218.418C33.3521 218.418 32.898 218.694 32.6129 219.245C32.3279 219.792 32.1854 220.672 32.1854 221.884ZM38.1938 225.458C38.1938 225.204 38.2508 225.012 38.3648 224.882C38.4826 224.749 38.6498 224.683 38.8664 224.683C39.0869 224.683 39.2579 224.749 39.3795 224.882C39.5049 225.012 39.5676 225.204 39.5676 225.458C39.5676 225.705 39.5049 225.895 39.3795 226.028C39.2541 226.161 39.0831 226.228 38.8664 226.228C38.6726 226.228 38.5111 226.169 38.3819 226.051C38.2565 225.929 38.1938 225.732 38.1938 225.458ZM46.5337 221.884C46.5337 223.324 46.3056 224.4 45.8496 225.111C45.3974 225.821 44.7038 226.177 43.7689 226.177C42.872 226.177 42.1899 225.814 41.7224 225.088C41.255 224.358 41.0212 223.29 41.0212 221.884C41.0212 220.432 41.2474 219.355 41.6996 218.652C42.1518 217.949 42.8416 217.597 43.7689 217.597C44.6734 217.597 45.3594 217.964 45.8268 218.697C46.298 219.431 46.5337 220.493 46.5337 221.884ZM41.9789 221.884C41.9789 223.096 42.1214 223.98 42.4065 224.535C42.6915 225.086 43.1456 225.361 43.7689 225.361C44.3998 225.361 44.8558 225.082 45.137 224.523C45.4221 223.961 45.5646 223.081 45.5646 221.884C45.5646 220.687 45.4221 219.811 45.137 219.256C44.8558 218.697 44.3998 218.418 43.7689 218.418C43.1456 218.418 42.6915 218.694 42.4065 219.245C42.1214 219.792 41.9789 220.672 41.9789 221.884ZM53.2147 221.884C53.2147 223.324 52.9867 224.4 52.5307 225.111C52.0784 225.821 51.3848 226.177 50.4499 226.177C49.5531 226.177 48.8709 225.814 48.4035 225.088C47.936 224.358 47.7023 223.29 47.7023 221.884C47.7023 220.432 47.9284 219.355 48.3807 218.652C48.8329 217.949 49.5227 217.597 50.4499 217.597C51.3544 217.597 52.0404 217.964 52.5078 218.697C52.9791 219.431 53.2147 220.493 53.2147 221.884ZM48.66 221.884C48.66 223.096 48.8025 223.98 49.0875 224.535C49.3725 225.086 49.8267 225.361 50.4499 225.361C51.0808 225.361 51.5369 225.082 51.8181 224.523C52.1031 223.961 52.2456 223.081 52.2456 221.884C52.2456 220.687 52.1031 219.811 51.8181 219.256C51.5369 218.697 51.0808 218.418 50.4499 218.418C49.8267 218.418 49.3725 218.694 49.0875 219.245C48.8025 219.792 48.66 220.672 48.66 221.884ZM57.131 217.609C57.8911 217.609 58.4934 217.785 58.9381 218.139C59.3827 218.492 59.605 218.981 59.605 219.604C59.605 220.014 59.4777 220.389 59.2231 220.727C58.9685 221.065 58.5618 221.373 58.0032 221.65C58.6796 221.973 59.1604 222.313 59.4454 222.671C59.7304 223.024 59.873 223.435 59.873 223.902C59.873 224.594 59.6316 225.147 59.149 225.561C58.6663 225.971 58.0051 226.177 57.1652 226.177C56.2759 226.177 55.5918 225.983 55.113 225.595C54.6342 225.204 54.3947 224.651 54.3947 223.936C54.3947 222.982 54.9762 222.239 56.1391 221.707C55.6146 221.411 55.2384 221.092 55.0104 220.75C54.7824 220.404 54.6684 220.018 54.6684 219.592C54.6684 218.988 54.8907 218.507 55.3353 218.15C55.7838 217.789 56.3823 217.609 57.131 217.609ZM55.3296 223.959C55.3296 224.415 55.4873 224.77 55.8028 225.025C56.122 225.28 56.5685 225.407 57.1424 225.407C57.7086 225.407 58.1495 225.274 58.4649 225.008C58.7804 224.742 58.9381 224.377 58.9381 223.913C58.9381 223.545 58.7899 223.218 58.4934 222.933C58.197 222.644 57.6801 222.365 56.9429 222.095C56.3766 222.338 55.9662 222.608 55.7116 222.904C55.4569 223.197 55.3296 223.549 55.3296 223.959ZM57.1196 218.378C56.6445 218.378 56.2721 218.492 56.0023 218.72C55.7325 218.948 55.5975 219.252 55.5975 219.632C55.5975 219.982 55.7097 220.282 55.9339 220.533C56.1581 220.784 56.5723 221.035 57.1766 221.285C57.72 221.057 58.1039 220.812 58.3281 220.55C58.5561 220.288 58.6701 219.982 58.6701 219.632C58.6701 219.248 58.5314 218.944 58.254 218.72C57.9804 218.492 57.6022 218.378 57.1196 218.378ZM69.3074 226.062H64.6614V217.728H69.3074V218.589H65.6305V221.274H69.085V222.129H65.6305V225.196H69.3074V226.062ZM73.7253 226.062H72.7562V218.589H70.1168V217.728H76.3646V218.589H73.7253V226.062ZM83.9521 226.062H82.983V222.141H78.5936V226.062H77.6245V217.728H78.5936V221.274H82.983V217.728H83.9521V226.062Z" class="path-8"/>
<path d="M24.558 194.148L23.6502 191.829H20.7272L19.8294 194.148H18.9714L21.8545 186.826H22.5678L25.4359 194.148H24.558ZM23.3858 191.066L22.5378 188.806C22.4281 188.52 22.315 188.17 22.1987 187.754C22.1255 188.073 22.0208 188.424 21.8844 188.806L21.0265 191.066H23.3858ZM33.282 194.148V190.592C33.282 190.156 33.1888 189.831 33.0026 189.614C32.8164 189.395 32.5271 189.285 32.1347 189.285C31.6193 189.285 31.2385 189.433 30.9925 189.729C30.7464 190.025 30.6234 190.481 30.6234 191.096V194.148H29.7954V190.592C29.7954 190.156 29.7022 189.831 29.516 189.614C29.3298 189.395 29.0388 189.285 28.6431 189.285C28.1244 189.285 27.7436 189.441 27.5009 189.754C27.2615 190.063 27.1417 190.572 27.1417 191.28V194.148H26.3137V188.682H26.9871L27.1218 189.43H27.1617C27.318 189.164 27.5375 188.956 27.8201 188.806C28.1061 188.657 28.4253 188.582 28.7778 188.582C29.6324 188.582 30.1911 188.891 30.4538 189.51H30.4937C30.6566 189.224 30.8927 188.998 31.202 188.831C31.5112 188.665 31.8637 188.582 32.2594 188.582C32.8779 188.582 33.3401 188.741 33.6461 189.061C33.9553 189.377 34.11 189.884 34.11 190.582V194.148H33.282ZM40.5395 191.41C40.5395 192.301 40.315 192.998 39.8661 193.5C39.4172 193.999 38.797 194.248 38.0056 194.248C37.5167 194.248 37.0828 194.133 36.7037 193.904C36.3246 193.675 36.032 193.345 35.8258 192.916C35.6197 192.487 35.5166 191.985 35.5166 191.41C35.5166 190.519 35.7394 189.826 36.185 189.33C36.6306 188.831 37.2491 188.582 38.0405 188.582C38.8053 188.582 39.4122 188.836 39.8611 189.345C40.3133 189.854 40.5395 190.542 40.5395 191.41ZM36.3745 191.41C36.3745 192.108 36.5142 192.64 36.7935 193.006C37.0728 193.372 37.4835 193.555 38.0255 193.555C38.5675 193.555 38.9782 193.374 39.2576 193.011C39.5402 192.645 39.6815 192.112 39.6815 191.41C39.6815 190.715 39.5402 190.188 39.2576 189.829C38.9782 189.466 38.5642 189.285 38.0155 189.285C37.4735 189.285 37.0645 189.463 36.7885 189.819C36.5125 190.175 36.3745 190.705 36.3745 191.41ZM42.7741 188.682V192.228C42.7741 192.674 42.8755 193.006 43.0783 193.226C43.2812 193.445 43.5988 193.555 44.0311 193.555C44.603 193.555 45.0203 193.399 45.283 193.086C45.5491 192.773 45.6821 192.263 45.6821 191.555V188.682H46.5101V194.148H45.8267L45.707 193.415H45.6621C45.4925 193.685 45.2564 193.891 44.9538 194.034C44.6545 194.177 44.312 194.248 43.9263 194.248C43.2612 194.248 42.7624 194.09 42.4299 193.774C42.1007 193.458 41.9361 192.953 41.9361 192.258V188.682H42.7741ZM52.0118 194.148V190.612C52.0118 190.166 51.9104 189.834 51.7076 189.614C51.5047 189.395 51.1871 189.285 50.7548 189.285C50.1829 189.285 49.7639 189.44 49.4979 189.749C49.2319 190.058 49.0988 190.569 49.0988 191.28V194.148H48.2708V188.682H48.9442L49.0789 189.43H49.1188C49.2884 189.16 49.5261 188.953 49.8321 188.806C50.138 188.657 50.4788 188.582 50.8546 188.582C51.513 188.582 52.0085 188.741 52.341 189.061C52.6736 189.377 52.8398 189.884 52.8398 190.582V194.148H52.0118ZM56.3115 193.565C56.4578 193.565 56.5991 193.555 56.7354 193.535C56.8718 193.512 56.9799 193.488 57.0597 193.465V194.099C56.9699 194.142 56.8369 194.177 56.6606 194.203C56.4877 194.233 56.3314 194.248 56.1917 194.248C55.1343 194.248 54.6056 193.691 54.6056 192.577V189.325H53.8225V188.926L54.6056 188.582L54.9547 187.415H55.4336V188.682H57.0198V189.325H55.4336V192.542C55.4336 192.872 55.5117 193.124 55.668 193.3C55.8243 193.477 56.0388 193.565 56.3115 193.565ZM63.2747 189.325H61.883V194.148H61.055V189.325H60.0774V188.951L61.055 188.652V188.347C61.055 187.004 61.642 186.332 62.8158 186.332C63.1051 186.332 63.4443 186.39 63.8333 186.507L63.6189 187.17C63.2996 187.067 63.0269 187.016 62.8008 187.016C62.4882 187.016 62.2571 187.12 62.1075 187.33C61.9579 187.536 61.883 187.869 61.883 188.327V188.682H63.2747V189.325ZM65.0504 188.682V192.228C65.0504 192.674 65.1518 193.006 65.3547 193.226C65.5575 193.445 65.8751 193.555 66.3074 193.555C66.8793 193.555 67.2967 193.399 67.5594 193.086C67.8254 192.773 67.9584 192.263 67.9584 191.555V188.682H68.7864V194.148H68.103L67.9833 193.415H67.9384C67.7689 193.685 67.5328 193.891 67.2302 194.034C66.9309 194.177 66.5884 194.248 66.2026 194.248C65.5376 194.248 65.0388 194.09 64.7062 193.774C64.377 193.458 64.2124 192.953 64.2124 192.258V188.682H65.0504ZM74.2881 194.148V190.612C74.2881 190.166 74.1867 189.834 73.9839 189.614C73.781 189.395 73.4635 189.285 73.0312 189.285C72.4592 189.285 72.0402 189.44 71.7742 189.749C71.5082 190.058 71.3752 190.569 71.3752 191.28V194.148H70.5472V188.682H71.2205L71.3552 189.43H71.3951C71.5647 189.16 71.8025 188.953 72.1084 188.806C72.4143 188.657 72.7552 188.582 73.1309 188.582C73.7893 188.582 74.2848 188.741 74.6174 189.061C74.9499 189.377 75.1161 189.884 75.1161 190.582V194.148H74.2881ZM80.5431 193.415H80.4982C80.1158 193.971 79.5438 194.248 78.7823 194.248C78.0674 194.248 77.5104 194.004 77.1113 193.515C76.7156 193.026 76.5178 192.331 76.5178 191.43C76.5178 190.529 76.7173 189.829 77.1163 189.33C77.5154 188.831 78.0707 188.582 78.7823 188.582C79.5239 188.582 80.0925 188.851 80.4882 189.39H80.553L80.5181 188.996L80.4982 188.612V186.387H81.3262V194.148H80.6528L80.5431 193.415ZM78.8871 193.555C79.4524 193.555 79.8614 193.402 80.1141 193.096C80.3702 192.787 80.4982 192.29 80.4982 191.605V191.43C80.4982 190.655 80.3685 190.103 80.1091 189.774C79.8531 189.441 79.4424 189.275 78.8771 189.275C78.3916 189.275 78.0192 189.465 77.7598 189.844C77.5037 190.22 77.3757 190.752 77.3757 191.44C77.3757 192.138 77.5037 192.665 77.7598 193.021C78.0158 193.377 78.3916 193.555 78.8871 193.555ZM85.3964 194.248C84.5883 194.248 83.9499 194.002 83.481 193.51C83.0154 193.018 82.7827 192.334 82.7827 191.46C82.7827 190.579 82.9988 189.879 83.4311 189.36C83.8667 188.841 84.4503 188.582 85.1819 188.582C85.8669 188.582 86.4089 188.808 86.808 189.26C87.207 189.709 87.4065 190.303 87.4065 191.041V191.565H83.6406C83.6572 192.206 83.8185 192.694 84.1244 193.026C84.4337 193.359 84.8677 193.525 85.4263 193.525C86.0149 193.525 86.5968 193.402 87.1721 193.156V193.894C86.8795 194.02 86.6018 194.11 86.3391 194.163C86.0797 194.22 85.7655 194.248 85.3964 194.248ZM85.1719 189.275C84.733 189.275 84.3822 189.418 84.1195 189.704C83.8601 189.99 83.7071 190.386 83.6606 190.891H86.5187C86.5187 190.369 86.4023 189.97 86.1695 189.694C85.9367 189.415 85.6042 189.275 85.1719 189.275ZM92.5442 193.415H92.4993C92.1169 193.971 91.5449 194.248 90.7834 194.248C90.0685 194.248 89.5115 194.004 89.1124 193.515C88.7167 193.026 88.5189 192.331 88.5189 191.43C88.5189 190.529 88.7184 189.829 89.1174 189.33C89.5165 188.831 90.0718 188.582 90.7834 188.582C91.5249 188.582 92.0936 188.851 92.4893 189.39H92.5541L92.5192 188.996L92.4993 188.612V186.387H93.3273V194.148H92.6539L92.5442 193.415ZM90.8881 193.555C91.4534 193.555 91.8625 193.402 92.1152 193.096C92.3712 192.787 92.4993 192.29 92.4993 191.605V191.43C92.4993 190.655 92.3696 190.103 92.1102 189.774C91.8542 189.441 91.4435 189.275 90.8782 189.275C90.3927 189.275 90.0202 189.465 89.7609 189.844C89.5048 190.22 89.3768 190.752 89.3768 191.44C89.3768 192.138 89.5048 192.665 89.7609 193.021C90.0169 193.377 90.3927 193.555 90.8881 193.555Z" class="path-9"/>
<line x1="18.9714" y1="158.702" x2="313.029" y2="158.702" stroke-width="0.72967" class="line-1"/>
<path d="M48.1118 114.635C48.1118 115.396 47.8624 115.98 47.3636 116.386C46.8649 116.791 46.1549 116.994 45.2338 116.994H44.4756V119.723H43.2835V112.43H45.3834C46.2946 112.43 46.9762 112.616 47.4285 112.989C47.8841 113.361 48.1118 113.91 48.1118 114.635ZM44.4756 115.992H45.1091C45.7209 115.992 46.1699 115.885 46.4558 115.672C46.7418 115.46 46.8848 115.127 46.8848 114.675C46.8848 114.256 46.7568 113.943 46.5007 113.737C46.2447 113.531 45.8456 113.428 45.3036 113.428H44.4756V115.992ZM52.8953 119.723L52.6609 118.955H52.621C52.355 119.29 52.0873 119.52 51.8179 119.643C51.5486 119.763 51.2027 119.822 50.7804 119.822C50.2384 119.822 49.8144 119.676 49.5085 119.383C49.2059 119.091 49.0546 118.677 49.0546 118.141C49.0546 117.573 49.2657 117.144 49.688 116.855C50.1104 116.565 50.7538 116.407 51.6184 116.381L52.5711 116.351V116.056C52.5711 115.704 52.488 115.441 52.3217 115.268C52.1588 115.092 51.9044 115.004 51.5585 115.004C51.2759 115.004 51.0049 115.046 50.7455 115.129C50.4861 115.212 50.2367 115.31 49.9973 115.423L49.6182 114.585C49.9175 114.429 50.245 114.311 50.6008 114.231C50.9567 114.148 51.2925 114.106 51.6084 114.106C52.3101 114.106 52.8388 114.259 53.1946 114.565C53.5537 114.871 53.7333 115.352 53.7333 116.007V119.723H52.8953ZM51.1495 118.925C51.5752 118.925 51.916 118.807 52.1721 118.57C52.4314 118.331 52.5611 117.997 52.5611 117.568V117.089L51.8528 117.119C51.3008 117.139 50.8985 117.232 50.6457 117.398C50.3963 117.561 50.2716 117.812 50.2716 118.151C50.2716 118.398 50.3448 118.589 50.4911 118.725C50.6374 118.858 50.8569 118.925 51.1495 118.925ZM54.5314 114.206H55.8083L56.9306 117.333C57.1002 117.779 57.2132 118.198 57.2698 118.59H57.3097C57.3396 118.407 57.3945 118.186 57.4743 117.927C57.5541 117.664 57.9764 116.424 58.7412 114.206H60.0082L57.6489 120.456C57.2199 121.603 56.505 122.177 55.504 122.177C55.2447 122.177 54.9919 122.148 54.7459 122.092V121.164C54.9221 121.204 55.1233 121.224 55.3494 121.224C55.9147 121.224 56.3121 120.896 56.5415 120.241L56.746 119.723L54.5314 114.206ZM68.0538 119.723H63.1107V118.835L64.9912 116.944C65.5465 116.376 65.914 115.973 66.0935 115.737C66.2764 115.498 66.4094 115.273 66.4926 115.064C66.5757 114.854 66.6173 114.63 66.6173 114.391C66.6173 114.061 66.5175 113.802 66.318 113.612C66.1218 113.423 65.8491 113.328 65.4999 113.328C65.2206 113.328 64.9496 113.38 64.6869 113.483C64.4275 113.586 64.1266 113.772 63.7841 114.041L63.1506 113.268C63.5563 112.926 63.9503 112.683 64.3328 112.54C64.7152 112.397 65.1225 112.325 65.5548 112.325C66.2332 112.325 66.7769 112.503 67.1859 112.859C67.5949 113.212 67.7994 113.687 67.7994 114.286C67.7994 114.615 67.7396 114.928 67.6198 115.223C67.5035 115.519 67.3222 115.825 67.0761 116.141C66.8334 116.454 66.4277 116.878 65.8591 117.413L64.5921 118.64V118.69H68.0538V119.723ZM73.6154 114.106C73.6154 114.568 73.4807 114.954 73.2114 115.263C72.942 115.569 72.5629 115.776 72.0741 115.882V115.922C72.6594 115.995 73.0983 116.178 73.3909 116.47C73.6836 116.76 73.8299 117.146 73.8299 117.628C73.8299 118.329 73.5821 118.871 73.0867 119.254C72.5912 119.633 71.8862 119.822 70.9718 119.822C70.1637 119.822 69.482 119.691 68.9267 119.428V118.386C69.2359 118.539 69.5635 118.657 69.9093 118.74C70.2552 118.823 70.5877 118.865 70.9069 118.865C71.4722 118.865 71.8945 118.76 72.1739 118.55C72.4532 118.341 72.5929 118.017 72.5929 117.578C72.5929 117.189 72.4382 116.903 72.129 116.72C71.8197 116.537 71.3342 116.446 70.6725 116.446H70.039V115.493H70.6825C71.8463 115.493 72.4283 115.09 72.4283 114.286C72.4283 113.973 72.3268 113.732 72.124 113.563C71.9211 113.393 71.6219 113.308 71.2261 113.308C70.9501 113.308 70.6841 113.348 70.4281 113.428C70.172 113.504 69.8694 113.656 69.5203 113.882L68.9466 113.064C69.615 112.572 70.3915 112.325 71.276 112.325C72.0109 112.325 72.5845 112.483 72.9969 112.799C73.4092 113.115 73.6154 113.551 73.6154 114.106ZM79.7257 116.076C79.7257 117.343 79.5212 118.284 79.1121 118.9C78.7065 119.515 78.0846 119.822 77.2466 119.822C76.4353 119.822 75.8201 119.505 75.4011 118.87C74.9821 118.235 74.7726 117.303 74.7726 116.076C74.7726 114.79 74.9754 113.842 75.3811 113.233C75.7902 112.621 76.412 112.316 77.2466 112.316C78.0613 112.316 78.6782 112.635 79.0972 113.273C79.5162 113.912 79.7257 114.846 79.7257 116.076ZM75.9597 116.076C75.9597 117.071 76.0612 117.781 76.264 118.206C76.4702 118.632 76.7977 118.845 77.2466 118.845C77.6956 118.845 78.0231 118.629 78.2293 118.196C78.4388 117.764 78.5435 117.057 78.5435 116.076C78.5435 115.099 78.4388 114.392 78.2293 113.957C78.0231 113.518 77.6956 113.298 77.2466 113.298C76.7977 113.298 76.4702 113.513 76.264 113.942C76.0612 114.371 75.9597 115.082 75.9597 116.076ZM89.7166 116.007C89.7166 117.21 89.3824 118.131 88.714 118.77C88.0456 119.405 87.0829 119.723 85.826 119.723H83.7859V112.43H86.0405C87.201 112.43 88.1038 112.743 88.7489 113.368C89.394 113.993 89.7166 114.873 89.7166 116.007ZM88.4596 116.047C88.4596 114.301 87.6433 113.428 86.0105 113.428H84.978V118.72H85.826C87.5817 118.72 88.4596 117.829 88.4596 116.047ZM95.8119 119.723L95.0837 117.698H92.2954L91.5821 119.723H90.3251L93.0536 112.4H94.3504L97.0789 119.723H95.8119ZM94.7694 116.67L94.0861 114.685C94.0362 114.552 93.9664 114.342 93.8766 114.056C93.7901 113.77 93.7303 113.561 93.697 113.428C93.6072 113.837 93.4759 114.284 93.303 114.77L92.6445 116.67H94.7694ZM98.0415 119.723V112.43H99.2337V119.723H98.0415Z" class="path-10"/>
<rect x="18.9714" y="107.266" width="17.5121" height="17.5121" rx="2.18901" class="rect-3"/>
<path d="M33.1392 111.645H31.8477C31.5668 111.645 31.2997 111.779 31.1345 112.011L26.8058 118.014L24.8452 115.293C24.68 115.065 24.4156 114.927 24.132 114.927H22.8405C22.6615 114.927 22.5569 115.131 22.6615 115.277L26.0926 120.035C26.1736 120.148 26.2805 120.24 26.4043 120.304C26.5281 120.367 26.6652 120.401 26.8044 120.401C26.9436 120.401 27.0807 120.367 27.2045 120.304C27.3283 120.24 27.4352 120.148 27.5162 120.035L33.3154 111.994C33.4228 111.848 33.3182 111.645 33.1392 111.645Z" class="path-11"/>
<path d="M147.347 114.635C147.347 115.396 147.098 115.98 146.599 116.386C146.1 116.791 145.39 116.994 144.469 116.994H143.711V119.723H142.519V112.43H144.619C145.53 112.43 146.211 112.616 146.664 112.989C147.119 113.361 147.347 113.91 147.347 114.635ZM143.711 115.992H144.344C144.956 115.992 145.405 115.885 145.691 115.672C145.977 115.46 146.12 115.127 146.12 114.675C146.12 114.256 145.992 113.943 145.736 113.737C145.48 113.531 145.081 113.428 144.539 113.428H143.711V115.992ZM152.13 119.723L151.896 118.955H151.856C151.59 119.29 151.322 119.52 151.053 119.643C150.784 119.763 150.438 119.822 150.016 119.822C149.473 119.822 149.05 119.676 148.744 119.383C148.441 119.091 148.29 118.677 148.29 118.141C148.29 117.573 148.501 117.144 148.923 116.855C149.345 116.565 149.989 116.407 150.854 116.381L151.806 116.351V116.056C151.806 115.704 151.723 115.441 151.557 115.268C151.394 115.092 151.139 115.004 150.794 115.004C150.511 115.004 150.24 115.046 149.981 115.129C149.721 115.212 149.472 115.31 149.232 115.423L148.853 114.585C149.153 114.429 149.48 114.311 149.836 114.231C150.192 114.148 150.528 114.106 150.844 114.106C151.545 114.106 152.074 114.259 152.43 114.565C152.789 114.871 152.968 115.352 152.968 116.007V119.723H152.13ZM150.385 118.925C150.81 118.925 151.151 118.807 151.407 118.57C151.667 118.331 151.796 117.997 151.796 117.568V117.089L151.088 117.119C150.536 117.139 150.134 117.232 149.881 117.398C149.631 117.561 149.507 117.812 149.507 118.151C149.507 118.398 149.58 118.589 149.726 118.725C149.873 118.858 150.092 118.925 150.385 118.925ZM153.766 114.206H155.043L156.166 117.333C156.335 117.779 156.448 118.198 156.505 118.59H156.545C156.575 118.407 156.63 118.186 156.709 117.927C156.789 117.664 157.212 116.424 157.976 114.206H159.243L156.884 120.456C156.455 121.603 155.74 122.177 154.739 122.177C154.48 122.177 154.227 122.148 153.981 122.092V121.164C154.157 121.204 154.358 121.224 154.585 121.224C155.15 121.224 155.547 120.896 155.777 120.241L155.981 119.723L153.766 114.206ZM165.788 119.723H164.615V115.014C164.615 114.452 164.629 114.006 164.655 113.677C164.579 113.757 164.484 113.845 164.371 113.942C164.261 114.038 163.889 114.344 163.254 114.859L162.665 114.116L164.81 112.43H165.788V119.723ZM173.115 115.543C173.115 116.979 172.826 118.052 172.247 118.76C171.668 119.468 170.797 119.822 169.633 119.822C169.191 119.822 168.873 119.796 168.681 119.743V118.76C168.977 118.843 169.274 118.885 169.573 118.885C170.365 118.885 170.955 118.672 171.344 118.246C171.733 117.821 171.946 117.152 171.983 116.241H171.923C171.727 116.54 171.489 116.756 171.209 116.889C170.933 117.022 170.609 117.089 170.237 117.089C169.592 117.089 169.085 116.888 168.715 116.485C168.346 116.083 168.162 115.531 168.162 114.829C168.162 114.068 168.375 113.463 168.8 113.014C169.229 112.562 169.813 112.335 170.551 112.335C171.07 112.335 171.522 112.462 171.908 112.715C172.294 112.967 172.591 113.335 172.801 113.817C173.01 114.296 173.115 114.871 173.115 115.543ZM170.571 113.308C170.165 113.308 169.854 113.441 169.638 113.707C169.422 113.97 169.314 114.341 169.314 114.819C169.314 115.235 169.414 115.563 169.613 115.802C169.816 116.038 170.122 116.156 170.531 116.156C170.927 116.156 171.259 116.038 171.529 115.802C171.798 115.566 171.933 115.29 171.933 114.974C171.933 114.678 171.875 114.402 171.758 114.146C171.645 113.887 171.485 113.682 171.279 113.533C171.073 113.383 170.837 113.308 170.571 113.308ZM178.961 116.076C178.961 117.343 178.756 118.284 178.347 118.9C177.942 119.515 177.32 119.822 176.482 119.822C175.67 119.822 175.055 119.505 174.636 118.87C174.217 118.235 174.008 117.303 174.008 116.076C174.008 114.79 174.211 113.842 174.616 113.233C175.025 112.621 175.647 112.316 176.482 112.316C177.296 112.316 177.913 112.635 178.332 113.273C178.751 113.912 178.961 114.846 178.961 116.076ZM175.195 116.076C175.195 117.071 175.296 117.781 175.499 118.206C175.705 118.632 176.033 118.845 176.482 118.845C176.931 118.845 177.258 118.629 177.464 118.196C177.674 117.764 177.779 117.057 177.779 116.076C177.779 115.099 177.674 114.392 177.464 113.957C177.258 113.518 176.931 113.298 176.482 113.298C176.033 113.298 175.705 113.513 175.499 113.942C175.296 114.371 175.195 115.082 175.195 116.076ZM188.952 116.007C188.952 117.21 188.618 118.131 187.949 118.77C187.281 119.405 186.318 119.723 185.061 119.723H183.021V112.43H185.276C186.436 112.43 187.339 112.743 187.984 113.368C188.629 113.993 188.952 114.873 188.952 116.007ZM187.695 116.047C187.695 114.301 186.878 113.428 185.246 113.428H184.213V118.72H185.061C186.817 118.72 187.695 117.829 187.695 116.047ZM195.047 119.723L194.319 117.698H191.53L190.817 119.723H189.56L192.289 112.4H193.586L196.314 119.723H195.047ZM194.005 116.67L193.321 114.685C193.271 114.552 193.201 114.342 193.112 114.056C193.025 113.77 192.965 113.561 192.932 113.428C192.842 113.837 192.711 114.284 192.538 114.77L191.88 116.67H194.005ZM197.277 119.723V112.43H198.469V119.723H197.277Z" class="path-12"/>
<rect x="118.207" y="107.266" width="17.5121" height="17.5121" rx="2.18901" class="rect-4"/>
<path d="M132.374 111.645H131.083C130.802 111.645 130.535 111.779 130.37 112.011L126.041 118.014L124.08 115.293C123.915 115.065 123.651 114.927 123.367 114.927H122.076C121.897 114.927 121.792 115.131 121.897 115.277L125.328 120.035C125.409 120.148 125.516 120.24 125.639 120.304C125.763 120.367 125.9 120.401 126.04 120.401C126.179 120.401 126.316 120.367 126.44 120.304C126.563 120.24 126.67 120.148 126.751 120.035L132.551 111.994C132.658 111.848 132.553 111.645 132.374 111.645Z" class="path-13"/>
<path d="M246.582 114.635C246.582 115.396 246.333 115.98 245.834 116.386C245.335 116.791 244.625 116.994 243.704 116.994H242.946V119.723H241.754V112.43H243.854C244.765 112.43 245.447 112.616 245.899 112.989C246.355 113.361 246.582 113.91 246.582 114.635ZM242.946 115.992H243.58C244.191 115.992 244.64 115.885 244.926 115.672C245.212 115.46 245.355 115.127 245.355 114.675C245.355 114.256 245.227 113.943 244.971 113.737C244.715 113.531 244.316 113.428 243.774 113.428H242.946V115.992ZM251.366 119.723L251.131 118.955H251.091C250.825 119.29 250.558 119.52 250.288 119.643C250.019 119.763 249.673 119.822 249.251 119.822C248.709 119.822 248.285 119.676 247.979 119.383C247.676 119.091 247.525 118.677 247.525 118.141C247.525 117.573 247.736 117.144 248.159 116.855C248.581 116.565 249.224 116.407 250.089 116.381L251.042 116.351V116.056C251.042 115.704 250.958 115.441 250.792 115.268C250.629 115.092 250.375 115.004 250.029 115.004C249.746 115.004 249.475 115.046 249.216 115.129C248.957 115.212 248.707 115.31 248.468 115.423L248.089 114.585C248.388 114.429 248.715 114.311 249.071 114.231C249.427 114.148 249.763 114.106 250.079 114.106C250.781 114.106 251.309 114.259 251.665 114.565C252.024 114.871 252.204 115.352 252.204 116.007V119.723H251.366ZM249.62 118.925C250.046 118.925 250.386 118.807 250.643 118.57C250.902 118.331 251.032 117.997 251.032 117.568V117.089L250.323 117.119C249.771 117.139 249.369 117.232 249.116 117.398C248.867 117.561 248.742 117.812 248.742 118.151C248.742 118.398 248.815 118.589 248.962 118.725C249.108 118.858 249.327 118.925 249.62 118.925ZM253.002 114.206H254.279L255.401 117.333C255.571 117.779 255.684 118.198 255.74 118.59H255.78C255.81 118.407 255.865 118.186 255.945 117.927C256.025 117.664 256.447 116.424 257.212 114.206H258.479L256.119 120.456C255.69 121.603 254.975 122.177 253.974 122.177C253.715 122.177 253.462 122.148 253.216 122.092V121.164C253.393 121.204 253.594 121.224 253.82 121.224C254.385 121.224 254.783 120.896 255.012 120.241L255.217 119.723L253.002 114.206ZM265.023 119.723H263.851V115.014C263.851 114.452 263.864 114.006 263.891 113.677C263.814 113.757 263.719 113.845 263.606 113.942C263.497 114.038 263.124 114.344 262.489 114.859L261.9 114.116L264.045 112.43H265.023V119.723ZM269.891 115.169C270.626 115.169 271.208 115.363 271.637 115.752C272.066 116.141 272.28 116.672 272.28 117.343C272.28 118.122 272.036 118.73 271.547 119.169C271.062 119.605 270.37 119.822 269.472 119.822C268.657 119.822 268.017 119.691 267.552 119.428V118.366C267.821 118.519 268.13 118.637 268.48 118.72C268.829 118.803 269.153 118.845 269.452 118.845C269.981 118.845 270.383 118.727 270.659 118.491C270.935 118.255 271.073 117.909 271.073 117.453C271.073 116.582 270.518 116.146 269.407 116.146C269.251 116.146 269.058 116.163 268.829 116.196C268.599 116.226 268.398 116.261 268.225 116.301L267.701 115.992L267.981 112.43H271.772V113.473H269.013L268.849 115.278C268.965 115.258 269.106 115.235 269.273 115.209C269.442 115.182 269.648 115.169 269.891 115.169ZM278.196 116.076C278.196 117.343 277.992 118.284 277.583 118.9C277.177 119.515 276.555 119.822 275.717 119.822C274.906 119.822 274.291 119.505 273.872 118.87C273.453 118.235 273.243 117.303 273.243 116.076C273.243 114.79 273.446 113.842 273.852 113.233C274.261 112.621 274.882 112.316 275.717 112.316C276.532 112.316 277.149 112.635 277.568 113.273C277.987 113.912 278.196 114.846 278.196 116.076ZM274.43 116.076C274.43 117.071 274.532 117.781 274.734 118.206C274.941 118.632 275.268 118.845 275.717 118.845C276.166 118.845 276.494 118.629 276.7 118.196C276.909 117.764 277.014 117.057 277.014 116.076C277.014 115.099 276.909 114.392 276.7 113.957C276.494 113.518 276.166 113.298 275.717 113.298C275.268 113.298 274.941 113.513 274.734 113.942C274.532 114.371 274.43 115.082 274.43 116.076ZM288.187 116.007C288.187 117.21 287.853 118.131 287.184 118.77C286.516 119.405 285.553 119.723 284.296 119.723H282.256V112.43H284.511C285.671 112.43 286.574 112.743 287.219 113.368C287.864 113.993 288.187 114.873 288.187 116.007ZM286.93 116.047C286.93 114.301 286.114 113.428 284.481 113.428H283.448V118.72H284.296C286.052 118.72 286.93 117.829 286.93 116.047ZM294.282 119.723L293.554 117.698H290.766L290.053 119.723H288.796L291.524 112.4H292.821L295.549 119.723H294.282ZM293.24 116.67L292.557 114.685C292.507 114.552 292.437 114.342 292.347 114.056C292.261 113.77 292.201 113.561 292.167 113.428C292.078 113.837 291.946 114.284 291.773 114.77L291.115 116.67H293.24ZM296.512 119.723V112.43H297.704V119.723H296.512Z" class="path-14"/>
<rect x="217.807" y="107.63" width="16.7824" height="16.7824" rx="1.82418" stroke-width="0.72967" class="rect-5"/>
<path d="M26.3038 77.3907C26.3038 78.5579 26.0078 79.4757 25.4159 80.1441C24.8273 80.8124 24.0076 81.1466 22.9568 81.1466C21.8828 81.1466 21.0531 80.8191 20.4678 80.164C19.8859 79.5056 19.5949 78.5778 19.5949 77.3807C19.5949 76.1936 19.8876 75.2741 20.4728 74.6224C21.0581 73.9673 21.8894 73.6397 22.9668 73.6397C24.0143 73.6397 24.8323 73.9723 25.4209 74.6373C26.0095 75.3024 26.3038 76.2202 26.3038 77.3907ZM20.4928 77.3907C20.4928 78.3783 20.7023 79.1282 21.1213 79.6403C21.5436 80.149 22.1554 80.4034 22.9568 80.4034C23.7649 80.4034 24.3751 80.149 24.7874 79.6403C25.1998 79.1315 25.4059 78.3816 25.4059 77.3907C25.4059 76.4097 25.1998 75.6665 24.7874 75.1611C24.3784 74.6523 23.7715 74.3979 22.9668 74.3979C22.1588 74.3979 21.5436 74.6539 21.1213 75.166C20.7023 75.6748 20.4928 76.4164 20.4928 77.3907ZM30.354 81.1466C29.9982 81.1466 29.6723 81.0818 29.3764 80.9521C29.0837 80.8191 28.8377 80.6162 28.6381 80.3436H28.5783C28.6182 80.6628 28.6381 80.9654 28.6381 81.2514V83.501H27.8101V75.58H28.4835L28.5982 76.3282H28.6381C28.851 76.029 29.0987 75.8128 29.3814 75.6798C29.664 75.5468 29.9882 75.4803 30.354 75.4803C31.0789 75.4803 31.6376 75.728 32.03 76.2235C32.4257 76.719 32.6235 77.414 32.6235 78.3085C32.6235 79.2063 32.4224 79.9046 32.02 80.4034C31.621 80.8989 31.0656 81.1466 30.354 81.1466ZM30.2343 76.1836C29.6756 76.1836 29.2716 76.3382 29.0222 76.6475C28.7728 76.9567 28.6448 77.4489 28.6381 78.1239V78.3085C28.6381 79.0766 28.7662 79.627 29.0222 79.9595C29.2783 80.2887 29.6889 80.4533 30.2542 80.4533C30.7264 80.4533 31.0956 80.2621 31.3616 79.8797C31.6309 79.4973 31.7656 78.9702 31.7656 78.2985C31.7656 77.6168 31.6309 77.0947 31.3616 76.7323C31.0956 76.3665 30.7198 76.1836 30.2343 76.1836ZM35.8408 80.4633C35.9871 80.4633 36.1284 80.4533 36.2648 80.4334C36.4011 80.4101 36.5092 80.3868 36.589 80.3635V80.997C36.4992 81.0402 36.3662 81.0751 36.1899 81.1017C36.017 81.1317 35.8607 81.1466 35.7211 81.1466C34.6636 81.1466 34.1349 80.5896 34.1349 79.4757V76.2235H33.3518V75.8245L34.1349 75.4803L34.4841 74.3131H34.9629V75.58H36.5491V76.2235H34.9629V79.4407C34.9629 79.77 35.041 80.0227 35.1973 80.1989C35.3536 80.3752 35.5681 80.4633 35.8408 80.4633ZM38.5143 81.0469H37.6863V75.58H38.5143V81.0469ZM37.6165 74.0986C37.6165 73.9091 37.6631 73.7711 37.7562 73.6846C37.8493 73.5948 37.9657 73.5499 38.1053 73.5499C38.2383 73.5499 38.3531 73.5948 38.4495 73.6846C38.5459 73.7744 38.5942 73.9124 38.5942 74.0986C38.5942 74.2848 38.5459 74.4245 38.4495 74.5176C38.3531 74.6074 38.2383 74.6523 38.1053 74.6523C37.9657 74.6523 37.8493 74.6074 37.7562 74.5176C37.6631 74.4245 37.6165 74.2848 37.6165 74.0986ZM44.9887 78.3085C44.9887 79.1997 44.7643 79.8963 44.3154 80.3984C43.8664 80.8972 43.2463 81.1466 42.4548 81.1466C41.966 81.1466 41.5321 81.0319 41.153 80.8025C40.7739 80.573 40.4813 80.2438 40.2751 79.8148C40.0689 79.3859 39.9658 78.8838 39.9658 78.3085C39.9658 77.4173 40.1886 76.724 40.6342 76.2285C41.0798 75.7297 41.6983 75.4803 42.4898 75.4803C43.2546 75.4803 43.8615 75.7347 44.3104 76.2434C44.7626 76.7522 44.9887 77.4406 44.9887 78.3085ZM40.8238 78.3085C40.8238 79.0068 40.9634 79.5388 41.2428 79.9046C41.5221 80.2704 41.9328 80.4533 42.4748 80.4533C43.0168 80.4533 43.4275 80.2721 43.7068 79.9096C43.9895 79.5438 44.1308 79.0101 44.1308 78.3085C44.1308 77.6135 43.9895 77.0864 43.7068 76.7273C43.4275 76.3648 43.0135 76.1836 42.4648 76.1836C41.9228 76.1836 41.5138 76.3615 41.2378 76.7173C40.9618 77.0731 40.8238 77.6035 40.8238 78.3085ZM50.1862 81.0469V77.5104C50.1862 77.0648 50.0848 76.7323 49.882 76.5128C49.6791 76.2933 49.3615 76.1836 48.9292 76.1836C48.3573 76.1836 47.9383 76.3382 47.6723 76.6475C47.4063 76.9567 47.2732 77.4672 47.2732 78.1788V81.0469H46.4452V75.58H47.1186L47.2533 76.3282H47.2932C47.4628 76.0589 47.7005 75.8511 48.0065 75.7047C48.3124 75.5551 48.6532 75.4803 49.029 75.4803C49.6874 75.4803 50.1829 75.6399 50.5154 75.9591C50.848 76.275 51.0142 76.7822 51.0142 77.4805V81.0469H50.1862ZM56.2466 79.5555C56.2466 80.0642 56.0571 80.4566 55.678 80.7326C55.2989 81.0086 54.7668 81.1466 54.0818 81.1466C53.3569 81.1466 52.7916 81.0319 52.3859 80.8025V80.0343C52.6486 80.1673 52.9296 80.2721 53.2289 80.3486C53.5315 80.425 53.8225 80.4633 54.1018 80.4633C54.5341 80.4633 54.8666 80.3951 55.0994 80.2588C55.3322 80.1191 55.4485 79.908 55.4485 79.6253C55.4485 79.4125 55.3554 79.2313 55.1692 79.0816C54.9863 78.9286 54.6272 78.7491 54.0918 78.5429C53.583 78.3534 53.2206 78.1888 53.0044 78.0491C52.7916 77.9061 52.632 77.7448 52.5256 77.5653C52.4225 77.3857 52.371 77.1712 52.371 76.9218C52.371 76.4762 52.5522 76.1254 52.9146 75.8694C53.2771 75.61 53.7742 75.4803 54.4061 75.4803C54.9946 75.4803 55.5699 75.6 56.1319 75.8394L55.8376 76.5128C55.2889 76.2867 54.7918 76.1736 54.3462 76.1736C53.9538 76.1736 53.6579 76.2351 53.4583 76.3582C53.2588 76.4812 53.1591 76.6508 53.1591 76.8669C53.1591 77.0133 53.1956 77.138 53.2688 77.241C53.3453 77.3441 53.4666 77.4422 53.6329 77.5353C53.7992 77.6284 54.1184 77.7631 54.5906 77.9394C55.239 78.1755 55.6763 78.4132 55.9024 78.6526C56.1319 78.8921 56.2466 79.193 56.2466 79.5555ZM62.716 76.2235H61.3244V81.0469H60.4964V76.2235H59.5187V75.8494L60.4964 75.5501V75.2459C60.4964 73.9024 61.0833 73.2307 62.2571 73.2307C62.5464 73.2307 62.8856 73.2889 63.2747 73.4053L63.0602 74.0687C62.741 73.9656 62.4683 73.9141 62.2422 73.9141C61.9296 73.9141 61.6985 74.0188 61.5488 74.2283C61.3992 74.4345 61.3244 74.767 61.3244 75.2259V75.58H62.716V76.2235ZM64.4917 75.58V79.1265C64.4917 79.5721 64.5932 79.9046 64.796 80.1241C64.9989 80.3436 65.3164 80.4533 65.7487 80.4533C66.3207 80.4533 66.738 80.297 67.0007 79.9844C67.2667 79.6719 67.3997 79.1614 67.3997 78.4531V75.58H68.2277V81.0469H67.5444L67.4247 80.3136H67.3798C67.2102 80.583 66.9741 80.7892 66.6715 80.9322C66.3722 81.0751 66.0297 81.1466 65.644 81.1466C64.9789 81.1466 64.4801 80.9887 64.1476 80.6728C63.8184 80.3569 63.6538 79.8514 63.6538 79.1564V75.58H64.4917ZM73.7295 81.0469V77.5104C73.7295 77.0648 73.6281 76.7323 73.4252 76.5128C73.2224 76.2933 72.9048 76.1836 72.4725 76.1836C71.9006 76.1836 71.4816 76.3382 71.2155 76.6475C70.9495 76.9567 70.8165 77.4672 70.8165 78.1788V81.0469H69.9885V75.58H70.6619L70.7966 76.3282H70.8365C71.0061 76.0589 71.2438 75.8511 71.5497 75.7047C71.8557 75.5551 72.1965 75.4803 72.5723 75.4803C73.2307 75.4803 73.7262 75.6399 74.0587 75.9591C74.3912 76.275 74.5575 76.7822 74.5575 77.4805V81.0469H73.7295ZM79.9844 80.3136H79.9395C79.5571 80.869 78.9852 81.1466 78.2237 81.1466C77.5087 81.1466 76.9517 80.9022 76.5527 80.4134C76.157 79.9246 75.9591 79.2296 75.9591 78.3284C75.9591 77.4273 76.1586 76.7273 76.5577 76.2285C76.9567 75.7297 77.512 75.4803 78.2237 75.4803C78.9652 75.4803 79.5338 75.7496 79.9295 76.2883H79.9944L79.9595 75.8943L79.9395 75.5102V73.2856H80.7675V81.0469H80.0942L79.9844 80.3136ZM78.3284 80.4533C78.8937 80.4533 79.3027 80.3003 79.5554 79.9944C79.8115 79.6852 79.9395 79.188 79.9395 78.503V78.3284C79.9395 77.5536 79.8098 77.0016 79.5505 76.6724C79.2944 76.3399 78.8837 76.1736 78.3184 76.1736C77.8329 76.1736 77.4605 76.3632 77.2011 76.7422C76.9451 77.118 76.817 77.6501 76.817 78.3384C76.817 79.0367 76.9451 79.5638 77.2011 79.9196C77.4572 80.2754 77.8329 80.4533 78.3284 80.4533ZM84.8377 81.1466C84.0297 81.1466 83.3912 80.9006 82.9223 80.4084C82.4568 79.9163 82.224 79.2329 82.224 78.3584C82.224 77.4771 82.4402 76.7772 82.8725 76.2584C83.3081 75.7397 83.8917 75.4803 84.6232 75.4803C85.3083 75.4803 85.8503 75.7064 86.2493 76.1587C86.6484 76.6076 86.8479 77.2011 86.8479 77.9394V78.4631H83.082C83.0986 79.1049 83.2599 79.592 83.5658 79.9246C83.875 80.2571 84.309 80.4234 84.8676 80.4234C85.4562 80.4234 86.0382 80.3003 86.6134 80.0543V80.7925C86.3208 80.9189 86.0432 81.0086 85.7805 81.0618C85.5211 81.1184 85.2068 81.1466 84.8377 81.1466ZM84.6133 76.1736C84.1743 76.1736 83.8235 76.3166 83.5608 76.6026C83.3014 76.8886 83.1485 77.2843 83.1019 77.7897H85.96C85.96 77.2676 85.8436 76.8686 85.6109 76.5926C85.3781 76.3133 85.0456 76.1736 84.6133 76.1736ZM91.9855 80.3136H91.9406C91.5582 80.869 90.9862 81.1466 90.2247 81.1466C89.5098 81.1466 88.9528 80.9022 88.5538 80.4134C88.1581 79.9246 87.9602 79.2296 87.9602 78.3284C87.9602 77.4273 88.1597 76.7273 88.5588 76.2285C88.9578 75.7297 89.5131 75.4803 90.2247 75.4803C90.9663 75.4803 91.5349 75.7496 91.9306 76.2883H91.9955L91.9606 75.8943L91.9406 75.5102V73.2856H92.7686V81.0469H92.0952L91.9855 80.3136ZM90.3295 80.4533C90.8948 80.4533 91.3038 80.3003 91.5565 79.9944C91.8126 79.6852 91.9406 79.188 91.9406 78.503V78.3284C91.9406 77.5536 91.8109 77.0016 91.5515 76.6724C91.2955 76.3399 90.8848 76.1736 90.3195 76.1736C89.834 76.1736 89.4616 76.3632 89.2022 76.7422C88.9462 77.118 88.8181 77.6501 88.8181 78.3384C88.8181 79.0367 88.9462 79.5638 89.2022 79.9196C89.4583 80.2754 89.834 80.4533 90.3295 80.4533Z" class="path-15"/>
<line x1="18.9714" y1="46.3344" x2="313.029" y2="46.3344" stroke-width="0.72967" class="line-2"/>
<g clip-path="url(#clip2_13917_211177)">
<path d="M26.9173 23.5121L23.903 25.3636L20.8867 23.5121L23.903 18.3086L26.9173 23.5121ZM23.903 25.9582L20.8867 24.1066L23.903 28.524L26.9193 24.1066L23.903 25.9582Z" class="path-16"/>
</g>
<path d="M40.1418 25.4776C40.1418 26.1194 39.9091 26.6199 39.4435 26.979C38.978 27.3382 38.3462 27.5177 37.5481 27.5177C36.6835 27.5177 36.0184 27.4063 35.5529 27.1835V26.3655C35.8522 26.4919 36.1781 26.5916 36.5305 26.6648C36.883 26.7379 37.2322 26.7745 37.578 26.7745C38.1433 26.7745 38.569 26.6681 38.8549 26.4553C39.1409 26.2391 39.2839 25.9399 39.2839 25.5575C39.2839 25.3047 39.2324 25.0986 39.1293 24.9389C39.0295 24.776 38.8599 24.6264 38.6205 24.49C38.3844 24.3537 38.0236 24.1991 37.5381 24.0261C36.8597 23.7834 36.3743 23.4958 36.0816 23.1632C35.7923 22.8307 35.6477 22.3967 35.6477 21.8614C35.6477 21.2994 35.8588 20.8521 36.2811 20.5196C36.7035 20.1871 37.2621 20.0208 37.9571 20.0208C38.682 20.0208 39.3487 20.1538 39.9573 20.4198L39.6929 21.1581C39.091 20.9053 38.5058 20.779 37.9372 20.779C37.4882 20.779 37.1374 20.8754 36.8847 21.0683C36.632 21.2611 36.5056 21.5288 36.5056 21.8713C36.5056 22.1241 36.5522 22.3319 36.6453 22.4948C36.7384 22.6544 36.8947 22.8024 37.1141 22.9388C37.3369 23.0718 37.6761 23.2198 38.1317 23.3827C38.8965 23.6554 39.4219 23.948 39.7079 24.2606C39.9972 24.5732 40.1418 24.9788 40.1418 25.4776ZM43.818 27.5177C43.0099 27.5177 42.3715 27.2717 41.9026 26.7795C41.4371 26.2874 41.2043 25.604 41.2043 24.7294C41.2043 23.8482 41.4204 23.1483 41.8527 22.6295C42.2883 22.1108 42.8719 21.8514 43.6035 21.8514C44.2885 21.8514 44.8305 22.0775 45.2296 22.5297C45.6286 22.9787 45.8281 23.5722 45.8281 24.3105V24.8342H42.0622C42.0788 25.476 42.2401 25.9631 42.546 26.2957C42.8553 26.6282 43.2893 26.7945 43.8479 26.7945C44.4365 26.7945 45.0184 26.6714 45.5937 26.4254V27.1636C45.3011 27.2899 45.0234 27.3797 44.7607 27.4329C44.5013 27.4895 44.1871 27.5177 43.818 27.5177ZM43.5935 22.5447C43.1546 22.5447 42.8038 22.6877 42.5411 22.9737C42.2817 23.2597 42.1287 23.6554 42.0822 24.1608H44.9403C44.9403 23.6387 44.8239 23.2397 44.5911 22.9637C44.3583 22.6844 44.0258 22.5447 43.5935 22.5447ZM49.5542 27.5177C48.7461 27.5177 48.1076 27.2717 47.6388 26.7795C47.1732 26.2874 46.9405 25.604 46.9405 24.7294C46.9405 23.8482 47.1566 23.1483 47.5889 22.6295C48.0245 22.1108 48.6081 21.8514 49.3397 21.8514C50.0247 21.8514 50.5667 22.0775 50.9658 22.5297C51.3648 22.9787 51.5643 23.5722 51.5643 24.3105V24.8342H47.7984C47.815 25.476 47.9763 25.9631 48.2822 26.2957C48.5915 26.6282 49.0254 26.7945 49.5841 26.7945C50.1727 26.7945 50.7546 26.6714 51.3299 26.4254V27.1636C51.0373 27.2899 50.7596 27.3797 50.4969 27.4329C50.2375 27.4895 49.9233 27.5177 49.5542 27.5177ZM49.3297 22.5447C48.8908 22.5447 48.5399 22.6877 48.2772 22.9737C48.0179 23.2597 47.8649 23.6554 47.8183 24.1608H50.6765C50.6765 23.6387 50.5601 23.2397 50.3273 22.9637C50.0945 22.6844 49.762 22.5447 49.3297 22.5447ZM59.3755 27.418V23.8815C59.3755 23.4359 59.2741 23.1034 59.0712 22.8839C58.8684 22.6644 58.5508 22.5547 58.1185 22.5547C57.5432 22.5547 57.1226 22.711 56.8566 23.0236C56.5939 23.3361 56.4625 23.8482 56.4625 24.5599V27.418H55.6345V19.6567H56.4625V22.006C56.4625 22.2887 56.4492 22.5231 56.4226 22.7093H56.4725C56.6354 22.4466 56.8665 22.2404 57.1658 22.0908C57.4684 21.9378 57.8126 21.8614 58.1983 21.8614C58.8667 21.8614 59.3672 22.021 59.6997 22.3402C60.0356 22.6561 60.2035 23.1599 60.2035 23.8516V27.418H59.3755ZM66.628 24.6796C66.628 25.5708 66.4036 26.2674 65.9546 26.7695C65.5057 27.2683 64.8855 27.5177 64.0941 27.5177C63.6053 27.5177 63.1713 27.403 62.7923 27.1736C62.4132 26.9441 62.1205 26.6149 61.9144 26.1859C61.7082 25.757 61.6051 25.2548 61.6051 24.6796C61.6051 23.7884 61.8279 23.0951 62.2735 22.5996C62.7191 22.1008 63.3376 21.8514 64.129 21.8514C64.8939 21.8514 65.5007 22.1058 65.9497 22.6145C66.4019 23.1233 66.628 23.8117 66.628 24.6796ZM62.4631 24.6796C62.4631 25.3779 62.6027 25.9099 62.882 26.2757C63.1614 26.6415 63.572 26.8244 64.1141 26.8244C64.6561 26.8244 65.0668 26.6432 65.3461 26.2807C65.6288 25.9149 65.7701 25.3812 65.7701 24.6796C65.7701 23.9846 65.6288 23.4575 65.3461 23.0984C65.0668 22.7359 64.6528 22.5547 64.1041 22.5547C63.5621 22.5547 63.1531 22.7326 62.8771 23.0884C62.6011 23.4442 62.4631 23.9746 62.4631 24.6796ZM72.5488 27.418L71.5462 24.2107C71.483 24.0145 71.3649 23.5689 71.192 22.8739H71.1521C71.0191 23.4558 70.9027 23.9048 70.803 24.2207L69.7704 27.418H68.8128L67.3213 21.9511H68.1893C68.5417 23.3245 68.8094 24.3703 68.9923 25.0886C69.1785 25.8069 69.2849 26.2907 69.3116 26.5401H69.3515C69.388 26.3505 69.4462 26.1061 69.526 25.8069C69.6092 25.5042 69.6807 25.2648 69.7405 25.0886L70.7431 21.9511H71.6409L72.6186 25.0886C72.8048 25.6605 72.9312 26.141 72.9977 26.5301H73.0376C73.0509 26.4104 73.0858 26.2258 73.1423 25.9764C73.2022 25.727 73.5497 24.3853 74.1848 21.9511H75.0427L73.5314 27.418H72.5488ZM85.6572 27.418V23.8615C85.6572 23.4259 85.5641 23.1 85.3778 22.8839C85.1916 22.6644 84.9023 22.5547 84.5099 22.5547C83.9945 22.5547 83.6138 22.7027 83.3677 22.9986C83.1216 23.2946 82.9986 23.7501 82.9986 24.3653V27.418H82.1706V23.8615C82.1706 23.4259 82.0775 23.1 81.8912 22.8839C81.705 22.6644 81.4141 22.5547 81.0183 22.5547C80.4996 22.5547 80.1188 22.711 79.8761 23.0236C79.6367 23.3328 79.517 23.8416 79.517 24.5499V27.418H78.689V21.9511H79.3623L79.497 22.6993H79.5369C79.6932 22.4333 79.9127 22.2255 80.1953 22.0758C80.4813 21.9262 80.8005 21.8514 81.153 21.8514C82.0076 21.8514 82.5663 22.1606 82.829 22.7791H82.8689C83.0318 22.4932 83.2679 22.267 83.5772 22.1008C83.8864 21.9345 84.2389 21.8514 84.6346 21.8514C85.2531 21.8514 85.7154 22.011 86.0213 22.3302C86.3305 22.6461 86.4852 23.1532 86.4852 23.8516V27.418H85.6572ZM88.9742 21.9511V25.4976C88.9742 25.9432 89.0756 26.2757 89.2784 26.4952C89.4813 26.7147 89.7989 26.8244 90.2311 26.8244C90.8031 26.8244 91.2204 26.6681 91.4831 26.3555C91.7492 26.0429 91.8822 25.5325 91.8822 24.8242V21.9511H92.7102V27.418H92.0268L91.9071 26.6847H91.8622C91.6926 26.9541 91.4565 27.1603 91.1539 27.3032C90.8546 27.4462 90.5121 27.5177 90.1264 27.5177C89.4613 27.5177 88.9625 27.3598 88.63 27.0439C88.3008 26.728 88.1362 26.2225 88.1362 25.5275V21.9511H88.9742ZM96.6557 27.5177C95.8642 27.5177 95.2507 27.275 94.8151 26.7895C94.3828 26.3007 94.1667 25.6107 94.1667 24.7195C94.1667 23.805 94.3861 23.0984 94.8251 22.5996C95.2673 22.1008 95.8958 21.8514 96.7105 21.8514C96.9732 21.8514 97.2359 21.8796 97.4986 21.9362C97.7613 21.9927 97.9675 22.0592 98.1171 22.1357L97.8628 22.839C97.6799 22.7658 97.4803 22.706 97.2642 22.6594C97.048 22.6096 96.8568 22.5846 96.6906 22.5846C95.5799 22.5846 95.0246 23.2929 95.0246 24.7095C95.0246 25.3812 95.1593 25.8966 95.4286 26.2558C95.7013 26.6149 96.1037 26.7945 96.6357 26.7945C97.0913 26.7945 97.5585 26.6964 98.0373 26.5002V27.2334C97.6715 27.423 97.211 27.5177 96.6557 27.5177ZM103.08 27.418V23.8815C103.08 23.4359 102.979 23.1034 102.776 22.8839C102.573 22.6644 102.255 22.5547 101.823 22.5547C101.248 22.5547 100.827 22.711 100.561 23.0236C100.299 23.3361 100.167 23.8482 100.167 24.5599V27.418H99.3392V19.6567H100.167V22.006C100.167 22.2887 100.154 22.5231 100.127 22.7093H100.177C100.34 22.4466 100.571 22.2404 100.871 22.0908C101.173 21.9378 101.517 21.8614 101.903 21.8614C102.571 21.8614 103.072 22.021 103.404 22.3402C103.74 22.6561 103.908 23.1599 103.908 23.8516V27.418H103.08ZM107.4 21.9511H108.288L109.485 25.0686C109.747 25.7802 109.91 26.294 109.974 26.6099H110.013C110.057 26.4403 110.146 26.151 110.283 25.742C110.422 25.3297 110.875 24.066 111.64 21.9511H112.527L110.178 28.1761C109.945 28.7913 109.673 29.2269 109.36 29.483C109.051 29.7424 108.67 29.8721 108.218 29.8721C107.965 29.8721 107.716 29.8438 107.47 29.7873V29.1239C107.652 29.1638 107.857 29.1837 108.083 29.1837C108.652 29.1837 109.057 28.8645 109.3 28.226L109.604 27.4479L107.4 21.9511ZM118.134 24.6796C118.134 25.5708 117.909 26.2674 117.461 26.7695C117.012 27.2683 116.391 27.5177 115.6 27.5177C115.111 27.5177 114.677 27.403 114.298 27.1736C113.919 26.9441 113.626 26.6149 113.42 26.1859C113.214 25.757 113.111 25.2548 113.111 24.6796C113.111 23.7884 113.334 23.0951 113.779 22.5996C114.225 22.1008 114.844 21.8514 115.635 21.8514C116.4 21.8514 117.007 22.1058 117.456 22.6145C117.908 23.1233 118.134 23.8117 118.134 24.6796ZM113.969 24.6796C113.969 25.3779 114.109 25.9099 114.388 26.2757C114.667 26.6415 115.078 26.8244 115.62 26.8244C116.162 26.8244 116.573 26.6432 116.852 26.2807C117.135 25.9149 117.276 25.3812 117.276 24.6796C117.276 23.9846 117.135 23.4575 116.852 23.0984C116.573 22.7359 116.159 22.5547 115.61 22.5547C115.068 22.5547 114.659 22.7326 114.383 23.0884C114.107 23.4442 113.969 23.9746 113.969 24.6796ZM120.369 21.9511V25.4976C120.369 25.9432 120.47 26.2757 120.673 26.4952C120.876 26.7147 121.193 26.8244 121.625 26.8244C122.197 26.8244 122.615 26.6681 122.877 26.3555C123.143 26.0429 123.277 25.5325 123.277 24.8242V21.9511H124.105V27.418H123.421L123.301 26.6847H123.257C123.087 26.9541 122.851 27.1603 122.548 27.3032C122.249 27.4462 121.906 27.5177 121.521 27.5177C120.856 27.5177 120.357 27.3598 120.024 27.0439C119.695 26.728 119.531 26.2225 119.531 25.5275V21.9511H120.369ZM130.704 27.5177C129.912 27.5177 129.299 27.275 128.863 26.7895C128.431 26.3007 128.215 25.6107 128.215 24.7195C128.215 23.805 128.434 23.0984 128.873 22.5996C129.315 22.1008 129.944 21.8514 130.758 21.8514C131.021 21.8514 131.284 21.8796 131.547 21.9362C131.809 21.9927 132.015 22.0592 132.165 22.1357L131.911 22.839C131.728 22.7658 131.528 22.706 131.312 22.6594C131.096 22.6096 130.905 22.5846 130.739 22.5846C129.628 22.5846 129.073 23.2929 129.073 24.7095C129.073 25.3812 129.207 25.8966 129.477 26.2558C129.749 26.6149 130.152 26.7945 130.684 26.7945C131.139 26.7945 131.606 26.6964 132.085 26.5002V27.2334C131.72 27.423 131.259 27.5177 130.704 27.5177ZM136.749 27.418L136.584 26.6398H136.545C136.272 26.9824 135.999 27.2151 135.727 27.3382C135.457 27.4579 135.12 27.5177 134.714 27.5177C134.172 27.5177 133.746 27.3781 133.437 27.0987C133.131 26.8194 132.978 26.422 132.978 25.9066C132.978 24.8026 133.861 24.224 135.627 24.1708L136.555 24.1409V23.8017C136.555 23.3727 136.461 23.0568 136.275 22.854C136.092 22.6478 135.798 22.5447 135.392 22.5447C134.937 22.5447 134.421 22.6844 133.846 22.9637L133.592 22.3302C133.861 22.1839 134.155 22.0692 134.475 21.9861C134.797 21.9029 135.12 21.8614 135.442 21.8614C136.094 21.8614 136.576 22.006 136.889 22.2953C137.205 22.5846 137.363 23.0485 137.363 23.687V27.418H136.749ZM134.879 26.8344C135.394 26.8344 135.798 26.693 136.091 26.4104C136.387 26.1277 136.535 25.732 136.535 25.2233V24.7294L135.707 24.7644C135.048 24.7876 134.573 24.8907 134.28 25.0736C133.991 25.2532 133.846 25.5342 133.846 25.9166C133.846 26.2159 133.936 26.4436 134.115 26.5999C134.298 26.7562 134.553 26.8344 134.879 26.8344ZM142.814 27.418V23.8815C142.814 23.4359 142.713 23.1034 142.51 22.8839C142.307 22.6644 141.99 22.5547 141.557 22.5547C140.986 22.5547 140.567 22.7093 140.3 23.0186C140.034 23.3278 139.901 23.8383 139.901 24.5499V27.418H139.073V21.9511H139.747L139.882 22.6993H139.921C140.091 22.43 140.329 22.2222 140.635 22.0758C140.941 21.9262 141.281 21.8514 141.657 21.8514C142.316 21.8514 142.811 22.011 143.144 22.3302C143.476 22.6461 143.642 23.1532 143.642 23.8516V27.418H142.814ZM150.311 27.5177C149.503 27.5177 148.865 27.2717 148.396 26.7795C147.93 26.2874 147.698 25.604 147.698 24.7294C147.698 23.8482 147.914 23.1483 148.346 22.6295C148.782 22.1108 149.365 21.8514 150.097 21.8514C150.782 21.8514 151.324 22.0775 151.723 22.5297C152.122 22.9787 152.322 23.5722 152.322 24.3105V24.8342H148.556C148.572 25.476 148.734 25.9631 149.039 26.2957C149.349 26.6282 149.783 26.7945 150.341 26.7945C150.93 26.7945 151.512 26.6714 152.087 26.4254V27.1636C151.794 27.2899 151.517 27.3797 151.254 27.4329C150.995 27.4895 150.68 27.5177 150.311 27.5177ZM150.087 22.5447C149.648 22.5447 149.297 22.6877 149.034 22.9737C148.775 23.2597 148.622 23.6554 148.576 24.1608H151.434C151.434 23.6387 151.317 23.2397 151.085 22.9637C150.852 22.6844 150.519 22.5447 150.087 22.5447ZM157.1 27.418L156.935 26.6398H156.896C156.623 26.9824 156.35 27.2151 156.077 27.3382C155.808 27.4579 155.471 27.5177 155.065 27.5177C154.523 27.5177 154.097 27.3781 153.788 27.0987C153.482 26.8194 153.329 26.422 153.329 25.9066C153.329 24.8026 154.212 24.224 155.978 24.1708L156.905 24.1409V23.8017C156.905 23.3727 156.812 23.0568 156.626 22.854C156.443 22.6478 156.149 22.5447 155.743 22.5447C155.288 22.5447 154.772 22.6844 154.197 22.9637L153.943 22.3302C154.212 22.1839 154.506 22.0692 154.825 21.9861C155.148 21.9029 155.471 21.8614 155.793 21.8614C156.445 21.8614 156.927 22.006 157.24 22.2953C157.556 22.5846 157.714 23.0485 157.714 23.687V27.418H157.1ZM155.23 26.8344C155.745 26.8344 156.149 26.693 156.442 26.4104C156.738 26.1277 156.886 25.732 156.886 25.2233V24.7294L156.058 24.7644C155.399 24.7876 154.924 24.8907 154.631 25.0736C154.342 25.2532 154.197 25.5342 154.197 25.9166C154.197 26.2159 154.287 26.4436 154.466 26.5999C154.649 26.7562 154.904 26.8344 155.23 26.8344ZM161.918 21.8514C162.161 21.8514 162.379 21.8713 162.572 21.9112L162.457 22.6794C162.231 22.6295 162.031 22.6046 161.859 22.6046C161.416 22.6046 161.037 22.7841 160.721 23.1433C160.409 23.5024 160.252 23.9497 160.252 24.485V27.418H159.424V21.9511H160.108L160.203 22.9637H160.242C160.445 22.6079 160.69 22.3336 160.976 22.1407C161.262 21.9478 161.576 21.8514 161.918 21.8514ZM167.335 27.418V23.8815C167.335 23.4359 167.234 23.1034 167.031 22.8839C166.828 22.6644 166.511 22.5547 166.078 22.5547C165.506 22.5547 165.087 22.7093 164.821 23.0186C164.555 23.3278 164.422 23.8383 164.422 24.5499V27.418H163.594V21.9511H164.268L164.402 22.6993H164.442C164.612 22.43 164.85 22.2222 165.156 22.0758C165.462 21.9262 165.802 21.8514 166.178 21.8514C166.837 21.8514 167.332 22.011 167.665 22.3302C167.997 22.6461 168.163 23.1532 168.163 23.8516V27.418H167.335ZM175.067 21.8614C175.785 21.8614 176.342 22.1074 176.738 22.5996C177.137 23.0884 177.336 23.7817 177.336 24.6796C177.336 25.5774 177.135 26.2757 176.733 26.7745C176.334 27.27 175.778 27.5177 175.067 27.5177C174.711 27.5177 174.385 27.4529 174.089 27.3232C173.796 27.1902 173.55 26.9873 173.351 26.7147H173.291L173.116 27.418H172.523V19.6567H173.351V21.5421C173.351 21.9644 173.338 22.3435 173.311 22.6794H173.351C173.737 22.134 174.309 21.8614 175.067 21.8614ZM174.947 22.5547C174.382 22.5547 173.974 22.7176 173.725 23.0435C173.476 23.3661 173.351 23.9114 173.351 24.6796C173.351 25.4477 173.479 25.9981 173.735 26.3306C173.991 26.6598 174.402 26.8244 174.967 26.8244C175.476 26.8244 175.855 26.6398 176.104 26.2707C176.354 25.8983 176.478 25.3646 176.478 24.6696C176.478 23.958 176.354 23.4276 176.104 23.0784C175.855 22.7293 175.469 22.5547 174.947 22.5547ZM177.92 21.9511H178.808L180.005 25.0686C180.268 25.7802 180.43 26.294 180.494 26.6099H180.534C180.577 26.4403 180.667 26.151 180.803 25.742C180.943 25.3297 181.395 24.066 182.16 21.9511H183.047L180.698 28.1761C180.465 28.7913 180.193 29.2269 179.88 29.483C179.571 29.7424 179.19 29.8721 178.738 29.8721C178.485 29.8721 178.236 29.8438 177.99 29.7873V29.1239C178.173 29.1638 178.377 29.1837 178.603 29.1837C179.172 29.1837 179.578 28.8645 179.82 28.226L180.125 27.4479L177.92 21.9511ZM189.053 22.5946H187.661V27.418H186.833V22.5946H185.856V22.2205L186.833 21.9212V21.6169C186.833 20.2735 187.42 19.6018 188.594 19.6018C188.883 19.6018 189.223 19.66 189.612 19.7764L189.397 20.4398C189.078 20.3367 188.805 20.2852 188.579 20.2852C188.267 20.2852 188.035 20.3899 187.886 20.5994C187.736 20.8056 187.661 21.1381 187.661 21.597V21.9511H189.053V22.5946ZM190.829 21.9511V25.4976C190.829 25.9432 190.93 26.2757 191.133 26.4952C191.336 26.7147 191.653 26.8244 192.086 26.8244C192.658 26.8244 193.075 26.6681 193.338 26.3555C193.604 26.0429 193.737 25.5325 193.737 24.8242V21.9511H194.565V27.418H193.881L193.762 26.6847H193.717C193.547 26.9541 193.311 27.1603 193.008 27.3032C192.709 27.4462 192.367 27.5177 191.981 27.5177C191.316 27.5177 190.817 27.3598 190.485 27.0439C190.155 26.728 189.991 26.2225 189.991 25.5275V21.9511H190.829ZM200.066 27.418V23.8815C200.066 23.4359 199.965 23.1034 199.762 22.8839C199.559 22.6644 199.242 22.5547 198.81 22.5547C198.238 22.5547 197.819 22.7093 197.553 23.0186C197.287 23.3278 197.153 23.8383 197.153 24.5499V27.418H196.325V21.9511H196.999L197.134 22.6993H197.173C197.343 22.43 197.581 22.2222 197.887 22.0758C198.193 21.9262 198.533 21.8514 198.909 21.8514C199.568 21.8514 200.063 22.011 200.396 22.3302C200.728 22.6461 200.894 23.1532 200.894 23.8516V27.418H200.066ZM206.321 26.6847H206.277C205.894 27.2401 205.322 27.5177 204.561 27.5177C203.846 27.5177 203.289 27.2733 202.89 26.7845C202.494 26.2957 202.296 25.6007 202.296 24.6995C202.296 23.7984 202.496 23.0984 202.895 22.5996C203.294 22.1008 203.849 21.8514 204.561 21.8514C205.302 21.8514 205.871 22.1207 206.267 22.6594H206.331L206.296 22.2654L206.277 21.8813V19.6567H207.105V27.418H206.431L206.321 26.6847ZM204.665 26.8244C205.231 26.8244 205.64 26.6714 205.892 26.3655C206.148 26.0563 206.277 25.5591 206.277 24.8741V24.6995C206.277 23.9247 206.147 23.3727 205.887 23.0435C205.631 22.711 205.221 22.5447 204.655 22.5447C204.17 22.5447 203.797 22.7343 203.538 23.1133C203.282 23.4891 203.154 24.0212 203.154 24.7095C203.154 25.4078 203.282 25.9349 203.538 26.2907C203.794 26.6465 204.17 26.8244 204.665 26.8244ZM209.693 27.418H208.865V21.9511H209.693V27.418ZM208.795 20.4697C208.795 20.2802 208.842 20.1422 208.935 20.0557C209.028 19.9659 209.145 19.921 209.284 19.921C209.417 19.921 209.532 19.9659 209.628 20.0557C209.725 20.1455 209.773 20.2835 209.773 20.4697C209.773 20.6559 209.725 20.7956 209.628 20.8887C209.532 20.9785 209.417 21.0234 209.284 21.0234C209.145 21.0234 209.028 20.9785 208.935 20.8887C208.842 20.7956 208.795 20.6559 208.795 20.4697ZM215.19 27.418V23.8815C215.19 23.4359 215.089 23.1034 214.886 22.8839C214.683 22.6644 214.365 22.5547 213.933 22.5547C213.361 22.5547 212.942 22.7093 212.676 23.0186C212.41 23.3278 212.277 23.8383 212.277 24.5499V27.418H211.449V21.9511H212.122L212.257 22.6993H212.297C212.467 22.43 212.704 22.2222 213.01 22.0758C213.316 21.9262 213.657 21.8514 214.033 21.8514C214.691 21.8514 215.187 22.011 215.519 22.3302C215.852 22.6461 216.018 23.1532 216.018 23.8516V27.418H215.19ZM222.198 21.9511V22.4749L221.186 22.5946C221.279 22.711 221.362 22.8639 221.435 23.0535C221.508 23.2397 221.545 23.4509 221.545 23.687C221.545 24.2223 221.362 24.6496 220.996 24.9689C220.63 25.2881 220.128 25.4477 219.49 25.4477C219.327 25.4477 219.174 25.4344 219.031 25.4078C218.678 25.594 218.502 25.8285 218.502 26.1111C218.502 26.2608 218.564 26.3722 218.687 26.4453C218.81 26.5151 219.021 26.5501 219.32 26.5501H220.288C220.88 26.5501 221.334 26.6748 221.649 26.9242C221.969 27.1736 222.128 27.536 222.128 28.0115C222.128 28.6167 221.886 29.0773 221.4 29.3932C220.915 29.7124 220.206 29.8721 219.275 29.8721C218.56 29.8721 218.008 29.739 217.619 29.473C217.233 29.207 217.041 28.8312 217.041 28.3457C217.041 28.0132 217.147 27.7256 217.36 27.4828C217.573 27.2401 217.872 27.0755 218.258 26.989C218.118 26.9258 218 26.8277 217.903 26.6947C217.81 26.5617 217.764 26.4071 217.764 26.2308C217.764 26.0313 217.817 25.8567 217.923 25.7071C218.03 25.5575 218.198 25.4128 218.427 25.2731C218.145 25.1568 217.913 24.9589 217.734 24.6796C217.558 24.4002 217.47 24.081 217.47 23.7219C217.47 23.1233 217.649 22.6628 218.008 22.3402C218.367 22.0143 218.876 21.8514 219.535 21.8514C219.821 21.8514 220.078 21.8846 220.308 21.9511H222.198ZM217.839 28.3358C217.839 28.6317 217.963 28.8562 218.213 29.0091C218.462 29.1621 218.82 29.2386 219.285 29.2386C219.98 29.2386 220.494 29.1338 220.826 28.9243C221.162 28.7182 221.33 28.4372 221.33 28.0814C221.33 27.7854 221.239 27.5792 221.056 27.4629C220.873 27.3498 220.529 27.2933 220.023 27.2933H219.031C218.655 27.2933 218.362 27.3831 218.153 27.5626C217.943 27.7422 217.839 27.9999 217.839 28.3358ZM218.288 23.7019C218.288 24.0843 218.396 24.3736 218.612 24.5698C218.828 24.766 219.129 24.8641 219.515 24.8641C220.323 24.8641 220.727 24.4717 220.727 23.687C220.727 22.8656 220.318 22.4549 219.5 22.4549C219.111 22.4549 218.811 22.5597 218.602 22.7692C218.392 22.9787 218.288 23.2896 218.288 23.7019ZM229.336 27.418L229.171 26.6398H229.131C228.859 26.9824 228.586 27.2151 228.313 27.3382C228.044 27.4579 227.707 27.5177 227.301 27.5177C226.759 27.5177 226.333 27.3781 226.024 27.0987C225.718 26.8194 225.565 26.422 225.565 25.9066C225.565 24.8026 226.448 24.224 228.214 24.1708L229.141 24.1409V23.8017C229.141 23.3727 229.048 23.0568 228.862 22.854C228.679 22.6478 228.385 22.5447 227.979 22.5447C227.524 22.5447 227.008 22.6844 226.433 22.9637L226.179 22.3302C226.448 22.1839 226.742 22.0692 227.061 21.9861C227.384 21.9029 227.707 21.8614 228.029 21.8614C228.681 21.8614 229.163 22.006 229.476 22.2953C229.792 22.5846 229.949 23.0485 229.949 23.687V27.418H229.336ZM227.465 26.8344C227.981 26.8344 228.385 26.693 228.678 26.4104C228.973 26.1277 229.121 25.732 229.121 25.2233V24.7294L228.293 24.7644C227.635 24.7876 227.16 24.8907 226.867 25.0736C226.578 25.2532 226.433 25.5342 226.433 25.9166C226.433 26.2159 226.523 26.4436 226.702 26.5999C226.885 26.7562 227.14 26.8344 227.465 26.8344ZM234.204 27.5177C233.848 27.5177 233.523 27.4529 233.227 27.3232C232.934 27.1902 232.688 26.9873 232.488 26.7147H232.428C232.468 27.0339 232.488 27.3365 232.488 27.6225V29.8721H231.66V21.9511H232.334L232.448 22.6993H232.488C232.701 22.4001 232.949 22.1839 233.232 22.0509C233.514 21.9179 233.838 21.8514 234.204 21.8514C234.929 21.8514 235.488 22.0991 235.88 22.5946C236.276 23.0901 236.474 23.7851 236.474 24.6796C236.474 25.5774 236.273 26.2757 235.87 26.7745C235.471 27.27 234.916 27.5177 234.204 27.5177ZM234.084 22.5547C233.526 22.5547 233.122 22.7093 232.872 23.0186C232.623 23.3278 232.495 23.82 232.488 24.495V24.6796C232.488 25.4477 232.616 25.9981 232.872 26.3306C233.128 26.6598 233.539 26.8244 234.104 26.8244C234.577 26.8244 234.946 26.6332 235.212 26.2508C235.481 25.8684 235.616 25.3413 235.616 24.6696C235.616 23.9879 235.481 23.4658 235.212 23.1034C234.946 22.7376 234.57 22.5547 234.084 22.5547ZM240.469 27.5177C240.113 27.5177 239.787 27.4529 239.491 27.3232C239.199 27.1902 238.953 26.9873 238.753 26.7147H238.693C238.733 27.0339 238.753 27.3365 238.753 27.6225V29.8721H237.925V21.9511H238.599L238.713 22.6993H238.753C238.966 22.4001 239.214 22.1839 239.496 22.0509C239.779 21.9179 240.103 21.8514 240.469 21.8514C241.194 21.8514 241.753 22.0991 242.145 22.5946C242.541 23.0901 242.739 23.7851 242.739 24.6796C242.739 25.5774 242.537 26.2757 242.135 26.7745C241.736 27.27 241.181 27.5177 240.469 27.5177ZM240.349 22.5547C239.791 22.5547 239.387 22.7093 239.137 23.0186C238.888 23.3278 238.76 23.82 238.753 24.495V24.6796C238.753 25.4477 238.881 25.9981 239.137 26.3306C239.393 26.6598 239.804 26.8244 240.369 26.8244C240.842 26.8244 241.211 26.6332 241.477 26.2508C241.746 25.8684 241.881 25.3413 241.881 24.6696C241.881 23.9879 241.746 23.4658 241.477 23.1034C241.211 22.7376 240.835 22.5547 240.349 22.5547ZM246.5 27.5177C245.692 27.5177 245.053 27.2717 244.584 26.7795C244.119 26.2874 243.886 25.604 243.886 24.7294C243.886 23.8482 244.102 23.1483 244.534 22.6295C244.97 22.1108 245.554 21.8514 246.285 21.8514C246.97 21.8514 247.512 22.0775 247.911 22.5297C248.31 22.9787 248.51 23.5722 248.51 24.3105V24.8342H244.744C244.76 25.476 244.922 25.9631 245.228 26.2957C245.537 26.6282 245.971 26.7945 246.53 26.7945C247.118 26.7945 247.7 26.6714 248.275 26.4254V27.1636C247.983 27.2899 247.705 27.3797 247.442 27.4329C247.183 27.4895 246.869 27.5177 246.5 27.5177ZM246.275 22.5447C245.836 22.5447 245.485 22.6877 245.223 22.9737C244.963 23.2597 244.81 23.6554 244.764 24.1608H247.622C247.622 23.6387 247.506 23.2397 247.273 22.9637C247.04 22.6844 246.707 22.5447 246.275 22.5447ZM253.288 27.418L253.124 26.6398H253.084C252.811 26.9824 252.538 27.2151 252.266 27.3382C251.996 27.4579 251.659 27.5177 251.253 27.5177C250.711 27.5177 250.285 27.3781 249.976 27.0987C249.67 26.8194 249.517 26.422 249.517 25.9066C249.517 24.8026 250.4 24.224 252.166 24.1708L253.094 24.1409V23.8017C253.094 23.3727 253.001 23.0568 252.814 22.854C252.631 22.6478 252.337 22.5447 251.931 22.5447C251.476 22.5447 250.961 22.6844 250.385 22.9637L250.131 22.3302C250.4 22.1839 250.694 22.0692 251.014 21.9861C251.336 21.9029 251.659 21.8614 251.981 21.8614C252.633 21.8614 253.115 22.006 253.428 22.2953C253.744 22.5846 253.902 23.0485 253.902 23.687V27.418H253.288ZM251.418 26.8344C251.933 26.8344 252.337 26.693 252.63 26.4104C252.926 26.1277 253.074 25.732 253.074 25.2233V24.7294L252.246 24.7644C251.587 24.7876 251.112 24.8907 250.819 25.0736C250.53 25.2532 250.385 25.5342 250.385 25.9166C250.385 26.2159 250.475 26.4436 250.655 26.5999C250.837 26.7562 251.092 26.8344 251.418 26.8344ZM256.441 27.418H255.613V19.6567H256.441V27.418ZM261.723 25.9266C261.723 26.4353 261.533 26.8277 261.154 27.1037C260.775 27.3797 260.243 27.5177 259.558 27.5177C258.833 27.5177 258.268 27.403 257.862 27.1736V26.4054C258.125 26.5384 258.406 26.6432 258.705 26.7197C259.008 26.7961 259.299 26.8344 259.578 26.8344C260.01 26.8344 260.343 26.7662 260.576 26.6299C260.808 26.4902 260.925 26.279 260.925 25.9964C260.925 25.7836 260.832 25.6023 260.645 25.4527C260.463 25.2997 260.103 25.1202 259.568 24.914C259.059 24.7245 258.697 24.5599 258.481 24.4202C258.268 24.2772 258.108 24.1159 258.002 23.9364C257.899 23.7568 257.847 23.5423 257.847 23.2929C257.847 22.8473 258.028 22.4965 258.391 22.2404C258.753 21.9811 259.251 21.8514 259.882 21.8514C260.471 21.8514 261.046 21.9711 261.608 22.2105L261.314 22.8839C260.765 22.6578 260.268 22.5447 259.822 22.5447C259.43 22.5447 259.134 22.6062 258.935 22.7293C258.735 22.8523 258.635 23.0219 258.635 23.238C258.635 23.3844 258.672 23.5091 258.745 23.6121C258.822 23.7152 258.943 23.8133 259.109 23.9064C259.275 23.9995 259.595 24.1342 260.067 24.3105C260.715 24.5466 261.153 24.7843 261.379 25.0237C261.608 25.2632 261.723 25.5641 261.723 25.9266ZM262.955 26.8892C262.955 26.6664 263.005 26.4985 263.105 26.3855C263.208 26.2691 263.354 26.2109 263.544 26.2109C263.736 26.2109 263.886 26.2691 263.992 26.3855C264.102 26.4985 264.157 26.6664 264.157 26.8892C264.157 27.1054 264.102 27.2717 263.992 27.388C263.883 27.5044 263.733 27.5626 263.544 27.5626C263.374 27.5626 263.233 27.5111 263.12 27.408C263.01 27.3016 262.955 27.1287 262.955 26.8892Z" class="path-17"/>
<defs>
<clipPath id="clip0_13917_211177">
<rect width="15.1653" height="15.3231" fill="white" transform="translate(183.512 305.367)" class="rect-6"/>
</clipPath>
<clipPath id="clip1_13917_211177">
<rect width="15.1653" height="15.3231" fill="white" transform="translate(28.822 305.367)" class="rect-7"/>
</clipPath>
<clipPath id="clip2_13917_211177">
<rect width="10.2154" height="10.2154" fill="white" transform="translate(18.9714 18.3086)" class="rect-8"/>
</clipPath>
</defs>
</svg>
