<svg viewBox="0 0 335 339" fill="none" xmlns="http://www.w3.org/2000/svg">
<rect width="335" height="339" rx="3" class="rect-1"/>
<g filter="url(#filter0_d_14063_183957)">
<rect x="13" y="88" width="308" height="113.099" rx="2.13395" class="rect-2"/>
<rect x="13.3557" y="88.3557" width="307.289" height="112.388" rx="1.77829" stroke-width="0.711316" class="rect-3"/>
</g>
<rect x="30.0715" y="178.336" width="273.857" height="5.69053" rx="2.84527" class="rect-4"/>
<rect x="30.0715" y="178.336" width="164.314" height="5.69053" rx="2.84527" class="rect-5"/>
<path d="M91.1747 160.877C91.1747 162.106 90.9802 163.023 90.5912 163.629C90.2055 164.236 89.6139 164.539 88.8164 164.539C88.0514 164.539 87.4695 164.229 87.0708 163.61C86.672 162.988 86.4727 162.077 86.4727 160.877C86.4727 159.639 86.6656 158.72 87.0513 158.12C87.4371 157.52 88.0254 157.221 88.8164 157.221C89.5879 157.221 90.1731 157.533 90.5718 158.159C90.9738 158.785 91.1747 159.691 91.1747 160.877ZM87.2896 160.877C87.2896 161.911 87.4111 162.665 87.6543 163.138C87.8974 163.608 88.2848 163.843 88.8164 163.843C89.3545 163.843 89.7435 163.605 89.9834 163.129C90.2265 162.649 90.3481 161.898 90.3481 160.877C90.3481 159.856 90.2265 159.109 89.9834 158.636C89.7435 158.159 89.3545 157.921 88.8164 157.921C88.2848 157.921 87.8974 158.156 87.6543 158.626C87.4111 159.093 87.2896 159.843 87.2896 160.877ZM92.4147 163.926C92.4147 163.709 92.4633 163.545 92.5606 163.435C92.661 163.321 92.8037 163.265 92.9885 163.265C93.1765 163.265 93.3223 163.321 93.4261 163.435C93.5331 163.545 93.5865 163.709 93.5865 163.926C93.5865 164.137 93.5331 164.299 93.4261 164.412C93.3191 164.526 93.1732 164.582 92.9885 164.582C92.8231 164.582 92.6854 164.532 92.5751 164.432C92.4682 164.328 92.4147 164.159 92.4147 163.926ZM99.5285 160.877C99.5285 162.106 99.334 163.023 98.945 163.629C98.5593 164.236 97.9677 164.539 97.1702 164.539C96.4052 164.539 95.8233 164.229 95.4246 163.61C95.0258 162.988 94.8265 162.077 94.8265 160.877C94.8265 159.639 95.0194 158.72 95.4051 158.12C95.7909 157.52 96.3792 157.221 97.1702 157.221C97.9417 157.221 98.5269 157.533 98.9256 158.159C99.3275 158.785 99.5285 159.691 99.5285 160.877ZM95.6434 160.877C95.6434 161.911 95.7649 162.665 96.0081 163.138C96.2512 163.608 96.6386 163.843 97.1702 163.843C97.7083 163.843 98.0973 163.605 98.3372 163.129C98.5803 162.649 98.7019 161.898 98.7019 160.877C98.7019 159.856 98.5803 159.109 98.3372 158.636C98.0973 158.159 97.7083 157.921 97.1702 157.921C96.6386 157.921 96.2512 158.156 96.0081 158.626C95.7649 159.093 95.6434 159.843 95.6434 160.877ZM105.227 160.877C105.227 162.106 105.033 163.023 104.644 163.629C104.258 164.236 103.667 164.539 102.869 164.539C102.104 164.539 101.522 164.229 101.123 163.61C100.725 162.988 100.525 162.077 100.525 160.877C100.525 159.639 100.718 158.72 101.104 158.12C101.49 157.52 102.078 157.221 102.869 157.221C103.641 157.221 104.226 157.533 104.624 158.159C105.026 158.785 105.227 159.691 105.227 160.877ZM101.342 160.877C101.342 161.911 101.464 162.665 101.707 163.138C101.95 163.608 102.337 163.843 102.869 163.843C103.407 163.843 103.796 163.605 104.036 163.129C104.279 162.649 104.401 161.898 104.401 160.877C104.401 159.856 104.279 159.109 104.036 158.636C103.796 158.159 103.407 157.921 102.869 157.921C102.337 157.921 101.95 158.156 101.707 158.626C101.464 159.093 101.342 159.843 101.342 160.877ZM111.223 162.808H110.168V164.441H109.395V162.808H105.937V162.103L109.312 157.294H110.168V162.073H111.223V162.808ZM109.395 162.073V159.71C109.395 159.247 109.411 158.723 109.443 158.14H109.404C109.249 158.451 109.103 158.709 108.967 158.913L106.745 162.073H109.395ZM118.954 164.441H114.991V157.332H118.954V158.067H115.818V160.357H118.765V161.086H115.818V163.702H118.954V164.441ZM122.723 164.441H121.896V158.067H119.645V157.332H124.974V158.067H122.723V164.441ZM131.446 164.441H130.619V161.096H126.875V164.441H126.049V157.332H126.875V160.357H130.619V157.332H131.446V164.441ZM140.466 161.772C140.466 162.641 140.247 163.32 139.81 163.809C139.372 164.296 138.767 164.539 137.996 164.539C137.519 164.539 137.096 164.427 136.727 164.203C136.357 163.979 136.072 163.659 135.871 163.24C135.67 162.822 135.569 162.333 135.569 161.772C135.569 160.903 135.787 160.227 136.221 159.744C136.655 159.258 137.258 159.015 138.03 159.015C138.776 159.015 139.367 159.263 139.805 159.759C140.246 160.255 140.466 160.926 140.466 161.772ZM136.406 161.772C136.406 162.453 136.542 162.971 136.814 163.328C137.087 163.684 137.487 163.863 138.015 163.863C138.544 163.863 138.944 163.686 139.216 163.333C139.492 162.976 139.63 162.456 139.63 161.772C139.63 161.094 139.492 160.581 139.216 160.23C138.944 159.877 138.54 159.7 138.006 159.7C137.477 159.7 137.078 159.874 136.809 160.221C136.54 160.568 136.406 161.085 136.406 161.772ZM142.644 159.112V162.569C142.644 163.004 142.743 163.328 142.941 163.542C143.139 163.756 143.448 163.863 143.87 163.863C144.427 163.863 144.834 163.71 145.09 163.406C145.35 163.101 145.479 162.603 145.479 161.913V159.112H146.286V164.441H145.62L145.504 163.727H145.46C145.295 163.989 145.064 164.19 144.769 164.33C144.478 164.469 144.144 164.539 143.768 164.539C143.119 164.539 142.633 164.385 142.309 164.077C141.988 163.769 141.828 163.276 141.828 162.599V159.112H142.644ZM149.724 163.872C149.867 163.872 150.005 163.863 150.138 163.843C150.27 163.821 150.376 163.798 150.454 163.775V164.393C150.366 164.435 150.236 164.469 150.065 164.495C149.896 164.524 149.744 164.539 149.608 164.539C148.577 164.539 148.061 163.996 148.061 162.91V159.739H147.298V159.35L148.061 159.015L148.402 157.877H148.868V159.112H150.415V159.739H148.868V162.876C148.868 163.197 148.945 163.443 149.097 163.615C149.249 163.787 149.458 163.872 149.724 163.872ZM158.71 161.772C158.71 162.641 158.491 163.32 158.054 163.809C157.616 164.296 157.012 164.539 156.24 164.539C155.764 164.539 155.34 164.427 154.971 164.203C154.601 163.979 154.316 163.659 154.115 163.24C153.914 162.822 153.814 162.333 153.814 161.772C153.814 160.903 154.031 160.227 154.465 159.744C154.9 159.258 155.503 159.015 156.274 159.015C157.02 159.015 157.611 159.263 158.049 159.759C158.49 160.255 158.71 160.926 158.71 161.772ZM154.65 161.772C154.65 162.453 154.786 162.971 155.058 163.328C155.331 163.684 155.731 163.863 156.259 163.863C156.788 163.863 157.188 163.686 157.461 163.333C157.736 162.976 157.874 162.456 157.874 161.772C157.874 161.094 157.736 160.581 157.461 160.23C157.188 159.877 156.785 159.7 156.25 159.7C155.721 159.7 155.323 159.874 155.054 160.221C154.785 160.568 154.65 161.085 154.65 161.772ZM162.532 159.739H161.175V164.441H160.368V159.739H159.415V159.375L160.368 159.083V158.786C160.368 157.477 160.94 156.822 162.085 156.822C162.367 156.822 162.697 156.879 163.077 156.992L162.868 157.639C162.556 157.538 162.291 157.488 162.07 157.488C161.765 157.488 161.54 157.59 161.394 157.794C161.248 157.995 161.175 158.32 161.175 158.767V159.112H162.532V159.739ZM170.434 160.877C170.434 162.106 170.239 163.023 169.85 163.629C169.464 164.236 168.873 164.539 168.075 164.539C167.31 164.539 166.728 164.229 166.33 163.61C165.931 162.988 165.732 162.077 165.732 160.877C165.732 159.639 165.925 158.72 166.31 158.12C166.696 157.52 167.284 157.221 168.075 157.221C168.847 157.221 169.432 157.533 169.831 158.159C170.233 158.785 170.434 159.691 170.434 160.877ZM166.549 160.877C166.549 161.911 166.67 162.665 166.913 163.138C167.156 163.608 167.544 163.843 168.075 163.843C168.614 163.843 169.003 163.605 169.242 163.129C169.486 162.649 169.607 161.898 169.607 160.877C169.607 159.856 169.486 159.109 169.242 158.636C169.003 158.159 168.614 157.921 168.075 157.921C167.544 157.921 167.156 158.156 166.913 158.626C166.67 159.093 166.549 159.843 166.549 160.877ZM171.674 163.926C171.674 163.709 171.722 163.545 171.82 163.435C171.92 163.321 172.063 163.265 172.247 163.265C172.435 163.265 172.581 163.321 172.685 163.435C172.792 163.545 172.846 163.709 172.846 163.926C172.846 164.137 172.792 164.299 172.685 164.412C172.578 164.526 172.432 164.582 172.247 164.582C172.082 164.582 171.944 164.532 171.834 164.432C171.727 164.328 171.674 164.159 171.674 163.926ZM178.788 160.877C178.788 162.106 178.593 163.023 178.204 163.629C177.818 164.236 177.227 164.539 176.429 164.539C175.664 164.539 175.082 164.229 174.684 163.61C174.285 162.988 174.085 162.077 174.085 160.877C174.085 159.639 174.278 158.72 174.664 158.12C175.05 157.52 175.638 157.221 176.429 157.221C177.201 157.221 177.786 157.533 178.185 158.159C178.587 158.785 178.788 159.691 178.788 160.877ZM174.902 160.877C174.902 161.911 175.024 162.665 175.267 163.138C175.51 163.608 175.898 163.843 176.429 163.843C176.967 163.843 177.356 163.605 177.596 163.129C177.839 162.649 177.961 161.898 177.961 160.877C177.961 159.856 177.839 159.109 177.596 158.636C177.356 158.159 176.967 157.921 176.429 157.921C175.898 157.921 175.51 158.156 175.267 158.626C175.024 159.093 174.902 159.843 174.902 160.877ZM182.765 164.441H181.977V159.375C181.977 158.953 181.99 158.555 182.016 158.178C181.948 158.247 181.872 158.318 181.788 158.392C181.703 158.467 181.318 158.783 180.63 159.341L180.203 158.786L182.084 157.332H182.765V164.441ZM192.514 164.441H188.551V157.332H192.514V158.067H189.378V160.357H192.325V161.086H189.378V163.702H192.514V164.441ZM196.283 164.441H195.456V158.067H193.205V157.332H198.534V158.067H196.283V164.441ZM205.006 164.441H204.18V161.096H200.435V164.441H199.609V157.332H200.435V160.357H204.18V157.332H205.006V164.441ZM211.857 159.015C212.094 159.015 212.306 159.034 212.494 159.073L212.383 159.822C212.162 159.773 211.968 159.749 211.799 159.749C211.368 159.749 210.998 159.924 210.69 160.274C210.386 160.624 210.233 161.06 210.233 161.582V164.441H209.426V159.112H210.092L210.185 160.099H210.224C210.421 159.752 210.66 159.485 210.938 159.297C211.217 159.109 211.524 159.015 211.857 159.015ZM215.743 164.539C214.955 164.539 214.333 164.299 213.875 163.819C213.422 163.339 213.195 162.673 213.195 161.821C213.195 160.961 213.405 160.279 213.827 159.773C214.251 159.268 214.82 159.015 215.534 159.015C216.201 159.015 216.73 159.235 217.119 159.676C217.508 160.114 217.702 160.692 217.702 161.412V161.923H214.031C214.047 162.548 214.204 163.023 214.503 163.347C214.804 163.672 215.227 163.834 215.772 163.834C216.346 163.834 216.913 163.714 217.474 163.474V164.193C217.188 164.317 216.918 164.404 216.662 164.456C216.409 164.511 216.102 164.539 215.743 164.539ZM215.524 159.691C215.096 159.691 214.754 159.83 214.498 160.109C214.245 160.388 214.096 160.773 214.05 161.266H216.837C216.837 160.757 216.723 160.368 216.496 160.099C216.269 159.827 215.945 159.691 215.524 159.691ZM221.096 163.863C221.634 163.863 222.027 163.719 222.273 163.43C222.519 163.141 222.651 162.655 222.667 161.971V161.791C222.667 161.046 222.54 160.509 222.288 160.182C222.035 159.854 221.634 159.691 221.087 159.691C220.613 159.691 220.25 159.876 219.997 160.245C219.748 160.611 219.623 161.13 219.623 161.801C219.623 162.472 219.746 162.984 219.992 163.338C220.242 163.688 220.61 163.863 221.096 163.863ZM220.975 164.539C220.287 164.539 219.751 164.297 219.365 163.814C218.979 163.331 218.787 162.657 218.787 161.791C218.787 160.919 218.981 160.239 219.37 159.749C219.759 159.26 220.3 159.015 220.994 159.015C221.724 159.015 222.284 159.29 222.677 159.841H222.72L222.837 159.112H223.474V166.834H222.667V164.553C222.667 164.229 222.685 163.954 222.72 163.727H222.657C222.284 164.268 221.724 164.539 220.975 164.539ZM225.949 159.112V162.569C225.949 163.004 226.048 163.328 226.246 163.542C226.443 163.756 226.753 163.863 227.174 163.863C227.732 163.863 228.139 163.71 228.395 163.406C228.654 163.101 228.784 162.603 228.784 161.913V159.112H229.591V164.441H228.925L228.808 163.727H228.764C228.599 163.989 228.369 164.19 228.074 164.33C227.782 164.469 227.448 164.539 227.072 164.539C226.424 164.539 225.938 164.385 225.614 164.077C225.293 163.769 225.132 163.276 225.132 162.599V159.112H225.949ZM232.115 164.441H231.308V159.112H232.115V164.441ZM231.239 157.668C231.239 157.483 231.285 157.349 231.376 157.264C231.466 157.177 231.58 157.133 231.716 157.133C231.846 157.133 231.957 157.177 232.051 157.264C232.145 157.352 232.193 157.486 232.193 157.668C232.193 157.849 232.145 157.986 232.051 158.076C231.957 158.164 231.846 158.208 231.716 158.208C231.58 158.208 231.466 158.164 231.376 158.076C231.285 157.986 231.239 157.849 231.239 157.668ZM236.258 159.015C236.494 159.015 236.707 159.034 236.895 159.073L236.783 159.822C236.562 159.773 236.368 159.749 236.199 159.749C235.768 159.749 235.399 159.924 235.091 160.274C234.786 160.624 234.633 161.06 234.633 161.582V164.441H233.826V159.112H234.492L234.585 160.099H234.624C234.822 159.752 235.06 159.485 235.339 159.297C235.617 159.109 235.924 159.015 236.258 159.015ZM240.143 164.539C239.355 164.539 238.733 164.299 238.276 163.819C237.822 163.339 237.595 162.673 237.595 161.821C237.595 160.961 237.805 160.279 238.227 159.773C238.652 159.268 239.22 159.015 239.934 159.015C240.601 159.015 241.13 159.235 241.519 159.676C241.908 160.114 242.102 160.692 242.102 161.412V161.923H238.431C238.447 162.548 238.605 163.023 238.903 163.347C239.204 163.672 239.627 163.834 240.172 163.834C240.746 163.834 241.313 163.714 241.874 163.474V164.193C241.589 164.317 241.318 164.404 241.062 164.456C240.809 164.511 240.503 164.539 240.143 164.539ZM239.924 159.691C239.496 159.691 239.154 159.83 238.898 160.109C238.645 160.388 238.496 160.773 238.451 161.266H241.237C241.237 160.757 241.123 160.368 240.896 160.099C240.67 159.827 240.345 159.691 239.924 159.691ZM247.111 163.727H247.067C246.694 164.268 246.137 164.539 245.394 164.539C244.697 164.539 244.154 164.3 243.765 163.824C243.38 163.347 243.187 162.67 243.187 161.791C243.187 160.913 243.381 160.23 243.77 159.744C244.159 159.258 244.701 159.015 245.394 159.015C246.117 159.015 246.671 159.277 247.057 159.803H247.12L247.086 159.418L247.067 159.044V156.875H247.874V164.441H247.218L247.111 163.727ZM245.496 163.863C246.047 163.863 246.446 163.714 246.693 163.415C246.942 163.114 247.067 162.629 247.067 161.962V161.791C247.067 161.036 246.941 160.498 246.688 160.177C246.438 159.853 246.038 159.691 245.487 159.691C245.013 159.691 244.65 159.876 244.397 160.245C244.148 160.611 244.023 161.13 244.023 161.801C244.023 162.482 244.148 162.996 244.397 163.342C244.647 163.689 245.013 163.863 245.496 163.863Z" class="path-1"/>
<path d="M35.7169 111.111C35.7169 111.853 35.4738 112.422 34.9875 112.817C34.5013 113.213 33.8092 113.411 32.9112 113.411H32.1721V116.07H31.01V108.961H33.0571C33.9453 108.961 34.6099 109.143 35.0507 109.506C35.4949 109.869 35.7169 110.404 35.7169 111.111ZM32.1721 112.433H32.7897C33.3861 112.433 33.8238 112.329 34.1026 112.122C34.3813 111.914 34.5207 111.59 34.5207 111.149C34.5207 110.741 34.3959 110.436 34.1463 110.235C33.8967 110.034 33.5077 109.934 32.9793 109.934H32.1721V112.433ZM40.3801 116.07L40.1515 115.321H40.1126C39.8533 115.649 39.5923 115.873 39.3298 115.993C39.0672 116.109 38.7301 116.168 38.3184 116.168C37.79 116.168 37.3767 116.025 37.0784 115.74C36.7834 115.454 36.6359 115.051 36.6359 114.529C36.6359 113.975 36.8418 113.556 37.2535 113.274C37.6652 112.992 38.2924 112.838 39.1353 112.812L40.064 112.783V112.496C40.064 112.153 39.983 111.897 39.8209 111.728C39.662 111.556 39.414 111.47 39.0769 111.47C38.8014 111.47 38.5372 111.511 38.2843 111.592C38.0315 111.673 37.7883 111.769 37.5549 111.879L37.1854 111.062C37.4771 110.91 37.7964 110.794 38.1433 110.717C38.4902 110.636 38.8176 110.595 39.1255 110.595C39.8095 110.595 40.325 110.744 40.6718 111.042C41.0219 111.341 41.197 111.809 41.197 112.448V116.07H40.3801ZM38.6782 115.292C39.0931 115.292 39.4254 115.177 39.675 114.947C39.9278 114.714 40.0543 114.388 40.0543 113.97V113.503L39.3638 113.532C38.8257 113.552 38.4334 113.642 38.1871 113.804C37.9439 113.963 37.8224 114.208 37.8224 114.539C37.8224 114.779 37.8937 114.965 38.0363 115.098C38.179 115.227 38.3929 115.292 38.6782 115.292ZM41.975 110.692H43.2198L44.3138 113.741C44.4792 114.176 44.5894 114.584 44.6445 114.967H44.6834C44.7126 114.788 44.7661 114.573 44.8439 114.32C44.9217 114.064 45.3333 112.855 46.0789 110.692H47.314L45.014 116.785C44.5959 117.903 43.8989 118.463 42.9232 118.463C42.6703 118.463 42.4239 118.435 42.1841 118.38V117.476C42.3559 117.514 42.552 117.534 42.7724 117.534C43.3235 117.534 43.7109 117.215 43.9346 116.576L44.1339 116.07L41.975 110.692ZM55.1572 116.07H50.3385V115.205L52.1717 113.362C52.713 112.808 53.0712 112.415 53.2463 112.185C53.4246 111.952 53.5542 111.733 53.6353 111.529C53.7163 111.324 53.7568 111.106 53.7568 110.872C53.7568 110.551 53.6596 110.299 53.4651 110.114C53.2738 109.929 53.008 109.837 52.6676 109.837C52.3953 109.837 52.1311 109.887 51.875 109.987C51.6222 110.088 51.3288 110.269 50.9949 110.532L50.3774 109.778C50.7729 109.444 51.157 109.208 51.5298 109.068C51.9026 108.929 52.2997 108.859 52.7211 108.859C53.3824 108.859 53.9124 109.033 54.3112 109.379C54.7099 109.723 54.9093 110.187 54.9093 110.77C54.9093 111.091 54.8509 111.396 54.7342 111.684C54.6207 111.973 54.4441 112.271 54.2042 112.579C53.9676 112.884 53.5721 113.297 53.0177 113.819L51.7827 115.015V115.064H55.1572V116.07ZM60.5789 110.595C60.5789 111.046 60.4477 111.422 60.1851 111.723C59.9225 112.021 59.553 112.222 59.0764 112.326V112.365C59.647 112.436 60.0749 112.615 60.3601 112.9C60.6454 113.182 60.788 113.558 60.788 114.028C60.788 114.712 60.5465 115.24 60.0635 115.613C59.5805 115.983 58.8933 116.168 58.0018 116.168C57.2141 116.168 56.5495 116.04 56.0082 115.783V114.767C56.3097 114.916 56.629 115.031 56.9661 115.112C57.3032 115.193 57.6274 115.234 57.9386 115.234C58.4897 115.234 58.9014 115.132 59.1737 114.928C59.446 114.723 59.5821 114.407 59.5821 113.979C59.5821 113.6 59.4314 113.321 59.1299 113.143C58.8284 112.965 58.3552 112.876 57.7101 112.876H57.0925V111.947H57.7198C58.8544 111.947 59.4217 111.555 59.4217 110.77C59.4217 110.465 59.3228 110.23 59.1251 110.065C58.9273 109.9 58.6356 109.817 58.2498 109.817C57.9807 109.817 57.7214 109.856 57.4718 109.934C57.2222 110.008 56.9272 110.156 56.5868 110.376L56.0276 109.579C56.6792 109.099 57.4361 108.859 58.2984 108.859C59.0148 108.859 59.574 109.013 59.976 109.321C60.378 109.629 60.5789 110.054 60.5789 110.595ZM66.5355 112.516C66.5355 113.751 66.3362 114.668 65.9374 115.268C65.542 115.868 64.9358 116.168 64.1189 116.168C63.3279 116.168 62.7282 115.858 62.3197 115.239C61.9113 114.62 61.7071 113.712 61.7071 112.516C61.7071 111.261 61.9048 110.337 62.3003 109.744C62.699 109.148 63.3052 108.849 64.1189 108.849C64.9131 108.849 65.5144 109.161 65.9229 109.783C66.3313 110.405 66.5355 111.316 66.5355 112.516ZM62.8643 112.516C62.8643 113.485 62.9632 114.177 63.1609 114.592C63.3619 115.007 63.6812 115.215 64.1189 115.215C64.5565 115.215 64.8758 115.004 65.0768 114.582C65.281 114.161 65.3831 113.472 65.3831 112.516C65.3831 111.563 65.281 110.874 65.0768 110.449C64.8758 110.021 64.5565 109.807 64.1189 109.807C63.6812 109.807 63.3619 110.016 63.1609 110.435C62.9632 110.853 62.8643 111.547 62.8643 112.516ZM76.2751 112.448C76.2751 113.621 75.9494 114.519 75.2978 115.142C74.6462 115.761 73.7077 116.07 72.4824 116.07H70.4936V108.961H72.6915C73.8228 108.961 74.7029 109.266 75.3318 109.875C75.9607 110.485 76.2751 111.342 76.2751 112.448ZM75.0498 112.487C75.0498 110.785 74.254 109.934 72.6623 109.934H71.6558V115.093H72.4824C74.194 115.093 75.0498 114.224 75.0498 112.487ZM82.2171 116.07L81.5072 114.096H78.7891L78.0937 116.07H76.8684L79.5282 108.932H80.7924L83.4522 116.07H82.2171ZM81.2009 113.094L80.5347 111.159C80.4861 111.03 80.418 110.825 80.3305 110.546C80.2462 110.268 80.1878 110.063 80.1554 109.934C80.0679 110.333 79.9399 110.769 79.7713 111.242L79.1294 113.094H81.2009ZM84.3907 116.07V108.961H85.5528V116.07H84.3907Z" class="path-2"/>
<circle cx="295.393" cy="113.606" r="8.18014" stroke-width="0.711316" class="circle-1"/>
<g clip-path="url(#clip0_14063_183957)">
<path d="M38.4901 125.062L38.1129 124.685C37.9566 124.528 37.7033 124.528 37.547 124.685L37.4527 124.779L35.5666 122.893L35.6609 122.799C35.8171 122.642 35.8171 122.389 35.6609 122.233L35.2837 121.855C35.1274 121.699 34.8741 121.699 34.7178 121.855L32.643 123.93C32.4868 124.087 32.4868 124.34 32.643 124.496L33.0203 124.873C33.1765 125.03 33.4299 125.03 33.5861 124.873L33.6804 124.779L34.3406 125.439L32.9895 126.79L32.8952 126.696C32.6869 126.488 32.3491 126.488 32.1407 126.696L30.2278 128.609C30.0194 128.817 30.0194 129.155 30.2278 129.363L30.9823 130.118C31.1906 130.326 31.5284 130.326 31.7367 130.118L33.6497 128.205C33.858 127.997 33.858 127.659 33.6497 127.45L33.5554 127.356L34.9064 126.005L35.5666 126.665L35.4723 126.759C35.316 126.916 35.316 127.169 35.4723 127.325L35.8495 127.703C36.0058 127.859 36.2591 127.859 36.4153 127.703L38.4901 125.628C38.6464 125.472 38.6464 125.218 38.4901 125.062Z" class="path-3"/>
</g>
<path d="M41.9693 130.612C41.7082 130.612 41.5025 130.575 41.3525 130.5V129.896C41.5498 129.951 41.7554 129.979 41.9693 129.979C42.2444 129.979 42.4528 129.896 42.5945 129.729C42.739 129.562 42.8113 129.322 42.8113 129.008V122.914H43.5198V128.949C43.5198 129.477 43.3864 129.886 43.1197 130.175C42.8529 130.467 42.4695 130.612 41.9693 130.612ZM45.6871 124.44V127.403C45.6871 127.776 45.7718 128.053 45.9413 128.237C46.1108 128.42 46.3762 128.512 46.7374 128.512C47.2153 128.512 47.564 128.381 47.7835 128.12C48.0058 127.859 48.1169 127.432 48.1169 126.841V124.44H48.8088V129.008H48.2378L48.1378 128.395H48.1003C47.9586 128.62 47.7613 128.792 47.5084 128.912C47.2584 129.031 46.9722 129.091 46.6499 129.091C46.0941 129.091 45.6774 128.959 45.3995 128.695C45.1244 128.431 44.9869 128.009 44.9869 127.428V124.44H45.6871ZM52.364 124.356C52.5668 124.356 52.7488 124.373 52.91 124.406L52.8141 125.048C52.6252 125.007 52.4585 124.986 52.314 124.986C51.9444 124.986 51.6277 125.136 51.3637 125.436C51.1025 125.736 50.9719 126.11 50.9719 126.557V129.008H50.2801V124.44H50.8511L50.9303 125.286H50.9636C51.1331 124.989 51.3373 124.759 51.5763 124.598C51.8152 124.437 52.0778 124.356 52.364 124.356ZM53.0392 124.44H53.7811L54.7814 127.045C55.0009 127.639 55.137 128.069 55.1898 128.333H55.2232C55.2593 128.191 55.3343 127.949 55.4482 127.607C55.5649 127.263 55.9428 126.207 56.5819 124.44H57.3238L55.3607 129.641C55.1662 130.155 54.9384 130.519 54.6772 130.733C54.4188 130.95 54.1006 131.058 53.7227 131.058C53.5116 131.058 53.3032 131.035 53.0976 130.988V130.433C53.2504 130.467 53.4213 130.483 53.6102 130.483C54.0853 130.483 54.4243 130.216 54.6272 129.683L54.8814 129.033L53.0392 124.44ZM63.3922 128.395H63.3547C63.0351 128.859 62.5572 129.091 61.9209 129.091C61.3235 129.091 60.8581 128.887 60.5247 128.478C60.194 128.07 60.0287 127.489 60.0287 126.736C60.0287 125.983 60.1954 125.398 60.5289 124.982C60.8623 124.565 61.3263 124.356 61.9209 124.356C62.5406 124.356 63.0157 124.582 63.3463 125.032H63.4005L63.3714 124.702L63.3547 124.381V122.523H64.0465V129.008H63.4839L63.3922 128.395ZM62.0085 128.512C62.4808 128.512 62.8226 128.384 63.0338 128.128C63.2477 127.87 63.3547 127.455 63.3547 126.882V126.736C63.3547 126.089 63.2463 125.628 63.0296 125.353C62.8156 125.075 62.4725 124.936 62.0001 124.936C61.5945 124.936 61.2832 125.094 61.0665 125.411C60.8526 125.725 60.7456 126.169 60.7456 126.745C60.7456 127.328 60.8526 127.769 61.0665 128.066C61.2805 128.363 61.5945 128.512 62.0085 128.512ZM67.4475 129.091C66.7723 129.091 66.2388 128.886 65.8471 128.474C65.4581 128.063 65.2636 127.492 65.2636 126.761C65.2636 126.025 65.4442 125.44 65.8054 125.007C66.1694 124.573 66.657 124.356 67.2683 124.356C67.8407 124.356 68.2936 124.545 68.627 124.923C68.9605 125.298 69.1272 125.794 69.1272 126.411V126.849H65.9804C65.9943 127.385 66.1291 127.792 66.3847 128.07C66.6431 128.348 67.0057 128.487 67.4725 128.487C67.9643 128.487 68.4506 128.384 68.9313 128.178V128.795C68.6868 128.901 68.4548 128.976 68.2353 129.02C68.0185 129.068 67.756 129.091 67.4475 129.091ZM67.26 124.936C66.8932 124.936 66.6001 125.055 66.3806 125.294C66.1638 125.533 66.036 125.864 65.9971 126.286H68.3853C68.3853 125.85 68.288 125.517 68.0935 125.286C67.899 125.053 67.6212 124.936 67.26 124.936ZM72.1364 129.091C71.4751 129.091 70.9624 128.888 70.5984 128.483C70.2372 128.074 70.0566 127.498 70.0566 126.753C70.0566 125.989 70.24 125.398 70.6068 124.982C70.9763 124.565 71.5015 124.356 72.1822 124.356C72.4017 124.356 72.6212 124.38 72.8408 124.427C73.0603 124.475 73.2325 124.53 73.3576 124.594L73.145 125.182C72.9922 125.121 72.8255 125.071 72.6449 125.032C72.4643 124.99 72.3045 124.969 72.1656 124.969C71.2375 124.969 70.7735 125.561 70.7735 126.745C70.7735 127.306 70.886 127.737 71.1111 128.037C71.3389 128.337 71.6751 128.487 72.1197 128.487C72.5004 128.487 72.8908 128.405 73.2909 128.241V128.854C72.9852 129.012 72.6004 129.091 72.1364 129.091ZM75.0706 129.008H74.3787V124.44H75.0706V129.008ZM74.3203 123.202C74.3203 123.044 74.3592 122.928 74.437 122.856C74.5148 122.781 74.6121 122.744 74.7288 122.744C74.8399 122.744 74.9358 122.781 75.0164 122.856C75.097 122.931 75.1372 123.046 75.1372 123.202C75.1372 123.358 75.097 123.474 75.0164 123.552C74.9358 123.627 74.8399 123.665 74.7288 123.665C74.6121 123.665 74.5148 123.627 74.437 123.552C74.3592 123.474 74.3203 123.358 74.3203 123.202ZM79.4843 127.762C79.4843 128.187 79.326 128.515 79.0092 128.745C78.6924 128.976 78.2479 129.091 77.6755 129.091C77.0698 129.091 76.5974 128.995 76.2584 128.804V128.162C76.4779 128.273 76.7127 128.36 76.9628 128.424C77.2156 128.488 77.4588 128.52 77.6922 128.52C78.0534 128.52 78.3312 128.463 78.5257 128.349C78.7202 128.233 78.8175 128.056 78.8175 127.82C78.8175 127.642 78.7397 127.491 78.5841 127.366C78.4313 127.238 78.1312 127.088 77.6838 126.916C77.2587 126.757 76.9558 126.62 76.7752 126.503C76.5974 126.383 76.464 126.249 76.3751 126.099C76.289 125.949 76.2459 125.769 76.2459 125.561C76.2459 125.189 76.3973 124.896 76.7002 124.682C77.0031 124.465 77.4185 124.356 77.9464 124.356C78.4382 124.356 78.9189 124.456 79.3885 124.657L79.1426 125.219C78.6841 125.03 78.2687 124.936 77.8964 124.936C77.5685 124.936 77.3212 124.987 77.1545 125.09C76.9878 125.193 76.9044 125.335 76.9044 125.515C76.9044 125.637 76.935 125.742 76.9961 125.828C77.06 125.914 77.1614 125.996 77.3004 126.074C77.4393 126.151 77.706 126.264 78.1006 126.411C78.6424 126.609 79.0078 126.807 79.1968 127.007C79.3885 127.207 79.4843 127.459 79.4843 127.762ZM81.3057 129.008H80.6138V124.44H81.3057V129.008ZM80.5555 123.202C80.5555 123.044 80.5944 122.928 80.6722 122.856C80.75 122.781 80.8472 122.744 80.9639 122.744C81.0751 122.744 81.1709 122.781 81.2515 122.856C81.3321 122.931 81.3724 123.046 81.3724 123.202C81.3724 123.358 81.3321 123.474 81.2515 123.552C81.1709 123.627 81.0751 123.665 80.9639 123.665C80.8472 123.665 80.75 123.627 80.6722 123.552C80.5944 123.474 80.5555 123.358 80.5555 123.202ZM86.7156 126.72C86.7156 127.464 86.528 128.046 86.1529 128.466C85.7778 128.883 85.2596 129.091 84.5983 129.091C84.1899 129.091 83.8273 128.995 83.5105 128.804C83.1937 128.612 82.9492 128.337 82.777 127.978C82.6047 127.62 82.5185 127.2 82.5185 126.72C82.5185 125.975 82.7047 125.396 83.077 124.982C83.4494 124.565 83.9662 124.356 84.6275 124.356C85.2666 124.356 85.7737 124.569 86.1488 124.994C86.5266 125.419 86.7156 125.994 86.7156 126.72ZM83.2354 126.72C83.2354 127.303 83.3521 127.748 83.5855 128.053C83.8189 128.359 84.1621 128.512 84.615 128.512C85.0679 128.512 85.411 128.36 85.6444 128.058C85.8806 127.752 85.9987 127.306 85.9987 126.72C85.9987 126.139 85.8806 125.699 85.6444 125.398C85.411 125.096 85.0651 124.944 84.6066 124.944C84.1537 124.944 83.812 125.093 83.5814 125.39C83.3507 125.687 83.2354 126.131 83.2354 126.72ZM91.0585 129.008V126.053C91.0585 125.68 90.9738 125.403 90.8043 125.219C90.6348 125.036 90.3694 124.944 90.0082 124.944C89.5303 124.944 89.1802 125.073 88.9579 125.332C88.7356 125.59 88.6245 126.017 88.6245 126.611V129.008H87.9326V124.44H88.4953L88.6078 125.065H88.6411C88.7829 124.84 88.9815 124.666 89.2372 124.544C89.4928 124.419 89.7776 124.356 90.0916 124.356C90.6417 124.356 91.0557 124.49 91.3336 124.757C91.6114 125.021 91.7504 125.444 91.7504 126.028V129.008H91.0585ZM95.0097 127.036V126.403H97.0561V127.036H95.0097ZM105.784 129.008H105.083L103.854 124.927C103.796 124.747 103.73 124.519 103.658 124.244C103.586 123.969 103.548 123.804 103.545 123.748C103.484 124.115 103.387 124.516 103.254 124.952L102.062 129.008H101.361L99.7402 122.914H100.49L101.453 126.678C101.587 127.206 101.684 127.684 101.745 128.112C101.82 127.603 101.931 127.106 102.078 126.62L103.17 122.914H103.921L105.067 126.653C105.2 127.084 105.313 127.57 105.404 128.112C105.457 127.717 105.557 127.236 105.704 126.67L106.663 122.914H107.413L105.784 129.008ZM108.955 129.008H108.263V124.44H108.955V129.008ZM108.205 123.202C108.205 123.044 108.244 122.928 108.322 122.856C108.4 122.781 108.497 122.744 108.614 122.744C108.725 122.744 108.821 122.781 108.901 122.856C108.982 122.931 109.022 123.046 109.022 123.202C109.022 123.358 108.982 123.474 108.901 123.552C108.821 123.627 108.725 123.665 108.614 123.665C108.497 123.665 108.4 123.627 108.322 123.552C108.244 123.474 108.205 123.358 108.205 123.202ZM113.548 129.008V126.053C113.548 125.68 113.464 125.403 113.294 125.219C113.125 125.036 112.859 124.944 112.498 124.944C112.02 124.944 111.67 125.073 111.448 125.332C111.225 125.59 111.114 126.017 111.114 126.611V129.008H110.422V124.44H110.985L111.098 125.065H111.131C111.273 124.84 111.471 124.666 111.727 124.544C111.983 124.419 112.267 124.356 112.581 124.356C113.132 124.356 113.546 124.49 113.823 124.757C114.101 125.021 114.24 125.444 114.24 126.028V129.008H113.548ZM118.792 129.008V126.053C118.792 125.68 118.707 125.403 118.537 125.219C118.368 125.036 118.102 124.944 117.741 124.944C117.263 124.944 116.913 125.073 116.691 125.332C116.469 125.59 116.357 126.017 116.357 126.611V129.008H115.666V124.44H116.228L116.341 125.065H116.374C116.516 124.84 116.715 124.666 116.97 124.544C117.226 124.419 117.511 124.356 117.825 124.356C118.375 124.356 118.789 124.49 119.067 124.757C119.344 125.021 119.483 125.444 119.483 126.028V129.008H118.792ZM122.839 129.091C122.163 129.091 121.63 128.886 121.238 128.474C120.849 128.063 120.655 127.492 120.655 126.761C120.655 126.025 120.835 125.44 121.196 125.007C121.56 124.573 122.048 124.356 122.659 124.356C123.232 124.356 123.685 124.545 124.018 124.923C124.351 125.298 124.518 125.794 124.518 126.411V126.849H121.371C121.385 127.385 121.52 127.792 121.776 128.07C122.034 128.348 122.397 128.487 122.864 128.487C123.355 128.487 123.842 128.384 124.322 128.178V128.795C124.078 128.901 123.846 128.976 123.626 129.02C123.41 129.068 123.147 129.091 122.839 129.091ZM122.651 124.936C122.284 124.936 121.991 125.055 121.772 125.294C121.555 125.533 121.427 125.864 121.388 126.286H123.776C123.776 125.85 123.679 125.517 123.485 125.286C123.29 125.053 123.012 124.936 122.651 124.936ZM127.786 124.356C127.989 124.356 128.171 124.373 128.332 124.406L128.236 125.048C128.047 125.007 127.88 124.986 127.736 124.986C127.366 124.986 127.049 125.136 126.785 125.436C126.524 125.736 126.394 126.11 126.394 126.557V129.008H125.702V124.44H126.273L126.352 125.286H126.385C126.555 124.989 126.759 124.759 126.998 124.598C127.237 124.437 127.5 124.356 127.786 124.356Z" class="path-4"/>
<g filter="url(#filter1_d_14063_183957)">
<rect x="13" y="210.348" width="308" height="113.099" rx="2.13395" class="rect-6"/>
<rect x="13.3557" y="210.703" width="307.289" height="112.388" rx="1.77829" stroke-width="0.711316" class="rect-7"/>
</g>
<rect x="30.0715" y="300.684" width="273.857" height="5.69053" rx="2.84527" class="rect-8"/>
<rect x="30.0715" y="300.684" width="164.314" height="5.69053" rx="2.84527" class="rect-9"/>
<path d="M91.1747 283.225C91.1747 284.453 90.9802 285.371 90.5912 285.977C90.2055 286.583 89.6139 286.886 88.8164 286.886C88.0514 286.886 87.4695 286.577 87.0708 285.958C86.672 285.335 86.4727 284.424 86.4727 283.225C86.4727 281.987 86.6656 281.068 87.0513 280.468C87.4371 279.868 88.0254 279.568 88.8164 279.568C89.5879 279.568 90.1731 279.881 90.5718 280.507C90.9738 281.132 91.1747 282.038 91.1747 283.225ZM87.2896 283.225C87.2896 284.259 87.4111 285.013 87.6543 285.486C87.8974 285.956 88.2848 286.191 88.8164 286.191C89.3545 286.191 89.7435 285.953 89.9834 285.476C90.2265 284.996 90.3481 284.246 90.3481 283.225C90.3481 282.204 90.2265 281.457 89.9834 280.983C89.7435 280.507 89.3545 280.268 88.8164 280.268C88.2848 280.268 87.8974 280.503 87.6543 280.973C87.4111 281.44 87.2896 282.191 87.2896 283.225ZM92.4147 286.274C92.4147 286.056 92.4633 285.893 92.5606 285.783C92.661 285.669 92.8037 285.612 92.9885 285.612C93.1765 285.612 93.3223 285.669 93.4261 285.783C93.5331 285.893 93.5865 286.056 93.5865 286.274C93.5865 286.484 93.5331 286.646 93.4261 286.76C93.3191 286.873 93.1732 286.93 92.9885 286.93C92.8231 286.93 92.6854 286.88 92.5751 286.779C92.4682 286.676 92.4147 286.507 92.4147 286.274ZM99.5285 283.225C99.5285 284.453 99.334 285.371 98.945 285.977C98.5593 286.583 97.9677 286.886 97.1702 286.886C96.4052 286.886 95.8233 286.577 95.4246 285.958C95.0258 285.335 94.8265 284.424 94.8265 283.225C94.8265 281.987 95.0194 281.068 95.4051 280.468C95.7909 279.868 96.3792 279.568 97.1702 279.568C97.9417 279.568 98.5269 279.881 98.9256 280.507C99.3275 281.132 99.5285 282.038 99.5285 283.225ZM95.6434 283.225C95.6434 284.259 95.7649 285.013 96.0081 285.486C96.2512 285.956 96.6386 286.191 97.1702 286.191C97.7083 286.191 98.0973 285.953 98.3372 285.476C98.5803 284.996 98.7019 284.246 98.7019 283.225C98.7019 282.204 98.5803 281.457 98.3372 280.983C98.0973 280.507 97.7083 280.268 97.1702 280.268C96.6386 280.268 96.2512 280.503 96.0081 280.973C95.7649 281.44 95.6434 282.191 95.6434 283.225ZM105.227 283.225C105.227 284.453 105.033 285.371 104.644 285.977C104.258 286.583 103.667 286.886 102.869 286.886C102.104 286.886 101.522 286.577 101.123 285.958C100.725 285.335 100.525 284.424 100.525 283.225C100.525 281.987 100.718 281.068 101.104 280.468C101.49 279.868 102.078 279.568 102.869 279.568C103.641 279.568 104.226 279.881 104.624 280.507C105.026 281.132 105.227 282.038 105.227 283.225ZM101.342 283.225C101.342 284.259 101.464 285.013 101.707 285.486C101.95 285.956 102.337 286.191 102.869 286.191C103.407 286.191 103.796 285.953 104.036 285.476C104.279 284.996 104.401 284.246 104.401 283.225C104.401 282.204 104.279 281.457 104.036 280.983C103.796 280.507 103.407 280.268 102.869 280.268C102.337 280.268 101.95 280.503 101.707 280.973C101.464 281.44 101.342 282.191 101.342 283.225ZM111.223 285.155H110.168V286.789H109.395V285.155H105.937V284.45L109.312 279.641H110.168V284.421H111.223V285.155ZM109.395 284.421V282.058C109.395 281.594 109.411 281.071 109.443 280.487H109.404C109.249 280.798 109.103 281.056 108.967 281.26L106.745 284.421H109.395ZM118.954 286.789H114.991V279.68H118.954V280.414H115.818V282.705H118.765V283.434H115.818V286.05H118.954V286.789ZM122.723 286.789H121.896V280.414H119.645V279.68H124.974V280.414H122.723V286.789ZM131.446 286.789H130.619V283.444H126.875V286.789H126.049V279.68H126.875V282.705H130.619V279.68H131.446V286.789ZM140.466 284.12C140.466 284.988 140.247 285.667 139.81 286.157C139.372 286.643 138.767 286.886 137.996 286.886C137.519 286.886 137.096 286.774 136.727 286.551C136.357 286.327 136.072 286.006 135.871 285.588C135.67 285.17 135.569 284.68 135.569 284.12C135.569 283.251 135.787 282.575 136.221 282.092C136.655 281.606 137.258 281.362 138.03 281.362C138.776 281.362 139.367 281.61 139.805 282.106C140.246 282.602 140.466 283.273 140.466 284.12ZM136.406 284.12C136.406 284.8 136.542 285.319 136.814 285.676C137.087 286.032 137.487 286.21 138.015 286.21C138.544 286.21 138.944 286.034 139.216 285.68C139.492 285.324 139.63 284.804 139.63 284.12C139.63 283.442 139.492 282.928 139.216 282.578C138.944 282.225 138.54 282.048 138.006 282.048C137.477 282.048 137.078 282.222 136.809 282.568C136.54 282.915 136.406 283.432 136.406 284.12ZM142.644 281.46V284.917C142.644 285.351 142.743 285.676 142.941 285.889C143.139 286.103 143.448 286.21 143.87 286.21C144.427 286.21 144.834 286.058 145.09 285.753C145.35 285.449 145.479 284.951 145.479 284.261V281.46H146.286V286.789H145.62L145.504 286.074H145.46C145.295 286.337 145.064 286.538 144.769 286.677C144.478 286.817 144.144 286.886 143.768 286.886C143.119 286.886 142.633 286.732 142.309 286.424C141.988 286.116 141.828 285.624 141.828 284.946V281.46H142.644ZM149.724 286.22C149.867 286.22 150.005 286.21 150.138 286.191C150.27 286.168 150.376 286.146 150.454 286.123V286.74C150.366 286.783 150.236 286.817 150.065 286.843C149.896 286.872 149.744 286.886 149.608 286.886C148.577 286.886 148.061 286.343 148.061 285.257V282.087H147.298V281.698L148.061 281.362L148.402 280.225H148.868V281.46H150.415V282.087H148.868V285.223C148.868 285.544 148.945 285.791 149.097 285.962C149.249 286.134 149.458 286.22 149.724 286.22ZM158.71 284.12C158.71 284.988 158.491 285.667 158.054 286.157C157.616 286.643 157.012 286.886 156.24 286.886C155.764 286.886 155.34 286.774 154.971 286.551C154.601 286.327 154.316 286.006 154.115 285.588C153.914 285.17 153.814 284.68 153.814 284.12C153.814 283.251 154.031 282.575 154.465 282.092C154.9 281.606 155.503 281.362 156.274 281.362C157.02 281.362 157.611 281.61 158.049 282.106C158.49 282.602 158.71 283.273 158.71 284.12ZM154.65 284.12C154.65 284.8 154.786 285.319 155.058 285.676C155.331 286.032 155.731 286.21 156.259 286.21C156.788 286.21 157.188 286.034 157.461 285.68C157.736 285.324 157.874 284.804 157.874 284.12C157.874 283.442 157.736 282.928 157.461 282.578C157.188 282.225 156.785 282.048 156.25 282.048C155.721 282.048 155.323 282.222 155.054 282.568C154.785 282.915 154.65 283.432 154.65 284.12ZM162.532 282.087H161.175V286.789H160.368V282.087H159.415V281.722L160.368 281.431V281.134C160.368 279.824 160.94 279.17 162.085 279.17C162.367 279.17 162.697 279.226 163.077 279.34L162.868 279.986C162.556 279.886 162.291 279.836 162.07 279.836C161.765 279.836 161.54 279.938 161.394 280.142C161.248 280.343 161.175 280.667 161.175 281.115V281.46H162.532V282.087ZM170.434 283.225C170.434 284.453 170.239 285.371 169.85 285.977C169.464 286.583 168.873 286.886 168.075 286.886C167.31 286.886 166.728 286.577 166.33 285.958C165.931 285.335 165.732 284.424 165.732 283.225C165.732 281.987 165.925 281.068 166.31 280.468C166.696 279.868 167.284 279.568 168.075 279.568C168.847 279.568 169.432 279.881 169.831 280.507C170.233 281.132 170.434 282.038 170.434 283.225ZM166.549 283.225C166.549 284.259 166.67 285.013 166.913 285.486C167.156 285.956 167.544 286.191 168.075 286.191C168.614 286.191 169.003 285.953 169.242 285.476C169.486 284.996 169.607 284.246 169.607 283.225C169.607 282.204 169.486 281.457 169.242 280.983C169.003 280.507 168.614 280.268 168.075 280.268C167.544 280.268 167.156 280.503 166.913 280.973C166.67 281.44 166.549 282.191 166.549 283.225ZM171.674 286.274C171.674 286.056 171.722 285.893 171.82 285.783C171.92 285.669 172.063 285.612 172.247 285.612C172.435 285.612 172.581 285.669 172.685 285.783C172.792 285.893 172.846 286.056 172.846 286.274C172.846 286.484 172.792 286.646 172.685 286.76C172.578 286.873 172.432 286.93 172.247 286.93C172.082 286.93 171.944 286.88 171.834 286.779C171.727 286.676 171.674 286.507 171.674 286.274ZM178.788 283.225C178.788 284.453 178.593 285.371 178.204 285.977C177.818 286.583 177.227 286.886 176.429 286.886C175.664 286.886 175.082 286.577 174.684 285.958C174.285 285.335 174.085 284.424 174.085 283.225C174.085 281.987 174.278 281.068 174.664 280.468C175.05 279.868 175.638 279.568 176.429 279.568C177.201 279.568 177.786 279.881 178.185 280.507C178.587 281.132 178.788 282.038 178.788 283.225ZM174.902 283.225C174.902 284.259 175.024 285.013 175.267 285.486C175.51 285.956 175.898 286.191 176.429 286.191C176.967 286.191 177.356 285.953 177.596 285.476C177.839 284.996 177.961 284.246 177.961 283.225C177.961 282.204 177.839 281.457 177.596 280.983C177.356 280.507 176.967 280.268 176.429 280.268C175.898 280.268 175.51 280.503 175.267 280.973C175.024 281.44 174.902 282.191 174.902 283.225ZM182.765 286.789H181.977V281.722C181.977 281.301 181.99 280.902 182.016 280.526C181.948 280.594 181.872 280.666 181.788 280.74C181.703 280.815 181.318 281.131 180.63 281.688L180.203 281.134L182.084 279.68H182.765V286.789ZM192.514 286.789H188.551V279.68H192.514V280.414H189.378V282.705H192.325V283.434H189.378V286.05H192.514V286.789ZM196.283 286.789H195.456V280.414H193.205V279.68H198.534V280.414H196.283V286.789ZM205.006 286.789H204.18V283.444H200.435V286.789H199.609V279.68H200.435V282.705H204.18V279.68H205.006V286.789ZM211.857 281.362C212.094 281.362 212.306 281.382 212.494 281.421L212.383 282.17C212.162 282.121 211.968 282.097 211.799 282.097C211.368 282.097 210.998 282.272 210.69 282.622C210.386 282.972 210.233 283.408 210.233 283.93V286.789H209.426V281.46H210.092L210.185 282.447H210.224C210.421 282.1 210.66 281.833 210.938 281.645C211.217 281.457 211.524 281.362 211.857 281.362ZM215.743 286.886C214.955 286.886 214.333 286.646 213.875 286.167C213.422 285.687 213.195 285.021 213.195 284.168C213.195 283.309 213.405 282.627 213.827 282.121C214.251 281.615 214.82 281.362 215.534 281.362C216.201 281.362 216.73 281.583 217.119 282.024C217.508 282.461 217.702 283.04 217.702 283.76V284.27H214.031C214.047 284.896 214.204 285.371 214.503 285.695C214.804 286.019 215.227 286.181 215.772 286.181C216.346 286.181 216.913 286.061 217.474 285.821V286.541C217.188 286.664 216.918 286.752 216.662 286.804C216.409 286.859 216.102 286.886 215.743 286.886ZM215.524 282.038C215.096 282.038 214.754 282.178 214.498 282.457C214.245 282.735 214.096 283.121 214.05 283.614H216.837C216.837 283.105 216.723 282.716 216.496 282.447C216.269 282.175 215.945 282.038 215.524 282.038ZM221.096 286.21C221.634 286.21 222.027 286.066 222.273 285.778C222.519 285.489 222.651 285.003 222.667 284.319V284.139C222.667 283.393 222.54 282.857 222.288 282.529C222.035 282.202 221.634 282.038 221.087 282.038C220.613 282.038 220.25 282.223 219.997 282.593C219.748 282.959 219.623 283.478 219.623 284.149C219.623 284.82 219.746 285.332 219.992 285.685C220.242 286.035 220.61 286.21 221.096 286.21ZM220.975 286.886C220.287 286.886 219.751 286.645 219.365 286.162C218.979 285.679 218.787 285.005 218.787 284.139C218.787 283.267 218.981 282.586 219.37 282.097C219.759 281.607 220.3 281.362 220.994 281.362C221.724 281.362 222.284 281.638 222.677 282.189H222.72L222.837 281.46H223.474V289.181H222.667V286.901C222.667 286.577 222.685 286.301 222.72 286.074H222.657C222.284 286.616 221.724 286.886 220.975 286.886ZM225.949 281.46V284.917C225.949 285.351 226.048 285.676 226.246 285.889C226.443 286.103 226.753 286.21 227.174 286.21C227.732 286.21 228.139 286.058 228.395 285.753C228.654 285.449 228.784 284.951 228.784 284.261V281.46H229.591V286.789H228.925L228.808 286.074H228.764C228.599 286.337 228.369 286.538 228.074 286.677C227.782 286.817 227.448 286.886 227.072 286.886C226.424 286.886 225.938 286.732 225.614 286.424C225.293 286.116 225.132 285.624 225.132 284.946V281.46H225.949ZM232.115 286.789H231.308V281.46H232.115V286.789ZM231.239 280.016C231.239 279.831 231.285 279.696 231.376 279.612C231.466 279.524 231.58 279.481 231.716 279.481C231.846 279.481 231.957 279.524 232.051 279.612C232.145 279.7 232.193 279.834 232.193 280.016C232.193 280.197 232.145 280.333 232.051 280.424C231.957 280.512 231.846 280.555 231.716 280.555C231.58 280.555 231.466 280.512 231.376 280.424C231.285 280.333 231.239 280.197 231.239 280.016ZM236.258 281.362C236.494 281.362 236.707 281.382 236.895 281.421L236.783 282.17C236.562 282.121 236.368 282.097 236.199 282.097C235.768 282.097 235.399 282.272 235.091 282.622C234.786 282.972 234.633 283.408 234.633 283.93V286.789H233.826V281.46H234.492L234.585 282.447H234.624C234.822 282.1 235.06 281.833 235.339 281.645C235.617 281.457 235.924 281.362 236.258 281.362ZM240.143 286.886C239.355 286.886 238.733 286.646 238.276 286.167C237.822 285.687 237.595 285.021 237.595 284.168C237.595 283.309 237.805 282.627 238.227 282.121C238.652 281.615 239.22 281.362 239.934 281.362C240.601 281.362 241.13 281.583 241.519 282.024C241.908 282.461 242.102 283.04 242.102 283.76V284.27H238.431C238.447 284.896 238.605 285.371 238.903 285.695C239.204 286.019 239.627 286.181 240.172 286.181C240.746 286.181 241.313 286.061 241.874 285.821V286.541C241.589 286.664 241.318 286.752 241.062 286.804C240.809 286.859 240.503 286.886 240.143 286.886ZM239.924 282.038C239.496 282.038 239.154 282.178 238.898 282.457C238.645 282.735 238.496 283.121 238.451 283.614H241.237C241.237 283.105 241.123 282.716 240.896 282.447C240.67 282.175 240.345 282.038 239.924 282.038ZM247.111 286.074H247.067C246.694 286.616 246.137 286.886 245.394 286.886C244.697 286.886 244.154 286.648 243.765 286.172C243.38 285.695 243.187 285.017 243.187 284.139C243.187 283.26 243.381 282.578 243.77 282.092C244.159 281.606 244.701 281.362 245.394 281.362C246.117 281.362 246.671 281.625 247.057 282.15H247.12L247.086 281.766L247.067 281.392V279.223H247.874V286.789H247.218L247.111 286.074ZM245.496 286.21C246.047 286.21 246.446 286.061 246.693 285.763C246.942 285.462 247.067 284.977 247.067 284.309V284.139C247.067 283.384 246.941 282.846 246.688 282.525C246.438 282.2 246.038 282.038 245.487 282.038C245.013 282.038 244.65 282.223 244.397 282.593C244.148 282.959 244.023 283.478 244.023 284.149C244.023 284.829 244.148 285.343 244.397 285.69C244.647 286.037 245.013 286.21 245.496 286.21Z" class="path-5"/>
<path d="M35.7169 233.458C35.7169 234.201 35.4738 234.769 34.9875 235.165C34.5013 235.56 33.8092 235.758 32.9112 235.758H32.1721V238.418H31.01V231.309H33.0571C33.9453 231.309 34.6099 231.491 35.0507 231.854C35.4949 232.217 35.7169 232.752 35.7169 233.458ZM32.1721 234.781H32.7897C33.3861 234.781 33.8238 234.677 34.1026 234.47C34.3813 234.262 34.5207 233.938 34.5207 233.497C34.5207 233.089 34.3959 232.784 34.1463 232.583C33.8967 232.382 33.5077 232.281 32.9793 232.281H32.1721V234.781ZM40.3801 238.418L40.1515 237.669H40.1126C39.8533 237.997 39.5923 238.22 39.3298 238.34C39.0672 238.457 38.7301 238.515 38.3184 238.515C37.79 238.515 37.3767 238.373 37.0784 238.087C36.7834 237.802 36.6359 237.398 36.6359 236.877C36.6359 236.322 36.8418 235.904 37.2535 235.622C37.6652 235.34 38.2924 235.186 39.1353 235.16L40.064 235.131V234.844C40.064 234.5 39.983 234.244 39.8209 234.076C39.662 233.904 39.414 233.818 39.0769 233.818C38.8014 233.818 38.5372 233.859 38.2843 233.94C38.0315 234.021 37.7883 234.116 37.5549 234.226L37.1854 233.41C37.4771 233.257 37.7964 233.142 38.1433 233.064C38.4902 232.983 38.8176 232.943 39.1255 232.943C39.8095 232.943 40.325 233.092 40.6718 233.39C41.0219 233.688 41.197 234.157 41.197 234.795V238.418H40.3801ZM38.6782 237.64C39.0931 237.64 39.4254 237.525 39.675 237.295C39.9278 237.061 40.0543 236.736 40.0543 236.317V235.851L39.3638 235.88C38.8257 235.899 38.4334 235.99 38.1871 236.152C37.9439 236.311 37.8224 236.556 37.8224 236.886C37.8224 237.126 37.8937 237.313 38.0363 237.445C38.179 237.575 38.3929 237.64 38.6782 237.64ZM41.975 233.04H43.2198L44.3138 236.089C44.4792 236.523 44.5894 236.932 44.6445 237.314H44.6834C44.7126 237.136 44.7661 236.92 44.8439 236.667C44.9217 236.411 45.3333 235.202 46.0789 233.04H47.314L45.014 239.133C44.5959 240.251 43.8989 240.81 42.9232 240.81C42.6703 240.81 42.4239 240.783 42.1841 240.728V239.823C42.3559 239.862 42.552 239.882 42.7724 239.882C43.3235 239.882 43.7109 239.562 43.9346 238.924L44.1339 238.418L41.975 233.04ZM55.1572 238.418H50.3385V237.552L52.1717 235.71C52.713 235.155 53.0712 234.763 53.2463 234.533C53.4246 234.299 53.5542 234.081 53.6353 233.876C53.7163 233.672 53.7568 233.453 53.7568 233.22C53.7568 232.899 53.6596 232.646 53.4651 232.461C53.2738 232.277 53.008 232.184 52.6676 232.184C52.3953 232.184 52.1311 232.234 51.875 232.335C51.6222 232.435 51.3288 232.617 50.9949 232.88L50.3774 232.126C50.7729 231.792 51.157 231.555 51.5298 231.416C51.9026 231.277 52.2997 231.207 52.7211 231.207C53.3824 231.207 53.9124 231.38 54.3112 231.727C54.7099 232.071 54.9093 232.534 54.9093 233.118C54.9093 233.439 54.8509 233.743 54.7342 234.032C54.6207 234.32 54.4441 234.619 54.2042 234.927C53.9676 235.231 53.5721 235.645 53.0177 236.167L51.7827 237.363V237.411H55.1572V238.418ZM58.4394 233.978C59.1559 233.978 59.7231 234.168 60.1413 234.547C60.5595 234.927 60.7686 235.444 60.7686 236.099C60.7686 236.857 60.5303 237.45 60.0538 237.878C59.5805 238.303 58.9062 238.515 58.031 238.515C57.2368 238.515 56.6128 238.387 56.1589 238.131V237.095C56.4215 237.244 56.723 237.36 57.0633 237.441C57.4037 237.522 57.7198 237.562 58.0115 237.562C58.527 237.562 58.9192 237.447 59.1883 237.217C59.4573 236.987 59.5919 236.65 59.5919 236.206C59.5919 235.356 59.0505 234.932 57.9678 234.932C57.8154 234.932 57.6274 234.948 57.4037 234.98C57.18 235.009 56.9839 235.043 56.8154 235.082L56.3048 234.781L56.5771 231.309H60.2726V232.325H57.5836L57.4232 234.085C57.5366 234.066 57.6744 234.043 57.8365 234.017C58.0018 233.991 58.2028 233.978 58.4394 233.978ZM66.5355 234.863C66.5355 236.099 66.3362 237.016 65.9374 237.616C65.542 238.215 64.9358 238.515 64.1189 238.515C63.3279 238.515 62.7282 238.206 62.3197 237.586C61.9113 236.967 61.7071 236.06 61.7071 234.863C61.7071 233.609 61.9048 232.685 62.3003 232.092C62.699 231.495 63.3052 231.197 64.1189 231.197C64.9131 231.197 65.5144 231.508 65.9229 232.131C66.3313 232.753 66.5355 233.664 66.5355 234.863ZM62.8643 234.863C62.8643 235.833 62.9632 236.525 63.1609 236.94C63.3619 237.355 63.6812 237.562 64.1189 237.562C64.5565 237.562 64.8758 237.351 65.0768 236.93C65.281 236.509 65.3831 235.82 65.3831 234.863C65.3831 233.91 65.281 233.222 65.0768 232.797C64.8758 232.369 64.5565 232.155 64.1189 232.155C63.6812 232.155 63.3619 232.364 63.1609 232.782C62.9632 233.2 62.8643 233.894 62.8643 234.863ZM76.2751 234.795C76.2751 235.969 75.9494 236.867 75.2978 237.489C74.6462 238.108 73.7077 238.418 72.4824 238.418H70.4936V231.309H72.6915C73.8228 231.309 74.7029 231.614 75.3318 232.223C75.9607 232.833 76.2751 233.69 76.2751 234.795ZM75.0498 234.834C75.0498 233.132 74.254 232.281 72.6623 232.281H71.6558V237.441H72.4824C74.194 237.441 75.0498 236.572 75.0498 234.834ZM82.2171 238.418L81.5072 236.444H78.7891L78.0937 238.418H76.8684L79.5282 231.28H80.7924L83.4522 238.418H82.2171ZM81.2009 235.442L80.5347 233.507C80.4861 233.377 80.418 233.173 80.3305 232.894C80.2462 232.615 80.1878 232.411 80.1554 232.281C80.0679 232.68 79.9399 233.116 79.7713 233.589L79.1294 235.442H81.2009ZM84.3907 238.418V231.309H85.5528V238.418H84.3907Z" class="path-6"/>
<circle cx="295.393" cy="235.954" r="8.18014" stroke-width="0.711316" class="circle-2"/>
<circle cx="295.393" cy="235.957" r="4.04327" class="circle-3"/>
<g clip-path="url(#clip1_14063_183957)">
<path d="M38.4901 247.41L38.1129 247.032C37.9566 246.876 37.7033 246.876 37.547 247.032L37.4527 247.127L35.5666 245.241L35.6609 245.146C35.8171 244.99 35.8171 244.737 35.6609 244.58L35.2837 244.203C35.1274 244.047 34.8741 244.047 34.7178 244.203L32.643 246.278C32.4868 246.434 32.4868 246.688 32.643 246.844L33.0203 247.221C33.1765 247.377 33.4299 247.377 33.5861 247.221L33.6804 247.127L34.3406 247.787L32.9895 249.138L32.8952 249.044C32.6869 248.835 32.3491 248.835 32.1407 249.044L30.2278 250.957C30.0194 251.165 30.0194 251.503 30.2278 251.711L30.9823 252.465C31.1906 252.674 31.5284 252.674 31.7367 252.465L33.6497 250.553C33.858 250.344 33.858 250.006 33.6497 249.798L33.5554 249.704L34.9064 248.353L35.5666 249.013L35.4723 249.107C35.316 249.263 35.316 249.517 35.4723 249.673L35.8495 250.05C36.0058 250.206 36.2591 250.206 36.4153 250.05L38.4901 247.975C38.6464 247.819 38.6464 247.566 38.4901 247.41Z" class="path-7"/>
</g>
<path d="M42.3424 251.355V245.262H43.0509V250.714H45.7392V251.355H42.3424ZM50.6156 249.067C50.6156 249.812 50.428 250.394 50.0529 250.814C49.6778 251.23 49.1596 251.439 48.4983 251.439C48.0899 251.439 47.7273 251.343 47.4105 251.151C47.0937 250.96 46.8492 250.684 46.677 250.326C46.5047 249.968 46.4186 249.548 46.4186 249.067C46.4186 248.323 46.6047 247.743 46.977 247.329C47.3494 246.913 47.8662 246.704 48.5275 246.704C49.1666 246.704 49.6737 246.917 50.0488 247.342C50.4267 247.767 50.6156 248.342 50.6156 249.067ZM47.1354 249.067C47.1354 249.651 47.2521 250.095 47.4855 250.401C47.7189 250.707 48.0621 250.859 48.515 250.859C48.9679 250.859 49.3111 250.708 49.5445 250.405C49.7806 250.1 49.8987 249.654 49.8987 249.067C49.8987 248.487 49.7806 248.046 49.5445 247.746C49.3111 247.443 48.9651 247.292 48.5067 247.292C48.0537 247.292 47.712 247.44 47.4814 247.738C47.2507 248.035 47.1354 248.478 47.1354 249.067ZM54.7793 250.109C54.7793 250.534 54.6209 250.862 54.3042 251.093C53.9874 251.324 53.5428 251.439 52.9704 251.439C52.3647 251.439 51.8924 251.343 51.5534 251.151V250.509C51.7729 250.621 52.0077 250.708 52.2577 250.772C52.5106 250.836 52.7537 250.868 52.9871 250.868C53.3483 250.868 53.6262 250.811 53.8207 250.697C54.0152 250.58 54.1124 250.404 54.1124 250.168C54.1124 249.99 54.0346 249.838 53.879 249.713C53.7262 249.586 53.4261 249.435 52.9788 249.263C52.5537 249.105 52.2508 248.967 52.0702 248.851C51.8924 248.731 51.759 248.596 51.6701 248.446C51.5839 248.296 51.5409 248.117 51.5409 247.909C51.5409 247.536 51.6923 247.243 51.9952 247.029C52.298 246.812 52.7134 246.704 53.2414 246.704C53.7332 246.704 54.2139 246.804 54.6834 247.004L54.4375 247.567C53.9791 247.378 53.5637 247.283 53.1913 247.283C52.8635 247.283 52.6162 247.335 52.4495 247.438C52.2827 247.54 52.1994 247.682 52.1994 247.863C52.1994 247.985 52.23 248.089 52.2911 248.175C52.355 248.262 52.4564 248.343 52.5953 248.421C52.7343 248.499 53.001 248.612 53.3956 248.759C53.9374 248.956 54.3028 249.155 54.4917 249.355C54.6834 249.555 54.7793 249.806 54.7793 250.109ZM57.8385 251.439C57.1633 251.439 56.6298 251.233 56.2381 250.822C55.8491 250.411 55.6546 249.84 55.6546 249.109C55.6546 248.373 55.8352 247.788 56.1964 247.354C56.5604 246.921 57.048 246.704 57.6593 246.704C58.2317 246.704 58.6846 246.893 59.018 247.271C59.3515 247.646 59.5182 248.142 59.5182 248.759V249.197H56.3714C56.3853 249.733 56.5201 250.14 56.7757 250.418C57.0341 250.696 57.3967 250.834 57.8635 250.834C58.3553 250.834 58.8416 250.732 59.3223 250.526V251.143C59.0778 251.248 58.8458 251.324 58.6262 251.368C58.4095 251.415 58.1469 251.439 57.8385 251.439ZM57.651 247.283C57.2842 247.283 56.991 247.403 56.7715 247.642C56.5548 247.881 56.427 248.212 56.3881 248.634H58.7763C58.7763 248.198 58.679 247.864 58.4845 247.634C58.29 247.4 58.0122 247.283 57.651 247.283ZM62.7858 246.704C62.9886 246.704 63.1706 246.721 63.3318 246.754L63.2359 247.396C63.047 247.354 62.8802 247.333 62.7358 247.333C62.3662 247.333 62.0495 247.484 61.7855 247.784C61.5243 248.084 61.3937 248.457 61.3937 248.905V251.355H60.7018V246.787H61.2728L61.352 247.634H61.3854C61.5549 247.336 61.7591 247.107 61.9981 246.946C62.237 246.785 62.4996 246.704 62.7858 246.704Z" class="path-8"/>
<rect x="13.5" y="14.7656" width="59" height="56.7358" rx="1.19811" class="rect-10"/>
<path d="M44.2118 53.6055H42.653V47.3437C42.653 46.5963 42.6707 46.0038 42.706 45.566C42.6043 45.6721 42.4783 45.7893 42.3279 45.9175C42.182 46.0458 41.6867 46.4526 40.8421 47.138L40.0594 46.1497L42.9117 43.9077H44.2118V53.6055Z" class="path-9"/>
<path d="M36.2541 31.3506C36.2541 31.8536 36.0722 32.2483 35.7085 32.5346C35.3447 32.8209 34.843 32.9641 34.2033 32.9641C33.5635 32.9641 33.0399 32.8648 32.6323 32.6662V31.7917C32.8903 31.9129 33.1637 32.0084 33.4526 32.078C33.7441 32.1477 34.015 32.1825 34.2652 32.1825C34.6315 32.1825 34.9011 32.1128 35.0739 31.9735C35.2493 31.8342 35.337 31.6472 35.337 31.4125C35.337 31.201 35.257 31.0217 35.0971 30.8746C34.9372 30.7276 34.607 30.5535 34.1065 30.3523C33.5906 30.1433 33.2269 29.9047 33.0154 29.6364C32.8038 29.3681 32.6981 29.0457 32.6981 28.6691C32.6981 28.197 32.8658 27.8255 33.2011 27.5547C33.5365 27.2838 33.9866 27.1484 34.5515 27.1484C35.0932 27.1484 35.6324 27.2671 36.1689 27.5044L35.8749 28.2589C35.3718 28.0474 34.923 27.9416 34.5283 27.9416C34.2291 27.9416 34.0021 28.0074 33.8473 28.139C33.6925 28.2679 33.6151 28.4395 33.6151 28.6536C33.6151 28.8006 33.6461 28.927 33.708 29.0328C33.7699 29.136 33.8718 29.234 34.0137 29.3269C34.1556 29.4197 34.4109 29.5423 34.7798 29.6945C35.1951 29.8673 35.4995 30.0285 35.693 30.1781C35.8865 30.3278 36.0283 30.4967 36.1186 30.685C36.2089 30.8733 36.2541 31.0952 36.2541 31.3506ZM38.8466 32.2289C39.0684 32.2289 39.2902 32.1941 39.5121 32.1244V32.8093C39.4115 32.8532 39.2812 32.8893 39.1213 32.9177C38.9639 32.9486 38.8001 32.9641 38.6299 32.9641C37.7683 32.9641 37.3375 32.5101 37.3375 31.6021V29.2959H36.7532V28.8935L37.3801 28.5607L37.6896 27.6553H38.2507V28.6072H39.4695V29.2959H38.2507V31.5866C38.2507 31.8059 38.3048 31.9684 38.4132 32.0741C38.5241 32.1773 38.6686 32.2289 38.8466 32.2289ZM43.0487 32.8867L42.8669 32.2908H42.8359C42.6295 32.5514 42.4219 32.7294 42.2129 32.8248C42.004 32.9177 41.7357 32.9641 41.4081 32.9641C40.9876 32.9641 40.6587 32.8506 40.4214 32.6236C40.1867 32.3966 40.0693 32.0754 40.0693 31.6601C40.0693 31.219 40.2331 30.8862 40.5607 30.6618C40.8883 30.4374 41.3875 30.3149 42.0582 30.2942L42.7972 30.271V30.0427C42.7972 29.7693 42.7327 29.5655 42.6037 29.4313C42.4773 29.2946 42.28 29.2263 42.0117 29.2263C41.7925 29.2263 41.5822 29.2585 41.381 29.323C41.1798 29.3875 40.9863 29.4636 40.8006 29.5513L40.5065 28.9012C40.7387 28.78 40.9928 28.6884 41.2688 28.6265C41.5448 28.562 41.8054 28.5298 42.0504 28.5298C42.5947 28.5298 43.0049 28.6484 43.2809 28.8858C43.5595 29.1231 43.6988 29.4958 43.6988 30.004V32.8867H43.0487ZM41.6944 32.2676C42.0246 32.2676 42.289 32.176 42.4877 31.9929C42.6889 31.8072 42.7895 31.5479 42.7895 31.2151V30.8437L42.24 30.8669C41.8118 30.8824 41.4997 30.9546 41.3036 31.0836C41.1102 31.21 41.0134 31.4047 41.0134 31.6679C41.0134 31.8587 41.0702 32.0071 41.1837 32.1128C41.2972 32.216 41.4674 32.2676 41.6944 32.2676ZM48.582 28.6072V29.1063L47.8506 29.2417C47.9177 29.332 47.9732 29.443 48.017 29.5745C48.0609 29.7061 48.0828 29.8454 48.0828 29.9924C48.0828 30.4335 47.9306 30.7805 47.6262 31.0333C47.3218 31.2861 46.9026 31.4125 46.3687 31.4125C46.2319 31.4125 46.1081 31.4022 45.9972 31.3815C45.8012 31.5028 45.7031 31.6446 45.7031 31.8072C45.7031 31.9052 45.7483 31.9787 45.8386 32.0277C45.9314 32.0767 46.1004 32.1012 46.3454 32.1012H47.0922C47.5643 32.1012 47.9229 32.2018 48.1679 32.403C48.413 32.6043 48.5355 32.8945 48.5355 33.2737C48.5355 33.7586 48.3356 34.1327 47.9358 34.3958C47.5359 34.6589 46.9581 34.7905 46.2023 34.7905C45.6193 34.7905 45.1743 34.6873 44.8673 34.4809C44.5604 34.2745 44.4069 33.9805 44.4069 33.5987C44.4069 33.3356 44.4894 33.1137 44.6545 32.9332C44.8222 32.7552 45.0556 32.6313 45.3549 32.5617C45.2336 32.5101 45.133 32.4276 45.0531 32.314C44.9757 32.198 44.937 32.0767 44.937 31.9503C44.937 31.7904 44.9821 31.655 45.0724 31.544C45.1627 31.4331 45.2968 31.3235 45.4748 31.2151C45.253 31.1197 45.0724 30.9649 44.9331 30.7508C44.7964 30.5341 44.728 30.2813 44.728 29.9924C44.728 29.5281 44.8738 29.1682 45.1653 28.9128C45.4594 28.6575 45.8773 28.5298 46.419 28.5298C46.5402 28.5298 46.6666 28.5388 46.7982 28.5569C46.9323 28.5723 47.0329 28.5891 47.1 28.6072H48.582ZM45.2195 33.5523C45.2195 33.7483 45.3072 33.8992 45.4826 34.005C45.6606 34.1107 45.9095 34.1636 46.2294 34.1636C46.7247 34.1636 47.0935 34.0927 47.336 33.9508C47.5785 33.8089 47.6997 33.6206 47.6997 33.3859C47.6997 33.2001 47.6327 33.0673 47.4985 32.9873C47.367 32.9099 47.1206 32.8712 46.7595 32.8712H46.0707C45.8102 32.8712 45.6025 32.9319 45.4477 33.0531C45.2956 33.1769 45.2195 33.3433 45.2195 33.5523ZM45.6103 29.9924C45.6103 30.2607 45.6786 30.4671 45.8153 30.6115C45.9546 30.756 46.1533 30.8282 46.4112 30.8282C46.9375 30.8282 47.2006 30.547 47.2006 29.9847C47.2006 29.7061 47.1348 29.492 47.0032 29.3423C46.8743 29.1902 46.6769 29.1141 46.4112 29.1141C46.1481 29.1141 45.9482 29.1889 45.8115 29.3385C45.6773 29.4881 45.6103 29.7061 45.6103 29.9924ZM51.248 32.9641C50.5824 32.9641 50.0614 32.7706 49.6847 32.3837C49.3107 31.9942 49.1237 31.4589 49.1237 30.7779C49.1237 30.0788 49.2978 29.5294 49.646 29.1295C49.9943 28.7297 50.4728 28.5298 51.0816 28.5298C51.6465 28.5298 52.0928 28.7013 52.4204 29.0444C52.748 29.3875 52.9118 29.8596 52.9118 30.4606V30.952H50.0601C50.073 31.3673 50.1852 31.6872 50.3967 31.9116C50.6082 32.1335 50.9062 32.2444 51.2905 32.2444C51.5433 32.2444 51.7781 32.2212 51.9948 32.1747C52.214 32.1257 52.4488 32.0458 52.699 31.9348V32.6739C52.4772 32.7797 52.2527 32.8545 52.0257 32.8983C51.7987 32.9422 51.5395 32.9641 51.248 32.9641ZM51.0816 29.2185C50.7927 29.2185 50.5605 29.3101 50.3851 29.4933C50.2123 29.6764 50.1091 29.9434 50.0755 30.2942H52.018C52.0128 29.9408 51.9277 29.6738 51.7626 29.4933C51.5975 29.3101 51.3705 29.2185 51.0816 29.2185Z" class="path-10"/>
<defs>
<filter id="filter0_d_14063_183957" x="10" y="87" width="314" height="119.098" filterUnits="userSpaceOnUse" color-interpolation-filters="sRGB">
<feFlood flood-opacity="0" result="BackgroundImageFix"/>
<feColorMatrix in="SourceAlpha" type="matrix" values="0 0 0 0 0 0 0 0 0 0 0 0 0 0 0 0 0 0 127 0" result="hardAlpha"/>
<feOffset dy="2"/>
<feGaussianBlur stdDeviation="1.5"/>
<feColorMatrix type="matrix" values="0 0 0 0 0 0 0 0 0 0 0 0 0 0 0 0 0 0 0.06 0"/>
<feBlend mode="normal" in2="BackgroundImageFix" result="effect1_dropShadow_14063_183957"/>
<feBlend mode="normal" in="SourceGraphic" in2="effect1_dropShadow_14063_183957" result="shape"/>
</filter>
<filter id="filter1_d_14063_183957" x="10" y="209.348" width="314" height="119.098" filterUnits="userSpaceOnUse" color-interpolation-filters="sRGB">
<feFlood flood-opacity="0" result="BackgroundImageFix"/>
<feColorMatrix in="SourceAlpha" type="matrix" values="0 0 0 0 0 0 0 0 0 0 0 0 0 0 0 0 0 0 127 0" result="hardAlpha"/>
<feOffset dy="2"/>
<feGaussianBlur stdDeviation="1.5"/>
<feColorMatrix type="matrix" values="0 0 0 0 0 0 0 0 0 0 0 0 0 0 0 0 0 0 0.06 0"/>
<feBlend mode="normal" in2="BackgroundImageFix" result="effect1_dropShadow_14063_183957"/>
<feBlend mode="normal" in="SourceGraphic" in2="effect1_dropShadow_14063_183957" result="shape"/>
</filter>
<clipPath id="clip0_14063_183957">
<rect width="8.5358" height="8.5358" class="path-9" transform="translate(30.0715 121.738)" class="rect-11"/>
</clipPath>
<clipPath id="clip1_14063_183957">
<rect width="8.5358" height="8.5358" transform="translate(30.0715 244.086)" class="rect-12"/>
</clipPath>
</defs>
</svg>
