<svg viewBox="0 0 415 217" fill="none" xmlns="http://www.w3.org/2000/svg">
<rect width="415" height="217" rx="3" class="rect-1"/>
<rect x="13.4422" y="88.4422" width="388.116" height="112.116" rx="2.21093" stroke-width="0.884371" class="rect-2"/>
<line x1="23" y1="144.558" x2="391" y2="144.558" stroke-width="0.884371" class="line-1"/>
<rect x="304.722" y="113.648" width="75.1715" height="7.07497" rx="3.53748" class="rect-3"/>
<path d="M41.1233 105.447C41.1233 106.37 40.821 107.077 40.2165 107.569C39.6119 108.061 38.7515 108.306 37.6351 108.306H36.7162V111.613H35.2713V102.775H37.8164C38.9207 102.775 39.747 103 40.2951 103.452C40.8472 103.903 41.1233 104.568 41.1233 105.447ZM36.7162 107.091H37.4839C38.2255 107.091 38.7696 106.962 39.1162 106.704C39.4628 106.446 39.6361 106.043 39.6361 105.495C39.6361 104.987 39.481 104.609 39.1706 104.359C38.8603 104.109 38.3766 103.984 37.7197 103.984H36.7162V107.091ZM46.921 111.613L46.6368 110.682H46.5885C46.266 111.089 45.9416 111.367 45.6151 111.517C45.2887 111.662 44.8695 111.734 44.3577 111.734C43.7007 111.734 43.1869 111.557 42.8161 111.202C42.4493 110.848 42.2659 110.346 42.2659 109.697C42.2659 109.008 42.5218 108.488 43.0337 108.137C43.5456 107.786 44.3254 107.595 45.3733 107.563L46.528 107.527V107.17C46.528 106.743 46.4272 106.424 46.2257 106.215C46.0282 106.001 45.7199 105.894 45.3008 105.894C44.9582 105.894 44.6297 105.945 44.3153 106.045C44.001 106.146 43.6987 106.265 43.4085 106.402L42.9491 105.386C43.3118 105.197 43.7088 105.054 44.14 104.957C44.5713 104.856 44.9783 104.806 45.3612 104.806C46.2116 104.806 46.8524 104.991 47.2837 105.362C47.719 105.733 47.9366 106.315 47.9366 107.109V111.613H46.921ZM44.805 110.646C45.3209 110.646 45.734 110.503 46.0444 110.217C46.3587 109.927 46.5159 109.522 46.5159 109.002V108.421L45.6575 108.458C44.9884 108.482 44.5007 108.595 44.1944 108.796C43.8922 108.994 43.741 109.298 43.741 109.709C43.741 110.007 43.8297 110.239 44.007 110.404C44.1844 110.565 44.4504 110.646 44.805 110.646ZM48.9039 104.927H50.4515L51.8118 108.717C52.0173 109.258 52.1544 109.765 52.2229 110.241H52.2712C52.3075 110.019 52.374 109.751 52.4707 109.437C52.5675 109.119 53.0793 107.615 54.0063 104.927H55.5419L52.6823 112.502C52.1624 113.892 51.2959 114.588 50.0828 114.588C49.7684 114.588 49.4621 114.553 49.1638 114.485V113.36C49.3775 113.409 49.6213 113.433 49.8953 113.433C50.5805 113.433 51.0621 113.036 51.3402 112.242L51.5881 111.613L48.9039 104.927ZM65.2933 111.613H59.3022V110.537L61.5813 108.246C62.2544 107.557 62.6997 107.069 62.9174 106.783C63.139 106.493 63.3002 106.221 63.401 105.967C63.5018 105.713 63.5521 105.441 63.5521 105.151C63.5521 104.752 63.4312 104.437 63.1894 104.208C62.9516 103.978 62.6211 103.863 62.198 103.863C61.8594 103.863 61.5309 103.925 61.2125 104.05C60.8982 104.175 60.5334 104.401 60.1183 104.727L59.3505 103.79C59.8422 103.375 60.3198 103.081 60.7833 102.908C61.2468 102.734 61.7405 102.648 62.2645 102.648C63.0866 102.648 63.7456 102.863 64.2413 103.295C64.7371 103.722 64.9849 104.298 64.9849 105.024C64.9849 105.423 64.9124 105.802 64.7673 106.16C64.6262 106.519 64.4066 106.89 64.1083 107.273C63.8141 107.651 63.3224 108.165 62.6332 108.814L61.0977 110.301V110.362H65.2933V111.613ZM69.374 106.094C70.2647 106.094 70.97 106.33 71.4899 106.801C72.0098 107.273 72.2698 107.915 72.2698 108.73C72.2698 109.673 71.9735 110.41 71.3811 110.942C70.7926 111.47 69.9543 111.734 68.8661 111.734C67.8787 111.734 67.1029 111.575 66.5386 111.257V109.969C66.8651 110.154 67.2399 110.297 67.6631 110.398C68.0863 110.499 68.4792 110.549 68.842 110.549C69.4828 110.549 69.9705 110.406 70.305 110.12C70.6395 109.834 70.8067 109.415 70.8067 108.863C70.8067 107.807 70.1337 107.279 68.7876 107.279C68.5981 107.279 68.3644 107.299 68.0863 107.339C67.8082 107.375 67.5643 107.418 67.3548 107.466L66.72 107.091L67.0585 102.775H71.6531V104.038H68.31L68.1105 106.227C68.2515 106.203 68.4228 106.174 68.6243 106.142C68.8299 106.11 69.0797 106.094 69.374 106.094ZM79.4397 107.194C79.4397 108.73 79.1919 109.87 78.6961 110.616C78.2044 111.361 77.4508 111.734 76.4351 111.734C75.4517 111.734 74.7061 111.349 74.1983 110.579C73.6905 109.81 73.4365 108.681 73.4365 107.194C73.4365 105.634 73.6824 104.486 74.1741 103.748C74.6698 103.006 75.4235 102.636 76.4351 102.636C77.4225 102.636 78.1702 103.023 78.678 103.796C79.1858 104.57 79.4397 105.703 79.4397 107.194ZM74.8754 107.194C74.8754 108.399 74.9983 109.26 75.2442 109.775C75.494 110.291 75.891 110.549 76.4351 110.549C76.9792 110.549 77.3762 110.287 77.6261 109.763C77.88 109.239 78.0069 108.383 78.0069 107.194C78.0069 106.009 77.88 105.153 77.6261 104.625C77.3762 104.093 76.9792 103.827 76.4351 103.827C75.891 103.827 75.494 104.087 75.2442 104.607C74.9983 105.126 74.8754 105.989 74.8754 107.194ZM91.5489 107.109C91.5489 108.568 91.1438 109.685 90.3337 110.459C89.5236 111.228 88.3568 111.613 86.8334 111.613H84.3608V102.775H87.0933C88.4999 102.775 89.5942 103.154 90.376 103.911C91.1579 104.669 91.5489 105.735 91.5489 107.109ZM90.0254 107.158C90.0254 105.042 89.036 103.984 87.0571 103.984H85.8056V110.398H86.8334C88.9614 110.398 90.0254 109.318 90.0254 107.158ZM98.9365 111.613L98.0538 109.159H94.6744L93.8099 111.613H92.2864L95.5933 102.738H97.1651L100.472 111.613H98.9365ZM97.673 107.913L96.8447 105.507C96.7843 105.346 96.6996 105.092 96.5908 104.746C96.486 104.399 96.4135 104.145 96.3732 103.984C96.2644 104.48 96.1052 105.022 95.8956 105.61L95.0976 107.913H97.673ZM101.639 111.613V102.775H103.084V111.613H101.639Z" class="path-1"/>
<g clip-path="url(#clip0_14063_183893)">
<path fill-rule="evenodd" clip-rule="evenodd" d="M34.1045 124.685C34.1045 121.755 36.4804 119.379 39.4107 119.379C42.341 119.379 44.7169 121.755 44.7169 124.685C44.7169 127.615 42.341 129.991 39.4107 129.991C36.4804 129.991 34.1045 127.615 34.1045 124.685ZM35.0047 124.685C35.0047 127.118 36.9779 129.091 39.4107 129.091C41.8435 129.091 43.8168 127.118 43.8168 124.685C43.8168 122.252 41.8435 120.279 39.4107 120.279C36.9779 120.279 35.0047 122.252 35.0047 124.685ZM41.0701 122.802H41.6256C41.7025 122.802 41.7476 122.89 41.7014 122.953L39.207 126.411C39.1721 126.46 39.1261 126.5 39.0729 126.527C39.0196 126.554 38.9606 126.569 38.9008 126.569C38.8409 126.569 38.7819 126.554 38.7287 126.527C38.6754 126.5 38.6295 126.46 38.5946 126.411L37.1188 124.365C37.0738 124.302 37.1188 124.214 37.1958 124.214H37.7513C37.8733 124.214 37.987 124.273 38.0581 124.372L38.9014 125.542L40.7633 122.96C40.8344 122.86 40.9493 122.802 41.0701 122.802Z" class="path-2"/>
</g>
<path d="M56.2665 124.385C56.2665 125.598 55.9591 126.551 55.3441 127.246C54.7327 127.94 53.8811 128.287 52.7895 128.287C51.6737 128.287 50.8117 127.947 50.2037 127.266C49.5992 126.582 49.2969 125.619 49.2969 124.375C49.2969 123.142 49.6009 122.186 50.2089 121.509C50.8169 120.829 51.6806 120.489 52.7999 120.489C53.888 120.489 54.7379 120.834 55.3493 121.525C55.9608 122.216 56.2665 123.169 56.2665 124.385ZM50.2297 124.385C50.2297 125.411 50.4473 126.19 50.8826 126.722C51.3213 127.251 51.9569 127.515 52.7895 127.515C53.629 127.515 54.2629 127.251 54.6912 126.722C55.1196 126.194 55.3338 125.415 55.3338 124.385C55.3338 123.366 55.1196 122.594 54.6912 122.069C54.2663 121.54 53.6359 121.276 52.7999 121.276C51.9604 121.276 51.3213 121.542 50.8826 122.074C50.4473 122.603 50.2297 123.373 50.2297 124.385ZM60.4742 128.287C60.1046 128.287 59.766 128.22 59.4585 128.085C59.1545 127.947 58.8989 127.736 58.6916 127.453H58.6294C58.6709 127.785 58.6916 128.099 58.6916 128.396V130.733H57.8314V122.504H58.531L58.6502 123.282H58.6916C58.9127 122.971 59.1701 122.746 59.4637 122.608C59.7574 122.47 60.0942 122.401 60.4742 122.401C61.2273 122.401 61.8077 122.658 62.2153 123.173C62.6264 123.687 62.8319 124.409 62.8319 125.339C62.8319 126.271 62.6229 126.997 62.2049 127.515C61.7904 128.03 61.2135 128.287 60.4742 128.287ZM60.3498 123.131C59.7695 123.131 59.3497 123.292 59.0906 123.613C58.8315 123.934 58.6985 124.446 58.6916 125.147V125.339C58.6916 126.137 58.8246 126.708 59.0906 127.054C59.3566 127.396 59.7833 127.567 60.3706 127.567C60.8611 127.567 61.2446 127.368 61.5209 126.971C61.8007 126.574 61.9407 126.026 61.9407 125.328C61.9407 124.62 61.8007 124.078 61.5209 123.701C61.2446 123.321 60.8542 123.131 60.3498 123.131ZM66.1742 127.577C66.3262 127.577 66.4731 127.567 66.6147 127.546C66.7563 127.522 66.8686 127.498 66.9515 127.474V128.132C66.8582 128.177 66.7201 128.213 66.537 128.241C66.3573 128.272 66.195 128.287 66.0499 128.287C64.9513 128.287 64.402 127.709 64.402 126.551V123.173H63.5885V122.758L64.402 122.401L64.7648 121.188H65.2622V122.504H66.9101V123.173H65.2622V126.515C65.2622 126.857 65.3434 127.12 65.5058 127.303C65.6681 127.486 65.891 127.577 66.1742 127.577ZM68.9517 128.184H68.0915V122.504H68.9517V128.184ZM68.019 120.965C68.019 120.768 68.0673 120.625 68.1641 120.535C68.2608 120.442 68.3817 120.395 68.5268 120.395C68.665 120.395 68.7842 120.442 68.8844 120.535C68.9845 120.628 69.0346 120.772 69.0346 120.965C69.0346 121.159 68.9845 121.304 68.8844 121.401C68.7842 121.494 68.665 121.54 68.5268 121.54C68.3817 121.54 68.2608 121.494 68.1641 121.401C68.0673 121.304 68.019 121.159 68.019 120.965ZM75.6778 125.339C75.6778 126.265 75.4446 126.988 74.9782 127.51C74.5119 128.028 73.8676 128.287 73.0454 128.287C72.5376 128.287 72.0867 128.168 71.6929 127.93C71.2991 127.691 70.9951 127.349 70.7809 126.904C70.5667 126.458 70.4596 125.936 70.4596 125.339C70.4596 124.413 70.6911 123.693 71.154 123.178C71.6169 122.66 72.2595 122.401 73.0817 122.401C73.8762 122.401 74.5067 122.665 74.973 123.193C75.4429 123.722 75.6778 124.437 75.6778 125.339ZM71.3509 125.339C71.3509 126.064 71.496 126.617 71.7862 126.997C72.0764 127.377 72.503 127.567 73.0661 127.567C73.6292 127.567 74.0558 127.379 74.346 127.002C74.6397 126.622 74.7865 126.068 74.7865 125.339C74.7865 124.617 74.6397 124.069 74.346 123.696C74.0558 123.32 73.6258 123.131 73.0558 123.131C72.4927 123.131 72.0677 123.316 71.781 123.686C71.4943 124.055 71.3509 124.606 71.3509 125.339ZM81.0773 128.184V124.51C81.0773 124.047 80.9719 123.701 80.7612 123.473C80.5505 123.245 80.2205 123.131 79.7714 123.131C79.1773 123.131 78.742 123.292 78.4656 123.613C78.1892 123.934 78.0511 124.465 78.0511 125.204V128.184H77.1909V122.504H77.8904L78.0303 123.282H78.0718C78.248 123.002 78.495 122.786 78.8128 122.634C79.1306 122.478 79.4847 122.401 79.8751 122.401C80.5591 122.401 81.0738 122.566 81.4193 122.898C81.7647 123.226 81.9375 123.753 81.9375 124.479V128.184H81.0773ZM89.0262 123.173H87.5805V128.184H86.7203V123.173H85.7047V122.784L86.7203 122.473V122.157C86.7203 120.761 87.3301 120.064 88.5495 120.064C88.8501 120.064 89.2024 120.124 89.6066 120.245L89.3838 120.934C89.0522 120.827 88.7689 120.774 88.534 120.774C88.2092 120.774 87.9691 120.882 87.8137 121.1C87.6582 121.314 87.5805 121.66 87.5805 122.136V122.504H89.0262V123.173ZM90.871 122.504V126.189C90.871 126.651 90.9764 126.997 91.1871 127.225C91.3978 127.453 91.7277 127.567 92.1768 127.567C92.771 127.567 93.2046 127.405 93.4775 127.08C93.7538 126.755 93.892 126.225 93.892 125.489V122.504H94.7522V128.184H94.0423L93.9179 127.422H93.8713C93.6951 127.702 93.4498 127.916 93.1355 128.064C92.8246 128.213 92.4687 128.287 92.068 128.287C91.3771 128.287 90.8589 128.123 90.5134 127.795C90.1714 127.467 90.0004 126.942 90.0004 126.22V122.504H90.871ZM97.4416 128.184H96.5814V120.121H97.4416V128.184ZM100.126 128.184H99.2656V120.121H100.126V128.184ZM101.048 122.504H101.971L103.214 125.743C103.487 126.482 103.656 127.016 103.722 127.344H103.763C103.808 127.168 103.902 126.867 104.043 126.442C104.188 126.014 104.658 124.701 105.453 122.504H106.375L103.934 128.971C103.693 129.61 103.409 130.063 103.085 130.329C102.763 130.598 102.368 130.733 101.898 130.733C101.635 130.733 101.376 130.704 101.121 130.645V129.956C101.311 129.997 101.523 130.018 101.758 130.018C102.349 130.018 102.77 129.686 103.022 129.023L103.339 128.215L101.048 122.504ZM112.614 123.173H111.168V128.184H110.308V123.173H109.293V122.784L110.308 122.473V122.157C110.308 120.761 110.918 120.064 112.137 120.064C112.438 120.064 112.79 120.124 113.194 120.245L112.972 120.934C112.64 120.827 112.357 120.774 112.122 120.774C111.797 120.774 111.557 120.882 111.402 121.1C111.246 121.314 111.168 121.66 111.168 122.136V122.504H112.614V123.173ZM114.459 122.504V126.189C114.459 126.651 114.564 126.997 114.775 127.225C114.986 127.453 115.316 127.567 115.765 127.567C116.359 127.567 116.792 127.405 117.065 127.08C117.342 126.755 117.48 126.225 117.48 125.489V122.504H118.34V128.184H117.63L117.506 127.422H117.459C117.283 127.702 117.038 127.916 116.723 128.064C116.412 128.213 116.057 128.287 115.656 128.287C114.965 128.287 114.447 128.123 114.101 127.795C113.759 127.467 113.588 126.942 113.588 126.22V122.504H114.459ZM124.056 128.184V124.51C124.056 124.047 123.95 123.701 123.74 123.473C123.529 123.245 123.199 123.131 122.75 123.131C122.156 123.131 121.72 123.292 121.444 123.613C121.168 123.934 121.029 124.465 121.029 125.204V128.184H120.169V122.504H120.869L121.009 123.282H121.05C121.226 123.002 121.473 122.786 121.791 122.634C122.109 122.478 122.463 122.401 122.853 122.401C123.537 122.401 124.052 122.566 124.398 122.898C124.743 123.226 124.916 123.753 124.916 124.479V128.184H124.056ZM130.554 127.422H130.507C130.11 127.999 129.516 128.287 128.724 128.287C127.982 128.287 127.403 128.033 126.989 127.525C126.577 127.018 126.372 126.296 126.372 125.359C126.372 124.423 126.579 123.696 126.994 123.178C127.408 122.66 127.985 122.401 128.724 122.401C129.495 122.401 130.086 122.68 130.497 123.24H130.564L130.528 122.831L130.507 122.432V120.121H131.367V128.184H130.668L130.554 127.422ZM128.833 127.567C129.421 127.567 129.845 127.408 130.108 127.09C130.374 126.769 130.507 126.252 130.507 125.541V125.359C130.507 124.555 130.372 123.981 130.103 123.639C129.837 123.294 129.41 123.121 128.823 123.121C128.319 123.121 127.932 123.318 127.662 123.712C127.396 124.102 127.263 124.655 127.263 125.37C127.263 126.095 127.396 126.643 127.662 127.012C127.928 127.382 128.319 127.567 128.833 127.567ZM135.596 128.287C134.756 128.287 134.093 128.032 133.606 127.52C133.122 127.009 132.88 126.299 132.88 125.391C132.88 124.475 133.105 123.748 133.554 123.209C134.007 122.67 134.613 122.401 135.373 122.401C136.084 122.401 136.648 122.636 137.062 123.105C137.477 123.572 137.684 124.188 137.684 124.955V125.499H133.772C133.789 126.166 133.956 126.672 134.274 127.018C134.596 127.363 135.046 127.536 135.627 127.536C136.238 127.536 136.843 127.408 137.44 127.152V127.919C137.136 128.051 136.848 128.144 136.575 128.199C136.306 128.258 135.979 128.287 135.596 128.287ZM135.362 123.121C134.906 123.121 134.542 123.269 134.269 123.567C134 123.864 133.841 124.275 133.792 124.8H136.762C136.762 124.257 136.641 123.843 136.399 123.556C136.157 123.266 135.812 123.121 135.362 123.121ZM143.021 127.422H142.975C142.577 127.999 141.983 128.287 141.192 128.287C140.449 128.287 139.871 128.033 139.456 127.525C139.045 127.018 138.839 126.296 138.839 125.359C138.839 124.423 139.047 123.696 139.461 123.178C139.876 122.66 140.453 122.401 141.192 122.401C141.962 122.401 142.553 122.68 142.964 123.24H143.032L142.995 122.831L142.975 122.432V120.121H143.835V128.184H143.135L143.021 127.422ZM141.301 127.567C141.888 127.567 142.313 127.408 142.576 127.09C142.842 126.769 142.975 126.252 142.975 125.541V125.359C142.975 124.555 142.84 123.981 142.57 123.639C142.304 123.294 141.878 123.121 141.29 123.121C140.786 123.121 140.399 123.318 140.13 123.712C139.864 124.102 139.731 124.655 139.731 125.37C139.731 126.095 139.864 126.643 140.13 127.012C140.396 127.382 140.786 127.567 141.301 127.567ZM151.913 128.184L151.742 127.375H151.701C151.418 127.731 151.134 127.973 150.851 128.101C150.571 128.225 150.221 128.287 149.799 128.287C149.236 128.287 148.794 128.142 148.473 127.852C148.155 127.562 147.996 127.149 147.996 126.613C147.996 125.467 148.913 124.865 150.747 124.81L151.711 124.779V124.427C151.711 123.981 151.614 123.653 151.421 123.442C151.231 123.228 150.925 123.121 150.504 123.121C150.031 123.121 149.495 123.266 148.897 123.556L148.633 122.898C148.913 122.746 149.219 122.627 149.55 122.541C149.885 122.454 150.221 122.411 150.556 122.411C151.233 122.411 151.734 122.561 152.058 122.862C152.387 123.162 152.551 123.644 152.551 124.308V128.184H151.913ZM149.97 127.577C150.506 127.577 150.925 127.43 151.229 127.137C151.537 126.843 151.69 126.432 151.69 125.904V125.391L150.83 125.427C150.146 125.451 149.652 125.558 149.348 125.748C149.048 125.935 148.897 126.227 148.897 126.624C148.897 126.935 148.991 127.171 149.177 127.334C149.367 127.496 149.632 127.577 149.97 127.577ZM156.162 127.577C156.314 127.577 156.461 127.567 156.603 127.546C156.745 127.522 156.857 127.498 156.94 127.474V128.132C156.846 128.177 156.708 128.213 156.525 128.241C156.346 128.272 156.183 128.287 156.038 128.287C154.94 128.287 154.39 127.709 154.39 126.551V123.173H153.577V122.758L154.39 122.401L154.753 121.188H155.25V122.504H156.898V123.173H155.25V126.515C155.25 126.857 155.332 127.12 155.494 127.303C155.656 127.486 155.879 127.577 156.162 127.577ZM164.5 126.634C164.5 127.163 164.303 127.57 163.909 127.857C163.515 128.144 162.963 128.287 162.251 128.287C161.498 128.287 160.911 128.168 160.489 127.93V127.132C160.762 127.27 161.054 127.379 161.365 127.458C161.679 127.538 161.982 127.577 162.272 127.577C162.721 127.577 163.066 127.506 163.308 127.365C163.55 127.22 163.671 127 163.671 126.707C163.671 126.486 163.574 126.297 163.381 126.142C163.191 125.983 162.818 125.796 162.261 125.582C161.733 125.385 161.356 125.214 161.132 125.069C160.911 124.921 160.745 124.753 160.634 124.567C160.527 124.38 160.474 124.157 160.474 123.898C160.474 123.435 160.662 123.071 161.039 122.805C161.415 122.535 161.932 122.401 162.588 122.401C163.199 122.401 163.797 122.525 164.381 122.774L164.075 123.473C163.505 123.238 162.989 123.121 162.526 123.121C162.118 123.121 161.811 123.185 161.603 123.313C161.396 123.44 161.292 123.617 161.292 123.841C161.292 123.993 161.33 124.123 161.406 124.23C161.486 124.337 161.612 124.439 161.785 124.536C161.957 124.632 162.289 124.772 162.78 124.955C163.453 125.201 163.908 125.448 164.143 125.696C164.381 125.945 164.5 126.258 164.5 126.634ZM167.739 127.577C167.891 127.577 168.038 127.567 168.179 127.546C168.321 127.522 168.433 127.498 168.516 127.474V128.132C168.423 128.177 168.285 128.213 168.101 128.241C167.922 128.272 167.759 128.287 167.614 128.287C166.516 128.287 165.967 127.709 165.967 126.551V123.173H165.153V122.758L165.967 122.401L166.329 121.188H166.827V122.504H168.475V123.173H166.827V126.515C166.827 126.857 166.908 127.12 167.07 127.303C167.233 127.486 167.455 127.577 167.739 127.577ZM173.149 128.184L172.978 127.375H172.936C172.653 127.731 172.37 127.973 172.086 128.101C171.806 128.225 171.456 128.287 171.034 128.287C170.471 128.287 170.029 128.142 169.708 127.852C169.39 127.562 169.231 127.149 169.231 126.613C169.231 125.467 170.148 124.865 171.983 124.81L172.946 124.779V124.427C172.946 123.981 172.85 123.653 172.656 123.442C172.466 123.228 172.161 123.121 171.739 123.121C171.266 123.121 170.73 123.266 170.133 123.556L169.868 122.898C170.148 122.746 170.454 122.627 170.786 122.541C171.121 122.454 171.456 122.411 171.791 122.411C172.468 122.411 172.969 122.561 173.294 122.862C173.622 123.162 173.786 123.644 173.786 124.308V128.184H173.149ZM171.205 127.577C171.741 127.577 172.161 127.43 172.465 127.137C172.772 126.843 172.926 126.432 172.926 125.904V125.391L172.066 125.427C171.382 125.451 170.888 125.558 170.584 125.748C170.283 125.935 170.133 126.227 170.133 126.624C170.133 126.935 170.226 127.171 170.413 127.334C170.603 127.496 170.867 127.577 171.205 127.577ZM180.211 122.504V123.048L179.16 123.173C179.256 123.294 179.343 123.453 179.419 123.649C179.495 123.843 179.533 124.062 179.533 124.308C179.533 124.864 179.343 125.308 178.963 125.639C178.583 125.971 178.061 126.137 177.398 126.137C177.228 126.137 177.07 126.123 176.921 126.095C176.555 126.289 176.372 126.532 176.372 126.826C176.372 126.981 176.436 127.097 176.563 127.173C176.691 127.246 176.911 127.282 177.222 127.282H178.227C178.842 127.282 179.313 127.411 179.641 127.671C179.973 127.93 180.139 128.306 180.139 128.8C180.139 129.429 179.887 129.907 179.382 130.236C178.878 130.567 178.142 130.733 177.175 130.733C176.432 130.733 175.859 130.595 175.455 130.319C175.054 130.042 174.853 129.652 174.853 129.147C174.853 128.802 174.964 128.503 175.185 128.251C175.406 127.999 175.717 127.828 176.118 127.738C175.973 127.672 175.85 127.57 175.75 127.432C175.653 127.294 175.605 127.133 175.605 126.95C175.605 126.743 175.66 126.562 175.771 126.406C175.881 126.251 176.056 126.1 176.294 125.955C176 125.834 175.76 125.629 175.574 125.339C175.391 125.049 175.299 124.717 175.299 124.344C175.299 123.722 175.486 123.244 175.859 122.908C176.232 122.57 176.76 122.401 177.444 122.401C177.741 122.401 178.009 122.435 178.248 122.504H180.211ZM175.683 129.137C175.683 129.445 175.812 129.678 176.071 129.837C176.33 129.996 176.702 130.075 177.185 130.075C177.907 130.075 178.441 129.966 178.786 129.749C179.135 129.534 179.31 129.242 179.31 128.873C179.31 128.565 179.215 128.351 179.025 128.23C178.835 128.113 178.477 128.054 177.952 128.054H176.921C176.531 128.054 176.227 128.147 176.009 128.334C175.791 128.52 175.683 128.788 175.683 129.137ZM176.149 124.323C176.149 124.72 176.261 125.021 176.486 125.225C176.71 125.429 177.023 125.53 177.424 125.53C178.263 125.53 178.683 125.123 178.683 124.308C178.683 123.454 178.258 123.028 177.408 123.028C177.004 123.028 176.693 123.136 176.475 123.354C176.258 123.572 176.149 123.895 176.149 124.323ZM183.777 128.287C182.937 128.287 182.274 128.032 181.787 127.52C181.303 127.009 181.061 126.299 181.061 125.391C181.061 124.475 181.286 123.748 181.735 123.209C182.187 122.67 182.794 122.401 183.554 122.401C184.265 122.401 184.828 122.636 185.243 123.105C185.658 123.572 185.865 124.188 185.865 124.955V125.499H181.953C181.97 126.166 182.137 126.672 182.455 127.018C182.776 127.363 183.227 127.536 183.808 127.536C184.419 127.536 185.024 127.408 185.621 127.152V127.919C185.317 128.051 185.029 128.144 184.756 128.199C184.486 128.258 184.16 128.287 183.777 128.287ZM183.543 123.121C183.087 123.121 182.723 123.269 182.45 123.567C182.181 123.864 182.022 124.275 181.973 124.8H184.942C184.942 124.257 184.822 123.843 184.58 123.556C184.338 123.266 183.992 123.121 183.543 123.121ZM192.886 128.184H192.047V122.784C192.047 122.335 192.061 121.91 192.088 121.509C192.016 121.582 191.935 121.658 191.845 121.737C191.755 121.817 191.344 122.154 190.611 122.748L190.155 122.157L192.161 120.608H192.886V128.184Z" class="path-3"/>
<path d="M39.6439 179.217C39.6439 180.527 39.4366 181.504 39.0221 182.15C38.611 182.796 37.9805 183.119 37.1307 183.119C36.3154 183.119 35.6953 182.789 35.2704 182.13C34.8455 181.466 34.633 180.496 34.633 179.217C34.633 177.898 34.8386 176.918 35.2497 176.279C35.6608 175.64 36.2878 175.321 37.1307 175.321C37.9529 175.321 38.5764 175.654 39.0014 176.321C39.4297 176.987 39.6439 177.953 39.6439 179.217ZM35.5036 179.217C35.5036 180.319 35.6331 181.123 35.8922 181.627C36.1513 182.128 36.5641 182.378 37.1307 182.378C37.7042 182.378 38.1187 182.124 38.3743 181.617C38.6334 181.105 38.763 180.306 38.763 179.217C38.763 178.129 38.6334 177.333 38.3743 176.828C38.1187 176.321 37.7042 176.067 37.1307 176.067C36.5641 176.067 36.1513 176.317 35.8922 176.818C35.6331 177.316 35.5036 178.115 35.5036 179.217ZM40.9653 182.466C40.9653 182.235 41.0171 182.06 41.1207 181.943C41.2278 181.822 41.3798 181.762 41.5767 181.762C41.7771 181.762 41.9326 181.822 42.0431 181.943C42.1571 182.06 42.2141 182.235 42.2141 182.466C42.2141 182.691 42.1571 182.864 42.0431 182.985C41.9291 183.105 41.7736 183.166 41.5767 183.166C41.4006 183.166 41.2537 183.112 41.1363 183.005C41.0223 182.895 40.9653 182.715 40.9653 182.466ZM48.5463 179.217C48.5463 180.527 48.3391 181.504 47.9245 182.15C47.5134 182.796 46.883 183.119 46.0331 183.119C45.2179 183.119 44.5978 182.789 44.1728 182.13C43.7479 181.466 43.5355 180.496 43.5355 179.217C43.5355 177.898 43.741 176.918 44.1521 176.279C44.5632 175.64 45.1902 175.321 46.0331 175.321C46.8553 175.321 47.4789 175.654 47.9038 176.321C48.3322 176.987 48.5463 177.953 48.5463 179.217ZM44.406 179.217C44.406 180.319 44.5356 181.123 44.7947 181.627C45.0538 182.128 45.4666 182.378 46.0331 182.378C46.6066 182.378 47.0211 182.124 47.2768 181.617C47.5359 181.105 47.6654 180.306 47.6654 179.217C47.6654 178.129 47.5359 177.333 47.2768 176.828C47.0211 176.321 46.6066 176.067 46.0331 176.067C45.4666 176.067 45.0538 176.317 44.7947 176.818C44.5356 177.316 44.406 178.115 44.406 179.217ZM54.6195 179.217C54.6195 180.527 54.4122 181.504 53.9977 182.15C53.5866 182.796 52.9561 183.119 52.1063 183.119C51.291 183.119 50.6709 182.789 50.246 182.13C49.8211 181.466 49.6086 180.496 49.6086 179.217C49.6086 177.898 49.8142 176.918 50.2253 176.279C50.6364 175.64 51.2634 175.321 52.1063 175.321C52.9285 175.321 53.552 175.654 53.9769 176.321C54.4053 176.987 54.6195 177.953 54.6195 179.217ZM50.4792 179.217C50.4792 180.319 50.6087 181.123 50.8678 181.627C51.1269 182.128 51.5397 182.378 52.1063 182.378C52.6797 182.378 53.0943 182.124 53.3499 181.617C53.609 181.105 53.7386 180.306 53.7386 179.217C53.7386 178.129 53.609 177.333 53.3499 176.828C53.0943 176.321 52.6797 176.067 52.1063 176.067C51.5397 176.067 51.1269 176.317 50.8678 176.818C50.6087 177.316 50.4792 178.115 50.4792 179.217ZM58.0395 178.388C58.8375 178.388 59.4645 178.587 59.9205 178.984C60.38 179.378 60.6097 179.919 60.6097 180.606C60.6097 181.39 60.3593 182.005 59.8583 182.451C59.3609 182.896 58.6734 183.119 57.796 183.119C56.9427 183.119 56.2915 182.983 55.8424 182.71V181.881C56.0842 182.036 56.3848 182.159 56.744 182.249C57.1033 182.335 57.4574 182.378 57.8063 182.378C58.4143 182.378 58.8859 182.235 59.221 181.948C59.5595 181.661 59.7288 181.247 59.7288 180.705C59.7288 179.647 59.0811 179.119 57.7856 179.119C57.4574 179.119 57.0187 179.169 56.4694 179.269L56.0238 178.984L56.3088 175.44H60.076V176.233H57.0446L56.8529 178.507C57.2501 178.428 57.6457 178.388 58.0395 178.388ZM61.8326 179.777C61.8326 178.288 62.1211 177.176 62.698 176.44C63.2784 175.701 64.1351 175.331 65.2682 175.331C65.6586 175.331 65.966 175.364 66.1906 175.429V176.17C65.9246 176.084 65.6206 176.041 65.2786 176.041C64.4667 176.041 63.8466 176.295 63.4183 176.803C62.9899 177.307 62.755 178.101 62.7135 179.186H62.7757C63.1557 178.592 63.7568 178.295 64.579 178.295C65.2596 178.295 65.795 178.5 66.1854 178.912C66.5792 179.323 66.7761 179.881 66.7761 180.585C66.7761 181.373 66.5602 181.993 66.1284 182.446C65.7 182.895 65.1197 183.119 64.3873 183.119C63.6031 183.119 62.9813 182.826 62.5218 182.238C62.0624 181.648 61.8326 180.827 61.8326 179.777ZM64.3769 182.389C64.8675 182.389 65.2475 182.235 65.5169 181.927C65.7898 181.617 65.9263 181.169 65.9263 180.585C65.9263 180.084 65.8002 179.691 65.548 179.404C65.2958 179.117 64.9193 178.974 64.4184 178.974C64.1075 178.974 63.8225 179.038 63.5634 179.166C63.3043 179.293 63.097 179.47 62.9415 179.694C62.7895 179.919 62.7135 180.152 62.7135 180.394C62.7135 180.749 62.7826 181.081 62.9208 181.389C63.059 181.696 63.2542 181.94 63.5064 182.119C63.762 182.299 64.0522 182.389 64.3769 182.389ZM75.321 183.016H71.0978V175.44H75.321V176.222H71.9787V178.663H75.1189V179.44H71.9787V182.228H75.321V183.016ZM79.337 183.016H78.456V176.222H76.0568V175.44H81.7362V176.222H79.337V183.016ZM88.6332 183.016H87.7523V179.451H83.7623V183.016H82.8814V175.44H83.7623V178.663H87.7523V175.44H88.6332V183.016ZM98.2456 180.171C98.2456 181.097 98.0124 181.82 97.546 182.342C97.0796 182.86 96.4354 183.119 95.6132 183.119C95.1054 183.119 94.6545 183 94.2607 182.762C93.8669 182.523 93.5629 182.181 93.3487 181.736C93.1345 181.29 93.0274 180.768 93.0274 180.171C93.0274 179.245 93.2589 178.525 93.7218 178.01C94.1847 177.492 94.8273 177.233 95.6495 177.233C96.444 177.233 97.0745 177.497 97.5408 178.025C98.0107 178.554 98.2456 179.269 98.2456 180.171ZM93.9187 180.171C93.9187 180.896 94.0638 181.449 94.354 181.829C94.6442 182.209 95.0708 182.399 95.6339 182.399C96.197 182.399 96.6236 182.211 96.9138 181.834C97.2075 181.454 97.3543 180.9 97.3543 180.171C97.3543 179.449 97.2075 178.901 96.9138 178.528C96.6236 178.152 96.1935 177.963 95.6235 177.963C95.0604 177.963 94.6355 178.148 94.3488 178.518C94.0621 178.887 93.9187 179.438 93.9187 180.171ZM100.567 177.336V181.021C100.567 181.484 100.672 181.829 100.883 182.057C101.094 182.285 101.424 182.399 101.873 182.399C102.467 182.399 102.901 182.237 103.174 181.912C103.45 181.587 103.588 181.057 103.588 180.321V177.336H104.448V183.016H103.738L103.614 182.254H103.567C103.391 182.534 103.146 182.748 102.832 182.896C102.521 183.045 102.165 183.119 101.764 183.119C101.073 183.119 100.555 182.955 100.209 182.627C99.8675 182.299 99.6965 181.774 99.6965 181.052V177.336H100.567ZM108.112 182.409C108.264 182.409 108.411 182.399 108.552 182.378C108.694 182.354 108.806 182.33 108.889 182.306V182.964C108.796 183.009 108.658 183.045 108.475 183.073C108.295 183.104 108.133 183.119 107.987 183.119C106.889 183.119 106.34 182.541 106.34 181.383V178.005H105.526V177.59L106.34 177.233L106.702 176.02H107.2V177.336H108.848V178.005H107.2V181.347C107.2 181.689 107.281 181.952 107.443 182.135C107.606 182.318 107.829 182.409 108.112 182.409ZM117.688 180.171C117.688 181.097 117.455 181.82 116.988 182.342C116.522 182.86 115.878 183.119 115.056 183.119C114.548 183.119 114.097 183 113.703 182.762C113.309 182.523 113.005 182.181 112.791 181.736C112.577 181.29 112.47 180.768 112.47 180.171C112.47 179.245 112.701 178.525 113.164 178.01C113.627 177.492 114.27 177.233 115.092 177.233C115.886 177.233 116.517 177.497 116.983 178.025C117.453 178.554 117.688 179.269 117.688 180.171ZM113.361 180.171C113.361 180.896 113.506 181.449 113.796 181.829C114.087 182.209 114.513 182.399 115.076 182.399C115.639 182.399 116.066 182.211 116.356 181.834C116.65 181.454 116.797 180.9 116.797 180.171C116.797 179.449 116.65 178.901 116.356 178.528C116.066 178.152 115.636 177.963 115.066 177.963C114.503 177.963 114.078 178.148 113.791 178.518C113.504 178.887 113.361 179.438 113.361 180.171ZM121.761 178.005H120.315V183.016H119.455V178.005H118.439V177.616L119.455 177.305V176.989C119.455 175.593 120.065 174.896 121.284 174.896C121.585 174.896 121.937 174.956 122.341 175.077L122.118 175.766C121.787 175.659 121.503 175.606 121.269 175.606C120.944 175.606 120.704 175.714 120.548 175.932C120.393 176.146 120.315 176.492 120.315 176.968V177.336H121.761V178.005ZM130.181 179.217C130.181 180.527 129.974 181.504 129.56 182.15C129.148 182.796 128.518 183.119 127.668 183.119C126.853 183.119 126.233 182.789 125.808 182.13C125.383 181.466 125.171 180.496 125.171 179.217C125.171 177.898 125.376 176.918 125.787 176.279C126.198 175.64 126.825 175.321 127.668 175.321C128.49 175.321 129.114 175.654 129.539 176.321C129.967 176.987 130.181 177.953 130.181 179.217ZM126.041 179.217C126.041 180.319 126.171 181.123 126.43 181.627C126.689 182.128 127.102 182.378 127.668 182.378C128.242 182.378 128.656 182.124 128.912 181.617C129.171 181.105 129.3 180.306 129.3 179.217C129.3 178.129 129.171 177.333 128.912 176.828C128.656 176.321 128.242 176.067 127.668 176.067C127.102 176.067 126.689 176.317 126.43 176.818C126.171 177.316 126.041 178.115 126.041 179.217ZM131.503 182.466C131.503 182.235 131.555 182.06 131.658 181.943C131.765 181.822 131.917 181.762 132.114 181.762C132.315 181.762 132.47 181.822 132.581 181.943C132.695 182.06 132.752 182.235 132.752 182.466C132.752 182.691 132.695 182.864 132.581 182.985C132.467 183.105 132.311 183.166 132.114 183.166C131.938 183.166 131.791 183.112 131.674 183.005C131.56 182.895 131.503 182.715 131.503 182.466ZM139.084 179.217C139.084 180.527 138.877 181.504 138.462 182.15C138.051 182.796 137.42 183.119 136.571 183.119C135.755 183.119 135.135 182.789 134.71 182.13C134.285 181.466 134.073 180.496 134.073 179.217C134.073 177.898 134.279 176.918 134.69 176.279C135.101 175.64 135.728 175.321 136.571 175.321C137.393 175.321 138.016 175.654 138.441 176.321C138.87 176.987 139.084 177.953 139.084 179.217ZM134.944 179.217C134.944 180.319 135.073 181.123 135.332 181.627C135.591 182.128 136.004 182.378 136.571 182.378C137.144 182.378 137.559 182.124 137.814 181.617C138.073 181.105 138.203 180.306 138.203 179.217C138.203 178.129 138.073 177.333 137.814 176.828C137.559 176.321 137.144 176.067 136.571 176.067C136.004 176.067 135.591 176.317 135.332 176.818C135.073 177.316 134.944 178.115 134.944 179.217ZM143.323 183.016H142.483V177.616C142.483 177.167 142.497 176.742 142.525 176.341C142.452 176.414 142.371 176.49 142.281 176.569C142.191 176.649 141.78 176.986 141.048 177.58L140.592 176.989L142.597 175.44H143.323V183.016ZM153.712 183.016H149.489V175.44H153.712V176.222H150.37V178.663H153.51V179.44H150.37V182.228H153.712V183.016ZM157.728 183.016H156.847V176.222H154.448V175.44H160.127V176.222H157.728V183.016ZM167.024 183.016H166.143V179.451H162.153V183.016H161.273V175.44H162.153V178.663H166.143V175.44H167.024V183.016ZM174.326 177.233C174.578 177.233 174.804 177.253 175.004 177.295L174.885 178.093C174.65 178.041 174.443 178.015 174.263 178.015C173.804 178.015 173.41 178.202 173.082 178.575C172.757 178.948 172.595 179.413 172.595 179.969V183.016H171.735V177.336H172.445L172.543 178.388H172.585C172.795 178.019 173.049 177.734 173.346 177.533C173.643 177.333 173.97 177.233 174.326 177.233ZM178.466 183.119C177.627 183.119 176.963 182.864 176.476 182.352C175.992 181.841 175.751 181.131 175.751 180.223C175.751 179.307 175.975 178.58 176.424 178.041C176.877 177.502 177.483 177.233 178.243 177.233C178.955 177.233 179.518 177.468 179.932 177.937C180.347 178.404 180.554 179.02 180.554 179.787V180.331H176.642C176.659 180.998 176.827 181.504 177.145 181.85C177.466 182.195 177.917 182.368 178.497 182.368C179.109 182.368 179.713 182.24 180.311 181.984V182.751C180.007 182.883 179.718 182.976 179.445 183.031C179.176 183.09 178.849 183.119 178.466 183.119ZM178.233 177.953C177.777 177.953 177.412 178.101 177.139 178.399C176.87 178.696 176.711 179.107 176.663 179.632H179.632C179.632 179.09 179.511 178.675 179.269 178.388C179.027 178.098 178.682 177.953 178.233 177.953ZM184.171 182.399C184.745 182.399 185.163 182.245 185.425 181.938C185.688 181.63 185.828 181.112 185.845 180.383V180.192C185.845 179.397 185.71 178.825 185.441 178.476C185.171 178.127 184.745 177.953 184.161 177.953C183.656 177.953 183.27 178.15 183 178.544C182.734 178.934 182.601 179.487 182.601 180.202C182.601 180.917 182.732 181.463 182.995 181.839C183.261 182.212 183.653 182.399 184.171 182.399ZM184.042 183.119C183.309 183.119 182.738 182.862 182.326 182.347C181.915 181.832 181.71 181.114 181.71 180.192C181.71 179.262 181.917 178.537 182.332 178.015C182.746 177.493 183.323 177.233 184.062 177.233C184.84 177.233 185.437 177.526 185.855 178.114H185.902L186.026 177.336H186.705V185.565H185.845V183.135C185.845 182.789 185.864 182.496 185.902 182.254H185.835C185.437 182.831 184.84 183.119 184.042 183.119ZM189.343 177.336V181.021C189.343 181.484 189.448 181.829 189.659 182.057C189.87 182.285 190.199 182.399 190.649 182.399C191.243 182.399 191.676 182.237 191.949 181.912C192.226 181.587 192.364 181.057 192.364 180.321V177.336H193.224V183.016H192.514L192.39 182.254H192.343C192.167 182.534 191.922 182.748 191.607 182.896C191.296 183.045 190.94 183.119 190.54 183.119C189.849 183.119 189.331 182.955 188.985 182.627C188.643 182.299 188.472 181.774 188.472 181.052V177.336H189.343ZM195.913 183.016H195.053V177.336H195.913V183.016ZM194.981 175.797C194.981 175.6 195.029 175.457 195.126 175.367C195.222 175.274 195.343 175.227 195.488 175.227C195.627 175.227 195.746 175.274 195.846 175.367C195.946 175.46 195.996 175.604 195.996 175.797C195.996 175.991 195.946 176.136 195.846 176.233C195.746 176.326 195.627 176.372 195.488 176.372C195.343 176.372 195.222 176.326 195.126 176.233C195.029 176.136 194.981 175.991 194.981 175.797ZM200.328 177.233C200.58 177.233 200.807 177.253 201.007 177.295L200.888 178.093C200.653 178.041 200.446 178.015 200.266 178.015C199.807 178.015 199.413 178.202 199.085 178.575C198.76 178.948 198.597 179.413 198.597 179.969V183.016H197.737V177.336H198.447L198.546 178.388H198.587C198.798 178.019 199.052 177.734 199.349 177.533C199.646 177.333 199.972 177.233 200.328 177.233ZM204.469 183.119C203.629 183.119 202.966 182.864 202.479 182.352C201.995 181.841 201.753 181.131 201.753 180.223C201.753 179.307 201.978 178.58 202.427 178.041C202.879 177.502 203.486 177.233 204.246 177.233C204.957 177.233 205.52 177.468 205.935 177.937C206.35 178.404 206.557 179.02 206.557 179.787V180.331H202.645C202.662 180.998 202.829 181.504 203.147 181.85C203.468 182.195 203.919 182.368 204.5 182.368C205.111 182.368 205.716 182.24 206.313 181.984V182.751C206.009 182.883 205.721 182.976 205.448 183.031C205.178 183.09 204.852 183.119 204.469 183.119ZM204.235 177.953C203.779 177.953 203.415 178.101 203.142 178.399C202.873 178.696 202.714 179.107 202.665 179.632H205.634C205.634 179.09 205.514 178.675 205.272 178.388C205.03 178.098 204.684 177.953 204.235 177.953ZM211.894 182.254H211.848C211.45 182.831 210.856 183.119 210.065 183.119C209.322 183.119 208.744 182.865 208.329 182.358C207.918 181.85 207.712 181.128 207.712 180.192C207.712 179.255 207.92 178.528 208.334 178.01C208.749 177.492 209.326 177.233 210.065 177.233C210.835 177.233 211.426 177.512 211.837 178.072H211.905L211.868 177.663L211.848 177.264V174.953H212.708V183.016H212.008L211.894 182.254ZM210.174 182.399C210.761 182.399 211.186 182.24 211.449 181.922C211.715 181.601 211.848 181.085 211.848 180.373V180.192C211.848 179.387 211.713 178.813 211.443 178.471C211.177 178.126 210.751 177.953 210.163 177.953C209.659 177.953 209.272 178.15 209.003 178.544C208.737 178.934 208.604 179.487 208.604 180.202C208.604 180.927 208.737 181.475 209.003 181.845C209.269 182.214 209.659 182.399 210.174 182.399Z" class="path-4"/>
<path d="M43.1183 162.014C43.1183 163.453 42.7576 164.571 42.0362 165.369C41.3188 166.167 40.3011 166.566 38.9832 166.566C37.6492 166.566 36.6235 166.171 35.9061 165.381C35.1927 164.587 34.836 163.461 34.836 162.002C34.836 160.543 35.1947 159.422 35.9121 158.641C36.6335 157.859 37.6613 157.468 38.9953 157.468C40.3092 157.468 41.3248 157.865 42.0422 158.659C42.7596 159.453 43.1183 160.571 43.1183 162.014ZM36.3716 162.014C36.3716 163.102 36.5912 163.928 37.0305 164.493C37.4698 165.053 38.1207 165.333 38.9832 165.333C39.8417 165.333 40.4885 165.055 40.9238 164.499C41.3631 163.942 41.5828 163.114 41.5828 162.014C41.5828 160.93 41.3651 160.108 40.9299 159.547C40.4986 158.987 39.8538 158.707 38.9953 158.707C38.1288 158.707 37.4739 158.987 37.0305 159.547C36.5912 160.108 36.3716 160.93 36.3716 162.014ZM47.3562 165.418C47.7028 165.418 48.0495 165.363 48.3961 165.254V166.324C48.2389 166.393 48.0353 166.449 47.7855 166.494C47.5396 166.542 47.2837 166.566 47.0177 166.566C45.6716 166.566 44.9985 165.857 44.9985 164.438V160.835H44.0856V160.206L45.065 159.686L45.5486 158.272H46.4252V159.759H48.3296V160.835H46.4252V164.414C46.4252 164.757 46.5099 165.011 46.6791 165.176C46.8524 165.337 47.0781 165.418 47.3562 165.418ZM55.6204 166.445H54.1937V162.334C54.1937 161.818 54.0889 161.434 53.8793 161.18C53.6738 160.926 53.3453 160.799 52.8939 160.799C52.2974 160.799 51.8581 160.978 51.576 161.337C51.2979 161.692 51.1589 162.288 51.1589 163.126V166.445H49.7382V157.039H51.1589V159.426C51.1589 159.809 51.1347 160.218 51.0863 160.654H51.177C51.3705 160.331 51.6385 160.081 51.981 159.904C52.3277 159.727 52.7307 159.638 53.1901 159.638C54.8103 159.638 55.6204 160.454 55.6204 162.087V166.445ZM60.5173 166.566C59.4775 166.566 58.6633 166.264 58.0749 165.659C57.4905 165.051 57.1983 164.215 57.1983 163.151C57.1983 162.058 57.4704 161.2 58.0145 160.575C58.5586 159.95 59.3062 159.638 60.2573 159.638C61.14 159.638 61.8372 159.906 62.3491 160.442C62.8609 160.978 63.1169 161.716 63.1169 162.655V163.423H58.6613C58.6815 164.071 58.8568 164.571 59.1873 164.922C59.5178 165.268 59.9833 165.442 60.5838 165.442C60.9788 165.442 61.3455 165.405 61.6841 165.333C62.0267 165.256 62.3934 165.131 62.7844 164.958V166.113C62.4378 166.278 62.0871 166.395 61.7324 166.463C61.3778 166.532 60.9727 166.566 60.5173 166.566ZM60.2573 160.714C59.8059 160.714 59.4432 160.857 59.1692 161.143C58.8991 161.43 58.7379 161.847 58.6855 162.395H61.7204C61.7123 161.843 61.5793 161.426 61.3214 161.143C61.0634 160.857 60.7087 160.714 60.2573 160.714ZM68.1225 159.638C68.4087 159.638 68.6445 159.658 68.8299 159.699L68.6908 161.022C68.4893 160.974 68.2797 160.95 68.0621 160.95C67.4938 160.95 67.0323 161.135 66.6777 161.506C66.327 161.877 66.1517 162.359 66.1517 162.951V166.445H64.731V159.759H65.8434L66.0308 160.938H66.1033C66.325 160.539 66.6132 160.222 66.9679 159.989C67.3266 159.755 67.7115 159.638 68.1225 159.638ZM79.2221 163.09C79.2221 164.182 78.942 165.035 78.3818 165.647C77.8215 166.26 77.0417 166.566 76.0422 166.566C75.4175 166.566 74.8653 166.425 74.3857 166.143C73.9061 165.861 73.5373 165.456 73.2794 164.928C73.0214 164.4 72.8924 163.787 72.8924 163.09C72.8924 162.006 73.1705 161.16 73.7267 160.551C74.2829 159.942 75.0668 159.638 76.0784 159.638C77.0457 159.638 77.8115 159.95 78.3757 160.575C78.94 161.196 79.2221 162.034 79.2221 163.09ZM74.3555 163.09C74.3555 164.634 74.9258 165.405 76.0663 165.405C77.1948 165.405 77.7591 164.634 77.7591 163.09C77.7591 161.563 77.1908 160.799 76.0542 160.799C75.4578 160.799 75.0245 160.996 74.7545 161.391C74.4885 161.786 74.3555 162.353 74.3555 163.09ZM84.252 166.566C83.4056 166.566 82.7486 166.262 82.2811 165.653H82.1965C82.2529 166.218 82.2811 166.56 82.2811 166.681V169.42H80.8604V159.759H82.0091C82.0413 159.884 82.1078 160.182 82.2086 160.654H82.2811C82.7245 159.977 83.3895 159.638 84.2761 159.638C85.1104 159.638 85.7593 159.94 86.2228 160.545C86.6903 161.149 86.9241 161.998 86.9241 163.09C86.9241 164.182 86.6863 165.035 86.2107 165.647C85.7391 166.26 85.0862 166.566 84.252 166.566ZM83.9074 160.799C83.3431 160.799 82.93 160.964 82.668 161.295C82.4101 161.625 82.2811 162.153 82.2811 162.878V163.09C82.2811 163.904 82.4101 164.495 82.668 164.861C82.926 165.224 83.3471 165.405 83.9315 165.405C84.4232 165.405 84.8021 165.204 85.0681 164.801C85.3341 164.398 85.4671 163.824 85.4671 163.078C85.4671 162.328 85.3341 161.762 85.0681 161.379C84.8061 160.992 84.4192 160.799 83.9074 160.799ZM91.0652 165.418C91.4118 165.418 91.7585 165.363 92.1051 165.254V166.324C91.9479 166.393 91.7443 166.449 91.4945 166.494C91.2486 166.542 90.9927 166.566 90.7267 166.566C89.3806 166.566 88.7075 165.857 88.7075 164.438V160.835H87.7946V160.206L88.774 159.686L89.2576 158.272H90.1342V159.759H92.0386V160.835H90.1342V164.414C90.1342 164.757 90.2189 165.011 90.3881 165.176C90.5614 165.337 90.7871 165.418 91.0652 165.418ZM94.8679 166.445H93.4472V159.759H94.8679V166.445ZM93.3625 157.988C93.3625 157.734 93.431 157.538 93.5681 157.401C93.7091 157.264 93.9086 157.196 94.1666 157.196C94.4165 157.196 94.6099 157.264 94.7469 157.401C94.888 157.538 94.9585 157.734 94.9585 157.988C94.9585 158.229 94.888 158.421 94.7469 158.562C94.6099 158.699 94.4165 158.768 94.1666 158.768C93.9086 158.768 93.7091 158.699 93.5681 158.562C93.431 158.421 93.3625 158.229 93.3625 157.988ZM102.836 163.09C102.836 164.182 102.556 165.035 101.996 165.647C101.435 166.26 100.655 166.566 99.6559 166.566C99.0312 166.566 98.479 166.425 97.9994 166.143C97.5198 165.861 97.151 165.456 96.8931 164.928C96.6352 164.4 96.5062 163.787 96.5062 163.09C96.5062 162.006 96.7843 161.16 97.3405 160.551C97.8967 159.942 98.6806 159.638 99.6922 159.638C100.659 159.638 101.425 159.95 101.989 160.575C102.554 161.196 102.836 162.034 102.836 163.09ZM97.9692 163.09C97.9692 164.634 98.5395 165.405 99.6801 165.405C100.809 165.405 101.373 164.634 101.373 163.09C101.373 161.563 100.805 160.799 99.668 160.799C99.0715 160.799 98.6382 160.996 98.3682 161.391C98.1022 161.786 97.9692 162.353 97.9692 163.09ZM110.356 166.445H108.93V162.334C108.93 161.818 108.825 161.434 108.615 161.18C108.41 160.926 108.081 160.799 107.63 160.799C107.029 160.799 106.59 160.976 106.312 161.331C106.034 161.685 105.895 162.28 105.895 163.114V166.445H104.474V159.759H105.587L105.786 160.636H105.859C106.06 160.317 106.346 160.071 106.717 159.898C107.088 159.725 107.499 159.638 107.95 159.638C109.554 159.638 110.356 160.454 110.356 162.087V166.445ZM116.825 164.541C116.825 165.194 116.587 165.696 116.112 166.046C115.636 166.393 114.955 166.566 114.068 166.566C113.178 166.566 112.462 166.431 111.922 166.161V164.934C112.708 165.297 113.44 165.478 114.117 165.478C114.991 165.478 115.429 165.214 115.429 164.686C115.429 164.517 115.38 164.376 115.284 164.263C115.187 164.15 115.028 164.033 114.806 163.912C114.584 163.791 114.276 163.654 113.881 163.501C113.111 163.203 112.589 162.905 112.315 162.606C112.045 162.308 111.91 161.921 111.91 161.446C111.91 160.873 112.14 160.43 112.599 160.116C113.063 159.797 113.692 159.638 114.486 159.638C115.271 159.638 116.015 159.797 116.716 160.116L116.257 161.186C115.535 160.887 114.929 160.738 114.437 160.738C113.688 160.738 113.313 160.952 113.313 161.379C113.313 161.589 113.409 161.766 113.603 161.911C113.8 162.056 114.228 162.256 114.885 162.51C115.437 162.723 115.838 162.919 116.088 163.096C116.337 163.273 116.523 163.479 116.644 163.713C116.765 163.942 116.825 164.219 116.825 164.541ZM119.558 157.607L119.31 160.799H118.403L118.155 157.607H119.558ZM129.085 164.541C129.085 165.194 128.848 165.696 128.372 166.046C127.896 166.393 127.215 166.566 126.329 166.566C125.438 166.566 124.723 166.431 124.183 166.161V164.934C124.968 165.297 125.7 165.478 126.377 165.478C127.252 165.478 127.689 165.214 127.689 164.686C127.689 164.517 127.641 164.376 127.544 164.263C127.447 164.15 127.288 164.033 127.066 163.912C126.845 163.791 126.536 163.654 126.141 163.501C125.371 163.203 124.85 162.905 124.575 162.606C124.305 162.308 124.17 161.921 124.17 161.446C124.17 160.873 124.4 160.43 124.86 160.116C125.323 159.797 125.952 159.638 126.746 159.638C127.532 159.638 128.275 159.797 128.977 160.116L128.517 161.186C127.796 160.887 127.189 160.738 126.697 160.738C125.948 160.738 125.573 160.952 125.573 161.379C125.573 161.589 125.67 161.766 125.863 161.911C126.061 162.056 126.488 162.256 127.145 162.51C127.697 162.723 128.098 162.919 128.348 163.096C128.598 163.273 128.783 163.479 128.904 163.713C129.025 163.942 129.085 164.219 129.085 164.541ZM135.343 166.445L135.143 165.569H135.07C134.873 165.879 134.591 166.123 134.224 166.3C133.861 166.478 133.446 166.566 132.979 166.566C132.169 166.566 131.564 166.365 131.165 165.962C130.766 165.559 130.567 164.948 130.567 164.13V159.759H131.999V163.882C131.999 164.394 132.104 164.779 132.314 165.037C132.523 165.291 132.852 165.418 133.299 165.418C133.896 165.418 134.333 165.24 134.611 164.886C134.893 164.527 135.034 163.928 135.034 163.09V159.759H136.461V166.445H135.343ZM144.121 166.445H142.694V162.322C142.694 161.81 142.597 161.43 142.404 161.18C142.21 160.926 141.908 160.799 141.497 160.799C140.949 160.799 140.546 160.978 140.288 161.337C140.034 161.692 139.907 162.284 139.907 163.114V166.445H138.486V159.759H139.599L139.798 160.636H139.871C140.056 160.317 140.324 160.071 140.675 159.898C141.029 159.725 141.418 159.638 141.841 159.638C142.869 159.638 143.55 159.989 143.885 160.69H143.982C144.179 160.36 144.457 160.102 144.816 159.916C145.175 159.731 145.586 159.638 146.049 159.638C146.847 159.638 147.427 159.84 147.79 160.243C148.157 160.646 148.34 161.26 148.34 162.087V166.445H146.92V162.322C146.92 161.81 146.821 161.43 146.623 161.18C146.43 160.926 146.128 160.799 145.717 160.799C145.164 160.799 144.759 160.972 144.501 161.319C144.248 161.661 144.121 162.189 144.121 162.903V166.445ZM159.47 163.09C159.47 164.182 159.19 165.035 158.63 165.647C158.07 166.26 157.29 166.566 156.29 166.566C155.665 166.566 155.113 166.425 154.634 166.143C154.154 165.861 153.785 165.456 153.527 164.928C153.269 164.4 153.14 163.787 153.14 163.09C153.14 162.006 153.419 161.16 153.975 160.551C154.531 159.942 155.315 159.638 156.326 159.638C157.294 159.638 158.06 159.95 158.624 160.575C159.188 161.196 159.47 162.034 159.47 163.09ZM154.603 163.09C154.603 164.634 155.174 165.405 156.314 165.405C157.443 165.405 158.007 164.634 158.007 163.09C158.007 161.563 157.439 160.799 156.302 160.799C155.706 160.799 155.273 160.996 155.002 161.391C154.736 161.786 154.603 162.353 154.603 163.09ZM164.464 160.835H162.831V166.445H161.405V160.835H160.304V160.17L161.405 159.735V159.3C161.405 158.51 161.59 157.925 161.961 157.546C162.332 157.163 162.898 156.972 163.66 156.972C164.159 156.972 164.651 157.055 165.135 157.22L164.76 158.296C164.409 158.183 164.075 158.127 163.756 158.127C163.434 158.127 163.198 158.227 163.049 158.429C162.904 158.626 162.831 158.925 162.831 159.324V159.759H164.464V160.835ZM172.178 160.835H170.545V166.445H169.119V160.835H168.018V160.17L169.119 159.735V159.3C169.119 158.51 169.304 157.925 169.675 157.546C170.046 157.163 170.612 156.972 171.374 156.972C171.873 156.972 172.365 157.055 172.849 157.22L172.474 158.296C172.123 158.183 171.789 158.127 171.47 158.127C171.148 158.127 170.912 158.227 170.763 158.429C170.618 158.626 170.545 158.925 170.545 159.324V159.759H172.178V160.835ZM178.036 166.445L177.836 165.569H177.764C177.566 165.879 177.284 166.123 176.917 166.3C176.555 166.478 176.14 166.566 175.672 166.566C174.862 166.566 174.257 166.365 173.858 165.962C173.459 165.559 173.26 164.948 173.26 164.13V159.759H174.693V163.882C174.693 164.394 174.797 164.779 175.007 165.037C175.217 165.291 175.545 165.418 175.992 165.418C176.589 165.418 177.026 165.24 177.304 164.886C177.586 164.527 177.728 163.928 177.728 163.09V159.759H179.154V166.445H178.036ZM187.062 166.445H185.635V162.334C185.635 161.818 185.53 161.434 185.321 161.18C185.115 160.926 184.787 160.799 184.335 160.799C183.735 160.799 183.295 160.976 183.017 161.331C182.739 161.685 182.6 162.28 182.6 163.114V166.445H181.18V159.759H182.292L182.491 160.636H182.564C182.765 160.317 183.052 160.071 183.422 159.898C183.793 159.725 184.204 159.638 184.656 159.638C186.26 159.638 187.062 160.454 187.062 162.087V166.445ZM191.294 166.566C190.459 166.566 189.808 166.264 189.341 165.659C188.873 165.055 188.64 164.206 188.64 163.114C188.64 162.018 188.875 161.166 189.347 160.557C189.823 159.944 190.48 159.638 191.318 159.638C192.196 159.638 192.865 159.963 193.325 160.611H193.397C193.329 160.132 193.295 159.753 193.295 159.475V157.039H194.721V166.445H193.609L193.361 165.569H193.295C192.839 166.234 192.172 166.566 191.294 166.566ZM191.675 165.418C192.259 165.418 192.684 165.254 192.95 164.928C193.216 164.597 193.353 164.063 193.361 163.326V163.126C193.361 162.284 193.224 161.685 192.95 161.331C192.676 160.976 192.247 160.799 191.662 160.799C191.163 160.799 190.778 161.002 190.508 161.409C190.238 161.812 190.103 162.389 190.103 163.138C190.103 163.88 190.234 164.446 190.496 164.837C190.758 165.224 191.151 165.418 191.675 165.418ZM201.245 164.541C201.245 165.194 201.007 165.696 200.531 166.046C200.056 166.393 199.374 166.566 198.488 166.566C197.597 166.566 196.882 166.431 196.342 166.161V164.934C197.128 165.297 197.859 165.478 198.536 165.478C199.411 165.478 199.848 165.214 199.848 164.686C199.848 164.517 199.8 164.376 199.703 164.263C199.606 164.15 199.447 164.033 199.225 163.912C199.004 163.791 198.695 163.654 198.3 163.501C197.531 163.203 197.009 162.905 196.735 162.606C196.465 162.308 196.33 161.921 196.33 161.446C196.33 160.873 196.559 160.43 197.019 160.116C197.482 159.797 198.111 159.638 198.905 159.638C199.691 159.638 200.434 159.797 201.136 160.116L200.676 161.186C199.955 160.887 199.348 160.738 198.857 160.738C198.107 160.738 197.732 160.952 197.732 161.379C197.732 161.589 197.829 161.766 198.022 161.911C198.22 162.056 198.647 162.256 199.304 162.51C199.856 162.723 200.257 162.919 200.507 163.096C200.757 163.273 200.942 163.479 201.063 163.713C201.184 163.942 201.245 164.219 201.245 164.541Z" class="path-5"/>
<path d="M269.814 170.773C270.745 170.773 271.476 171.005 272.008 171.468C272.544 171.928 272.812 172.559 272.812 173.361C272.812 174.276 272.52 174.993 271.936 175.513C271.355 176.033 270.553 176.293 269.53 176.293C268.534 176.293 267.774 176.134 267.25 175.815V174.848C267.533 175.029 267.883 175.172 268.302 175.277C268.722 175.378 269.135 175.428 269.542 175.428C270.251 175.428 270.801 175.261 271.192 174.927C271.587 174.592 271.785 174.108 271.785 173.476C271.785 172.242 271.029 171.626 269.518 171.626C269.135 171.626 268.623 171.684 267.982 171.801L267.462 171.468L267.795 167.333H272.19V168.258H268.653L268.429 170.912C268.893 170.82 269.354 170.773 269.814 170.773ZM274.239 172.393C274.239 170.656 274.576 169.359 275.249 168.5C275.926 167.638 276.925 167.206 278.247 167.206C278.703 167.206 279.061 167.245 279.323 167.321V168.186C279.013 168.085 278.658 168.035 278.259 168.035C277.312 168.035 276.589 168.331 276.089 168.923C275.589 169.512 275.315 170.439 275.267 171.704H275.339C275.783 171.011 276.484 170.664 277.443 170.664C278.237 170.664 278.862 170.904 279.317 171.384C279.777 171.863 280.006 172.514 280.006 173.337C280.006 174.255 279.755 174.979 279.251 175.507C278.751 176.031 278.074 176.293 277.22 176.293C276.305 176.293 275.579 175.95 275.043 175.265C274.507 174.576 274.239 173.619 274.239 172.393ZM277.207 175.44C277.78 175.44 278.223 175.261 278.537 174.902C278.856 174.54 279.015 174.018 279.015 173.337C279.015 172.752 278.868 172.293 278.574 171.958C278.279 171.624 277.84 171.456 277.256 171.456C276.893 171.456 276.561 171.531 276.258 171.68C275.956 171.829 275.714 172.035 275.533 172.297C275.355 172.559 275.267 172.831 275.267 173.113C275.267 173.528 275.347 173.915 275.509 174.274C275.67 174.632 275.898 174.916 276.192 175.126C276.49 175.336 276.829 175.44 277.207 175.44ZM282.08 169.969C282.08 170.654 282.155 171.168 282.304 171.511C282.453 171.853 282.695 172.025 283.029 172.025C283.69 172.025 284.021 171.34 284.021 169.969C284.021 168.607 283.69 167.926 283.029 167.926C282.695 167.926 282.453 168.095 282.304 168.434C282.155 168.772 282.08 169.284 282.08 169.969ZM284.849 169.969C284.849 170.888 284.694 171.583 284.383 172.055C284.077 172.522 283.626 172.756 283.029 172.756C282.465 172.756 282.026 172.516 281.711 172.037C281.401 171.557 281.246 170.868 281.246 169.969C281.246 169.054 281.395 168.365 281.693 167.902C281.995 167.438 282.441 167.206 283.029 167.206C283.614 167.206 284.063 167.446 284.377 167.926C284.692 168.405 284.849 169.087 284.849 169.969ZM287.4 173.512C287.4 174.201 287.475 174.717 287.624 175.06C287.773 175.398 288.017 175.567 288.355 175.567C288.694 175.567 288.944 175.4 289.105 175.066C289.266 174.727 289.347 174.209 289.347 173.512C289.347 172.823 289.266 172.313 289.105 171.982C288.944 171.648 288.694 171.481 288.355 171.481C288.017 171.481 287.773 171.648 287.624 171.982C287.475 172.313 287.4 172.823 287.4 173.512ZM290.175 173.512C290.175 174.427 290.02 175.12 289.71 175.592C289.403 176.059 288.952 176.293 288.355 176.293C287.783 176.293 287.342 176.053 287.031 175.573C286.725 175.094 286.572 174.407 286.572 173.512C286.572 172.597 286.721 171.908 287.019 171.444C287.322 170.981 287.767 170.749 288.355 170.749C288.928 170.749 289.373 170.987 289.691 171.462C290.014 171.934 290.175 172.617 290.175 173.512ZM288.615 167.333L283.712 176.172H282.824L287.727 167.333H288.615Z" class="path-6"/>
<rect x="304.722" y="169.359" width="75.1715" height="7.07497" rx="3.53748" class="rect-4"/>
<rect x="304.722" y="169.359" width="51.69" height="7.07497" rx="3.53748" class="rect-5"/>
<rect x="13.5" y="14.7656" width="59" height="56.7358" rx="1.19811" fill="#2A1260" class="rect-6"/>
<path d="M46.2084 53.6055H39.6348V52.4247L42.1356 49.9107C42.8741 49.1546 43.3627 48.6195 43.6015 48.3055C43.8447 47.9871 44.0216 47.6886 44.1322 47.41C44.2427 47.1314 44.298 46.8329 44.298 46.5145C44.298 46.0767 44.1653 45.7318 43.9 45.4797C43.6391 45.2277 43.2765 45.1016 42.8122 45.1016C42.4407 45.1016 42.0803 45.1702 41.7309 45.3073C41.386 45.4444 40.9858 45.692 40.5303 46.0502L39.6879 45.022C40.2274 44.5666 40.7514 44.2437 41.26 44.0536C41.7685 43.8634 42.3102 43.7684 42.8851 43.7684C43.7873 43.7684 44.5103 44.0049 45.0542 44.4781C45.5981 44.9469 45.8701 45.5792 45.8701 46.3752C45.8701 46.813 45.7905 47.2287 45.6313 47.6223C45.4765 48.0158 45.2355 48.4227 44.9083 48.8428C44.5855 49.2585 44.0459 49.8223 43.2898 50.5343L41.6049 52.1661V52.2324H46.2084V53.6055Z" class="path-7"/>
<path d="M36.2541 31.3506C36.2541 31.8536 36.0722 32.2483 35.7085 32.5346C35.3447 32.8209 34.843 32.9641 34.2033 32.9641C33.5635 32.9641 33.0399 32.8648 32.6323 32.6662V31.7917C32.8903 31.9129 33.1637 32.0084 33.4526 32.078C33.7441 32.1477 34.015 32.1825 34.2652 32.1825C34.6315 32.1825 34.9011 32.1128 35.0739 31.9735C35.2493 31.8342 35.337 31.6472 35.337 31.4125C35.337 31.201 35.257 31.0217 35.0971 30.8746C34.9372 30.7276 34.607 30.5535 34.1065 30.3523C33.5906 30.1433 33.2269 29.9047 33.0154 29.6364C32.8038 29.3681 32.6981 29.0457 32.6981 28.6691C32.6981 28.197 32.8658 27.8255 33.2011 27.5547C33.5365 27.2838 33.9866 27.1484 34.5515 27.1484C35.0932 27.1484 35.6324 27.2671 36.1689 27.5044L35.8749 28.2589C35.3718 28.0474 34.923 27.9416 34.5283 27.9416C34.2291 27.9416 34.0021 28.0074 33.8473 28.139C33.6925 28.2679 33.6151 28.4395 33.6151 28.6536C33.6151 28.8006 33.6461 28.927 33.708 29.0328C33.7699 29.136 33.8718 29.234 34.0137 29.3269C34.1556 29.4197 34.4109 29.5423 34.7798 29.6945C35.1951 29.8673 35.4995 30.0285 35.693 30.1781C35.8865 30.3278 36.0283 30.4967 36.1186 30.685C36.2089 30.8733 36.2541 31.0952 36.2541 31.3506ZM38.8466 32.2289C39.0684 32.2289 39.2902 32.1941 39.5121 32.1244V32.8093C39.4115 32.8532 39.2812 32.8893 39.1213 32.9177C38.9639 32.9486 38.8001 32.9641 38.6299 32.9641C37.7683 32.9641 37.3375 32.5101 37.3375 31.6021V29.2959H36.7532V28.8935L37.3801 28.5607L37.6896 27.6553H38.2507V28.6072H39.4695V29.2959H38.2507V31.5866C38.2507 31.8059 38.3048 31.9684 38.4132 32.0741C38.5241 32.1773 38.6686 32.2289 38.8466 32.2289ZM43.0487 32.8867L42.8669 32.2908H42.8359C42.6295 32.5514 42.4219 32.7294 42.2129 32.8248C42.004 32.9177 41.7357 32.9641 41.4081 32.9641C40.9876 32.9641 40.6587 32.8506 40.4214 32.6236C40.1867 32.3966 40.0693 32.0754 40.0693 31.6601C40.0693 31.219 40.2331 30.8862 40.5607 30.6618C40.8883 30.4374 41.3875 30.3149 42.0582 30.2942L42.7972 30.271V30.0427C42.7972 29.7693 42.7327 29.5655 42.6037 29.4313C42.4773 29.2946 42.28 29.2263 42.0117 29.2263C41.7925 29.2263 41.5822 29.2585 41.381 29.323C41.1798 29.3875 40.9863 29.4636 40.8006 29.5513L40.5065 28.9012C40.7387 28.78 40.9928 28.6884 41.2688 28.6265C41.5448 28.562 41.8054 28.5298 42.0504 28.5298C42.5947 28.5298 43.0049 28.6484 43.2809 28.8858C43.5595 29.1231 43.6988 29.4958 43.6988 30.004V32.8867H43.0487ZM41.6944 32.2676C42.0246 32.2676 42.289 32.176 42.4877 31.9929C42.6889 31.8072 42.7895 31.5479 42.7895 31.2151V30.8437L42.24 30.8669C41.8118 30.8824 41.4997 30.9546 41.3036 31.0836C41.1102 31.21 41.0134 31.4047 41.0134 31.6679C41.0134 31.8587 41.0702 32.0071 41.1837 32.1128C41.2972 32.216 41.4674 32.2676 41.6944 32.2676ZM48.582 28.6072V29.1063L47.8506 29.2417C47.9177 29.332 47.9732 29.443 48.017 29.5745C48.0609 29.7061 48.0828 29.8454 48.0828 29.9924C48.0828 30.4335 47.9306 30.7805 47.6262 31.0333C47.3218 31.2861 46.9026 31.4125 46.3687 31.4125C46.2319 31.4125 46.1081 31.4022 45.9972 31.3815C45.8012 31.5028 45.7031 31.6446 45.7031 31.8072C45.7031 31.9052 45.7483 31.9787 45.8386 32.0277C45.9314 32.0767 46.1004 32.1012 46.3454 32.1012H47.0922C47.5643 32.1012 47.9229 32.2018 48.1679 32.403C48.413 32.6043 48.5355 32.8945 48.5355 33.2737C48.5355 33.7586 48.3356 34.1327 47.9358 34.3958C47.5359 34.6589 46.9581 34.7905 46.2023 34.7905C45.6193 34.7905 45.1743 34.6873 44.8673 34.4809C44.5604 34.2745 44.4069 33.9805 44.4069 33.5987C44.4069 33.3356 44.4894 33.1137 44.6545 32.9332C44.8222 32.7552 45.0556 32.6313 45.3549 32.5617C45.2336 32.5101 45.133 32.4276 45.0531 32.314C44.9757 32.198 44.937 32.0767 44.937 31.9503C44.937 31.7904 44.9821 31.655 45.0724 31.544C45.1627 31.4331 45.2968 31.3235 45.4748 31.2151C45.253 31.1197 45.0724 30.9649 44.9331 30.7508C44.7964 30.5341 44.728 30.2813 44.728 29.9924C44.728 29.5281 44.8738 29.1682 45.1653 28.9128C45.4594 28.6575 45.8773 28.5298 46.419 28.5298C46.5402 28.5298 46.6666 28.5388 46.7982 28.5569C46.9323 28.5723 47.0329 28.5891 47.1 28.6072H48.582ZM45.2195 33.5523C45.2195 33.7483 45.3072 33.8992 45.4826 34.005C45.6606 34.1107 45.9095 34.1636 46.2294 34.1636C46.7247 34.1636 47.0935 34.0927 47.336 33.9508C47.5785 33.8089 47.6997 33.6206 47.6997 33.3859C47.6997 33.2001 47.6327 33.0673 47.4985 32.9873C47.367 32.9099 47.1206 32.8712 46.7595 32.8712H46.0707C45.8102 32.8712 45.6025 32.9319 45.4477 33.0531C45.2956 33.1769 45.2195 33.3433 45.2195 33.5523ZM45.6103 29.9924C45.6103 30.2607 45.6786 30.4671 45.8153 30.6115C45.9546 30.756 46.1533 30.8282 46.4112 30.8282C46.9375 30.8282 47.2006 30.547 47.2006 29.9847C47.2006 29.7061 47.1348 29.492 47.0032 29.3423C46.8743 29.1902 46.6769 29.1141 46.4112 29.1141C46.1481 29.1141 45.9482 29.1889 45.8115 29.3385C45.6773 29.4881 45.6103 29.7061 45.6103 29.9924ZM51.248 32.9641C50.5824 32.9641 50.0614 32.7706 49.6847 32.3837C49.3107 31.9942 49.1237 31.4589 49.1237 30.7779C49.1237 30.0788 49.2978 29.5294 49.646 29.1295C49.9943 28.7297 50.4728 28.5298 51.0816 28.5298C51.6465 28.5298 52.0928 28.7013 52.4204 29.0444C52.748 29.3875 52.9118 29.8596 52.9118 30.4606V30.952H50.0601C50.073 31.3673 50.1852 31.6872 50.3967 31.9116C50.6082 32.1335 50.9062 32.2444 51.2905 32.2444C51.5433 32.2444 51.7781 32.2212 51.9948 32.1747C52.214 32.1257 52.4488 32.0458 52.699 31.9348V32.6739C52.4772 32.7797 52.2527 32.8545 52.0257 32.8983C51.7987 32.9422 51.5395 32.9641 51.248 32.9641ZM51.0816 29.2185C50.7927 29.2185 50.5605 29.3101 50.3851 29.4933C50.2123 29.6764 50.1091 29.9434 50.0755 30.2942H52.018C52.0128 29.9408 51.9277 29.6738 51.7626 29.4933C51.5975 29.3101 51.3705 29.2185 51.0816 29.2185Z" class="path-8"/>
<defs>
<clipPath id="clip0_14063_183893">
<rect width="10.6125" height="10.6125" transform="translate(34.1045 119.379)" class="rect-7"/>
</clipPath>
</defs>
</svg>
