<svg width="332" height="268" viewBox="0 0 332 268" fill="none" xmlns="http://www.w3.org/2000/svg">
<path d="M0.364835 2.18902C0.364835 1.18155 1.18155 0.364835 2.18901 0.364835H329.811C330.818 0.364835 331.635 1.18155 331.635 2.18901V265.811C331.635 266.818 330.818 267.635 329.811 267.635H2.18903C1.18156 267.635 0.364835 266.818 0.364835 265.811V2.18902Z" stroke-width="0.72967" class="path-1"/>
<path d="M56.9932 32.9014C55.8949 32.9014 55.0267 33.2682 54.3887 34.002C53.7552 34.7311 53.4385 35.7314 53.4385 37.0029C53.4385 38.3109 53.7438 39.3226 54.3545 40.0381C54.9697 40.749 55.8447 41.1045 56.9795 41.1045C57.6768 41.1045 58.472 40.9792 59.3652 40.7285V41.7471C58.6725 42.0068 57.818 42.1367 56.8018 42.1367C55.3298 42.1367 54.1927 41.6901 53.3906 40.7969C52.5931 39.9036 52.1943 38.6344 52.1943 36.9893C52.1943 35.9593 52.3857 35.057 52.7686 34.2822C53.1559 33.5075 53.7119 32.9105 54.4365 32.4912C55.1657 32.0719 56.0225 31.8623 57.0068 31.8623C58.055 31.8623 58.971 32.0537 59.7549 32.4365L59.2627 33.4346C58.5062 33.0791 57.7497 32.9014 56.9932 32.9014ZM64.793 34.3711C65.1257 34.3711 65.4242 34.3984 65.6885 34.4531L65.5312 35.5059C65.2214 35.4375 64.9479 35.4033 64.7109 35.4033C64.1048 35.4033 63.5853 35.6494 63.1523 36.1416C62.724 36.6338 62.5098 37.2467 62.5098 37.9805V42H61.375V34.5078H62.3115L62.4414 35.8955H62.4961C62.7741 35.4079 63.109 35.0319 63.501 34.7676C63.8929 34.5033 64.3236 34.3711 64.793 34.3711ZM73.5566 38.2471C73.5566 39.4684 73.249 40.4232 72.6338 41.1113C72.0186 41.7949 71.1686 42.1367 70.084 42.1367C69.4141 42.1367 68.8193 41.9795 68.2998 41.665C67.7803 41.3506 67.3792 40.8994 67.0967 40.3115C66.8141 39.7236 66.6729 39.0355 66.6729 38.2471C66.6729 37.0257 66.9782 36.0755 67.5889 35.3965C68.1995 34.7129 69.0472 34.3711 70.1318 34.3711C71.18 34.3711 72.0117 34.7197 72.627 35.417C73.2467 36.1143 73.5566 37.0576 73.5566 38.2471ZM67.8486 38.2471C67.8486 39.2041 68.04 39.9333 68.4229 40.4346C68.8057 40.9359 69.3685 41.1865 70.1113 41.1865C70.8542 41.1865 71.417 40.9382 71.7998 40.4414C72.1872 39.9401 72.3809 39.2087 72.3809 38.2471C72.3809 37.2946 72.1872 36.5723 71.7998 36.0801C71.417 35.5833 70.8496 35.335 70.0977 35.335C69.3548 35.335 68.7943 35.5788 68.416 36.0664C68.0378 36.554 67.8486 37.2809 67.8486 38.2471ZM81.6709 42L80.2969 37.6045C80.2103 37.3356 80.0485 36.7249 79.8115 35.7725H79.7568C79.5745 36.57 79.415 37.1852 79.2783 37.6182L77.8633 42H76.5508L74.5068 34.5078H75.6963C76.1794 36.39 76.5462 37.8232 76.7969 38.8076C77.0521 39.792 77.1979 40.4551 77.2344 40.7969H77.2891C77.3392 40.5371 77.4189 40.2021 77.5283 39.792C77.6423 39.3773 77.7402 39.0492 77.8223 38.8076L79.1963 34.5078H80.4268L81.7666 38.8076C82.0218 39.5915 82.195 40.25 82.2861 40.7832H82.3408C82.359 40.6191 82.4069 40.3662 82.4844 40.0244C82.5664 39.6826 83.0426 37.8438 83.9131 34.5078H85.0889L83.0176 42H81.6709ZM91.5488 40.9951H91.4873C90.9632 41.7562 90.1794 42.1367 89.1357 42.1367C88.1559 42.1367 87.3926 41.8018 86.8457 41.1318C86.3034 40.4619 86.0322 39.5094 86.0322 38.2744C86.0322 37.0394 86.3057 36.0801 86.8525 35.3965C87.3994 34.7129 88.1605 34.3711 89.1357 34.3711C90.152 34.3711 90.9313 34.7402 91.4736 35.4785H91.5625L91.5146 34.9385L91.4873 34.4121V31.3633H92.6221V42H91.6992L91.5488 40.9951ZM89.2793 41.1865C90.054 41.1865 90.6146 40.9769 90.9609 40.5576C91.3118 40.1338 91.4873 39.4525 91.4873 38.5137V38.2744C91.4873 37.2126 91.3096 36.4561 90.9541 36.0049C90.6032 35.5492 90.0404 35.3213 89.2656 35.3213C88.6003 35.3213 88.0898 35.5811 87.7344 36.1006C87.3835 36.6156 87.208 37.3447 87.208 38.2881C87.208 39.2451 87.3835 39.9674 87.7344 40.4551C88.0853 40.9427 88.6003 41.1865 89.2793 41.1865ZM98.4121 35.3896H96.5049V42H95.3701V35.3896H94.0303V34.877L95.3701 34.4668V34.0498C95.3701 32.2087 96.1745 31.2881 97.7832 31.2881C98.1797 31.2881 98.6445 31.3678 99.1777 31.5273L98.8838 32.4365C98.4463 32.2952 98.0726 32.2246 97.7627 32.2246C97.3343 32.2246 97.0176 32.3682 96.8125 32.6553C96.6074 32.9378 96.5049 33.3936 96.5049 34.0225V34.5078H98.4121V35.3896ZM100.846 34.5078V39.3682C100.846 39.9788 100.985 40.4346 101.263 40.7354C101.541 41.0361 101.976 41.1865 102.568 41.1865C103.352 41.1865 103.924 40.9723 104.284 40.5439C104.649 40.1156 104.831 39.416 104.831 38.4453V34.5078H105.966V42H105.029L104.865 40.9951H104.804C104.571 41.3643 104.248 41.6468 103.833 41.8428C103.423 42.0387 102.953 42.1367 102.425 42.1367C101.513 42.1367 100.83 41.9202 100.374 41.4873C99.9229 41.0544 99.6973 40.3617 99.6973 39.4092V34.5078H100.846ZM113.506 42V37.1533C113.506 36.5426 113.367 36.0869 113.089 35.7861C112.811 35.4854 112.376 35.335 111.783 35.335C110.999 35.335 110.425 35.5469 110.061 35.9707C109.696 36.3945 109.514 37.0941 109.514 38.0693V42H108.379V34.5078H109.302L109.486 35.5332H109.541C109.773 35.1641 110.099 34.8792 110.519 34.6787C110.938 34.4736 111.405 34.3711 111.92 34.3711C112.822 34.3711 113.501 34.5898 113.957 35.0273C114.413 35.4603 114.641 36.1553 114.641 37.1123V42H113.506ZM122.078 40.9951H122.017C121.493 41.7562 120.709 42.1367 119.665 42.1367C118.685 42.1367 117.922 41.8018 117.375 41.1318C116.833 40.4619 116.562 39.5094 116.562 38.2744C116.562 37.0394 116.835 36.0801 117.382 35.3965C117.929 34.7129 118.69 34.3711 119.665 34.3711C120.681 34.3711 121.461 34.7402 122.003 35.4785H122.092L122.044 34.9385L122.017 34.4121V31.3633H123.151V42H122.229L122.078 40.9951ZM119.809 41.1865C120.583 41.1865 121.144 40.9769 121.49 40.5576C121.841 40.1338 122.017 39.4525 122.017 38.5137V38.2744C122.017 37.2126 121.839 36.4561 121.483 36.0049C121.132 35.5492 120.57 35.3213 119.795 35.3213C119.13 35.3213 118.619 35.5811 118.264 36.1006C117.913 36.6156 117.737 37.3447 117.737 38.2881C117.737 39.2451 117.913 39.9674 118.264 40.4551C118.615 40.9427 119.13 41.1865 119.809 41.1865ZM126.699 42H125.564V34.5078H126.699V42ZM125.469 32.4775C125.469 32.2178 125.533 32.0286 125.66 31.9102C125.788 31.7871 125.947 31.7256 126.139 31.7256C126.321 31.7256 126.478 31.7871 126.61 31.9102C126.743 32.0332 126.809 32.2223 126.809 32.4775C126.809 32.7327 126.743 32.9242 126.61 33.0518C126.478 33.1748 126.321 33.2363 126.139 33.2363C125.947 33.2363 125.788 33.1748 125.66 33.0518C125.533 32.9242 125.469 32.7327 125.469 32.4775ZM134.232 42V37.1533C134.232 36.5426 134.093 36.0869 133.815 35.7861C133.537 35.4854 133.102 35.335 132.51 35.335C131.726 35.335 131.152 35.5469 130.787 35.9707C130.423 36.3945 130.24 37.0941 130.24 38.0693V42H129.105V34.5078H130.028L130.213 35.5332H130.268C130.5 35.1641 130.826 34.8792 131.245 34.6787C131.664 34.4736 132.132 34.3711 132.646 34.3711C133.549 34.3711 134.228 34.5898 134.684 35.0273C135.139 35.4603 135.367 36.1553 135.367 37.1123V42H134.232ZM143.837 34.5078V35.2256L142.449 35.3896C142.577 35.5492 142.691 35.7588 142.791 36.0186C142.891 36.2738 142.941 36.5632 142.941 36.8867C142.941 37.6204 142.691 38.2061 142.189 38.6436C141.688 39.0811 141 39.2998 140.125 39.2998C139.902 39.2998 139.692 39.2816 139.496 39.2451C139.013 39.5003 138.771 39.8216 138.771 40.209C138.771 40.4141 138.856 40.5667 139.024 40.667C139.193 40.7627 139.482 40.8105 139.893 40.8105H141.219C142.03 40.8105 142.652 40.9814 143.085 41.3232C143.522 41.665 143.741 42.1618 143.741 42.8135C143.741 43.6429 143.409 44.2741 142.743 44.707C142.078 45.1445 141.107 45.3633 139.831 45.3633C138.851 45.3633 138.095 45.181 137.562 44.8164C137.033 44.4518 136.769 43.9368 136.769 43.2715C136.769 42.8158 136.914 42.4215 137.206 42.0889C137.498 41.7562 137.908 41.5306 138.437 41.4121C138.245 41.3255 138.083 41.1911 137.951 41.0088C137.824 40.8265 137.76 40.6146 137.76 40.373C137.76 40.0996 137.833 39.8604 137.979 39.6553C138.124 39.4502 138.354 39.252 138.669 39.0605C138.282 38.901 137.965 38.6299 137.719 38.2471C137.477 37.8643 137.356 37.4268 137.356 36.9346C137.356 36.1143 137.603 35.4831 138.095 35.041C138.587 34.5944 139.284 34.3711 140.187 34.3711C140.578 34.3711 140.932 34.4167 141.246 34.5078H143.837ZM137.862 43.2578C137.862 43.6634 138.033 43.971 138.375 44.1807C138.717 44.3903 139.207 44.4951 139.845 44.4951C140.797 44.4951 141.501 44.3516 141.957 44.0645C142.417 43.7819 142.647 43.3968 142.647 42.9092C142.647 42.5036 142.522 42.221 142.271 42.0615C142.021 41.9066 141.549 41.8291 140.856 41.8291H139.496C138.981 41.8291 138.58 41.9521 138.293 42.1982C138.006 42.4443 137.862 42.7975 137.862 43.2578ZM138.478 36.9072C138.478 37.4313 138.626 37.8278 138.922 38.0967C139.218 38.3656 139.631 38.5 140.159 38.5C141.267 38.5 141.82 37.9622 141.82 36.8867C141.82 35.7611 141.26 35.1982 140.139 35.1982C139.605 35.1982 139.195 35.3418 138.908 35.6289C138.621 35.916 138.478 36.3421 138.478 36.9072ZM150.345 37.8438V42H149.183V32.0059H151.924C153.15 32.0059 154.054 32.2406 154.638 32.71C155.226 33.1794 155.52 33.8857 155.52 34.8291C155.52 36.1507 154.85 37.0439 153.51 37.5088L156.224 42H154.85L152.43 37.8438H150.345ZM150.345 36.8457H151.938C152.758 36.8457 153.359 36.6839 153.742 36.3604C154.125 36.0322 154.316 35.5423 154.316 34.8906C154.316 34.2298 154.12 33.7536 153.729 33.4619C153.341 33.1702 152.717 33.0244 151.855 33.0244H150.345V36.8457ZM160.831 42.1367C159.724 42.1367 158.849 41.7995 158.206 41.125C157.568 40.4505 157.249 39.514 157.249 38.3154C157.249 37.1077 157.545 36.1484 158.138 35.4375C158.735 34.7266 159.535 34.3711 160.537 34.3711C161.476 34.3711 162.219 34.681 162.766 35.3008C163.312 35.916 163.586 36.7295 163.586 37.7412V38.459H158.425C158.448 39.3385 158.669 40.0062 159.088 40.4619C159.512 40.9176 160.106 41.1455 160.872 41.1455C161.679 41.1455 162.476 40.9769 163.265 40.6396V41.6514C162.864 41.8245 162.483 41.9476 162.123 42.0205C161.768 42.098 161.337 42.1367 160.831 42.1367ZM160.523 35.3213C159.922 35.3213 159.441 35.5173 159.081 35.9092C158.726 36.3011 158.516 36.8434 158.452 37.5361H162.369C162.369 36.8206 162.21 36.2738 161.891 35.8955C161.572 35.5127 161.116 35.3213 160.523 35.3213ZM171.646 42L170.271 37.6045C170.185 37.3356 170.023 36.7249 169.786 35.7725H169.731C169.549 36.57 169.39 37.1852 169.253 37.6182L167.838 42H166.525L164.481 34.5078H165.671C166.154 36.39 166.521 37.8232 166.771 38.8076C167.027 39.792 167.173 40.4551 167.209 40.7969H167.264C167.314 40.5371 167.394 40.2021 167.503 39.792C167.617 39.3773 167.715 39.0492 167.797 38.8076L169.171 34.5078H170.401L171.741 38.8076C171.996 39.5915 172.17 40.25 172.261 40.7832H172.315C172.334 40.6191 172.382 40.3662 172.459 40.0244C172.541 39.6826 173.017 37.8438 173.888 34.5078H175.063L172.992 42H171.646ZM181.031 42L180.806 40.9336H180.751C180.377 41.403 180.004 41.722 179.63 41.8906C179.261 42.0547 178.798 42.1367 178.242 42.1367C177.499 42.1367 176.916 41.9453 176.492 41.5625C176.073 41.1797 175.863 40.6351 175.863 39.9287C175.863 38.4157 177.073 37.6227 179.493 37.5498L180.765 37.5088V37.0439C180.765 36.4561 180.637 36.0231 180.382 35.7451C180.131 35.4626 179.728 35.3213 179.172 35.3213C178.548 35.3213 177.841 35.5127 177.053 35.8955L176.704 35.0273C177.073 34.8268 177.477 34.6696 177.914 34.5557C178.356 34.4417 178.798 34.3848 179.24 34.3848C180.133 34.3848 180.794 34.583 181.223 34.9795C181.656 35.376 181.872 36.0117 181.872 36.8867V42H181.031ZM178.468 41.2002C179.174 41.2002 179.728 41.0065 180.129 40.6191C180.535 40.2318 180.737 39.6895 180.737 38.9922V38.3154L179.603 38.3633C178.7 38.3952 178.049 38.5365 177.647 38.7871C177.251 39.0332 177.053 39.4183 177.053 39.9424C177.053 40.3525 177.176 40.6647 177.422 40.8789C177.673 41.0931 178.021 41.2002 178.468 41.2002ZM187.635 34.3711C187.967 34.3711 188.266 34.3984 188.53 34.4531L188.373 35.5059C188.063 35.4375 187.79 35.4033 187.553 35.4033C186.947 35.4033 186.427 35.6494 185.994 36.1416C185.566 36.6338 185.352 37.2467 185.352 37.9805V42H184.217V34.5078H185.153L185.283 35.8955H185.338C185.616 35.4079 185.951 35.0319 186.343 34.7676C186.735 34.5033 187.165 34.3711 187.635 34.3711ZM195.031 40.9951H194.97C194.446 41.7562 193.662 42.1367 192.618 42.1367C191.638 42.1367 190.875 41.8018 190.328 41.1318C189.786 40.4619 189.515 39.5094 189.515 38.2744C189.515 37.0394 189.788 36.0801 190.335 35.3965C190.882 34.7129 191.643 34.3711 192.618 34.3711C193.634 34.3711 194.414 34.7402 194.956 35.4785H195.045L194.997 34.9385L194.97 34.4121V31.3633H196.104V42H195.182L195.031 40.9951ZM192.762 41.1865C193.536 41.1865 194.097 40.9769 194.443 40.5576C194.794 40.1338 194.97 39.4525 194.97 38.5137V38.2744C194.97 37.2126 194.792 36.4561 194.437 36.0049C194.086 35.5492 193.523 35.3213 192.748 35.3213C192.083 35.3213 191.572 35.5811 191.217 36.1006C190.866 36.6156 190.69 37.3447 190.69 38.2881C190.69 39.2451 190.866 39.9674 191.217 40.4551C191.568 40.9427 192.083 41.1865 192.762 41.1865ZM203.351 39.9561C203.351 40.6533 203.091 41.1911 202.571 41.5693C202.052 41.9476 201.323 42.1367 200.384 42.1367C199.39 42.1367 198.616 41.9795 198.06 41.665V40.6123C198.42 40.7946 198.805 40.9382 199.215 41.043C199.63 41.1478 200.028 41.2002 200.411 41.2002C201.004 41.2002 201.459 41.1068 201.778 40.9199C202.097 40.7285 202.257 40.4391 202.257 40.0518C202.257 39.7601 202.129 39.5117 201.874 39.3066C201.623 39.097 201.131 38.8509 200.397 38.5684C199.7 38.3086 199.203 38.083 198.907 37.8916C198.616 37.6956 198.397 37.4746 198.251 37.2285C198.11 36.9824 198.039 36.6885 198.039 36.3467C198.039 35.736 198.287 35.2552 198.784 34.9043C199.281 34.5488 199.962 34.3711 200.828 34.3711C201.635 34.3711 202.423 34.5352 203.193 34.8633L202.79 35.7861C202.038 35.4762 201.357 35.3213 200.746 35.3213C200.208 35.3213 199.803 35.4056 199.529 35.5742C199.256 35.7428 199.119 35.9753 199.119 36.2715C199.119 36.472 199.169 36.6429 199.27 36.7842C199.374 36.9255 199.541 37.0599 199.769 37.1875C199.996 37.3151 200.434 37.4997 201.081 37.7412C201.97 38.0648 202.569 38.3906 202.879 38.7188C203.193 39.0469 203.351 39.4593 203.351 39.9561Z" class="path-2"/>
<line x1="19" y1="61.6352" x2="313.057" y2="61.6352" stroke-width="0.72967" class="line-1"/>
<path d="M114.016 94V85.4336H115.012V94H114.016ZM125.583 94L124.405 90.2324C124.331 90.002 124.192 89.4785 123.989 88.6621H123.942C123.786 89.3457 123.649 89.873 123.532 90.2441L122.319 94H121.194L119.442 87.5781H120.462C120.876 89.1914 121.19 90.4199 121.405 91.2637C121.624 92.1074 121.749 92.6758 121.78 92.9688H121.827C121.87 92.7461 121.938 92.459 122.032 92.1074C122.13 91.752 122.214 91.4707 122.284 91.2637L123.462 87.5781H124.516L125.665 91.2637C125.884 91.9355 126.032 92.5 126.11 92.957H126.157C126.173 92.8164 126.214 92.5996 126.28 92.3066C126.35 92.0137 126.759 90.4375 127.505 87.5781H128.512L126.737 94H125.583ZM135.221 90.7832C135.221 91.8301 134.958 92.6484 134.43 93.2383C133.903 93.8242 133.175 94.1172 132.245 94.1172C131.671 94.1172 131.161 93.9824 130.716 93.7129C130.27 93.4434 129.927 93.0566 129.684 92.5527C129.442 92.0488 129.321 91.459 129.321 90.7832C129.321 89.7363 129.583 88.9219 130.106 88.3398C130.63 87.7539 131.356 87.4609 132.286 87.4609C133.184 87.4609 133.897 87.7598 134.425 88.3574C134.956 88.9551 135.221 89.7637 135.221 90.7832ZM130.329 90.7832C130.329 91.6035 130.493 92.2285 130.821 92.6582C131.149 93.0879 131.632 93.3027 132.268 93.3027C132.905 93.3027 133.387 93.0898 133.716 92.6641C134.048 92.2344 134.214 91.6074 134.214 90.7832C134.214 89.9668 134.048 89.3477 133.716 88.9258C133.387 88.5 132.901 88.2871 132.257 88.2871C131.62 88.2871 131.139 88.4961 130.815 88.9141C130.491 89.332 130.329 89.9551 130.329 90.7832ZM141.327 94V89.8457C141.327 89.3223 141.208 88.9316 140.969 88.6738C140.731 88.416 140.358 88.2871 139.85 88.2871C139.178 88.2871 138.686 88.4688 138.374 88.832C138.061 89.1953 137.905 89.7949 137.905 90.6309V94H136.932V87.5781H137.723L137.882 88.457H137.928C138.128 88.1406 138.407 87.8965 138.766 87.7246C139.126 87.5488 139.526 87.4609 139.968 87.4609C140.741 87.4609 141.323 87.6484 141.714 88.0234C142.104 88.3945 142.3 88.9902 142.3 89.8105V94H141.327ZM144.163 93.3789C144.163 93.1172 144.221 92.9199 144.339 92.7871C144.46 92.6504 144.632 92.582 144.854 92.582C145.081 92.582 145.257 92.6504 145.382 92.7871C145.51 92.9199 145.575 93.1172 145.575 93.3789C145.575 93.6328 145.51 93.8281 145.382 93.9648C145.253 94.1016 145.077 94.1699 144.854 94.1699C144.655 94.1699 144.489 94.1094 144.356 93.9883C144.227 93.8633 144.163 93.6602 144.163 93.3789ZM144.163 88.2051C144.163 87.6777 144.393 87.4141 144.854 87.4141C145.335 87.4141 145.575 87.6777 145.575 88.2051C145.575 88.459 145.51 88.6543 145.382 88.791C145.253 88.9277 145.077 88.9961 144.854 88.9961C144.655 88.9961 144.489 88.9355 144.356 88.8145C144.227 88.6895 144.163 88.4863 144.163 88.2051Z" class="path-3"/>
<rect x="19" y="113" width="85" height="22" rx="11" class="rect-1"/>
<path d="M30.3294 118.75H29.7952C29.7477 118.75 29.724 118.773 29.724 118.818V121.489H27.0712C27.0237 121.489 27 121.512 27 121.557V122.068C27 122.113 27.0237 122.136 27.0712 122.136H29.724V124.807C29.724 124.852 29.7477 124.875 29.7952 124.875H30.3294C30.3769 124.875 30.4006 124.852 30.4006 124.807V122.136H33.0538C33.1013 122.136 33.125 122.113 33.125 122.068V121.557C33.125 121.512 33.1013 121.489 33.0538 121.489H30.4006V118.818C30.4006 118.773 30.3769 118.75 30.3294 118.75Z" class="path-4"/>
<path fill-rule="evenodd" clip-rule="evenodd" d="M40.5 123.889C40.7977 124.062 41 124.381 41 124.75C41 125.119 40.7977 125.438 40.4998 125.611V128C40.4998 128.144 40.3892 128.5 39.9998 128.5C39.8864 128.5 39.7763 128.461 39.6877 128.39L38.3591 127.327C37.6919 126.794 36.8541 126.5 36 126.5H35.5612C35.5177 126.66 35.4923 126.826 35.4923 127C35.4923 127.454 35.6447 127.874 35.9009 128.21C36.1477 128.534 35.9033 129 35.4963 129H34.3356C34.15 129 33.973 128.9 33.8919 128.733C33.6372 128.209 33.4925 127.621 33.4925 127C33.4925 126.83 33.5048 126.664 33.5266 126.5H33C32.4477 126.5 32 126.052 32 125.5V124C32 123.448 32.4477 123 33 123H36C36.8541 123 37.6919 122.706 38.3592 122.173L39.6878 121.11C39.7783 121.037 39.8888 121 40 121C40.3909 121 40.5 121.363 40.5 121.5V123.889ZM38.9836 126.547L39.5 126.96V122.54L38.9836 122.953C38.1398 123.628 37.08 124 36 124V125.5C37.08 125.5 38.1398 125.872 38.9836 126.547Z" class="path-5"/>
<path d="M50.1777 128.5V119.934H51.1738V128.5H50.1777ZM59.3945 122.834H57.7598V128.5H56.7871V122.834H55.6387V122.395L56.7871 122.043V121.686C56.7871 120.107 57.4766 119.318 58.8555 119.318C59.1953 119.318 59.5938 119.387 60.0508 119.523L59.7988 120.303C59.4238 120.182 59.1035 120.121 58.8379 120.121C58.4707 120.121 58.1992 120.244 58.0234 120.49C57.8477 120.732 57.7598 121.123 57.7598 121.662V122.078H59.3945V122.834ZM61.4805 122.078V126.244C61.4805 126.768 61.5996 127.158 61.8379 127.416C62.0762 127.674 62.4492 127.803 62.957 127.803C63.6289 127.803 64.1191 127.619 64.4277 127.252C64.7402 126.885 64.8965 126.285 64.8965 125.453V122.078H65.8691V128.5H65.0664L64.9258 127.639H64.873C64.6738 127.955 64.3965 128.197 64.041 128.365C63.6895 128.533 63.2871 128.617 62.834 128.617C62.0527 128.617 61.4668 128.432 61.0762 128.061C60.6895 127.689 60.4961 127.096 60.4961 126.279V122.078H61.4805ZM72.332 128.5V124.346C72.332 123.822 72.2129 123.432 71.9746 123.174C71.7363 122.916 71.3633 122.787 70.8555 122.787C70.1836 122.787 69.6914 122.969 69.3789 123.332C69.0664 123.695 68.9102 124.295 68.9102 125.131V128.5H67.9375V122.078H68.7285L68.8867 122.957H68.9336C69.1328 122.641 69.4121 122.396 69.7715 122.225C70.1309 122.049 70.5312 121.961 70.9727 121.961C71.7461 121.961 72.3281 122.148 72.7188 122.523C73.1094 122.895 73.3047 123.49 73.3047 124.311V128.5H72.332ZM79.6797 127.639H79.627C79.1777 128.291 78.5059 128.617 77.6113 128.617C76.7715 128.617 76.1172 128.33 75.6484 127.756C75.1836 127.182 74.9512 126.365 74.9512 125.307C74.9512 124.248 75.1855 123.426 75.6543 122.84C76.123 122.254 76.7754 121.961 77.6113 121.961C78.4824 121.961 79.1504 122.277 79.6152 122.91H79.6914L79.6504 122.447L79.627 121.996V119.383H80.5996V128.5H79.8086L79.6797 127.639ZM77.7344 127.803C78.3984 127.803 78.8789 127.623 79.1758 127.264C79.4766 126.9 79.627 126.316 79.627 125.512V125.307C79.627 124.396 79.4746 123.748 79.1699 123.361C78.8691 122.971 78.3867 122.775 77.7227 122.775C77.1523 122.775 76.7148 122.998 76.4102 123.443C76.1094 123.885 75.959 124.51 75.959 125.318C75.959 126.139 76.1094 126.758 76.4102 127.176C76.7109 127.594 77.1523 127.803 77.7344 127.803ZM85.3809 128.617C84.4316 128.617 83.6816 128.328 83.1309 127.75C82.584 127.172 82.3105 126.369 82.3105 125.342C82.3105 124.307 82.5645 123.484 83.0723 122.875C83.584 122.266 84.2695 121.961 85.1289 121.961C85.9336 121.961 86.5703 122.227 87.0391 122.758C87.5078 123.285 87.7422 123.982 87.7422 124.85V125.465H83.3184C83.3379 126.219 83.5273 126.791 83.8867 127.182C84.25 127.572 84.7598 127.768 85.416 127.768C86.1074 127.768 86.791 127.623 87.4668 127.334V128.201C87.123 128.35 86.7969 128.455 86.4883 128.518C86.1836 128.584 85.8145 128.617 85.3809 128.617ZM85.1172 122.775C84.6016 122.775 84.1895 122.943 83.8809 123.279C83.5762 123.615 83.3965 124.08 83.3418 124.674H86.6992C86.6992 124.061 86.5625 123.592 86.2891 123.268C86.0156 122.939 85.625 122.775 85.1172 122.775ZM93.7773 127.639H93.7246C93.2754 128.291 92.6035 128.617 91.709 128.617C90.8691 128.617 90.2148 128.33 89.7461 127.756C89.2812 127.182 89.0488 126.365 89.0488 125.307C89.0488 124.248 89.2832 123.426 89.752 122.84C90.2207 122.254 90.873 121.961 91.709 121.961C92.5801 121.961 93.248 122.277 93.7129 122.91H93.7891L93.748 122.447L93.7246 121.996V119.383H94.6973V128.5H93.9062L93.7773 127.639ZM91.832 127.803C92.4961 127.803 92.9766 127.623 93.2734 127.264C93.5742 126.9 93.7246 126.316 93.7246 125.512V125.307C93.7246 124.396 93.5723 123.748 93.2676 123.361C92.9668 122.971 92.4844 122.775 91.8203 122.775C91.25 122.775 90.8125 122.998 90.5078 123.443C90.207 123.885 90.0566 124.51 90.0566 125.318C90.0566 126.139 90.207 126.758 90.5078 127.176C90.8086 127.594 91.25 127.803 91.832 127.803Z" class="path-6"/>
<path d="M116.291 124.365H118.705V125.174H116.291V127.67H115.477V125.174H113.074V124.365H115.477V121.857H116.291V124.365ZM125.596 124.705C125.596 126.186 125.361 127.291 124.893 128.021C124.428 128.752 123.715 129.117 122.754 129.117C121.832 129.117 121.131 128.744 120.65 127.998C120.17 127.248 119.93 126.15 119.93 124.705C119.93 123.213 120.162 122.105 120.627 121.383C121.092 120.66 121.801 120.299 122.754 120.299C123.684 120.299 124.389 120.676 124.869 121.43C125.354 122.184 125.596 123.275 125.596 124.705ZM120.914 124.705C120.914 125.951 121.061 126.859 121.354 127.43C121.646 127.996 122.113 128.279 122.754 128.279C123.402 128.279 123.871 127.992 124.16 127.418C124.453 126.84 124.6 125.936 124.6 124.705C124.6 123.475 124.453 122.574 124.16 122.004C123.871 121.43 123.402 121.143 122.754 121.143C122.113 121.143 121.646 121.426 121.354 121.992C121.061 122.555 120.914 123.459 120.914 124.705ZM127.09 128.379C127.09 128.117 127.148 127.92 127.266 127.787C127.387 127.65 127.559 127.582 127.781 127.582C128.008 127.582 128.184 127.65 128.309 127.787C128.438 127.92 128.502 128.117 128.502 128.379C128.502 128.633 128.438 128.828 128.309 128.965C128.18 129.102 128.004 129.17 127.781 129.17C127.582 129.17 127.416 129.109 127.283 128.988C127.154 128.863 127.09 128.66 127.09 128.379ZM135.662 124.705C135.662 126.186 135.428 127.291 134.959 128.021C134.494 128.752 133.781 129.117 132.82 129.117C131.898 129.117 131.197 128.744 130.717 127.998C130.236 127.248 129.996 126.15 129.996 124.705C129.996 123.213 130.229 122.105 130.693 121.383C131.158 120.66 131.867 120.299 132.82 120.299C133.75 120.299 134.455 120.676 134.936 121.43C135.42 122.184 135.662 123.275 135.662 124.705ZM130.98 124.705C130.98 125.951 131.127 126.859 131.42 127.43C131.713 127.996 132.18 128.279 132.82 128.279C133.469 128.279 133.938 127.992 134.227 127.418C134.52 126.84 134.666 125.936 134.666 124.705C134.666 123.475 134.52 122.574 134.227 122.004C133.938 121.43 133.469 121.143 132.82 121.143C132.18 121.143 131.713 121.426 131.42 121.992C131.127 122.555 130.98 123.459 130.98 124.705ZM142.529 124.705C142.529 126.186 142.295 127.291 141.826 128.021C141.361 128.752 140.648 129.117 139.688 129.117C138.766 129.117 138.064 128.744 137.584 127.998C137.104 127.248 136.863 126.15 136.863 124.705C136.863 123.213 137.096 122.105 137.561 121.383C138.025 120.66 138.734 120.299 139.688 120.299C140.617 120.299 141.322 120.676 141.803 121.43C142.287 122.184 142.529 123.275 142.529 124.705ZM137.848 124.705C137.848 125.951 137.994 126.859 138.287 127.43C138.58 127.996 139.047 128.279 139.688 128.279C140.336 128.279 140.805 127.992 141.094 127.418C141.387 126.84 141.533 125.936 141.533 124.705C141.533 123.475 141.387 122.574 141.094 122.004C140.805 121.43 140.336 121.143 139.688 121.143C139.047 121.143 138.58 121.426 138.287 121.992C137.994 122.555 137.848 123.459 137.848 124.705ZM147.322 129H146.373V122.895C146.373 122.387 146.389 121.906 146.42 121.453C146.338 121.535 146.246 121.621 146.145 121.711C146.043 121.801 145.578 122.182 144.75 122.854L144.234 122.186L146.502 120.434H147.322V129Z" class="path-7"/>
<path d="M163.334 124.112L159.793 126.288L156.25 124.112L159.793 118L163.334 124.112ZM159.793 126.986L156.25 124.811L159.793 130L163.336 124.811L159.793 126.986Z" class="path-8"/>
<path d="M174.291 124.365H176.705V125.174H174.291V127.67H173.477V125.174H171.074V124.365H173.477V121.857H174.291V124.365ZM183.549 129H177.918V128.162L180.174 125.895C180.861 125.199 181.314 124.703 181.533 124.406C181.752 124.109 181.916 123.82 182.025 123.539C182.135 123.258 182.189 122.955 182.189 122.631C182.189 122.174 182.051 121.812 181.773 121.547C181.496 121.277 181.111 121.143 180.619 121.143C180.264 121.143 179.926 121.201 179.605 121.318C179.289 121.436 178.936 121.648 178.545 121.957L178.029 121.295C178.818 120.639 179.678 120.311 180.607 120.311C181.412 120.311 182.043 120.518 182.5 120.932C182.957 121.342 183.186 121.895 183.186 122.59C183.186 123.133 183.033 123.67 182.729 124.201C182.424 124.732 181.854 125.404 181.018 126.217L179.143 128.051V128.098H183.549V129ZM184.885 125.338C184.885 123.654 185.211 122.396 185.863 121.564C186.52 120.729 187.488 120.311 188.77 120.311C189.211 120.311 189.559 120.348 189.812 120.422V121.26C189.512 121.162 189.168 121.113 188.781 121.113C187.863 121.113 187.162 121.4 186.678 121.975C186.193 122.545 185.928 123.443 185.881 124.67H185.951C186.381 123.998 187.061 123.662 187.99 123.662C188.76 123.662 189.365 123.895 189.807 124.359C190.252 124.824 190.475 125.455 190.475 126.252C190.475 127.143 190.23 127.844 189.742 128.355C189.258 128.863 188.602 129.117 187.773 129.117C186.887 129.117 186.184 128.785 185.664 128.121C185.145 127.453 184.885 126.525 184.885 125.338ZM187.762 128.291C188.316 128.291 188.746 128.117 189.051 127.77C189.359 127.418 189.514 126.912 189.514 126.252C189.514 125.686 189.371 125.24 189.086 124.916C188.801 124.592 188.375 124.43 187.809 124.43C187.457 124.43 187.135 124.502 186.842 124.646C186.549 124.791 186.314 124.99 186.139 125.244C185.967 125.498 185.881 125.762 185.881 126.035C185.881 126.438 185.959 126.812 186.115 127.16C186.271 127.508 186.492 127.783 186.777 127.986C187.066 128.189 187.395 128.291 187.762 128.291ZM197.283 129H191.652V128.162L193.908 125.895C194.596 125.199 195.049 124.703 195.268 124.406C195.486 124.109 195.65 123.82 195.76 123.539C195.869 123.258 195.924 122.955 195.924 122.631C195.924 122.174 195.785 121.812 195.508 121.547C195.23 121.277 194.846 121.143 194.354 121.143C193.998 121.143 193.66 121.201 193.34 121.318C193.023 121.436 192.67 121.648 192.279 121.957L191.764 121.295C192.553 120.639 193.412 120.311 194.342 120.311C195.146 120.311 195.777 120.518 196.234 120.932C196.691 121.342 196.92 121.895 196.92 122.59C196.92 123.133 196.768 123.67 196.463 124.201C196.158 124.732 195.588 125.404 194.752 126.217L192.877 128.051V128.098H197.283V129ZM198.824 128.379C198.824 128.117 198.883 127.92 199 127.787C199.121 127.65 199.293 127.582 199.516 127.582C199.742 127.582 199.918 127.65 200.043 127.787C200.172 127.92 200.236 128.117 200.236 128.379C200.236 128.633 200.172 128.828 200.043 128.965C199.914 129.102 199.738 129.17 199.516 129.17C199.316 129.17 199.15 129.109 199.018 128.988C198.889 128.863 198.824 128.66 198.824 128.379ZM204.396 123.768C205.299 123.768 206.008 123.992 206.523 124.441C207.043 124.887 207.303 125.498 207.303 126.275C207.303 127.162 207.02 127.857 206.453 128.361C205.891 128.865 205.113 129.117 204.121 129.117C203.156 129.117 202.42 128.963 201.912 128.654V127.717C202.186 127.893 202.525 128.031 202.932 128.133C203.338 128.23 203.738 128.279 204.133 128.279C204.82 128.279 205.354 128.117 205.732 127.793C206.115 127.469 206.307 127 206.307 126.387C206.307 125.191 205.574 124.594 204.109 124.594C203.738 124.594 203.242 124.65 202.621 124.764L202.117 124.441L202.439 120.434H206.699V121.33H203.271L203.055 123.902C203.504 123.812 203.951 123.768 204.396 123.768Z" class="path-9"/>
<g clip-path="url(#clip0_19989_140015)">
<path fill-rule="evenodd" clip-rule="evenodd" d="M215.523 118.75L221.557 119.02L224 124.449L220.554 129.41L214.487 129.022L212 123.139L215.523 118.75ZM219.947 121.879L215.574 123.79L219.313 126.681L219.947 121.879ZM219.441 120.922L215.946 119.417L215.212 122.581L219.441 120.922ZM218.555 127.409L214.757 124.696L214.849 128.372L218.555 127.409ZM223.393 124.437L220.805 121.81L220.122 126.861L223.393 124.437ZM219.445 128L216.242 128.837L220.009 129.078L219.445 128ZM222.888 125.628L220.084 127.718L220.641 128.807L222.888 125.628ZM221.561 119.778L221.017 120.896L223.044 122.957L221.561 119.778ZM220.883 119.243L217.323 119.099L220.259 120.383L220.883 119.243ZM215.004 119.76L212.51 122.909L214.177 123.262L215.004 119.76ZM214.077 123.88L212.402 123.525L214.15 127.644L214.077 123.88Z" class="path-10"/>
</g>
<line x1="19" y1="150.635" x2="313.057" y2="150.635" stroke-width="0.72967" class="line-2"/>
<path d="M115.719 183V174.434H116.716V183H115.719ZM123.014 183H122.042V173.883H123.014V183ZM130.62 179.783C130.62 180.83 130.356 181.648 129.829 182.238C129.302 182.824 128.573 183.117 127.643 183.117C127.069 183.117 126.559 182.982 126.114 182.713C125.669 182.443 125.325 182.057 125.083 181.553C124.841 181.049 124.719 180.459 124.719 179.783C124.719 178.736 124.981 177.922 125.505 177.34C126.028 176.754 126.755 176.461 127.684 176.461C128.583 176.461 129.296 176.76 129.823 177.357C130.354 177.955 130.62 178.764 130.62 179.783ZM125.727 179.783C125.727 180.604 125.891 181.229 126.219 181.658C126.548 182.088 127.03 182.303 127.667 182.303C128.303 182.303 128.786 182.09 129.114 181.664C129.446 181.234 129.612 180.607 129.612 179.783C129.612 178.967 129.446 178.348 129.114 177.926C128.786 177.5 128.3 177.287 127.655 177.287C127.018 177.287 126.538 177.496 126.214 177.914C125.889 178.332 125.727 178.955 125.727 179.783ZM136.473 181.248C136.473 181.846 136.251 182.307 135.805 182.631C135.36 182.955 134.735 183.117 133.93 183.117C133.079 183.117 132.415 182.982 131.938 182.713V181.811C132.247 181.967 132.577 182.09 132.928 182.18C133.284 182.27 133.626 182.314 133.954 182.314C134.462 182.314 134.852 182.234 135.126 182.074C135.399 181.91 135.536 181.662 135.536 181.33C135.536 181.08 135.427 180.867 135.208 180.691C134.993 180.512 134.571 180.301 133.942 180.059C133.344 179.836 132.919 179.643 132.665 179.479C132.415 179.311 132.227 179.121 132.102 178.91C131.981 178.699 131.921 178.447 131.921 178.154C131.921 177.631 132.134 177.219 132.559 176.918C132.985 176.613 133.569 176.461 134.311 176.461C135.003 176.461 135.678 176.602 136.339 176.883L135.993 177.674C135.348 177.408 134.764 177.275 134.241 177.275C133.78 177.275 133.432 177.348 133.198 177.492C132.964 177.637 132.846 177.836 132.846 178.09C132.846 178.262 132.889 178.408 132.975 178.529C133.065 178.65 133.208 178.766 133.403 178.875C133.598 178.984 133.973 179.143 134.528 179.35C135.29 179.627 135.803 179.906 136.069 180.188C136.339 180.469 136.473 180.822 136.473 181.248ZM140.135 182.314C140.307 182.314 140.473 182.303 140.634 182.279C140.794 182.252 140.921 182.225 141.014 182.197V182.941C140.909 182.992 140.753 183.033 140.546 183.064C140.343 183.1 140.159 183.117 139.995 183.117C138.753 183.117 138.132 182.463 138.132 181.154V177.334H137.212V176.865L138.132 176.461L138.542 175.09H139.104V176.578H140.968V177.334H139.104V181.113C139.104 181.5 139.196 181.797 139.38 182.004C139.563 182.211 139.815 182.314 140.135 182.314ZM142.163 182.379C142.163 182.117 142.221 181.92 142.339 181.787C142.46 181.65 142.632 181.582 142.854 181.582C143.081 181.582 143.257 181.65 143.382 181.787C143.51 181.92 143.575 182.117 143.575 182.379C143.575 182.633 143.51 182.828 143.382 182.965C143.253 183.102 143.077 183.17 142.854 183.17C142.655 183.17 142.489 183.109 142.356 182.988C142.227 182.863 142.163 182.66 142.163 182.379ZM142.163 177.205C142.163 176.678 142.393 176.414 142.854 176.414C143.335 176.414 143.575 176.678 143.575 177.205C143.575 177.459 143.51 177.654 143.382 177.791C143.253 177.928 143.077 177.996 142.854 177.996C142.655 177.996 142.489 177.936 142.356 177.814C142.227 177.689 142.163 177.486 142.163 177.205Z" class="path-11"/>
<rect x="19" y="202" width="85" height="22" rx="11" class="rect-2"/>
<path d="M30.3294 207.75H29.7952C29.7477 207.75 29.724 207.773 29.724 207.818V210.489H27.0712C27.0237 210.489 27 210.512 27 210.557V211.068C27 211.113 27.0237 211.136 27.0712 211.136H29.724V213.807C29.724 213.852 29.7477 213.875 29.7952 213.875H30.3294C30.3769 213.875 30.4006 213.852 30.4006 213.807V211.136H33.0538C33.1013 211.136 33.125 211.113 33.125 211.068V210.557C33.125 210.512 33.1013 210.489 33.0538 210.489H30.4006V207.818C30.4006 207.773 30.3769 207.75 30.3294 207.75Z" class="path-12"/>
<path fill-rule="evenodd" clip-rule="evenodd" d="M40.5 212.889C40.7977 213.062 41 213.381 41 213.75C41 214.119 40.7977 214.438 40.4998 214.611V217C40.4998 217.144 40.3892 217.5 39.9998 217.5C39.8864 217.5 39.7763 217.461 39.6877 217.39L38.3591 216.327C37.6919 215.794 36.8541 215.5 36 215.5H35.5612C35.5177 215.66 35.4923 215.826 35.4923 216C35.4923 216.454 35.6447 216.874 35.9009 217.21C36.1477 217.534 35.9033 218 35.4963 218H34.3356C34.15 218 33.973 217.9 33.8919 217.733C33.6372 217.209 33.4925 216.621 33.4925 216C33.4925 215.83 33.5048 215.664 33.5266 215.5H33C32.4477 215.5 32 215.052 32 214.5V213C32 212.448 32.4477 212 33 212H36C36.8541 212 37.6919 211.706 38.3592 211.173L39.6878 210.11C39.7783 210.037 39.8888 210 40 210C40.3909 210 40.5 210.363 40.5 210.5V212.889ZM38.9836 215.547L39.5 215.96V211.54L38.9836 211.953C38.1398 212.628 37.08 213 36 213V214.5C37.08 214.5 38.1398 214.872 38.9836 215.547Z" class="path-13"/>
<path d="M50.1777 217.5V208.934H51.1738V217.5H50.1777ZM59.3945 211.834H57.7598V217.5H56.7871V211.834H55.6387V211.395L56.7871 211.043V210.686C56.7871 209.107 57.4766 208.318 58.8555 208.318C59.1953 208.318 59.5938 208.387 60.0508 208.523L59.7988 209.303C59.4238 209.182 59.1035 209.121 58.8379 209.121C58.4707 209.121 58.1992 209.244 58.0234 209.49C57.8477 209.732 57.7598 210.123 57.7598 210.662V211.078H59.3945V211.834ZM61.4805 211.078V215.244C61.4805 215.768 61.5996 216.158 61.8379 216.416C62.0762 216.674 62.4492 216.803 62.957 216.803C63.6289 216.803 64.1191 216.619 64.4277 216.252C64.7402 215.885 64.8965 215.285 64.8965 214.453V211.078H65.8691V217.5H65.0664L64.9258 216.639H64.873C64.6738 216.955 64.3965 217.197 64.041 217.365C63.6895 217.533 63.2871 217.617 62.834 217.617C62.0527 217.617 61.4668 217.432 61.0762 217.061C60.6895 216.689 60.4961 216.096 60.4961 215.279V211.078H61.4805ZM72.332 217.5V213.346C72.332 212.822 72.2129 212.432 71.9746 212.174C71.7363 211.916 71.3633 211.787 70.8555 211.787C70.1836 211.787 69.6914 211.969 69.3789 212.332C69.0664 212.695 68.9102 213.295 68.9102 214.131V217.5H67.9375V211.078H68.7285L68.8867 211.957H68.9336C69.1328 211.641 69.4121 211.396 69.7715 211.225C70.1309 211.049 70.5312 210.961 70.9727 210.961C71.7461 210.961 72.3281 211.148 72.7188 211.523C73.1094 211.895 73.3047 212.49 73.3047 213.311V217.5H72.332ZM79.6797 216.639H79.627C79.1777 217.291 78.5059 217.617 77.6113 217.617C76.7715 217.617 76.1172 217.33 75.6484 216.756C75.1836 216.182 74.9512 215.365 74.9512 214.307C74.9512 213.248 75.1855 212.426 75.6543 211.84C76.123 211.254 76.7754 210.961 77.6113 210.961C78.4824 210.961 79.1504 211.277 79.6152 211.91H79.6914L79.6504 211.447L79.627 210.996V208.383H80.5996V217.5H79.8086L79.6797 216.639ZM77.7344 216.803C78.3984 216.803 78.8789 216.623 79.1758 216.264C79.4766 215.9 79.627 215.316 79.627 214.512V214.307C79.627 213.396 79.4746 212.748 79.1699 212.361C78.8691 211.971 78.3867 211.775 77.7227 211.775C77.1523 211.775 76.7148 211.998 76.4102 212.443C76.1094 212.885 75.959 213.51 75.959 214.318C75.959 215.139 76.1094 215.758 76.4102 216.176C76.7109 216.594 77.1523 216.803 77.7344 216.803ZM85.3809 217.617C84.4316 217.617 83.6816 217.328 83.1309 216.75C82.584 216.172 82.3105 215.369 82.3105 214.342C82.3105 213.307 82.5645 212.484 83.0723 211.875C83.584 211.266 84.2695 210.961 85.1289 210.961C85.9336 210.961 86.5703 211.227 87.0391 211.758C87.5078 212.285 87.7422 212.982 87.7422 213.85V214.465H83.3184C83.3379 215.219 83.5273 215.791 83.8867 216.182C84.25 216.572 84.7598 216.768 85.416 216.768C86.1074 216.768 86.791 216.623 87.4668 216.334V217.201C87.123 217.35 86.7969 217.455 86.4883 217.518C86.1836 217.584 85.8145 217.617 85.3809 217.617ZM85.1172 211.775C84.6016 211.775 84.1895 211.943 83.8809 212.279C83.5762 212.615 83.3965 213.08 83.3418 213.674H86.6992C86.6992 213.061 86.5625 212.592 86.2891 212.268C86.0156 211.939 85.625 211.775 85.1172 211.775ZM93.7773 216.639H93.7246C93.2754 217.291 92.6035 217.617 91.709 217.617C90.8691 217.617 90.2148 217.33 89.7461 216.756C89.2812 216.182 89.0488 215.365 89.0488 214.307C89.0488 213.248 89.2832 212.426 89.752 211.84C90.2207 211.254 90.873 210.961 91.709 210.961C92.5801 210.961 93.248 211.277 93.7129 211.91H93.7891L93.748 211.447L93.7246 210.996V208.383H94.6973V217.5H93.9062L93.7773 216.639ZM91.832 216.803C92.4961 216.803 92.9766 216.623 93.2734 216.264C93.5742 215.9 93.7246 215.316 93.7246 214.512V214.307C93.7246 213.396 93.5723 212.748 93.2676 212.361C92.9668 211.971 92.4844 211.775 91.8203 211.775C91.25 211.775 90.8125 211.998 90.5078 212.443C90.207 212.885 90.0566 213.51 90.0566 214.318C90.0566 215.139 90.207 215.758 90.5078 216.176C90.8086 216.594 91.25 216.803 91.832 216.803Z" class="path-14"/>
<path d="M116.291 213.365H118.705V214.174H116.291V216.67H115.477V214.174H113.074V213.365H115.477V210.857H116.291V213.365ZM125.596 213.705C125.596 215.186 125.361 216.291 124.893 217.021C124.428 217.752 123.715 218.117 122.754 218.117C121.832 218.117 121.131 217.744 120.65 216.998C120.17 216.248 119.93 215.15 119.93 213.705C119.93 212.213 120.162 211.105 120.627 210.383C121.092 209.66 121.801 209.299 122.754 209.299C123.684 209.299 124.389 209.676 124.869 210.43C125.354 211.184 125.596 212.275 125.596 213.705ZM120.914 213.705C120.914 214.951 121.061 215.859 121.354 216.43C121.646 216.996 122.113 217.279 122.754 217.279C123.402 217.279 123.871 216.992 124.16 216.418C124.453 215.84 124.6 214.936 124.6 213.705C124.6 212.475 124.453 211.574 124.16 211.004C123.871 210.43 123.402 210.143 122.754 210.143C122.113 210.143 121.646 210.426 121.354 210.992C121.061 211.555 120.914 212.459 120.914 213.705ZM127.09 217.379C127.09 217.117 127.148 216.92 127.266 216.787C127.387 216.65 127.559 216.582 127.781 216.582C128.008 216.582 128.184 216.65 128.309 216.787C128.438 216.92 128.502 217.117 128.502 217.379C128.502 217.633 128.438 217.828 128.309 217.965C128.18 218.102 128.004 218.17 127.781 218.17C127.582 218.17 127.416 218.109 127.283 217.988C127.154 217.863 127.09 217.66 127.09 217.379ZM135.662 213.705C135.662 215.186 135.428 216.291 134.959 217.021C134.494 217.752 133.781 218.117 132.82 218.117C131.898 218.117 131.197 217.744 130.717 216.998C130.236 216.248 129.996 215.15 129.996 213.705C129.996 212.213 130.229 211.105 130.693 210.383C131.158 209.66 131.867 209.299 132.82 209.299C133.75 209.299 134.455 209.676 134.936 210.43C135.42 211.184 135.662 212.275 135.662 213.705ZM130.98 213.705C130.98 214.951 131.127 215.859 131.42 216.43C131.713 216.996 132.18 217.279 132.82 217.279C133.469 217.279 133.938 216.992 134.227 216.418C134.52 215.84 134.666 214.936 134.666 213.705C134.666 212.475 134.52 211.574 134.227 211.004C133.938 210.43 133.469 210.143 132.82 210.143C132.18 210.143 131.713 210.426 131.42 210.992C131.127 211.555 130.98 212.459 130.98 213.705ZM142.529 213.705C142.529 215.186 142.295 216.291 141.826 217.021C141.361 217.752 140.648 218.117 139.688 218.117C138.766 218.117 138.064 217.744 137.584 216.998C137.104 216.248 136.863 215.15 136.863 213.705C136.863 212.213 137.096 211.105 137.561 210.383C138.025 209.66 138.734 209.299 139.688 209.299C140.617 209.299 141.322 209.676 141.803 210.43C142.287 211.184 142.529 212.275 142.529 213.705ZM137.848 213.705C137.848 214.951 137.994 215.859 138.287 216.43C138.58 216.996 139.047 217.279 139.688 217.279C140.336 217.279 140.805 216.992 141.094 216.418C141.387 215.84 141.533 214.936 141.533 213.705C141.533 212.475 141.387 211.574 141.094 211.004C140.805 210.43 140.336 210.143 139.688 210.143C139.047 210.143 138.58 210.426 138.287 210.992C137.994 211.555 137.848 212.459 137.848 213.705ZM147.322 218H146.373V211.895C146.373 211.387 146.389 210.906 146.42 210.453C146.338 210.535 146.246 210.621 146.145 210.711C146.043 210.801 145.578 211.182 144.75 211.854L144.234 211.186L146.502 209.434H147.322V218Z" class="path-15"/>
<path d="M163.334 213.112L159.793 215.288L156.25 213.112L159.793 207L163.334 213.112ZM159.793 215.986L156.25 213.811L159.793 219L163.336 213.811L159.793 215.986Z" class="path-16"/>
<path d="M174.291 213.365H176.705V214.174H174.291V216.67H173.477V214.174H171.074V213.365H173.477V210.857H174.291V213.365ZM183.549 218H177.918V217.162L180.174 214.895C180.861 214.199 181.314 213.703 181.533 213.406C181.752 213.109 181.916 212.82 182.025 212.539C182.135 212.258 182.189 211.955 182.189 211.631C182.189 211.174 182.051 210.812 181.773 210.547C181.496 210.277 181.111 210.143 180.619 210.143C180.264 210.143 179.926 210.201 179.605 210.318C179.289 210.436 178.936 210.648 178.545 210.957L178.029 210.295C178.818 209.639 179.678 209.311 180.607 209.311C181.412 209.311 182.043 209.518 182.5 209.932C182.957 210.342 183.186 210.895 183.186 211.59C183.186 212.133 183.033 212.67 182.729 213.201C182.424 213.732 181.854 214.404 181.018 215.217L179.143 217.051V217.098H183.549V218ZM184.885 214.338C184.885 212.654 185.211 211.396 185.863 210.564C186.52 209.729 187.488 209.311 188.77 209.311C189.211 209.311 189.559 209.348 189.812 209.422V210.26C189.512 210.162 189.168 210.113 188.781 210.113C187.863 210.113 187.162 210.4 186.678 210.975C186.193 211.545 185.928 212.443 185.881 213.67H185.951C186.381 212.998 187.061 212.662 187.99 212.662C188.76 212.662 189.365 212.895 189.807 213.359C190.252 213.824 190.475 214.455 190.475 215.252C190.475 216.143 190.23 216.844 189.742 217.355C189.258 217.863 188.602 218.117 187.773 218.117C186.887 218.117 186.184 217.785 185.664 217.121C185.145 216.453 184.885 215.525 184.885 214.338ZM187.762 217.291C188.316 217.291 188.746 217.117 189.051 216.77C189.359 216.418 189.514 215.912 189.514 215.252C189.514 214.686 189.371 214.24 189.086 213.916C188.801 213.592 188.375 213.43 187.809 213.43C187.457 213.43 187.135 213.502 186.842 213.646C186.549 213.791 186.314 213.99 186.139 214.244C185.967 214.498 185.881 214.762 185.881 215.035C185.881 215.438 185.959 215.812 186.115 216.16C186.271 216.508 186.492 216.783 186.777 216.986C187.066 217.189 187.395 217.291 187.762 217.291ZM197.283 218H191.652V217.162L193.908 214.895C194.596 214.199 195.049 213.703 195.268 213.406C195.486 213.109 195.65 212.82 195.76 212.539C195.869 212.258 195.924 211.955 195.924 211.631C195.924 211.174 195.785 210.812 195.508 210.547C195.23 210.277 194.846 210.143 194.354 210.143C193.998 210.143 193.66 210.201 193.34 210.318C193.023 210.436 192.67 210.648 192.279 210.957L191.764 210.295C192.553 209.639 193.412 209.311 194.342 209.311C195.146 209.311 195.777 209.518 196.234 209.932C196.691 210.342 196.92 210.895 196.92 211.59C196.92 212.133 196.768 212.67 196.463 213.201C196.158 213.732 195.588 214.404 194.752 215.217L192.877 217.051V217.098H197.283V218ZM198.824 217.379C198.824 217.117 198.883 216.92 199 216.787C199.121 216.65 199.293 216.582 199.516 216.582C199.742 216.582 199.918 216.65 200.043 216.787C200.172 216.92 200.236 217.117 200.236 217.379C200.236 217.633 200.172 217.828 200.043 217.965C199.914 218.102 199.738 218.17 199.516 218.17C199.316 218.17 199.15 218.109 199.018 217.988C198.889 217.863 198.824 217.66 198.824 217.379ZM204.396 212.768C205.299 212.768 206.008 212.992 206.523 213.441C207.043 213.887 207.303 214.498 207.303 215.275C207.303 216.162 207.02 216.857 206.453 217.361C205.891 217.865 205.113 218.117 204.121 218.117C203.156 218.117 202.42 217.963 201.912 217.654V216.717C202.186 216.893 202.525 217.031 202.932 217.133C203.338 217.23 203.738 217.279 204.133 217.279C204.82 217.279 205.354 217.117 205.732 216.793C206.115 216.469 206.307 216 206.307 215.387C206.307 214.191 205.574 213.594 204.109 213.594C203.738 213.594 203.242 213.65 202.621 213.764L202.117 213.441L202.439 209.434H206.699V210.33H203.271L203.055 212.902C203.504 212.812 203.951 212.768 204.396 212.768Z" class="path-17"/>
<g clip-path="url(#clip1_19989_140015)">
<path fill-rule="evenodd" clip-rule="evenodd" d="M215.523 207.75L221.557 208.02L224 213.449L220.554 218.41L214.487 218.022L212 212.139L215.523 207.75ZM219.947 210.879L215.574 212.79L219.313 215.681L219.947 210.879ZM219.441 209.922L215.946 208.417L215.212 211.581L219.441 209.922ZM218.555 216.409L214.757 213.696L214.849 217.372L218.555 216.409ZM223.393 213.437L220.805 210.81L220.122 215.861L223.393 213.437ZM219.445 217L216.242 217.837L220.009 218.078L219.445 217ZM222.888 214.628L220.084 216.718L220.641 217.807L222.888 214.628ZM221.561 208.778L221.017 209.896L223.044 211.957L221.561 208.778ZM220.883 208.243L217.323 208.099L220.259 209.383L220.883 208.243ZM215.004 208.76L212.51 211.909L214.177 212.262L215.004 208.76ZM214.077 212.88L212.402 212.525L214.15 216.644L214.077 212.88Z" class="path-18"/>
</g>
<path d="M24.7075 28H23.7918C23.7104 28 23.6697 28.0389 23.6697 28.1167V32.6958H19.1221C19.0407 32.6958 19 32.7347 19 32.8124V33.6874C19 33.7652 19.0407 33.8041 19.1221 33.8041H23.6697V38.3833C23.6697 38.4611 23.7104 38.5 23.7918 38.5H24.7075C24.7889 38.5 24.8296 38.4611 24.8296 38.3833V33.8041H29.3779C29.4593 33.8041 29.5 33.7652 29.5 33.6874V32.8124C29.5 32.7347 29.4593 32.6958 29.3779 32.6958H24.8296V28.1167C24.8296 28.0389 24.7889 28 24.7075 28Z" class="path-19"/>
<path fill-rule="evenodd" clip-rule="evenodd" d="M42.1429 36.8093C42.6531 37.1061 43 37.6528 43 38.2857C43 38.9187 42.6531 39.4654 42.1426 39.7624V43.8571C42.1426 44.1041 41.9529 44.7143 41.2854 44.7143C41.0909 44.7141 40.9022 44.6478 40.7503 44.5262L38.4727 42.704C37.3289 41.7896 35.8927 41.2857 34.4286 41.2857H33.6764C33.6017 41.5592 33.5583 41.8453 33.5583 42.1429C33.5583 42.9218 33.8195 43.6407 34.2588 44.2171C34.6817 44.7721 34.2628 45.5714 33.565 45.5714H31.5754C31.2571 45.5714 30.9537 45.4008 30.8146 45.1145C30.378 44.2147 30.13 43.2081 30.13 42.1429C30.13 41.852 30.1512 41.5664 30.1884 41.2857H29.2857C28.3388 41.2857 27.5714 40.5183 27.5714 39.5714V37C27.5714 36.0531 28.3388 35.2857 29.2857 35.2857H34.4286C35.8927 35.2857 37.3289 34.7819 38.4729 33.8674L40.7505 32.0452C40.9056 31.9209 41.095 31.8571 41.2857 31.8571C41.9559 31.8571 42.1429 32.4802 42.1429 32.7146V36.8093ZM39.5433 41.3655L40.4286 42.0738V34.4977L39.5433 35.2059C38.0969 36.363 36.28 37 34.4286 37V39.5714C36.28 39.5714 38.0969 40.2084 39.5433 41.3655Z" class="path-20"/>
<defs>
<clipPath id="clip0_19989_140015">
<rect width="12" height="12" fill="white" transform="translate(212 118)"/>
</clipPath>
<clipPath id="clip1_19989_140015">
<rect width="12" height="12" fill="white" transform="translate(212 207)"/>
</clipPath>
</defs>
</svg>
