<svg width="17" height="16" viewBox="0 0 17 16" fill="none" xmlns="http://www.w3.org/2000/svg">
<g clip-path="url(#clip0_22740_27326)">
<path d="M14.1617 3.01119C14.1573 3.00272 14.1499 2.99609 14.1409 2.99248C13.1035 2.52502 12.0088 2.19169 10.8841 2.00082C10.8739 1.99895 10.8634 2.0003 10.854 2.00466C10.8446 2.00903 10.8368 2.01619 10.8318 2.02514C10.6827 2.29086 10.5474 2.5638 10.4264 2.84292C9.21403 2.66218 7.98085 2.66218 6.76851 2.84292C6.64665 2.5631 6.50916 2.29009 6.35667 2.02514C6.35144 2.01639 6.34365 2.00939 6.33431 2.00505C6.32497 2.00071 6.31452 1.99924 6.30432 2.00082C5.17952 2.19129 4.08472 2.52464 3.04749 2.9925C3.03861 2.9962 3.03112 3.00251 3.02605 3.01057C0.951781 6.0529 0.383561 9.02042 0.66231 11.9512C0.663094 11.9584 0.665341 11.9653 0.668917 11.9717C0.672494 11.978 0.677326 11.9835 0.683127 11.9879C1.89095 12.8663 3.24192 13.5367 4.67838 13.9707C4.68849 13.9736 4.6993 13.9735 4.70933 13.9703C4.71937 13.967 4.72816 13.9609 4.73452 13.9526C5.04304 13.5403 5.31641 13.1037 5.55185 12.6473C5.55509 12.641 5.55693 12.6342 5.55727 12.6271C5.55761 12.6201 5.55643 12.6131 5.55381 12.6066C5.55119 12.6 5.54719 12.5941 5.54207 12.5892C5.53696 12.5843 5.53084 12.5805 5.52412 12.5781C5.09304 12.4161 4.67569 12.2208 4.27601 11.9941C4.26875 11.9899 4.26265 11.984 4.25826 11.977C4.25386 11.9699 4.2513 11.9619 4.2508 11.9536C4.2503 11.9454 4.25188 11.9371 4.2554 11.9296C4.25892 11.9221 4.26427 11.9156 4.27098 11.9106C4.35484 11.8488 4.43876 11.7847 4.51884 11.7198C4.52596 11.7141 4.53456 11.7104 4.5437 11.7092C4.55283 11.708 4.56213 11.7093 4.57054 11.713C7.18903 12.8867 10.0239 12.8867 12.6114 11.713C12.6198 11.709 12.6292 11.7075 12.6385 11.7086C12.6477 11.7097 12.6565 11.7134 12.6637 11.7192C12.7438 11.784 12.8277 11.8488 12.9122 11.9106C12.919 11.9155 12.9244 11.922 12.9279 11.9295C12.9315 11.937 12.9332 11.9452 12.9327 11.9535C12.9323 11.9617 12.9298 11.9698 12.9254 11.9768C12.9211 11.9839 12.915 11.9899 12.9078 11.9941C12.509 12.2227 12.0913 12.4179 11.6591 12.5775C11.6524 12.58 11.6463 12.5839 11.6412 12.5889C11.6361 12.5938 11.6322 12.5998 11.6296 12.6064C11.627 12.613 11.6259 12.62 11.6263 12.6271C11.6267 12.6341 11.6286 12.641 11.6319 12.6473C11.8713 13.1012 12.1443 13.5372 12.4486 13.9519C12.4548 13.9604 12.4635 13.9668 12.4736 13.9701C12.4837 13.9735 12.4946 13.9736 12.5047 13.9706C13.9438 13.5381 15.2971 12.8676 16.5064 11.9879C16.5123 11.9837 16.5172 11.9783 16.5208 11.9721C16.5244 11.9659 16.5266 11.9589 16.5273 11.9518C16.861 8.56353 15.9686 5.62033 14.1617 3.01119ZM5.9429 10.1667C5.15454 10.1667 4.50496 9.45612 4.50496 8.5835C4.50496 7.71087 5.14195 7.00028 5.9429 7.00028C6.75011 7.00028 7.39341 7.71704 7.38081 8.58344C7.38081 9.45612 6.7438 10.1667 5.9429 10.1667ZM11.2594 10.1667C10.4711 10.1667 9.82147 9.45612 9.82147 8.5835C9.82147 7.71087 10.4585 7.00028 11.2594 7.00028C12.0666 7.00028 12.7099 7.71704 12.6973 8.58344C12.6973 9.45612 12.0666 10.1667 11.2594 10.1667Z" />
</g>
<defs>
<clipPath id="clip0_22740_27326">
<rect width="16" height="16" transform="translate(0.596191)"/>
</clipPath>
</defs>
</svg>
