<svg viewBox="0 0 17 16" fill="none" xmlns="http://www.w3.org/2000/svg">
<g clip-path="url(#clip0_7838_1787)">
<path fill-rule="evenodd" clip-rule="evenodd" d="M3.97333 7.35778C3.93906 7.4403 3.92143 7.52877 3.92144 7.61813H3.92171V11.8583C3.92157 11.9971 3.87039 12.1311 3.7779 12.2346C3.68541 12.3382 3.55808 12.4041 3.42016 12.4198C3.10329 12.457 2.83675 12.4836 2.62265 12.5025C2.43103 12.5196 2.23849 12.4817 2.06766 12.3932C1.89683 12.3046 1.75481 12.1692 1.65827 12.0027C0.958235 10.7856 0.591875 9.40508 0.59623 8.00087C0.595794 3.56325 4.26146 -0.0587576 8.69691 0.000847346C10.3418 0.0235218 11.9395 0.553883 13.2716 1.51941C14.6036 2.48494 15.6051 3.83851 16.139 5.39504C16.2002 5.573 16.2163 5.76334 16.186 5.94908C16.1558 6.13481 16.08 6.31016 15.9655 6.45948C15.1765 7.48818 14.1821 8.34374 13.201 9.05502V4.22642C13.201 4.04627 13.1295 3.8735 13.0021 3.74612C12.8748 3.61874 12.7021 3.54718 12.522 3.54718H11.3903C11.3011 3.54718 11.2128 3.56476 11.1305 3.5989C11.0481 3.63304 10.9733 3.68307 10.9102 3.74615C10.8472 3.80922 10.7972 3.8841 10.7631 3.9665C10.7289 4.04891 10.7114 4.13723 10.7114 4.22642V10.0903C10.7113 10.2017 10.6784 10.3105 10.6169 10.4033C10.5554 10.4961 10.4679 10.5687 10.3654 10.6121C10.0893 10.7286 9.80611 10.8434 9.80611 10.8434V5.92484C9.80611 5.74467 9.73458 5.57189 9.60725 5.44448C9.47991 5.31707 9.30721 5.24547 9.12711 5.24543H7.99542C7.81532 5.24546 7.6426 5.31705 7.51527 5.44446C7.38793 5.57188 7.31641 5.74467 7.31642 5.92484V11.2242C7.31639 11.3518 7.27329 11.4756 7.19412 11.5756C7.11494 11.6755 7.00434 11.7458 6.88022 11.7751C6.70147 11.817 6.5383 11.8572 6.41107 11.8949V7.62265C6.41107 7.4425 6.33954 7.26973 6.2122 7.14235C6.08487 7.01497 5.91216 6.94341 5.73208 6.94341L4.60267 6.9397C4.51335 6.93928 4.42483 6.95653 4.34219 6.99043C4.25955 7.02434 4.18442 7.07425 4.12112 7.13729C4.05782 7.20033 4.00759 7.27526 3.97333 7.35778ZM3.89701 14.47C3.89695 14.4699 3.89689 14.4699 3.89683 14.4699L3.89677 14.47C3.89685 14.47 3.89693 14.47 3.89701 14.47ZM3.89701 14.47C5.08983 15.338 6.49942 15.859 7.96985 15.9754C9.44036 16.0918 10.9144 15.799 12.2289 15.1293C13.5433 14.4597 14.647 13.4394 15.4178 12.1812C16.1886 10.923 16.5964 9.47608 16.5962 8.00043C16.5962 7.81622 16.5876 7.63409 16.5753 7.45293C13.6538 11.8115 8.25971 13.8495 3.89701 14.47Z"/>
</g>
<defs>
<clipPath id="clip0_7838_1787">
<rect width="16" height="16" fill="white" transform="translate(0.596191 0.00012207)"/>
</clipPath>
</defs>
</svg>
