<svg width="17" height="16" viewBox="0 0 17 16" fill="none" xmlns="http://www.w3.org/2000/svg">
<g clip-path="url(#clip0_7752_1965)">
<path d="M5.9478 12.9645C5.9478 13.026 5.87361 13.0751 5.78006 13.0751C5.67361 13.0844 5.59942 13.0352 5.59942 12.9645C5.59942 12.9031 5.67361 12.8539 5.76716 12.8539C5.86393 12.8447 5.9478 12.8939 5.9478 12.9645ZM4.94458 12.8263C4.922 12.8877 4.98651 12.9584 5.08329 12.9768C5.16716 13.0075 5.26393 12.9768 5.28329 12.9154C5.30264 12.8539 5.24135 12.7832 5.14458 12.7556C5.06071 12.7341 4.96716 12.7648 4.94458 12.8263ZM6.37038 12.774C6.27684 12.7955 6.21232 12.8539 6.222 12.9246C6.23168 12.986 6.31555 13.026 6.41232 13.0045C6.50587 12.983 6.57038 12.9246 6.56071 12.8631C6.55103 12.8048 6.46393 12.7648 6.37038 12.774ZM8.49297 1.00012C4.01877 1.00012 0.596191 4.23549 0.596191 8.49708C0.596191 11.9045 2.8478 14.8203 6.06393 15.8466C6.47684 15.9172 6.622 15.6745 6.622 15.4748C6.622 15.2843 6.61232 14.2335 6.61232 13.5882C6.61232 13.5882 4.35426 14.0491 3.88006 12.6726C3.88006 12.6726 3.51232 11.7785 2.98329 11.5481C2.98329 11.5481 2.24458 11.0657 3.0349 11.0749C3.0349 11.0749 3.83813 11.1364 4.28006 11.8676C4.98651 13.0536 6.17038 12.7126 6.63168 12.5098C6.70587 12.0182 6.91555 11.6771 7.1478 11.4744C5.34458 11.2839 3.52522 11.035 3.52522 8.07921C3.52522 7.23427 3.77039 6.81026 4.28651 6.2695C4.20264 6.06978 3.92845 5.24635 4.37038 4.18326C5.04458 3.98354 6.59619 5.01284 6.59619 5.01284C7.24135 4.84078 7.9349 4.75167 8.622 4.75167C9.30909 4.75167 10.0026 4.84078 10.6478 5.01284C10.6478 5.01284 12.1994 3.98047 12.8736 4.18326C13.3155 5.24942 13.0414 6.06978 12.9575 6.2695C13.4736 6.81333 13.7897 7.23734 13.7897 8.07921C13.7897 11.0442 11.8897 11.2808 10.0865 11.4744C10.3833 11.7171 10.6349 12.178 10.6349 12.9C10.6349 13.9354 10.6252 15.2167 10.6252 15.4686C10.6252 15.6683 10.7736 15.9111 11.1833 15.8404C14.4091 14.8203 16.5962 11.9045 16.5962 8.49708C16.5962 4.23549 12.9672 1.00012 8.49297 1.00012ZM3.73168 11.5973C3.68974 11.628 3.69942 11.6986 3.75426 11.757C3.80587 11.8062 3.88006 11.8277 3.922 11.7877C3.96393 11.757 3.95426 11.6864 3.89942 11.628C3.8478 11.5788 3.77361 11.5573 3.73168 11.5973ZM3.38329 11.3484C3.36071 11.3883 3.39297 11.4375 3.45748 11.4682C3.50909 11.4989 3.57361 11.4897 3.59619 11.4467C3.61877 11.4068 3.58651 11.3576 3.522 11.3269C3.45748 11.3084 3.40587 11.3177 3.38329 11.3484ZM4.42845 12.4422C4.37684 12.4821 4.39619 12.5743 4.47038 12.6327C4.54458 12.7034 4.63813 12.7126 4.68006 12.6634C4.722 12.6235 4.70264 12.5313 4.63813 12.4729C4.56716 12.4023 4.47038 12.393 4.42845 12.4422ZM4.06071 11.9905C4.00909 12.0213 4.00909 12.1011 4.06071 12.1718C4.11232 12.2425 4.19942 12.2732 4.24135 12.2425C4.29297 12.2025 4.29297 12.1227 4.24135 12.052C4.19619 11.9813 4.11232 11.9506 4.06071 11.9905Z"/>
</g>
<defs>
<clipPath id="clip0_7752_1965">
<rect width="16" height="16" transform="translate(0.596191 0.00012207)"/>
</clipPath>
</defs>
</svg>
