<svg width="17" height="16" viewBox="0 0 17 16" fill="none" xmlns="http://www.w3.org/2000/svg">
<g clip-path="url(#clip0_22740_27330)">
<path d="M5.9478 11.9644C5.9478 12.0259 5.87361 12.075 5.78006 12.075C5.67361 12.0842 5.59942 12.0351 5.59942 11.9644C5.59942 11.903 5.67361 11.8538 5.76716 11.8538C5.86393 11.8446 5.9478 11.8937 5.9478 11.9644ZM4.94458 11.8261C4.922 11.8876 4.98651 11.9583 5.08329 11.9767C5.16716 12.0074 5.26393 11.9767 5.28329 11.9152C5.30264 11.8538 5.24135 11.7831 5.14458 11.7555C5.06071 11.734 4.96716 11.7647 4.94458 11.8261ZM6.37038 11.7739C6.27684 11.7954 6.21232 11.8538 6.222 11.9245C6.23168 11.9859 6.31555 12.0259 6.41232 12.0043C6.50587 11.9828 6.57038 11.9245 6.56071 11.863C6.55103 11.8046 6.46393 11.7647 6.37038 11.7739ZM8.49297 0C4.01877 0 0.596191 3.23537 0.596191 7.49695C0.596191 10.9044 2.8478 13.8202 6.06393 14.8464C6.47684 14.9171 6.622 14.6744 6.622 14.4747C6.622 14.2842 6.61232 13.2334 6.61232 12.5881C6.61232 12.5881 4.35426 13.049 3.88006 11.6725C3.88006 11.6725 3.51232 10.7784 2.98329 10.548C2.98329 10.548 2.24458 10.0656 3.0349 10.0748C3.0349 10.0748 3.83813 10.1363 4.28006 10.8675C4.98651 12.0535 6.17038 11.7125 6.63168 11.5097C6.70587 11.0181 6.91555 10.677 7.1478 10.4742C5.34458 10.2837 3.52522 10.0349 3.52522 7.07909C3.52522 6.23415 3.77039 5.81014 4.28651 5.26938C4.20264 5.06966 3.92845 4.24623 4.37038 3.18313C5.04458 2.98342 6.59619 4.01271 6.59619 4.01271C7.24135 3.84065 7.9349 3.75155 8.622 3.75155C9.30909 3.75155 10.0026 3.84065 10.6478 4.01271C10.6478 4.01271 12.1994 2.98035 12.8736 3.18313C13.3155 4.2493 13.0414 5.06966 12.9575 5.26938C13.4736 5.81321 13.7897 6.23722 13.7897 7.07909C13.7897 10.0441 11.8897 10.2807 10.0865 10.4742C10.3833 10.717 10.6349 11.1778 10.6349 11.8999C10.6349 12.9353 10.6252 14.2166 10.6252 14.4685C10.6252 14.6682 10.7736 14.911 11.1833 14.8403C14.4091 13.8202 16.5962 10.9044 16.5962 7.49695C16.5962 3.23537 12.9672 0 8.49297 0ZM3.73168 10.5971C3.68974 10.6279 3.69942 10.6985 3.75426 10.7569C3.80587 10.8061 3.88006 10.8276 3.922 10.7876C3.96393 10.7569 3.95426 10.6862 3.89942 10.6279C3.8478 10.5787 3.77361 10.5572 3.73168 10.5971ZM3.38329 10.3483C3.36071 10.3882 3.39297 10.4374 3.45748 10.4681C3.50909 10.4988 3.57361 10.4896 3.59619 10.4466C3.61877 10.4066 3.58651 10.3575 3.522 10.3267C3.45748 10.3083 3.40587 10.3175 3.38329 10.3483ZM4.42845 11.4421C4.37684 11.482 4.39619 11.5742 4.47038 11.6326C4.54458 11.7032 4.63813 11.7125 4.68006 11.6633C4.722 11.6234 4.70264 11.5312 4.63813 11.4728C4.56716 11.4021 4.47038 11.3929 4.42845 11.4421ZM4.06071 10.9904C4.00909 11.0211 4.00909 11.101 4.06071 11.1717C4.11232 11.2424 4.19942 11.2731 4.24135 11.2424C4.29297 11.2024 4.29297 11.1225 4.24135 11.0519C4.19619 10.9812 4.11232 10.9505 4.06071 10.9904Z"/>
</g>
<defs>
<clipPath id="clip0_22740_27330">
<rect width="16" height="16" transform="translate(0.596191)"/>
</clipPath>
</defs>
</svg>
