<svg width="17" height="16" viewBox="0 0 17 16" fill="none" xmlns="http://www.w3.org/2000/svg">
<g clip-path="url(#clip0_22740_27334)">
<path d="M4.94215 15H1.84305V4.98549H4.94215V15ZM3.39093 3.61942C2.40015 3.61942 1.59619 2.79576 1.59619 1.80134C1.59619 0.80692 2.40015 0 3.39093 0C4.38171 0 5.18567 0.80692 5.18567 1.80134C5.18567 2.79576 4.38171 3.61942 3.39093 3.61942ZM16.5412 15H13.4488V10.125C13.4488 8.96317 13.4255 7.47321 11.8375 7.47321C10.2263 7.47321 9.97943 8.73549 9.97943 10.0413V15H6.88367V4.98549H9.856V6.35156H9.89936C10.313 5.56473 11.3238 4.73437 12.8317 4.73437C15.9675 4.73437 16.5446 6.80692 16.5446 9.49888V15H16.5412Z"/>
</g>
<defs>
<clipPath id="clip0_22740_27334">
<rect width="16" height="16" transform="translate(0.596191)"/>
</clipPath>
</defs>
</svg>
