<svg viewBox="0 0 17 16" fill="none" xmlns="http://www.w3.org/2000/svg">
<g clip-path="url(#clip0_7752_1653)">
<path d="M14.812 5.78699C14.3062 5.78699 13.861 5.99607 13.5339 6.32318C12.33 5.49022 10.7079 4.95403 8.9105 4.8967L9.84462 0.688071L12.819 1.35579C12.819 2.0842 13.4125 2.67773 14.1409 2.67773C14.8828 2.67773 15.4797 2.06734 15.4797 1.33892C15.4797 0.610508 14.8862 0.00012207 14.1409 0.00012207C13.6216 0.00012207 13.1731 0.313746 12.9505 0.742028L9.66589 0.0136113C9.50065 -0.0302286 9.33878 0.0878019 9.29494 0.253044L8.26976 4.89333C6.48582 4.96752 4.8806 5.50371 3.67332 6.33667C3.34621 5.99607 2.8842 5.78699 2.37836 5.78699C0.503358 5.78699 -0.1104 8.30272 1.6061 9.16266C1.5454 9.42907 1.51842 9.71234 1.51842 9.99561C1.51842 12.8216 4.70187 15.1114 8.61036 15.1114C12.5357 15.1114 15.7192 12.8216 15.7192 9.99561C15.7192 9.71234 15.6888 9.41558 15.6146 9.14917C17.2974 8.28586 16.6769 5.78699 14.812 5.78699ZM4.32754 9.34139C4.32754 8.59948 4.92107 8.00259 5.66635 8.00259C6.39476 8.00259 6.98829 8.59611 6.98829 9.34139C6.98829 10.0698 6.39476 10.6633 5.66635 10.6633C4.92444 10.6667 4.32754 10.0698 4.32754 9.34139ZM11.5544 12.4945C10.3269 13.722 6.86351 13.722 5.636 12.4945C5.5011 12.3765 5.5011 12.1674 5.636 12.0325C5.75403 11.9145 5.96311 11.9145 6.08114 12.0325C7.01864 12.9936 10.1279 13.0104 11.1059 12.0325C11.2239 11.9145 11.433 11.9145 11.551 12.0325C11.6893 12.1674 11.6893 12.3765 11.5544 12.4945ZM11.5274 10.6667C10.799 10.6667 10.2055 10.0732 10.2055 9.34476C10.2055 8.60285 10.799 8.00596 11.5274 8.00596C12.2693 8.00596 12.8662 8.59948 12.8662 9.34476C12.8628 10.0698 12.2693 10.6667 11.5274 10.6667Z"/>
</g>
<defs>
<clipPath id="clip0_7752_1653">
<rect width="16" height="16" fill="white" transform="translate(0.596191 0.00012207)"/>
</clipPath>
</defs>
</svg>
