<svg viewBox="0 0 17 16" fill="none" xmlns="http://www.w3.org/2000/svg">
<g clip-path="url(#clip0_7752_1727)">
<path d="M14.9516 5.09333C14.9617 5.22908 14.9617 5.36486 14.9617 5.5006C14.9617 9.64104 11.6622 14.4118 5.63174 14.4118C3.77386 14.4118 2.04798 13.8979 0.596191 13.0058C0.860161 13.0349 1.11394 13.0446 1.38807 13.0446C2.92104 13.0446 4.33224 12.5501 5.45915 11.7065C4.01752 11.6774 2.80939 10.7756 2.39314 9.5344C2.5962 9.56347 2.79923 9.58287 3.01245 9.58287C3.30686 9.58287 3.6013 9.54407 3.87539 9.47623C2.37285 9.1853 1.24591 7.92476 1.24591 6.40238V6.36361C1.68245 6.59633 2.1901 6.74178 2.72814 6.76115C1.84488 6.19874 1.26623 5.23878 1.26623 4.15275C1.26623 3.57096 1.42863 3.03765 1.71291 2.57221C3.32714 4.47275 5.75356 5.71389 8.47435 5.84967C8.4236 5.61695 8.39313 5.37456 8.39313 5.13214C8.39313 3.40612 9.85507 2.00012 11.6723 2.00012C12.6165 2.00012 13.4693 2.37829 14.0683 2.98918C14.8094 2.85343 15.52 2.59161 16.1495 2.23284C15.9058 2.96011 15.3881 3.57099 14.7079 3.95883C15.3678 3.89099 16.0074 3.71641 16.5962 3.47402C16.1496 4.09458 15.5912 4.64726 14.9516 5.09333Z"/>
</g>
<defs>
<clipPath id="clip0_7752_1727">
<rect width="16" height="16" fill="white" transform="translate(0.596191 0.00012207)"/>
</clipPath>
</defs>
</svg>
