<svg viewBox="0 0 16 15" fill="none" xmlns="http://www.w3.org/2000/svg">
<path d="M0.571429 3.29169H15.4286C15.7442 3.29169 16 3.03054 16 2.70835V1.25002C16 0.927838 15.7442 0.666687 15.4286 0.666687H0.571429C0.255821 0.666687 0 0.927838 0 1.25002V2.70835C0 3.03054 0.255821 3.29169 0.571429 3.29169ZM0.571429 9.12502H15.4286C15.7442 9.12502 16 8.86387 16 8.54169V7.08335C16 6.76117 15.7442 6.50002 15.4286 6.50002H0.571429C0.255821 6.50002 0 6.76117 0 7.08335V8.54169C0 8.86387 0.255821 9.12502 0.571429 9.12502ZM0.571429 14.9584H15.4286C15.7442 14.9584 16 14.6972 16 14.375V12.9167C16 12.5945 15.7442 12.3334 15.4286 12.3334H0.571429C0.255821 12.3334 0 12.5945 0 12.9167V14.375C0 14.6972 0.255821 14.9584 0.571429 14.9584Z"/>
</svg>
