<svg width="148" height="48" viewBox="0 0 148 48" fill="none" xmlns="http://www.w3.org/2000/svg">
<g clip-path="url(#clip0_13177_214879)">
<path fill-rule="evenodd" clip-rule="evenodd" d="M66.813 24.4095H66.1854V18.8144H64.5029V31.9443H66.1854V25.795H66.763L72.0608 32.2721L73.3414 31.1884L68.2441 25.0142L72.5882 19.4951L71.3074 18.4873L66.813 24.4095ZM81.4521 18.8141H79.7699V31.944H88.307V30.4319H81.4521V18.8141ZM94.5096 18.8141H102.67V20.3264H96.1917V24.2576H101.54V25.7695H96.1917V30.4318H102.67V31.9439H94.5096V18.8141ZM113.819 18.8141H109.375V31.944H111.057V26.3241H113.493L116.832 32.2718L118.289 31.3898L115.075 26.072C116.657 25.5933 117.736 24.0056 117.736 22.3929C117.736 19.8474 116.004 18.8141 113.819 18.8141ZM115.978 22.3927C115.978 23.8795 114.899 24.812 113.267 24.812H111.057V20.3264H113.769C115.276 20.3264 115.978 21.2084 115.978 22.3927ZM132.878 25.392C132.878 26.4503 132.802 32.1711 128.232 32.1711C126.123 32.1711 123.587 30.659 123.587 25.392C123.587 20.15 126.073 18.5876 128.232 18.5876C130.316 18.5876 132.878 20.0996 132.878 25.392ZM125.345 25.392C125.345 27.3072 125.696 30.5833 128.232 30.5833C130.769 30.5833 131.12 27.3072 131.12 25.392C131.12 23.4512 130.768 20.1754 128.232 20.1754C125.696 20.1752 125.345 23.4512 125.345 25.392ZM143.424 30.5833C141.666 30.5833 140.888 29.3988 140.562 27.7861L139.055 28.2648C139.457 30.6085 140.989 32.1711 143.424 32.1711C145.835 32.1711 147.567 30.7598 147.567 28.2648C147.567 26.9039 146.94 25.8455 145.759 25.1903L142.972 23.9555C141.968 23.5019 141.215 23.149 141.215 21.9142C141.215 20.7296 142.269 20.1754 143.349 20.1754C144.78 20.1754 145.458 21.0824 145.759 22.3677L147.366 21.889C146.839 19.8476 145.559 18.5876 143.374 18.5876C141.315 18.5876 139.532 19.8224 139.532 22.0401C139.532 24.2927 141.036 24.9102 142.749 25.6132C142.914 25.6809 143.081 25.7494 143.248 25.8202C143.353 25.8635 143.458 25.906 143.563 25.9483C144.742 26.4236 145.885 26.8847 145.885 28.3657C145.885 29.8273 144.805 30.5833 143.424 30.5833Z" fill="white"/>
<path fill-rule="evenodd" clip-rule="evenodd" d="M15.6356 1L42.4109 2.19704L53.2512 26.288L37.9576 48.3055L11.0367 46.5812L0 20.4788L15.6356 1ZM35.2655 14.8866L15.8604 23.3666L32.4506 36.1964L35.2655 14.8866ZM33.0188 10.6374L17.511 3.95872L14.2534 18.0009L33.0188 10.6374ZM29.0882 39.4245L12.2342 27.3872L12.6418 43.6985L29.0882 39.4245ZM50.5592 26.2349L39.0741 14.5781L36.0427 36.9936L50.5592 26.2349ZM33.0397 42.0464L18.8256 45.7623L35.5413 46.8329L33.0397 42.0464ZM48.3148 31.5236L35.8723 40.7944L38.3447 45.6271L48.3148 31.5236ZM42.4294 5.56301L40.0127 10.5252L49.008 19.6709L42.4294 5.56301ZM39.4184 3.18844L23.6224 2.54712L36.6522 8.24748L39.4184 3.18844ZM13.3289 5.48314L2.26489 19.4568L9.66208 21.024L13.3289 5.48314ZM9.21605 23.7651L1.78321 22.1911L9.5388 40.466L9.21605 23.7651Z" fill="white"/>
</g>
<defs>
<clipPath id="clip0_13177_214879">
<rect width="148" height="48" fill="white"/>
</clipPath>
</defs>
</svg>
