<svg width="185" height="48" viewBox="0 0 185 48" fill="none" xmlns="http://www.w3.org/2000/svg">
<path fill-rule="evenodd" clip-rule="evenodd" d="M42.6705 1.49354L15.7143 0.290039L0 19.9178L11.111 46.2282L38.2159 47.9398L53.6205 25.7715L42.6705 1.49354ZM15.9677 22.8233L35.5115 14.2859L32.6721 35.7602L15.9677 22.8233ZM17.6325 3.26712L33.2477 9.9924L14.3566 17.4282L17.6325 3.26712ZM12.3283 26.8772L29.2888 39.0155L12.7414 43.3351L12.3283 26.8772ZM39.341 13.9706L50.9078 25.6875L36.2702 36.5603L39.341 13.9706ZM18.9531 45.3993L33.2587 41.6249L35.7869 46.483L18.9531 45.3993ZM36.1174 40.3911L48.6481 31.0605L38.6111 45.2629L36.1174 40.3911ZM40.2718 9.8905L42.727 4.88647L49.3339 19.0971L40.2718 9.8905ZM23.7574 1.84743L39.6549 2.49187L36.8789 7.58677L23.7574 1.84743ZM2.27618 18.8892L13.412 4.8011L9.72714 20.47L2.27618 18.8892ZM1.78735 21.6281L9.27686 23.2116L9.5743 40.0592L1.78735 21.6281ZM67.6843 22.731H68.5711L74.9824 14.2969L76.8042 15.729L70.6173 23.5972L77.881 32.3976L76.0468 33.9329L68.5009 24.707H67.6843V33.473H65.2842V14.7582H67.6843V22.731ZM87.0352 14.7588H89.4215V31.3186H99.1913V33.4723H87.0352V14.7588ZM119.658 14.7588H108.03V33.4723H119.66V31.3186H110.435V24.6718H118.052V22.5237H110.432V16.9234H119.658V14.7588ZM129.201 14.7588H135.535C138.646 14.7588 141.107 16.2377 141.107 19.8537C141.103 21.0145 140.736 22.1449 140.057 23.0865C139.378 24.0281 138.421 24.7337 137.321 25.1042L141.899 32.6777L139.833 33.9322L135.102 25.4622H131.634V33.4709H129.269L129.201 14.7588ZM134.744 23.3114C137.109 23.3114 138.612 21.9743 138.612 19.8578C138.656 19.1196 138.405 18.3942 137.914 17.8408C137.424 17.2875 136.733 16.9516 135.995 16.9069C135.82 16.8956 135.645 16.9016 135.471 16.9248H131.604V23.3114H134.744ZM156.137 33.7901C162.641 33.7901 162.747 25.641 162.747 24.1387C162.747 16.5927 159.212 14.4404 156.137 14.4404C153.062 14.4404 149.514 16.6395 149.514 24.1387C149.514 31.6378 153.121 33.7901 156.137 33.7901ZM156.134 31.5304C152.516 31.5304 152.018 26.8582 152.018 24.1387H151.959C151.959 21.3778 152.525 16.7028 156.134 16.7028C159.743 16.7028 160.239 21.4783 160.239 24.1387C160.239 26.799 159.753 31.5304 156.134 31.5304ZM173.628 27.5456C174.102 29.841 175.202 31.5389 177.709 31.5389C179.673 31.5389 181.256 30.4648 181.256 28.38C181.256 26.2713 179.636 25.6163 177.967 24.9417C177.81 24.8785 177.653 24.8151 177.497 24.7503C177.221 24.6295 176.946 24.5139 176.675 24.3999C174.279 23.3918 172.199 22.5163 172.199 19.3566C172.199 16.1977 174.74 14.4365 177.675 14.4365C180.785 14.4365 182.607 16.2266 183.363 19.1665L181.069 19.8413C180.644 18.0195 179.674 16.7182 177.64 16.7182C176.105 16.7182 174.6 17.5114 174.6 19.1968C174.6 20.8823 175.674 21.4565 177.108 22.1064L181.069 23.8566C181.872 24.2664 182.542 24.8971 182.999 25.6746C183.456 26.4521 183.681 27.3439 183.648 28.2451C183.648 31.7936 181.17 33.8041 177.727 33.8041C174.285 33.8041 172.073 31.5788 171.506 28.2451L173.628 27.5456Z" fill="white"/>
</svg>
