<svg width="148" height="48" viewBox="0 0 148 48" fill="none" xmlns="http://www.w3.org/2000/svg">
<g clip-path="url(#clip0_19973_65254)">
<path fill-rule="evenodd" clip-rule="evenodd" d="M15.6356 1L42.4109 2.19704L53.2512 26.288L37.9576 48.3055L11.0367 46.5812L0 20.4788L15.6356 1ZM35.2655 14.8866L15.8604 23.3666L32.4506 36.1964L35.2655 14.8866ZM33.0188 10.6374L17.511 3.95872L14.2534 18.0009L33.0188 10.6374ZM29.0882 39.4245L12.2342 27.3872L12.6418 43.6985L29.0882 39.4245ZM50.5592 26.2349L39.0741 14.5781L36.0427 36.9936L50.5592 26.2349ZM33.0397 42.0464L18.8256 45.7623L35.5413 46.8329L33.0397 42.0464ZM48.3148 31.5236L35.8723 40.7944L38.3447 45.6271L48.3148 31.5236ZM42.4294 5.56301L40.0127 10.5252L49.008 19.6709L42.4294 5.56301ZM39.4184 3.18844L23.6224 2.54712L36.6522 8.24748L39.4184 3.18844ZM13.3289 5.48314L2.26489 19.4568L9.66208 21.024L13.3289 5.48314ZM9.21605 23.7651L1.78321 22.1911L9.5388 40.466L9.21605 23.7651Z" fill="white"/>
<path d="M65.6824 13.9222H66.3101L70.8045 8L72.0852 9.00784L67.7412 14.5269L72.8384 20.701L71.5578 21.7848L66.2601 15.3077H65.6824V21.457H64V8.32709H65.6824V13.9222Z" fill="white"/>
<path d="M79.2669 8.32682H80.9492V19.9446H87.8041V21.4567H79.2669V8.32682Z" fill="white"/>
<path d="M102.167 8.32682H94.0067V21.4566H102.167V19.9445H95.6888V15.2822H101.037V13.7703H95.6888V9.83907H102.167V8.32682Z" fill="white"/>
<path fill-rule="evenodd" clip-rule="evenodd" d="M108.872 8.32682H113.316C115.501 8.32682 117.233 9.36006 117.233 11.9055C117.233 13.5182 116.154 15.106 114.572 15.5847L117.786 20.9025L116.329 21.7845L112.99 15.8368H110.554V21.4567H108.872V8.32682ZM112.764 14.3247C114.396 14.3247 115.476 13.3922 115.476 11.9054C115.476 10.721 114.773 9.83907 113.266 9.83907H110.554V14.3247H112.764Z" fill="white"/>
<path fill-rule="evenodd" clip-rule="evenodd" d="M127.729 21.6838C132.299 21.6838 132.375 15.963 132.375 14.9047C132.375 9.61234 129.813 8.10026 127.729 8.10026C125.57 8.10026 123.084 9.66265 123.084 14.9047C123.084 20.1717 125.62 21.6838 127.729 21.6838ZM127.729 20.096C125.193 20.096 124.842 16.8199 124.842 14.9047C124.842 12.9639 125.193 9.68789 127.729 9.68805C130.265 9.68805 130.617 12.9639 130.617 14.9047C130.617 16.8199 130.266 20.096 127.729 20.096Z" fill="white"/>
<path d="M140.059 17.2988C140.385 18.9115 141.163 20.096 142.921 20.096C144.302 20.096 145.382 19.34 145.382 17.8784C145.382 16.3974 144.239 15.9363 143.06 15.461C142.956 15.4187 142.85 15.3762 142.745 15.3329C142.578 15.2621 142.411 15.1937 142.246 15.126C140.534 14.423 139.029 13.8054 139.029 11.5528C139.029 9.33506 140.812 8.10026 142.871 8.10026C145.056 8.10026 146.336 9.3603 146.863 11.4017L145.256 11.8804C144.955 10.5951 144.277 9.68805 142.846 9.68805C141.766 9.68805 140.712 10.2423 140.712 11.4269C140.712 12.6617 141.465 13.0146 142.469 13.4682L145.256 14.703C146.437 15.3582 147.064 16.4166 147.064 17.7775C147.064 20.2725 145.332 21.6838 142.921 21.6838C140.486 21.6838 138.954 20.1212 138.552 17.7775L140.059 17.2988Z" fill="white"/>
<path d="M88.2318 26.9287C88.2318 26.6079 88.3147 26.3743 88.4806 26.228C88.6466 26.076 88.854 26 89.1029 26C89.3399 26 89.5444 26.076 89.7162 26.228C89.8881 26.3799 89.974 26.6135 89.974 26.9287C89.974 27.2439 89.8881 27.4803 89.7162 27.6379C89.5444 27.7899 89.3399 27.8659 89.1029 27.8659C88.854 27.8659 88.6466 27.7899 88.4806 27.6379C88.3147 27.4803 88.2318 27.2439 88.2318 26.9287Z" fill="white"/>
<path d="M89.8318 38.6898H88.3562V29.4363H89.8318V38.6898Z" fill="white"/>
<path d="M129.904 38.6898H128.428V29.4363H129.904V38.6898Z" fill="white"/>
<path d="M128.553 26.228C128.387 26.3743 128.304 26.6079 128.304 26.9287C128.304 27.2439 128.387 27.4803 128.553 27.6379C128.719 27.7899 128.926 27.8659 129.175 27.8659C129.412 27.8659 129.617 27.7899 129.788 27.6379C129.96 27.4803 130.046 27.2439 130.046 26.9287C130.046 26.6135 129.96 26.3799 129.788 26.228C129.617 26.076 129.412 26 129.175 26C128.926 26 128.719 26.076 128.553 26.228Z" fill="white"/>
<path d="M136.935 37.6515C136.692 37.6853 136.44 37.7022 136.18 37.7022C135.694 37.7022 135.312 37.553 135.033 37.2547C134.754 36.9564 134.615 36.5286 134.615 35.9714V30.5257H137.442V29.4365H134.615V27.292H133.762L133.14 29.2677L131.744 29.8502V30.5257H133.14V36.0305C133.14 37.9161 134.082 38.8589 135.966 38.8589C136.215 38.8589 136.494 38.8335 136.802 38.7829C137.116 38.7379 137.353 38.6788 137.513 38.6056V37.5333C137.371 37.5727 137.178 37.6121 136.935 37.6515Z" fill="white"/>
<path d="M137.922 29.4365H139.504L141.638 34.7134C142.106 35.9179 142.396 36.7875 142.509 37.3223H142.58C142.657 37.0352 142.817 36.5455 143.06 35.8532C143.309 35.1552 144.115 33.0163 145.478 29.4365H147.06L142.873 39.9734C142.458 41.0147 141.972 41.752 141.415 42.1854C140.864 42.6245 140.186 42.844 139.38 42.844C138.929 42.844 138.485 42.7961 138.046 42.7004V41.5775C138.372 41.6451 138.737 41.6788 139.14 41.6788C140.153 41.6788 140.876 41.1385 141.309 40.0578L141.851 38.7407L137.922 29.4365Z" fill="white"/>
<path d="M125.006 38.158C125.682 37.6909 126.019 37.0267 126.019 36.1655C126.019 35.552 125.815 35.0426 125.406 34.6373C125.003 34.2321 124.224 33.8296 123.068 33.43C122.227 33.1316 121.658 32.9037 121.362 32.7461C121.065 32.5885 120.849 32.4224 120.713 32.248C120.582 32.0735 120.517 31.8624 120.517 31.6147C120.517 31.2489 120.695 30.9618 121.05 30.7535C121.406 30.5453 121.933 30.4412 122.633 30.4412C123.427 30.4412 124.313 30.6325 125.291 31.0153L125.815 29.8755C124.813 29.4702 123.788 29.2676 122.739 29.2676C121.613 29.2676 120.727 29.4871 120.081 29.9261C119.436 30.3595 119.113 30.9534 119.113 31.7076C119.113 32.1297 119.204 32.4928 119.388 32.7967C119.578 33.1007 119.862 33.3737 120.241 33.6157C120.627 33.8521 121.273 34.1307 122.179 34.4516C123.133 34.8005 123.773 35.1045 124.099 35.3634C124.431 35.6167 124.597 35.9235 124.597 36.2837C124.597 36.7621 124.39 37.1196 123.975 37.356C123.56 37.5867 122.967 37.7021 122.197 37.7021C121.699 37.7021 121.181 37.6374 120.642 37.5079C120.108 37.3785 119.607 37.2012 119.139 36.976V38.2762C119.862 38.6646 120.87 38.8588 122.162 38.8588C123.382 38.8588 124.33 38.6252 125.006 38.158Z" fill="white"/>
<path d="M117.913 29.3689C117.569 29.3013 117.181 29.2676 116.748 29.2676C116.138 29.2676 115.578 29.4308 115.068 29.7573C114.558 30.0837 114.123 30.5481 113.761 31.1504H113.69L113.521 29.4364H112.303V38.6899H113.779V33.7255C113.779 32.8193 114.058 32.0622 114.615 31.4543C115.178 30.8464 115.853 30.5425 116.641 30.5425C116.95 30.5425 117.305 30.5847 117.708 30.6691L117.913 29.3689Z" fill="white"/>
<path fill-rule="evenodd" clip-rule="evenodd" d="M102.783 37.6092C103.619 38.4423 104.757 38.8588 106.197 38.8588C106.854 38.8588 107.415 38.811 107.877 38.7153C108.345 38.6252 108.84 38.4732 109.361 38.2594V37.0098C108.336 37.4263 107.299 37.6346 106.25 37.6346C105.254 37.6346 104.481 37.3531 103.93 36.7903C103.385 36.2274 103.097 35.4028 103.068 34.3165H109.779V33.43C109.779 32.1804 109.423 31.1757 108.712 30.4158C108.001 29.6503 107.035 29.2676 105.814 29.2676C104.511 29.2676 103.471 29.7066 102.694 30.5847C101.924 31.4628 101.539 32.6476 101.539 34.1392C101.539 35.6195 101.954 36.7762 102.783 37.6092ZM103.921 31.1672C104.389 30.6832 105.014 30.4412 105.797 30.4412C106.567 30.4412 107.16 30.6776 107.575 31.1504C107.989 31.6175 108.197 32.293 108.197 33.1767H103.103C103.186 32.3211 103.459 31.6513 103.921 31.1672Z" fill="white"/>
<path d="M91.3963 29.4365L95.0942 38.69H96.8187L100.517 29.4365H98.9343C97.7254 32.5886 96.9461 34.6346 96.5964 35.5746C96.2527 36.5089 96.0483 37.1253 95.9831 37.4236H95.912C95.829 37.0408 95.5505 36.2078 95.0764 34.9245L92.9786 29.4365H91.3963Z" fill="white"/>
<path d="M83.8405 38.6899V32.7039C83.8405 31.9496 83.6598 31.3868 83.2983 31.0153C82.9368 30.6438 82.3709 30.458 81.6005 30.458C80.5812 30.458 79.8345 30.7198 79.3604 31.2432C78.8863 31.7667 78.6493 32.6307 78.6493 33.8352V38.6899H77.1737V29.4364H78.3737L78.6137 30.7029H78.6849C78.9871 30.247 79.4108 29.8952 79.956 29.6475C80.5012 29.3942 81.1086 29.2676 81.7783 29.2676C82.9516 29.2676 83.8346 29.5378 84.4272 30.0781C85.0198 30.6128 85.3161 31.4712 85.3161 32.6532V38.6899H83.8405Z" fill="white"/>
<path d="M73.9469 26.3462V34.3333C73.9469 35.7404 73.4995 36.8464 72.6047 37.6513C71.7098 38.4562 70.4802 38.8587 68.9157 38.8587C67.3512 38.8587 66.1393 38.4534 65.28 37.6429C64.4267 36.8324 64 35.7179 64 34.2995V26.3462H65.5112V34.4008C65.5112 35.4308 65.8075 36.2217 66.4001 36.7733C66.9927 37.3249 67.8638 37.6007 69.0135 37.6007C70.1098 37.6007 70.9543 37.3249 71.5469 36.7733C72.1395 36.216 72.4358 35.4196 72.4358 34.3839V26.3462H73.9469Z" fill="white"/>
</g>
<defs>
<clipPath id="clip0_19973_65254">
<rect width="148" height="48" fill="white"/>
</clipPath>
</defs>
</svg>
