<svg width="206" height="48" viewBox="0 0 206 48" fill="none" xmlns="http://www.w3.org/2000/svg">
<g clip-path="url(#clip0_13177_215061)">
<path fill-rule="evenodd" clip-rule="evenodd" d="M66.813 24.4092H66.1854V18.8142H64.5029V31.9441H66.1854V25.7948H66.763L72.0608 32.2718L73.3414 31.1881L68.2441 25.0139L72.5882 19.4949L71.3074 18.4871L66.813 24.4092ZM81.4521 18.8139H79.7699V31.9438H88.307V30.4317H81.4521V18.8139ZM94.5096 18.8139H102.67V20.3261H96.1917V24.2573H101.54V25.7693H96.1917V30.4315H102.67V31.9436H94.5096V18.8139ZM113.819 18.8139H109.375V31.9438H111.057V26.3238H113.493L116.832 32.2715L118.289 31.3896L115.075 26.0718C116.657 25.5931 117.736 24.0053 117.736 22.3926C117.736 19.8471 116.004 18.8139 113.819 18.8139ZM115.978 22.3924C115.978 23.8793 114.899 24.8117 113.267 24.8117H111.057V20.3261H113.769C115.276 20.3261 115.978 21.2081 115.978 22.3924ZM132.878 25.3918C132.878 26.4501 132.802 32.1708 128.232 32.1708C126.123 32.1708 123.587 30.6587 123.587 25.3918C123.587 20.1497 126.073 18.5873 128.232 18.5873C130.316 18.5873 132.878 20.0994 132.878 25.3918ZM125.345 25.3918C125.345 27.307 125.696 30.583 128.232 30.583C130.769 30.583 131.12 27.307 131.12 25.3918C131.12 23.451 130.768 20.1751 128.232 20.1751C125.696 20.175 125.345 23.451 125.345 25.3918ZM143.424 30.583C141.666 30.583 140.888 29.3985 140.562 27.7858L139.055 28.2645C139.457 30.6083 140.989 32.1708 143.424 32.1708C145.835 32.1708 147.567 30.7595 147.567 28.2645C147.567 26.9037 146.94 25.8452 145.759 25.19L142.972 23.9552C141.968 23.5016 141.215 23.1488 141.215 21.914C141.215 20.7293 142.269 20.1751 143.349 20.1751C144.78 20.1751 145.458 21.0822 145.759 22.3674L147.366 21.8888C146.839 19.8474 145.559 18.5873 143.374 18.5873C141.315 18.5873 139.532 19.8221 139.532 22.0399C139.532 24.2925 141.036 24.9099 142.749 25.6129C142.914 25.6806 143.081 25.7491 143.248 25.82C143.353 25.8633 143.458 25.9058 143.563 25.9481C144.742 26.4234 145.885 26.8844 145.885 28.3655C145.885 29.8271 144.805 30.583 143.424 30.583Z" fill="white"/>
<path fill-rule="evenodd" clip-rule="evenodd" d="M15.6356 1L42.4109 2.19704L53.2512 26.288L37.9576 48.3055L11.0367 46.5812L0 20.4788L15.6356 1ZM35.2655 14.8866L15.8604 23.3666L32.4506 36.1964L35.2655 14.8866ZM33.0188 10.6374L17.511 3.95872L14.2534 18.0009L33.0188 10.6374ZM29.0882 39.4245L12.2342 27.3872L12.6418 43.6985L29.0882 39.4245ZM50.5592 26.2349L39.0741 14.5781L36.0427 36.9936L50.5592 26.2349ZM33.0397 42.0464L18.8256 45.7623L35.5413 46.8329L33.0397 42.0464ZM48.3148 31.5236L35.8723 40.7944L38.3447 45.6271L48.3148 31.5236ZM42.4294 5.56301L40.0127 10.5252L49.008 19.6709L42.4294 5.56301ZM39.4184 3.18844L23.6224 2.54712L36.6522 8.24748L39.4184 3.18844ZM13.3289 5.48314L2.26489 19.4568L9.66208 21.024L13.3289 5.48314ZM9.21605 23.7651L1.78321 22.1911L9.5388 40.466L9.21605 23.7651Z" fill="white"/>
</g>
<path d="M170.461 19.6016C169.206 19.6016 168.214 20.0208 167.484 20.8594C166.76 21.6927 166.398 22.8359 166.398 24.2891C166.398 25.7839 166.747 26.9401 167.445 27.7578C168.148 28.5703 169.148 28.9766 170.445 28.9766C171.242 28.9766 172.151 28.8333 173.172 28.5469V29.7109C172.38 30.0078 171.404 30.1562 170.242 30.1562C168.56 30.1562 167.26 29.6458 166.344 28.625C165.432 27.6042 164.977 26.1536 164.977 24.2734C164.977 23.0964 165.195 22.0651 165.633 21.1797C166.076 20.2943 166.711 19.612 167.539 19.1328C168.372 18.6536 169.352 18.4141 170.477 18.4141C171.674 18.4141 172.721 18.6328 173.617 19.0703L173.055 20.2109C172.19 19.8047 171.326 19.6016 170.461 19.6016ZM182.859 25.7109C182.859 27.1068 182.508 28.1979 181.805 28.9844C181.102 29.7656 180.13 30.1562 178.891 30.1562C178.125 30.1562 177.445 29.9766 176.852 29.6172C176.258 29.2578 175.799 28.7422 175.477 28.0703C175.154 27.3984 174.992 26.612 174.992 25.7109C174.992 24.3151 175.341 23.2292 176.039 22.4531C176.737 21.6719 177.706 21.2812 178.945 21.2812C180.143 21.2812 181.094 21.6797 181.797 22.4766C182.505 23.2734 182.859 24.3516 182.859 25.7109ZM176.336 25.7109C176.336 26.8047 176.555 27.638 176.992 28.2109C177.43 28.7839 178.073 29.0703 178.922 29.0703C179.771 29.0703 180.414 28.7865 180.852 28.2188C181.294 27.6458 181.516 26.8099 181.516 25.7109C181.516 24.6224 181.294 23.7969 180.852 23.2344C180.414 22.6667 179.766 22.3828 178.906 22.3828C178.057 22.3828 177.417 22.6615 176.984 23.2188C176.552 23.776 176.336 24.6068 176.336 25.7109ZM186.359 21.4375V26.9922C186.359 27.6901 186.518 28.2109 186.836 28.5547C187.154 28.8984 187.651 29.0703 188.328 29.0703C189.224 29.0703 189.878 28.8255 190.289 28.3359C190.706 27.8464 190.914 27.0469 190.914 25.9375V21.4375H192.211V30H191.141L190.953 28.8516H190.883C190.617 29.2734 190.247 29.5964 189.773 29.8203C189.305 30.0443 188.768 30.1562 188.164 30.1562C187.122 30.1562 186.341 29.9089 185.82 29.4141C185.305 28.9193 185.047 28.1276 185.047 27.0391V21.4375H186.359ZM198.875 21.2812C199.255 21.2812 199.596 21.3125 199.898 21.375L199.719 22.5781C199.365 22.5 199.052 22.4609 198.781 22.4609C198.089 22.4609 197.495 22.7422 197 23.3047C196.51 23.8672 196.266 24.5677 196.266 25.4062V30H194.969V21.4375H196.039L196.188 23.0234H196.25C196.568 22.4661 196.951 22.0365 197.398 21.7344C197.846 21.4323 198.339 21.2812 198.875 21.2812ZM204.266 29.0859C204.495 29.0859 204.716 29.0703 204.93 29.0391C205.143 29.0026 205.312 28.9661 205.438 28.9297V29.9219C205.297 29.9896 205.089 30.0443 204.812 30.0859C204.542 30.1328 204.297 30.1562 204.078 30.1562C202.422 30.1562 201.594 29.2839 201.594 27.5391V22.4453H200.367V21.8203L201.594 21.2812L202.141 19.4531H202.891V21.4375H205.375V22.4453H202.891V27.4844C202.891 28 203.013 28.3958 203.258 28.6719C203.503 28.9479 203.839 29.0859 204.266 29.0859Z" fill="white"/>
<defs>
<clipPath id="clip0_13177_215061">
<rect width="148" height="48" fill="white"/>
</clipPath>
</defs>
</svg>
