<svg xmlns="http://www.w3.org/2000/svg" width="14" height="14" viewBox="0 0 14 14" fill="none">
  <g clip-path="url(#clip0_18852_64721)">
    <path fill-rule="evenodd" clip-rule="evenodd" d="M1.09609 7.38938C0.942854 7.19321 0.868788 6.92478 0.873896 6.58407H0.000425668C-0.00468235 6.87316 0.0361818 7.12869 0.123018 7.35066C0.214962 7.57264 0.342663 7.76106 0.506119 7.91593C0.669575 8.06563 0.866234 8.18178 1.09609 8.26438C1.32596 8.34698 1.5788 8.39086 1.85463 8.39602V9H2.1841V8.39602C2.4395 8.38569 2.67702 8.34181 2.89667 8.26438C3.11631 8.19211 3.30786 8.08628 3.47132 7.9469C3.63478 7.80236 3.76248 7.62426 3.85442 7.41261C3.95147 7.1958 4 6.94285 4 6.65376C4 6.375 3.94892 6.14012 3.84676 5.94911C3.7446 5.75811 3.60924 5.59808 3.44067 5.46903C3.27211 5.33997 3.078 5.23414 2.85836 5.15155C2.63871 5.06895 2.41396 4.99668 2.1841 4.93473V3.30088C2.45993 3.30088 2.65915 3.37058 2.78174 3.50996C2.90944 3.64934 2.9784 3.85066 2.98861 4.11394H3.86208C3.86208 3.86099 3.81611 3.63901 3.72417 3.44801C3.63733 3.25701 3.51729 3.09956 3.36405 2.97566C3.21592 2.85177 3.03969 2.75885 2.83537 2.6969C2.63105 2.63496 2.41396 2.60398 2.1841 2.60398V2H1.85463V2.60398C1.62477 2.60398 1.40513 2.63754 1.1957 2.70465C0.986272 2.77175 0.79983 2.86984 0.636373 2.99889C0.478025 3.12279 0.350325 3.28024 0.253272 3.47124C0.161328 3.65708 0.115356 3.87389 0.115356 4.12168C0.115356 4.4056 0.166436 4.64307 0.268596 4.83407C0.370757 5.02507 0.503565 5.1851 0.667021 5.31416C0.835586 5.43805 1.02203 5.5413 1.22635 5.62389C1.43578 5.70133 1.64521 5.76844 1.85463 5.82522V7.69911C1.50218 7.68879 1.24933 7.58555 1.09609 7.38938ZM1.21102 3.47898C1.36427 3.36025 1.5788 3.30088 1.85463 3.30088V4.84956C1.74737 4.82375 1.6401 4.79277 1.53283 4.75664C1.43067 4.71534 1.33873 4.66372 1.257 4.60177C1.18038 4.53982 1.11653 4.46497 1.06545 4.37721C1.01437 4.28945 0.988826 4.18363 0.988826 4.05973C0.988826 3.78614 1.06289 3.59255 1.21102 3.47898ZM2.85836 7.45907C2.68469 7.59845 2.45993 7.67847 2.1841 7.69911V5.89491C2.30159 5.92588 2.41652 5.96202 2.52889 6.00332C2.64127 6.04462 2.74087 6.09882 2.82771 6.16593C2.91965 6.23304 2.99117 6.31563 3.04225 6.41372C3.09844 6.5118 3.12653 6.63311 3.12653 6.77765C3.12653 7.08739 3.03714 7.31453 2.85836 7.45907Z" fill="#DDB6FF"/>
    <path fill-rule="evenodd" clip-rule="evenodd" d="M13.5 6.88875C13.7977 7.06187 14 7.38078 14 7.75C14 8.11922 13.7977 8.43813 13.4998 8.61141V11C13.4998 11.1441 13.3892 11.5 12.9998 11.5C12.8864 11.4999 12.7763 11.4612 12.6877 11.3903L11.3591 10.3273C10.6919 9.79391 9.85406 9.5 9 9.5H8.56125C8.51766 9.65953 8.49234 9.82641 8.49234 10C8.49234 10.4544 8.64469 10.8737 8.90094 11.21C9.14766 11.5337 8.90328 12 8.49625 12H7.33562C7.15 12 6.97297 11.9005 6.89188 11.7334C6.63719 11.2086 6.4925 10.6214 6.4925 10C6.4925 9.83031 6.50484 9.66375 6.52656 9.5H6C5.44766 9.5 5 9.05234 5 8.5V7C5 6.44766 5.44766 6 6 6H9C9.85406 6 10.6919 5.70609 11.3592 5.17266L12.6878 4.10969C12.7783 4.03719 12.8888 4 13 4C13.3909 4 13.5 4.36344 13.5 4.50016V6.88875ZM11.9836 9.54656L12.5 9.95969V5.54031L11.9836 5.95344C11.1398 6.62844 10.08 7 9 7V8.5C10.08 8.5 11.1398 8.87156 11.9836 9.54656Z" fill="#DDB6FF"/>
  </g>
  <defs>
    <clipPath id="clip0_18852_64721">
      <rect width="14" height="14" fill="white"/>
    </clipPath>
  </defs>
</svg>