<svg xmlns="http://www.w3.org/2000/svg"  viewBox="0 0 14 14" fill="none">
  <path fill-rule="evenodd" clip-rule="evenodd" d="M2.79522 1.75H3.32938C3.37686 1.75 3.4006 1.77269 3.4006 1.81806V4.4892H6.05378C6.10126 4.4892 6.125 4.51189 6.125 4.55726V5.06768C6.125 5.11305 6.10126 5.13573 6.05378 5.13573H3.4006V7.80695C3.4006 7.85232 3.37686 7.875 3.32938 7.875H2.79522C2.74774 7.875 2.724 7.85232 2.724 7.80695V5.13573H0.0712209C0.0237403 5.13573 0 5.11305 0 5.06768V4.55726C0 4.51189 0.0237403 4.4892 0.0712209 4.4892H2.724V1.81806C2.724 1.77269 2.74774 1.75 2.79522 1.75ZM12.25 7.3418V6.86328C12.25 6.75049 12.1516 6.6582 12.0312 6.6582H8.96875C8.84844 6.6582 8.75 6.75049 8.75 6.86328V7.3418C8.75 7.45459 8.84844 7.54688 8.96875 7.54688H12.0312C12.1516 7.54688 12.25 7.45459 12.25 7.3418ZM8.96875 8.09375H12.0312C12.1516 8.09375 12.25 8.18604 12.25 8.29883V8.77734C12.25 8.89014 12.1516 8.98242 12.0312 8.98242H8.96875C8.84844 8.98242 8.75 8.89014 8.75 8.77734V8.29883C8.75 8.18604 8.84844 8.09375 8.96875 8.09375ZM14 10.5547V4.87915C14 4.66211 13.907 4.4519 13.743 4.2998L12.2135 2.86597C12.0495 2.71216 11.8271 2.625 11.5956 2.625H7.875C7.39193 2.625 7 2.99243 7 3.44531V10.5547C7 11.0076 7.39193 11.375 7.875 11.375H13.125C13.6081 11.375 14 11.0076 14 10.5547ZM11.6667 4.8125V3.51196L13.0539 4.8125H11.6667ZM13.125 5.63281V10.5547H7.875V3.44531H10.7917V5.22266C10.7917 5.44995 10.9867 5.63281 11.2292 5.63281H13.125Z" fill="#6CC5FF"/>
</svg>