<svg xmlns="http://www.w3.org/2000/svg" width="14" height="14" viewBox="0 0 14 14" fill="none">
  <path d="M9.60918 2.73048L7.43279 5.25L9.60918 7.76952C9.64566 7.81139 9.61498 7.875 9.55861 7.875H8.89698C8.85719 7.875 8.81988 7.85809 8.795 7.8291L7 5.75084L5.205 7.8291C5.17929 7.85809 5.14198 7.875 5.10302 7.875H4.44139C4.42878 7.87507 4.41641 7.87162 4.40575 7.86506C4.3951 7.8585 4.3866 7.84911 4.38128 7.83801C4.37595 7.8269 4.37402 7.81454 4.37571 7.8024C4.37741 7.79026 4.38265 7.77885 4.39082 7.76952L6.56721 5.25L4.39082 2.73048C4.35434 2.68861 4.38502 2.625 4.44139 2.625H5.10302C5.14281 2.625 5.18012 2.64191 5.205 2.6709L7 4.74916L8.795 2.6709C8.82071 2.64191 8.85802 2.625 8.89698 2.625H9.55861C9.61498 2.625 9.64566 2.68861 9.60918 2.73048Z" fill="#B45FFF"/>
  <path fill-rule="evenodd" clip-rule="evenodd" d="M11.6667 2.80512L11.6 2.36352C11.4706 1.50772 10.7351 0.875 9.8696 0.875H4.13044C3.26492 0.875 2.52941 1.50772 2.40008 2.36352L2.33335 2.80512V10.1397H11.6667V2.80512ZM2.77085 2.83799V9.70218H11.2292V2.83799L11.1674 2.42889C11.0704 1.78704 10.5187 1.3125 9.8696 1.3125H4.13044C3.4813 1.3125 2.92966 1.78704 2.83267 2.42889L2.77085 2.83799Z" fill="#B45FFF"/>
  <path d="M1.16667 7.82373C0.522569 7.82373 0 8.34246 0 8.98182V11.298C0 11.9374 0.522569 12.4561 1.16667 12.4561H12.8333C13.4774 12.4561 14 11.9374 14 11.298V8.98182C14 8.34246 13.4774 7.82373 12.8333 7.82373H12.4444V10.912H1.55556V7.82373H1.16667Z" fill="#B45FFF"/>
</svg>