<svg xmlns="http://www.w3.org/2000/svg" width="14" height="14" viewBox="0 0 14 14" fill="none">
  <path d="M3.32938 1.75H2.79522C2.74774 1.75 2.724 1.77269 2.724 1.81806V4.4892H0.0712209C0.0237403 4.4892 0 4.51189 0 4.55726V5.06768C0 5.11305 0.0237403 5.13573 0.0712209 5.13573H2.724V7.80694C2.724 7.85231 2.74774 7.875 2.79522 7.875H3.32938C3.37686 7.875 3.4006 7.85231 3.4006 7.80694V5.13573H6.05378C6.10126 5.13573 6.125 5.11305 6.125 5.06768V4.55726C6.125 4.51189 6.10126 4.4892 6.05378 4.4892H3.4006V1.81806C3.4006 1.77269 3.37686 1.75 3.32938 1.75Z" fill="#DDB6FF"/>
  <path fill-rule="evenodd" clip-rule="evenodd" d="M13.5 6.88875C13.7977 7.06187 14 7.38078 14 7.75C14 8.11922 13.7977 8.43813 13.4998 8.61141V11C13.4998 11.1441 13.3892 11.5 12.9998 11.5C12.8864 11.4999 12.7763 11.4612 12.6877 11.3903L11.3591 10.3273C10.6919 9.79391 9.85406 9.5 9 9.5H8.56125C8.51766 9.65953 8.49234 9.82641 8.49234 10C8.49234 10.4544 8.64469 10.8737 8.90094 11.21C9.14766 11.5337 8.90328 12 8.49625 12H7.33562C7.15 12 6.97297 11.9005 6.89188 11.7334C6.63719 11.2086 6.4925 10.6214 6.4925 10C6.4925 9.83031 6.50484 9.66375 6.52656 9.5H6C5.44766 9.5 5 9.05234 5 8.5V7C5 6.44766 5.44766 6 6 6H9C9.85406 6 10.6919 5.70609 11.3592 5.17266L12.6878 4.10969C12.7783 4.03719 12.8888 4 13 4C13.3909 4 13.5 4.36344 13.5 4.50016V6.88875ZM11.9836 9.54656L12.5 9.95969V5.54031L11.9836 5.95344C11.1398 6.62844 10.08 7 9 7V8.5C10.08 8.5 11.1398 8.87156 11.9836 9.54656Z" fill="#DDB6FF"/>
</svg>