<svg xmlns="http://www.w3.org/2000/svg" width="14" height="14" viewBox="0 0 14 14" fill="none">
  <path fill-rule="evenodd" clip-rule="evenodd" d="M5.25 10.2812V9.55151C5.95581 10.0488 7.24609 10.2812 8.53125 10.2812C9.81641 10.2812 11.1067 10.0488 11.8125 9.55151V10.2812C11.8125 10.8845 10.3428 11.375 8.53125 11.375C6.71973 11.375 5.25 10.8845 5.25 10.2812ZM14 3.71875C14 4.32202 12.5303 4.8125 10.7188 4.8125C8.90723 4.8125 7.4375 4.32202 7.4375 3.71875C7.4375 3.11548 8.90723 2.625 10.7188 2.625C12.5303 2.625 14 3.11548 14 3.71875ZM5.25 8.64062V7.75879C5.95581 8.33984 7.2478 8.64062 8.53125 8.64062C9.8147 8.64062 11.1067 8.33984 11.8125 7.75879V8.64062C11.8125 9.2439 10.3428 9.73438 8.53125 9.73438C6.71973 9.73438 5.25 9.2439 5.25 8.64062ZM14 7C14 7.40503 13.3386 7.75708 12.3594 7.94678V6.85986C13.0208 6.74194 13.6035 6.55054 14 6.27026V7ZM5.25 6.72656C5.25 5.97119 6.71973 5.35938 8.53125 5.35938C10.3428 5.35938 11.8125 5.97119 11.8125 6.72656C11.8125 7.48193 10.3428 8.09375 8.53125 8.09375C6.71973 8.09375 5.25 7.48193 5.25 6.72656ZM14 5.35938C14 5.77466 13.3044 6.13696 12.2791 6.32153C12.1287 5.9165 11.7578 5.58838 11.2537 5.34399C12.3508 5.28931 13.3933 5.05859 14 4.62964V5.35938ZM0.0665761 3.5H6.05842C6.09504 3.5 6.125 3.54145 6.125 3.59211V4.28289C6.125 4.33355 6.09504 4.375 6.05842 4.375H0.0665761C0.0299592 4.375 0 4.33355 0 4.28289V3.59211C0 3.54145 0.0299592 3.5 0.0665761 3.5Z" fill="#FF5A78"/>
</svg>