<svg xmlns="http://www.w3.org/2000/svg" width="14" height="14" viewBox="0 0 14 14" fill="none">
  <path fill-rule="evenodd" clip-rule="evenodd" d="M2.79522 1.75H3.32938C3.37686 1.75 3.4006 1.77269 3.4006 1.81806V4.4892H6.05378C6.10126 4.4892 6.125 4.51189 6.125 4.55726V5.06768C6.125 5.11305 6.10126 5.13573 6.05378 5.13573H3.4006V7.80694C3.4006 7.85231 3.37686 7.875 3.32938 7.875H2.79522C2.74774 7.875 2.724 7.85231 2.724 7.80694V5.13573H0.0712209C0.0237403 5.13573 0 5.11305 0 5.06768V4.55726C0 4.51189 0.0237403 4.4892 0.0712209 4.4892H2.724V1.81806C2.724 1.77269 2.74774 1.75 2.79522 1.75ZM5.25 11.1562V10.4265C5.95581 10.9238 7.24609 11.1562 8.53125 11.1562C9.81641 11.1562 11.1067 10.9238 11.8125 10.4265V11.1562C11.8125 11.7595 10.3428 12.25 8.53125 12.25C6.71973 12.25 5.25 11.7595 5.25 11.1562ZM14 4.59375C14 5.19702 12.5303 5.6875 10.7188 5.6875C8.90723 5.6875 7.4375 5.19702 7.4375 4.59375C7.4375 3.99048 8.90723 3.5 10.7188 3.5C12.5303 3.5 14 3.99048 14 4.59375ZM5.25 9.51562V8.63379C5.95581 9.21484 7.2478 9.51562 8.53125 9.51562C9.8147 9.51562 11.1067 9.21484 11.8125 8.63379V9.51562C11.8125 10.1189 10.3428 10.6094 8.53125 10.6094C6.71973 10.6094 5.25 10.1189 5.25 9.51562ZM14 7.875C14 8.28003 13.3386 8.63208 12.3594 8.82178V7.73486C13.0208 7.61694 13.6035 7.42554 14 7.14526V7.875ZM5.25 7.60156C5.25 6.84619 6.71973 6.23438 8.53125 6.23438C10.3428 6.23438 11.8125 6.84619 11.8125 7.60156C11.8125 8.35693 10.3428 8.96875 8.53125 8.96875C6.71973 8.96875 5.25 8.35693 5.25 7.60156ZM14 6.23438C14 6.64966 13.3044 7.01196 12.2791 7.19653C12.1287 6.7915 11.7578 6.46338 11.2537 6.21899C12.3508 6.16431 13.3933 5.93359 14 5.50464V6.23438Z" fill="#65DC7F"/>
</svg>