<svg xmlns="http://www.w3.org/2000/svg" width="14" height="14" viewBox="0 0 14 14" fill="none">
  <path fill-rule="evenodd" clip-rule="evenodd" d="M10.0625 9.625L3.9375 9.625C3.69587 9.625 3.5 9.44137 3.5 9.21484V8.94141C3.5 8.71488 3.69587 8.53125 3.9375 8.53125C3.9375 6.97667 4.86748 5.6647 6.14035 5.25C4.86748 4.8353 3.9375 3.52333 3.9375 1.96875C3.69587 1.96875 3.5 1.78512 3.5 1.55859V1.28516C3.5 1.05863 3.69587 0.875 3.9375 0.875H10.0625C10.3041 0.875 10.5 1.05863 10.5 1.28516V1.55859C10.5 1.78512 10.3041 1.96875 10.0625 1.96875C10.0625 3.52333 9.13252 4.8353 7.85965 5.25C9.13252 5.6647 10.0625 6.97667 10.0625 8.53125C10.3041 8.53125 10.5 8.71488 10.5 8.94141V9.21484C10.5 9.44137 10.3041 9.625 10.0625 9.625ZM8.89583 1.96875L5.10417 1.96875C5.10417 3.29292 5.94661 4.42969 7 4.42969C8.05357 4.42969 8.89583 3.2925 8.89583 1.96875Z" fill="#6CC5FF"/>
  <path d="M1.16667 7.82373C0.522569 7.82373 0 8.34246 0 8.98182V11.298C0 11.9374 0.522569 12.4561 1.16667 12.4561H12.8333C13.4774 12.4561 14 11.9374 14 11.298V8.98182C14 8.34246 13.4774 7.82373 12.8333 7.82373H12.4444V10.912H1.55556V7.82373H1.16667Z" fill="#6CC5FF"/>
</svg>