<svg xmlns="http://www.w3.org/2000/svg" width="14" height="14" viewBox="0 0 14 14" fill="none">
  <path d="M9.83163 2.625H10.4312C10.4887 2.625 10.5204 2.69105 10.4853 2.7348L6.29574 8.04378C6.18508 8.18275 5.97406 8.18275 5.86426 8.04378L3.51472 5.06718C3.47955 5.02258 3.51129 4.95652 3.56876 4.95652H4.16837C4.20983 4.95658 4.25075 4.96602 4.28804 4.98414C4.32533 5.00227 4.35803 5.02861 4.38368 5.06118L6.07957 7.20999L9.61632 2.72965C9.66779 2.6636 9.74756 2.625 9.83163 2.625Z" fill="#B45FFF"/>
  <path fill-rule="evenodd" clip-rule="evenodd" d="M11.6 2.36352L11.6667 2.80512V10.1397H2.33335V2.80512L2.40008 2.36352C2.52941 1.50772 3.26492 0.875 4.13044 0.875H9.8696C10.7351 0.875 11.4706 1.50772 11.6 2.36352ZM2.77085 9.70218V2.83799L2.83267 2.42889C2.92966 1.78704 3.4813 1.3125 4.13044 1.3125H9.8696C10.5187 1.3125 11.0704 1.78704 11.1674 2.42889L11.2292 2.83799V9.70218H2.77085Z" fill="#B45FFF"/>
  <path d="M0 8.98182C0 8.34246 0.522569 7.82373 1.16667 7.82373H1.55556V10.912H12.4444V7.82373H12.8333C13.4774 7.82373 14 8.34246 14 8.98182V11.298C14 11.9374 13.4774 12.4561 12.8333 12.4561H1.16667C0.522569 12.4561 0 11.9374 0 11.298V8.98182Z" fill="#B45FFF"/>
</svg>