<svg width="17" height="16" viewBox="0 0 17 16" fill="none" xmlns="http://www.w3.org/2000/svg">
<g clip-path="url(#clip0_11763_165988)">
<path d="M14.1617 3.01131C14.1573 3.00284 14.1499 2.99621 14.1409 2.9926C13.1035 2.52514 12.0088 2.19181 10.8841 2.00094C10.8739 1.99907 10.8634 2.00042 10.854 2.00479C10.8446 2.00915 10.8368 2.01632 10.8318 2.02526C10.6827 2.29098 10.5474 2.56393 10.4264 2.84305C9.21403 2.6623 7.98085 2.6623 6.76851 2.84305C6.64665 2.56322 6.50916 2.29021 6.35667 2.02526C6.35144 2.01651 6.34365 2.00951 6.33431 2.00517C6.32497 2.00084 6.31452 1.99936 6.30432 2.00094C5.17952 2.19141 4.08472 2.52477 3.04749 2.99263C3.03861 2.99632 3.03112 3.00264 3.02605 3.01069C0.951781 6.05302 0.383561 9.02055 0.66231 11.9513C0.663094 11.9585 0.665341 11.9655 0.668917 11.9718C0.672494 11.9781 0.677326 11.9836 0.683127 11.9881C1.89095 12.8664 3.24192 13.5368 4.67838 13.9708C4.68849 13.9738 4.6993 13.9736 4.70933 13.9704C4.71937 13.9672 4.72816 13.961 4.73452 13.9527C5.04304 13.5404 5.31641 13.1038 5.55185 12.6474C5.55509 12.6411 5.55693 12.6343 5.55727 12.6273C5.55761 12.6202 5.55643 12.6132 5.55381 12.6067C5.55119 12.6002 5.54719 12.5943 5.54207 12.5893C5.53696 12.5844 5.53084 12.5807 5.52412 12.5782C5.09304 12.4162 4.67569 12.221 4.27601 11.9942C4.26875 11.99 4.26265 11.9841 4.25826 11.9771C4.25386 11.97 4.2513 11.962 4.2508 11.9538C4.2503 11.9455 4.25188 11.9373 4.2554 11.9297C4.25892 11.9222 4.26427 11.9157 4.27098 11.9107C4.35484 11.849 4.43876 11.7848 4.51884 11.7199C4.52596 11.7142 4.53456 11.7105 4.5437 11.7093C4.55283 11.7081 4.56213 11.7094 4.57054 11.7131C7.18903 12.8868 10.0239 12.8868 12.6114 11.7131C12.6198 11.7092 12.6292 11.7077 12.6385 11.7088C12.6477 11.7099 12.6565 11.7135 12.6637 11.7193C12.7438 11.7842 12.8277 11.849 12.9122 11.9107C12.919 11.9156 12.9244 11.9221 12.9279 11.9296C12.9315 11.9371 12.9332 11.9453 12.9327 11.9536C12.9323 11.9619 12.9298 11.9699 12.9254 11.977C12.9211 11.9841 12.915 11.99 12.9078 11.9942C12.509 12.2229 12.0913 12.418 11.6591 12.5776C11.6524 12.5801 11.6463 12.584 11.6412 12.589C11.6361 12.594 11.6322 12.5999 11.6296 12.6065C11.627 12.6131 11.6259 12.6202 11.6263 12.6272C11.6267 12.6343 11.6286 12.6411 11.6319 12.6474C11.8713 13.1013 12.1443 13.5373 12.4486 13.952C12.4548 13.9605 12.4635 13.9669 12.4736 13.9702C12.4837 13.9736 12.4946 13.9738 12.5047 13.9707C13.9438 13.5382 15.2971 12.8677 16.5064 11.9881C16.5123 11.9839 16.5172 11.9784 16.5208 11.9722C16.5244 11.966 16.5266 11.9591 16.5273 11.9519C16.861 8.56365 15.9686 5.62045 14.1617 3.01131ZM5.9429 10.1668C5.15454 10.1668 4.50496 9.45624 4.50496 8.58362C4.50496 7.71099 5.14195 7.0004 5.9429 7.0004C6.75011 7.0004 7.39341 7.71716 7.38081 8.58356C7.38081 9.45624 6.7438 10.1668 5.9429 10.1668ZM11.2594 10.1668C10.4711 10.1668 9.82147 9.45624 9.82147 8.58362C9.82147 7.71099 10.4585 7.0004 11.2594 7.0004C12.0666 7.0004 12.7099 7.71716 12.6973 8.58356C12.6973 9.45624 12.0666 10.1668 11.2594 10.1668Z"/>
</g>
<defs>
<clipPath id="clip0_11763_165988">
<rect width="16" height="16" transform="translate(0.596191 0.00012207)"/>
</clipPath>
</defs>
</svg>
