<svg viewBox="0 0 17 16" fill="none" xmlns="http://www.w3.org/2000/svg">
<g clip-path="url(#clip0_7752_1887)">
<path fill-rule="evenodd" clip-rule="evenodd" d="M0.596313 1.50012C0.596313 0.671696 1.26789 0.00012207 2.09631 0.00012207H8.50809C9.33652 0.00012207 10.0081 0.671695 10.0081 1.50012V1.79424C10.0081 2.62267 9.33652 3.29424 8.50809 3.29424H2.09631C1.26789 3.29424 0.596313 2.62267 0.596313 1.79424V1.50012ZM13.302 1.50099C13.302 0.672564 13.9735 0.000990136 14.802 0.000990136H15.0961C15.9245 0.000990136 16.5961 0.672563 16.5961 1.50099V1.79511C16.5961 2.62354 15.9245 3.29511 15.0961 3.29511H14.802C13.9735 3.29511 13.302 2.62354 13.302 1.79511V1.50099ZM11.508 12.706C10.6795 12.706 10.008 13.3776 10.008 14.206V14.5001C10.008 15.3285 10.6796 16.0001 11.508 16.0001H15.0962C15.9246 16.0001 16.5962 15.3285 16.5962 14.5001V14.206C16.5962 13.3776 15.9246 12.706 15.0962 12.706H11.508ZM0.596191 14.206C0.596191 13.3776 1.26776 12.706 2.09619 12.706H5.68443C6.51286 12.706 7.18444 13.3776 7.18444 14.206V14.5001C7.18444 15.3285 6.51286 16.0001 5.68444 16.0001H2.09619C1.26776 16.0001 0.596191 15.3285 0.596191 14.5001V14.206ZM2.09619 6.11825C1.26776 6.11825 0.596191 6.78982 0.596191 7.61825V7.91237C0.596191 8.7408 1.26776 9.41237 2.09619 9.41237H15.0962C15.9246 9.41237 16.5962 8.7408 16.5962 7.91237V7.61825C16.5962 6.78982 15.9246 6.11825 15.0962 6.11825H2.09619Z"/>
</g>
<defs>
<clipPath id="clip0_7752_1887">
<rect width="16" height="16" fill="white" transform="translate(0.596191 0.00012207)"/>
</clipPath>
</defs>
</svg>
