<svg viewBox="0 0 16 17" fill="none" xmlns="http://www.w3.org/2000/svg">
<g clip-path="url(#clip0_14018_54608)">
<path d="M3.36143 10.6107C3.36143 11.5357 2.60571 12.2914 1.68071 12.2914C0.755714 12.2914 0 11.5357 0 10.6107C0 9.68571 0.755714 8.93 1.68071 8.93H3.36143V10.6107ZM4.20857 10.6107C4.20857 9.68571 4.96429 8.93 5.88929 8.93C6.81429 8.93 7.57 9.68571 7.57 10.6107V14.8193C7.57 15.7443 6.81429 16.5 5.88929 16.5C4.96429 16.5 4.20857 15.7443 4.20857 14.8193V10.6107ZM5.88929 3.86143C4.96429 3.86143 4.20857 3.10571 4.20857 2.18071C4.20857 1.25571 4.96429 0.5 5.88929 0.5C6.81429 0.5 7.57 1.25571 7.57 2.18071V3.86143H5.88929ZM5.88929 4.70857C6.81429 4.70857 7.57 5.46429 7.57 6.38929C7.57 7.31429 6.81429 8.07 5.88929 8.07H1.68071C0.755714 8.07 0 7.31429 0 6.38929C0 5.46429 0.755714 4.70857 1.68071 4.70857H5.88929ZM12.6386 6.38929C12.6386 5.46429 13.3943 4.70857 14.3193 4.70857C15.2443 4.70857 16 5.46429 16 6.38929C16 7.31429 15.2443 8.07 14.3193 8.07H12.6386V6.38929ZM11.7914 6.38929C11.7914 7.31429 11.0357 8.07 10.1107 8.07C9.18571 8.07 8.43 7.31429 8.43 6.38929V2.18071C8.43 1.25571 9.18571 0.5 10.1107 0.5C11.0357 0.5 11.7914 1.25571 11.7914 2.18071V6.38929ZM10.1107 13.1386C11.0357 13.1386 11.7914 13.8943 11.7914 14.8193C11.7914 15.7443 11.0357 16.5 10.1107 16.5C9.18571 16.5 8.43 15.7443 8.43 14.8193V13.1386H10.1107ZM10.1107 12.2914C9.18571 12.2914 8.43 11.5357 8.43 10.6107C8.43 9.68571 9.18571 8.93 10.1107 8.93H14.3193C15.2443 8.93 16 9.68571 16 10.6107C16 11.5357 15.2443 12.2914 14.3193 12.2914H10.1107Z"/>
</g>
<defs>
<clipPath id="clip0_14018_54608">
<rect width="16" height="16" fill="white" transform="translate(0 0.5)"/>
</clipPath>
</defs>
</svg>
