<svg width="17" height="16" viewBox="0 0 17 16" fill="none" xmlns="http://www.w3.org/2000/svg">
<g clip-path="url(#clip0_22197_18763)">
<path d="M16.2619 3.78224C16.0778 3.08071 15.5357 2.52821 14.8473 2.34071C13.5995 2 8.59619 2 8.59619 2C8.59619 2 3.59288 2 2.3451 2.34071C1.65671 2.52824 1.11454 3.08071 0.930527 3.78224C0.596191 5.05381 0.596191 7.70681 0.596191 7.70681C0.596191 7.70681 0.596191 10.3598 0.930527 11.6314C1.11454 12.3329 1.65671 12.8624 2.3451 13.0499C3.59288 13.3906 8.59619 13.3906 8.59619 13.3906C8.59619 13.3906 13.5995 13.3906 14.8473 13.0499C15.5357 12.8624 16.0778 12.3329 16.2619 11.6314C16.5962 10.3598 16.5962 7.70681 16.5962 7.70681C16.5962 7.70681 16.5962 5.05381 16.2619 3.78224ZM6.95982 10.1155V5.29809L11.1416 7.70687L6.95982 10.1155Z"/>
</g>
<defs>
<clipPath id="clip0_22197_18763">
<rect width="16" height="16" transform="translate(0.596191)"/>
</clipPath>
</defs>
</svg>
