<svg viewBox="0 0 404 201" fill="none" xmlns="http://www.w3.org/2000/svg">
<g filter="url(#filter0_d_13904_184784)">
<rect y="1" width="404" height="195" rx="2.47757" class="rect-1"/>
<rect x="0.412928" y="1.41293" width="403.174" height="194.174" rx="2.06464" stroke-width="0.825855" class="rect-2"/>
</g>
<g clip-path="url(#clip0_13904_184784)">
<g clip-path="url(#clip1_13904_184784)">
<mask id="path-3-inside-1_13904_184784" class="mask-1">
<path d="M129.282 110.481C129.282 132.374 111.534 150.122 89.6406 150.122C67.7474 150.122 49.9995 132.374 49.9995 110.481C49.9995 88.5877 67.7474 70.8398 89.6406 70.8398C111.534 70.8398 129.282 88.5877 129.282 110.481ZM53.9636 110.481C53.9636 130.185 69.9367 146.158 89.6406 146.158C109.344 146.158 125.317 130.185 125.317 110.481C125.317 90.7771 109.344 74.8039 89.6406 74.8039C69.9367 74.8039 53.9636 90.7771 53.9636 110.481Z" class="path-1"/>
</mask>
<path d="M129.282 110.481C129.282 132.374 111.534 150.122 89.6406 150.122C67.7474 150.122 49.9995 132.374 49.9995 110.481C49.9995 88.5877 67.7474 70.8398 89.6406 70.8398C111.534 70.8398 129.282 88.5877 129.282 110.481ZM53.9636 110.481C53.9636 130.185 69.9367 146.158 89.6406 146.158C109.344 146.158 125.317 130.185 125.317 110.481C125.317 90.7771 109.344 74.8039 89.6406 74.8039C69.9367 74.8039 53.9636 90.7771 53.9636 110.481Z" stroke-width="9.91026" mask="url(#path-3-inside-1_13904_184784)" class="path-2"/>
<path d="M89.6406 72.8219C89.6406 71.7272 90.5286 70.8347 91.6219 70.8894C98.7667 71.2469 105.695 73.5325 111.664 77.5206C118.183 81.8764 123.264 88.0675 126.264 95.3109C129.264 102.554 130.049 110.525 128.52 118.214C126.99 125.904 123.215 132.967 117.671 138.511C112.127 144.055 105.064 147.831 97.3741 149.36C89.6845 150.89 81.714 150.105 74.4706 147.104C67.2271 144.104 61.036 139.023 56.6802 132.504C52.6921 126.536 50.4065 119.607 50.049 112.462C49.9943 111.369 50.8869 110.481 51.9816 110.481C53.0762 110.481 53.9579 111.369 54.0186 112.462C54.3723 118.822 56.4238 124.985 59.9763 130.302C63.8965 136.169 69.4685 140.742 75.9876 143.442C82.5067 146.142 89.6801 146.849 96.6008 145.472C103.521 144.096 109.878 140.698 114.868 135.708C119.857 130.719 123.255 124.362 124.632 117.441C126.009 110.52 125.302 103.347 122.602 96.8279C119.901 90.3088 115.329 84.7368 109.462 80.8166C104.145 77.2641 97.982 75.2126 91.6216 74.859C90.5286 74.7982 89.6406 73.9166 89.6406 72.8219Z" class="path-3"/>
<path d="M122.158 91.4856C123.103 90.9335 124.322 91.2501 124.826 92.2217C128.121 98.5713 129.642 105.707 129.209 112.872C128.736 120.698 125.953 128.208 121.212 134.452C116.471 140.697 109.985 145.395 102.574 147.953C95.1624 150.511 87.1591 150.814 79.5757 148.823C71.9924 146.832 65.1696 142.638 59.9703 136.769C54.7709 130.901 51.4284 123.623 50.3655 115.855C49.3026 108.087 50.567 100.179 53.9988 93.1293C57.1409 86.6751 61.9707 81.2067 67.9597 77.2942C68.8762 76.6955 70.0932 77.0183 70.6453 77.9635C71.1975 78.9087 70.8753 80.1179 69.9623 80.7217C64.6487 84.2352 60.3619 89.1153 57.563 94.8644C54.4743 101.209 53.3364 108.327 54.293 115.318C55.2496 122.309 58.2578 128.859 62.9373 134.141C67.6167 139.422 73.7572 143.197 80.5822 144.989C87.4072 146.78 94.6102 146.508 101.28 144.206C107.95 141.904 113.788 137.675 118.055 132.055C122.322 126.435 124.827 119.676 125.253 112.633C125.638 106.25 124.301 99.8941 121.398 94.2237C120.899 93.2493 121.213 92.0378 122.158 91.4856Z" fill="url(#paint0_linear_13904_184784)" class="path-4"/>
</g>
<path d="M80.394 108.503C80.394 111.29 79.8326 113.371 78.71 114.745C77.5873 116.12 75.8969 116.807 73.6387 116.807C72.7806 116.807 72.1644 116.755 71.7902 116.652V114.745C72.3644 114.907 72.9419 114.987 73.5226 114.987C75.0582 114.987 76.2034 114.574 76.9583 113.749C77.7131 112.923 78.1261 111.626 78.197 109.858H78.0809C77.7002 110.439 77.2389 110.858 76.697 111.116C76.1614 111.374 75.5324 111.503 74.8098 111.503C73.5581 111.503 72.5741 111.113 71.858 110.332C71.1418 109.552 70.7837 108.481 70.7837 107.119C70.7837 105.642 71.1966 104.467 72.0225 103.596C72.8548 102.719 73.9871 102.28 75.4195 102.28C76.426 102.28 77.3034 102.525 78.0519 103.016C78.8003 103.506 79.3778 104.219 79.7842 105.155C80.1907 106.084 80.394 107.2 80.394 108.503ZM75.4582 104.167C74.671 104.167 74.0678 104.425 73.6484 104.942C73.229 105.451 73.0193 106.171 73.0193 107.1C73.0193 107.906 73.2129 108.542 73.6 109.006C73.9936 109.464 74.5872 109.694 75.3808 109.694C76.1485 109.694 76.7937 109.464 77.3163 109.006C77.839 108.548 78.1003 108.013 78.1003 107.4C78.1003 106.826 77.9874 106.29 77.7615 105.793C77.5422 105.29 77.2325 104.893 76.8325 104.603C76.4324 104.313 75.9743 104.167 75.4582 104.167ZM91.7366 109.539C91.7366 111.997 91.3398 113.823 90.5462 115.016C89.759 116.21 88.5525 116.807 86.9266 116.807C85.3523 116.807 84.1587 116.191 83.3457 114.958C82.5328 113.726 82.1263 111.919 82.1263 109.539C82.1263 107.042 82.5199 105.203 83.307 104.022C84.1006 102.835 85.3071 102.241 86.9266 102.241C88.5073 102.241 89.7042 102.861 90.5171 104.1C91.3301 105.338 91.7366 107.151 91.7366 109.539ZM84.4297 109.539C84.4297 111.468 84.6265 112.845 85.02 113.671C85.4201 114.497 86.0556 114.91 86.9266 114.91C87.7976 114.91 88.4331 114.491 88.8332 113.652C89.2396 112.813 89.4429 111.442 89.4429 109.539C89.4429 107.642 89.2396 106.271 88.8332 105.426C88.4331 104.574 87.7976 104.148 86.9266 104.148C86.0556 104.148 85.4201 104.564 85.02 105.396C84.6265 106.229 84.4297 107.61 84.4297 109.539ZM95.2981 106.703C95.2981 107.664 95.3916 108.381 95.5787 108.852C95.7658 109.323 96.0723 109.558 96.4981 109.558C97.3498 109.558 97.7756 108.606 97.7756 106.703C97.7756 104.8 97.3498 103.848 96.4981 103.848C96.0723 103.848 95.7658 104.084 95.5787 104.555C95.3916 105.026 95.2981 105.742 95.2981 106.703ZM99.6531 106.684C99.6531 108.168 99.3854 109.284 98.8499 110.032C98.3208 110.774 97.5369 111.145 96.4981 111.145C95.5174 111.145 94.7561 110.761 94.2141 109.994C93.6786 109.219 93.4108 108.116 93.4108 106.684C93.4108 103.735 94.4399 102.261 96.4981 102.261C97.5111 102.261 98.2886 102.645 98.8305 103.413C99.3789 104.174 99.6531 105.264 99.6531 106.684ZM104.511 112.355C104.511 113.316 104.605 114.036 104.792 114.513C104.986 114.991 105.295 115.229 105.721 115.229C106.566 115.229 106.989 114.271 106.989 112.355C106.989 110.465 106.566 109.519 105.721 109.519C105.295 109.519 104.986 109.752 104.792 110.216C104.605 110.681 104.511 111.394 104.511 112.355ZM108.867 112.355C108.867 113.839 108.599 114.952 108.063 115.694C107.528 116.436 106.747 116.807 105.721 116.807C104.741 116.807 103.979 116.426 103.437 115.665C102.895 114.897 102.624 113.794 102.624 112.355C102.624 109.406 103.657 107.932 105.721 107.932C106.715 107.932 107.486 108.313 108.034 109.074C108.589 109.835 108.867 110.929 108.867 112.355ZM105.992 102.464L98.1434 116.613H96.2659L104.115 102.464H105.992Z" class="path-5"/>
</g>
<path d="M68.7266 41L67.7285 38.2246H63.9072L62.9297 41H61.207L64.9463 30.9648H66.7236L70.4629 41H68.7266ZM67.2979 36.8164L66.3613 34.0957C66.293 33.9134 66.1973 33.6263 66.0742 33.2344C65.9557 32.8424 65.8737 32.5553 65.8281 32.373C65.7051 32.9336 65.5251 33.5465 65.2881 34.2119L64.3857 36.8164H67.2979ZM75.4463 33.3027C75.7699 33.3027 76.0365 33.3255 76.2461 33.3711L76.0889 34.8682C75.861 34.8135 75.624 34.7861 75.3779 34.7861C74.7354 34.7861 74.2135 34.9958 73.8125 35.415C73.416 35.8343 73.2178 36.3789 73.2178 37.0488V41H71.6113V33.4395H72.8691L73.0811 34.7725H73.1631C73.4137 34.3213 73.7396 33.9635 74.1406 33.6992C74.5462 33.4349 74.9814 33.3027 75.4463 33.3027ZM79.2607 41H77.6543V33.4395H79.2607V41ZM77.5586 31.4365C77.5586 31.1494 77.6361 30.9284 77.791 30.7734C77.9505 30.6185 78.1761 30.541 78.4678 30.541C78.7503 30.541 78.9691 30.6185 79.124 30.7734C79.2835 30.9284 79.3633 31.1494 79.3633 31.4365C79.3633 31.71 79.2835 31.9264 79.124 32.0859C78.9691 32.2409 78.7503 32.3184 78.4678 32.3184C78.1761 32.3184 77.9505 32.2409 77.791 32.0859C77.6361 31.9264 77.5586 31.71 77.5586 31.4365ZM86.6436 38.8467C86.6436 39.585 86.3747 40.1523 85.8369 40.5488C85.2992 40.9408 84.529 41.1367 83.5264 41.1367C82.5192 41.1367 81.7103 40.984 81.0996 40.6787V39.291C81.9883 39.7012 82.8154 39.9062 83.5811 39.9062C84.57 39.9062 85.0645 39.6077 85.0645 39.0107C85.0645 38.8193 85.0098 38.6598 84.9004 38.5322C84.791 38.4046 84.611 38.2725 84.3604 38.1357C84.1097 37.999 83.7611 37.8441 83.3145 37.6709C82.444 37.3337 81.8538 36.9964 81.5439 36.6592C81.2386 36.3219 81.0859 35.8844 81.0859 35.3467C81.0859 34.6995 81.3457 34.1982 81.8652 33.8428C82.3893 33.4827 83.1003 33.3027 83.998 33.3027C84.8867 33.3027 85.7275 33.4827 86.5205 33.8428L86.001 35.0527C85.1852 34.7155 84.4993 34.5469 83.9434 34.5469C83.0957 34.5469 82.6719 34.7884 82.6719 35.2715C82.6719 35.5085 82.7812 35.709 83 35.873C83.2233 36.0371 83.7064 36.2627 84.4492 36.5498C85.0736 36.7913 85.527 37.0124 85.8096 37.2129C86.0921 37.4134 86.3018 37.6458 86.4385 37.9102C86.5752 38.1699 86.6436 38.4821 86.6436 38.8467ZM91.2031 39.8379C91.5951 39.8379 91.987 39.7764 92.3789 39.6533V40.8633C92.2012 40.9408 91.971 41.0046 91.6885 41.0547C91.4105 41.1094 91.1211 41.1367 90.8203 41.1367C89.2982 41.1367 88.5371 40.3346 88.5371 38.7305V34.6562H87.5049V33.9453L88.6123 33.3574L89.1592 31.7578H90.1504V33.4395H92.3037V34.6562H90.1504V38.7031C90.1504 39.0905 90.2461 39.3776 90.4375 39.5645C90.6335 39.7467 90.8887 39.8379 91.2031 39.8379ZM100.603 37.2061C100.603 38.4411 100.286 39.4049 99.6523 40.0977C99.0189 40.7904 98.137 41.1367 97.0068 41.1367C96.3005 41.1367 95.6761 40.9772 95.1338 40.6582C94.5915 40.3392 94.1745 39.8812 93.8828 39.2842C93.5911 38.6872 93.4453 37.9945 93.4453 37.2061C93.4453 35.9801 93.7598 35.0231 94.3887 34.335C95.0176 33.6468 95.904 33.3027 97.0479 33.3027C98.1416 33.3027 99.0075 33.6559 99.6455 34.3623C100.284 35.0641 100.603 36.012 100.603 37.2061ZM95.0996 37.2061C95.0996 38.9515 95.7445 39.8242 97.0342 39.8242C98.3102 39.8242 98.9482 38.9515 98.9482 37.2061C98.9482 35.4788 98.3057 34.6152 97.0205 34.6152C96.346 34.6152 95.8561 34.8385 95.5508 35.2852C95.25 35.7318 95.0996 36.3721 95.0996 37.2061ZM105.271 39.8379C105.663 39.8379 106.055 39.7764 106.447 39.6533V40.8633C106.27 40.9408 106.039 41.0046 105.757 41.0547C105.479 41.1094 105.189 41.1367 104.889 41.1367C103.367 41.1367 102.605 40.3346 102.605 38.7305V34.6562H101.573V33.9453L102.681 33.3574L103.228 31.7578H104.219V33.4395H106.372V34.6562H104.219V38.7031C104.219 39.0905 104.314 39.3776 104.506 39.5645C104.702 39.7467 104.957 39.8379 105.271 39.8379ZM109.571 41H107.965V30.3633H109.571V41ZM115.177 41.1367C114.001 41.1367 113.08 40.7949 112.415 40.1113C111.754 39.4232 111.424 38.4775 111.424 37.2744C111.424 36.0394 111.731 35.0687 112.347 34.3623C112.962 33.6559 113.807 33.3027 114.883 33.3027C115.881 33.3027 116.669 33.6058 117.248 34.2119C117.827 34.818 118.116 35.652 118.116 36.7139V37.582H113.078C113.101 38.3158 113.299 38.8809 113.673 39.2773C114.047 39.6693 114.573 39.8652 115.252 39.8652C115.699 39.8652 116.113 39.8242 116.496 39.7422C116.883 39.6556 117.298 39.5143 117.74 39.3184V40.624C117.348 40.8109 116.952 40.943 116.551 41.0205C116.15 41.098 115.692 41.1367 115.177 41.1367ZM114.883 34.5195C114.372 34.5195 113.962 34.6813 113.652 35.0049C113.347 35.3285 113.165 35.8001 113.105 36.4199H116.537C116.528 35.7956 116.378 35.3239 116.086 35.0049C115.794 34.6813 115.393 34.5195 114.883 34.5195Z" class="path-6"/>
<path d="M68.7744 58V48.0059H69.9365V56.9473H74.3457V58H68.7744ZM79.042 58.1367C77.9346 58.1367 77.0596 57.7995 76.417 57.125C75.779 56.4505 75.46 55.514 75.46 54.3154C75.46 53.1077 75.7562 52.1484 76.3486 51.4375C76.9456 50.7266 77.7454 50.3711 78.748 50.3711C79.6868 50.3711 80.4297 50.681 80.9766 51.3008C81.5234 51.916 81.7969 52.7295 81.7969 53.7412V54.459H76.6357C76.6585 55.3385 76.8796 56.0062 77.2988 56.4619C77.7227 56.9176 78.3174 57.1455 79.083 57.1455C79.8896 57.1455 80.6872 56.9769 81.4756 56.6396V57.6514C81.0745 57.8245 80.694 57.9476 80.334 58.0205C79.9785 58.098 79.5479 58.1367 79.042 58.1367ZM78.7344 51.3213C78.1328 51.3213 77.652 51.5173 77.292 51.9092C76.9365 52.3011 76.7269 52.8434 76.6631 53.5361H80.5801C80.5801 52.8206 80.4206 52.2738 80.1016 51.8955C79.7826 51.5127 79.3268 51.3213 78.7344 51.3213ZM85.3789 58L82.5352 50.5078H83.752L85.3652 54.9512C85.7298 55.9902 85.944 56.6647 86.0078 56.9746H86.0625C86.1126 56.7331 86.2699 56.234 86.5342 55.4775C86.8031 54.7165 87.4023 53.0599 88.332 50.5078H89.5488L86.7051 58H85.3789ZM93.917 58.1367C92.8096 58.1367 91.9346 57.7995 91.292 57.125C90.654 56.4505 90.335 55.514 90.335 54.3154C90.335 53.1077 90.6312 52.1484 91.2236 51.4375C91.8206 50.7266 92.6204 50.3711 93.623 50.3711C94.5618 50.3711 95.3047 50.681 95.8516 51.3008C96.3984 51.916 96.6719 52.7295 96.6719 53.7412V54.459H91.5107C91.5335 55.3385 91.7546 56.0062 92.1738 56.4619C92.5977 56.9176 93.1924 57.1455 93.958 57.1455C94.7646 57.1455 95.5622 56.9769 96.3506 56.6396V57.6514C95.9495 57.8245 95.569 57.9476 95.209 58.0205C94.8535 58.098 94.4229 58.1367 93.917 58.1367ZM93.6094 51.3213C93.0078 51.3213 92.527 51.5173 92.167 51.9092C91.8115 52.3011 91.6019 52.8434 91.5381 53.5361H95.4551C95.4551 52.8206 95.2956 52.2738 94.9766 51.8955C94.6576 51.5127 94.2018 51.3213 93.6094 51.3213ZM99.748 58H98.6133V47.3633H99.748V58ZM112.312 55.7031H110.829V58H109.742V55.7031H104.882V54.7119L109.626 47.9512H110.829V54.6709H112.312V55.7031ZM109.742 54.6709V51.3486C109.742 50.6969 109.765 49.9609 109.811 49.1406H109.756C109.537 49.5781 109.332 49.9404 109.141 50.2275L106.017 54.6709H109.742Z" class="path-7"/>
<path d="M26.4681 162.65C25.5611 162.65 24.8441 162.953 24.3172 163.559C23.7941 164.161 23.5325 164.987 23.5325 166.037C23.5325 167.117 23.7846 167.953 24.289 168.544C24.7971 169.131 25.5197 169.425 26.4568 169.425C27.0327 169.425 27.6894 169.321 28.4271 169.114V169.955C27.855 170.17 27.1494 170.277 26.3101 170.277C25.0944 170.277 24.1554 169.908 23.493 169.17C22.8343 168.433 22.505 167.385 22.505 166.026C22.505 165.175 22.6631 164.43 22.9792 163.79C23.2991 163.15 23.7583 162.657 24.3567 162.311C24.9589 161.965 25.6665 161.792 26.4794 161.792C27.3451 161.792 28.1016 161.95 28.7489 162.266L28.3424 163.09C27.7177 162.797 27.0929 162.65 26.4681 162.65ZM35.4275 167.065C35.4275 168.073 35.1735 168.862 34.6654 169.43C34.1573 169.995 33.4554 170.277 32.5596 170.277C32.0064 170.277 31.5152 170.147 31.0862 169.887C30.6571 169.628 30.3259 169.255 30.0925 168.77C29.8592 168.284 29.7425 167.716 29.7425 167.065C29.7425 166.056 29.9947 165.271 30.499 164.711C31.0034 164.146 31.7034 163.864 32.5991 163.864C33.4648 163.864 34.1517 164.152 34.6597 164.727C35.1716 165.303 35.4275 166.082 35.4275 167.065ZM30.7135 167.065C30.7135 167.855 30.8716 168.457 31.1878 168.871C31.5039 169.285 31.9687 169.492 32.5822 169.492C33.1957 169.492 33.6605 169.287 33.9766 168.877C34.2966 168.463 34.4565 167.859 34.4565 167.065C34.4565 166.278 34.2966 165.682 33.9766 165.275C33.6605 164.865 33.1919 164.66 32.5709 164.66C31.9574 164.66 31.4945 164.861 31.1821 165.264C30.8697 165.666 30.7135 166.267 30.7135 167.065ZM41.3101 170.164V166.161C41.3101 165.657 41.1953 165.281 40.9658 165.032C40.7362 164.784 40.3768 164.66 39.8875 164.66C39.2364 164.66 38.7603 164.837 38.4592 165.19C38.1618 165.544 38.0132 166.124 38.0132 166.929V170.164H37.076V161.38H38.0132V164.039C38.0132 164.359 37.9981 164.624 37.968 164.835H38.0245C38.2089 164.537 38.4705 164.304 38.8092 164.135C39.1517 163.962 39.5412 163.875 39.9778 163.875C40.7343 163.875 41.3007 164.056 41.6771 164.417C42.0572 164.774 42.2473 165.345 42.2473 166.128V170.164H41.3101ZM46.7919 170.277C45.8773 170.277 45.1547 169.998 44.624 169.441C44.0971 168.884 43.8337 168.111 43.8337 167.121C43.8337 166.124 44.0783 165.332 44.5676 164.744C45.0606 164.157 45.7212 163.864 46.5492 163.864C47.3245 163.864 47.9379 164.12 48.3896 164.631C48.8412 165.14 49.067 165.811 49.067 166.647V167.24H44.8047C44.8235 167.966 45.0061 168.517 45.3523 168.894C45.7023 169.27 46.1935 169.458 46.8258 169.458C47.492 169.458 48.1506 169.319 48.8017 169.041V169.876C48.4705 170.019 48.1562 170.121 47.8589 170.181C47.5653 170.245 47.2097 170.277 46.7919 170.277ZM46.5379 164.648C46.0411 164.648 45.644 164.81 45.3467 165.134C45.0531 165.458 44.88 165.905 44.8273 166.478H48.0622C48.0622 165.887 47.9304 165.435 47.667 165.123C47.4035 164.806 47.0271 164.648 46.5379 164.648ZM53.4931 163.864C53.7679 163.864 54.0144 163.886 54.2327 163.931L54.1028 164.801C53.8469 164.744 53.6211 164.716 53.4254 164.716C52.9248 164.716 52.4957 164.919 52.1382 165.326C51.7844 165.732 51.6075 166.239 51.6075 166.845V170.164H50.6704V163.977H51.4438L51.5511 165.123H51.5962C51.8258 164.72 52.1024 164.409 52.4261 164.191C52.7498 163.973 53.1055 163.864 53.4931 163.864ZM58.0039 170.277C57.0893 170.277 56.3667 169.998 55.836 169.441C55.3091 168.884 55.0456 168.111 55.0456 167.121C55.0456 166.124 55.2903 165.332 55.7795 164.744C56.2726 164.157 56.9331 163.864 57.7611 163.864C58.5364 163.864 59.1499 164.12 59.6015 164.631C60.0532 165.14 60.279 165.811 60.279 166.647V167.24H56.0166C56.0355 167.966 56.218 168.517 56.5643 168.894C56.9143 169.27 57.4054 169.458 58.0377 169.458C58.7039 169.458 59.3625 169.319 60.0137 169.041V169.876C59.6825 170.019 59.3682 170.121 59.0709 170.181C58.7773 170.245 58.4216 170.277 58.0039 170.277ZM57.7498 164.648C57.253 164.648 56.8559 164.81 56.5586 165.134C56.2651 165.458 56.0919 165.905 56.0392 166.478H59.2741C59.2741 165.887 59.1424 165.435 58.8789 165.123C58.6155 164.806 58.2391 164.648 57.7498 164.648ZM66.1164 170.164V166.161C66.1164 165.657 66.0016 165.281 65.7721 165.032C65.5425 164.784 65.183 164.66 64.6938 164.66C64.0464 164.66 63.5722 164.835 63.2711 165.185C62.97 165.535 62.8195 166.112 62.8195 166.918V170.164H61.8823V163.977H62.6445L62.7969 164.823H62.8421C63.034 164.519 63.3031 164.283 63.6494 164.118C63.9956 163.948 64.3814 163.864 64.8067 163.864C65.5519 163.864 66.1127 164.044 66.489 164.406C66.8654 164.763 67.0536 165.337 67.0536 166.128V170.164H66.1164ZM70.9829 169.504C71.1485 169.504 71.3084 169.492 71.4627 169.47C71.617 169.443 71.7393 169.417 71.8297 169.391V170.108C71.7281 170.157 71.5775 170.196 71.378 170.226C71.1823 170.26 71.0054 170.277 70.8474 170.277C69.6505 170.277 69.0521 169.647 69.0521 168.386V164.705H68.1658V164.253L69.0521 163.864L69.4473 162.543H69.9892V163.977H71.7845V164.705H69.9892V168.346C69.9892 168.719 70.0777 169.005 70.2546 169.204C70.4315 169.404 70.6742 169.504 70.9829 169.504ZM80.9302 161.91H81.9633L78.9882 170.164H78.0397L75.0815 161.91H76.0977L77.9946 167.251C78.2128 167.864 78.386 168.461 78.5139 169.041C78.6494 168.431 78.8263 167.823 79.0446 167.217L80.9302 161.91ZM88.3032 167.065C88.3032 168.073 88.0492 168.862 87.5411 169.43C87.033 169.995 86.3311 170.277 85.4353 170.277C84.8821 170.277 84.3909 170.147 83.9618 169.887C83.5328 169.628 83.2016 169.255 82.9682 168.77C82.7349 168.284 82.6182 167.716 82.6182 167.065C82.6182 166.056 82.8704 165.271 83.3747 164.711C83.879 164.146 84.5791 163.864 85.4748 163.864C86.3405 163.864 87.0273 164.152 87.5354 164.727C88.0473 165.303 88.3032 166.082 88.3032 167.065ZM83.5892 167.065C83.5892 167.855 83.7473 168.457 84.0635 168.871C84.3796 169.285 84.8444 169.492 85.4579 169.492C86.0714 169.492 86.5362 169.287 86.8523 168.877C87.1722 168.463 87.3322 167.859 87.3322 167.065C87.3322 166.278 87.1722 165.682 86.8523 165.275C86.5362 164.865 86.0676 164.66 85.4466 164.66C84.8331 164.66 84.3702 164.861 84.0578 165.264C83.7454 165.666 83.5892 166.267 83.5892 167.065ZM91.9502 169.504C92.1158 169.504 92.2758 169.492 92.4301 169.47C92.5844 169.443 92.7067 169.417 92.797 169.391V170.108C92.6954 170.157 92.5449 170.196 92.3454 170.226C92.1497 170.26 91.9728 170.277 91.8147 170.277C90.6179 170.277 90.0195 169.647 90.0195 168.386V164.705H89.1331V164.253L90.0195 163.864L90.4146 162.543H90.9566V163.977H92.7519V164.705H90.9566V168.346C90.9566 168.719 91.045 169.005 91.2219 169.204C91.3988 169.404 91.6416 169.504 91.9502 169.504ZM96.6529 170.277C95.7383 170.277 95.0157 169.998 94.485 169.441C93.9581 168.884 93.6947 168.111 93.6947 167.121C93.6947 166.124 93.9393 165.332 94.4286 164.744C94.9216 164.157 95.5821 163.864 96.4102 163.864C97.1855 163.864 97.7989 164.12 98.2506 164.631C98.7022 165.14 98.928 165.811 98.928 166.647V167.24H94.6657C94.6845 167.966 94.8671 168.517 95.2133 168.894C95.5633 169.27 96.0545 169.458 96.6868 169.458C97.353 169.458 98.0116 169.319 98.6627 169.041V169.876C98.3315 170.019 98.0172 170.121 97.7199 170.181C97.4263 170.245 97.0707 170.277 96.6529 170.277ZM96.3989 164.648C95.9021 164.648 95.505 164.81 95.2077 165.134C94.9141 165.458 94.741 165.905 94.6883 166.478H97.9231C97.9231 165.887 97.7914 165.435 97.528 165.123C97.2645 164.806 96.8881 164.648 96.3989 164.648ZM104.523 168.476C104.523 169.052 104.308 169.496 103.879 169.808C103.45 170.121 102.848 170.277 102.073 170.277C101.252 170.277 100.612 170.147 100.153 169.887V169.018C100.45 169.169 100.768 169.287 101.107 169.374C101.45 169.46 101.779 169.504 102.095 169.504C102.584 169.504 102.961 169.426 103.224 169.272C103.488 169.114 103.619 168.875 103.619 168.555C103.619 168.314 103.514 168.109 103.303 167.94C103.096 167.767 102.69 167.563 102.084 167.33C101.508 167.115 101.098 166.929 100.853 166.771C100.612 166.609 100.432 166.427 100.311 166.224C100.195 166.02 100.136 165.778 100.136 165.495C100.136 164.991 100.341 164.594 100.752 164.304C101.162 164.01 101.724 163.864 102.44 163.864C103.106 163.864 103.757 163.999 104.393 164.27L104.06 165.032C103.439 164.776 102.876 164.648 102.372 164.648C101.928 164.648 101.593 164.718 101.367 164.857C101.141 164.997 101.028 165.189 101.028 165.433C101.028 165.599 101.07 165.74 101.152 165.857C101.239 165.973 101.376 166.084 101.564 166.19C101.753 166.295 102.114 166.447 102.648 166.647C103.382 166.914 103.877 167.183 104.133 167.454C104.393 167.725 104.523 168.066 104.523 168.476ZM105.917 169.566C105.917 169.313 105.974 169.123 106.087 168.995C106.203 168.864 106.369 168.798 106.583 168.798C106.802 168.798 106.971 168.864 107.091 168.995C107.216 169.123 107.278 169.313 107.278 169.566C107.278 169.81 107.216 169.998 107.091 170.13C106.967 170.262 106.798 170.328 106.583 170.328C106.391 170.328 106.231 170.269 106.103 170.153C105.979 170.032 105.917 169.837 105.917 169.566ZM105.917 164.581C105.917 164.073 106.139 163.819 106.583 163.819C107.046 163.819 107.278 164.073 107.278 164.581C107.278 164.825 107.216 165.013 107.091 165.145C106.967 165.277 106.798 165.343 106.583 165.343C106.391 165.343 106.231 165.284 106.103 165.168C105.979 165.047 105.917 164.852 105.917 164.581Z" class="path-8"/>
<path d="M121.498 165.433C121.498 167.059 121.17 168.273 120.515 169.074C119.861 169.876 118.874 170.277 117.557 170.277C117.057 170.277 116.697 170.247 116.479 170.187V169.074C116.814 169.169 117.151 169.216 117.489 169.216C118.385 169.216 119.053 168.975 119.494 168.493C119.934 168.011 120.175 167.255 120.216 166.224H120.148C119.926 166.562 119.657 166.807 119.341 166.957C119.029 167.108 118.662 167.183 118.24 167.183C117.51 167.183 116.936 166.956 116.518 166.5C116.101 166.045 115.892 165.42 115.892 164.626C115.892 163.764 116.133 163.079 116.614 162.571C117.1 162.059 117.76 161.803 118.596 161.803C119.183 161.803 119.695 161.946 120.132 162.232C120.568 162.518 120.905 162.934 121.142 163.48C121.379 164.022 121.498 164.673 121.498 165.433ZM118.619 162.904C118.159 162.904 117.807 163.055 117.563 163.356C117.318 163.653 117.196 164.073 117.196 164.615C117.196 165.085 117.309 165.456 117.535 165.727C117.764 165.994 118.11 166.128 118.573 166.128C119.021 166.128 119.398 165.994 119.702 165.727C120.007 165.459 120.16 165.147 120.16 164.79C120.16 164.455 120.094 164.142 119.962 163.852C119.834 163.559 119.654 163.327 119.42 163.158C119.187 162.989 118.92 162.904 118.619 162.904ZM126.426 161.91L123.355 170.164H122.102L125.179 161.91H126.426ZM130.931 170.164H129.605V164.835C129.605 164.199 129.62 163.694 129.65 163.322C129.563 163.412 129.456 163.512 129.328 163.621C129.204 163.73 128.782 164.076 128.063 164.66L127.397 163.819L129.825 161.91H130.931V170.164ZM139.236 166.037C139.236 167.471 139.004 168.536 138.541 169.233C138.082 169.929 137.379 170.277 136.43 170.277C135.512 170.277 134.815 169.918 134.341 169.199C133.867 168.48 133.63 167.426 133.63 166.037C133.63 164.581 133.859 163.508 134.319 162.819C134.782 162.127 135.485 161.781 136.43 161.781C137.352 161.781 138.05 162.142 138.525 162.864C138.999 163.587 139.236 164.645 139.236 166.037ZM134.974 166.037C134.974 167.163 135.088 167.966 135.318 168.448C135.551 168.93 135.922 169.17 136.43 169.17C136.938 169.17 137.309 168.926 137.542 168.437C137.779 167.947 137.898 167.147 137.898 166.037C137.898 164.931 137.779 164.131 137.542 163.638C137.309 163.141 136.938 162.893 136.43 162.893C135.922 162.893 135.551 163.135 135.318 163.621C135.088 164.106 134.974 164.912 134.974 166.037Z" class="path-9"/>
<g clip-path="url(#clip2_13904_184784)">
<path d="M152.794 160.383C149.601 160.383 147.013 162.972 147.013 166.164C147.013 169.357 149.601 171.945 152.794 171.945C155.986 171.945 158.575 169.357 158.575 166.164C158.575 162.972 155.986 160.383 152.794 160.383ZM152.794 170.826C150.217 170.826 148.132 168.741 148.132 166.164C148.132 163.588 150.217 161.502 152.794 161.502C155.37 161.502 157.456 163.587 157.456 166.164C157.456 168.74 155.371 170.826 152.794 170.826ZM155.294 164.877C155.294 166.44 153.606 166.464 153.606 167.042V167.189C153.606 167.344 153.48 167.469 153.326 167.469H152.262C152.107 167.469 151.982 167.344 151.982 167.189V166.988C151.982 166.154 152.614 165.821 153.091 165.554C153.501 165.324 153.751 165.168 153.751 164.864C153.751 164.462 153.239 164.195 152.824 164.195C152.284 164.195 152.034 164.451 151.683 164.894C151.589 165.013 151.416 165.035 151.295 164.943L150.646 164.452C150.527 164.361 150.5 164.194 150.585 164.07C151.135 163.261 151.837 162.807 152.929 162.807C154.073 162.807 155.294 163.7 155.294 164.877ZM153.773 168.775C153.773 169.314 153.334 169.754 152.794 169.754C152.254 169.754 151.815 169.314 151.815 168.775C151.815 168.235 152.254 167.796 152.794 167.796C153.334 167.796 153.773 168.235 153.773 168.775Z" class="path-10"/>
</g>
<path d="M221.236 42.154C220.882 42.154 220.603 42.1032 220.4 42.0016V41.183C220.667 41.2582 220.946 41.2959 221.236 41.2959C221.608 41.2959 221.891 41.183 222.083 40.9571C222.278 40.7313 222.376 40.4058 222.376 39.9805V31.7268H223.336V39.9014C223.336 40.6165 223.155 41.1698 222.794 41.5612C222.433 41.9564 221.913 42.154 221.236 42.154ZM226.272 33.793V37.807C226.272 38.3113 226.386 38.6877 226.616 38.9361C226.845 39.1845 227.205 39.3087 227.694 39.3087C228.342 39.3087 228.814 39.1318 229.111 38.778C229.412 38.4242 229.563 37.8465 229.563 37.0448V33.793H230.5V39.9805H229.727L229.591 39.1506H229.54C229.348 39.4554 229.081 39.6888 228.739 39.8506C228.4 40.0125 228.012 40.0934 227.576 40.0934C226.823 40.0934 226.258 39.9146 225.882 39.5571C225.509 39.1995 225.323 38.6274 225.323 37.8408V33.793H226.272ZM235.316 33.6801C235.59 33.6801 235.837 33.7027 236.055 33.7478L235.925 34.6173C235.669 34.5608 235.444 34.5326 235.248 34.5326C234.747 34.5326 234.318 34.7358 233.961 35.1423C233.607 35.5488 233.43 36.055 233.43 36.6609V39.9805H232.493V33.793H233.266L233.374 34.939H233.419C233.648 34.5363 233.925 34.2258 234.249 34.0075C234.572 33.7892 234.928 33.6801 235.316 33.6801ZM242.553 36.8811C242.553 37.8898 242.299 38.6782 241.791 39.2466C241.283 39.8111 240.581 40.0934 239.685 40.0934C239.132 40.0934 238.641 39.9635 238.212 39.7038C237.783 39.4441 237.451 39.0715 237.218 38.586C236.985 38.1005 236.868 37.5322 236.868 36.8811C236.868 35.8724 237.12 35.0877 237.625 34.5269C238.129 33.9624 238.829 33.6801 239.725 33.6801C240.59 33.6801 241.277 33.968 241.785 34.5439C242.297 35.1197 242.553 35.8988 242.553 36.8811ZM237.839 36.8811C237.839 37.6715 237.997 38.2736 238.313 38.6877C238.629 39.1017 239.094 39.3087 239.708 39.3087C240.321 39.3087 240.786 39.1035 241.102 38.6933C241.422 38.2793 241.582 37.6752 241.582 36.8811C241.582 36.0945 241.422 35.4979 241.102 35.0915C240.786 34.6812 240.317 34.4761 239.696 34.4761C239.083 34.4761 238.62 34.6775 238.308 35.0802C237.995 35.4829 237.839 36.0832 237.839 36.8811ZM247.024 33.6801C247.299 33.6801 247.546 33.7027 247.764 33.7478L247.634 34.6173C247.378 34.5608 247.152 34.5326 246.957 34.5326C246.456 34.5326 246.027 34.7358 245.669 35.1423C245.316 35.5488 245.139 36.055 245.139 36.6609V39.9805H244.202V33.793H244.975L245.082 34.939H245.127C245.357 34.5363 245.634 34.2258 245.957 34.0075C246.281 33.7892 246.637 33.6801 247.024 33.6801ZM253.025 36.548V39.9805H252.066V31.7268H254.33C255.342 31.7268 256.089 31.9206 256.571 32.3082C257.056 32.6959 257.299 33.2793 257.299 34.0583C257.299 35.1498 256.746 35.8875 255.639 36.2714L257.881 39.9805H256.746L254.747 36.548H253.025ZM253.025 35.7238H254.341C255.018 35.7238 255.515 35.5902 255.831 35.3229C256.147 35.052 256.306 34.6474 256.306 34.1092C256.306 33.5634 256.144 33.1701 255.82 32.9292C255.5 32.6884 254.984 32.5679 254.273 32.5679H253.025V35.7238ZM261.686 40.0934C260.771 40.0934 260.048 39.8149 259.518 39.2578C258.991 38.7008 258.727 37.9274 258.727 36.9375C258.727 35.9402 258.972 35.1479 259.461 34.5608C259.954 33.9737 260.615 33.6801 261.443 33.6801C262.218 33.6801 262.832 33.936 263.283 34.4479C263.735 34.956 263.961 35.6278 263.961 36.4633V37.0561H259.698C259.717 37.7825 259.9 38.3339 260.246 38.7102C260.596 39.0866 261.087 39.2748 261.72 39.2748C262.386 39.2748 263.044 39.1355 263.695 38.857V39.6925C263.364 39.8356 263.05 39.9372 262.753 39.9974C262.459 40.0614 262.103 40.0934 261.686 40.0934ZM261.432 34.4648C260.935 34.4648 260.538 34.6267 260.24 34.9503C259.947 35.274 259.774 35.7219 259.721 36.294H262.956C262.956 35.7031 262.824 35.2514 262.561 34.939C262.297 34.6229 261.921 34.4648 261.432 34.4648ZM270.617 39.9805L269.482 36.3504C269.411 36.1284 269.277 35.624 269.081 34.8374H269.036C268.886 35.4961 268.754 36.0042 268.641 36.3617L267.472 39.9805H266.388L264.7 33.793H265.683C266.082 35.3474 266.385 36.5311 266.592 37.344C266.802 38.157 266.923 38.7046 266.953 38.9869H266.998C267.039 38.7723 267.105 38.4957 267.196 38.157C267.29 37.8145 267.371 37.5435 267.438 37.344L268.573 33.793H269.589L270.696 37.344C270.907 37.9914 271.05 38.5352 271.125 38.9756H271.17C271.185 38.8401 271.225 38.6312 271.289 38.3489C271.356 38.0666 271.75 36.548 272.469 33.793H273.44L271.729 39.9805H270.617ZM278.368 39.9805L278.182 39.0998H278.137C277.828 39.4874 277.519 39.7509 277.211 39.8901C276.906 40.0256 276.524 40.0934 276.065 40.0934C275.451 40.0934 274.97 39.9353 274.62 39.6192C274.273 39.303 274.1 38.8533 274.1 38.2699C274.1 37.0203 275.099 36.3655 277.098 36.3053L278.148 36.2714V35.8875C278.148 35.402 278.043 35.0444 277.832 34.8148C277.625 34.5815 277.292 34.4648 276.833 34.4648C276.317 34.4648 275.734 34.6229 275.082 34.939L274.795 34.2221C275.099 34.0565 275.432 33.9266 275.794 33.8325C276.159 33.7384 276.524 33.6914 276.889 33.6914C277.627 33.6914 278.172 33.8551 278.526 34.1825C278.884 34.51 279.063 35.035 279.063 35.7576V39.9805H278.368ZM276.251 39.3199C276.834 39.3199 277.292 39.16 277.623 38.8401C277.958 38.5202 278.125 38.0723 278.125 37.4965V36.9375L277.188 36.9771C276.443 37.0034 275.905 37.1201 275.574 37.3271C275.246 37.5303 275.082 37.8484 275.082 38.2812C275.082 38.6199 275.184 38.8777 275.387 39.0546C275.594 39.2315 275.882 39.3199 276.251 39.3199ZM283.822 33.6801C284.096 33.6801 284.343 33.7027 284.561 33.7478L284.431 34.6173C284.175 34.5608 283.95 34.5326 283.754 34.5326C283.253 34.5326 282.824 34.7358 282.467 35.1423C282.113 35.5488 281.936 36.055 281.936 36.6609V39.9805H280.999V33.793H281.772L281.88 34.939H281.925C282.154 34.5363 282.431 34.2258 282.755 34.0075C283.078 33.7892 283.434 33.6801 283.822 33.6801ZM289.93 39.1506H289.879C289.446 39.7791 288.799 40.0934 287.937 40.0934C287.128 40.0934 286.498 39.8167 286.046 39.2635C285.598 38.7102 285.374 37.9236 285.374 36.9037C285.374 35.8837 285.6 35.0915 286.052 34.5269C286.503 33.9624 287.132 33.6801 287.937 33.6801C288.777 33.6801 289.42 33.985 289.868 34.5947H289.941L289.902 34.1487L289.879 33.714V31.1961H290.816V39.9805H290.054L289.93 39.1506ZM288.056 39.3087C288.696 39.3087 289.159 39.1355 289.445 38.7893C289.734 38.4392 289.879 37.8766 289.879 37.1013V36.9037C289.879 36.0267 289.732 35.402 289.439 35.0294C289.149 34.653 288.684 34.4648 288.044 34.4648C287.495 34.4648 287.073 34.6794 286.78 35.1084C286.49 35.5337 286.345 36.1359 286.345 36.915C286.345 37.7053 286.49 38.3019 286.78 38.7046C287.07 39.1073 287.495 39.3087 288.056 39.3087ZM296.801 38.2925C296.801 38.8683 296.586 39.3124 296.157 39.6248C295.728 39.9372 295.126 40.0934 294.351 40.0934C293.53 40.0934 292.89 39.9635 292.431 39.7038V38.8344C292.728 38.985 293.046 39.1035 293.385 39.1901C293.728 39.2767 294.057 39.3199 294.373 39.3199C294.862 39.3199 295.239 39.2428 295.502 39.0885C295.766 38.9304 295.897 38.6914 295.897 38.3715C295.897 38.1306 295.792 37.9255 295.581 37.7561C295.374 37.583 294.968 37.3798 294.362 37.1464C293.786 36.9319 293.376 36.7456 293.131 36.5875C292.89 36.4257 292.71 36.2432 292.589 36.0399C292.472 35.8367 292.414 35.5939 292.414 35.3116C292.414 34.8073 292.619 34.4102 293.029 34.1204C293.44 33.8269 294.002 33.6801 294.717 33.6801C295.384 33.6801 296.035 33.8156 296.671 34.0866L296.338 34.8487C295.717 34.5928 295.154 34.4648 294.65 34.4648C294.206 34.4648 293.871 34.5344 293.645 34.6737C293.419 34.813 293.306 35.0049 293.306 35.2495C293.306 35.4151 293.347 35.5563 293.43 35.673C293.517 35.7896 293.654 35.9007 293.842 36.006C294.031 36.1114 294.392 36.2639 294.926 36.4633C295.66 36.7305 296.155 36.9996 296.411 37.2706C296.671 37.5416 296.801 37.8822 296.801 38.2925Z" class="path-11"/>
<g clip-path="url(#clip3_13904_184784)">
<path d="M310.691 30.1992C307.499 30.1992 304.91 32.7886 304.91 35.9802C304.91 39.1737 307.499 41.7612 310.691 41.7612C313.884 41.7612 316.472 39.1737 316.472 35.9802C316.472 32.7886 313.884 30.1992 310.691 30.1992ZM310.691 40.6423C308.115 40.6423 306.029 38.5576 306.029 35.9802C306.029 33.4045 308.115 31.3181 310.691 31.3181C313.267 31.3181 315.353 33.4037 315.353 35.9802C315.353 38.5567 313.269 40.6423 310.691 40.6423ZM313.191 34.6935C313.191 36.2565 311.503 36.2805 311.503 36.8581V37.0059C311.503 37.1603 311.378 37.2856 311.223 37.2856H310.159C310.005 37.2856 309.88 37.1603 309.88 37.0059V36.804C309.88 35.9708 310.511 35.6377 310.989 35.3701C311.398 35.1406 311.649 34.9845 311.649 34.6806C311.649 34.2785 311.136 34.0117 310.722 34.0117C310.181 34.0117 309.931 34.2676 309.581 34.7103C309.486 34.8296 309.314 34.8518 309.192 34.7598L308.544 34.268C308.425 34.1777 308.398 34.0101 308.482 33.8866C309.033 33.0778 309.734 32.6235 310.826 32.6235C311.97 32.6235 313.191 33.5164 313.191 34.6935ZM311.67 38.591C311.67 39.1308 311.231 39.57 310.691 39.57C310.152 39.57 309.712 39.1308 309.712 38.591C309.712 38.0511 310.152 37.6119 310.691 37.6119C311.231 37.6119 311.67 38.0511 311.67 38.591Z" class="path-12"/>
</g>
<path d="M270.455 141.726C271.881 141.726 273.01 142.104 273.842 142.859C274.674 143.614 275.09 144.643 275.09 145.946C275.09 147.456 274.616 148.637 273.668 149.488C272.726 150.333 271.384 150.756 269.642 150.756C268.061 150.756 266.819 150.501 265.916 149.991V147.93C266.438 148.227 267.038 148.456 267.716 148.617C268.393 148.779 269.022 148.859 269.603 148.859C270.629 148.859 271.41 148.63 271.945 148.172C272.481 147.714 272.748 147.043 272.748 146.159C272.748 144.469 271.671 143.623 269.516 143.623C269.213 143.623 268.838 143.656 268.393 143.72C267.948 143.778 267.558 143.846 267.222 143.923L266.206 143.323L266.748 136.413H274.103V138.436H268.751L268.432 141.939C268.658 141.901 268.932 141.856 269.255 141.804C269.584 141.752 269.984 141.726 270.455 141.726ZM277.016 144.533C277.016 138.997 279.271 136.229 283.781 136.229C284.491 136.229 285.091 136.284 285.581 136.394V138.291C285.091 138.149 284.523 138.078 283.878 138.078C282.362 138.078 281.223 138.484 280.462 139.297C279.7 140.11 279.287 141.414 279.223 143.207H279.339C279.642 142.685 280.068 142.281 280.617 141.997C281.165 141.707 281.81 141.562 282.552 141.562C283.836 141.562 284.836 141.956 285.552 142.743C286.269 143.53 286.627 144.598 286.627 145.946C286.627 147.43 286.21 148.604 285.378 149.469C284.552 150.327 283.423 150.756 281.991 150.756C280.978 150.756 280.097 150.514 279.349 150.03C278.6 149.54 278.023 148.83 277.616 147.901C277.216 146.966 277.016 145.843 277.016 144.533ZM281.952 148.879C282.733 148.879 283.333 148.627 283.752 148.124C284.178 147.62 284.391 146.901 284.391 145.965C284.391 145.153 284.191 144.514 283.791 144.049C283.397 143.585 282.804 143.352 282.01 143.352C281.52 143.352 281.068 143.459 280.655 143.672C280.242 143.878 279.917 144.165 279.678 144.533C279.439 144.894 279.32 145.265 279.32 145.646C279.32 146.556 279.565 147.324 280.055 147.949C280.552 148.569 281.184 148.879 281.952 148.879ZM291.417 148.482C291.108 149.682 290.54 151.227 289.714 153.117H288.04C288.485 151.375 288.817 149.756 289.036 148.259H291.272L291.417 148.482ZM303.195 143.488C303.195 145.946 302.799 147.772 302.005 148.966C301.218 150.159 300.011 150.756 298.385 150.756C296.811 150.756 295.617 150.14 294.805 148.908C293.992 147.675 293.585 145.869 293.585 143.488C293.585 140.991 293.979 139.152 294.766 137.971C295.559 136.784 296.766 136.191 298.385 136.191C299.966 136.191 301.163 136.81 301.976 138.049C302.789 139.288 303.195 141.101 303.195 143.488ZM295.888 143.488C295.888 145.417 296.085 146.795 296.479 147.62C296.879 148.446 297.514 148.859 298.385 148.859C299.256 148.859 299.892 148.44 300.292 147.601C300.698 146.762 300.902 145.391 300.902 143.488C300.902 141.591 300.698 140.22 300.292 139.375C299.892 138.523 299.256 138.097 298.385 138.097C297.514 138.097 296.879 138.513 296.479 139.346C296.085 140.178 295.888 141.559 295.888 143.488ZM314.519 143.488C314.519 145.946 314.122 147.772 313.328 148.966C312.541 150.159 311.335 150.756 309.709 150.756C308.134 150.756 306.941 150.14 306.128 148.908C305.315 147.675 304.908 145.869 304.908 143.488C304.908 140.991 305.302 139.152 306.089 137.971C306.883 136.784 308.089 136.191 309.709 136.191C311.289 136.191 312.486 136.81 313.299 138.049C314.112 139.288 314.519 141.101 314.519 143.488ZM307.212 143.488C307.212 145.417 307.409 146.795 307.802 147.62C308.202 148.446 308.838 148.859 309.709 148.859C310.58 148.859 311.215 148.44 311.615 147.601C312.022 146.762 312.225 145.391 312.225 143.488C312.225 141.591 312.022 140.22 311.615 139.375C311.215 138.523 310.58 138.097 309.709 138.097C308.838 138.097 308.202 138.513 307.802 139.346C307.409 140.178 307.212 141.559 307.212 143.488ZM325.842 143.488C325.842 145.946 325.445 147.772 324.651 148.966C323.864 150.159 322.658 150.756 321.032 150.756C319.458 150.756 318.264 150.14 317.451 148.908C316.638 147.675 316.232 145.869 316.232 143.488C316.232 140.991 316.625 139.152 317.412 137.971C318.206 136.784 319.412 136.191 321.032 136.191C322.613 136.191 323.809 136.81 324.622 138.049C325.435 139.288 325.842 141.101 325.842 143.488ZM318.535 143.488C318.535 145.417 318.732 146.795 319.125 147.62C319.525 148.446 320.161 148.859 321.032 148.859C321.903 148.859 322.538 148.44 322.938 147.601C323.345 146.762 323.548 145.391 323.548 143.488C323.548 141.591 323.345 140.22 322.938 139.375C322.538 138.523 321.903 138.097 321.032 138.097C320.161 138.097 319.525 138.513 319.125 139.346C318.732 140.178 318.535 141.559 318.535 143.488ZM343.088 140.691C343.088 142.168 342.604 143.301 341.636 144.088C340.669 144.875 339.291 145.269 337.504 145.269H336.033V150.562H333.72V136.413H337.794C339.562 136.413 340.885 136.775 341.762 137.497C342.646 138.22 343.088 139.284 343.088 140.691ZM336.033 143.323H337.262C338.449 143.323 339.32 143.117 339.875 142.704C340.43 142.291 340.707 141.646 340.707 140.768C340.707 139.955 340.459 139.349 339.962 138.949C339.465 138.549 338.691 138.349 337.639 138.349H336.033V143.323ZM357.702 150.562H354.866L347.908 139.288H347.83L347.879 139.917C347.969 141.117 348.014 142.214 348.014 143.207V150.562H345.914V136.413H348.721L355.66 147.63H355.718C355.705 147.482 355.679 146.943 355.64 146.014C355.602 145.078 355.582 144.349 355.582 143.827V136.413H357.702V150.562ZM372.238 150.562H369.557L365.115 144.156L363.751 145.269V150.562H361.437V136.413H363.751V143.169C364.383 142.394 365.012 141.649 365.638 140.933L369.461 136.413H372.093C369.622 139.317 367.851 141.385 366.78 142.617L372.238 150.562Z" class="path-13"/>
<path d="M274.418 86.8096C274.418 87.7064 274.156 88.4549 273.634 89.0549C273.111 89.6485 272.376 90.0485 271.427 90.255V90.3324C272.563 90.4743 273.414 90.8292 273.982 91.397C274.55 91.9583 274.834 92.7067 274.834 93.6423C274.834 95.0036 274.353 96.0553 273.392 96.7973C272.431 97.5328 271.063 97.9006 269.288 97.9006C267.721 97.9006 266.398 97.6457 265.32 97.136V95.1133C265.92 95.4101 266.556 95.6392 267.227 95.8005C267.898 95.9618 268.543 96.0424 269.163 96.0424C270.259 96.0424 271.079 95.8392 271.621 95.4327C272.163 95.0262 272.434 94.3972 272.434 93.5455C272.434 92.7906 272.134 92.2357 271.534 91.8809C270.934 91.526 269.992 91.3486 268.708 91.3486H267.479V89.5001H268.727C270.985 89.5001 272.114 88.7194 272.114 87.158C272.114 86.5515 271.918 86.0838 271.524 85.7547C271.13 85.4257 270.55 85.2611 269.782 85.2611C269.246 85.2611 268.73 85.3386 268.234 85.4934C267.737 85.6418 267.15 85.9354 266.472 86.3741L265.359 84.7869C266.656 83.832 268.163 83.3546 269.879 83.3546C271.305 83.3546 272.418 83.661 273.218 84.274C274.018 84.8869 274.418 85.7321 274.418 86.8096ZM277.099 96.4973C277.099 96.0263 277.221 95.665 277.466 95.4133C277.712 95.1617 278.066 95.0359 278.531 95.0359C279.002 95.0359 279.36 95.1682 279.605 95.4327C279.85 95.6908 279.973 96.0456 279.973 96.4973C279.973 96.9554 279.847 97.3199 279.595 97.5909C279.35 97.8554 278.995 97.9877 278.531 97.9877C278.066 97.9877 277.712 97.8554 277.466 97.5909C277.221 97.3264 277.099 96.9618 277.099 96.4973ZM282.18 91.6776C282.18 86.1418 284.434 83.3739 288.944 83.3739C289.654 83.3739 290.254 83.4288 290.745 83.5385V85.4353C290.254 85.2934 289.686 85.2224 289.041 85.2224C287.525 85.2224 286.386 85.6289 285.625 86.4419C284.864 87.2548 284.451 88.5581 284.386 90.3518H284.502C284.805 89.8291 285.231 89.4259 285.78 89.142C286.328 88.8517 286.973 88.7065 287.715 88.7065C288.999 88.7065 289.999 89.1001 290.715 89.8872C291.432 90.6744 291.79 91.7422 291.79 93.0906C291.79 94.5746 291.374 95.7489 290.541 96.6134C289.715 97.4715 288.586 97.9006 287.154 97.9006C286.141 97.9006 285.26 97.6586 284.512 97.1747C283.763 96.6844 283.186 95.9747 282.78 95.0456C282.38 94.11 282.18 92.9874 282.18 91.6776ZM287.115 96.0231C287.896 96.0231 288.496 95.7714 288.915 95.2682C289.341 94.7649 289.554 94.0455 289.554 93.11C289.554 92.297 289.354 91.6583 288.954 91.1937C288.561 90.7292 287.967 90.4969 287.173 90.4969C286.683 90.4969 286.231 90.6034 285.818 90.8163C285.406 91.0228 285.08 91.3099 284.841 91.6776C284.602 92.039 284.483 92.4099 284.483 92.7906C284.483 93.7003 284.728 94.4681 285.218 95.094C285.715 95.7134 286.348 96.0231 287.115 96.0231ZM293.503 91.6776C293.503 86.1418 295.758 83.3739 300.268 83.3739C300.977 83.3739 301.577 83.4288 302.068 83.5385V85.4353C301.577 85.2934 301.01 85.2224 300.364 85.2224C298.848 85.2224 297.709 85.6289 296.948 86.4419C296.187 87.2548 295.774 88.5581 295.709 90.3518H295.825C296.129 89.8291 296.555 89.4259 297.103 89.142C297.651 88.8517 298.297 88.7065 299.039 88.7065C300.323 88.7065 301.323 89.1001 302.039 89.8872C302.755 90.6744 303.113 91.7422 303.113 93.0906C303.113 94.5746 302.697 95.7489 301.865 96.6134C301.039 97.4715 299.91 97.9006 298.477 97.9006C297.464 97.9006 296.584 97.6586 295.835 97.1747C295.087 96.6844 294.509 95.9747 294.103 95.0456C293.703 94.11 293.503 92.9874 293.503 91.6776ZM298.439 96.0231C299.219 96.0231 299.819 95.7714 300.239 95.2682C300.664 94.7649 300.877 94.0455 300.877 93.11C300.877 92.297 300.677 91.6583 300.277 91.1937C299.884 90.7292 299.29 90.4969 298.497 90.4969C298.006 90.4969 297.555 90.6034 297.142 90.8163C296.729 91.0228 296.403 91.3099 296.164 91.6776C295.925 92.039 295.806 92.4099 295.806 92.7906C295.806 93.7003 296.051 94.4681 296.542 95.094C297.038 95.7134 297.671 96.0231 298.439 96.0231ZM318.937 97.707H310.933V83.5578H318.937V85.5128H313.246V89.3646H318.578V91.3002H313.246V95.7424H318.937V97.707ZM326.892 97.707H324.579V85.5418H320.417V83.5578H331.053V85.5418H326.892V97.707ZM344.39 97.707H342.067V91.3292H335.544V97.707H333.231V83.5578H335.544V89.3452H342.067V83.5578H344.39V97.707Z" class="path-14"/>
<g clip-path="url(#clip4_13904_184784)">
<path d="M237.029 100.786L237.137 100.852L237.245 100.786L248.127 94.1065L237.137 110.201L226.148 94.1065L237.029 100.786ZM237.137 71.3376L248.555 91.0473L237.137 98.0606L225.712 91.0473L237.137 71.3376Z" stroke="url(#paint1_linear_13904_184784)" stroke-width="0.412928" class="path-15"/>
</g>
<path fill-rule="evenodd" clip-rule="evenodd" d="M230.978 128.738L247.453 129.813L254.262 144.864L244.953 158.469L228.107 157.752L221.303 141.28L230.978 128.738ZM231.397 129.592L228.827 142.12L243.925 135.053L231.397 129.592ZM244.342 135.63L229.021 142.801L242.06 152.581L244.342 135.63ZM241.563 153.082L228.695 143.431V156.943L241.563 153.082ZM227.996 155.651V143.015L222.28 141.812L227.996 155.651ZM222.321 141.106L228.073 142.317L230.495 130.509L222.321 141.106ZM230.432 157.151L244.196 157.737L242.146 153.637L230.432 157.151ZM242.772 153.326L244.821 157.424L252.43 146.302L242.772 153.326ZM252.661 143.021L247.205 130.961L245.195 134.981L252.661 143.021ZM244.609 134.589L233.115 129.578L246.673 130.462L244.609 134.589ZM245.021 135.822L242.782 152.454L253.338 144.778L245.021 135.822Z" fill="url(#paint2_linear_13904_184784)" class="path-16"/>
<defs>
<filter id="filter0_d_13904_184784" x="-2.47757" y="0.174145" width="408.955" height="199.955" filterUnits="userSpaceOnUse" color-interpolation-filters="sRGB">
<feFlood flood-opacity="0" result="BackgroundImageFix"/>
<feColorMatrix in="SourceAlpha" type="matrix" values="0 0 0 0 0 0 0 0 0 0 0 0 0 0 0 0 0 0 127 0" result="hardAlpha"/>
<feOffset dy="1.65171"/>
<feGaussianBlur stdDeviation="1.23878"/>
<feColorMatrix type="matrix" values="0 0 0 0 0 0 0 0 0 0 0 0 0 0 0 0 0 0 0.06 0"/>
<feBlend mode="normal" in2="BackgroundImageFix" result="effect1_dropShadow_13904_184784"/>
<feBlend mode="normal" in="SourceGraphic" in2="effect1_dropShadow_13904_184784" result="shape"/>
</filter>
<linearGradient id="paint0_linear_13904_184784" x1="59.9098" y1="131.491" x2="123.335" y2="103.742" gradientUnits="userSpaceOnUse">
<stop class="stop-1"/>
<stop offset="1" class="stop-2"/>
</linearGradient>
<linearGradient id="paint1_linear_13904_184784" x1="237.137" y1="70.9258" x2="237.137" y2="110.567" gradientUnits="userSpaceOnUse">
<stop class="stop-3"/>
<stop offset="1" class="stop-4"/>
</linearGradient>
<linearGradient id="paint2_linear_13904_184784" x1="237.783" y1="128.738" x2="237.783" y2="158.469" gradientUnits="userSpaceOnUse">
<stop class="stop-5"/>
<stop offset="1" class="stop-6"/>
</linearGradient>
<clipPath id="clip0_13904_184784">
<rect width="79.2821" height="79.2821" transform="translate(50 70.8398)" class="rect-3"/>
</clipPath>
<clipPath id="clip1_13904_184784">
<rect width="79.2821" height="79.2821" transform="translate(49.9998 70.8398)" class="rect-4"/>
</clipPath>
<clipPath id="clip2_13904_184784">
<rect width="11.562" height="11.562" transform="translate(147.013 160.383)" class="rect-5"/>
</clipPath>
<clipPath id="clip3_13904_184784">
<rect width="11.562" height="11.562" transform="translate(304.91 30.1992)" class="rect-6"/>
</clipPath>
<clipPath id="clip4_13904_184784">
<rect width="39.641" height="39.641" transform="translate(218 70.9258)" class="rect-7"/>
</clipPath>
</defs>
</svg>
