<svg viewBox="0 0 391 354" fill="none" xmlns="http://www.w3.org/2000/svg">
<g filter="url(#filter0_d_13917_210930)">
<rect x="3" y="1" width="385" height="348" rx="2.52183" class="rect-1"/>
<rect x="3.42031" y="1.42031" width="384.159" height="347.159" rx="2.10153" stroke-width="0.840611" class="rect-2"/>
</g>
<rect x="30.4203" y="278.799" width="330.159" height="36.9869" rx="2.10153" stroke-width="0.840611" class="rect-3"/>
<path d="M43.4628 293.587H44.6318L46.208 297.692C46.5538 298.629 46.7684 299.305 46.8516 299.721H46.9041C46.961 299.498 47.0792 299.117 47.2587 298.579C47.4426 298.036 48.038 296.372 49.045 293.587H50.214L47.1208 301.783C46.8143 302.593 46.4553 303.167 46.0438 303.504C45.6366 303.846 45.1353 304.016 44.5399 304.016C44.2071 304.016 43.8788 303.979 43.5548 303.905V303.031C43.7956 303.084 44.0648 303.11 44.3626 303.11C45.1112 303.11 45.6454 302.69 45.965 301.849L46.3656 300.825L43.4628 293.587ZM57.5956 297.18C57.5956 298.353 57.3001 299.27 56.709 299.931C56.118 300.588 55.3015 300.917 54.2594 300.917C53.6159 300.917 53.0445 300.765 52.5454 300.463C52.0463 300.161 51.661 299.728 51.3895 299.163C51.1181 298.598 50.9824 297.937 50.9824 297.18C50.9824 296.006 51.2757 295.094 51.8624 294.441C52.4491 293.784 53.2634 293.456 54.3054 293.456C55.3124 293.456 56.1114 293.791 56.7025 294.461C57.2979 295.131 57.5956 296.037 57.5956 297.18ZM52.1119 297.18C52.1119 298.099 52.2958 298.8 52.6636 299.281C53.0314 299.763 53.5721 300.004 54.2857 300.004C54.9994 300.004 55.5401 299.765 55.9078 299.288C56.28 298.806 56.466 298.104 56.466 297.18C56.466 296.265 56.28 295.571 55.9078 295.098C55.5401 294.621 54.995 294.382 54.2726 294.382C53.5589 294.382 53.0204 294.616 52.657 295.085C52.2936 295.553 52.1119 296.252 52.1119 297.18ZM60.5378 293.587V298.257C60.5378 298.843 60.6713 299.281 60.9384 299.57C61.2054 299.859 61.6235 300.004 62.1927 300.004C62.9458 300.004 63.4952 299.798 63.8411 299.386C64.1914 298.975 64.3665 298.303 64.3665 297.37V293.587H65.4566V300.785H64.5569L64.3993 299.82H64.3402C64.1169 300.174 63.8061 300.446 63.4077 300.634C63.0136 300.822 62.5627 300.917 62.0548 300.917C61.1792 300.917 60.5224 300.709 60.0846 300.293C59.6512 299.877 59.4345 299.211 59.4345 298.296V293.587H60.5378ZM71.0585 293.456C71.3781 293.456 71.6649 293.482 71.9188 293.535L71.7678 294.546C71.4701 294.481 71.2074 294.448 70.9797 294.448C70.3974 294.448 69.8983 294.684 69.4824 295.157C69.0708 295.63 68.8651 296.219 68.8651 296.924V300.785H67.7749V293.587H68.6746L68.7994 294.921H68.8519C69.119 294.452 69.4408 294.091 69.8173 293.837C70.1938 293.583 70.6076 293.456 71.0585 293.456ZM76.3058 300.917C75.2419 300.917 74.4013 300.593 73.784 299.945C73.171 299.297 72.8645 298.397 72.8645 297.245C72.8645 296.085 73.1491 295.164 73.7183 294.481C74.2918 293.798 75.0602 293.456 76.0234 293.456C76.9253 293.456 77.6389 293.754 78.1643 294.349C78.6897 294.94 78.9524 295.722 78.9524 296.694V297.383H73.9941C74.016 298.228 74.2283 298.87 74.6311 299.308C75.0383 299.745 75.6097 299.964 76.3452 299.964C77.1201 299.964 77.8863 299.802 78.6437 299.478V300.45C78.2585 300.617 77.8929 300.735 77.547 300.805C77.2055 300.879 76.7918 300.917 76.3058 300.917ZM76.0103 294.369C75.4323 294.369 74.9704 294.557 74.6246 294.934C74.2831 295.31 74.0817 295.831 74.0204 296.497H77.7834C77.7834 295.809 77.6302 295.284 77.3237 294.921C77.0172 294.553 76.5794 294.369 76.0103 294.369ZM89.992 300.785V296.103C89.992 295.529 89.8694 295.1 89.6242 294.816C89.379 294.527 88.9981 294.382 88.4815 294.382C87.8029 294.382 87.3016 294.577 86.9776 294.967C86.6536 295.356 86.4916 295.956 86.4916 296.766V300.785H85.4015V296.103C85.4015 295.529 85.2789 295.1 85.0337 294.816C84.7885 294.527 84.4054 294.382 83.8844 294.382C83.2014 294.382 82.7001 294.588 82.3805 294.999C82.0653 295.407 81.9077 296.076 81.9077 297.009V300.785H80.8175V293.587H81.7041L81.8814 294.573H81.9339C82.1397 294.222 82.4287 293.949 82.8008 293.752C83.1773 293.555 83.5977 293.456 84.0617 293.456C85.1869 293.456 85.9225 293.863 86.2683 294.678H86.3209C86.5354 294.301 86.8463 294.003 87.2534 293.784C87.6606 293.566 88.1247 293.456 88.6457 293.456C89.46 293.456 90.0686 293.666 90.4714 294.087C90.8786 294.502 91.0822 295.17 91.0822 296.09V300.785H89.992ZM97.7611 300.785L97.5444 299.761H97.4918C97.1328 300.212 96.7738 300.518 96.4148 300.68C96.0602 300.838 95.6158 300.917 95.0816 300.917C94.368 300.917 93.8076 300.733 93.4004 300.365C92.9976 299.997 92.7962 299.474 92.7962 298.795C92.7962 297.342 93.9586 296.58 96.2834 296.51L97.505 296.47V296.024C97.505 295.459 97.3824 295.043 97.1372 294.776C96.8964 294.505 96.5089 294.369 95.9748 294.369C95.375 294.369 94.6963 294.553 93.9389 294.921L93.604 294.087C93.9586 293.894 94.3461 293.743 94.7664 293.633C95.1911 293.524 95.6158 293.469 96.0405 293.469C96.8986 293.469 97.5334 293.66 97.945 294.041C98.3609 294.421 98.5689 295.032 98.5689 295.873V300.785H97.7611ZM95.2984 300.017C95.977 300.017 96.5089 299.831 96.8942 299.459C97.2839 299.086 97.4787 298.565 97.4787 297.896V297.245L96.3885 297.291C95.5216 297.322 94.8956 297.458 94.5103 297.699C94.1294 297.935 93.9389 298.305 93.9389 298.808C93.9389 299.202 94.0571 299.502 94.2936 299.708C94.5344 299.914 94.8693 300.017 95.2984 300.017ZM101.912 300.785H100.821V293.587H101.912V300.785ZM100.729 291.637C100.729 291.387 100.791 291.206 100.913 291.092C101.036 290.974 101.189 290.915 101.373 290.915C101.548 290.915 101.699 290.974 101.826 291.092C101.953 291.21 102.017 291.392 102.017 291.637C102.017 291.882 101.953 292.066 101.826 292.189C101.699 292.307 101.548 292.366 101.373 292.366C101.189 292.366 101.036 292.307 100.913 292.189C100.791 292.066 100.729 291.882 100.729 291.637ZM105.313 300.785H104.223V290.566H105.313V300.785ZM117.765 295.998C117.765 296.619 117.669 297.188 117.476 297.705C117.283 298.222 117.012 298.622 116.662 298.907C116.311 299.191 115.909 299.334 115.453 299.334C115.077 299.334 114.759 299.22 114.501 298.992C114.243 298.765 114.09 298.473 114.041 298.119H113.989C113.814 298.5 113.562 298.797 113.234 299.012C112.91 299.227 112.524 299.334 112.078 299.334C111.421 299.334 110.907 299.111 110.534 298.664C110.167 298.213 109.983 297.602 109.983 296.832C109.983 295.939 110.241 295.214 110.758 294.658C111.274 294.097 111.953 293.817 112.794 293.817C113.091 293.817 113.428 293.846 113.805 293.903C114.181 293.955 114.521 294.03 114.823 294.126L114.659 297.213V297.357C114.659 298.136 114.95 298.526 115.532 298.526C115.931 298.526 116.255 298.292 116.504 297.823C116.754 297.35 116.878 296.738 116.878 295.984C116.878 295.192 116.716 294.498 116.392 293.903C116.068 293.307 115.607 292.85 115.007 292.53C114.411 292.206 113.726 292.044 112.951 292.044C111.975 292.044 111.125 292.248 110.403 292.655C109.681 293.058 109.129 293.636 108.748 294.389C108.367 295.137 108.177 296.004 108.177 296.989C108.177 298.325 108.529 299.351 109.234 300.069C109.939 300.787 110.955 301.146 112.281 301.146C113.201 301.146 114.155 300.958 115.145 300.582V301.455C114.304 301.823 113.35 302.007 112.281 302.007C110.692 302.007 109.457 301.571 108.577 300.7C107.702 299.824 107.264 298.603 107.264 297.035C107.264 295.897 107.498 294.883 107.967 293.995C108.435 293.106 109.103 292.418 109.97 291.932C110.837 291.442 111.83 291.197 112.951 291.197C113.892 291.197 114.729 291.396 115.46 291.795C116.195 292.189 116.762 292.751 117.161 293.482C117.564 294.209 117.765 295.048 117.765 295.998ZM110.974 296.858C110.974 297.97 111.401 298.526 112.255 298.526C113.161 298.526 113.654 297.841 113.733 296.47L113.825 294.756C113.509 294.669 113.166 294.625 112.794 294.625C112.224 294.625 111.778 294.822 111.454 295.216C111.134 295.61 110.974 296.157 110.974 296.858ZM122.763 300.917C121.699 300.917 120.858 300.593 120.241 299.945C119.628 299.297 119.321 298.397 119.321 297.245C119.321 296.085 119.606 295.164 120.175 294.481C120.749 293.798 121.517 293.456 122.48 293.456C123.382 293.456 124.096 293.754 124.621 294.349C125.147 294.94 125.409 295.722 125.409 296.694V297.383H120.451C120.473 298.228 120.685 298.87 121.088 299.308C121.495 299.745 122.067 299.964 122.802 299.964C123.577 299.964 124.343 299.802 125.101 299.478V300.45C124.715 300.617 124.35 300.735 124.004 300.805C123.662 300.879 123.249 300.917 122.763 300.917ZM122.467 294.369C121.889 294.369 121.427 294.557 121.081 294.934C120.74 295.31 120.539 295.831 120.477 296.497H124.24C124.24 295.809 124.087 295.284 123.781 294.921C123.474 294.553 123.036 294.369 122.467 294.369ZM136.449 300.785V296.103C136.449 295.529 136.326 295.1 136.081 294.816C135.836 294.527 135.455 294.382 134.938 294.382C134.26 294.382 133.759 294.577 133.435 294.967C133.111 295.356 132.949 295.956 132.949 296.766V300.785H131.858V296.103C131.858 295.529 131.736 295.1 131.491 294.816C131.245 294.527 130.862 294.382 130.341 294.382C129.658 294.382 129.157 294.588 128.837 294.999C128.522 295.407 128.365 296.076 128.365 297.009V300.785H127.274V293.587H128.161L128.338 294.573H128.391C128.597 294.222 128.886 293.949 129.258 293.752C129.634 293.555 130.055 293.456 130.519 293.456C131.644 293.456 132.379 293.863 132.725 294.678H132.778C132.992 294.301 133.303 294.003 133.71 293.784C134.118 293.566 134.582 293.456 135.103 293.456C135.917 293.456 136.526 293.666 136.928 294.087C137.335 294.502 137.539 295.17 137.539 296.09V300.785H136.449ZM144.218 300.785L144.001 299.761H143.949C143.59 300.212 143.231 300.518 142.872 300.68C142.517 300.838 142.073 300.917 141.539 300.917C140.825 300.917 140.264 300.733 139.857 300.365C139.455 299.997 139.253 299.474 139.253 298.795C139.253 297.342 140.416 296.58 142.74 296.51L143.962 296.47V296.024C143.962 295.459 143.839 295.043 143.594 294.776C143.353 294.505 142.966 294.369 142.432 294.369C141.832 294.369 141.153 294.553 140.396 294.921L140.061 294.087C140.416 293.894 140.803 293.743 141.223 293.633C141.648 293.524 142.073 293.469 142.497 293.469C143.355 293.469 143.99 293.66 144.402 294.041C144.818 294.421 145.026 295.032 145.026 295.873V300.785H144.218ZM141.755 300.017C142.434 300.017 142.966 299.831 143.351 299.459C143.741 299.086 143.936 298.565 143.936 297.896V297.245L142.845 297.291C141.979 297.322 141.352 297.458 140.967 297.699C140.586 297.935 140.396 298.305 140.396 298.808C140.396 299.202 140.514 299.502 140.75 299.708C140.991 299.914 141.326 300.017 141.755 300.017ZM148.369 300.785H147.278V293.587H148.369V300.785ZM147.186 291.637C147.186 291.387 147.248 291.206 147.37 291.092C147.493 290.974 147.646 290.915 147.83 290.915C148.005 290.915 148.156 290.974 148.283 291.092C148.41 291.21 148.474 291.392 148.474 291.637C148.474 291.882 148.41 292.066 148.283 292.189C148.156 292.307 148.005 292.366 147.83 292.366C147.646 292.366 147.493 292.307 147.37 292.189C147.248 292.066 147.186 291.882 147.186 291.637ZM151.77 300.785H150.68V290.566H151.77V300.785ZM153.924 300.089C153.924 299.796 153.99 299.575 154.121 299.426C154.257 299.272 154.45 299.196 154.699 299.196C154.953 299.196 155.15 299.272 155.29 299.426C155.435 299.575 155.507 299.796 155.507 300.089C155.507 300.374 155.435 300.593 155.29 300.746C155.146 300.899 154.949 300.976 154.699 300.976C154.476 300.976 154.29 300.908 154.141 300.772C153.997 300.632 153.924 300.404 153.924 300.089ZM160.544 300.917C159.502 300.917 158.694 300.597 158.121 299.958C157.552 299.314 157.267 298.406 157.267 297.232C157.267 296.028 157.556 295.098 158.134 294.441C158.716 293.784 159.544 293.456 160.616 293.456C160.962 293.456 161.308 293.493 161.654 293.568C162 293.642 162.271 293.73 162.468 293.83L162.134 294.756C161.893 294.66 161.63 294.581 161.345 294.52C161.061 294.454 160.809 294.421 160.59 294.421C159.128 294.421 158.397 295.354 158.397 297.219C158.397 298.104 158.574 298.782 158.929 299.255C159.288 299.728 159.817 299.964 160.518 299.964C161.118 299.964 161.733 299.835 162.363 299.577V300.542C161.882 300.792 161.275 300.917 160.544 300.917ZM170.29 297.18C170.29 298.353 169.995 299.27 169.403 299.931C168.812 300.588 167.996 300.917 166.954 300.917C166.31 300.917 165.739 300.765 165.24 300.463C164.741 300.161 164.355 299.728 164.084 299.163C163.813 298.598 163.677 297.937 163.677 297.18C163.677 296.006 163.97 295.094 164.557 294.441C165.144 293.784 165.958 293.456 167 293.456C168.007 293.456 168.806 293.791 169.397 294.461C169.992 295.131 170.29 296.037 170.29 297.18ZM164.806 297.18C164.806 298.099 164.99 298.8 165.358 299.281C165.726 299.763 166.267 300.004 166.98 300.004C167.694 300.004 168.235 299.765 168.602 299.288C168.974 298.806 169.161 298.104 169.161 297.18C169.161 296.265 168.974 295.571 168.602 295.098C168.235 294.621 167.689 294.382 166.967 294.382C166.253 294.382 165.715 294.616 165.351 295.085C164.988 295.553 164.806 296.252 164.806 297.18ZM181.382 300.785V296.103C181.382 295.529 181.26 295.1 181.014 294.816C180.769 294.527 180.388 294.382 179.872 294.382C179.193 294.382 178.692 294.577 178.368 294.967C178.044 295.356 177.882 295.956 177.882 296.766V300.785H176.792V296.103C176.792 295.529 176.669 295.1 176.424 294.816C176.179 294.527 175.796 294.382 175.275 294.382C174.592 294.382 174.09 294.588 173.771 294.999C173.456 295.407 173.298 296.076 173.298 297.009V300.785H172.208V293.587H173.094L173.272 294.573H173.324C173.53 294.222 173.819 293.949 174.191 293.752C174.568 293.555 174.988 293.456 175.452 293.456C176.577 293.456 177.313 293.863 177.659 294.678H177.711C177.926 294.301 178.236 294.003 178.644 293.784C179.051 293.566 179.515 293.456 180.036 293.456C180.85 293.456 181.459 293.666 181.862 294.087C182.269 294.502 182.472 295.17 182.472 296.09V300.785H181.382Z" class="path-1"/>
<path d="M65.2865 184.645H64.3211L62.6259 179.019C62.5454 178.77 62.4554 178.456 62.3558 178.076C62.2562 177.697 62.2045 177.469 62.2007 177.393C62.1164 177.898 61.9823 178.452 61.7984 179.053L60.155 184.645H59.1896L56.9542 176.243H57.9886L59.316 181.432C59.4999 182.16 59.6339 182.819 59.7182 183.409C59.8217 182.708 59.9749 182.022 60.1779 181.352L61.6835 176.243H62.7178L64.2981 181.398C64.482 181.992 64.6371 182.662 64.7635 183.409C64.8363 182.865 64.9742 182.202 65.1773 181.421L66.4989 176.243H67.5333L65.2865 184.645ZM73.0153 184.645V180.57C73.0153 180.057 72.8985 179.674 72.6648 179.421C72.4311 179.168 72.0653 179.042 71.5672 179.042C70.9045 179.042 70.4199 179.222 70.1134 179.582C69.8108 179.942 69.6594 180.532 69.6594 181.352V184.645H68.7055V175.703H69.6594V178.41C69.6594 178.735 69.6441 179.005 69.6135 179.22H69.6709C69.8586 178.917 70.1249 178.68 70.4697 178.507C70.8183 178.331 71.2148 178.243 71.6592 178.243C72.4292 178.243 73.0057 178.427 73.3888 178.795C73.7758 179.159 73.9692 179.739 73.9692 180.536V184.645H73.0153ZM78.595 184.759C77.6641 184.759 76.9286 184.476 76.3884 183.909C75.8521 183.342 75.5839 182.555 75.5839 181.547C75.5839 180.532 75.833 179.726 76.331 179.128C76.8328 178.53 77.5051 178.232 78.3479 178.232C79.1371 178.232 79.7616 178.492 80.2213 179.013C80.681 179.53 80.9108 180.214 80.9108 181.065V181.668H76.5723C76.5915 182.407 76.7773 182.969 77.1297 183.352C77.486 183.735 77.9859 183.926 78.6295 183.926C79.3076 183.926 79.978 183.784 80.6407 183.501V184.351C80.3036 184.497 79.9837 184.6 79.6811 184.662C79.3823 184.727 79.0203 184.759 78.595 184.759ZM78.3365 179.03C77.8308 179.03 77.4266 179.195 77.124 179.525C76.8252 179.854 76.6489 180.31 76.5953 180.892H79.888C79.888 180.291 79.7539 179.831 79.4857 179.513C79.2176 179.191 78.8345 179.03 78.3365 179.03ZM86.8526 184.645V180.57C86.8526 180.057 86.7357 179.674 86.502 179.421C86.2684 179.168 85.9025 179.042 85.4045 179.042C84.7456 179.042 84.2629 179.22 83.9564 179.576C83.6499 179.933 83.4967 180.521 83.4967 181.34V184.645H82.5428V178.347H83.3186L83.4737 179.208H83.5197C83.7151 178.898 83.989 178.659 84.3414 178.49C84.6939 178.318 85.0865 178.232 85.5194 178.232C86.2779 178.232 86.8487 178.415 87.2318 178.783C87.6149 179.147 87.8065 179.731 87.8065 180.536V184.645H86.8526ZM94.3458 181.421L92.1565 178.347H93.2425L94.9032 180.76L96.5582 178.347H97.6328L95.4434 181.421L97.7477 184.645H96.6674L94.9032 182.093L93.1219 184.645H92.0415L94.3458 181.421ZM98.8625 184.035C98.8625 183.779 98.9199 183.585 99.0349 183.455C99.1536 183.321 99.3222 183.254 99.5405 183.254C99.7627 183.254 99.9351 183.321 100.058 183.455C100.184 183.585 100.247 183.779 100.247 184.035C100.247 184.284 100.184 184.476 100.058 184.61C99.9313 184.744 99.7589 184.811 99.5405 184.811C99.3452 184.811 99.1824 184.752 99.0521 184.633C98.9257 184.51 98.8625 184.311 98.8625 184.035Z" class="path-2"/>
<path d="M65.2865 214.906H64.3211L62.6259 209.281C62.5454 209.032 62.4554 208.717 62.3558 208.338C62.2562 207.959 62.2045 207.731 62.2007 207.654C62.1164 208.16 61.9823 208.714 61.7984 209.315L60.155 214.906H59.1896L56.9542 206.505H57.9886L59.316 211.694C59.4999 212.422 59.6339 213.081 59.7182 213.671C59.8217 212.97 59.9749 212.284 60.1779 211.614L61.6835 206.505H62.7178L64.2981 211.66C64.482 212.253 64.6371 212.924 64.7635 213.671C64.8363 213.127 64.9742 212.464 65.1773 211.683L66.4989 206.505H67.5333L65.2865 214.906ZM73.0153 214.906V210.832C73.0153 210.319 72.8985 209.936 72.6648 209.683C72.4311 209.43 72.0653 209.304 71.5672 209.304C70.9045 209.304 70.4199 209.484 70.1134 209.844C69.8108 210.204 69.6594 210.794 69.6594 211.614V214.906H68.7055V205.965H69.6594V208.671C69.6594 208.997 69.6441 209.267 69.6135 209.482H69.6709C69.8586 209.179 70.1249 208.942 70.4697 208.769C70.8183 208.593 71.2148 208.505 71.6592 208.505C72.4292 208.505 73.0057 208.689 73.3888 209.056C73.7758 209.42 73.9692 210.001 73.9692 210.798V214.906H73.0153ZM78.595 215.021C77.6641 215.021 76.9286 214.738 76.3884 214.171C75.8521 213.604 75.5839 212.816 75.5839 211.809C75.5839 210.794 75.833 209.987 76.331 209.39C76.8328 208.792 77.5051 208.493 78.3479 208.493C79.1371 208.493 79.7616 208.754 80.2213 209.275C80.681 209.792 80.9108 210.476 80.9108 211.326V211.93H76.5723C76.5915 212.669 76.7773 213.23 77.1297 213.613C77.486 213.996 77.9859 214.188 78.6295 214.188C79.3076 214.188 79.978 214.046 80.6407 213.763V214.613C80.3036 214.759 79.9837 214.862 79.6811 214.923C79.3823 214.989 79.0203 215.021 78.595 215.021ZM78.3365 209.292C77.8308 209.292 77.4266 209.457 77.124 209.786C76.8252 210.116 76.6489 210.572 76.5953 211.154H79.888C79.888 210.552 79.7539 210.093 79.4857 209.775C79.2176 209.453 78.8345 209.292 78.3365 209.292ZM86.8526 214.906V210.832C86.8526 210.319 86.7357 209.936 86.502 209.683C86.2684 209.43 85.9025 209.304 85.4045 209.304C84.7456 209.304 84.2629 209.482 83.9564 209.838C83.6499 210.194 83.4967 210.782 83.4967 211.602V214.906H82.5428V208.608H83.3186L83.4737 209.47H83.5197C83.7151 209.16 83.989 208.92 84.3414 208.752C84.6939 208.58 85.0865 208.493 85.5194 208.493C86.2779 208.493 86.8487 208.677 87.2318 209.045C87.6149 209.409 87.8065 209.993 87.8065 210.798V214.906H86.8526ZM91.8289 208.608H92.8518L94.2309 212.2C94.5335 213.02 94.7213 213.611 94.794 213.975H94.84C94.8898 213.78 94.9933 213.447 95.1503 212.975C95.3112 212.5 95.8322 211.045 96.7133 208.608H97.7362L95.0296 215.78C94.7615 216.488 94.4473 216.99 94.0872 217.285C93.731 217.584 93.2923 217.733 92.7713 217.733C92.4802 217.733 92.1929 217.701 91.9094 217.636V216.872C92.1201 216.917 92.3557 216.94 92.6162 216.94C93.2713 216.94 93.7386 216.573 94.0183 215.837L94.3688 214.941L91.8289 208.608ZM98.6211 214.297C98.6211 214.04 98.6786 213.847 98.7935 213.717C98.9123 213.583 99.0808 213.516 99.2992 213.516C99.5214 213.516 99.6938 213.583 99.8164 213.717C99.9428 213.847 100.006 214.04 100.006 214.297C100.006 214.546 99.9428 214.738 99.8164 214.872C99.69 215.006 99.5176 215.073 99.2992 215.073C99.1038 215.073 98.941 215.014 98.8108 214.895C98.6843 214.772 98.6211 214.573 98.6211 214.297Z" class="path-3"/>
<path d="M65.2865 245.168H64.3211L62.6259 239.542C62.5454 239.293 62.4554 238.979 62.3558 238.6C62.2562 238.221 62.2045 237.993 62.2007 237.916C62.1164 238.422 61.9823 238.975 61.7984 239.577L60.155 245.168H59.1896L56.9542 236.767H57.9886L59.316 241.956C59.4999 242.684 59.6339 243.343 59.7182 243.932C59.8217 243.231 59.9749 242.546 60.1779 241.875L61.6835 236.767H62.7178L64.2981 241.921C64.482 242.515 64.6371 243.185 64.7635 243.932C64.8363 243.389 64.9742 242.726 65.1773 241.944L66.4989 236.767H67.5333L65.2865 245.168ZM73.0153 245.168V241.094C73.0153 240.58 72.8985 240.197 72.6648 239.945C72.4311 239.692 72.0653 239.565 71.5672 239.565C70.9045 239.565 70.4199 239.745 70.1134 240.105C69.8108 240.466 69.6594 241.055 69.6594 241.875V245.168H68.7055V236.227H69.6594V238.933C69.6594 239.259 69.6441 239.529 69.6135 239.743H69.6709C69.8586 239.441 70.1249 239.203 70.4697 239.031C70.8183 238.855 71.2148 238.767 71.6592 238.767C72.4292 238.767 73.0057 238.95 73.3888 239.318C73.7758 239.682 73.9692 240.262 73.9692 241.059V245.168H73.0153ZM78.595 245.283C77.6641 245.283 76.9286 244.999 76.3884 244.432C75.8521 243.865 75.5839 243.078 75.5839 242.071C75.5839 241.055 75.833 240.249 76.331 239.651C76.8328 239.054 77.5051 238.755 78.3479 238.755C79.1371 238.755 79.7616 239.016 80.2213 239.537C80.681 240.054 80.9108 240.738 80.9108 241.588V242.191H76.5723C76.5915 242.931 76.7773 243.492 77.1297 243.875C77.486 244.258 77.9859 244.45 78.6295 244.45C79.3076 244.45 79.978 244.308 80.6407 244.024V244.875C80.3036 245.02 79.9837 245.124 79.6811 245.185C79.3823 245.25 79.0203 245.283 78.595 245.283ZM78.3365 239.554C77.8308 239.554 77.4266 239.718 77.124 240.048C76.8252 240.377 76.6489 240.833 76.5953 241.416H79.888C79.888 240.814 79.7539 240.354 79.4857 240.036C79.2176 239.715 78.8345 239.554 78.3365 239.554ZM86.8526 245.168V241.094C86.8526 240.58 86.7357 240.197 86.502 239.945C86.2684 239.692 85.9025 239.565 85.4045 239.565C84.7456 239.565 84.2629 239.743 83.9564 240.1C83.6499 240.456 83.4967 241.044 83.4967 241.864V245.168H82.5428V238.87H83.3186L83.4737 239.732H83.5197C83.7151 239.422 83.989 239.182 84.3414 239.014C84.6939 238.841 85.0865 238.755 85.5194 238.755C86.2779 238.755 86.8487 238.939 87.2318 239.307C87.6149 239.671 87.8065 240.255 87.8065 241.059V245.168H86.8526ZM96.857 245.168H92.2886V244.519L95.725 239.611H92.5012V238.87H96.7708V239.611L93.3804 244.427H96.857V245.168ZM98.1959 244.559C98.1959 244.302 98.2534 244.109 98.3683 243.978C98.487 243.844 98.6556 243.777 98.874 243.777C99.0962 243.777 99.2686 243.844 99.3911 243.978C99.5176 244.109 99.5808 244.302 99.5808 244.559C99.5808 244.808 99.5176 244.999 99.3911 245.133C99.2647 245.268 99.0923 245.335 98.874 245.335C98.6786 245.335 98.5158 245.275 98.3855 245.156C98.2591 245.034 98.1959 244.835 98.1959 244.559Z" class="path-4"/>
<g clip-path="url(#clip0_13917_210930)">
<rect x="29.8997" y="173.324" width="13.4498" height="13.4498" rx="2.52183" class="rect-4"/>
<path d="M40.7808 176.688H39.7889C39.5732 176.688 39.368 176.791 39.2411 176.969L35.9166 181.579L34.4108 179.49C34.2839 179.314 34.0808 179.208 33.863 179.208H32.8711C32.7337 179.208 32.6533 179.365 32.7337 179.477L35.3688 183.132C35.431 183.218 35.5131 183.289 35.6082 183.338C35.7033 183.387 35.8086 183.412 35.9155 183.412C36.0224 183.412 36.1277 183.387 36.2228 183.338C36.3179 183.289 36.3999 183.218 36.4622 183.132L40.9161 176.956C40.9986 176.844 40.9183 176.688 40.7808 176.688Z" class="path-5"/>
<rect x="30.32" y="204.006" width="12.6092" height="12.6092" rx="2.10153" stroke-width="0.840611" class="rect-5"/>
<rect x="30.32" y="234.268" width="12.6092" height="12.6092" rx="2.10153" stroke-width="0.840611" class="rect-6"/>
</g>
<path d="M131.332 138.483C131.332 139.336 131.024 140.006 130.406 140.492C129.789 140.978 128.937 141.221 127.852 141.221C126.766 141.221 125.877 141.053 125.185 140.716V139.231C125.623 139.437 126.087 139.599 126.578 139.717C127.072 139.835 127.532 139.895 127.957 139.895C128.578 139.895 129.036 139.776 129.329 139.54C129.627 139.304 129.776 138.986 129.776 138.588C129.776 138.229 129.64 137.924 129.369 137.675C129.097 137.425 128.537 137.13 127.687 136.788C126.812 136.434 126.194 136.029 125.835 135.573C125.476 135.118 125.297 134.571 125.297 133.932C125.297 133.13 125.581 132.5 126.151 132.04C126.72 131.58 127.484 131.351 128.443 131.351C129.362 131.351 130.277 131.552 131.188 131.955L130.689 133.235C129.835 132.876 129.073 132.697 128.403 132.697C127.895 132.697 127.51 132.809 127.247 133.032C126.985 133.251 126.853 133.542 126.853 133.905C126.853 134.155 126.906 134.369 127.011 134.549C127.116 134.724 127.289 134.89 127.53 135.048C127.771 135.206 128.204 135.414 128.83 135.672C129.535 135.965 130.052 136.239 130.38 136.493C130.708 136.747 130.949 137.033 131.102 137.353C131.256 137.673 131.332 138.049 131.332 138.483ZM136.199 141.221C135.069 141.221 134.185 140.893 133.545 140.236C132.911 139.575 132.593 138.667 132.593 137.511C132.593 136.324 132.889 135.392 133.48 134.713C134.071 134.034 134.883 133.695 135.916 133.695C136.875 133.695 137.632 133.986 138.188 134.569C138.745 135.151 139.023 135.952 139.023 136.972V137.806H134.182C134.204 138.511 134.395 139.054 134.754 139.435C135.113 139.811 135.618 140 136.271 140C136.7 140 137.098 139.96 137.466 139.881C137.838 139.798 138.237 139.663 138.661 139.474V140.729C138.285 140.908 137.904 141.035 137.519 141.11C137.133 141.184 136.693 141.221 136.199 141.221ZM135.916 134.864C135.426 134.864 135.032 135.019 134.734 135.33C134.441 135.641 134.266 136.094 134.209 136.69H137.505C137.497 136.09 137.352 135.637 137.072 135.33C136.792 135.019 136.407 134.864 135.916 134.864ZM147.166 141.09H145.616V136.624C145.616 136.064 145.502 135.646 145.275 135.37C145.051 135.094 144.694 134.956 144.204 134.956C143.552 134.956 143.075 135.149 142.772 135.534C142.47 135.919 142.319 136.565 142.319 137.471V141.09H140.776V133.826H141.984L142.201 134.779H142.28C142.499 134.433 142.81 134.166 143.212 133.977C143.615 133.789 144.062 133.695 144.552 133.695C146.295 133.695 147.166 134.582 147.166 136.355V141.09ZM151.763 141.221C150.857 141.221 150.15 140.893 149.642 140.236C149.134 139.579 148.88 138.658 148.88 137.471C148.88 136.28 149.136 135.354 149.648 134.693C150.165 134.028 150.879 133.695 151.789 133.695C152.744 133.695 153.471 134.048 153.97 134.752H154.048C153.974 134.231 153.937 133.82 153.937 133.518V130.871H155.487V141.09H154.278L154.009 140.138H153.937C153.442 140.86 152.717 141.221 151.763 141.221ZM152.177 139.973C152.812 139.973 153.274 139.796 153.562 139.441C153.851 139.082 154 138.502 154.009 137.701V137.484C154.009 136.569 153.86 135.919 153.562 135.534C153.265 135.149 152.798 134.956 152.164 134.956C151.621 134.956 151.203 135.177 150.909 135.619C150.616 136.057 150.469 136.683 150.469 137.498C150.469 138.303 150.612 138.918 150.896 139.343C151.181 139.763 151.608 139.973 152.177 139.973ZM165.502 141.09L162.717 133.071H162.665C162.739 134.262 162.776 135.379 162.776 136.421V141.09H161.351V131.488H163.564L166.231 139.126H166.27L169.015 131.488H171.235V141.09H169.725V136.342C169.725 135.864 169.735 135.243 169.757 134.477C169.784 133.71 169.806 133.246 169.823 133.084H169.771L166.887 141.09H165.502ZM176.771 141.221C175.642 141.221 174.757 140.893 174.118 140.236C173.483 139.575 173.166 138.667 173.166 137.511C173.166 136.324 173.461 135.392 174.052 134.713C174.643 134.034 175.456 133.695 176.489 133.695C177.448 133.695 178.205 133.986 178.761 134.569C179.317 135.151 179.595 135.952 179.595 136.972V137.806H174.755C174.777 138.511 174.967 139.054 175.326 139.435C175.685 139.811 176.191 140 176.843 140C177.273 140 177.671 139.96 178.039 139.881C178.411 139.798 178.809 139.663 179.234 139.474V140.729C178.857 140.908 178.477 141.035 178.091 141.11C177.706 141.184 177.266 141.221 176.771 141.221ZM176.489 134.864C175.998 134.864 175.604 135.019 175.307 135.33C175.013 135.641 174.838 136.094 174.781 136.69H178.078C178.069 136.09 177.925 135.637 177.645 135.33C177.364 135.019 176.979 134.864 176.489 134.864ZM193.006 141.09H191.081L186.359 133.439H186.307L186.34 133.866C186.401 134.68 186.432 135.424 186.432 136.099V141.09H185.007V131.488H186.911L191.62 139.1H191.659C191.65 138.999 191.633 138.634 191.607 138.003C191.58 137.368 191.567 136.874 191.567 136.519V131.488H193.006V141.09ZM201.819 137.445C201.819 138.631 201.515 139.557 200.906 140.223C200.297 140.888 199.45 141.221 198.364 141.221C197.686 141.221 197.086 141.068 196.565 140.761C196.044 140.455 195.643 140.015 195.363 139.441C195.083 138.868 194.943 138.202 194.943 137.445C194.943 136.267 195.245 135.348 195.849 134.687C196.453 134.026 197.305 133.695 198.404 133.695C199.455 133.695 200.286 134.034 200.899 134.713C201.512 135.387 201.819 136.298 201.819 137.445ZM196.532 137.445C196.532 139.122 197.152 139.96 198.391 139.96C199.617 139.96 200.23 139.122 200.23 137.445C200.23 135.786 199.612 134.956 198.378 134.956C197.73 134.956 197.259 135.171 196.966 135.6C196.677 136.029 196.532 136.644 196.532 137.445ZM206.304 139.973C206.681 139.973 207.057 139.914 207.434 139.796V140.958C207.263 141.033 207.042 141.094 206.771 141.142C206.503 141.195 206.225 141.221 205.936 141.221C204.474 141.221 203.743 140.451 203.743 138.91V134.995H202.751V134.312L203.815 133.748L204.341 132.211H205.293V133.826H207.362V134.995H205.293V138.883C205.293 139.255 205.385 139.531 205.569 139.711C205.757 139.886 206.002 139.973 206.304 139.973ZM210.435 141.09H208.892V133.826H210.435V141.09ZM208.8 131.902C208.8 131.626 208.874 131.414 209.023 131.265C209.176 131.116 209.393 131.042 209.673 131.042C209.945 131.042 210.155 131.116 210.304 131.265C210.457 131.414 210.534 131.626 210.534 131.902C210.534 132.165 210.457 132.373 210.304 132.526C210.155 132.675 209.945 132.749 209.673 132.749C209.393 132.749 209.176 132.675 209.023 132.526C208.874 132.373 208.8 132.165 208.8 131.902ZM216.293 134.995H214.52V141.09H212.97V134.995H211.775V134.273L212.97 133.8V133.327C212.97 132.469 213.171 131.834 213.574 131.423C213.977 131.007 214.592 130.799 215.42 130.799C215.963 130.799 216.497 130.889 217.022 131.068L216.615 132.237C216.234 132.115 215.871 132.053 215.525 132.053C215.174 132.053 214.918 132.163 214.756 132.382C214.599 132.596 214.52 132.92 214.52 133.354V133.826H216.293V134.995ZM219.071 141.09H217.528V133.826H219.071V141.09ZM217.436 131.902C217.436 131.626 217.51 131.414 217.659 131.265C217.812 131.116 218.029 131.042 218.309 131.042C218.581 131.042 218.791 131.116 218.94 131.265C219.093 131.414 219.17 131.626 219.17 131.902C219.17 132.165 219.093 132.373 218.94 132.526C218.791 132.675 218.581 132.749 218.309 132.749C218.029 132.749 217.812 132.675 217.659 132.526C217.51 132.373 217.436 132.165 217.436 131.902ZM224.22 141.221C223.121 141.221 222.285 140.902 221.711 140.262C221.142 139.619 220.857 138.697 220.857 137.498C220.857 136.276 221.155 135.337 221.75 134.68C222.35 134.023 223.215 133.695 224.345 133.695C225.111 133.695 225.8 133.837 226.413 134.122L225.947 135.363C225.295 135.109 224.756 134.982 224.331 134.982C223.075 134.982 222.447 135.816 222.447 137.484C222.447 138.299 222.602 138.912 222.913 139.323C223.228 139.73 223.688 139.934 224.292 139.934C224.979 139.934 225.63 139.763 226.243 139.422V140.768C225.967 140.93 225.671 141.046 225.356 141.116C225.045 141.186 224.666 141.221 224.22 141.221ZM232.495 141.09L232.186 140.078H232.133C231.783 140.521 231.431 140.823 231.076 140.985C230.721 141.142 230.266 141.221 229.71 141.221C228.996 141.221 228.438 141.029 228.035 140.643C227.637 140.258 227.438 139.713 227.438 139.008C227.438 138.259 227.716 137.695 228.272 137.314C228.828 136.933 229.675 136.725 230.813 136.69L232.068 136.65V136.263C232.068 135.799 231.958 135.453 231.739 135.225C231.525 134.993 231.19 134.877 230.735 134.877C230.362 134.877 230.006 134.932 229.664 135.041C229.323 135.151 228.994 135.28 228.679 135.429L228.18 134.326C228.574 134.12 229.005 133.964 229.474 133.859C229.942 133.75 230.384 133.695 230.8 133.695C231.724 133.695 232.42 133.896 232.889 134.299C233.361 134.702 233.598 135.335 233.598 136.197V141.09H232.495ZM230.196 140.039C230.756 140.039 231.205 139.884 231.542 139.573C231.884 139.258 232.055 138.818 232.055 138.253V137.622L231.122 137.662C230.395 137.688 229.865 137.811 229.533 138.029C229.204 138.244 229.04 138.575 229.04 139.021C229.04 139.345 229.137 139.597 229.329 139.776C229.522 139.952 229.811 140.039 230.196 140.039ZM238.458 139.973C238.834 139.973 239.211 139.914 239.587 139.796V140.958C239.416 141.033 239.195 141.094 238.924 141.142C238.657 141.195 238.379 141.221 238.09 141.221C236.628 141.221 235.896 140.451 235.896 138.91V134.995H234.905V134.312L235.969 133.748L236.494 132.211H237.446V133.826H239.515V134.995H237.446V138.883C237.446 139.255 237.538 139.531 237.722 139.711C237.91 139.886 238.156 139.973 238.458 139.973ZM242.588 141.09H241.045V133.826H242.588V141.09ZM240.953 131.902C240.953 131.626 241.028 131.414 241.176 131.265C241.33 131.116 241.546 131.042 241.827 131.042C242.098 131.042 242.308 131.116 242.457 131.265C242.61 131.414 242.687 131.626 242.687 131.902C242.687 132.165 242.61 132.373 242.457 132.526C242.308 132.675 242.098 132.749 241.827 132.749C241.546 132.749 241.33 132.675 241.176 132.526C241.028 132.373 240.953 132.165 240.953 131.902ZM251.244 137.445C251.244 138.631 250.94 139.557 250.331 140.223C249.723 140.888 248.876 141.221 247.79 141.221C247.111 141.221 246.511 141.068 245.99 140.761C245.469 140.455 245.069 140.015 244.789 139.441C244.508 138.868 244.368 138.202 244.368 137.445C244.368 136.267 244.67 135.348 245.274 134.687C245.879 134.026 246.73 133.695 247.829 133.695C248.88 133.695 249.712 134.034 250.325 134.713C250.938 135.387 251.244 136.298 251.244 137.445ZM245.957 137.445C245.957 139.122 246.577 139.96 247.816 139.96C249.042 139.96 249.655 139.122 249.655 137.445C249.655 135.786 249.038 134.956 247.803 134.956C247.155 134.956 246.684 135.171 246.391 135.6C246.102 136.029 245.957 136.644 245.957 137.445ZM259.414 141.09H257.864V136.624C257.864 136.064 257.75 135.646 257.522 135.37C257.299 135.094 256.942 134.956 256.452 134.956C255.8 134.956 255.322 135.149 255.02 135.534C254.718 135.919 254.567 136.565 254.567 137.471V141.09H253.024V133.826H254.232L254.449 134.779H254.528C254.747 134.433 255.058 134.166 255.46 133.977C255.863 133.789 256.31 133.695 256.8 133.695C258.543 133.695 259.414 134.582 259.414 136.355V141.09ZM266.441 139.021C266.441 139.73 266.182 140.276 265.666 140.656C265.149 141.033 264.409 141.221 263.446 141.221C262.479 141.221 261.701 141.075 261.115 140.781V139.448C261.968 139.842 262.763 140.039 263.499 140.039C264.449 140.039 264.924 139.752 264.924 139.179C264.924 138.995 264.871 138.842 264.766 138.719C264.661 138.596 264.488 138.47 264.247 138.338C264.007 138.207 263.672 138.058 263.243 137.892C262.406 137.568 261.839 137.244 261.542 136.92C261.248 136.596 261.102 136.175 261.102 135.659C261.102 135.037 261.351 134.555 261.85 134.214C262.354 133.868 263.037 133.695 263.899 133.695C264.753 133.695 265.561 133.868 266.323 134.214L265.823 135.376C265.04 135.052 264.381 134.89 263.847 134.89C263.032 134.89 262.625 135.122 262.625 135.586C262.625 135.814 262.73 136.007 262.94 136.164C263.155 136.322 263.619 136.539 264.333 136.815C264.933 137.047 265.368 137.259 265.64 137.452C265.911 137.644 266.112 137.868 266.244 138.121C266.375 138.371 266.441 138.671 266.441 139.021Z" class="path-6"/>
<path d="M264.396 82.0898H262.712L258.58 75.3953H258.534L258.563 75.7688C258.617 76.4814 258.644 77.1326 258.644 77.7226V82.0898H257.397V73.6887H259.063L263.183 80.3487H263.218C263.21 80.2606 263.195 79.9407 263.172 79.3891C263.149 78.8336 263.137 78.4007 263.137 78.0904V73.6887H264.396V82.0898ZM272.107 78.9006C272.107 79.9388 271.841 80.749 271.309 81.3313C270.776 81.9136 270.035 82.2048 269.085 82.2048C268.491 82.2048 267.966 82.0707 267.51 81.8025C267.054 81.5344 266.704 81.1494 266.459 80.6475C266.213 80.1457 266.091 79.5634 266.091 78.9006C266.091 77.8701 266.355 77.0656 266.884 76.4871C267.412 75.9087 268.158 75.6194 269.119 75.6194C270.039 75.6194 270.766 75.9163 271.303 76.5101C271.839 77.1001 272.107 77.8969 272.107 78.9006ZM267.481 78.9006C267.481 80.3678 268.024 81.1015 269.108 81.1015C270.18 81.1015 270.717 80.3678 270.717 78.9006C270.717 77.4487 270.176 76.7227 269.096 76.7227C268.529 76.7227 268.117 76.9105 267.861 77.2859C267.608 77.6613 267.481 78.1996 267.481 78.9006ZM276.032 81.113C276.361 81.113 276.691 81.0612 277.02 80.9578V81.9749C276.871 82.04 276.678 82.0937 276.44 82.1358C276.206 82.1818 275.963 82.2048 275.71 82.2048C274.431 82.2048 273.791 81.5305 273.791 80.1821V76.7572H272.923V76.1596L273.854 75.6654L274.314 74.3208H275.147V75.7344H276.957V76.7572H275.147V80.1591C275.147 80.4847 275.228 80.726 275.388 80.8831C275.553 81.0363 275.768 81.113 276.032 81.113ZM279.646 82.0898H278.296V75.7344H279.646V82.0898ZM278.216 74.0507C278.216 73.8093 278.281 73.6235 278.411 73.4933C278.545 73.363 278.735 73.2979 278.98 73.2979C279.217 73.2979 279.401 73.363 279.532 73.4933C279.666 73.6235 279.733 73.8093 279.733 74.0507C279.733 74.2805 279.666 74.4625 279.532 74.5966C279.401 74.7268 279.217 74.792 278.98 74.792C278.735 74.792 278.545 74.7268 278.411 74.5966C278.281 74.4625 278.216 74.2805 278.216 74.0507ZM284.772 76.7572H283.221V82.0898H281.865V76.7572H280.819V76.1251L281.865 75.7114V75.2976C281.865 74.5468 282.041 73.9913 282.393 73.6312C282.746 73.2673 283.284 73.0853 284.008 73.0853C284.483 73.0853 284.95 73.1638 285.41 73.3209L285.054 74.3437C284.721 74.2365 284.403 74.1828 284.1 74.1828C283.793 74.1828 283.569 74.2786 283.428 74.4702C283.29 74.6579 283.221 74.9414 283.221 75.3206V75.7344H284.772V76.7572ZM287.203 82.0898H285.853V75.7344H287.203V82.0898ZM285.772 74.0507C285.772 73.8093 285.837 73.6235 285.968 73.4933C286.102 73.363 286.291 73.2979 286.536 73.2979C286.774 73.2979 286.958 73.363 287.088 73.4933C287.222 73.6235 287.289 73.8093 287.289 74.0507C287.289 74.2805 287.222 74.4625 287.088 74.5966C286.958 74.7268 286.774 74.792 286.536 74.792C286.291 74.792 286.102 74.7268 285.968 74.5966C285.837 74.4625 285.772 74.2805 285.772 74.0507ZM291.708 82.2048C290.747 82.2048 290.015 81.9251 289.513 81.3658C289.015 80.8027 288.766 79.9963 288.766 78.9466C288.766 77.8778 289.026 77.056 289.547 76.4814C290.072 75.9068 290.829 75.6194 291.817 75.6194C292.488 75.6194 293.091 75.7439 293.627 75.9929L293.219 77.079C292.649 76.8568 292.177 76.7457 291.806 76.7457C290.706 76.7457 290.157 77.4755 290.157 78.9351C290.157 79.6476 290.293 80.184 290.565 80.5441C290.84 80.9003 291.243 81.0785 291.771 81.0785C292.373 81.0785 292.942 80.9291 293.478 80.6303V81.8083C293.237 81.95 292.978 82.0515 292.702 82.1128C292.43 82.1741 292.099 82.2048 291.708 82.2048ZM298.949 82.0898L298.678 81.2049H298.632C298.326 81.5918 298.018 81.8562 297.707 81.9979C297.397 82.1358 296.999 82.2048 296.512 82.2048C295.888 82.2048 295.399 82.0362 295.047 81.6991C294.698 81.362 294.524 80.885 294.524 80.2682C294.524 79.6132 294.767 79.119 295.254 78.7857C295.74 78.4524 296.481 78.2704 297.477 78.2398L298.575 78.2053V77.8663C298.575 77.4602 298.479 77.1575 298.288 76.9583C298.1 76.7553 297.807 76.6538 297.409 76.6538C297.083 76.6538 296.771 76.7017 296.472 76.7974C296.173 76.8932 295.886 77.0062 295.61 77.1365L295.173 76.1711C295.518 75.991 295.895 75.855 296.305 75.7631C296.715 75.6673 297.102 75.6194 297.466 75.6194C298.274 75.6194 298.883 75.7957 299.293 76.1481C299.707 76.5005 299.914 77.0541 299.914 77.8088V82.0898H298.949ZM296.937 81.1704C297.428 81.1704 297.82 81.0344 298.115 80.7624C298.414 80.4866 298.564 80.1016 298.564 79.6074V79.0558L297.748 79.0902C297.112 79.1132 296.648 79.2205 296.357 79.412C296.07 79.5998 295.926 79.889 295.926 80.2797C295.926 80.5632 296.01 80.7835 296.179 80.9406C296.347 81.0938 296.6 81.1704 296.937 81.1704ZM304.166 81.113C304.496 81.113 304.825 81.0612 305.155 80.9578V81.9749C305.005 82.04 304.812 82.0937 304.574 82.1358C304.341 82.1818 304.097 82.2048 303.844 82.2048C302.565 82.2048 301.925 81.5305 301.925 80.1821V76.7572H301.057V76.1596L301.988 75.6654L302.448 74.3208H303.281V75.7344H305.091V76.7572H303.281V80.1591C303.281 80.4847 303.362 80.726 303.523 80.8831C303.687 81.0363 303.902 81.113 304.166 81.113ZM307.781 82.0898H306.43V75.7344H307.781V82.0898ZM306.35 74.0507C306.35 73.8093 306.415 73.6235 306.545 73.4933C306.679 73.363 306.869 73.2979 307.114 73.2979C307.352 73.2979 307.536 73.363 307.666 73.4933C307.8 73.6235 307.867 73.8093 307.867 74.0507C307.867 74.2805 307.8 74.4625 307.666 74.5966C307.536 74.7268 307.352 74.792 307.114 74.792C306.869 74.792 306.679 74.7268 306.545 74.5966C306.415 74.4625 306.35 74.2805 306.35 74.0507ZM315.354 78.9006C315.354 79.9388 315.088 80.749 314.556 81.3313C314.023 81.9136 313.282 82.2048 312.332 82.2048C311.738 82.2048 311.213 82.0707 310.757 81.8025C310.301 81.5344 309.951 81.1494 309.706 80.6475C309.461 80.1457 309.338 79.5634 309.338 78.9006C309.338 77.8701 309.602 77.0656 310.131 76.4871C310.66 75.9087 311.405 75.6194 312.366 75.6194C313.286 75.6194 314.014 75.9163 314.55 76.5101C315.086 77.1001 315.354 77.8969 315.354 78.9006ZM310.729 78.9006C310.729 80.3678 311.271 81.1015 312.355 81.1015C313.427 81.1015 313.964 80.3678 313.964 78.9006C313.964 77.4487 313.424 76.7227 312.343 76.7227C311.776 76.7227 311.365 76.9105 311.108 77.2859C310.855 77.6613 310.729 78.1996 310.729 78.9006ZM322.503 82.0898H321.147V78.1823C321.147 77.692 321.047 77.3261 320.848 77.0848C320.653 76.8434 320.34 76.7227 319.911 76.7227C319.34 76.7227 318.923 76.8913 318.659 77.2284C318.394 77.5655 318.262 78.1306 318.262 78.9236V82.0898H316.912V75.7344H317.969L318.159 76.5676H318.228C318.419 76.2649 318.691 76.0313 319.044 75.8665C319.396 75.7018 319.787 75.6194 320.216 75.6194C321.741 75.6194 322.503 76.3952 322.503 77.9467V82.0898ZM328.652 80.2797C328.652 80.9003 328.425 81.3773 327.973 81.7106C327.521 82.04 326.874 82.2048 326.031 82.2048C325.185 82.2048 324.505 82.0764 323.991 81.8198V80.6533C324.738 80.998 325.434 81.1704 326.077 81.1704C326.908 81.1704 327.324 80.9195 327.324 80.4177C327.324 80.2568 327.278 80.1227 327.186 80.0154C327.094 79.9081 326.943 79.797 326.732 79.6821C326.522 79.5672 326.228 79.4369 325.853 79.2914C325.121 79.0079 324.625 78.7244 324.365 78.4409C324.108 78.1574 323.98 77.7896 323.98 77.3376C323.98 76.7936 324.198 76.3722 324.635 76.0734C325.075 75.7708 325.673 75.6194 326.428 75.6194C327.175 75.6194 327.881 75.7708 328.548 76.0734L328.111 77.0905C327.426 76.807 326.849 76.6653 326.382 76.6653C325.669 76.6653 325.313 76.8683 325.313 77.2744C325.313 77.4736 325.405 77.6422 325.589 77.7801C325.776 77.918 326.182 78.1076 326.807 78.349C327.332 78.552 327.713 78.7378 327.95 78.9064C328.188 79.0749 328.364 79.2703 328.479 79.4925C328.594 79.7108 328.652 79.9733 328.652 80.2797Z" class="path-7"/>
<path d="M99.2005 77.533H102.292V81.7508C101.786 81.9155 101.3 82.0324 100.832 82.1013C100.369 82.1703 99.867 82.2048 99.3269 82.2048C98.055 82.2048 97.0743 81.8293 96.3847 81.0785C95.6952 80.3238 95.3504 79.2607 95.3504 77.8892C95.3504 76.5369 95.7392 75.4796 96.5169 74.7173C97.2946 73.9511 98.3653 73.568 99.7291 73.568C100.606 73.568 101.438 73.7365 102.223 74.0737L101.74 75.2172C101.058 74.9031 100.377 74.746 99.6947 74.746C98.7982 74.746 98.0895 75.0276 97.5685 75.5907C97.0475 76.1538 96.787 76.9239 96.787 77.9007C96.787 78.9274 97.0207 79.7089 97.488 80.2453C97.9593 80.7778 98.6354 81.044 99.5165 81.044C99.9609 81.044 100.436 80.9885 100.942 80.8774V78.711H99.2005V77.533ZM106.947 82.2048C105.958 82.2048 105.184 81.9175 104.625 81.3428C104.07 80.7643 103.792 79.9694 103.792 78.9581C103.792 77.9199 104.05 77.1039 104.568 76.5101C105.085 75.9163 105.795 75.6194 106.699 75.6194C107.538 75.6194 108.201 75.8742 108.688 76.3837C109.174 76.8932 109.418 77.5943 109.418 78.4869V79.2167H105.182C105.202 79.8334 105.368 80.3085 105.682 80.6418C105.996 80.9712 106.439 81.1359 107.01 81.1359C107.385 81.1359 107.734 81.1015 108.056 81.0325C108.381 80.9597 108.73 80.841 109.101 80.6762V81.7738C108.772 81.9309 108.439 82.042 108.102 82.1071C107.764 82.1722 107.379 82.2048 106.947 82.2048ZM106.699 76.6423C106.27 76.6423 105.926 76.7783 105.665 77.0503C105.408 77.3223 105.255 77.7188 105.205 78.2398H108.09C108.082 77.7149 107.956 77.3184 107.711 77.0503C107.466 76.7783 107.129 76.6423 106.699 76.6423ZM116.543 82.0898H115.187V78.1823C115.187 77.692 115.087 77.3261 114.888 77.0848C114.693 76.8434 114.38 76.7227 113.951 76.7227C113.381 76.7227 112.963 76.8913 112.699 77.2284C112.434 77.5655 112.302 78.1306 112.302 78.9236V82.0898H110.952V75.7344H112.009L112.199 76.5676H112.268C112.459 76.2649 112.731 76.0313 113.084 75.8665C113.436 75.7018 113.827 75.6194 114.256 75.6194C115.781 75.6194 116.543 76.3952 116.543 77.9467V82.0898ZM121.198 82.2048C120.209 82.2048 119.435 81.9175 118.876 81.3428C118.321 80.7643 118.043 79.9694 118.043 78.9581C118.043 77.9199 118.301 77.1039 118.819 76.5101C119.336 75.9163 120.046 75.6194 120.95 75.6194C121.789 75.6194 122.452 75.8742 122.939 76.3837C123.425 76.8932 123.668 77.5943 123.668 78.4869V79.2167H119.433C119.453 79.8334 119.619 80.3085 119.933 80.6418C120.247 80.9712 120.69 81.1359 121.261 81.1359C121.636 81.1359 121.985 81.1015 122.307 81.0325C122.632 80.9597 122.981 80.841 123.352 80.6762V81.7738C123.023 81.9309 122.69 82.042 122.353 82.1071C122.015 82.1722 121.63 82.2048 121.198 82.2048ZM120.95 76.6423C120.521 76.6423 120.177 76.7783 119.916 77.0503C119.659 77.3223 119.506 77.7188 119.456 78.2398H122.341C122.333 77.7149 122.207 77.3184 121.962 77.0503C121.717 76.7783 121.38 76.6423 120.95 76.6423ZM128.426 75.6194C128.698 75.6194 128.923 75.6386 129.099 75.6769L128.967 76.9354C128.775 76.8894 128.576 76.8664 128.369 76.8664C127.829 76.8664 127.39 77.0426 127.053 77.3951C126.72 77.7475 126.553 78.2053 126.553 78.7684V82.0898H125.203V75.7344H126.26L126.438 76.8549H126.507C126.718 76.4756 126.992 76.1749 127.329 75.9527C127.67 75.7305 128.036 75.6194 128.426 75.6194ZM134.259 82.0898L133.989 81.2049H133.943C133.637 81.5918 133.328 81.8562 133.018 81.9979C132.708 82.1358 132.309 82.2048 131.823 82.2048C131.198 82.2048 130.71 82.0362 130.357 81.6991C130.009 81.362 129.834 80.885 129.834 80.2682C129.834 79.6132 130.078 79.119 130.564 78.7857C131.051 78.4524 131.792 78.2704 132.788 78.2398L133.886 78.2053V77.8663C133.886 77.4602 133.79 77.1575 133.598 76.9583C133.41 76.7553 133.117 76.6538 132.719 76.6538C132.393 76.6538 132.081 76.7017 131.782 76.7974C131.484 76.8932 131.196 77.0062 130.92 77.1365L130.484 76.1711C130.828 75.991 131.206 75.855 131.616 75.7631C132.026 75.6673 132.413 75.6194 132.776 75.6194C133.585 75.6194 134.194 75.7957 134.604 76.1481C135.018 76.5005 135.224 77.0541 135.224 77.8088V82.0898H134.259ZM132.248 81.1704C132.738 81.1704 133.131 81.0344 133.426 80.7624C133.725 80.4866 133.874 80.1016 133.874 79.6074V79.0558L133.058 79.0902C132.422 79.1132 131.959 79.2205 131.667 79.412C131.38 79.5998 131.236 79.889 131.236 80.2797C131.236 80.5632 131.321 80.7835 131.489 80.9406C131.658 81.0938 131.911 81.1704 132.248 81.1704ZM138.46 82.0898H137.109V73.1485H138.46V82.0898Z" class="path-8"/>
<line x1="30" y1="98.9313" x2="359.52" y2="98.9313" stroke-width="0.840611" class="line-1"/>
<line x1="204.847" y1="98.0906" x2="361.201" y2="98.0906" stroke-width="2.52183" class="line-2"/>
<path d="M166.931 45.9876C166.931 47.2682 166.468 48.273 165.542 49.002C164.616 49.731 163.338 50.0955 161.71 50.0955C160.081 50.0955 158.748 49.8426 157.71 49.3369V47.1106C158.367 47.4193 159.063 47.6623 159.798 47.8396C160.541 48.0169 161.23 48.1056 161.867 48.1056C162.8 48.1056 163.486 47.9283 163.926 47.5736C164.373 47.219 164.596 46.7429 164.596 46.1452C164.596 45.6067 164.392 45.1503 163.985 44.776C163.578 44.4016 162.737 43.9583 161.463 43.4461C160.15 42.9141 159.224 42.3067 158.685 41.6237C158.147 40.9407 157.878 40.1198 157.878 39.1609C157.878 37.9591 158.304 37.0134 159.158 36.3239C160.012 35.6343 161.158 35.2895 162.596 35.2895C163.975 35.2895 165.348 35.5916 166.714 36.1958L165.965 38.1167C164.685 37.5782 163.542 37.309 162.537 37.309C161.775 37.309 161.197 37.4764 160.803 37.8114C160.409 38.1397 160.212 38.5765 160.212 39.1215C160.212 39.4959 160.291 39.8177 160.449 40.0869C160.606 40.3496 160.866 40.5992 161.227 40.8356C161.588 41.072 162.238 41.384 163.177 41.7714C164.235 42.2114 165.01 42.6219 165.502 43.0028C165.995 43.3837 166.356 43.8139 166.586 44.2933C166.816 44.7727 166.931 45.3375 166.931 45.9876ZM174.23 50.0955C172.536 50.0955 171.209 49.6029 170.25 48.6178C169.298 47.6262 168.822 46.2635 168.822 44.5297C168.822 42.75 169.265 41.3511 170.152 40.3332C171.038 39.3153 172.257 38.8063 173.806 38.8063C175.245 38.8063 176.381 39.243 177.215 40.1165C178.049 40.9899 178.466 42.1917 178.466 43.7219V44.973H171.206C171.239 46.0303 171.524 46.8447 172.063 47.416C172.601 47.9808 173.36 48.2632 174.338 48.2632C174.982 48.2632 175.58 48.2041 176.131 48.0859C176.69 47.9611 177.287 47.7575 177.924 47.4751V49.3566C177.359 49.6259 176.788 49.8163 176.21 49.928C175.632 50.0396 174.972 50.0955 174.23 50.0955ZM173.806 40.5598C173.071 40.5598 172.48 40.7929 172.033 41.2592C171.593 41.7255 171.331 42.4052 171.245 43.2983H176.19C176.177 42.3986 175.961 41.7189 175.54 41.2592C175.12 40.7929 174.542 40.5598 173.806 40.5598ZM185.155 48.2238C185.72 48.2238 186.284 48.1351 186.849 47.9578V49.7014C186.593 49.8131 186.261 49.905 185.854 49.9772C185.454 50.0561 185.037 50.0955 184.603 50.0955C182.41 50.0955 181.313 48.9396 181.313 46.6279V40.7568H179.825V39.7323L181.421 38.8851L182.209 36.58H183.638V39.0033H186.741V40.7568H183.638V46.5885C183.638 47.1467 183.776 47.5605 184.051 47.8297C184.334 48.0924 184.702 48.2238 185.155 48.2238ZM193.095 48.2238C193.659 48.2238 194.224 48.1351 194.789 47.9578V49.7014C194.533 49.8131 194.201 49.905 193.794 49.9772C193.393 50.0561 192.976 50.0955 192.543 50.0955C190.349 50.0955 189.253 48.9396 189.253 46.6279V40.7568H187.765V39.7323L189.361 38.8851L190.149 36.58H191.578V39.0033H194.681V40.7568H191.578V46.5885C191.578 47.1467 191.715 47.5605 191.991 47.8297C192.274 48.0924 192.641 48.2238 193.095 48.2238ZM199.291 49.8984H196.976V39.0033H199.291V49.8984ZM196.838 36.117C196.838 35.7033 196.95 35.3848 197.173 35.1615C197.403 34.9382 197.728 34.8265 198.148 34.8265C198.555 34.8265 198.87 34.9382 199.094 35.1615C199.324 35.3848 199.439 35.7033 199.439 36.117C199.439 36.511 199.324 36.823 199.094 37.0528C198.87 37.2761 198.555 37.3878 198.148 37.3878C197.728 37.3878 197.403 37.2761 197.173 37.0528C196.95 36.823 196.838 36.511 196.838 36.117ZM212.195 49.8984H209.871V43.1998C209.871 42.3592 209.7 41.732 209.358 41.3183C209.023 40.9046 208.488 40.6977 207.753 40.6977C206.774 40.6977 206.058 40.9866 205.605 41.5646C205.152 42.1425 204.926 43.1112 204.926 44.4706V49.8984H202.611V39.0033H204.423L204.748 40.4317H204.866C205.195 39.9129 205.661 39.5123 206.265 39.2299C206.869 38.9475 207.539 38.8063 208.275 38.8063C210.889 38.8063 212.195 40.1362 212.195 42.7959V49.8984ZM224.617 39.0033V40.2741L222.756 40.6189C222.926 40.8487 223.068 41.1311 223.179 41.4661C223.291 41.801 223.347 42.1556 223.347 42.53C223.347 43.653 222.959 44.5363 222.184 45.1798C221.409 45.8234 220.342 46.1452 218.983 46.1452C218.635 46.1452 218.319 46.119 218.037 46.0664C217.538 46.3751 217.288 46.7363 217.288 47.15C217.288 47.3996 217.403 47.5868 217.633 47.7115C217.87 47.8363 218.3 47.8987 218.924 47.8987H220.825C222.027 47.8987 222.94 48.1548 223.563 48.6671C224.187 49.1793 224.499 49.9181 224.499 50.8835C224.499 52.1182 223.99 53.0704 222.972 53.7403C221.954 54.4102 220.483 54.7451 218.559 54.7451C217.075 54.7451 215.942 54.4824 215.161 53.957C214.379 53.4316 213.988 52.683 213.988 51.711C213.988 51.0411 214.199 50.4764 214.619 50.0166C215.046 49.5635 215.64 49.2483 216.402 49.071C216.093 48.9396 215.837 48.7295 215.633 48.4405C215.436 48.145 215.338 47.8363 215.338 47.5145C215.338 47.1073 215.453 46.7626 215.683 46.4802C215.913 46.1978 216.254 45.9187 216.707 45.6428C216.142 45.3999 215.683 45.0058 215.328 44.4607C214.98 43.9091 214.806 43.2655 214.806 42.53C214.806 41.3478 215.177 40.4317 215.919 39.7815C216.668 39.1314 217.732 38.8063 219.111 38.8063C219.419 38.8063 219.741 38.8293 220.076 38.8753C220.418 38.9147 220.674 38.9574 220.845 39.0033H224.617ZM216.057 51.5928C216.057 52.0919 216.28 52.4761 216.727 52.7454C217.18 53.0146 217.814 53.1492 218.628 53.1492C219.889 53.1492 220.828 52.9686 221.445 52.6074C222.063 52.2462 222.371 51.7668 222.371 51.1692C222.371 50.6964 222.201 50.3581 221.859 50.1546C221.524 49.9575 220.897 49.859 219.978 49.859H218.224C217.561 49.859 217.032 50.0134 216.638 50.322C216.251 50.6373 216.057 51.0608 216.057 51.5928ZM217.052 42.53C217.052 43.213 217.226 43.7383 217.574 44.1061C217.929 44.4739 218.434 44.6578 219.091 44.6578C220.431 44.6578 221.101 43.9419 221.101 42.5103C221.101 41.801 220.933 41.2559 220.598 40.875C220.27 40.4875 219.768 40.2938 219.091 40.2938C218.421 40.2938 217.912 40.4842 217.564 40.8651C217.223 41.2461 217.052 41.801 217.052 42.53ZM233.966 46.7954C233.966 47.8593 233.579 48.6769 232.804 49.2483C232.029 49.8131 230.919 50.0955 229.474 50.0955C228.023 50.0955 226.857 49.8755 225.977 49.4354V47.4357C227.258 48.0268 228.449 48.3223 229.553 48.3223C230.978 48.3223 231.69 47.8921 231.69 47.0318C231.69 46.756 231.612 46.5261 231.454 46.3423C231.296 46.1584 231.037 45.9679 230.676 45.7709C230.315 45.5739 229.812 45.3506 229.169 45.101C227.914 44.6151 227.064 44.1291 226.617 43.6431C226.177 43.1571 225.957 42.5267 225.957 41.7517C225.957 40.8192 226.332 40.0968 227.08 39.5845C227.835 39.0657 228.86 38.8063 230.154 38.8063C231.434 38.8063 232.646 39.0657 233.789 39.5845L233.04 41.3281C231.864 40.8422 230.876 40.5992 230.075 40.5992C228.853 40.5992 228.243 40.9472 228.243 41.6434C228.243 41.9849 228.4 42.2738 228.715 42.5103C229.037 42.7467 229.733 43.0718 230.804 43.4855C231.704 43.8336 232.357 44.1521 232.764 44.441C233.171 44.73 233.473 45.0649 233.67 45.4458C233.867 45.8202 233.966 46.27 233.966 46.7954Z" class="path-9"/>
<defs>
<filter id="filter0_d_13917_210930" x="0" y="0" width="391" height="354" filterUnits="userSpaceOnUse" color-interpolation-filters="sRGB">
<feFlood flood-opacity="0" result="BackgroundImageFix"/>
<feColorMatrix in="SourceAlpha" type="matrix" values="0 0 0 0 0 0 0 0 0 0 0 0 0 0 0 0 0 0 127 0" result="hardAlpha"/>
<feOffset dy="2"/>
<feGaussianBlur stdDeviation="1.5"/>
<feColorMatrix type="matrix" values="0 0 0 0 0 0 0 0 0 0 0 0 0 0 0 0 0 0 0.06 0"/>
<feBlend mode="normal" in2="BackgroundImageFix" result="effect1_dropShadow_13917_210930"/>
<feBlend mode="normal" in="SourceGraphic" in2="effect1_dropShadow_13917_210930" result="shape"/>
</filter>
<clipPath id="clip0_13917_210930">
<rect width="13.4498" height="73.9738" transform="translate(29.8997 173.324)" class="rect-7"/>
</clipPath>
</defs>
</svg>
