<svg viewBox="0 0 391 194" fill="none" xmlns="http://www.w3.org/2000/svg">
<g filter="url(#filter0_d_13917_210903)">
<rect x="3" y="1" width="385" height="188.78" rx="2.5048" class="rect-1"/>
<rect x="3.41747" y="1.41747" width="384.165" height="187.945" rx="2.08734" stroke-width="0.834935" class="rect-2"/>
</g>
<rect x="30.1355" y="82.4956" width="325.165" height="36.7371" rx="2.08734" stroke-width="0.834935" class="rect-3"/>
<path d="M43.8401 100.349C43.8401 98.4747 44.2032 97.0744 44.9294 96.1482C45.66 95.2176 46.7384 94.7523 48.1648 94.7523C48.6562 94.7523 49.0432 94.7936 49.3259 94.8762V95.809C48.991 95.7003 48.6083 95.6459 48.1778 95.6459C47.1559 95.6459 46.3753 95.9655 45.8361 96.6048C45.2969 97.2397 45.0012 98.2399 44.949 99.6053H45.0273C45.5056 98.8574 46.2623 98.4834 47.2972 98.4834C48.1539 98.4834 48.828 98.7421 49.3193 99.2596C49.8151 99.7771 50.063 100.479 50.063 101.367C50.063 102.358 49.7912 103.139 49.2476 103.708C48.7084 104.274 47.9778 104.556 47.0559 104.556C46.0688 104.556 45.286 104.187 44.7076 103.447C44.1293 102.704 43.8401 101.671 43.8401 100.349ZM47.0428 103.637C47.6603 103.637 48.1387 103.443 48.4779 103.056C48.8214 102.665 48.9932 102.101 48.9932 101.367C48.9932 100.736 48.8345 100.24 48.517 99.8793C48.1996 99.5184 47.7256 99.3379 47.095 99.3379C46.7037 99.3379 46.3449 99.4183 46.0187 99.5792C45.6926 99.7401 45.4317 99.9619 45.236 100.245C45.0447 100.527 44.949 100.821 44.949 101.125C44.949 101.573 45.036 101.991 45.2099 102.378C45.3838 102.765 45.6295 103.071 45.947 103.297C46.2688 103.523 46.6341 103.637 47.0428 103.637ZM57.6426 104.426H51.3741V103.493L53.8854 100.969C54.6508 100.195 55.1552 99.6423 55.3987 99.3118C55.6422 98.9813 55.8249 98.6595 55.9466 98.3464C56.0684 98.0333 56.1293 97.6963 56.1293 97.3354C56.1293 96.8266 55.9749 96.4243 55.6662 96.1286C55.3574 95.8286 54.9291 95.6785 54.3811 95.6785C53.9854 95.6785 53.6093 95.7438 53.2527 95.8742C52.9004 96.0047 52.5069 96.2417 52.072 96.5852L51.498 95.8481C52.3764 95.1176 53.3331 94.7523 54.3681 94.7523C55.2639 94.7523 55.9662 94.9828 56.475 95.4437C56.9838 95.9003 57.2382 96.5156 57.2382 97.2897C57.2382 97.8942 57.0686 98.4921 56.7294 99.0835C56.3902 99.6749 55.7553 100.423 54.8247 101.327L52.7374 103.369V103.421H57.6426V104.426ZM65.3397 99.6445C65.3397 101.293 65.0787 102.523 64.5569 103.336C64.0394 104.15 63.2458 104.556 62.176 104.556C61.1498 104.556 60.3692 104.141 59.8343 103.31C59.2994 102.475 59.032 101.253 59.032 99.6445C59.032 97.9833 59.2907 96.7505 59.8082 95.946C60.3257 95.1415 61.115 94.7392 62.176 94.7392C63.211 94.7392 63.9959 95.1589 64.5308 95.9982C65.07 96.8374 65.3397 98.0529 65.3397 99.6445ZM60.1278 99.6445C60.1278 101.032 60.2909 102.043 60.6171 102.678C60.9432 103.308 61.4629 103.623 62.176 103.623C62.8979 103.623 63.4197 103.304 63.7415 102.665C64.0677 102.021 64.2308 101.014 64.2308 99.6445C64.2308 98.2747 64.0677 97.2723 63.7415 96.6374C63.4197 95.9982 62.8979 95.6785 62.176 95.6785C61.4629 95.6785 60.9432 95.9938 60.6171 96.6244C60.2909 97.2506 60.1278 98.2573 60.1278 99.6445ZM76.8396 97.668C76.8396 98.6334 76.5091 99.377 75.8481 99.8989C75.1915 100.416 74.25 100.675 73.0237 100.675H71.9017V104.426H70.7928V94.8893H73.265C75.6481 94.8893 76.8396 95.8155 76.8396 97.668ZM71.9017 99.7227H72.8997C73.8825 99.7227 74.5935 99.564 75.0327 99.2466C75.4719 98.9291 75.6915 98.4203 75.6915 97.7202C75.6915 97.0897 75.485 96.62 75.0719 96.3113C74.6588 96.0025 74.0152 95.8481 73.1411 95.8481H71.9017V99.7227ZM86.2913 104.426H85.0259L79.814 96.4221H79.7619C79.8314 97.3614 79.8662 98.2225 79.8662 99.0052V104.426H78.8421V94.8893H80.0945L85.2933 102.86H85.3455C85.3368 102.743 85.3172 102.367 85.2868 101.732C85.2563 101.093 85.2455 100.636 85.2542 100.362V94.8893H86.2913V104.426ZM95.8017 104.426H94.4972L91.0204 99.801L90.0224 100.688V104.426H88.9135V94.8893H90.0224V99.6184L94.3471 94.8893H95.6582L91.8228 99.0313L95.8017 104.426Z" class="path-1"/>
<rect x="268.697" y="82.0742" width="89.4358" height="38.2035" rx="2.5048" class="rect-4"/>
<path d="M302.326 103.086C302.326 103.934 302.02 104.599 301.407 105.082C300.793 105.565 299.948 105.806 298.869 105.806C297.791 105.806 296.908 105.639 296.221 105.304V103.83C296.656 104.034 297.117 104.195 297.604 104.312C298.095 104.43 298.552 104.489 298.974 104.489C299.591 104.489 300.045 104.371 300.337 104.136C300.633 103.902 300.78 103.586 300.78 103.191C300.78 102.834 300.646 102.532 300.376 102.284C300.106 102.036 299.55 101.742 298.706 101.403C297.836 101.051 297.223 100.649 296.867 100.197C296.51 99.7443 296.332 99.2007 296.332 98.5658C296.332 97.77 296.614 97.1438 297.18 96.6872C297.745 96.2306 298.504 96.0023 299.456 96.0023C300.369 96.0023 301.278 96.2023 302.183 96.6024L301.687 97.8744C300.839 97.5178 300.082 97.3395 299.417 97.3395C298.913 97.3395 298.53 97.4504 298.269 97.6721C298.008 97.8896 297.878 98.1788 297.878 98.5397C297.878 98.7876 297.93 99.0007 298.034 99.1789C298.139 99.3529 298.31 99.5181 298.55 99.6747C298.789 99.8312 299.219 100.038 299.841 100.294C300.541 100.586 301.054 100.858 301.38 101.11C301.707 101.362 301.946 101.647 302.098 101.964C302.25 102.282 302.326 102.656 302.326 103.086ZM306.697 104.567C307.071 104.567 307.445 104.508 307.819 104.391V105.545C307.649 105.619 307.429 105.68 307.16 105.728C306.895 105.78 306.618 105.806 306.331 105.806C304.879 105.806 304.153 105.041 304.153 103.51V99.6225H303.168V98.9441L304.224 98.3831L304.746 96.8568H305.692V98.4614H307.747V99.6225H305.692V103.484C305.692 103.854 305.783 104.128 305.966 104.306C306.153 104.48 306.397 104.567 306.697 104.567ZM313.781 105.676L313.474 104.671H313.422C313.074 105.11 312.724 105.411 312.372 105.571C312.019 105.728 311.567 105.806 311.015 105.806C310.306 105.806 309.752 105.615 309.351 105.232C308.956 104.85 308.758 104.308 308.758 103.608C308.758 102.864 309.034 102.303 309.586 101.925C310.139 101.547 310.98 101.34 312.111 101.305L313.357 101.266V100.881C313.357 100.42 313.248 100.077 313.03 99.8508C312.817 99.6203 312.485 99.5051 312.032 99.5051C311.663 99.5051 311.308 99.5594 310.969 99.6682C310.63 99.7769 310.304 99.9052 309.991 100.053L309.495 98.9572C309.886 98.7528 310.315 98.5984 310.78 98.494C311.245 98.3853 311.685 98.331 312.098 98.331C313.015 98.331 313.707 98.531 314.172 98.9311C314.642 99.3311 314.876 99.9595 314.876 100.816V105.676H313.781ZM311.498 104.632C312.054 104.632 312.5 104.478 312.835 104.169C313.174 103.856 313.344 103.419 313.344 102.858V102.232L312.417 102.271C311.695 102.297 311.169 102.419 310.839 102.636C310.513 102.849 310.35 103.177 310.35 103.621C310.35 103.943 310.445 104.193 310.637 104.371C310.828 104.545 311.115 104.632 311.498 104.632ZM318.497 101.866L319.364 100.784L321.543 98.4614H323.311L320.408 101.56L323.493 105.676H321.693L319.377 102.512L318.536 103.204V105.676H317.016V95.5261H318.536V100.477L318.458 101.866H318.497ZM327.811 105.806C326.689 105.806 325.811 105.48 325.176 104.828C324.546 104.171 324.23 103.269 324.23 102.121C324.23 100.942 324.524 100.016 325.111 99.342C325.698 98.668 326.505 98.331 327.531 98.331C328.483 98.331 329.236 98.6201 329.788 99.1985C330.34 99.7769 330.616 100.573 330.616 101.586V102.414H325.809C325.831 103.114 326.02 103.654 326.376 104.032C326.733 104.406 327.235 104.593 327.883 104.593C328.309 104.593 328.705 104.554 329.07 104.476C329.44 104.393 329.836 104.258 330.257 104.071V105.317C329.884 105.495 329.505 105.621 329.122 105.695C328.74 105.769 328.303 105.806 327.811 105.806ZM327.531 99.492C327.044 99.492 326.652 99.6464 326.357 99.9552C326.065 100.264 325.891 100.714 325.835 101.305H329.109C329.101 100.71 328.957 100.26 328.679 99.9552C328.401 99.6464 328.018 99.492 327.531 99.492Z" class="path-2"/>
<path d="M36.4755 48.3948C36.4755 49.2428 36.169 49.9081 35.5558 50.3908C34.9426 50.8735 34.0968 51.1148 33.0184 51.1148C31.9399 51.1148 31.0571 50.9474 30.3701 50.6126V49.1384C30.8049 49.3428 31.2659 49.5037 31.7529 49.6211C32.2443 49.7385 32.7009 49.7972 33.1227 49.7972C33.7402 49.7972 34.1947 49.6798 34.486 49.445C34.7817 49.2101 34.9296 48.8949 34.9296 48.4991C34.9296 48.1426 34.7948 47.8403 34.5252 47.5925C34.2556 47.3446 33.6989 47.051 32.8553 46.7119C31.9856 46.3596 31.3724 45.9574 31.0158 45.5051C30.6592 45.0529 30.481 44.5093 30.481 43.8744C30.481 43.0786 30.7636 42.4524 31.3289 41.9958C31.8943 41.5392 32.6531 41.3109 33.6054 41.3109C34.5186 41.3109 35.4275 41.5109 36.332 41.911L35.8363 43.183C34.9883 42.8264 34.2316 42.6481 33.5663 42.6481C33.0619 42.6481 32.6792 42.759 32.4183 42.9807C32.1573 43.1982 32.0269 43.4874 32.0269 43.8483C32.0269 44.0962 32.0791 44.3092 32.1834 44.4875C32.2878 44.6615 32.4596 44.8267 32.6988 44.9833C32.9379 45.1398 33.3684 45.3464 33.9903 45.603C34.6904 45.8943 35.2036 46.1661 35.5297 46.4183C35.8558 46.6705 36.095 46.9554 36.2472 47.2728C36.3994 47.5903 36.4755 47.9643 36.4755 48.3948ZM40.8459 49.8755C41.2199 49.8755 41.5939 49.8168 41.9678 49.6994V50.8539C41.7982 50.9278 41.5786 50.9887 41.309 51.0366C41.0438 51.0887 40.7676 51.1148 40.4806 51.1148C39.0282 51.1148 38.3019 50.3495 38.3019 48.8188V44.9311H37.317V44.2527L38.3737 43.6917L38.8955 42.1654H39.8414V43.77H41.8961V44.9311H39.8414V48.7927C39.8414 49.1623 39.9327 49.4363 40.1153 49.6146C40.3023 49.7885 40.5458 49.8755 40.8459 49.8755ZM47.9298 50.9844L47.6232 49.9798H47.571C47.2231 50.4191 46.8731 50.7191 46.5208 50.88C46.1686 51.0366 45.7163 51.1148 45.1641 51.1148C44.4552 51.1148 43.9008 50.9235 43.5007 50.5408C43.105 50.1581 42.9071 49.6167 42.9071 48.9166C42.9071 48.173 43.1833 47.612 43.7355 47.2337C44.2878 46.8554 45.1293 46.6488 46.2599 46.614L47.5058 46.5749V46.19C47.5058 45.7291 47.3971 45.3855 47.1797 45.1594C46.9666 44.9289 46.6339 44.8137 46.1816 44.8137C45.812 44.8137 45.4576 44.868 45.1184 44.9768C44.7792 45.0855 44.4531 45.2138 44.14 45.3616L43.6442 44.2658C44.0356 44.0614 44.4639 43.907 44.9292 43.8026C45.3945 43.6939 45.8338 43.6396 46.2469 43.6396C47.1644 43.6396 47.8559 43.8396 48.3212 44.2397C48.7908 44.6397 49.0256 45.2681 49.0256 46.1248V50.9844H47.9298ZM45.6468 49.9407C46.2034 49.9407 46.6491 49.7863 46.984 49.4776C47.3232 49.1645 47.4928 48.7274 47.4928 48.1665V47.5403L46.5665 47.5794C45.8446 47.6055 45.3184 47.7273 44.988 47.9447C44.6618 48.1578 44.4987 48.4861 44.4987 48.9297C44.4987 49.2515 44.5944 49.5015 44.7857 49.6798C44.9771 49.8537 45.2641 49.9407 45.6468 49.9407ZM52.6459 47.175L53.5134 46.0922L55.6921 43.77H57.4598L54.5571 46.8684L57.6424 50.9844H55.8421L53.5265 47.8208L52.685 48.5122V50.9844H51.1652V40.8347H52.685V45.7856L52.6067 47.175H52.6459ZM61.9606 51.1148C60.8387 51.1148 59.9602 50.7887 59.3253 50.1364C58.6948 49.4798 58.3795 48.5774 58.3795 47.4294C58.3795 46.2509 58.6731 45.3246 59.2601 44.6506C59.8472 43.9766 60.6539 43.6396 61.6801 43.6396C62.6325 43.6396 63.3848 43.9287 63.9371 44.5071C64.4893 45.0855 64.7655 45.8813 64.7655 46.8945V47.7229H59.9581C59.9798 48.423 60.169 48.9623 60.5256 49.3406C60.8822 49.7146 61.3844 49.9016 62.0324 49.9016C62.4585 49.9016 62.8543 49.8624 63.2195 49.7842C63.5892 49.7015 63.9849 49.5667 64.4067 49.3797V50.6256C64.0327 50.8039 63.6544 50.93 63.2717 51.0039C62.889 51.0779 62.452 51.1148 61.9606 51.1148ZM61.6801 44.8006C61.1931 44.8006 60.8017 44.955 60.506 45.2638C60.2146 45.5725 60.0407 46.0226 59.9842 46.614H63.2587C63.25 46.0183 63.1065 45.5682 62.8282 45.2638C62.5498 44.955 62.1672 44.8006 61.6801 44.8006ZM76.4546 44.331C76.4546 45.3268 76.1284 46.09 75.4761 46.6205C74.8238 47.1511 73.8954 47.4163 72.6908 47.4163H71.6993V50.9844H70.1404V41.4479H72.8865C74.078 41.4479 74.9695 41.6914 75.5609 42.1784C76.1567 42.6655 76.4546 43.383 76.4546 44.331ZM71.6993 46.1052H72.5278C73.3279 46.1052 73.915 45.9661 74.2889 45.6878C74.6629 45.4094 74.8499 44.9746 74.8499 44.3832C74.8499 43.8352 74.6825 43.4265 74.3477 43.1569C74.0128 42.8872 73.491 42.7524 72.7822 42.7524H71.6993V46.1052ZM86.3042 50.9844H84.393L79.703 43.3852H79.6508L79.6834 43.8092C79.7443 44.618 79.7747 45.3573 79.7747 46.0269V50.9844H78.3593V41.4479H80.2509L84.9278 49.0079H84.967C84.9583 48.9079 84.9409 48.5448 84.9148 47.9186C84.8887 47.288 84.8757 46.7967 84.8757 46.4444V41.4479H86.3042V50.9844ZM96.1016 50.9844H94.2948L91.3007 46.6662L90.381 47.4163V50.9844H88.822V41.4479H90.381V46.0009C90.8072 45.479 91.2312 44.9768 91.653 44.4941L94.2295 41.4479H96.0038C94.3383 43.4047 93.1446 44.7985 92.4227 45.6291L96.1016 50.9844Z" class="path-3"/>
<path d="M103.309 50.2212C103.501 50.2212 103.686 50.2081 103.864 50.1821C104.042 50.1516 104.184 50.1212 104.288 50.0907V50.9191C104.17 50.9757 103.997 51.0213 103.766 51.0561C103.54 51.0953 103.336 51.1148 103.153 51.1148C101.77 51.1148 101.079 50.3864 101.079 48.9297V44.6767H100.055V44.1549L101.079 43.7048L101.535 42.1784H102.161V43.8352H104.236V44.6767H102.161V48.884C102.161 49.3145 102.264 49.645 102.468 49.8755C102.672 50.106 102.953 50.2212 103.309 50.2212ZM111.894 47.4033C111.894 48.5687 111.6 49.4798 111.013 50.1364C110.426 50.7887 109.615 51.1148 108.58 51.1148C107.941 51.1148 107.373 50.9648 106.877 50.6648C106.382 50.3647 105.999 49.9342 105.729 49.3732C105.46 48.8122 105.325 48.1556 105.325 47.4033C105.325 46.2379 105.616 45.3312 106.199 44.6832C106.782 44.0309 107.591 43.7048 108.626 43.7048C109.626 43.7048 110.419 44.0375 111.007 44.7028C111.598 45.3681 111.894 46.2683 111.894 47.4033ZM106.447 47.4033C106.447 48.3165 106.63 49.0123 106.995 49.4906C107.36 49.969 107.897 50.2081 108.606 50.2081C109.315 50.2081 109.852 49.9711 110.217 49.4971C110.587 49.0188 110.772 48.3208 110.772 47.4033C110.772 46.4944 110.587 45.8052 110.217 45.3355C109.852 44.8615 109.311 44.6245 108.593 44.6245C107.884 44.6245 107.349 44.8572 106.988 45.3225C106.627 45.7878 106.447 46.4814 106.447 47.4033ZM116.401 54.1937C115.988 54.1937 115.653 54.1393 115.396 54.0306V53.15C115.696 53.237 115.992 53.2804 116.284 53.2804C116.623 53.2804 116.871 53.187 117.027 53C117.188 52.8173 117.269 52.5368 117.269 52.1585V43.8352H118.351V52.0802C118.351 53.4892 117.701 54.1937 116.401 54.1937ZM117.177 41.8979C117.177 41.6501 117.238 41.4696 117.36 41.3565C117.482 41.2391 117.634 41.1804 117.816 41.1804C117.99 41.1804 118.14 41.2391 118.267 41.3565C118.393 41.4739 118.456 41.6544 118.456 41.8979C118.456 42.1415 118.393 42.3241 118.267 42.4459C118.14 42.5633 117.99 42.622 117.816 42.622C117.634 42.622 117.482 42.5633 117.36 42.4459C117.238 42.3241 117.177 42.1415 117.177 41.8979ZM126.818 47.4033C126.818 48.5687 126.525 49.4798 125.937 50.1364C125.35 50.7887 124.539 51.1148 123.504 51.1148C122.865 51.1148 122.298 50.9648 121.802 50.6648C121.306 50.3647 120.924 49.9342 120.654 49.3732C120.384 48.8122 120.249 48.1556 120.249 47.4033C120.249 46.2379 120.541 45.3312 121.124 44.6832C121.706 44.0309 122.515 43.7048 123.55 43.7048C124.55 43.7048 125.344 44.0375 125.931 44.7028C126.522 45.3681 126.818 46.2683 126.818 47.4033ZM121.371 47.4033C121.371 48.3165 121.554 49.0123 121.919 49.4906C122.285 49.969 122.822 50.2081 123.531 50.2081C124.239 50.2081 124.776 49.9711 125.142 49.4971C125.511 49.0188 125.696 48.3208 125.696 47.4033C125.696 46.4944 125.511 45.8052 125.142 45.3355C124.776 44.8615 124.235 44.6245 123.517 44.6245C122.809 44.6245 122.274 44.8572 121.913 45.3225C121.552 45.7878 121.371 46.4814 121.371 47.4033ZM129.806 50.9844H128.723V43.8352H129.806V50.9844ZM128.631 41.8979C128.631 41.6501 128.692 41.4696 128.814 41.3565C128.936 41.2391 129.088 41.1804 129.271 41.1804C129.445 41.1804 129.595 41.2391 129.721 41.3565C129.847 41.4739 129.91 41.6544 129.91 41.8979C129.91 42.1415 129.847 42.3241 129.721 42.4459C129.595 42.5633 129.445 42.622 129.271 42.622C129.088 42.622 128.936 42.5633 128.814 42.4459C128.692 42.3241 128.631 42.1415 128.631 41.8979ZM136.994 50.9844V46.3596C136.994 45.7769 136.861 45.342 136.596 45.055C136.331 44.768 135.915 44.6245 135.35 44.6245C134.602 44.6245 134.054 44.8267 133.706 45.2312C133.358 45.6356 133.184 46.3031 133.184 47.2337V50.9844H132.102V43.8352H132.982L133.158 44.8137H133.211C133.432 44.4614 133.743 44.1897 134.143 43.9983C134.543 43.8026 134.989 43.7048 135.481 43.7048C136.342 43.7048 136.99 43.9135 137.424 44.331C137.859 44.7441 138.077 45.4073 138.077 46.3205V50.9844H136.994ZM146.087 50.2212C146.278 50.2212 146.463 50.2081 146.641 50.1821C146.82 50.1516 146.961 50.1212 147.065 50.0907V50.9191C146.948 50.9757 146.774 51.0213 146.543 51.0561C146.317 51.0953 146.113 51.1148 145.93 51.1148C144.547 51.1148 143.856 50.3864 143.856 48.9297V44.6767H142.832V44.1549L143.856 43.7048L144.313 42.1784H144.939V43.8352H147.013V44.6767H144.939V48.884C144.939 49.3145 145.041 49.645 145.245 49.8755C145.45 50.106 145.73 50.2212 146.087 50.2212ZM153.392 50.9844V46.3596C153.392 45.7769 153.26 45.342 152.995 45.055C152.729 44.768 152.314 44.6245 151.749 44.6245C150.996 44.6245 150.446 44.8289 150.098 45.2377C149.755 45.6464 149.583 46.3161 149.583 47.2467V50.9844H148.5V40.8347H149.583V43.907C149.583 44.2766 149.566 44.5832 149.531 44.8267H149.596C149.809 44.4832 150.111 44.2136 150.503 44.0179C150.899 43.8179 151.349 43.7178 151.853 43.7178C152.727 43.7178 153.382 43.9266 153.816 44.344C154.256 44.7572 154.475 45.416 154.475 46.3205V50.9844H153.392ZM159.726 51.1148C158.67 51.1148 157.835 50.793 157.221 50.1494C156.613 49.5058 156.308 48.6122 156.308 47.4685C156.308 46.3161 156.591 45.4007 157.156 44.7224C157.726 44.044 158.489 43.7048 159.446 43.7048C160.342 43.7048 161.05 44.0005 161.572 44.5919C162.094 45.179 162.355 45.9552 162.355 46.9206V47.6055H157.43C157.452 48.4448 157.663 49.0819 158.063 49.5167C158.467 49.9516 159.035 50.169 159.765 50.169C160.535 50.169 161.296 50.0081 162.048 49.6863V50.6517C161.666 50.817 161.303 50.9344 160.959 51.0039C160.62 51.0779 160.209 51.1148 159.726 51.1148ZM159.433 44.6115C158.859 44.6115 158.4 44.7985 158.056 45.1724C157.717 45.5464 157.517 46.0639 157.456 46.7249H161.194C161.194 46.0422 161.042 45.5203 160.737 45.1594C160.433 44.7941 159.998 44.6115 159.433 44.6115ZM170.776 50.9844H169.667V42.4328H166.647V41.4479H173.796V42.4328H170.776V50.9844ZM181.245 47.4033C181.245 48.5687 180.952 49.4798 180.365 50.1364C179.778 50.7887 178.967 51.1148 177.932 51.1148C177.293 51.1148 176.725 50.9648 176.229 50.6648C175.734 50.3647 175.351 49.9342 175.081 49.3732C174.812 48.8122 174.677 48.1556 174.677 47.4033C174.677 46.2379 174.968 45.3312 175.551 44.6832C176.134 44.0309 176.942 43.7048 177.977 43.7048C178.978 43.7048 179.771 44.0375 180.358 44.7028C180.95 45.3681 181.245 46.2683 181.245 47.4033ZM175.799 47.4033C175.799 48.3165 175.981 49.0123 176.347 49.4906C176.712 49.969 177.249 50.2081 177.958 50.2081C178.667 50.2081 179.204 49.9711 179.569 49.4971C179.939 49.0188 180.123 48.3208 180.123 47.4033C180.123 46.4944 179.939 45.8052 179.569 45.3355C179.204 44.8615 178.662 44.6245 177.945 44.6245C177.236 44.6245 176.701 44.8572 176.34 45.3225C175.979 45.7878 175.799 46.4814 175.799 47.4033ZM184.22 47.325C184.407 47.0597 184.692 46.7119 185.074 46.2813L187.383 43.8352H188.668L185.772 46.8815L188.871 50.9844H187.56L185.035 47.6055L184.22 48.31V50.9844H183.15V40.8347H184.22V46.2161C184.22 46.4553 184.202 46.8249 184.168 47.325H184.22ZM193.189 51.1148C192.132 51.1148 191.297 50.793 190.684 50.1494C190.075 49.5058 189.771 48.6122 189.771 47.4685C189.771 46.3161 190.054 45.4007 190.619 44.7224C191.189 44.044 191.952 43.7048 192.908 43.7048C193.804 43.7048 194.513 44.0005 195.035 44.5919C195.557 45.179 195.818 45.9552 195.818 46.9206V47.6055H190.893C190.915 48.4448 191.125 49.0819 191.526 49.5167C191.93 49.9516 192.497 50.169 193.228 50.169C193.998 50.169 194.759 50.0081 195.511 49.6863V50.6517C195.128 50.817 194.765 50.9344 194.422 51.0039C194.083 51.0779 193.672 51.1148 193.189 51.1148ZM192.895 44.6115C192.321 44.6115 191.863 44.7985 191.519 45.1724C191.18 45.5464 190.98 46.0639 190.919 46.7249H194.657C194.657 46.0422 194.504 45.5203 194.2 45.1594C193.896 44.7941 193.461 44.6115 192.895 44.6115ZM202.562 50.9844V46.3596C202.562 45.7769 202.43 45.342 202.164 45.055C201.899 44.768 201.484 44.6245 200.919 44.6245C200.171 44.6245 199.623 44.8267 199.275 45.2312C198.927 45.6356 198.753 46.3031 198.753 47.2337V50.9844H197.67V43.8352H198.551L198.727 44.8137H198.779C199.001 44.4614 199.312 44.1897 199.712 43.9983C200.112 43.8026 200.558 43.7048 201.049 43.7048C201.91 43.7048 202.558 43.9135 202.993 44.331C203.428 44.7441 203.645 45.4073 203.645 46.3205V50.9844H202.562ZM209.509 50.9844V41.4479H210.618V49.9798H214.825V50.9844H209.509ZM217.369 50.9844H216.287V43.8352H217.369V50.9844ZM216.195 41.8979C216.195 41.6501 216.256 41.4696 216.378 41.3565C216.5 41.2391 216.652 41.1804 216.835 41.1804C217.008 41.1804 217.158 41.2391 217.285 41.3565C217.411 41.4739 217.474 41.6544 217.474 41.8979C217.474 42.1415 217.411 42.3241 217.285 42.4459C217.158 42.5633 217.008 42.622 216.835 42.622C216.652 42.622 216.5 42.5633 216.378 42.4459C216.256 42.3241 216.195 42.1415 216.195 41.8979ZM224.277 49.034C224.277 49.6994 224.029 50.2125 223.534 50.5734C223.038 50.9344 222.342 51.1148 221.446 51.1148C220.498 51.1148 219.759 50.9648 219.228 50.6648V49.6602C219.572 49.8342 219.939 49.9711 220.331 50.0712C220.727 50.1712 221.107 50.2212 221.472 50.2212C222.038 50.2212 222.472 50.132 222.777 49.9538C223.081 49.7711 223.233 49.495 223.233 49.1253C223.233 48.847 223.112 48.61 222.868 48.4143C222.629 48.2143 222.159 47.9795 221.459 47.7099C220.794 47.462 220.32 47.2467 220.037 47.0641C219.759 46.8771 219.55 46.6662 219.411 46.4314C219.276 46.1965 219.209 45.9161 219.209 45.5899C219.209 45.0072 219.446 44.5484 219.92 44.2136C220.394 43.8744 221.044 43.7048 221.87 43.7048C222.64 43.7048 223.392 43.8613 224.127 44.1744L223.742 45.055C223.025 44.7593 222.375 44.6115 221.792 44.6115C221.279 44.6115 220.892 44.6919 220.631 44.8528C220.37 45.0137 220.239 45.2355 220.239 45.5182C220.239 45.7095 220.287 45.8726 220.383 46.0074C220.483 46.1422 220.642 46.2705 220.859 46.3922C221.077 46.514 221.494 46.6901 222.112 46.9206C222.96 47.2293 223.531 47.5403 223.827 47.8534C224.127 48.1665 224.277 48.56 224.277 49.034ZM228.354 50.2212C228.545 50.2212 228.73 50.2081 228.908 50.1821C229.087 50.1516 229.228 50.1212 229.332 50.0907V50.9191C229.215 50.9757 229.041 51.0213 228.811 51.0561C228.584 51.0953 228.38 51.1148 228.197 51.1148C226.815 51.1148 226.123 50.3864 226.123 48.9297V44.6767H225.099V44.1549L226.123 43.7048L226.58 42.1784H227.206V43.8352H229.28V44.6767H227.206V48.884C227.206 49.3145 227.308 49.645 227.513 49.8755C227.717 50.106 227.997 50.2212 228.354 50.2212ZM231.85 50.9844H230.767V43.8352H231.85V50.9844ZM230.676 41.8979C230.676 41.6501 230.737 41.4696 230.859 41.3565C230.981 41.2391 231.133 41.1804 231.315 41.1804C231.489 41.1804 231.639 41.2391 231.765 41.3565C231.892 41.4739 231.955 41.6544 231.955 41.8979C231.955 42.1415 231.892 42.3241 231.765 42.4459C231.639 42.5633 231.489 42.622 231.315 42.622C231.133 42.622 230.981 42.5633 230.859 42.4459C230.737 42.3241 230.676 42.1415 230.676 41.8979ZM239.039 50.9844V46.3596C239.039 45.7769 238.906 45.342 238.641 45.055C238.375 44.768 237.96 44.6245 237.395 44.6245C236.647 44.6245 236.099 44.8267 235.751 45.2312C235.403 45.6356 235.229 46.3031 235.229 47.2337V50.9844H234.146V43.8352H235.027L235.203 44.8137H235.255C235.477 44.4614 235.788 44.1897 236.188 43.9983C236.588 43.8026 237.034 43.7048 237.525 43.7048C238.386 43.7048 239.034 43.9135 239.469 44.331C239.904 44.7441 240.121 45.4073 240.121 46.3205V50.9844H239.039ZM248.203 43.8352V44.5202L246.879 44.6767C247.001 44.8289 247.11 45.0289 247.205 45.2768C247.301 45.5203 247.349 45.7965 247.349 46.1052C247.349 46.8054 247.11 47.3641 246.631 47.7816C246.153 48.1991 245.496 48.4078 244.661 48.4078C244.448 48.4078 244.248 48.3904 244.061 48.3556C243.6 48.5992 243.37 48.9057 243.37 49.2754C243.37 49.4711 243.45 49.6167 243.611 49.7124C243.772 49.8037 244.048 49.8494 244.44 49.8494H245.705C246.479 49.8494 247.073 50.0125 247.486 50.3386C247.903 50.6648 248.112 51.1388 248.112 51.7606C248.112 52.5521 247.794 53.1543 247.16 53.5675C246.525 53.9849 245.598 54.1937 244.381 54.1937C243.446 54.1937 242.724 54.0197 242.215 53.6718C241.711 53.3239 241.459 52.8325 241.459 52.1976C241.459 51.7628 241.598 51.3866 241.876 51.0692C242.154 50.7517 242.546 50.5365 243.05 50.4234C242.868 50.3408 242.713 50.2125 242.587 50.0386C242.465 49.8646 242.404 49.6624 242.404 49.4319C242.404 49.171 242.474 48.9427 242.613 48.747C242.752 48.5513 242.972 48.3622 243.272 48.1795C242.902 48.0273 242.6 47.7686 242.365 47.4033C242.135 47.038 242.02 46.6205 242.02 46.1509C242.02 45.3681 242.254 44.7658 242.724 44.344C243.194 43.9179 243.859 43.7048 244.72 43.7048C245.094 43.7048 245.431 43.7483 245.731 43.8352H248.203ZM242.502 52.1846C242.502 52.5716 242.665 52.8652 242.991 53.0652C243.318 53.2652 243.785 53.3652 244.394 53.3652C245.303 53.3652 245.975 53.2283 246.409 52.9543C246.849 52.6847 247.068 52.3172 247.068 51.8519C247.068 51.4649 246.949 51.1953 246.71 51.0431C246.47 50.8952 246.02 50.8213 245.359 50.8213H244.061C243.57 50.8213 243.187 50.9387 242.913 51.1735C242.639 51.4084 242.502 51.7454 242.502 52.1846ZM243.089 46.1248C243.089 46.6249 243.231 47.0032 243.513 47.2598C243.796 47.5164 244.189 47.6446 244.694 47.6446C245.751 47.6446 246.279 47.1315 246.279 46.1052C246.279 45.0311 245.744 44.4941 244.674 44.4941C244.166 44.4941 243.774 44.631 243.5 44.905C243.226 45.179 243.089 45.5856 243.089 46.1248ZM255.998 51.1148C254.963 51.1148 254.161 50.7974 253.591 50.1625C253.026 49.5232 252.743 48.6209 252.743 47.4555C252.743 46.2596 253.03 45.3355 253.604 44.6832C254.183 44.0309 255.005 43.7048 256.07 43.7048C256.413 43.7048 256.757 43.7417 257.101 43.8157C257.444 43.8896 257.714 43.9766 257.909 44.0766L257.577 44.9963C257.338 44.9007 257.077 44.8224 256.794 44.7615C256.511 44.6963 256.261 44.6637 256.044 44.6637C254.591 44.6637 253.865 45.5899 253.865 47.4424C253.865 48.3208 254.041 48.9949 254.394 49.4645C254.75 49.9342 255.276 50.169 255.972 50.169C256.568 50.169 257.179 50.0407 257.805 49.7842V50.743C257.327 50.9909 256.724 51.1148 255.998 51.1148ZM265.678 47.4033C265.678 48.5687 265.385 49.4798 264.798 50.1364C264.211 50.7887 263.4 51.1148 262.365 51.1148C261.725 51.1148 261.158 50.9648 260.662 50.6648C260.166 50.3647 259.784 49.9342 259.514 49.3732C259.244 48.8122 259.11 48.1556 259.11 47.4033C259.11 46.2379 259.401 45.3312 259.984 44.6832C260.566 44.0309 261.375 43.7048 262.41 43.7048C263.41 43.7048 264.204 44.0375 264.791 44.7028C265.382 45.3681 265.678 46.2683 265.678 47.4033ZM260.232 47.4033C260.232 48.3165 260.414 49.0123 260.779 49.4906C261.145 49.969 261.682 50.2081 262.391 50.2081C263.099 50.2081 263.637 49.9711 264.002 49.4971C264.371 49.0188 264.556 48.3208 264.556 47.4033C264.556 46.4944 264.371 45.8052 264.002 45.3355C263.637 44.8615 263.095 44.6245 262.378 44.6245C261.669 44.6245 261.134 44.8572 260.773 45.3225C260.412 45.7878 260.232 46.4814 260.232 47.4033ZM268.6 43.8352V48.473C268.6 49.0558 268.733 49.4906 268.998 49.7776C269.264 50.0646 269.679 50.2081 270.244 50.2081C270.992 50.2081 271.538 50.0038 271.882 49.595C272.229 49.1862 272.403 48.5187 272.403 47.5925V43.8352H273.486V50.9844H272.593L272.436 50.0255H272.377C272.155 50.3777 271.847 50.6474 271.451 50.8343C271.06 51.0213 270.612 51.1148 270.107 51.1148C269.238 51.1148 268.585 50.9083 268.15 50.4952C267.72 50.082 267.505 49.421 267.505 48.5122V43.8352H268.6ZM279.05 43.7048C279.368 43.7048 279.652 43.7309 279.905 43.7831L279.755 44.7876C279.459 44.7224 279.198 44.6897 278.972 44.6897C278.394 44.6897 277.898 44.9246 277.485 45.3942C277.076 45.8639 276.872 46.4488 276.872 47.1489V50.9844H275.789V43.8352H276.682L276.806 45.1594H276.858C277.124 44.6941 277.443 44.3353 277.817 44.0831C278.191 43.8309 278.602 43.7048 279.05 43.7048ZM283.551 50.2212C283.742 50.2212 283.927 50.2081 284.105 50.1821C284.284 50.1516 284.425 50.1212 284.529 50.0907V50.9191C284.412 50.9757 284.238 51.0213 284.008 51.0561C283.782 51.0953 283.577 51.1148 283.394 51.1148C282.012 51.1148 281.32 50.3864 281.32 48.9297V44.6767H280.296V44.1549L281.32 43.7048L281.777 42.1784H282.403V43.8352H284.477V44.6767H282.403V48.884C282.403 49.3145 282.505 49.645 282.71 49.8755C282.914 50.106 283.194 50.2212 283.551 50.2212Z" class="path-4"/>
<g clip-path="url(#clip0_13917_210903)">
<path fill-rule="evenodd" clip-rule="evenodd" d="M33.1502 149.949L39.0276 150.212L41.4071 155.5L38.05 160.333L32.1407 159.955L29.718 154.225L33.1502 149.949ZM37.4591 152.997L33.1995 154.859L36.8412 157.675L37.4591 152.997ZM36.9659 152.065L33.5618 150.599L32.8468 153.681L36.9659 152.065ZM36.1031 158.384L32.4035 155.741L32.493 159.322L36.1031 158.384ZM40.8162 155.488L38.2951 152.93L37.6297 157.85L40.8162 155.488ZM36.9705 158.959L33.8504 159.775L37.5196 160.01L36.9705 158.959ZM40.3235 156.649L37.5923 158.684L38.135 159.745L40.3235 156.649ZM39.0316 150.951L38.5011 152.04L40.4757 154.048L39.0316 150.951ZM38.3707 150.43L34.9033 150.289L37.7635 151.54L38.3707 150.43ZM32.6438 150.933L30.2152 154.001L31.8389 154.345L32.6438 150.933ZM31.741 154.946L30.1094 154.601L31.8119 158.612L31.741 154.946Z" class="path-5"/>
</g>
<path d="M52.9267 160.062L50.0957 152.665H50.0501C50.1033 153.251 50.13 153.948 50.13 154.754V160.062H49.2339V151.718H50.695L53.3376 158.601H53.3833L56.0487 151.718H57.4984V160.062H56.5282V154.686C56.5282 154.07 56.5548 153.4 56.6081 152.677H56.5624L53.7086 160.062H52.9267ZM58.6571 153.807H59.673L61.0428 157.374C61.3434 158.189 61.5299 158.776 61.6022 159.138H61.6478C61.6973 158.944 61.8 158.613 61.956 158.145C62.1159 157.673 62.6333 156.227 63.5085 153.807H64.5245L61.8362 160.93C61.5698 161.634 61.2578 162.132 60.9001 162.425C60.5463 162.722 60.1106 162.871 59.5931 162.871C59.3039 162.871 59.0186 162.838 58.737 162.774V162.014C58.9463 162.06 59.1803 162.083 59.439 162.083C60.0897 162.083 60.5539 161.718 60.8317 160.987L61.1798 160.097L58.6571 153.807ZM73.4282 157.842C73.4282 158.577 73.1619 159.149 72.6292 159.56C72.0965 159.971 71.3735 160.177 70.4603 160.177C69.471 160.177 68.71 160.049 68.1773 159.794V158.858C68.5197 159.003 68.8926 159.117 69.296 159.201C69.6993 159.284 70.0988 159.326 70.4946 159.326C71.1414 159.326 71.6285 159.204 71.9557 158.961C72.2829 158.714 72.4465 158.371 72.4465 157.934C72.4465 157.644 72.3876 157.408 72.2696 157.226C72.1555 157.039 71.9614 156.868 71.6874 156.712C71.4173 156.556 71.0044 156.379 70.4489 156.181C69.6727 155.904 69.1171 155.574 68.7823 155.194C68.4513 154.813 68.2857 154.317 68.2857 153.704C68.2857 153.061 68.5274 152.549 69.0106 152.169C69.4938 151.788 70.1331 151.598 70.9283 151.598C71.7578 151.598 72.5207 151.75 73.2171 152.055L72.9146 152.9C72.2259 152.61 71.5562 152.466 70.9055 152.466C70.3918 152.466 69.9904 152.576 69.7012 152.797C69.412 153.017 69.2674 153.324 69.2674 153.716C69.2674 154.005 69.3207 154.243 69.4272 154.429C69.5338 154.612 69.7126 154.781 69.9638 154.937C70.2187 155.089 70.6068 155.259 71.1281 155.445C72.0033 155.757 72.6045 156.092 72.9317 156.45C73.2627 156.807 73.4282 157.272 73.4282 157.842ZM77.0126 159.395C77.18 159.395 77.3417 159.383 77.4977 159.36C77.6537 159.334 77.7774 159.307 77.8687 159.281V160.005C77.766 160.055 77.6138 160.095 77.4121 160.125C77.2143 160.16 77.0354 160.177 76.8756 160.177C75.6656 160.177 75.0606 159.539 75.0606 158.265V154.543H74.1645V154.087L75.0606 153.693L75.4601 152.357H76.0081V153.807H77.8231V154.543H76.0081V158.225C76.0081 158.601 76.0975 158.891 76.2763 159.092C76.4552 159.294 76.7006 159.395 77.0126 159.395ZM82.9713 160.062L82.7829 159.172H82.7373C82.4253 159.564 82.1133 159.83 81.8012 159.971C81.493 160.108 81.1068 160.177 80.6426 160.177C80.0224 160.177 79.5353 160.017 79.1815 159.697C78.8314 159.378 78.6564 158.923 78.6564 158.333C78.6564 157.07 79.6666 156.408 81.6871 156.347L82.7487 156.313V155.925C82.7487 155.434 82.6422 155.072 82.4291 154.84C82.2198 154.604 81.8831 154.486 81.4188 154.486C80.8975 154.486 80.3078 154.646 79.6495 154.966L79.3584 154.241C79.6666 154.073 80.0034 153.942 80.3686 153.847C80.7377 153.752 81.1068 153.704 81.4759 153.704C82.2217 153.704 82.7734 153.87 83.1311 154.201C83.4926 154.532 83.6733 155.063 83.6733 155.793V160.062H82.9713ZM80.831 159.395C81.4207 159.395 81.8831 159.233 82.2179 158.91C82.5565 158.586 82.7259 158.133 82.7259 157.551V156.986L81.7784 157.026C81.025 157.053 80.4809 157.171 80.1461 157.38C79.815 157.585 79.6495 157.907 79.6495 158.345C79.6495 158.687 79.7522 158.948 79.9577 159.126C80.167 159.305 80.4581 159.395 80.831 159.395ZM86.5671 156.861C86.7307 156.628 86.9799 156.324 87.3147 155.947L89.3352 153.807H90.4596L87.9255 156.472L90.6366 160.062H89.4893L87.2805 157.106L86.5671 157.722V160.062H85.631V151.182H86.5671V155.89C86.5671 156.1 86.5518 156.423 86.5214 156.861H86.5671ZM94.415 160.177C93.4903 160.177 92.7598 159.895 92.2233 159.332C91.6905 158.769 91.4242 157.987 91.4242 156.986C91.4242 155.978 91.6715 155.177 92.1662 154.583C92.6646 153.99 93.3324 153.693 94.1695 153.693C94.9534 153.693 95.5736 153.952 96.0302 154.469C96.4868 154.983 96.7151 155.662 96.7151 156.507V157.106H92.4059C92.4249 157.84 92.6095 158.398 92.9595 158.778C93.3134 159.159 93.81 159.349 94.4492 159.349C95.1227 159.349 95.7886 159.208 96.4469 158.927V159.771C96.112 159.916 95.7943 160.019 95.4937 160.08C95.1969 160.144 94.8373 160.177 94.415 160.177ZM94.1581 154.486C93.6559 154.486 93.2544 154.65 92.9538 154.977C92.657 155.304 92.482 155.757 92.4287 156.335H95.6992C95.6992 155.738 95.566 155.281 95.2996 154.966C95.0333 154.646 94.6528 154.486 94.1581 154.486ZM98.1991 159.457C98.1991 159.203 98.2561 159.01 98.3703 158.881C98.4883 158.748 98.6557 158.681 98.8726 158.681C99.0933 158.681 99.2645 158.748 99.3862 158.881C99.5118 159.01 99.5746 159.203 99.5746 159.457C99.5746 159.705 99.5118 159.895 99.3862 160.028C99.2607 160.161 99.0895 160.228 98.8726 160.228C98.6785 160.228 98.5168 160.169 98.3874 160.051C98.2619 159.929 98.1991 159.731 98.1991 159.457ZM98.1991 154.418C98.1991 153.904 98.4236 153.647 98.8726 153.647C99.3406 153.647 99.5746 153.904 99.5746 154.418C99.5746 154.665 99.5118 154.855 99.3862 154.988C99.2607 155.122 99.0895 155.188 98.8726 155.188C98.6785 155.188 98.5168 155.129 98.3874 155.011C98.2619 154.89 98.1991 154.692 98.1991 154.418Z" class="path-6"/>
<path d="M112.841 160.062H111.5V154.675C111.5 154.032 111.515 153.522 111.546 153.145C111.458 153.236 111.35 153.337 111.22 153.447C111.095 153.558 110.669 153.908 109.942 154.498L109.268 153.647L111.723 151.718H112.841V160.062ZM121.237 155.89C121.237 157.34 121.003 158.417 120.535 159.121C120.071 159.825 119.359 160.177 118.4 160.177C117.472 160.177 116.768 159.813 116.289 159.087C115.809 158.36 115.569 157.294 115.569 155.89C115.569 154.418 115.802 153.333 116.266 152.637C116.734 151.937 117.445 151.587 118.4 151.587C119.333 151.587 120.038 151.952 120.518 152.683C120.997 153.413 121.237 154.482 121.237 155.89ZM116.928 155.89C116.928 157.028 117.044 157.84 117.276 158.327C117.512 158.814 117.887 159.058 118.4 159.058C118.914 159.058 119.289 158.811 119.525 158.316C119.765 157.821 119.884 157.013 119.884 155.89C119.884 154.772 119.765 153.963 119.525 153.465C119.289 152.962 118.914 152.711 118.4 152.711C117.887 152.711 117.512 152.957 117.276 153.447C117.044 153.938 116.928 154.753 116.928 155.89ZM124.097 158.835C123.914 159.543 123.579 160.454 123.092 161.569H122.105C122.367 160.542 122.563 159.587 122.692 158.704H124.011L124.097 158.835ZM131.043 155.89C131.043 157.34 130.809 158.417 130.341 159.121C129.876 159.825 129.165 160.177 128.206 160.177C127.278 160.177 126.574 159.813 126.094 159.087C125.615 158.36 125.375 157.294 125.375 155.89C125.375 154.418 125.607 153.333 126.071 152.637C126.539 151.937 127.251 151.587 128.206 151.587C129.138 151.587 129.844 151.952 130.324 152.683C130.803 153.413 131.043 154.482 131.043 155.89ZM126.733 155.89C126.733 157.028 126.849 157.84 127.082 158.327C127.318 158.814 127.692 159.058 128.206 159.058C128.72 159.058 129.094 158.811 129.33 158.316C129.57 157.821 129.69 157.013 129.69 155.89C129.69 154.772 129.57 153.963 129.33 153.465C129.094 152.962 128.72 152.711 128.206 152.711C127.692 152.711 127.318 152.957 127.082 153.447C126.849 153.938 126.733 154.753 126.733 155.89ZM137.721 155.89C137.721 157.34 137.486 158.417 137.018 159.121C136.554 159.825 135.843 160.177 134.884 160.177C133.955 160.177 133.251 159.813 132.772 159.087C132.293 158.36 132.053 157.294 132.053 155.89C132.053 154.418 132.285 153.333 132.749 152.637C133.217 151.937 133.929 151.587 134.884 151.587C135.816 151.587 136.522 151.952 137.001 152.683C137.481 153.413 137.721 154.482 137.721 155.89ZM133.411 155.89C133.411 157.028 133.527 157.84 133.759 158.327C133.995 158.814 134.37 159.058 134.884 159.058C135.398 159.058 135.772 158.811 136.008 158.316C136.248 157.821 136.368 157.013 136.368 155.89C136.368 154.772 136.248 153.963 136.008 153.465C135.772 152.962 135.398 152.711 134.884 152.711C134.37 152.711 133.995 152.957 133.759 153.447C133.527 153.938 133.411 154.753 133.411 155.89ZM144.398 155.89C144.398 157.34 144.164 158.417 143.696 159.121C143.232 159.825 142.521 160.177 141.562 160.177C140.633 160.177 139.929 159.813 139.45 159.087C138.97 158.36 138.731 157.294 138.731 155.89C138.731 154.418 138.963 153.333 139.427 152.637C139.895 151.937 140.607 151.587 141.562 151.587C142.494 151.587 143.2 151.952 143.679 152.683C144.159 153.413 144.398 154.482 144.398 155.89ZM140.089 155.89C140.089 157.028 140.205 157.84 140.437 158.327C140.673 158.814 141.048 159.058 141.562 159.058C142.075 159.058 142.45 158.811 142.686 158.316C142.926 157.821 143.046 157.013 143.046 155.89C143.046 154.772 142.926 153.963 142.686 153.465C142.45 152.962 142.075 152.711 141.562 152.711C141.048 152.711 140.673 152.957 140.437 153.447C140.205 153.938 140.089 154.753 140.089 155.89ZM154.569 154.241C154.569 155.112 154.284 155.78 153.713 156.244C153.142 156.708 152.33 156.94 151.276 156.94H150.408V160.062H149.044V151.718H151.447C152.49 151.718 153.27 151.931 153.787 152.357C154.309 152.783 154.569 153.411 154.569 154.241ZM150.408 155.793H151.133C151.833 155.793 152.347 155.671 152.674 155.428C153.002 155.184 153.165 154.804 153.165 154.286C153.165 153.807 153.019 153.449 152.726 153.213C152.433 152.978 151.976 152.86 151.356 152.86H150.408V155.793ZM163.188 160.062H161.515L157.412 153.413H157.366L157.394 153.784C157.448 154.492 157.474 155.139 157.474 155.725V160.062H156.236V151.718H157.891L161.983 158.333H162.018C162.01 158.246 161.995 157.928 161.972 157.38C161.949 156.828 161.938 156.398 161.938 156.09V151.718H163.188V160.062ZM171.76 160.062H170.179L167.56 156.284L166.755 156.94V160.062H165.391V151.718H166.755V155.702C167.128 155.245 167.499 154.806 167.868 154.383L170.122 151.718H171.675C170.217 153.43 169.173 154.65 168.541 155.377L171.76 160.062Z" class="path-7"/>
<g clip-path="url(#clip1_13917_210903)">
<path d="M208.259 154.333H207.717V152.689C207.717 150.776 206.175 149.219 204.28 149.219C202.385 149.219 200.842 150.776 200.842 152.689V154.333H200.3C199.701 154.333 199.214 154.824 199.214 155.429V159.812C199.214 160.417 199.701 160.908 200.3 160.908H208.259C208.859 160.908 209.345 160.417 209.345 159.812V155.429C209.345 154.824 208.859 154.333 208.259 154.333ZM205.908 154.333H202.652V152.689C202.652 151.783 203.382 151.045 204.28 151.045C205.177 151.045 205.908 151.783 205.908 152.689V154.333Z" class="path-8"/>
</g>
<path d="M218 160.062V151.718H218.97V159.184H222.651V160.062H218ZM229.329 156.929C229.329 157.949 229.072 158.746 228.559 159.321C228.045 159.891 227.335 160.177 226.43 160.177C225.87 160.177 225.374 160.045 224.94 159.783C224.506 159.52 224.172 159.144 223.936 158.653C223.7 158.162 223.582 157.587 223.582 156.929C223.582 155.909 223.837 155.116 224.347 154.549C224.856 153.978 225.564 153.693 226.47 153.693C227.345 153.693 228.039 153.984 228.553 154.566C229.071 155.148 229.329 155.936 229.329 156.929ZM224.563 156.929C224.563 157.728 224.723 158.337 225.043 158.755C225.363 159.174 225.832 159.383 226.453 159.383C227.073 159.383 227.543 159.176 227.862 158.761C228.186 158.343 228.348 157.732 228.348 156.929C228.348 156.134 228.186 155.531 227.862 155.12C227.543 154.705 227.069 154.498 226.441 154.498C225.821 154.498 225.353 154.701 225.037 155.108C224.721 155.515 224.563 156.122 224.563 156.929ZM233.496 160.177C232.59 160.177 231.888 159.899 231.39 159.343C230.895 158.784 230.648 157.994 230.648 156.975C230.648 155.928 230.899 155.12 231.401 154.549C231.907 153.978 232.626 153.693 233.559 153.693C233.859 153.693 234.16 153.725 234.46 153.79C234.761 153.855 234.997 153.931 235.168 154.018L234.877 154.823C234.668 154.739 234.439 154.671 234.192 154.617C233.945 154.56 233.726 154.532 233.536 154.532C232.265 154.532 231.629 155.342 231.629 156.963C231.629 157.732 231.784 158.322 232.092 158.733C232.404 159.144 232.864 159.349 233.473 159.349C233.994 159.349 234.529 159.237 235.077 159.012V159.851C234.658 160.068 234.131 160.177 233.496 160.177ZM237.503 156.861C237.666 156.628 237.915 156.324 238.25 155.947L240.271 153.807H241.395L238.861 156.472L241.572 160.062H240.425L238.216 157.106L237.503 157.722V160.062H236.566V151.182H237.503V155.89C237.503 156.1 237.487 156.423 237.457 156.861H237.503ZM245.35 160.177C244.426 160.177 243.695 159.895 243.159 159.332C242.626 158.769 242.36 157.987 242.36 156.986C242.36 155.978 242.607 155.177 243.102 154.583C243.6 153.99 244.268 153.693 245.105 153.693C245.889 153.693 246.509 153.952 246.966 154.469C247.422 154.983 247.651 155.662 247.651 156.507V157.106H243.341C243.36 157.84 243.545 158.398 243.895 158.778C244.249 159.159 244.745 159.349 245.385 159.349C246.058 159.349 246.724 159.208 247.382 158.927V159.771C247.047 159.916 246.73 160.019 246.429 160.08C246.132 160.144 245.773 160.177 245.35 160.177ZM245.094 154.486C244.591 154.486 244.19 154.65 243.889 154.977C243.592 155.304 243.417 155.757 243.364 156.335H246.635C246.635 155.738 246.501 155.281 246.235 154.966C245.969 154.646 245.588 154.486 245.094 154.486ZM253.529 159.223H253.478C253.04 159.859 252.386 160.177 251.515 160.177C250.696 160.177 250.059 159.897 249.603 159.338C249.15 158.778 248.923 157.983 248.923 156.952C248.923 155.921 249.152 155.12 249.608 154.549C250.065 153.978 250.7 153.693 251.515 153.693C252.363 153.693 253.014 154.001 253.467 154.617H253.541L253.501 154.167L253.478 153.727V151.182H254.425V160.062H253.655L253.529 159.223ZM251.634 159.383C252.281 159.383 252.749 159.208 253.038 158.858C253.331 158.504 253.478 157.935 253.478 157.152V156.952C253.478 156.065 253.33 155.434 253.033 155.057C252.74 154.676 252.27 154.486 251.623 154.486C251.067 154.486 250.641 154.703 250.345 155.137C250.052 155.567 249.905 156.176 249.905 156.963C249.905 157.762 250.052 158.365 250.345 158.773C250.638 159.18 251.067 159.383 251.634 159.383ZM264.328 157.842C264.328 158.577 264.062 159.149 263.529 159.56C262.996 159.971 262.273 160.177 261.36 160.177C260.371 160.177 259.61 160.049 259.077 159.794V158.858C259.42 159.003 259.792 159.117 260.196 159.201C260.599 159.284 260.999 159.326 261.394 159.326C262.041 159.326 262.528 159.204 262.855 158.961C263.183 158.714 263.346 158.371 263.346 157.934C263.346 157.644 263.287 157.408 263.169 157.226C263.055 157.039 262.861 156.868 262.587 156.712C262.317 156.556 261.904 156.379 261.349 156.181C260.572 155.904 260.017 155.574 259.682 155.194C259.351 154.813 259.186 154.317 259.186 153.704C259.186 153.061 259.427 152.549 259.91 152.169C260.394 151.788 261.033 151.598 261.828 151.598C262.658 151.598 263.421 151.75 264.117 152.055L263.814 152.9C263.126 152.61 262.456 152.466 261.805 152.466C261.292 152.466 260.89 152.576 260.601 152.797C260.312 153.017 260.167 153.324 260.167 153.716C260.167 154.005 260.221 154.243 260.327 154.429C260.434 154.612 260.612 154.781 260.864 154.937C261.118 155.089 261.507 155.259 262.028 155.445C262.903 155.757 263.504 156.092 263.831 156.45C264.163 156.807 264.328 157.272 264.328 157.842ZM267.912 159.395C268.08 159.395 268.242 159.383 268.398 159.36C268.554 159.334 268.677 159.307 268.769 159.281V160.005C268.666 160.055 268.514 160.095 268.312 160.125C268.114 160.16 267.935 160.177 267.775 160.177C266.565 160.177 265.96 159.539 265.96 158.265V154.543H265.064V154.087L265.96 153.693L266.36 152.357H266.908V153.807H268.723V154.543H266.908V158.225C266.908 158.601 266.997 158.891 267.176 159.092C267.355 159.294 267.6 159.395 267.912 159.395ZM273.871 160.062L273.683 159.172H273.637C273.325 159.564 273.013 159.83 272.701 159.971C272.393 160.108 272.007 160.177 271.542 160.177C270.922 160.177 270.435 160.017 270.081 159.697C269.731 159.378 269.556 158.923 269.556 158.333C269.556 157.07 270.566 156.408 272.587 156.347L273.648 156.313V155.925C273.648 155.434 273.542 155.072 273.329 154.84C273.12 154.604 272.783 154.486 272.319 154.486C271.797 154.486 271.208 154.646 270.549 154.966L270.258 154.241C270.566 154.073 270.903 153.942 271.268 153.847C271.638 153.752 272.007 153.704 272.376 153.704C273.121 153.704 273.673 153.87 274.031 154.201C274.392 154.532 274.573 155.063 274.573 155.793V160.062H273.871ZM271.731 159.395C272.321 159.395 272.783 159.233 273.118 158.91C273.456 158.586 273.626 158.133 273.626 157.551V156.986L272.678 157.026C271.925 157.053 271.381 157.171 271.046 157.38C270.715 157.585 270.549 157.907 270.549 158.345C270.549 158.687 270.652 158.948 270.858 159.126C271.067 159.305 271.358 159.395 271.731 159.395ZM277.467 156.861C277.63 156.628 277.88 156.324 278.215 155.947L280.235 153.807H281.359L278.825 156.472L281.536 160.062H280.389L278.18 157.106L277.467 157.722V160.062H276.531V151.182H277.467V155.89C277.467 156.1 277.452 156.423 277.421 156.861H277.467ZM285.315 160.177C284.39 160.177 283.66 159.895 283.123 159.332C282.59 158.769 282.324 157.987 282.324 156.986C282.324 155.978 282.571 155.177 283.066 154.583C283.564 153.99 284.232 153.693 285.069 153.693C285.853 153.693 286.473 153.952 286.93 154.469C287.387 154.983 287.615 155.662 287.615 156.507V157.106H283.306C283.325 157.84 283.509 158.398 283.859 158.778C284.213 159.159 284.71 159.349 285.349 159.349C286.022 159.349 286.688 159.208 287.347 158.927V159.771C287.012 159.916 286.694 160.019 286.393 160.08C286.097 160.144 285.737 160.177 285.315 160.177ZM285.058 154.486C284.556 154.486 284.154 154.65 283.854 154.977C283.557 155.304 283.382 155.757 283.329 156.335H286.599C286.599 155.738 286.466 155.281 286.199 154.966C285.933 154.646 285.553 154.486 285.058 154.486ZM289.099 159.457C289.099 159.203 289.156 159.01 289.27 158.881C289.388 158.748 289.555 158.681 289.772 158.681C289.993 158.681 290.164 158.748 290.286 158.881C290.412 159.01 290.474 159.203 290.474 159.457C290.474 159.705 290.412 159.895 290.286 160.028C290.16 160.161 289.989 160.228 289.772 160.228C289.578 160.228 289.417 160.169 289.287 160.051C289.162 159.929 289.099 159.731 289.099 159.457ZM289.099 154.418C289.099 153.904 289.323 153.647 289.772 153.647C290.24 153.647 290.474 153.904 290.474 154.418C290.474 154.665 290.412 154.855 290.286 154.988C290.16 155.122 289.989 155.188 289.772 155.188C289.578 155.188 289.417 155.129 289.287 155.011C289.162 154.89 289.099 154.692 289.099 154.418Z" class="path-9"/>
<path d="M304.495 153.636C304.495 154.165 304.341 154.606 304.032 154.96C303.724 155.31 303.29 155.546 302.731 155.668V155.713C303.401 155.797 303.903 156.006 304.238 156.341C304.573 156.672 304.74 157.114 304.74 157.665C304.74 158.468 304.457 159.088 303.89 159.526C303.323 159.96 302.516 160.177 301.47 160.177C300.545 160.177 299.765 160.026 299.129 159.726V158.533C299.483 158.708 299.858 158.843 300.254 158.938C300.65 159.033 301.03 159.081 301.395 159.081C302.042 159.081 302.525 158.961 302.845 158.721C303.165 158.482 303.325 158.111 303.325 157.608C303.325 157.163 303.148 156.836 302.794 156.627C302.44 156.417 301.884 156.313 301.127 156.313H300.402V155.222H301.139C302.47 155.222 303.136 154.762 303.136 153.841C303.136 153.484 303.02 153.208 302.788 153.014C302.556 152.82 302.213 152.723 301.761 152.723C301.445 152.723 301.14 152.768 300.847 152.86C300.554 152.947 300.208 153.12 299.809 153.379L299.152 152.443C299.917 151.88 300.806 151.598 301.818 151.598C302.659 151.598 303.315 151.779 303.787 152.14C304.259 152.502 304.495 153 304.495 153.636ZM311.486 155.89C311.486 157.34 311.252 158.417 310.784 159.121C310.32 159.825 309.609 160.177 308.65 160.177C307.721 160.177 307.017 159.813 306.538 159.087C306.058 158.36 305.819 157.294 305.819 155.89C305.819 154.418 306.051 153.333 306.515 152.637C306.983 151.937 307.695 151.587 308.65 151.587C309.582 151.587 310.288 151.952 310.767 152.683C311.247 153.413 311.486 154.482 311.486 155.89ZM307.177 155.89C307.177 157.028 307.293 157.84 307.525 158.327C307.761 158.814 308.136 159.058 308.65 159.058C309.163 159.058 309.538 158.811 309.774 158.316C310.014 157.821 310.134 157.013 310.134 155.89C310.134 154.772 310.014 153.963 309.774 153.465C309.538 152.962 309.163 152.711 308.65 152.711C308.136 152.711 307.761 152.957 307.525 153.447C307.293 153.938 307.177 154.753 307.177 155.89ZM318.164 155.89C318.164 157.34 317.93 158.417 317.462 159.121C316.998 159.825 316.286 160.177 315.328 160.177C314.399 160.177 313.695 159.813 313.216 159.087C312.736 158.36 312.497 157.294 312.497 155.89C312.497 154.418 312.729 153.333 313.193 152.637C313.661 151.937 314.372 151.587 315.328 151.587C316.26 151.587 316.966 151.952 317.445 152.683C317.925 153.413 318.164 154.482 318.164 155.89ZM313.855 155.89C313.855 157.028 313.971 157.84 314.203 158.327C314.439 158.814 314.814 159.058 315.328 159.058C315.841 159.058 316.216 158.811 316.452 158.316C316.692 157.821 316.812 157.013 316.812 155.89C316.812 154.772 316.692 153.963 316.452 153.465C316.216 152.962 315.841 152.711 315.328 152.711C314.814 152.711 314.439 152.957 314.203 153.447C313.971 153.938 313.855 154.753 313.855 155.89ZM328.335 154.241C328.335 155.112 328.05 155.78 327.479 156.244C326.908 156.708 326.096 156.94 325.042 156.94H324.174V160.062H322.81V151.718H325.213C326.256 151.718 327.036 151.931 327.553 152.357C328.074 152.783 328.335 153.411 328.335 154.241ZM324.174 155.793H324.899C325.599 155.793 326.113 155.671 326.44 155.428C326.767 155.184 326.931 154.804 326.931 154.286C326.931 153.807 326.785 153.449 326.492 153.213C326.199 152.978 325.742 152.86 325.122 152.86H324.174V155.793ZM336.954 160.062H335.281L331.177 153.413H331.132L331.16 153.784C331.214 154.492 331.24 155.139 331.24 155.725V160.062H330.002V151.718H331.657L335.749 158.333H335.783C335.776 158.246 335.761 157.928 335.738 157.38C335.715 156.828 335.704 156.398 335.704 156.09V151.718H336.954V160.062ZM345.526 160.062H343.945L341.326 156.284L340.521 156.94V160.062H339.157V151.718H340.521V155.702C340.894 155.245 341.265 154.806 341.634 154.383L343.888 151.718H345.441C343.983 153.43 342.939 154.65 342.307 155.377L345.526 160.062Z" class="path-10"/>
<defs>
<filter id="filter0_d_13917_210903" x="0.495195" y="0.165065" width="390.01" height="193.791" filterUnits="userSpaceOnUse" color-interpolation-filters="sRGB">
<feFlood flood-opacity="0" result="BackgroundImageFix"/>
<feColorMatrix in="SourceAlpha" type="matrix" values="0 0 0 0 0 0 0 0 0 0 0 0 0 0 0 0 0 0 127 0" result="hardAlpha"/>
<feOffset dy="1.66987"/>
<feGaussianBlur stdDeviation="1.2524"/>
<feColorMatrix type="matrix" values="0 0 0 0 0 0 0 0 0 0 0 0 0 0 0 0 0 0 0.06 0"/>
<feBlend mode="normal" in2="BackgroundImageFix" result="effect1_dropShadow_13917_210903"/>
<feBlend mode="normal" in="SourceGraphic" in2="effect1_dropShadow_13917_210903" result="shape"/>
</filter>
<clipPath id="clip0_13917_210903">
<rect width="11.6891" height="11.6891" transform="translate(29.718 149.219)" class="rect-5"/>
</clipPath>
<clipPath id="clip1_13917_210903">
<rect width="11.6891" height="11.6891" transform="translate(198.484 149.219)" class="rect-6"/>
</clipPath>
</defs>
</svg>
