<svg width="346" height="403" viewBox="0 0 346 403" fill="none" xmlns="http://www.w3.org/2000/svg">
<g filter="url(#filter0_d_21428_72841)">
<rect x="3" y="1" width="340" height="398" rx="2.31757" class="rect-1"/>
<rect x="3.38626" y="1.38626" width="339.227" height="397.227" rx="1.93131" stroke-width="0.772523" class="rect-2"/>
</g>
<path d="M107.203 61H104.492L97.8388 50.2203H97.7648L97.811 50.8218C97.8974 51.9691 97.9406 53.0178 97.9406 53.9678V61H95.9327V47.4722H98.616L105.25 58.1964H105.306C105.294 58.0545 105.269 57.5394 105.232 56.6511C105.195 55.7567 105.176 55.0596 105.176 54.56V47.4722H107.203V61ZM117.76 61L117.455 59.6583H117.344C117.042 60.1333 116.61 60.5065 116.049 60.7779C115.493 61.0493 114.858 61.1851 114.142 61.1851C112.903 61.1851 111.977 60.8766 111.367 60.2598C110.756 59.6429 110.451 58.7084 110.451 57.4561V50.7663H112.643V57.0768C112.643 57.8602 112.804 58.4493 113.125 58.8441C113.445 59.2327 113.948 59.427 114.633 59.427C115.546 59.427 116.215 59.1556 116.641 58.6127C117.073 58.0637 117.288 57.1477 117.288 55.8646V50.7663H119.472V61H117.76ZM131.196 61H129.012V54.6895C129.012 53.9061 128.864 53.3232 128.568 52.9407C128.272 52.5521 127.809 52.3578 127.18 52.3578C126.341 52.3578 125.724 52.6323 125.329 53.1813C124.941 53.7241 124.746 54.6309 124.746 55.9016V61H122.572V50.7663H124.274L124.58 52.1079H124.691C124.975 51.6206 125.385 51.2443 125.921 50.9791C126.464 50.7138 127.06 50.5812 127.707 50.5812C129.28 50.5812 130.323 51.1179 130.835 52.1912H130.983C131.285 51.6854 131.711 51.2906 132.26 51.0068C132.809 50.7231 133.438 50.5812 134.147 50.5812C135.369 50.5812 136.257 50.8896 136.812 51.5065C137.373 52.1234 137.654 53.0641 137.654 54.3286V61H135.48V54.6895C135.48 53.9061 135.329 53.3232 135.026 52.9407C134.73 52.5521 134.268 52.3578 133.638 52.3578C132.793 52.3578 132.173 52.623 131.779 53.1535C131.39 53.6778 131.196 54.4859 131.196 55.5778V61ZM145.917 50.5812C147.194 50.5812 148.187 51.0438 148.896 51.9691C149.612 52.8944 149.97 54.1929 149.97 55.8646C149.97 57.5425 149.609 58.8502 148.887 59.7879C148.165 60.7193 147.163 61.1851 145.88 61.1851C144.585 61.1851 143.579 60.7193 142.864 59.7879H142.716L142.318 61H140.689V46.6024H142.864V50.026C142.864 50.2789 142.851 50.6552 142.827 51.1549C142.802 51.6545 142.783 51.9722 142.771 52.1079H142.864C143.554 51.0901 144.572 50.5812 145.917 50.5812ZM145.353 52.3578C144.477 52.3578 143.844 52.6168 143.456 53.135C143.073 53.647 142.876 54.5075 142.864 55.7166V55.8646C142.864 57.1107 143.061 58.0144 143.456 58.5757C143.851 59.1309 144.495 59.4085 145.39 59.4085C146.161 59.4085 146.744 59.1031 147.138 58.4925C147.539 57.8818 147.74 56.9996 147.74 55.8461C147.74 53.5205 146.944 52.3578 145.353 52.3578ZM156.965 61.1851C155.374 61.1851 154.127 60.7224 153.227 59.7971C152.332 58.8657 151.885 57.5857 151.885 55.9572C151.885 54.2855 152.302 52.9715 153.134 52.0154C153.967 51.0593 155.111 50.5812 156.567 50.5812C157.918 50.5812 158.985 50.9914 159.769 51.8118C160.552 52.6323 160.944 53.7611 160.944 55.1984V56.3735H154.124C154.155 57.3667 154.424 58.1316 154.929 58.6683C155.435 59.1988 156.148 59.464 157.067 59.464C157.671 59.464 158.233 59.4085 158.751 59.2975C159.275 59.1803 159.837 58.989 160.435 58.7238V60.4911C159.904 60.744 159.368 60.9229 158.825 61.0278C158.282 61.1326 157.662 61.1851 156.965 61.1851ZM156.567 52.2282C155.876 52.2282 155.321 52.4472 154.902 52.8852C154.488 53.3232 154.242 53.9616 154.161 54.8005H158.806C158.794 53.9554 158.59 53.317 158.196 52.8852C157.801 52.4472 157.258 52.2282 156.567 52.2282ZM168.605 50.5812C169.043 50.5812 169.404 50.612 169.688 50.6737L169.475 52.7001C169.167 52.6261 168.846 52.5891 168.513 52.5891C167.643 52.5891 166.937 52.8728 166.394 53.4404C165.857 54.0079 165.589 54.745 165.589 55.6518V61H163.414V50.7663H165.117L165.404 52.5706H165.515C165.854 51.9599 166.295 51.4757 166.838 51.1179C167.387 50.7601 167.976 50.5812 168.605 50.5812ZM185.594 55.8646C185.594 57.5363 185.165 58.841 184.307 59.7786C183.45 60.7162 182.256 61.1851 180.727 61.1851C179.77 61.1851 178.925 60.9692 178.191 60.5374C177.457 60.1056 176.893 59.4856 176.498 58.6775C176.103 57.8694 175.906 56.9318 175.906 55.8646C175.906 54.2053 176.331 52.9099 177.183 51.9784C178.034 51.0469 179.234 50.5812 180.782 50.5812C182.263 50.5812 183.435 51.0593 184.298 52.0154C185.162 52.9654 185.594 54.2484 185.594 55.8646ZM178.145 55.8646C178.145 58.2272 179.018 59.4085 180.764 59.4085C182.491 59.4085 183.354 58.2272 183.354 55.8646C183.354 53.5267 182.485 52.3578 180.745 52.3578C179.832 52.3578 179.169 52.66 178.756 53.2646C178.349 53.8691 178.145 54.7358 178.145 55.8646ZM193.236 52.4133H190.738V61H188.555V52.4133H186.87V51.3955L188.555 50.7292V50.063C188.555 48.854 188.838 47.9595 189.406 47.3797C189.973 46.7937 190.84 46.5007 192.006 46.5007C192.771 46.5007 193.523 46.6271 194.264 46.88L193.69 48.5271C193.153 48.3543 192.641 48.268 192.154 48.268C191.66 48.268 191.3 48.4222 191.071 48.7306C190.849 49.0329 190.738 49.4894 190.738 50.1V50.7663H193.236V52.4133ZM198.862 65.5524C198.208 65.5524 197.666 65.4753 197.234 65.3211V63.6001C197.653 63.7111 198.082 63.7666 198.52 63.7666C199.445 63.7666 199.908 63.2423 199.908 62.1936V50.7663H202.082V62.3417C202.082 63.3965 201.805 64.1953 201.25 64.7382C200.701 65.281 199.905 65.5524 198.862 65.5524ZM199.778 48.0552C199.778 47.6665 199.883 47.3673 200.093 47.1576C200.309 46.9479 200.614 46.843 201.009 46.843C201.391 46.843 201.688 46.9479 201.897 47.1576C202.113 47.3673 202.221 47.6665 202.221 48.0552C202.221 48.4253 202.113 48.7183 201.897 48.9342C201.688 49.1439 201.391 49.2488 201.009 49.2488C200.614 49.2488 200.309 49.1439 200.093 48.9342C199.883 48.7183 199.778 48.4253 199.778 48.0552ZM212.418 61L212.112 59.6583H212.001C211.699 60.1333 211.267 60.5065 210.706 60.7779C210.151 61.0493 209.515 61.1851 208.8 61.1851C207.56 61.1851 206.635 60.8766 206.024 60.2598C205.413 59.6429 205.108 58.7084 205.108 57.4561V50.7663H207.301V57.0768C207.301 57.8602 207.461 58.4493 207.782 58.8441C208.103 59.2327 208.606 59.427 209.29 59.427C210.203 59.427 210.873 59.1556 211.298 58.6127C211.73 58.0637 211.946 57.1477 211.946 55.8646V50.7663H214.13V61H212.418ZM222.42 50.5812C222.858 50.5812 223.219 50.612 223.503 50.6737L223.29 52.7001C222.982 52.6261 222.661 52.5891 222.328 52.5891C221.458 52.5891 220.752 52.8728 220.209 53.4404C219.672 54.0079 219.404 54.745 219.404 55.6518V61H217.229V50.7663H218.932L219.219 52.5706H219.33C219.669 51.9599 220.11 51.4757 220.653 51.1179C221.202 50.7601 221.791 50.5812 222.42 50.5812ZM234.486 55.8646C234.486 57.5363 234.057 58.841 233.2 59.7786C232.342 60.7162 231.149 61.1851 229.619 61.1851C228.663 61.1851 227.818 60.9692 227.084 60.5374C226.35 60.1056 225.785 59.4856 225.39 58.6775C224.996 57.8694 224.798 56.9318 224.798 55.8646C224.798 54.2053 225.224 52.9099 226.075 51.9784C226.926 51.0469 228.126 50.5812 229.675 50.5812C231.155 50.5812 232.327 51.0593 233.191 52.0154C234.054 52.9654 234.486 54.2484 234.486 55.8646ZM227.037 55.8646C227.037 58.2272 227.91 59.4085 229.656 59.4085C231.383 59.4085 232.247 58.2272 232.247 55.8646C232.247 53.5267 231.377 52.3578 229.638 52.3578C228.725 52.3578 228.061 52.66 227.648 53.2646C227.241 53.8691 227.037 54.7358 227.037 55.8646ZM242.185 50.5812C242.622 50.5812 242.983 50.612 243.267 50.6737L243.054 52.7001C242.746 52.6261 242.425 52.5891 242.092 52.5891C241.222 52.5891 240.516 52.8728 239.973 53.4404C239.436 54.0079 239.168 54.745 239.168 55.6518V61H236.994V50.7663H238.696L238.983 52.5706H239.094C239.433 51.9599 239.874 51.4757 240.417 51.1179C240.966 50.7601 241.555 50.5812 242.185 50.5812ZM252.048 58.0853C252.048 59.0846 251.684 59.8526 250.956 60.3893C250.228 60.9198 249.186 61.1851 247.829 61.1851C246.466 61.1851 245.371 60.9784 244.544 60.5651V58.6868C245.747 59.2419 246.866 59.5195 247.903 59.5195C249.241 59.5195 249.911 59.1155 249.911 58.3074C249.911 58.0483 249.837 57.8324 249.689 57.6597C249.541 57.487 249.297 57.3081 248.958 57.123C248.618 56.938 248.146 56.7282 247.542 56.4938C246.364 56.0373 245.565 55.5809 245.145 55.1244C244.732 54.6679 244.526 54.0757 244.526 53.3478C244.526 52.4719 244.877 51.7933 245.58 51.3122C246.29 50.8249 247.252 50.5812 248.467 50.5812C249.67 50.5812 250.808 50.8249 251.882 51.3122L251.178 52.95C250.074 52.4935 249.146 52.2652 248.393 52.2652C247.246 52.2652 246.672 52.5922 246.672 53.246C246.672 53.5668 246.82 53.8382 247.116 54.0603C247.419 54.2824 248.072 54.5877 249.078 54.9763C249.923 55.3033 250.537 55.6025 250.919 55.8739C251.302 56.1453 251.585 56.4599 251.771 56.8177C251.956 57.1693 252.048 57.5918 252.048 58.0853Z" class="path-1"/>
<rect x="36.5" y="299.5" width="116" height="44" rx="2.5" class="rect-3"/>
<rect x="36.5" y="299.5" width="116" height="44" rx="2.5" class="rect-4"/>
<path d="M71.3906 321.391H72.6875C73.5573 321.391 74.1875 321.229 74.5781 320.906C74.9688 320.583 75.1641 320.104 75.1641 319.469C75.1641 318.823 74.9531 318.359 74.5312 318.078C74.1094 317.797 73.474 317.656 72.625 317.656H71.3906V321.391ZM71.3906 322.938V327.5H69.5234V316.078H72.75C74.224 316.078 75.3151 316.354 76.0234 316.906C76.7318 317.458 77.0859 318.292 77.0859 319.406C77.0859 320.828 76.3464 321.841 74.8672 322.445L78.0938 327.5H75.9688L73.2344 322.938H71.3906ZM83.3359 327.656C81.9922 327.656 80.9401 327.266 80.1797 326.484C79.4245 325.698 79.0469 324.617 79.0469 323.242C79.0469 321.831 79.3984 320.721 80.1016 319.914C80.8047 319.107 81.7708 318.703 83 318.703C84.1406 318.703 85.0417 319.049 85.7031 319.742C86.3646 320.435 86.6953 321.388 86.6953 322.602V323.594H80.9375C80.9635 324.432 81.1901 325.078 81.6172 325.531C82.0443 325.979 82.6458 326.203 83.4219 326.203C83.9323 326.203 84.4062 326.156 84.8438 326.062C85.2865 325.964 85.7604 325.802 86.2656 325.578V327.07C85.8177 327.284 85.3646 327.435 84.9062 327.523C84.4479 327.612 83.9245 327.656 83.3359 327.656ZM83 320.094C82.4167 320.094 81.9479 320.279 81.5938 320.648C81.2448 321.018 81.0365 321.557 80.9688 322.266H84.8906C84.8802 321.552 84.7083 321.013 84.375 320.648C84.0417 320.279 83.5833 320.094 83 320.094ZM92 326.172C92.4479 326.172 92.8958 326.102 93.3438 325.961V327.344C93.1406 327.432 92.8776 327.505 92.5547 327.562C92.237 327.625 91.9062 327.656 91.5625 327.656C89.8229 327.656 88.9531 326.74 88.9531 324.906V320.25H87.7734V319.438L89.0391 318.766L89.6641 316.938H90.7969V318.859H93.2578V320.25H90.7969V324.875C90.7969 325.318 90.9062 325.646 91.125 325.859C91.349 326.068 91.6406 326.172 92 326.172ZM101.172 327.5L100.914 326.367H100.82C100.565 326.768 100.201 327.083 99.7266 327.312C99.2578 327.542 98.7214 327.656 98.1172 327.656C97.0703 327.656 96.2891 327.396 95.7734 326.875C95.2578 326.354 95 325.565 95 324.508V318.859H96.8516V324.188C96.8516 324.849 96.987 325.346 97.2578 325.68C97.5286 326.008 97.9531 326.172 98.5312 326.172C99.3021 326.172 99.8672 325.943 100.227 325.484C100.591 325.021 100.773 324.247 100.773 323.164V318.859H102.617V327.5H101.172ZM109.617 318.703C109.987 318.703 110.292 318.729 110.531 318.781L110.352 320.492C110.091 320.43 109.82 320.398 109.539 320.398C108.805 320.398 108.208 320.638 107.75 321.117C107.297 321.596 107.07 322.219 107.07 322.984V327.5H105.234V318.859H106.672L106.914 320.383H107.008C107.294 319.867 107.667 319.458 108.125 319.156C108.589 318.854 109.086 318.703 109.617 318.703ZM119.742 327.5H117.898V322.188C117.898 321.521 117.763 321.023 117.492 320.695C117.227 320.367 116.802 320.203 116.219 320.203C115.443 320.203 114.875 320.432 114.516 320.891C114.156 321.349 113.977 322.117 113.977 323.195V327.5H112.141V318.859H113.578L113.836 319.992H113.93C114.19 319.581 114.56 319.263 115.039 319.039C115.518 318.815 116.049 318.703 116.633 318.703C118.706 318.703 119.742 319.758 119.742 321.867V327.5Z" class="path-2"/>
<rect x="177" y="299" width="133" height="45" rx="3" class="rect-5"/>
<path d="M236.094 327.5H233.805L228.188 318.398H228.125L228.164 318.906C228.237 319.875 228.273 320.76 228.273 321.562V327.5H226.578V316.078H228.844L234.445 325.133H234.492C234.482 325.013 234.461 324.578 234.43 323.828C234.398 323.073 234.383 322.484 234.383 322.062V316.078H236.094V327.5ZM242.688 327.656C241.344 327.656 240.292 327.266 239.531 326.484C238.776 325.698 238.398 324.617 238.398 323.242C238.398 321.831 238.75 320.721 239.453 319.914C240.156 319.107 241.122 318.703 242.352 318.703C243.492 318.703 244.393 319.049 245.055 319.742C245.716 320.435 246.047 321.388 246.047 322.602V323.594H240.289C240.315 324.432 240.542 325.078 240.969 325.531C241.396 325.979 241.997 326.203 242.773 326.203C243.284 326.203 243.758 326.156 244.195 326.062C244.638 325.964 245.112 325.802 245.617 325.578V327.07C245.169 327.284 244.716 327.435 244.258 327.523C243.799 327.612 243.276 327.656 242.688 327.656ZM242.352 320.094C241.768 320.094 241.299 320.279 240.945 320.648C240.596 321.018 240.388 321.557 240.32 322.266H244.242C244.232 321.552 244.06 321.013 243.727 320.648C243.393 320.279 242.935 320.094 242.352 320.094ZM250.055 323.086L247.156 318.859H249.25L251.219 321.883L253.203 318.859H255.281L252.375 323.086L255.43 327.5H253.352L251.219 324.266L249.094 327.5H247.016L250.055 323.086ZM260.164 326.172C260.612 326.172 261.06 326.102 261.508 325.961V327.344C261.305 327.432 261.042 327.505 260.719 327.562C260.401 327.625 260.07 327.656 259.727 327.656C257.987 327.656 257.117 326.74 257.117 324.906V320.25H255.938V319.438L257.203 318.766L257.828 316.938H258.961V318.859H261.422V320.25H258.961V324.875C258.961 325.318 259.07 325.646 259.289 325.859C259.513 326.068 259.805 326.172 260.164 326.172Z" class="path-3"/>
<rect x="36.5" y="99.5" width="273" height="44" rx="2.5" class="rect-6"/>
<path d="M59.8594 118.266C59.8594 118.995 59.6536 119.591 59.2422 120.055C58.8359 120.518 58.2578 120.828 57.5078 120.984V121.047C58.4245 121.161 59.1042 121.453 59.5469 121.922C59.9896 122.391 60.2109 123.005 60.2109 123.766C60.2109 124.854 59.8333 125.693 59.0781 126.281C58.3229 126.865 57.25 127.156 55.8594 127.156C55.2552 127.156 54.7005 127.109 54.1953 127.016C53.6953 126.927 53.2083 126.768 52.7344 126.539V125.305C53.2292 125.549 53.7552 125.737 54.3125 125.867C54.875 125.992 55.4062 126.055 55.9062 126.055C57.8802 126.055 58.8672 125.281 58.8672 123.734C58.8672 122.349 57.7786 121.656 55.6016 121.656H54.4766V120.539H55.6172C56.5078 120.539 57.2135 120.344 57.7344 119.953C58.2552 119.557 58.5156 119.01 58.5156 118.312C58.5156 117.755 58.3229 117.318 57.9375 117C57.5573 116.682 57.0391 116.523 56.3828 116.523C55.8828 116.523 55.4115 116.591 54.9688 116.727C54.526 116.862 54.0208 117.112 53.4531 117.477L52.7969 116.602C53.2656 116.232 53.8047 115.943 54.4141 115.734C55.0286 115.521 55.6745 115.414 56.3516 115.414C57.4609 115.414 58.3229 115.669 58.9375 116.18C59.5521 116.685 59.8594 117.38 59.8594 118.266Z" class="path-4"/>
<path d="M293.597 117.25H282.403C282.067 117.25 281.879 117.605 282.087 117.847L287.685 124.337C287.845 124.523 288.153 124.523 288.315 124.337L293.913 117.847C294.121 117.605 293.933 117.25 293.597 117.25Z" class="path-5"/>
<g filter="url(#filter1_d_21428_72841)">
<rect x="36" y="207" width="274" height="45" rx="3" class="rect-7"/>
<rect x="36.5" y="207.5" width="273" height="44" rx="2.5" class="rect-8"/>
</g>
<path d="M64.4455 229.15L59.7243 232.05L55 229.15L59.7243 221L64.4455 229.15ZM59.7243 232.981L55 230.081L59.7243 237L64.4486 230.081L59.7243 232.981Z" class="path-6"/>
<path d="M84.4453 229.289C84.4453 231.273 84.125 232.747 83.4844 233.711C82.849 234.674 81.875 235.156 80.5625 235.156C79.2917 235.156 78.3281 234.659 77.6719 233.664C77.0156 232.669 76.6875 231.211 76.6875 229.289C76.6875 227.273 77.0052 225.789 77.6406 224.836C78.2812 223.878 79.2552 223.398 80.5625 223.398C81.8385 223.398 82.8047 223.898 83.4609 224.898C84.1172 225.898 84.4453 227.362 84.4453 229.289ZM78.5469 229.289C78.5469 230.846 78.7057 231.958 79.0234 232.625C79.3464 233.292 79.8594 233.625 80.5625 233.625C81.2656 233.625 81.7786 233.286 82.1016 232.609C82.4297 231.932 82.5938 230.826 82.5938 229.289C82.5938 227.758 82.4297 226.651 82.1016 225.969C81.7786 225.281 81.2656 224.938 80.5625 224.938C79.8594 224.938 79.3464 225.273 79.0234 225.945C78.7057 226.617 78.5469 227.732 78.5469 229.289ZM86.1797 234.023C86.1797 233.643 86.2786 233.352 86.4766 233.148C86.6745 232.945 86.9609 232.844 87.3359 232.844C87.7161 232.844 88.0052 232.951 88.2031 233.164C88.401 233.372 88.5 233.659 88.5 234.023C88.5 234.393 88.3984 234.688 88.1953 234.906C87.9974 235.12 87.7109 235.227 87.3359 235.227C86.9609 235.227 86.6745 235.12 86.4766 234.906C86.2786 234.693 86.1797 234.398 86.1797 234.023ZM97.9922 229.289C97.9922 231.273 97.6719 232.747 97.0312 233.711C96.3958 234.674 95.4219 235.156 94.1094 235.156C92.8385 235.156 91.875 234.659 91.2188 233.664C90.5625 232.669 90.2344 231.211 90.2344 229.289C90.2344 227.273 90.5521 225.789 91.1875 224.836C91.8281 223.878 92.8021 223.398 94.1094 223.398C95.3854 223.398 96.3516 223.898 97.0078 224.898C97.6641 225.898 97.9922 227.362 97.9922 229.289ZM92.0938 229.289C92.0938 230.846 92.2526 231.958 92.5703 232.625C92.8932 233.292 93.4062 233.625 94.1094 233.625C94.8125 233.625 95.3255 233.286 95.6484 232.609C95.9766 231.932 96.1406 230.826 96.1406 229.289C96.1406 227.758 95.9766 226.651 95.6484 225.969C95.3255 225.281 94.8125 224.938 94.1094 224.938C93.4062 224.938 92.8932 225.273 92.5703 225.945C92.2526 226.617 92.0938 227.732 92.0938 229.289ZM107.133 229.289C107.133 231.273 106.812 232.747 106.172 233.711C105.536 234.674 104.562 235.156 103.25 235.156C101.979 235.156 101.016 234.659 100.359 233.664C99.7031 232.669 99.375 231.211 99.375 229.289C99.375 227.273 99.6927 225.789 100.328 224.836C100.969 223.878 101.943 223.398 103.25 223.398C104.526 223.398 105.492 223.898 106.148 224.898C106.805 225.898 107.133 227.362 107.133 229.289ZM101.234 229.289C101.234 230.846 101.393 231.958 101.711 232.625C102.034 233.292 102.547 233.625 103.25 233.625C103.953 233.625 104.466 233.286 104.789 232.609C105.117 231.932 105.281 230.826 105.281 229.289C105.281 227.758 105.117 226.651 104.789 225.969C104.466 225.281 103.953 224.938 103.25 224.938C102.547 224.938 102.034 225.273 101.711 225.945C101.393 226.617 101.234 227.732 101.234 229.289ZM117.75 235H115.602L112.742 230.328L109.859 235H107.859L111.648 229.078L108.102 223.578H110.18L112.82 227.898L115.461 223.578H117.477L113.906 229.109L117.75 235ZM129.906 235H123.445V223.578H129.906V225.156H125.312V228.266H129.617V229.828H125.312V233.414H129.906V235ZM136.328 235H134.461V225.18H131.102V223.578H139.688V225.18H136.328V235ZM150.453 235H148.578V229.852H143.312V235H141.445V223.578H143.312V228.25H148.578V223.578H150.453V235Z" class="path-7"/>
<path d="M43.6562 191L42.4121 187.821H38.4062L37.1758 191H36L39.9512 180.965H40.9287L44.8594 191H43.6562ZM42.0498 186.775L40.8877 183.679C40.7373 183.287 40.5824 182.806 40.4229 182.236C40.3226 182.674 40.179 183.155 39.9922 183.679L38.8164 186.775H42.0498ZM49.4805 183.371C49.8132 183.371 50.1117 183.398 50.376 183.453L50.2188 184.506C49.9089 184.438 49.6354 184.403 49.3984 184.403C48.7923 184.403 48.2728 184.649 47.8398 185.142C47.4115 185.634 47.1973 186.247 47.1973 186.98V191H46.0625V183.508H46.999L47.1289 184.896H47.1836C47.4616 184.408 47.7965 184.032 48.1885 183.768C48.5804 183.503 49.0111 183.371 49.4805 183.371ZM55.2637 183.385C56.248 183.385 57.0114 183.722 57.5537 184.396C58.1006 185.066 58.374 186.017 58.374 187.247C58.374 188.478 58.0983 189.435 57.5469 190.118C57 190.797 56.2389 191.137 55.2637 191.137C54.776 191.137 54.3294 191.048 53.9238 190.87C53.5228 190.688 53.1855 190.41 52.9121 190.036H52.8301L52.5908 191H51.7773V180.363H52.9121V182.947C52.9121 183.526 52.8939 184.046 52.8574 184.506H52.9121C53.4408 183.758 54.2246 183.385 55.2637 183.385ZM55.0996 184.335C54.3249 184.335 53.7666 184.558 53.4248 185.005C53.083 185.447 52.9121 186.194 52.9121 187.247C52.9121 188.3 53.0876 189.054 53.4385 189.51C53.7894 189.961 54.3522 190.187 55.127 190.187C55.8242 190.187 56.3438 189.934 56.6855 189.428C57.0273 188.917 57.1982 188.186 57.1982 187.233C57.1982 186.258 57.0273 185.531 56.6855 185.053C56.3438 184.574 55.8151 184.335 55.0996 184.335ZM61.498 191H60.3633V183.508H61.498V191ZM60.2676 181.478C60.2676 181.218 60.3314 181.029 60.459 180.91C60.5866 180.787 60.7461 180.726 60.9375 180.726C61.1198 180.726 61.277 180.787 61.4092 180.91C61.5413 181.033 61.6074 181.222 61.6074 181.478C61.6074 181.733 61.5413 181.924 61.4092 182.052C61.277 182.175 61.1198 182.236 60.9375 182.236C60.7461 182.236 60.5866 182.175 60.459 182.052C60.3314 181.924 60.2676 181.733 60.2676 181.478ZM66.3242 190.2C66.5247 190.2 66.7184 190.187 66.9053 190.159C67.0921 190.127 67.2402 190.095 67.3496 190.063V190.932C67.2266 190.991 67.0443 191.039 66.8027 191.075C66.5658 191.116 66.3516 191.137 66.1602 191.137C64.7109 191.137 63.9863 190.373 63.9863 188.847V184.39H62.9131V183.843L63.9863 183.371L64.4648 181.771H65.1211V183.508H67.2949V184.39H65.1211V188.799C65.1211 189.25 65.2282 189.596 65.4424 189.838C65.6566 190.079 65.9505 190.2 66.3242 190.2ZM72.2715 183.371C72.6042 183.371 72.9027 183.398 73.167 183.453L73.0098 184.506C72.6999 184.438 72.4264 184.403 72.1895 184.403C71.5833 184.403 71.0638 184.649 70.6309 185.142C70.2025 185.634 69.9883 186.247 69.9883 186.98V191H68.8535V183.508H69.79L69.9199 184.896H69.9746C70.2526 184.408 70.5876 184.032 70.9795 183.768C71.3714 183.503 71.8021 183.371 72.2715 183.371ZM79.1758 191L78.9502 189.934H78.8955C78.5218 190.403 78.1481 190.722 77.7744 190.891C77.4053 191.055 76.9427 191.137 76.3867 191.137C75.6439 191.137 75.0605 190.945 74.6367 190.562C74.2174 190.18 74.0078 189.635 74.0078 188.929C74.0078 187.416 75.2178 186.623 77.6377 186.55L78.9092 186.509V186.044C78.9092 185.456 78.7816 185.023 78.5264 184.745C78.2757 184.463 77.8724 184.321 77.3164 184.321C76.6921 184.321 75.9857 184.513 75.1973 184.896L74.8486 184.027C75.2178 183.827 75.6211 183.67 76.0586 183.556C76.5007 183.442 76.9427 183.385 77.3848 183.385C78.278 183.385 78.9388 183.583 79.3672 183.979C79.8001 184.376 80.0166 185.012 80.0166 185.887V191H79.1758ZM76.6123 190.2C77.3187 190.2 77.8724 190.007 78.2734 189.619C78.679 189.232 78.8818 188.689 78.8818 187.992V187.315L77.7471 187.363C76.8447 187.395 76.193 187.536 75.792 187.787C75.3955 188.033 75.1973 188.418 75.1973 188.942C75.1973 189.353 75.3203 189.665 75.5664 189.879C75.8171 190.093 76.1657 190.2 76.6123 190.2ZM84.7812 190.2C84.9818 190.2 85.1755 190.187 85.3623 190.159C85.5492 190.127 85.6973 190.095 85.8066 190.063V190.932C85.6836 190.991 85.5013 191.039 85.2598 191.075C85.0228 191.116 84.8086 191.137 84.6172 191.137C83.168 191.137 82.4434 190.373 82.4434 188.847V184.39H81.3701V183.843L82.4434 183.371L82.9219 181.771H83.5781V183.508H85.752V184.39H83.5781V188.799C83.5781 189.25 83.6852 189.596 83.8994 189.838C84.1136 190.079 84.4076 190.2 84.7812 190.2ZM88.4453 191H87.3105V183.508H88.4453V191ZM87.2148 181.478C87.2148 181.218 87.2786 181.029 87.4062 180.91C87.5339 180.787 87.6934 180.726 87.8848 180.726C88.0671 180.726 88.2243 180.787 88.3564 180.91C88.4886 181.033 88.5547 181.222 88.5547 181.478C88.5547 181.733 88.4886 181.924 88.3564 182.052C88.2243 182.175 88.0671 182.236 87.8848 182.236C87.6934 182.236 87.5339 182.175 87.4062 182.052C87.2786 181.924 87.2148 181.733 87.2148 181.478ZM97.3184 187.247C97.3184 188.468 97.0107 189.423 96.3955 190.111C95.7803 190.795 94.9303 191.137 93.8457 191.137C93.1758 191.137 92.5811 190.979 92.0615 190.665C91.542 190.351 91.141 189.899 90.8584 189.312C90.5758 188.724 90.4346 188.035 90.4346 187.247C90.4346 186.026 90.7399 185.076 91.3506 184.396C91.9613 183.713 92.8089 183.371 93.8936 183.371C94.9417 183.371 95.7734 183.72 96.3887 184.417C97.0085 185.114 97.3184 186.058 97.3184 187.247ZM91.6104 187.247C91.6104 188.204 91.8018 188.933 92.1846 189.435C92.5674 189.936 93.1302 190.187 93.873 190.187C94.6159 190.187 95.1787 189.938 95.5615 189.441C95.9489 188.94 96.1426 188.209 96.1426 187.247C96.1426 186.295 95.9489 185.572 95.5615 185.08C95.1787 184.583 94.6113 184.335 93.8594 184.335C93.1165 184.335 92.556 184.579 92.1777 185.066C91.7995 185.554 91.6104 186.281 91.6104 187.247ZM104.441 191V186.153C104.441 185.543 104.302 185.087 104.024 184.786C103.746 184.485 103.311 184.335 102.719 184.335C101.935 184.335 101.361 184.547 100.996 184.971C100.632 185.395 100.449 186.094 100.449 187.069V191H99.3145V183.508H100.237L100.422 184.533H100.477C100.709 184.164 101.035 183.879 101.454 183.679C101.873 183.474 102.34 183.371 102.855 183.371C103.758 183.371 104.437 183.59 104.893 184.027C105.348 184.46 105.576 185.155 105.576 186.112V191H104.441ZM114.545 191.137C113.46 191.137 112.619 190.804 112.022 190.139C111.43 189.469 111.134 188.523 111.134 187.302C111.134 186.049 111.435 185.08 112.036 184.396C112.642 183.713 113.504 183.371 114.62 183.371C114.98 183.371 115.34 183.41 115.7 183.487C116.06 183.565 116.343 183.656 116.548 183.761L116.199 184.725C115.949 184.624 115.675 184.542 115.379 184.479C115.083 184.41 114.821 184.376 114.593 184.376C113.071 184.376 112.31 185.347 112.31 187.288C112.31 188.209 112.494 188.915 112.863 189.407C113.237 189.899 113.788 190.146 114.518 190.146C115.142 190.146 115.782 190.011 116.438 189.742V190.747C115.937 191.007 115.306 191.137 114.545 191.137ZM124.689 187.247C124.689 188.468 124.382 189.423 123.767 190.111C123.151 190.795 122.301 191.137 121.217 191.137C120.547 191.137 119.952 190.979 119.433 190.665C118.913 190.351 118.512 189.899 118.229 189.312C117.947 188.724 117.806 188.035 117.806 187.247C117.806 186.026 118.111 185.076 118.722 184.396C119.332 183.713 120.18 183.371 121.265 183.371C122.313 183.371 123.145 183.72 123.76 184.417C124.38 185.114 124.689 186.058 124.689 187.247ZM118.981 187.247C118.981 188.204 119.173 188.933 119.556 189.435C119.938 189.936 120.501 190.187 121.244 190.187C121.987 190.187 122.55 189.938 122.933 189.441C123.32 188.94 123.514 188.209 123.514 187.247C123.514 186.295 123.32 185.572 122.933 185.08C122.55 184.583 121.982 184.335 121.23 184.335C120.488 184.335 119.927 184.579 119.549 185.066C119.171 185.554 118.981 186.281 118.981 187.247ZM131.519 188.956C131.519 189.653 131.259 190.191 130.739 190.569C130.22 190.948 129.491 191.137 128.552 191.137C127.558 191.137 126.784 190.979 126.228 190.665V189.612C126.588 189.795 126.973 189.938 127.383 190.043C127.798 190.148 128.196 190.2 128.579 190.2C129.172 190.2 129.627 190.107 129.946 189.92C130.265 189.729 130.425 189.439 130.425 189.052C130.425 188.76 130.297 188.512 130.042 188.307C129.791 188.097 129.299 187.851 128.565 187.568C127.868 187.309 127.371 187.083 127.075 186.892C126.784 186.696 126.565 186.475 126.419 186.229C126.278 185.982 126.207 185.688 126.207 185.347C126.207 184.736 126.455 184.255 126.952 183.904C127.449 183.549 128.13 183.371 128.996 183.371C129.803 183.371 130.591 183.535 131.361 183.863L130.958 184.786C130.206 184.476 129.525 184.321 128.914 184.321C128.376 184.321 127.971 184.406 127.697 184.574C127.424 184.743 127.287 184.975 127.287 185.271C127.287 185.472 127.337 185.643 127.438 185.784C127.542 185.925 127.709 186.06 127.937 186.188C128.164 186.315 128.602 186.5 129.249 186.741C130.138 187.065 130.737 187.391 131.047 187.719C131.361 188.047 131.519 188.459 131.519 188.956ZM135.791 190.2C135.992 190.2 136.185 190.187 136.372 190.159C136.559 190.127 136.707 190.095 136.816 190.063V190.932C136.693 190.991 136.511 191.039 136.27 191.075C136.033 191.116 135.818 191.137 135.627 191.137C134.178 191.137 133.453 190.373 133.453 188.847V184.39H132.38V183.843L133.453 183.371L133.932 181.771H134.588V183.508H136.762V184.39H134.588V188.799C134.588 189.25 134.695 189.596 134.909 189.838C135.123 190.079 135.417 190.2 135.791 190.2Z" class="path-8"/>
<defs>
<filter id="filter0_d_21428_72841" x="0.682432" y="0.227477" width="344.635" height="402.635" filterUnits="userSpaceOnUse" color-interpolation-filters="sRGB">
<feFlood flood-opacity="0" result="BackgroundImageFix"/>
<feColorMatrix in="SourceAlpha" type="matrix" values="0 0 0 0 0 0 0 0 0 0 0 0 0 0 0 0 0 0 127 0" result="hardAlpha"/>
<feOffset dy="1.54505"/>
<feGaussianBlur stdDeviation="1.15878"/>
<feColorMatrix type="matrix" values="0 0 0 0 0 0 0 0 0 0 0 0 0 0 0 0 0 0 0.06 0"/>
<feBlend mode="normal" in2="BackgroundImageFix" result="effect1_dropShadow_21428_72841"/>
<feBlend mode="normal" in="SourceGraphic" in2="effect1_dropShadow_21428_72841" result="shape"/>
</filter>
<filter id="filter1_d_21428_72841" x="33" y="206" width="280" height="51" filterUnits="userSpaceOnUse" color-interpolation-filters="sRGB">
<feFlood flood-opacity="0" result="BackgroundImageFix"/>
<feColorMatrix in="SourceAlpha" type="matrix" values="0 0 0 0 0 0 0 0 0 0 0 0 0 0 0 0 0 0 127 0" result="hardAlpha"/>
<feOffset dy="2"/>
<feGaussianBlur stdDeviation="1.5"/>
<feColorMatrix type="matrix" values="0 0 0 0 0 0 0 0 0 0 0 0 0 0 0 0 0 0 0.06 0"/>
<feBlend mode="normal" in2="BackgroundImageFix" result="effect1_dropShadow_21428_72841"/>
<feBlend mode="normal" in="SourceGraphic" in2="effect1_dropShadow_21428_72841" result="shape"/>
</filter>
</defs>
</svg>
