<svg width="346" height="403" viewBox="0 0 346 403" fill="none" xmlns="http://www.w3.org/2000/svg">
<g filter="url(#filter0_d_21428_72880)">
<rect x="3" y="1" width="340" height="398" rx="2.31757" class="rect-1"/>
<rect x="3.38626" y="1.38626" width="339.227" height="397.227" rx="1.93131" stroke-width="0.772523" class="rect-2"/>
</g>
<rect x="36.5" y="52.5" width="273" height="44" rx="2.5" class="rect-3"/>
<path d="M60.75 79L59.3281 75.3672H54.75L53.3438 79H52L56.5156 67.5312H57.6328L62.125 79H60.75ZM58.9141 74.1719L57.5859 70.6328C57.4141 70.1849 57.237 69.6354 57.0547 68.9844C56.9401 69.4844 56.776 70.0339 56.5625 70.6328L55.2188 74.1719H58.9141ZM64.7969 79H63.5V66.8438H64.7969V79ZM68.8438 79H67.5469V70.4375H68.8438V79ZM67.4375 68.1172C67.4375 67.8203 67.5104 67.6042 67.6562 67.4688C67.8021 67.3281 67.9844 67.2578 68.2031 67.2578C68.4115 67.2578 68.5911 67.3281 68.7422 67.4688C68.8932 67.6094 68.9688 67.8255 68.9688 68.1172C68.9688 68.4089 68.8932 68.6276 68.7422 68.7734C68.5911 68.9141 68.4115 68.9844 68.2031 68.9844C67.9844 68.9844 67.8021 68.9141 67.6562 68.7734C67.5104 68.6276 67.4375 68.4089 67.4375 68.1172ZM75.0156 79.1562C73.776 79.1562 72.8151 78.776 72.1328 78.0156C71.4557 77.25 71.1172 76.1693 71.1172 74.7734C71.1172 73.3411 71.4609 72.2344 72.1484 71.4531C72.8411 70.6719 73.8255 70.2812 75.1016 70.2812C75.513 70.2812 75.9245 70.3255 76.3359 70.4141C76.7474 70.5026 77.0703 70.6068 77.3047 70.7266L76.9062 71.8281C76.6198 71.7135 76.3073 71.6198 75.9688 71.5469C75.6302 71.4688 75.3307 71.4297 75.0703 71.4297C73.3307 71.4297 72.4609 72.5391 72.4609 74.7578C72.4609 75.8099 72.6719 76.6172 73.0938 77.1797C73.5208 77.7422 74.151 78.0234 74.9844 78.0234C75.6979 78.0234 76.4297 77.8698 77.1797 77.5625V78.7109C76.6068 79.0078 75.8854 79.1562 75.0156 79.1562ZM82.8359 79.1562C81.5703 79.1562 80.5703 78.7708 79.8359 78C79.1068 77.2292 78.7422 76.1589 78.7422 74.7891C78.7422 73.4089 79.0807 72.3125 79.7578 71.5C80.4401 70.6875 81.3542 70.2812 82.5 70.2812C83.5729 70.2812 84.4219 70.6354 85.0469 71.3438C85.6719 72.0469 85.9844 72.9766 85.9844 74.1328V74.9531H80.0859C80.112 75.9583 80.3646 76.7214 80.8438 77.2422C81.3281 77.763 82.0078 78.0234 82.8828 78.0234C83.8047 78.0234 84.7161 77.8307 85.6172 77.4453V78.6016C85.1589 78.7995 84.724 78.9401 84.3125 79.0234C83.9062 79.112 83.4141 79.1562 82.8359 79.1562ZM82.4844 71.3672C81.7969 71.3672 81.2474 71.5911 80.8359 72.0391C80.4297 72.487 80.1901 73.1068 80.1172 73.8984H84.5938C84.5938 73.0807 84.4115 72.4557 84.0469 72.0234C83.6823 71.5859 83.1615 71.3672 82.4844 71.3672Z" class="path-1"/>
<path d="M43.7109 29.918C43.7109 30.9297 43.3646 31.709 42.6719 32.2559C41.9837 32.7982 40.9971 33.0693 39.7119 33.0693H38.5361V37H37.374V27.0059H39.9648C42.4622 27.0059 43.7109 27.9766 43.7109 29.918ZM38.5361 32.0713H39.582C40.612 32.0713 41.3571 31.9049 41.8174 31.5723C42.2777 31.2396 42.5078 30.7064 42.5078 29.9727C42.5078 29.3118 42.2913 28.8197 41.8584 28.4961C41.4255 28.1725 40.751 28.0107 39.835 28.0107H38.5361V32.0713ZM50.2461 37L50.0205 35.9336H49.9658C49.5921 36.403 49.2184 36.722 48.8447 36.8906C48.4756 37.0547 48.013 37.1367 47.457 37.1367C46.7142 37.1367 46.1309 36.9453 45.707 36.5625C45.2878 36.1797 45.0781 35.6351 45.0781 34.9287C45.0781 33.4157 46.2881 32.6227 48.708 32.5498L49.9795 32.5088V32.0439C49.9795 31.4561 49.8519 31.0231 49.5967 30.7451C49.346 30.4626 48.9427 30.3213 48.3867 30.3213C47.7624 30.3213 47.056 30.5127 46.2676 30.8955L45.9189 30.0273C46.2881 29.8268 46.6914 29.6696 47.1289 29.5557C47.571 29.4417 48.013 29.3848 48.4551 29.3848C49.3483 29.3848 50.0091 29.583 50.4375 29.9795C50.8704 30.376 51.0869 31.0117 51.0869 31.8867V37H50.2461ZM47.6826 36.2002C48.389 36.2002 48.9427 36.0065 49.3438 35.6191C49.7493 35.2318 49.9521 34.6895 49.9521 33.9922V33.3154L48.8174 33.3633C47.915 33.3952 47.2633 33.5365 46.8623 33.7871C46.4658 34.0332 46.2676 34.4183 46.2676 34.9424C46.2676 35.3525 46.3906 35.6647 46.6367 35.8789C46.8874 36.0931 47.236 36.2002 47.6826 36.2002ZM56.8496 29.3711C57.1823 29.3711 57.4808 29.3984 57.7451 29.4531L57.5879 30.5059C57.278 30.4375 57.0046 30.4033 56.7676 30.4033C56.1615 30.4033 55.6419 30.6494 55.209 31.1416C54.7806 31.6338 54.5664 32.2467 54.5664 32.9805V37H53.4316V29.5078H54.3682L54.498 30.8955H54.5527C54.8307 30.4079 55.1657 30.0319 55.5576 29.7676C55.9495 29.5033 56.3802 29.3711 56.8496 29.3711ZM61.5664 36.2002C61.7669 36.2002 61.9606 36.1865 62.1475 36.1592C62.3343 36.1273 62.4824 36.0954 62.5918 36.0635V36.9316C62.4688 36.9909 62.2865 37.0387 62.0449 37.0752C61.8079 37.1162 61.5938 37.1367 61.4023 37.1367C59.9531 37.1367 59.2285 36.3734 59.2285 34.8467V30.3896H58.1553V29.8428L59.2285 29.3711L59.707 27.7715H60.3633V29.5078H62.5371V30.3896H60.3633V34.7988C60.3633 35.25 60.4704 35.5964 60.6846 35.8379C60.8988 36.0794 61.1927 36.2002 61.5664 36.2002ZM62.9062 29.5078H64.123L65.7637 33.7803C66.1237 34.7555 66.347 35.4596 66.4336 35.8926H66.4883C66.5475 35.6602 66.6706 35.2637 66.8574 34.7031C67.0488 34.138 67.6686 32.4062 68.7168 29.5078H69.9336L66.7139 38.0391C66.3949 38.8822 66.0212 39.4792 65.5928 39.8301C65.1689 40.1855 64.6471 40.3633 64.0273 40.3633C63.681 40.3633 63.3392 40.3245 63.002 40.2471V39.3379C63.2526 39.3926 63.5329 39.4199 63.8428 39.4199C64.6221 39.4199 65.1781 38.9824 65.5107 38.1074L65.9277 37.041L62.9062 29.5078ZM78.4717 37H77.3643V29.877C77.3643 29.2845 77.3825 28.724 77.4189 28.1953C77.3232 28.291 77.2161 28.3913 77.0977 28.4961C76.9792 28.6009 76.4368 29.0452 75.4707 29.8291L74.8691 29.0498L77.5146 27.0059H78.4717V37Z" class="path-2"/>
<rect x="36.5" y="143.5" width="273" height="44" rx="2.5" class="rect-4"/>
<path d="M60.75 170L59.3281 166.367H54.75L53.3438 170H52L56.5156 158.531H57.6328L62.125 170H60.75ZM58.9141 165.172L57.5859 161.633C57.4141 161.185 57.237 160.635 57.0547 159.984C56.9401 160.484 56.776 161.034 56.5625 161.633L55.2188 165.172H58.9141ZM64.7969 170H63.5V157.844H64.7969V170ZM68.8438 170H67.5469V161.438H68.8438V170ZM67.4375 159.117C67.4375 158.82 67.5104 158.604 67.6562 158.469C67.8021 158.328 67.9844 158.258 68.2031 158.258C68.4115 158.258 68.5911 158.328 68.7422 158.469C68.8932 158.609 68.9688 158.826 68.9688 159.117C68.9688 159.409 68.8932 159.628 68.7422 159.773C68.5911 159.914 68.4115 159.984 68.2031 159.984C67.9844 159.984 67.8021 159.914 67.6562 159.773C67.5104 159.628 67.4375 159.409 67.4375 159.117ZM75.0156 170.156C73.776 170.156 72.8151 169.776 72.1328 169.016C71.4557 168.25 71.1172 167.169 71.1172 165.773C71.1172 164.341 71.4609 163.234 72.1484 162.453C72.8411 161.672 73.8255 161.281 75.1016 161.281C75.513 161.281 75.9245 161.326 76.3359 161.414C76.7474 161.503 77.0703 161.607 77.3047 161.727L76.9062 162.828C76.6198 162.714 76.3073 162.62 75.9688 162.547C75.6302 162.469 75.3307 162.43 75.0703 162.43C73.3307 162.43 72.4609 163.539 72.4609 165.758C72.4609 166.81 72.6719 167.617 73.0938 168.18C73.5208 168.742 74.151 169.023 74.9844 169.023C75.6979 169.023 76.4297 168.87 77.1797 168.562V169.711C76.6068 170.008 75.8854 170.156 75.0156 170.156ZM82.8359 170.156C81.5703 170.156 80.5703 169.771 79.8359 169C79.1068 168.229 78.7422 167.159 78.7422 165.789C78.7422 164.409 79.0807 163.312 79.7578 162.5C80.4401 161.688 81.3542 161.281 82.5 161.281C83.5729 161.281 84.4219 161.635 85.0469 162.344C85.6719 163.047 85.9844 163.977 85.9844 165.133V165.953H80.0859C80.112 166.958 80.3646 167.721 80.8438 168.242C81.3281 168.763 82.0078 169.023 82.8828 169.023C83.8047 169.023 84.7161 168.831 85.6172 168.445V169.602C85.1589 169.799 84.724 169.94 84.3125 170.023C83.9062 170.112 83.4141 170.156 82.8359 170.156ZM82.4844 162.367C81.7969 162.367 81.2474 162.591 80.8359 163.039C80.4297 163.487 80.1901 164.107 80.1172 164.898H84.5938C84.5938 164.081 84.4115 163.456 84.0469 163.023C83.6823 162.586 83.1615 162.367 82.4844 162.367ZM88.0156 169.172C88.0156 168.823 88.0938 168.56 88.25 168.383C88.4115 168.201 88.6406 168.109 88.9375 168.109C89.2396 168.109 89.474 168.201 89.6406 168.383C89.8125 168.56 89.8984 168.823 89.8984 169.172C89.8984 169.51 89.8125 169.771 89.6406 169.953C89.4688 170.135 89.2344 170.227 88.9375 170.227C88.6719 170.227 88.4505 170.146 88.2734 169.984C88.1016 169.818 88.0156 169.547 88.0156 169.172ZM96.0859 170.156C94.8203 170.156 93.8203 169.771 93.0859 169C92.3568 168.229 91.9922 167.159 91.9922 165.789C91.9922 164.409 92.3307 163.312 93.0078 162.5C93.6901 161.688 94.6042 161.281 95.75 161.281C96.8229 161.281 97.6719 161.635 98.2969 162.344C98.9219 163.047 99.2344 163.977 99.2344 165.133V165.953H93.3359C93.362 166.958 93.6146 167.721 94.0938 168.242C94.5781 168.763 95.2578 169.023 96.1328 169.023C97.0547 169.023 97.9661 168.831 98.8672 168.445V169.602C98.4089 169.799 97.974 169.94 97.5625 170.023C97.1562 170.112 96.6641 170.156 96.0859 170.156ZM95.7344 162.367C95.0469 162.367 94.4974 162.591 94.0859 163.039C93.6797 163.487 93.4401 164.107 93.3672 164.898H97.8438C97.8438 164.081 97.6615 163.456 97.2969 163.023C96.9323 162.586 96.4115 162.367 95.7344 162.367ZM104.219 169.086C104.448 169.086 104.669 169.07 104.883 169.039C105.096 169.003 105.266 168.966 105.391 168.93V169.922C105.25 169.99 105.042 170.044 104.766 170.086C104.495 170.133 104.25 170.156 104.031 170.156C102.375 170.156 101.547 169.284 101.547 167.539V162.445H100.32V161.82L101.547 161.281L102.094 159.453H102.844V161.438H105.328V162.445H102.844V167.484C102.844 168 102.966 168.396 103.211 168.672C103.456 168.948 103.792 169.086 104.219 169.086ZM112.969 170V164.461C112.969 163.763 112.81 163.242 112.492 162.898C112.174 162.555 111.677 162.383 111 162.383C110.099 162.383 109.44 162.628 109.023 163.117C108.612 163.607 108.406 164.409 108.406 165.523V170H107.109V157.844H108.406V161.523C108.406 161.966 108.385 162.333 108.344 162.625H108.422C108.677 162.214 109.039 161.891 109.508 161.656C109.982 161.417 110.521 161.297 111.125 161.297C112.172 161.297 112.956 161.547 113.477 162.047C114.003 162.542 114.266 163.331 114.266 164.414V170H112.969Z" class="path-3"/>
<path d="M43.7109 120.918C43.7109 121.93 43.3646 122.709 42.6719 123.256C41.9837 123.798 40.9971 124.069 39.7119 124.069H38.5361V128H37.374V118.006H39.9648C42.4622 118.006 43.7109 118.977 43.7109 120.918ZM38.5361 123.071H39.582C40.612 123.071 41.3571 122.905 41.8174 122.572C42.2777 122.24 42.5078 121.706 42.5078 120.973C42.5078 120.312 42.2913 119.82 41.8584 119.496C41.4255 119.173 40.751 119.011 39.835 119.011H38.5361V123.071ZM50.2461 128L50.0205 126.934H49.9658C49.5921 127.403 49.2184 127.722 48.8447 127.891C48.4756 128.055 48.013 128.137 47.457 128.137C46.7142 128.137 46.1309 127.945 45.707 127.562C45.2878 127.18 45.0781 126.635 45.0781 125.929C45.0781 124.416 46.2881 123.623 48.708 123.55L49.9795 123.509V123.044C49.9795 122.456 49.8519 122.023 49.5967 121.745C49.346 121.463 48.9427 121.321 48.3867 121.321C47.7624 121.321 47.056 121.513 46.2676 121.896L45.9189 121.027C46.2881 120.827 46.6914 120.67 47.1289 120.556C47.571 120.442 48.013 120.385 48.4551 120.385C49.3483 120.385 50.0091 120.583 50.4375 120.979C50.8704 121.376 51.0869 122.012 51.0869 122.887V128H50.2461ZM47.6826 127.2C48.389 127.2 48.9427 127.007 49.3438 126.619C49.7493 126.232 49.9521 125.689 49.9521 124.992V124.315L48.8174 124.363C47.915 124.395 47.2633 124.536 46.8623 124.787C46.4658 125.033 46.2676 125.418 46.2676 125.942C46.2676 126.353 46.3906 126.665 46.6367 126.879C46.8874 127.093 47.236 127.2 47.6826 127.2ZM56.8496 120.371C57.1823 120.371 57.4808 120.398 57.7451 120.453L57.5879 121.506C57.278 121.438 57.0046 121.403 56.7676 121.403C56.1615 121.403 55.6419 121.649 55.209 122.142C54.7806 122.634 54.5664 123.247 54.5664 123.98V128H53.4316V120.508H54.3682L54.498 121.896H54.5527C54.8307 121.408 55.1657 121.032 55.5576 120.768C55.9495 120.503 56.3802 120.371 56.8496 120.371ZM61.5664 127.2C61.7669 127.2 61.9606 127.187 62.1475 127.159C62.3343 127.127 62.4824 127.095 62.5918 127.063V127.932C62.4688 127.991 62.2865 128.039 62.0449 128.075C61.8079 128.116 61.5938 128.137 61.4023 128.137C59.9531 128.137 59.2285 127.373 59.2285 125.847V121.39H58.1553V120.843L59.2285 120.371L59.707 118.771H60.3633V120.508H62.5371V121.39H60.3633V125.799C60.3633 126.25 60.4704 126.596 60.6846 126.838C60.8988 127.079 61.1927 127.2 61.5664 127.2ZM62.9062 120.508H64.123L65.7637 124.78C66.1237 125.756 66.347 126.46 66.4336 126.893H66.4883C66.5475 126.66 66.6706 126.264 66.8574 125.703C67.0488 125.138 67.6686 123.406 68.7168 120.508H69.9336L66.7139 129.039C66.3949 129.882 66.0212 130.479 65.5928 130.83C65.1689 131.186 64.6471 131.363 64.0273 131.363C63.681 131.363 63.3392 131.325 63.002 131.247V130.338C63.2526 130.393 63.5329 130.42 63.8428 130.42C64.6221 130.42 65.1781 129.982 65.5107 129.107L65.9277 128.041L62.9062 120.508ZM78.4717 128H77.3643V120.877C77.3643 120.285 77.3825 119.724 77.4189 119.195C77.3232 119.291 77.2161 119.391 77.0977 119.496C76.9792 119.601 76.4368 120.045 75.4707 120.829L74.8691 120.05L77.5146 118.006H78.4717V128ZM92.8887 128L91.6445 124.821H87.6387L86.4082 128H85.2324L89.1836 117.965H90.1611L94.0918 128H92.8887ZM91.2822 123.775L90.1201 120.679C89.9697 120.287 89.8148 119.806 89.6553 119.236C89.555 119.674 89.4115 120.155 89.2246 120.679L88.0488 123.775H91.2822ZM100.395 126.995H100.333C99.8089 127.756 99.0251 128.137 97.9814 128.137C97.0016 128.137 96.2383 127.802 95.6914 127.132C95.1491 126.462 94.8779 125.509 94.8779 124.274C94.8779 123.039 95.1514 122.08 95.6982 121.396C96.2451 120.713 97.0062 120.371 97.9814 120.371C98.9977 120.371 99.777 120.74 100.319 121.479H100.408L100.36 120.938L100.333 120.412V117.363H101.468V128H100.545L100.395 126.995ZM98.125 127.187C98.8997 127.187 99.4603 126.977 99.8066 126.558C100.158 126.134 100.333 125.452 100.333 124.514V124.274C100.333 123.213 100.155 122.456 99.7998 122.005C99.4489 121.549 98.8861 121.321 98.1113 121.321C97.446 121.321 96.9355 121.581 96.5801 122.101C96.2292 122.616 96.0537 123.345 96.0537 124.288C96.0537 125.245 96.2292 125.967 96.5801 126.455C96.931 126.943 97.446 127.187 98.125 127.187ZM108.98 126.995H108.919C108.395 127.756 107.611 128.137 106.567 128.137C105.588 128.137 104.824 127.802 104.277 127.132C103.735 126.462 103.464 125.509 103.464 124.274C103.464 123.039 103.737 122.08 104.284 121.396C104.831 120.713 105.592 120.371 106.567 120.371C107.584 120.371 108.363 120.74 108.905 121.479H108.994L108.946 120.938L108.919 120.412V117.363H110.054V128H109.131L108.98 126.995ZM106.711 127.187C107.486 127.187 108.046 126.977 108.393 126.558C108.743 126.134 108.919 125.452 108.919 124.514V124.274C108.919 123.213 108.741 122.456 108.386 122.005C108.035 121.549 107.472 121.321 106.697 121.321C106.032 121.321 105.521 121.581 105.166 122.101C104.815 122.616 104.64 123.345 104.64 124.288C104.64 125.245 104.815 125.967 105.166 126.455C105.517 126.943 106.032 127.187 106.711 127.187ZM115.885 120.371C116.217 120.371 116.516 120.398 116.78 120.453L116.623 121.506C116.313 121.438 116.04 121.403 115.803 121.403C115.197 121.403 114.677 121.649 114.244 122.142C113.816 122.634 113.602 123.247 113.602 123.98V128H112.467V120.508H113.403L113.533 121.896H113.588C113.866 121.408 114.201 121.032 114.593 120.768C114.985 120.503 115.415 120.371 115.885 120.371ZM121.347 128.137C120.239 128.137 119.364 127.799 118.722 127.125C118.084 126.451 117.765 125.514 117.765 124.315C117.765 123.108 118.061 122.148 118.653 121.438C119.25 120.727 120.05 120.371 121.053 120.371C121.992 120.371 122.734 120.681 123.281 121.301C123.828 121.916 124.102 122.729 124.102 123.741V124.459H118.94C118.963 125.339 119.184 126.006 119.604 126.462C120.027 126.918 120.622 127.146 121.388 127.146C122.194 127.146 122.992 126.977 123.78 126.64V127.651C123.379 127.825 122.999 127.948 122.639 128.021C122.283 128.098 121.853 128.137 121.347 128.137ZM121.039 121.321C120.438 121.321 119.957 121.517 119.597 121.909C119.241 122.301 119.032 122.843 118.968 123.536H122.885C122.885 122.821 122.725 122.274 122.406 121.896C122.087 121.513 121.632 121.321 121.039 121.321ZM130.876 125.956C130.876 126.653 130.616 127.191 130.097 127.569C129.577 127.948 128.848 128.137 127.909 128.137C126.916 128.137 126.141 127.979 125.585 127.665V126.612C125.945 126.795 126.33 126.938 126.74 127.043C127.155 127.148 127.554 127.2 127.937 127.2C128.529 127.2 128.985 127.107 129.304 126.92C129.623 126.729 129.782 126.439 129.782 126.052C129.782 125.76 129.655 125.512 129.399 125.307C129.149 125.097 128.657 124.851 127.923 124.568C127.226 124.309 126.729 124.083 126.433 123.892C126.141 123.696 125.922 123.475 125.776 123.229C125.635 122.982 125.564 122.688 125.564 122.347C125.564 121.736 125.813 121.255 126.31 120.904C126.806 120.549 127.488 120.371 128.354 120.371C129.16 120.371 129.949 120.535 130.719 120.863L130.315 121.786C129.563 121.476 128.882 121.321 128.271 121.321C127.734 121.321 127.328 121.406 127.055 121.574C126.781 121.743 126.645 121.975 126.645 122.271C126.645 122.472 126.695 122.643 126.795 122.784C126.9 122.925 127.066 123.06 127.294 123.188C127.522 123.315 127.959 123.5 128.606 123.741C129.495 124.065 130.094 124.391 130.404 124.719C130.719 125.047 130.876 125.459 130.876 125.956ZM137.562 125.956C137.562 126.653 137.302 127.191 136.782 127.569C136.263 127.948 135.534 128.137 134.595 128.137C133.601 128.137 132.826 127.979 132.271 127.665V126.612C132.631 126.795 133.016 126.938 133.426 127.043C133.84 127.148 134.239 127.2 134.622 127.2C135.215 127.2 135.67 127.107 135.989 126.92C136.308 126.729 136.468 126.439 136.468 126.052C136.468 125.76 136.34 125.512 136.085 125.307C135.834 125.097 135.342 124.851 134.608 124.568C133.911 124.309 133.414 124.083 133.118 123.892C132.826 123.696 132.608 123.475 132.462 123.229C132.321 122.982 132.25 122.688 132.25 122.347C132.25 121.736 132.498 121.255 132.995 120.904C133.492 120.549 134.173 120.371 135.039 120.371C135.846 120.371 136.634 120.535 137.404 120.863L137.001 121.786C136.249 121.476 135.568 121.321 134.957 121.321C134.419 121.321 134.014 121.406 133.74 121.574C133.467 121.743 133.33 121.975 133.33 122.271C133.33 122.472 133.38 122.643 133.48 122.784C133.585 122.925 133.752 123.06 133.979 123.188C134.207 123.315 134.645 123.5 135.292 123.741C136.181 124.065 136.78 124.391 137.09 124.719C137.404 125.047 137.562 125.459 137.562 125.956Z" class="path-4"/>
<rect x="36.5" y="234.5" width="273" height="44" rx="2.5" class="rect-5"/>
<path d="M56.9922 261.156C55.7266 261.156 54.7266 260.771 53.9922 260C53.263 259.229 52.8984 258.159 52.8984 256.789C52.8984 255.409 53.237 254.312 53.9141 253.5C54.5964 252.688 55.5104 252.281 56.6562 252.281C57.7292 252.281 58.5781 252.635 59.2031 253.344C59.8281 254.047 60.1406 254.977 60.1406 256.133V256.953H54.2422C54.2682 257.958 54.5208 258.721 55 259.242C55.4844 259.763 56.1641 260.023 57.0391 260.023C57.9609 260.023 58.8724 259.831 59.7734 259.445V260.602C59.3151 260.799 58.8802 260.94 58.4688 261.023C58.0625 261.112 57.5703 261.156 56.9922 261.156ZM56.6406 253.367C55.9531 253.367 55.4036 253.591 54.9922 254.039C54.5859 254.487 54.3464 255.107 54.2734 255.898H58.75C58.75 255.081 58.5677 254.456 58.2031 254.023C57.8385 253.586 57.3177 253.367 56.6406 253.367ZM69.3672 252.438V253.258L67.7812 253.445C67.9271 253.628 68.0573 253.867 68.1719 254.164C68.2865 254.456 68.3438 254.786 68.3438 255.156C68.3438 255.995 68.0573 256.664 67.4844 257.164C66.9115 257.664 66.125 257.914 65.125 257.914C64.8698 257.914 64.6302 257.893 64.4062 257.852C63.8542 258.143 63.5781 258.51 63.5781 258.953C63.5781 259.188 63.6745 259.362 63.8672 259.477C64.0599 259.586 64.3906 259.641 64.8594 259.641H66.375C67.3021 259.641 68.013 259.836 68.5078 260.227C69.0078 260.617 69.2578 261.185 69.2578 261.93C69.2578 262.878 68.8776 263.599 68.1172 264.094C67.3568 264.594 66.2474 264.844 64.7891 264.844C63.6693 264.844 62.8047 264.635 62.1953 264.219C61.5911 263.802 61.2891 263.214 61.2891 262.453C61.2891 261.932 61.4557 261.482 61.7891 261.102C62.1224 260.721 62.5911 260.464 63.1953 260.328C62.9766 260.229 62.7917 260.076 62.6406 259.867C62.4948 259.659 62.4219 259.417 62.4219 259.141C62.4219 258.828 62.5052 258.555 62.6719 258.32C62.8385 258.086 63.1016 257.859 63.4609 257.641C63.0182 257.458 62.6562 257.148 62.375 256.711C62.099 256.273 61.9609 255.773 61.9609 255.211C61.9609 254.273 62.2422 253.552 62.8047 253.047C63.3672 252.536 64.1641 252.281 65.1953 252.281C65.6432 252.281 66.0469 252.333 66.4062 252.438H69.3672ZM62.5391 262.438C62.5391 262.901 62.7344 263.253 63.125 263.492C63.5156 263.732 64.0755 263.852 64.8047 263.852C65.8932 263.852 66.6979 263.688 67.2188 263.359C67.7448 263.036 68.0078 262.596 68.0078 262.039C68.0078 261.576 67.8646 261.253 67.5781 261.07C67.2917 260.893 66.7526 260.805 65.9609 260.805H64.4062C63.8177 260.805 63.3594 260.945 63.0312 261.227C62.7031 261.508 62.5391 261.911 62.5391 262.438ZM63.2422 255.18C63.2422 255.779 63.4115 256.232 63.75 256.539C64.0885 256.846 64.5599 257 65.1641 257C66.4297 257 67.0625 256.385 67.0625 255.156C67.0625 253.87 66.4219 253.227 65.1406 253.227C64.5312 253.227 64.0625 253.391 63.7344 253.719C63.4062 254.047 63.2422 254.534 63.2422 255.18ZM70.9375 260.172C70.9375 259.823 71.0156 259.56 71.1719 259.383C71.3333 259.201 71.5625 259.109 71.8594 259.109C72.1615 259.109 72.3958 259.201 72.5625 259.383C72.7344 259.56 72.8203 259.823 72.8203 260.172C72.8203 260.51 72.7344 260.771 72.5625 260.953C72.3906 261.135 72.1562 261.227 71.8594 261.227C71.5938 261.227 71.3724 261.146 71.1953 260.984C71.0234 260.818 70.9375 260.547 70.9375 260.172ZM79.7422 249.578H82.9688C84.4844 249.578 85.5807 249.805 86.2578 250.258C86.9349 250.711 87.2734 251.427 87.2734 252.406C87.2734 253.083 87.0833 253.643 86.7031 254.086C86.3281 254.523 85.7786 254.807 85.0547 254.938V255.016C86.7891 255.312 87.6562 256.224 87.6562 257.75C87.6562 258.771 87.3099 259.568 86.6172 260.141C85.9297 260.714 84.9661 261 83.7266 261H79.7422V249.578ZM81.0703 254.469H83.2578C84.1953 254.469 84.8698 254.323 85.2812 254.031C85.6927 253.734 85.8984 253.237 85.8984 252.539C85.8984 251.898 85.6693 251.438 85.2109 251.156C84.7526 250.87 84.0234 250.727 83.0234 250.727H81.0703V254.469ZM81.0703 255.594V259.867H83.4531C84.375 259.867 85.0677 259.69 85.5312 259.336C86 258.977 86.2344 258.417 86.2344 257.656C86.2344 256.948 85.9948 256.427 85.5156 256.094C85.0417 255.76 84.3177 255.594 83.3438 255.594H81.0703ZM97.3125 256.711C97.3125 258.107 96.9609 259.198 96.2578 259.984C95.5547 260.766 94.5833 261.156 93.3438 261.156C92.5781 261.156 91.8984 260.977 91.3047 260.617C90.7109 260.258 90.2526 259.742 89.9297 259.07C89.6068 258.398 89.4453 257.612 89.4453 256.711C89.4453 255.315 89.7943 254.229 90.4922 253.453C91.1901 252.672 92.1589 252.281 93.3984 252.281C94.5964 252.281 95.5469 252.68 96.25 253.477C96.9583 254.273 97.3125 255.352 97.3125 256.711ZM90.7891 256.711C90.7891 257.805 91.0078 258.638 91.4453 259.211C91.8828 259.784 92.526 260.07 93.375 260.07C94.224 260.07 94.8672 259.786 95.3047 259.219C95.7474 258.646 95.9688 257.81 95.9688 256.711C95.9688 255.622 95.7474 254.797 95.3047 254.234C94.8672 253.667 94.2188 253.383 93.3594 253.383C92.5104 253.383 91.8698 253.661 91.4375 254.219C91.0052 254.776 90.7891 255.607 90.7891 256.711ZM103.578 252.297C104.703 252.297 105.576 252.682 106.195 253.453C106.82 254.219 107.133 255.305 107.133 256.711C107.133 258.117 106.818 259.211 106.188 259.992C105.562 260.768 104.693 261.156 103.578 261.156C103.021 261.156 102.51 261.055 102.047 260.852C101.589 260.643 101.203 260.326 100.891 259.898H100.797L100.523 261H99.5938V248.844H100.891V251.797C100.891 252.458 100.87 253.052 100.828 253.578H100.891C101.495 252.724 102.391 252.297 103.578 252.297ZM103.391 253.383C102.505 253.383 101.867 253.638 101.477 254.148C101.086 254.654 100.891 255.508 100.891 256.711C100.891 257.914 101.091 258.776 101.492 259.297C101.893 259.812 102.536 260.07 103.422 260.07C104.219 260.07 104.812 259.781 105.203 259.203C105.594 258.62 105.789 257.784 105.789 256.695C105.789 255.581 105.594 254.75 105.203 254.203C104.812 253.656 104.208 253.383 103.391 253.383Z" class="path-5"/>
<path d="M43.7109 211.918C43.7109 212.93 43.3646 213.709 42.6719 214.256C41.9837 214.798 40.9971 215.069 39.7119 215.069H38.5361V219H37.374V209.006H39.9648C42.4622 209.006 43.7109 209.977 43.7109 211.918ZM38.5361 214.071H39.582C40.612 214.071 41.3571 213.905 41.8174 213.572C42.2777 213.24 42.5078 212.706 42.5078 211.973C42.5078 211.312 42.2913 210.82 41.8584 210.496C41.4255 210.173 40.751 210.011 39.835 210.011H38.5361V214.071ZM50.2461 219L50.0205 217.934H49.9658C49.5921 218.403 49.2184 218.722 48.8447 218.891C48.4756 219.055 48.013 219.137 47.457 219.137C46.7142 219.137 46.1309 218.945 45.707 218.562C45.2878 218.18 45.0781 217.635 45.0781 216.929C45.0781 215.416 46.2881 214.623 48.708 214.55L49.9795 214.509V214.044C49.9795 213.456 49.8519 213.023 49.5967 212.745C49.346 212.463 48.9427 212.321 48.3867 212.321C47.7624 212.321 47.056 212.513 46.2676 212.896L45.9189 212.027C46.2881 211.827 46.6914 211.67 47.1289 211.556C47.571 211.442 48.013 211.385 48.4551 211.385C49.3483 211.385 50.0091 211.583 50.4375 211.979C50.8704 212.376 51.0869 213.012 51.0869 213.887V219H50.2461ZM47.6826 218.2C48.389 218.2 48.9427 218.007 49.3438 217.619C49.7493 217.232 49.9521 216.689 49.9521 215.992V215.315L48.8174 215.363C47.915 215.395 47.2633 215.536 46.8623 215.787C46.4658 216.033 46.2676 216.418 46.2676 216.942C46.2676 217.353 46.3906 217.665 46.6367 217.879C46.8874 218.093 47.236 218.2 47.6826 218.2ZM56.8496 211.371C57.1823 211.371 57.4808 211.398 57.7451 211.453L57.5879 212.506C57.278 212.438 57.0046 212.403 56.7676 212.403C56.1615 212.403 55.6419 212.649 55.209 213.142C54.7806 213.634 54.5664 214.247 54.5664 214.98V219H53.4316V211.508H54.3682L54.498 212.896H54.5527C54.8307 212.408 55.1657 212.032 55.5576 211.768C55.9495 211.503 56.3802 211.371 56.8496 211.371ZM61.5664 218.2C61.7669 218.2 61.9606 218.187 62.1475 218.159C62.3343 218.127 62.4824 218.095 62.5918 218.063V218.932C62.4688 218.991 62.2865 219.039 62.0449 219.075C61.8079 219.116 61.5938 219.137 61.4023 219.137C59.9531 219.137 59.2285 218.373 59.2285 216.847V212.39H58.1553V211.843L59.2285 211.371L59.707 209.771H60.3633V211.508H62.5371V212.39H60.3633V216.799C60.3633 217.25 60.4704 217.596 60.6846 217.838C60.8988 218.079 61.1927 218.2 61.5664 218.2ZM62.9062 211.508H64.123L65.7637 215.78C66.1237 216.756 66.347 217.46 66.4336 217.893H66.4883C66.5475 217.66 66.6706 217.264 66.8574 216.703C67.0488 216.138 67.6686 214.406 68.7168 211.508H69.9336L66.7139 220.039C66.3949 220.882 66.0212 221.479 65.5928 221.83C65.1689 222.186 64.6471 222.363 64.0273 222.363C63.681 222.363 63.3392 222.325 63.002 222.247V221.338C63.2526 221.393 63.5329 221.42 63.8428 221.42C64.6221 221.42 65.1781 220.982 65.5107 220.107L65.9277 219.041L62.9062 211.508ZM80.8369 219H74.2676V218.022L76.8994 215.377C77.7015 214.566 78.2301 213.987 78.4854 213.641C78.7406 213.294 78.932 212.957 79.0596 212.629C79.1872 212.301 79.251 211.948 79.251 211.569C79.251 211.036 79.0892 210.615 78.7656 210.305C78.4421 209.99 77.9932 209.833 77.4189 209.833C77.0042 209.833 76.61 209.901 76.2363 210.038C75.8672 210.175 75.4548 210.423 74.999 210.783L74.3975 210.011C75.318 209.245 76.3206 208.862 77.4053 208.862C78.3441 208.862 79.0801 209.104 79.6133 209.587C80.1465 210.065 80.4131 210.71 80.4131 211.521C80.4131 212.155 80.2354 212.782 79.8799 213.401C79.5244 214.021 78.859 214.805 77.8838 215.753L75.6963 217.893V217.947H80.8369V219Z" class="path-6"/>
<rect x="36.5" y="325.5" width="273" height="44" rx="2.5" class="rect-6"/>
<path d="M60.3516 346.273C60.3516 348.247 60.0391 349.721 59.4141 350.695C58.7943 351.669 57.8438 352.156 56.5625 352.156C55.3333 352.156 54.3984 351.659 53.7578 350.664C53.1172 349.664 52.7969 348.201 52.7969 346.273C52.7969 344.284 53.1068 342.807 53.7266 341.844C54.3464 340.88 55.2917 340.398 56.5625 340.398C57.8021 340.398 58.7422 340.901 59.3828 341.906C60.0286 342.911 60.3516 344.367 60.3516 346.273ZM54.1094 346.273C54.1094 347.935 54.3047 349.146 54.6953 349.906C55.0859 350.661 55.7083 351.039 56.5625 351.039C57.4271 351.039 58.0521 350.656 58.4375 349.891C58.8281 349.12 59.0234 347.914 59.0234 346.273C59.0234 344.633 58.8281 343.432 58.4375 342.672C58.0521 341.906 57.4271 341.523 56.5625 341.523C55.7083 341.523 55.0859 341.901 54.6953 342.656C54.3047 343.406 54.1094 344.612 54.1094 346.273ZM64.5938 347.617L61.6172 343.438H63.0938L65.3516 346.719L67.6016 343.438H69.0625L66.0859 347.617L69.2188 352H67.75L65.3516 348.531L62.9297 352H61.4609L64.5938 347.617ZM75.1328 352H73.8672V343.859C73.8672 343.182 73.888 342.542 73.9297 341.938C73.8203 342.047 73.6979 342.161 73.5625 342.281C73.4271 342.401 72.8073 342.909 71.7031 343.805L71.0156 342.914L74.0391 340.578H75.1328V352ZM86.9922 352H79.4844V350.883L82.4922 347.859C83.4089 346.932 84.013 346.271 84.3047 345.875C84.5964 345.479 84.8151 345.094 84.9609 344.719C85.1068 344.344 85.1797 343.94 85.1797 343.508C85.1797 342.898 84.9948 342.417 84.625 342.062C84.2552 341.703 83.7422 341.523 83.0859 341.523C82.612 341.523 82.1615 341.602 81.7344 341.758C81.3125 341.914 80.8411 342.198 80.3203 342.609L79.6328 341.727C80.6849 340.852 81.8307 340.414 83.0703 340.414C84.1432 340.414 84.9844 340.69 85.5938 341.242C86.2031 341.789 86.5078 342.526 86.5078 343.453C86.5078 344.177 86.3047 344.893 85.8984 345.602C85.4922 346.31 84.7318 347.206 83.6172 348.289L81.1172 350.734V350.797H86.9922V352ZM95.7188 343.266C95.7188 343.995 95.513 344.591 95.1016 345.055C94.6953 345.518 94.1172 345.828 93.3672 345.984V346.047C94.2839 346.161 94.9635 346.453 95.4062 346.922C95.849 347.391 96.0703 348.005 96.0703 348.766C96.0703 349.854 95.6927 350.693 94.9375 351.281C94.1823 351.865 93.1094 352.156 91.7188 352.156C91.1146 352.156 90.5599 352.109 90.0547 352.016C89.5547 351.927 89.0677 351.768 88.5938 351.539V350.305C89.0885 350.549 89.6146 350.737 90.1719 350.867C90.7344 350.992 91.2656 351.055 91.7656 351.055C93.7396 351.055 94.7266 350.281 94.7266 348.734C94.7266 347.349 93.638 346.656 91.4609 346.656H90.3359V345.539H91.4766C92.3672 345.539 93.0729 345.344 93.5938 344.953C94.1146 344.557 94.375 344.01 94.375 343.312C94.375 342.755 94.1823 342.318 93.7969 342C93.4167 341.682 92.8984 341.523 92.2422 341.523C91.7422 341.523 91.2708 341.591 90.8281 341.727C90.3854 341.862 89.8802 342.112 89.3125 342.477L88.6562 341.602C89.125 341.232 89.6641 340.943 90.2734 340.734C90.888 340.521 91.5339 340.414 92.2109 340.414C93.3203 340.414 94.1823 340.669 94.7969 341.18C95.4115 341.685 95.7188 342.38 95.7188 343.266ZM105.844 349.375H104.148V352H102.906V349.375H97.3516V348.242L102.773 340.516H104.148V348.195H105.844V349.375ZM102.906 348.195V344.398C102.906 343.654 102.932 342.812 102.984 341.875H102.922C102.672 342.375 102.438 342.789 102.219 343.117L98.6484 348.195H102.906ZM107.359 351.172C107.359 350.823 107.438 350.56 107.594 350.383C107.755 350.201 107.984 350.109 108.281 350.109C108.583 350.109 108.818 350.201 108.984 350.383C109.156 350.56 109.242 350.823 109.242 351.172C109.242 351.51 109.156 351.771 108.984 351.953C108.812 352.135 108.578 352.227 108.281 352.227C108.016 352.227 107.794 352.146 107.617 351.984C107.445 351.818 107.359 351.547 107.359 351.172ZM111.625 351.172C111.625 350.823 111.703 350.56 111.859 350.383C112.021 350.201 112.25 350.109 112.547 350.109C112.849 350.109 113.083 350.201 113.25 350.383C113.422 350.56 113.508 350.823 113.508 351.172C113.508 351.51 113.422 351.771 113.25 351.953C113.078 352.135 112.844 352.227 112.547 352.227C112.281 352.227 112.06 352.146 111.883 351.984C111.711 351.818 111.625 351.547 111.625 351.172ZM115.891 351.172C115.891 350.823 115.969 350.56 116.125 350.383C116.286 350.201 116.516 350.109 116.812 350.109C117.115 350.109 117.349 350.201 117.516 350.383C117.688 350.56 117.773 350.823 117.773 351.172C117.773 351.51 117.688 351.771 117.516 351.953C117.344 352.135 117.109 352.227 116.812 352.227C116.547 352.227 116.326 352.146 116.148 351.984C115.977 351.818 115.891 351.547 115.891 351.172ZM127.797 349.375H126.102V352H124.859V349.375H119.305V348.242L124.727 340.516H126.102V348.195H127.797V349.375ZM124.859 348.195V344.398C124.859 343.654 124.885 342.812 124.938 341.875H124.875C124.625 342.375 124.391 342.789 124.172 343.117L120.602 348.195H124.859ZM135.984 343.266C135.984 343.995 135.779 344.591 135.367 345.055C134.961 345.518 134.383 345.828 133.633 345.984V346.047C134.549 346.161 135.229 346.453 135.672 346.922C136.115 347.391 136.336 348.005 136.336 348.766C136.336 349.854 135.958 350.693 135.203 351.281C134.448 351.865 133.375 352.156 131.984 352.156C131.38 352.156 130.826 352.109 130.32 352.016C129.82 351.927 129.333 351.768 128.859 351.539V350.305C129.354 350.549 129.88 350.737 130.438 350.867C131 350.992 131.531 351.055 132.031 351.055C134.005 351.055 134.992 350.281 134.992 348.734C134.992 347.349 133.904 346.656 131.727 346.656H130.602V345.539H131.742C132.633 345.539 133.339 345.344 133.859 344.953C134.38 344.557 134.641 344.01 134.641 343.312C134.641 342.755 134.448 342.318 134.062 342C133.682 341.682 133.164 341.523 132.508 341.523C132.008 341.523 131.536 341.591 131.094 341.727C130.651 341.862 130.146 342.112 129.578 342.477L128.922 341.602C129.391 341.232 129.93 340.943 130.539 340.734C131.154 340.521 131.799 340.414 132.477 340.414C133.586 340.414 134.448 340.669 135.062 341.18C135.677 341.685 135.984 342.38 135.984 343.266ZM145.57 352H138.062V350.883L141.07 347.859C141.987 346.932 142.591 346.271 142.883 345.875C143.174 345.479 143.393 345.094 143.539 344.719C143.685 344.344 143.758 343.94 143.758 343.508C143.758 342.898 143.573 342.417 143.203 342.062C142.833 341.703 142.32 341.523 141.664 341.523C141.19 341.523 140.74 341.602 140.312 341.758C139.891 341.914 139.419 342.198 138.898 342.609L138.211 341.727C139.263 340.852 140.409 340.414 141.648 340.414C142.721 340.414 143.562 340.69 144.172 341.242C144.781 341.789 145.086 342.526 145.086 343.453C145.086 344.177 144.883 344.893 144.477 345.602C144.07 346.31 143.31 347.206 142.195 348.289L139.695 350.734V350.797H145.57V352ZM152.023 352H150.758V343.859C150.758 343.182 150.779 342.542 150.82 341.938C150.711 342.047 150.589 342.161 150.453 342.281C150.318 342.401 149.698 342.909 148.594 343.805L147.906 342.914L150.93 340.578H152.023V352Z" class="path-7"/>
<path d="M43.7109 302.918C43.7109 303.93 43.3646 304.709 42.6719 305.256C41.9837 305.798 40.9971 306.069 39.7119 306.069H38.5361V310H37.374V300.006H39.9648C42.4622 300.006 43.7109 300.977 43.7109 302.918ZM38.5361 305.071H39.582C40.612 305.071 41.3571 304.905 41.8174 304.572C42.2777 304.24 42.5078 303.706 42.5078 302.973C42.5078 302.312 42.2913 301.82 41.8584 301.496C41.4255 301.173 40.751 301.011 39.835 301.011H38.5361V305.071ZM50.2461 310L50.0205 308.934H49.9658C49.5921 309.403 49.2184 309.722 48.8447 309.891C48.4756 310.055 48.013 310.137 47.457 310.137C46.7142 310.137 46.1309 309.945 45.707 309.562C45.2878 309.18 45.0781 308.635 45.0781 307.929C45.0781 306.416 46.2881 305.623 48.708 305.55L49.9795 305.509V305.044C49.9795 304.456 49.8519 304.023 49.5967 303.745C49.346 303.463 48.9427 303.321 48.3867 303.321C47.7624 303.321 47.056 303.513 46.2676 303.896L45.9189 303.027C46.2881 302.827 46.6914 302.67 47.1289 302.556C47.571 302.442 48.013 302.385 48.4551 302.385C49.3483 302.385 50.0091 302.583 50.4375 302.979C50.8704 303.376 51.0869 304.012 51.0869 304.887V310H50.2461ZM47.6826 309.2C48.389 309.2 48.9427 309.007 49.3438 308.619C49.7493 308.232 49.9521 307.689 49.9521 306.992V306.315L48.8174 306.363C47.915 306.395 47.2633 306.536 46.8623 306.787C46.4658 307.033 46.2676 307.418 46.2676 307.942C46.2676 308.353 46.3906 308.665 46.6367 308.879C46.8874 309.093 47.236 309.2 47.6826 309.2ZM56.8496 302.371C57.1823 302.371 57.4808 302.398 57.7451 302.453L57.5879 303.506C57.278 303.438 57.0046 303.403 56.7676 303.403C56.1615 303.403 55.6419 303.649 55.209 304.142C54.7806 304.634 54.5664 305.247 54.5664 305.98V310H53.4316V302.508H54.3682L54.498 303.896H54.5527C54.8307 303.408 55.1657 303.032 55.5576 302.768C55.9495 302.503 56.3802 302.371 56.8496 302.371ZM61.5664 309.2C61.7669 309.2 61.9606 309.187 62.1475 309.159C62.3343 309.127 62.4824 309.095 62.5918 309.063V309.932C62.4688 309.991 62.2865 310.039 62.0449 310.075C61.8079 310.116 61.5938 310.137 61.4023 310.137C59.9531 310.137 59.2285 309.373 59.2285 307.847V303.39H58.1553V302.843L59.2285 302.371L59.707 300.771H60.3633V302.508H62.5371V303.39H60.3633V307.799C60.3633 308.25 60.4704 308.596 60.6846 308.838C60.8988 309.079 61.1927 309.2 61.5664 309.2ZM62.9062 302.508H64.123L65.7637 306.78C66.1237 307.756 66.347 308.46 66.4336 308.893H66.4883C66.5475 308.66 66.6706 308.264 66.8574 307.703C67.0488 307.138 67.6686 305.406 68.7168 302.508H69.9336L66.7139 311.039C66.3949 311.882 66.0212 312.479 65.5928 312.83C65.1689 313.186 64.6471 313.363 64.0273 313.363C63.681 313.363 63.3392 313.325 63.002 313.247V312.338C63.2526 312.393 63.5329 312.42 63.8428 312.42C64.6221 312.42 65.1781 311.982 65.5107 311.107L65.9277 310.041L62.9062 302.508ZM80.8369 310H74.2676V309.022L76.8994 306.377C77.7015 305.566 78.2301 304.987 78.4854 304.641C78.7406 304.294 78.932 303.957 79.0596 303.629C79.1872 303.301 79.251 302.948 79.251 302.569C79.251 302.036 79.0892 301.615 78.7656 301.305C78.4421 300.99 77.9932 300.833 77.4189 300.833C77.0042 300.833 76.61 300.901 76.2363 301.038C75.8672 301.175 75.4548 301.423 74.999 301.783L74.3975 301.011C75.318 300.245 76.3206 299.862 77.4053 299.862C78.3441 299.862 79.0801 300.104 79.6133 300.587C80.1465 301.065 80.4131 301.71 80.4131 302.521C80.4131 303.155 80.2354 303.782 79.8799 304.401C79.5244 305.021 78.859 305.805 77.8838 306.753L75.6963 308.893V308.947H80.8369V310ZM92.8887 310L91.6445 306.821H87.6387L86.4082 310H85.2324L89.1836 299.965H90.1611L94.0918 310H92.8887ZM91.2822 305.775L90.1201 302.679C89.9697 302.287 89.8148 301.806 89.6553 301.236C89.555 301.674 89.4115 302.155 89.2246 302.679L88.0488 305.775H91.2822ZM100.395 308.995H100.333C99.8089 309.756 99.0251 310.137 97.9814 310.137C97.0016 310.137 96.2383 309.802 95.6914 309.132C95.1491 308.462 94.8779 307.509 94.8779 306.274C94.8779 305.039 95.1514 304.08 95.6982 303.396C96.2451 302.713 97.0062 302.371 97.9814 302.371C98.9977 302.371 99.777 302.74 100.319 303.479H100.408L100.36 302.938L100.333 302.412V299.363H101.468V310H100.545L100.395 308.995ZM98.125 309.187C98.8997 309.187 99.4603 308.977 99.8066 308.558C100.158 308.134 100.333 307.452 100.333 306.514V306.274C100.333 305.213 100.155 304.456 99.7998 304.005C99.4489 303.549 98.8861 303.321 98.1113 303.321C97.446 303.321 96.9355 303.581 96.5801 304.101C96.2292 304.616 96.0537 305.345 96.0537 306.288C96.0537 307.245 96.2292 307.967 96.5801 308.455C96.931 308.943 97.446 309.187 98.125 309.187ZM108.98 308.995H108.919C108.395 309.756 107.611 310.137 106.567 310.137C105.588 310.137 104.824 309.802 104.277 309.132C103.735 308.462 103.464 307.509 103.464 306.274C103.464 305.039 103.737 304.08 104.284 303.396C104.831 302.713 105.592 302.371 106.567 302.371C107.584 302.371 108.363 302.74 108.905 303.479H108.994L108.946 302.938L108.919 302.412V299.363H110.054V310H109.131L108.98 308.995ZM106.711 309.187C107.486 309.187 108.046 308.977 108.393 308.558C108.743 308.134 108.919 307.452 108.919 306.514V306.274C108.919 305.213 108.741 304.456 108.386 304.005C108.035 303.549 107.472 303.321 106.697 303.321C106.032 303.321 105.521 303.581 105.166 304.101C104.815 304.616 104.64 305.345 104.64 306.288C104.64 307.245 104.815 307.967 105.166 308.455C105.517 308.943 106.032 309.187 106.711 309.187ZM115.885 302.371C116.217 302.371 116.516 302.398 116.78 302.453L116.623 303.506C116.313 303.438 116.04 303.403 115.803 303.403C115.197 303.403 114.677 303.649 114.244 304.142C113.816 304.634 113.602 305.247 113.602 305.98V310H112.467V302.508H113.403L113.533 303.896H113.588C113.866 303.408 114.201 303.032 114.593 302.768C114.985 302.503 115.415 302.371 115.885 302.371ZM121.347 310.137C120.239 310.137 119.364 309.799 118.722 309.125C118.084 308.451 117.765 307.514 117.765 306.315C117.765 305.108 118.061 304.148 118.653 303.438C119.25 302.727 120.05 302.371 121.053 302.371C121.992 302.371 122.734 302.681 123.281 303.301C123.828 303.916 124.102 304.729 124.102 305.741V306.459H118.94C118.963 307.339 119.184 308.006 119.604 308.462C120.027 308.918 120.622 309.146 121.388 309.146C122.194 309.146 122.992 308.977 123.78 308.64V309.651C123.379 309.825 122.999 309.948 122.639 310.021C122.283 310.098 121.853 310.137 121.347 310.137ZM121.039 303.321C120.438 303.321 119.957 303.517 119.597 303.909C119.241 304.301 119.032 304.843 118.968 305.536H122.885C122.885 304.821 122.725 304.274 122.406 303.896C122.087 303.513 121.632 303.321 121.039 303.321ZM130.876 307.956C130.876 308.653 130.616 309.191 130.097 309.569C129.577 309.948 128.848 310.137 127.909 310.137C126.916 310.137 126.141 309.979 125.585 309.665V308.612C125.945 308.795 126.33 308.938 126.74 309.043C127.155 309.148 127.554 309.2 127.937 309.2C128.529 309.2 128.985 309.107 129.304 308.92C129.623 308.729 129.782 308.439 129.782 308.052C129.782 307.76 129.655 307.512 129.399 307.307C129.149 307.097 128.657 306.851 127.923 306.568C127.226 306.309 126.729 306.083 126.433 305.892C126.141 305.696 125.922 305.475 125.776 305.229C125.635 304.982 125.564 304.688 125.564 304.347C125.564 303.736 125.813 303.255 126.31 302.904C126.806 302.549 127.488 302.371 128.354 302.371C129.16 302.371 129.949 302.535 130.719 302.863L130.315 303.786C129.563 303.476 128.882 303.321 128.271 303.321C127.734 303.321 127.328 303.406 127.055 303.574C126.781 303.743 126.645 303.975 126.645 304.271C126.645 304.472 126.695 304.643 126.795 304.784C126.9 304.925 127.066 305.06 127.294 305.188C127.522 305.315 127.959 305.5 128.606 305.741C129.495 306.065 130.094 306.391 130.404 306.719C130.719 307.047 130.876 307.459 130.876 307.956ZM137.562 307.956C137.562 308.653 137.302 309.191 136.782 309.569C136.263 309.948 135.534 310.137 134.595 310.137C133.601 310.137 132.826 309.979 132.271 309.665V308.612C132.631 308.795 133.016 308.938 133.426 309.043C133.84 309.148 134.239 309.2 134.622 309.2C135.215 309.2 135.67 309.107 135.989 308.92C136.308 308.729 136.468 308.439 136.468 308.052C136.468 307.76 136.34 307.512 136.085 307.307C135.834 307.097 135.342 306.851 134.608 306.568C133.911 306.309 133.414 306.083 133.118 305.892C132.826 305.696 132.608 305.475 132.462 305.229C132.321 304.982 132.25 304.688 132.25 304.347C132.25 303.736 132.498 303.255 132.995 302.904C133.492 302.549 134.173 302.371 135.039 302.371C135.846 302.371 136.634 302.535 137.404 302.863L137.001 303.786C136.249 303.476 135.568 303.321 134.957 303.321C134.419 303.321 134.014 303.406 133.74 303.574C133.467 303.743 133.33 303.975 133.33 304.271C133.33 304.472 133.38 304.643 133.48 304.784C133.585 304.925 133.752 305.06 133.979 305.188C134.207 305.315 134.645 305.5 135.292 305.741C136.181 306.065 136.78 306.391 137.09 306.719C137.404 307.047 137.562 307.459 137.562 307.956Z" class="path-8"/>
<defs>
<filter id="filter0_d_21428_72880" x="0.682432" y="0.227477" width="344.635" height="402.635" filterUnits="userSpaceOnUse" color-interpolation-filters="sRGB">
<feFlood flood-opacity="0" result="BackgroundImageFix"/>
<feColorMatrix in="SourceAlpha" type="matrix" values="0 0 0 0 0 0 0 0 0 0 0 0 0 0 0 0 0 0 127 0" result="hardAlpha"/>
<feOffset dy="1.54505"/>
<feGaussianBlur stdDeviation="1.15878"/>
<feColorMatrix type="matrix" values="0 0 0 0 0 0 0 0 0 0 0 0 0 0 0 0 0 0 0.06 0"/>
<feBlend mode="normal" in2="BackgroundImageFix" result="effect1_dropShadow_21428_72880"/>
<feBlend mode="normal" in="SourceGraphic" in2="effect1_dropShadow_21428_72880" result="shape"/>
</filter>
</defs>
</svg>
