<svg width="346" height="403" viewBox="0 0 346 403" fill="none" xmlns="http://www.w3.org/2000/svg">
<g filter="url(#filter0_d_21428_72890)">
<rect x="3" y="1" width="340" height="398" rx="2.31757" class="rect-1"/>
<rect x="3.38626" y="1.38626" width="339.227" height="397.227" rx="1.93131" stroke-width="0.772523" class="rect-2"/>
</g>
<path d="M63.5234 122.348C63.5234 123.871 62.9727 125.066 61.8711 125.934C60.7695 126.801 59.25 127.234 57.3125 127.234C55.375 127.234 53.7891 126.934 52.5547 126.332V123.684C53.3359 124.051 54.1641 124.34 55.0391 124.551C55.9219 124.762 56.7422 124.867 57.5 124.867C58.6094 124.867 59.4258 124.656 59.9492 124.234C60.4805 123.812 60.7461 123.246 60.7461 122.535C60.7461 121.895 60.5039 121.352 60.0195 120.906C59.5352 120.461 58.5352 119.934 57.0195 119.324C55.457 118.691 54.3555 117.969 53.7148 117.156C53.0742 116.344 52.7539 115.367 52.7539 114.227C52.7539 112.797 53.2617 111.672 54.2773 110.852C55.293 110.031 56.6562 109.621 58.3672 109.621C60.0078 109.621 61.6406 109.98 63.2656 110.699L62.375 112.984C60.8516 112.344 59.4922 112.023 58.2969 112.023C57.3906 112.023 56.7031 112.223 56.2344 112.621C55.7656 113.012 55.5312 113.531 55.5312 114.18C55.5312 114.625 55.625 115.008 55.8125 115.328C56 115.641 56.3086 115.938 56.7383 116.219C57.168 116.5 57.9414 116.871 59.0586 117.332C60.3164 117.855 61.2383 118.344 61.8242 118.797C62.4102 119.25 62.8398 119.762 63.1133 120.332C63.3867 120.902 63.5234 121.574 63.5234 122.348ZM75.6875 127L75.3008 125.301H75.1602C74.7773 125.902 74.2305 126.375 73.5195 126.719C72.8164 127.062 72.0117 127.234 71.1055 127.234C69.5352 127.234 68.3633 126.844 67.5898 126.062C66.8164 125.281 66.4297 124.098 66.4297 122.512V114.039H69.207V122.031C69.207 123.023 69.4102 123.77 69.8164 124.27C70.2227 124.762 70.8594 125.008 71.7266 125.008C72.8828 125.008 73.7305 124.664 74.2695 123.977C74.8164 123.281 75.0898 122.121 75.0898 120.496V114.039H77.8555V127H75.6875ZM88.4023 113.805C90.0195 113.805 91.2773 114.391 92.1758 115.562C93.082 116.734 93.5352 118.379 93.5352 120.496C93.5352 122.621 93.0781 124.277 92.1641 125.465C91.25 126.645 89.9805 127.234 88.3555 127.234C86.7148 127.234 85.4414 126.645 84.5352 125.465H84.3477L83.8438 127H81.7812V108.766H84.5352V113.102C84.5352 113.422 84.5195 113.898 84.4883 114.531C84.457 115.164 84.4336 115.566 84.418 115.738H84.5352C85.4102 114.449 86.6992 113.805 88.4023 113.805ZM87.6875 116.055C86.5781 116.055 85.7773 116.383 85.2852 117.039C84.8008 117.688 84.5508 118.777 84.5352 120.309V120.496C84.5352 122.074 84.7852 123.219 85.2852 123.93C85.7852 124.633 86.6016 124.984 87.7344 124.984C88.7109 124.984 89.4492 124.598 89.9492 123.824C90.457 123.051 90.7109 121.934 90.7109 120.473C90.7109 117.527 89.7031 116.055 87.6875 116.055ZM107.656 127H104.891V119.008C104.891 118.016 104.703 117.277 104.328 116.793C103.953 116.301 103.367 116.055 102.57 116.055C101.508 116.055 100.727 116.402 100.227 117.098C99.7344 117.785 99.4883 118.934 99.4883 120.543V127H96.7344V114.039H98.8906L99.2773 115.738H99.418C99.7773 115.121 100.297 114.645 100.977 114.309C101.664 113.973 102.418 113.805 103.238 113.805C105.23 113.805 106.551 114.484 107.199 115.844H107.387C107.77 115.203 108.309 114.703 109.004 114.344C109.699 113.984 110.496 113.805 111.395 113.805C112.941 113.805 114.066 114.195 114.77 114.977C115.48 115.758 115.836 116.949 115.836 118.551V127H113.082V119.008C113.082 118.016 112.891 117.277 112.508 116.793C112.133 116.301 111.547 116.055 110.75 116.055C109.68 116.055 108.895 116.391 108.395 117.062C107.902 117.727 107.656 118.75 107.656 120.133V127ZM122.434 127H119.68V114.039H122.434V127ZM119.516 110.605C119.516 110.113 119.648 109.734 119.914 109.469C120.188 109.203 120.574 109.07 121.074 109.07C121.559 109.07 121.934 109.203 122.199 109.469C122.473 109.734 122.609 110.113 122.609 110.605C122.609 111.074 122.473 111.445 122.199 111.719C121.934 111.984 121.559 112.117 121.074 112.117C120.574 112.117 120.188 111.984 119.914 111.719C119.648 111.445 119.516 111.074 119.516 110.605ZM131.211 125.008C131.883 125.008 132.555 124.902 133.227 124.691V126.766C132.922 126.898 132.527 127.008 132.043 127.094C131.566 127.188 131.07 127.234 130.555 127.234C127.945 127.234 126.641 125.859 126.641 123.109V116.125H124.871V114.906L126.77 113.898L127.707 111.156H129.406V114.039H133.098V116.125H129.406V123.062C129.406 123.727 129.57 124.219 129.898 124.539C130.234 124.852 130.672 125.008 131.211 125.008ZM146.891 125.008C147.562 125.008 148.234 124.902 148.906 124.691V126.766C148.602 126.898 148.207 127.008 147.723 127.094C147.246 127.188 146.75 127.234 146.234 127.234C143.625 127.234 142.32 125.859 142.32 123.109V116.125H140.551V114.906L142.449 113.898L143.387 111.156H145.086V114.039H148.777V116.125H145.086V123.062C145.086 123.727 145.25 124.219 145.578 124.539C145.914 124.852 146.352 125.008 146.891 125.008ZM162.91 127H160.145V119.031C160.145 118.031 159.941 117.285 159.535 116.793C159.137 116.301 158.5 116.055 157.625 116.055C156.469 116.055 155.617 116.402 155.07 117.098C154.531 117.785 154.262 118.941 154.262 120.566V127H151.508V108.766H154.262V113.395C154.262 114.137 154.215 114.93 154.121 115.773H154.297C154.672 115.148 155.191 114.664 155.855 114.32C156.527 113.977 157.309 113.805 158.199 113.805C161.34 113.805 162.91 115.387 162.91 118.551V127ZM172.402 127.234C170.387 127.234 168.809 126.648 167.668 125.477C166.535 124.297 165.969 122.676 165.969 120.613C165.969 118.496 166.496 116.832 167.551 115.621C168.605 114.41 170.055 113.805 171.898 113.805C173.609 113.805 174.961 114.324 175.953 115.363C176.945 116.402 177.441 117.832 177.441 119.652V121.141H168.805C168.844 122.398 169.184 123.367 169.824 124.047C170.465 124.719 171.367 125.055 172.531 125.055C173.297 125.055 174.008 124.984 174.664 124.844C175.328 124.695 176.039 124.453 176.797 124.117V126.355C176.125 126.676 175.445 126.902 174.758 127.035C174.07 127.168 173.285 127.234 172.402 127.234ZM171.898 115.891C171.023 115.891 170.32 116.168 169.789 116.723C169.266 117.277 168.953 118.086 168.852 119.148H174.734C174.719 118.078 174.461 117.27 173.961 116.723C173.461 116.168 172.773 115.891 171.898 115.891ZM198.441 115.047C198.441 116.836 197.855 118.207 196.684 119.16C195.512 120.113 193.844 120.59 191.68 120.59H189.898V127H187.098V109.867H192.031C194.172 109.867 195.773 110.305 196.836 111.18C197.906 112.055 198.441 113.344 198.441 115.047ZM189.898 118.234H191.387C192.824 118.234 193.879 117.984 194.551 117.484C195.223 116.984 195.559 116.203 195.559 115.141C195.559 114.156 195.258 113.422 194.656 112.938C194.055 112.453 193.117 112.211 191.844 112.211H189.898V118.234ZM213.066 120.496C213.066 122.613 212.523 124.266 211.438 125.453C210.352 126.641 208.84 127.234 206.902 127.234C205.691 127.234 204.621 126.961 203.691 126.414C202.762 125.867 202.047 125.082 201.547 124.059C201.047 123.035 200.797 121.848 200.797 120.496C200.797 118.395 201.336 116.754 202.414 115.574C203.492 114.395 205.012 113.805 206.973 113.805C208.848 113.805 210.332 114.41 211.426 115.621C212.52 116.824 213.066 118.449 213.066 120.496ZM203.633 120.496C203.633 123.488 204.738 124.984 206.949 124.984C209.137 124.984 210.23 123.488 210.23 120.496C210.23 117.535 209.129 116.055 206.926 116.055C205.77 116.055 204.93 116.438 204.406 117.203C203.891 117.969 203.633 119.066 203.633 120.496ZM218.996 127H216.242V108.766H218.996V127ZM225.699 127H222.945V114.039H225.699V127ZM222.781 110.605C222.781 110.113 222.914 109.734 223.18 109.469C223.453 109.203 223.84 109.07 224.34 109.07C224.824 109.07 225.199 109.203 225.465 109.469C225.738 109.734 225.875 110.113 225.875 110.605C225.875 111.074 225.738 111.445 225.465 111.719C225.199 111.984 224.824 112.117 224.34 112.117C223.84 112.117 223.453 111.984 223.18 111.719C222.914 111.445 222.781 111.074 222.781 110.605ZM234.875 127.234C232.914 127.234 231.422 126.664 230.398 125.523C229.383 124.375 228.875 122.73 228.875 120.59C228.875 118.41 229.406 116.734 230.469 115.562C231.539 114.391 233.082 113.805 235.098 113.805C236.465 113.805 237.695 114.059 238.789 114.566L237.957 116.781C236.793 116.328 235.832 116.102 235.074 116.102C232.832 116.102 231.711 117.59 231.711 120.566C231.711 122.02 231.988 123.113 232.543 123.848C233.105 124.574 233.926 124.938 235.004 124.938C236.23 124.938 237.391 124.633 238.484 124.023V126.426C237.992 126.715 237.465 126.922 236.902 127.047C236.348 127.172 235.672 127.234 234.875 127.234ZM239.562 114.039H242.562L245.199 121.387C245.598 122.434 245.863 123.418 245.996 124.34H246.09C246.16 123.91 246.289 123.391 246.477 122.781C246.664 122.164 247.656 119.25 249.453 114.039H252.43L246.887 128.723C245.879 131.418 244.199 132.766 241.848 132.766C241.238 132.766 240.645 132.699 240.066 132.566V130.387C240.48 130.48 240.953 130.527 241.484 130.527C242.812 130.527 243.746 129.758 244.285 128.219L244.766 127L239.562 114.039ZM267.137 116.125H263.973V127H261.207V116.125H259.074V114.836L261.207 113.992V113.148C261.207 111.617 261.566 110.484 262.285 109.75C263.004 109.008 264.102 108.637 265.578 108.637C266.547 108.637 267.5 108.797 268.438 109.117L267.711 111.203C267.031 110.984 266.383 110.875 265.766 110.875C265.141 110.875 264.684 111.07 264.395 111.461C264.113 111.844 263.973 112.422 263.973 113.195V114.039H267.137V116.125ZM272.094 127H269.34V114.039H272.094V127ZM269.176 110.605C269.176 110.113 269.309 109.734 269.574 109.469C269.848 109.203 270.234 109.07 270.734 109.07C271.219 109.07 271.594 109.203 271.859 109.469C272.133 109.734 272.27 110.113 272.27 110.605C272.27 111.074 272.133 111.445 271.859 111.719C271.594 111.984 271.219 112.117 270.734 112.117C270.234 112.117 269.848 111.984 269.574 111.719C269.309 111.445 269.176 111.074 269.176 110.605ZM278.809 127H276.055V108.766H278.809V127ZM288.418 127.234C286.402 127.234 284.824 126.648 283.684 125.477C282.551 124.297 281.984 122.676 281.984 120.613C281.984 118.496 282.512 116.832 283.566 115.621C284.621 114.41 286.07 113.805 287.914 113.805C289.625 113.805 290.977 114.324 291.969 115.363C292.961 116.402 293.457 117.832 293.457 119.652V121.141H284.82C284.859 122.398 285.199 123.367 285.84 124.047C286.48 124.719 287.383 125.055 288.547 125.055C289.312 125.055 290.023 124.984 290.68 124.844C291.344 124.695 292.055 124.453 292.812 124.117V126.355C292.141 126.676 291.461 126.902 290.773 127.035C290.086 127.168 289.301 127.234 288.418 127.234ZM287.914 115.891C287.039 115.891 286.336 116.168 285.805 116.723C285.281 117.277 284.969 118.086 284.867 119.148H290.75C290.734 118.078 290.477 117.27 289.977 116.723C289.477 116.168 288.789 115.891 287.914 115.891Z" class="path-1"/>
<rect x="36.5" y="164.5" width="273" height="63" rx="2.5" stroke-dasharray="6 6" class="rect-3"/>
<g clip-path="url(#clip0_21428_72890)">
<g clip-path="url(#clip1_21428_72890)">
<path fill-rule="evenodd" clip-rule="evenodd" d="M36 254C36 249.582 39.5821 246 44 246C48.4179 246 52 249.582 52 254C52 258.418 48.4179 262 44 262C39.5821 262 36 258.418 36 254ZM37.3571 254C37.3571 257.668 40.3321 260.643 44 260.643C47.6679 260.643 50.6429 257.668 50.6429 254C50.6429 250.332 47.6679 247.357 44 247.357C40.3321 247.357 37.3571 250.332 37.3571 254ZM43.3936 251.463C43.2329 251.302 43.1426 251.084 43.1426 250.857C43.1426 250.63 43.2329 250.412 43.3936 250.251C43.5544 250.09 43.7724 250 43.9997 250C44.227 250 44.4451 250.09 44.6058 250.251C44.7666 250.412 44.8569 250.63 44.8569 250.857C44.8569 251.084 44.7666 251.302 44.6058 251.463C44.4451 251.624 44.227 251.714 43.9997 251.714C43.7724 251.714 43.5544 251.624 43.3936 251.463ZM43.5711 252.857H44.4283C44.5069 252.857 44.5711 252.921 44.5711 253V257.857C44.5711 257.936 44.5069 258 44.4283 258H43.5711C43.4926 258 43.4283 257.936 43.4283 257.857V253C43.4283 252.921 43.4926 252.857 43.5711 252.857Z" class="path-2"/>
</g>
<path d="M63.917 254.003L66.583 249.006H67.8408L64.5049 255.124V259H63.3291V255.179L60 249.006H61.2715L63.917 254.003ZM75.5176 255.247C75.5176 256.468 75.21 257.423 74.5947 258.111C73.9795 258.795 73.1296 259.137 72.0449 259.137C71.375 259.137 70.7803 258.979 70.2607 258.665C69.7412 258.351 69.3402 257.899 69.0576 257.312C68.7751 256.724 68.6338 256.035 68.6338 255.247C68.6338 254.026 68.9391 253.076 69.5498 252.396C70.1605 251.713 71.0081 251.371 72.0928 251.371C73.141 251.371 73.9727 251.72 74.5879 252.417C75.2077 253.114 75.5176 254.058 75.5176 255.247ZM69.8096 255.247C69.8096 256.204 70.001 256.933 70.3838 257.435C70.7666 257.936 71.3294 258.187 72.0723 258.187C72.8151 258.187 73.3779 257.938 73.7607 257.441C74.1481 256.94 74.3418 256.209 74.3418 255.247C74.3418 254.295 74.1481 253.572 73.7607 253.08C73.3779 252.583 72.8105 252.335 72.0586 252.335C71.3158 252.335 70.7552 252.579 70.377 253.066C69.9987 253.554 69.8096 254.281 69.8096 255.247ZM78.5801 251.508V256.368C78.5801 256.979 78.7191 257.435 78.9971 257.735C79.2751 258.036 79.7103 258.187 80.3027 258.187C81.0866 258.187 81.6585 257.972 82.0186 257.544C82.3831 257.116 82.5654 256.416 82.5654 255.445V251.508H83.7002V259H82.7637L82.5996 257.995H82.5381C82.3057 258.364 81.9821 258.647 81.5674 258.843C81.1572 259.039 80.6878 259.137 80.1592 259.137C79.2477 259.137 78.5641 258.92 78.1084 258.487C77.6572 258.054 77.4316 257.362 77.4316 256.409V251.508H78.5801ZM92.7441 259.137C91.6595 259.137 90.8187 258.804 90.2217 258.139C89.6292 257.469 89.333 256.523 89.333 255.302C89.333 254.049 89.6338 253.08 90.2354 252.396C90.8415 251.713 91.7028 251.371 92.8193 251.371C93.1794 251.371 93.5394 251.41 93.8994 251.487C94.2594 251.565 94.542 251.656 94.7471 251.761L94.3984 252.725C94.1478 252.624 93.8743 252.542 93.5781 252.479C93.2819 252.41 93.0199 252.376 92.792 252.376C91.2699 252.376 90.5088 253.347 90.5088 255.288C90.5088 256.209 90.6934 256.915 91.0625 257.407C91.4362 257.899 91.9876 258.146 92.7168 258.146C93.3411 258.146 93.9814 258.011 94.6377 257.742V258.747C94.1364 259.007 93.5052 259.137 92.7441 259.137ZM101.029 259L100.804 257.934H100.749C100.375 258.403 100.002 258.722 99.6279 258.891C99.2588 259.055 98.7962 259.137 98.2402 259.137C97.4974 259.137 96.9141 258.945 96.4902 258.562C96.071 258.18 95.8613 257.635 95.8613 256.929C95.8613 255.416 97.0713 254.623 99.4912 254.55L100.763 254.509V254.044C100.763 253.456 100.635 253.023 100.38 252.745C100.129 252.463 99.7259 252.321 99.1699 252.321C98.5456 252.321 97.8392 252.513 97.0508 252.896L96.7021 252.027C97.0713 251.827 97.4746 251.67 97.9121 251.556C98.3542 251.442 98.7962 251.385 99.2383 251.385C100.132 251.385 100.792 251.583 101.221 251.979C101.654 252.376 101.87 253.012 101.87 253.887V259H101.029ZM98.4658 258.2C99.1722 258.2 99.7259 258.007 100.127 257.619C100.533 257.232 100.735 256.689 100.735 255.992V255.315L99.6006 255.363C98.6982 255.395 98.0465 255.536 97.6455 255.787C97.249 256.033 97.0508 256.418 97.0508 256.942C97.0508 257.353 97.1738 257.665 97.4199 257.879C97.6706 258.093 98.0192 258.2 98.4658 258.2ZM109.342 259V254.153C109.342 253.543 109.203 253.087 108.925 252.786C108.647 252.485 108.212 252.335 107.619 252.335C106.835 252.335 106.261 252.547 105.896 252.971C105.532 253.395 105.35 254.094 105.35 255.069V259H104.215V251.508H105.138L105.322 252.533H105.377C105.609 252.164 105.935 251.879 106.354 251.679C106.774 251.474 107.241 251.371 107.756 251.371C108.658 251.371 109.337 251.59 109.793 252.027C110.249 252.46 110.477 253.155 110.477 254.112V259H109.342ZM121.059 259L120.833 257.934H120.778C120.405 258.403 120.031 258.722 119.657 258.891C119.288 259.055 118.826 259.137 118.27 259.137C117.527 259.137 116.943 258.945 116.52 258.562C116.1 258.18 115.891 257.635 115.891 256.929C115.891 255.416 117.101 254.623 119.521 254.55L120.792 254.509V254.044C120.792 253.456 120.664 253.023 120.409 252.745C120.159 252.463 119.755 252.321 119.199 252.321C118.575 252.321 117.868 252.513 117.08 252.896L116.731 252.027C117.101 251.827 117.504 251.67 117.941 251.556C118.383 251.442 118.826 251.385 119.268 251.385C120.161 251.385 120.822 251.583 121.25 251.979C121.683 252.376 121.899 253.012 121.899 253.887V259H121.059ZM118.495 258.2C119.201 258.2 119.755 258.007 120.156 257.619C120.562 257.232 120.765 256.689 120.765 255.992V255.315L119.63 255.363C118.728 255.395 118.076 255.536 117.675 255.787C117.278 256.033 117.08 256.418 117.08 256.942C117.08 257.353 117.203 257.665 117.449 257.879C117.7 258.093 118.049 258.2 118.495 258.2ZM126.664 258.2C126.865 258.2 127.058 258.187 127.245 258.159C127.432 258.127 127.58 258.095 127.689 258.063V258.932C127.566 258.991 127.384 259.039 127.143 259.075C126.906 259.116 126.691 259.137 126.5 259.137C125.051 259.137 124.326 258.373 124.326 256.847V252.39H123.253V251.843L124.326 251.371L124.805 249.771H125.461V251.508H127.635V252.39H125.461V256.799C125.461 257.25 125.568 257.596 125.782 257.838C125.996 258.079 126.29 258.2 126.664 258.2ZM131.613 258.2C131.814 258.2 132.007 258.187 132.194 258.159C132.381 258.127 132.529 258.095 132.639 258.063V258.932C132.516 258.991 132.333 259.039 132.092 259.075C131.855 259.116 131.641 259.137 131.449 259.137C130 259.137 129.275 258.373 129.275 256.847V252.39H128.202V251.843L129.275 251.371L129.754 249.771H130.41V251.508H132.584V252.39H130.41V256.799C130.41 257.25 130.517 257.596 130.731 257.838C130.946 258.079 131.24 258.2 131.613 258.2ZM138.75 259L138.524 257.934H138.47C138.096 258.403 137.722 258.722 137.349 258.891C136.979 259.055 136.517 259.137 135.961 259.137C135.218 259.137 134.635 258.945 134.211 258.562C133.792 258.18 133.582 257.635 133.582 256.929C133.582 255.416 134.792 254.623 137.212 254.55L138.483 254.509V254.044C138.483 253.456 138.356 253.023 138.101 252.745C137.85 252.463 137.447 252.321 136.891 252.321C136.266 252.321 135.56 252.513 134.771 252.896L134.423 252.027C134.792 251.827 135.195 251.67 135.633 251.556C136.075 251.442 136.517 251.385 136.959 251.385C137.852 251.385 138.513 251.583 138.941 251.979C139.374 252.376 139.591 253.012 139.591 253.887V259H138.75ZM136.187 258.2C136.893 258.2 137.447 258.007 137.848 257.619C138.253 257.232 138.456 256.689 138.456 255.992V255.315L137.321 255.363C136.419 255.395 135.767 255.536 135.366 255.787C134.97 256.033 134.771 256.418 134.771 256.942C134.771 257.353 134.895 257.665 135.141 257.879C135.391 258.093 135.74 258.2 136.187 258.2ZM144.93 259.137C143.845 259.137 143.004 258.804 142.407 258.139C141.815 257.469 141.519 256.523 141.519 255.302C141.519 254.049 141.819 253.08 142.421 252.396C143.027 251.713 143.888 251.371 145.005 251.371C145.365 251.371 145.725 251.41 146.085 251.487C146.445 251.565 146.728 251.656 146.933 251.761L146.584 252.725C146.333 252.624 146.06 252.542 145.764 252.479C145.467 252.41 145.205 252.376 144.978 252.376C143.455 252.376 142.694 253.347 142.694 255.288C142.694 256.209 142.879 256.915 143.248 257.407C143.622 257.899 144.173 258.146 144.902 258.146C145.527 258.146 146.167 258.011 146.823 257.742V258.747C146.322 259.007 145.691 259.137 144.93 259.137ZM153.734 259V254.153C153.734 253.543 153.595 253.087 153.317 252.786C153.039 252.485 152.604 252.335 152.012 252.335C151.223 252.335 150.647 252.549 150.282 252.978C149.922 253.406 149.742 254.108 149.742 255.083V259H148.607V248.363H149.742V251.583C149.742 251.97 149.724 252.292 149.688 252.547H149.756C149.979 252.187 150.296 251.904 150.706 251.699C151.121 251.49 151.592 251.385 152.121 251.385C153.037 251.385 153.723 251.604 154.179 252.041C154.639 252.474 154.869 253.164 154.869 254.112V259H153.734ZM165.451 259L165.226 257.934H165.171C164.797 258.403 164.424 258.722 164.05 258.891C163.681 259.055 163.218 259.137 162.662 259.137C161.919 259.137 161.336 258.945 160.912 258.562C160.493 258.18 160.283 257.635 160.283 256.929C160.283 255.416 161.493 254.623 163.913 254.55L165.185 254.509V254.044C165.185 253.456 165.057 253.023 164.802 252.745C164.551 252.463 164.148 252.321 163.592 252.321C162.967 252.321 162.261 252.513 161.473 252.896L161.124 252.027C161.493 251.827 161.896 251.67 162.334 251.556C162.776 251.442 163.218 251.385 163.66 251.385C164.553 251.385 165.214 251.583 165.643 251.979C166.076 252.376 166.292 253.012 166.292 253.887V259H165.451ZM162.888 258.2C163.594 258.2 164.148 258.007 164.549 257.619C164.954 257.232 165.157 256.689 165.157 255.992V255.315L164.022 255.363C163.12 255.395 162.468 255.536 162.067 255.787C161.671 256.033 161.473 256.418 161.473 256.942C161.473 257.353 161.596 257.665 161.842 257.879C162.092 258.093 162.441 258.2 162.888 258.2ZM173.736 257.995H173.675C173.151 258.756 172.367 259.137 171.323 259.137C170.343 259.137 169.58 258.802 169.033 258.132C168.491 257.462 168.22 256.509 168.22 255.274C168.22 254.039 168.493 253.08 169.04 252.396C169.587 251.713 170.348 251.371 171.323 251.371C172.34 251.371 173.119 251.74 173.661 252.479H173.75L173.702 251.938L173.675 251.412V248.363H174.81V259H173.887L173.736 257.995ZM171.467 258.187C172.242 258.187 172.802 257.977 173.148 257.558C173.499 257.134 173.675 256.452 173.675 255.514V255.274C173.675 254.213 173.497 253.456 173.142 253.005C172.791 252.549 172.228 252.321 171.453 252.321C170.788 252.321 170.277 252.581 169.922 253.101C169.571 253.616 169.396 254.345 169.396 255.288C169.396 256.245 169.571 256.967 169.922 257.455C170.273 257.943 170.788 258.187 171.467 258.187ZM182.322 257.995H182.261C181.737 258.756 180.953 259.137 179.909 259.137C178.929 259.137 178.166 258.802 177.619 258.132C177.077 257.462 176.806 256.509 176.806 255.274C176.806 254.039 177.079 253.08 177.626 252.396C178.173 251.713 178.934 251.371 179.909 251.371C180.925 251.371 181.705 251.74 182.247 252.479H182.336L182.288 251.938L182.261 251.412V248.363H183.396V259H182.473L182.322 257.995ZM180.053 258.187C180.827 258.187 181.388 257.977 181.734 257.558C182.085 257.134 182.261 256.452 182.261 255.514V255.274C182.261 254.213 182.083 253.456 181.728 253.005C181.377 252.549 180.814 252.321 180.039 252.321C179.374 252.321 178.863 252.581 178.508 253.101C178.157 253.616 177.981 254.345 177.981 255.288C177.981 256.245 178.157 256.967 178.508 257.455C178.859 257.943 179.374 258.187 180.053 258.187ZM186.943 259H185.809V251.508H186.943V259ZM185.713 249.478C185.713 249.218 185.777 249.029 185.904 248.91C186.032 248.787 186.191 248.726 186.383 248.726C186.565 248.726 186.722 248.787 186.854 248.91C186.987 249.033 187.053 249.222 187.053 249.478C187.053 249.733 186.987 249.924 186.854 250.052C186.722 250.175 186.565 250.236 186.383 250.236C186.191 250.236 186.032 250.175 185.904 250.052C185.777 249.924 185.713 249.733 185.713 249.478ZM191.77 258.2C191.97 258.2 192.164 258.187 192.351 258.159C192.537 258.127 192.686 258.095 192.795 258.063V258.932C192.672 258.991 192.49 259.039 192.248 259.075C192.011 259.116 191.797 259.137 191.605 259.137C190.156 259.137 189.432 258.373 189.432 256.847V252.39H188.358V251.843L189.432 251.371L189.91 249.771H190.566V251.508H192.74V252.39H190.566V256.799C190.566 257.25 190.674 257.596 190.888 257.838C191.102 258.079 191.396 258.2 191.77 258.2ZM195.434 259H194.299V251.508H195.434V259ZM194.203 249.478C194.203 249.218 194.267 249.029 194.395 248.91C194.522 248.787 194.682 248.726 194.873 248.726C195.055 248.726 195.213 248.787 195.345 248.91C195.477 249.033 195.543 249.222 195.543 249.478C195.543 249.733 195.477 249.924 195.345 250.052C195.213 250.175 195.055 250.236 194.873 250.236C194.682 250.236 194.522 250.175 194.395 250.052C194.267 249.924 194.203 249.733 194.203 249.478ZM204.307 255.247C204.307 256.468 203.999 257.423 203.384 258.111C202.769 258.795 201.919 259.137 200.834 259.137C200.164 259.137 199.569 258.979 199.05 258.665C198.53 258.351 198.129 257.899 197.847 257.312C197.564 256.724 197.423 256.035 197.423 255.247C197.423 254.026 197.728 253.076 198.339 252.396C198.95 251.713 199.797 251.371 200.882 251.371C201.93 251.371 202.762 251.72 203.377 252.417C203.997 253.114 204.307 254.058 204.307 255.247ZM198.599 255.247C198.599 256.204 198.79 256.933 199.173 257.435C199.556 257.936 200.118 258.187 200.861 258.187C201.604 258.187 202.167 257.938 202.55 257.441C202.937 256.94 203.131 256.209 203.131 255.247C203.131 254.295 202.937 253.572 202.55 253.08C202.167 252.583 201.6 252.335 200.848 252.335C200.105 252.335 199.544 252.579 199.166 253.066C198.788 253.554 198.599 254.281 198.599 255.247ZM211.43 259V254.153C211.43 253.543 211.291 253.087 211.013 252.786C210.735 252.485 210.299 252.335 209.707 252.335C208.923 252.335 208.349 252.547 207.984 252.971C207.62 253.395 207.438 254.094 207.438 255.069V259H206.303V251.508H207.226L207.41 252.533H207.465C207.697 252.164 208.023 251.879 208.442 251.679C208.862 251.474 209.329 251.371 209.844 251.371C210.746 251.371 211.425 251.59 211.881 252.027C212.337 252.46 212.564 253.155 212.564 254.112V259H211.43ZM219.51 259L219.284 257.934H219.229C218.856 258.403 218.482 258.722 218.108 258.891C217.739 259.055 217.277 259.137 216.721 259.137C215.978 259.137 215.395 258.945 214.971 258.562C214.551 258.18 214.342 257.635 214.342 256.929C214.342 255.416 215.552 254.623 217.972 254.55L219.243 254.509V254.044C219.243 253.456 219.116 253.023 218.86 252.745C218.61 252.463 218.206 252.321 217.65 252.321C217.026 252.321 216.32 252.513 215.531 252.896L215.183 252.027C215.552 251.827 215.955 251.67 216.393 251.556C216.835 251.442 217.277 251.385 217.719 251.385C218.612 251.385 219.273 251.583 219.701 251.979C220.134 252.376 220.351 253.012 220.351 253.887V259H219.51ZM216.946 258.2C217.653 258.2 218.206 258.007 218.607 257.619C219.013 257.232 219.216 256.689 219.216 255.992V255.315L218.081 255.363C217.179 255.395 216.527 255.536 216.126 255.787C215.729 256.033 215.531 256.418 215.531 256.942C215.531 257.353 215.654 257.665 215.9 257.879C216.151 258.093 216.5 258.2 216.946 258.2ZM223.83 259H222.695V248.363H223.83V259ZM231.008 259H229.873V251.508H231.008V259ZM229.777 249.478C229.777 249.218 229.841 249.029 229.969 248.91C230.096 248.787 230.256 248.726 230.447 248.726C230.63 248.726 230.787 248.787 230.919 248.91C231.051 249.033 231.117 249.222 231.117 249.478C231.117 249.733 231.051 249.924 230.919 250.052C230.787 250.175 230.63 250.236 230.447 250.236C230.256 250.236 230.096 250.175 229.969 250.052C229.841 249.924 229.777 249.733 229.777 249.478ZM238.541 259V254.153C238.541 253.543 238.402 253.087 238.124 252.786C237.846 252.485 237.411 252.335 236.818 252.335C236.035 252.335 235.46 252.547 235.096 252.971C234.731 253.395 234.549 254.094 234.549 255.069V259H233.414V251.508H234.337L234.521 252.533H234.576C234.809 252.164 235.134 251.879 235.554 251.679C235.973 251.474 236.44 251.371 236.955 251.371C237.857 251.371 238.536 251.59 238.992 252.027C239.448 252.46 239.676 253.155 239.676 254.112V259H238.541ZM245.391 252.39H243.483V259H242.349V252.39H241.009V251.877L242.349 251.467V251.05C242.349 249.209 243.153 248.288 244.762 248.288C245.158 248.288 245.623 248.368 246.156 248.527L245.862 249.437C245.425 249.295 245.051 249.225 244.741 249.225C244.313 249.225 243.996 249.368 243.791 249.655C243.586 249.938 243.483 250.394 243.483 251.022V251.508H245.391V252.39ZM253.225 255.247C253.225 256.468 252.917 257.423 252.302 258.111C251.687 258.795 250.837 259.137 249.752 259.137C249.082 259.137 248.487 258.979 247.968 258.665C247.448 258.351 247.047 257.899 246.765 257.312C246.482 256.724 246.341 256.035 246.341 255.247C246.341 254.026 246.646 253.076 247.257 252.396C247.868 251.713 248.715 251.371 249.8 251.371C250.848 251.371 251.68 251.72 252.295 252.417C252.915 253.114 253.225 254.058 253.225 255.247ZM247.517 255.247C247.517 256.204 247.708 256.933 248.091 257.435C248.474 257.936 249.036 258.187 249.779 258.187C250.522 258.187 251.085 257.938 251.468 257.441C251.855 256.94 252.049 256.209 252.049 255.247C252.049 254.295 251.855 253.572 251.468 253.08C251.085 252.583 250.518 252.335 249.766 252.335C249.023 252.335 248.462 252.579 248.084 253.066C247.706 253.554 247.517 254.281 247.517 255.247ZM258.639 251.371C258.971 251.371 259.27 251.398 259.534 251.453L259.377 252.506C259.067 252.438 258.794 252.403 258.557 252.403C257.951 252.403 257.431 252.649 256.998 253.142C256.57 253.634 256.355 254.247 256.355 254.98V259H255.221V251.508H256.157L256.287 252.896H256.342C256.62 252.408 256.955 252.032 257.347 251.768C257.739 251.503 258.169 251.371 258.639 251.371ZM270.485 259V254.126C270.485 253.529 270.358 253.082 270.103 252.786C269.847 252.485 269.451 252.335 268.913 252.335C268.207 252.335 267.685 252.538 267.348 252.943C267.01 253.349 266.842 253.973 266.842 254.816V259H265.707V254.126C265.707 253.529 265.579 253.082 265.324 252.786C265.069 252.485 264.67 252.335 264.128 252.335C263.417 252.335 262.895 252.549 262.562 252.978C262.234 253.401 262.07 254.099 262.07 255.069V259H260.936V251.508H261.858L262.043 252.533H262.098C262.312 252.169 262.613 251.884 263 251.679C263.392 251.474 263.829 251.371 264.312 251.371C265.484 251.371 266.249 251.795 266.609 252.643H266.664C266.887 252.251 267.211 251.941 267.635 251.713C268.059 251.485 268.542 251.371 269.084 251.371C269.932 251.371 270.565 251.59 270.984 252.027C271.408 252.46 271.62 253.155 271.62 254.112V259H270.485ZM278.572 259L278.347 257.934H278.292C277.918 258.403 277.545 258.722 277.171 258.891C276.802 259.055 276.339 259.137 275.783 259.137C275.04 259.137 274.457 258.945 274.033 258.562C273.614 258.18 273.404 257.635 273.404 256.929C273.404 255.416 274.614 254.623 277.034 254.55L278.306 254.509V254.044C278.306 253.456 278.178 253.023 277.923 252.745C277.672 252.463 277.269 252.321 276.713 252.321C276.089 252.321 275.382 252.513 274.594 252.896L274.245 252.027C274.614 251.827 275.018 251.67 275.455 251.556C275.897 251.442 276.339 251.385 276.781 251.385C277.674 251.385 278.335 251.583 278.764 251.979C279.197 252.376 279.413 253.012 279.413 253.887V259H278.572ZM276.009 258.2C276.715 258.2 277.269 258.007 277.67 257.619C278.076 257.232 278.278 256.689 278.278 255.992V255.315L277.144 255.363C276.241 255.395 275.59 255.536 275.188 255.787C274.792 256.033 274.594 256.418 274.594 256.942C274.594 257.353 274.717 257.665 274.963 257.879C275.214 258.093 275.562 258.2 276.009 258.2ZM284.178 258.2C284.378 258.2 284.572 258.187 284.759 258.159C284.946 258.127 285.094 258.095 285.203 258.063V258.932C285.08 258.991 284.898 259.039 284.656 259.075C284.419 259.116 284.205 259.137 284.014 259.137C282.564 259.137 281.84 258.373 281.84 256.847V252.39H280.767V251.843L281.84 251.371L282.318 249.771H282.975V251.508H285.148V252.39H282.975V256.799C282.975 257.25 283.082 257.596 283.296 257.838C283.51 258.079 283.804 258.2 284.178 258.2ZM287.842 259H286.707V251.508H287.842V259ZM286.611 249.478C286.611 249.218 286.675 249.029 286.803 248.91C286.93 248.787 287.09 248.726 287.281 248.726C287.464 248.726 287.621 248.787 287.753 248.91C287.885 249.033 287.951 249.222 287.951 249.478C287.951 249.733 287.885 249.924 287.753 250.052C287.621 250.175 287.464 250.236 287.281 250.236C287.09 250.236 286.93 250.175 286.803 250.052C286.675 249.924 286.611 249.733 286.611 249.478ZM296.715 255.247C296.715 256.468 296.407 257.423 295.792 258.111C295.177 258.795 294.327 259.137 293.242 259.137C292.572 259.137 291.978 258.979 291.458 258.665C290.938 258.351 290.537 257.899 290.255 257.312C289.972 256.724 289.831 256.035 289.831 255.247C289.831 254.026 290.136 253.076 290.747 252.396C291.358 251.713 292.205 251.371 293.29 251.371C294.338 251.371 295.17 251.72 295.785 252.417C296.405 253.114 296.715 254.058 296.715 255.247ZM291.007 255.247C291.007 256.204 291.198 256.933 291.581 257.435C291.964 257.936 292.527 258.187 293.27 258.187C294.012 258.187 294.575 257.938 294.958 257.441C295.345 256.94 295.539 256.209 295.539 255.247C295.539 254.295 295.345 253.572 294.958 253.08C294.575 252.583 294.008 252.335 293.256 252.335C292.513 252.335 291.952 252.579 291.574 253.066C291.196 253.554 291.007 254.281 291.007 255.247ZM303.838 259V254.153C303.838 253.543 303.699 253.087 303.421 252.786C303.143 252.485 302.708 252.335 302.115 252.335C301.331 252.335 300.757 252.547 300.393 252.971C300.028 253.395 299.846 254.094 299.846 255.069V259H298.711V251.508H299.634L299.818 252.533H299.873C300.105 252.164 300.431 251.879 300.851 251.679C301.27 251.474 301.737 251.371 302.252 251.371C303.154 251.371 303.833 251.59 304.289 252.027C304.745 252.46 304.973 253.155 304.973 254.112V259H303.838ZM65.8105 278L65.585 276.934H65.5303C65.1566 277.403 64.7829 277.722 64.4092 277.891C64.04 278.055 63.5775 278.137 63.0215 278.137C62.2786 278.137 61.6953 277.945 61.2715 277.562C60.8522 277.18 60.6426 276.635 60.6426 275.929C60.6426 274.416 61.8525 273.623 64.2725 273.55L65.5439 273.509V273.044C65.5439 272.456 65.4163 272.023 65.1611 271.745C64.9105 271.463 64.5072 271.321 63.9512 271.321C63.3268 271.321 62.6204 271.513 61.832 271.896L61.4834 271.027C61.8525 270.827 62.2559 270.67 62.6934 270.556C63.1354 270.442 63.5775 270.385 64.0195 270.385C64.9128 270.385 65.5736 270.583 66.002 270.979C66.4349 271.376 66.6514 272.012 66.6514 272.887V278H65.8105ZM63.2471 277.2C63.9535 277.2 64.5072 277.007 64.9082 276.619C65.3138 276.232 65.5166 275.689 65.5166 274.992V274.315L64.3818 274.363C63.4795 274.395 62.8278 274.536 62.4268 274.787C62.0303 275.033 61.832 275.418 61.832 275.942C61.832 276.353 61.9551 276.665 62.2012 276.879C62.4518 277.093 62.8005 277.2 63.2471 277.2ZM73.8291 275.956C73.8291 276.653 73.5693 277.191 73.0498 277.569C72.5303 277.948 71.8011 278.137 70.8623 278.137C69.8688 278.137 69.0941 277.979 68.5381 277.665V276.612C68.8981 276.795 69.2832 276.938 69.6934 277.043C70.1081 277.148 70.5068 277.2 70.8896 277.2C71.4821 277.2 71.9378 277.107 72.2568 276.92C72.5758 276.729 72.7354 276.439 72.7354 276.052C72.7354 275.76 72.6077 275.512 72.3525 275.307C72.1019 275.097 71.6097 274.851 70.876 274.568C70.1787 274.309 69.682 274.083 69.3857 273.892C69.0941 273.696 68.8753 273.475 68.7295 273.229C68.5882 272.982 68.5176 272.688 68.5176 272.347C68.5176 271.736 68.766 271.255 69.2627 270.904C69.7594 270.549 70.4408 270.371 71.3066 270.371C72.1133 270.371 72.9017 270.535 73.6719 270.863L73.2686 271.786C72.5166 271.476 71.8353 271.321 71.2246 271.321C70.6868 271.321 70.2812 271.406 70.0078 271.574C69.7344 271.743 69.5977 271.975 69.5977 272.271C69.5977 272.472 69.6478 272.643 69.748 272.784C69.8529 272.925 70.0192 273.06 70.2471 273.188C70.4749 273.315 70.9124 273.5 71.5596 273.741C72.4482 274.065 73.0475 274.391 73.3574 274.719C73.6719 275.047 73.8291 275.459 73.8291 275.956ZM83.9258 278L83.7002 276.934H83.6455C83.2718 277.403 82.8981 277.722 82.5244 277.891C82.1553 278.055 81.6927 278.137 81.1367 278.137C80.3939 278.137 79.8105 277.945 79.3867 277.562C78.9674 277.18 78.7578 276.635 78.7578 275.929C78.7578 274.416 79.9678 273.623 82.3877 273.55L83.6592 273.509V273.044C83.6592 272.456 83.5316 272.023 83.2764 271.745C83.0257 271.463 82.6224 271.321 82.0664 271.321C81.4421 271.321 80.7357 271.513 79.9473 271.896L79.5986 271.027C79.9678 270.827 80.3711 270.67 80.8086 270.556C81.2507 270.442 81.6927 270.385 82.1348 270.385C83.028 270.385 83.6888 270.583 84.1172 270.979C84.5501 271.376 84.7666 272.012 84.7666 272.887V278H83.9258ZM81.3623 277.2C82.0687 277.2 82.6224 277.007 83.0234 276.619C83.429 276.232 83.6318 275.689 83.6318 274.992V274.315L82.4971 274.363C81.5947 274.395 80.943 274.536 80.542 274.787C80.1455 275.033 79.9473 275.418 79.9473 275.942C79.9473 276.353 80.0703 276.665 80.3164 276.879C80.5671 277.093 80.9157 277.2 81.3623 277.2ZM97.2559 270.918C97.2559 271.93 96.9095 272.709 96.2168 273.256C95.5286 273.798 94.542 274.069 93.2568 274.069H92.0811V278H90.9189V268.006H93.5098C96.0072 268.006 97.2559 268.977 97.2559 270.918ZM92.0811 273.071H93.127C94.1569 273.071 94.902 272.905 95.3623 272.572C95.8226 272.24 96.0527 271.706 96.0527 270.973C96.0527 270.312 95.8363 269.82 95.4033 269.496C94.9704 269.173 94.2959 269.011 93.3799 269.011H92.0811V273.071ZM107.332 272.907C107.332 274.557 106.883 275.819 105.985 276.694C105.092 277.565 103.805 278 102.123 278H99.3545V268.006H102.417C103.971 268.006 105.179 268.437 106.04 269.298C106.901 270.159 107.332 271.362 107.332 272.907ZM106.102 272.948C106.102 271.645 105.773 270.663 105.117 270.002C104.465 269.341 103.495 269.011 102.205 269.011H100.517V276.995H101.932C103.317 276.995 104.358 276.656 105.056 275.977C105.753 275.293 106.102 274.284 106.102 272.948ZM110.729 278H109.567V268.006H115.139V269.038H110.729V272.695H114.872V273.728H110.729V278ZM123.643 271.39H121.735V278H120.601V271.39H119.261V270.877L120.601 270.467V270.05C120.601 268.209 121.405 267.288 123.014 267.288C123.41 267.288 123.875 267.368 124.408 267.527L124.114 268.437C123.677 268.295 123.303 268.225 122.993 268.225C122.565 268.225 122.248 268.368 122.043 268.655C121.838 268.938 121.735 269.394 121.735 270.022V270.508H123.643V271.39ZM126.145 278H125.01V270.508H126.145V278ZM124.914 268.478C124.914 268.218 124.978 268.029 125.105 267.91C125.233 267.787 125.393 267.726 125.584 267.726C125.766 267.726 125.924 267.787 126.056 267.91C126.188 268.033 126.254 268.222 126.254 268.478C126.254 268.733 126.188 268.924 126.056 269.052C125.924 269.175 125.766 269.236 125.584 269.236C125.393 269.236 125.233 269.175 125.105 269.052C124.978 268.924 124.914 268.733 124.914 268.478ZM129.686 278H128.551V267.363H129.686V278ZM135.257 278.137C134.149 278.137 133.274 277.799 132.632 277.125C131.994 276.451 131.675 275.514 131.675 274.315C131.675 273.108 131.971 272.148 132.563 271.438C133.16 270.727 133.96 270.371 134.963 270.371C135.902 270.371 136.645 270.681 137.191 271.301C137.738 271.916 138.012 272.729 138.012 273.741V274.459H132.851C132.873 275.339 133.094 276.006 133.514 276.462C133.938 276.918 134.532 277.146 135.298 277.146C136.104 277.146 136.902 276.977 137.69 276.64V277.651C137.289 277.825 136.909 277.948 136.549 278.021C136.193 278.098 135.763 278.137 135.257 278.137ZM134.949 271.321C134.348 271.321 133.867 271.517 133.507 271.909C133.151 272.301 132.942 272.843 132.878 273.536H136.795C136.795 272.821 136.635 272.274 136.316 271.896C135.997 271.513 135.542 271.321 134.949 271.321ZM139.789 277.275C139.789 276.97 139.857 276.74 139.994 276.585C140.135 276.425 140.336 276.346 140.596 276.346C140.86 276.346 141.065 276.425 141.211 276.585C141.361 276.74 141.437 276.97 141.437 277.275C141.437 277.572 141.361 277.799 141.211 277.959C141.061 278.118 140.855 278.198 140.596 278.198C140.363 278.198 140.17 278.128 140.015 277.986C139.864 277.84 139.789 277.604 139.789 277.275Z" class="path-3"/>
</g>
<g clip-path="url(#clip2_21428_72890)">
<path d="M169.406 188.378H171.778V199.91C171.778 200.06 171.893 200.182 172.034 200.182H173.959C174.101 200.182 174.216 200.06 174.216 199.91V188.378H176.594C176.809 188.378 176.927 188.115 176.796 187.938L173.202 183.105C173.178 183.072 173.147 183.046 173.112 183.028C173.077 183.009 173.039 183 173 183C172.961 183 172.923 183.009 172.888 183.028C172.853 183.046 172.822 183.072 172.798 183.105L169.204 187.935C169.073 188.116 169.191 188.378 169.406 188.378ZM184.743 198.887H182.818C182.677 198.887 182.561 199.01 182.561 199.16V204.409H163.439V199.16C163.439 199.01 163.323 198.887 163.182 198.887H161.257C161.116 198.887 161 199.01 161 199.16V205.909C161 206.513 161.459 207 162.027 207H183.973C184.541 207 185 206.513 185 205.909V199.16C185 199.01 184.884 198.887 184.743 198.887Z" class="path-4"/>
</g>
<defs>
<filter id="filter0_d_21428_72890" x="0.682432" y="0.227477" width="344.635" height="402.635" filterUnits="userSpaceOnUse" color-interpolation-filters="sRGB">
<feFlood flood-opacity="0" result="BackgroundImageFix"/>
<feColorMatrix in="SourceAlpha" type="matrix" values="0 0 0 0 0 0 0 0 0 0 0 0 0 0 0 0 0 0 127 0" result="hardAlpha"/>
<feOffset dy="1.54505"/>
<feGaussianBlur stdDeviation="1.15878"/>
<feColorMatrix type="matrix" values="0 0 0 0 0 0 0 0 0 0 0 0 0 0 0 0 0 0 0.06 0"/>
<feBlend mode="normal" in2="BackgroundImageFix" result="effect1_dropShadow_21428_72890"/>
<feBlend mode="normal" in="SourceGraphic" in2="effect1_dropShadow_21428_72890" result="shape"/>
</filter>
<clipPath id="clip0_21428_72890">
<rect width="274" height="83" fill="white" transform="translate(36 246)"/>
</clipPath>
<clipPath id="clip1_21428_72890">
<rect width="16" height="16" fill="white" transform="translate(36 246)"/>
</clipPath>
<clipPath id="clip2_21428_72890">
<rect width="24" height="24" fill="white" transform="translate(161 183)"/>
</clipPath>
</defs>
</svg>
