<svg width="300" height="403" viewBox="0 0 300 403" fill="none" xmlns="http://www.w3.org/2000/svg">
<g filter="url(#filter0_d_21428_72850)">
<rect x="3" y="1" width="294" height="398" rx="2.31757" class="rect-1"/>
<rect x="3.38626" y="1.38626" width="293.227" height="397.227" rx="1.93131" stroke-width="0.772523" class="rect-2"/>
</g>
<circle cx="47" cy="50" r="11.5" class="circle-1"/>
<path d="M48.1426 54H46.7656V48.4688C46.7656 47.8086 46.7812 47.2852 46.8125 46.8984C46.7227 46.9922 46.6113 47.0957 46.4785 47.209C46.3496 47.3223 45.9121 47.6816 45.166 48.2871L44.4746 47.4141L46.9941 45.4336H48.1426V54Z" class="path-1"/>
<path d="M76.3193 43.0059H79.2861C80.6624 43.0059 81.6559 43.2064 82.2666 43.6074C82.8818 44.0085 83.1895 44.6419 83.1895 45.5078C83.1895 46.0911 83.0391 46.5765 82.7383 46.9639C82.4375 47.3512 82.0046 47.5951 81.4395 47.6953V47.7637C82.1413 47.8958 82.6562 48.1579 82.9844 48.5498C83.3171 48.9372 83.4834 49.4635 83.4834 50.1289C83.4834 51.0267 83.1689 51.7308 82.54 52.2412C81.9157 52.7471 81.0452 53 79.9287 53H76.3193V43.0059ZM77.9531 47.1348H79.5254C80.209 47.1348 80.708 47.0277 81.0225 46.8135C81.3369 46.5947 81.4941 46.2256 81.4941 45.7061C81.4941 45.2367 81.3232 44.8971 80.9814 44.6875C80.6442 44.4779 80.1064 44.373 79.3682 44.373H77.9531V47.1348ZM77.9531 48.4609V51.626H79.6895C80.373 51.626 80.888 51.4961 81.2344 51.2363C81.5853 50.972 81.7607 50.5573 81.7607 49.9922C81.7607 49.4727 81.583 49.0876 81.2275 48.8369C80.8721 48.5863 80.332 48.4609 79.6074 48.4609H77.9531ZM89.2256 45.3027C89.5492 45.3027 89.8158 45.3255 90.0254 45.3711L89.8682 46.8682C89.6403 46.8135 89.4033 46.7861 89.1572 46.7861C88.5146 46.7861 87.9928 46.9958 87.5918 47.415C87.1953 47.8343 86.9971 48.3789 86.9971 49.0488V53H85.3906V45.4395H86.6484L86.8604 46.7725H86.9424C87.193 46.3213 87.5189 45.9635 87.9199 45.6992C88.3255 45.4349 88.7607 45.3027 89.2256 45.3027ZM93.04 53H91.4336V45.4395H93.04V53ZM91.3379 43.4365C91.3379 43.1494 91.4154 42.9284 91.5703 42.7734C91.7298 42.6185 91.9554 42.541 92.2471 42.541C92.5296 42.541 92.7484 42.6185 92.9033 42.7734C93.0628 42.9284 93.1426 43.1494 93.1426 43.4365C93.1426 43.71 93.0628 43.9264 92.9033 44.0859C92.7484 44.2409 92.5296 44.3184 92.2471 44.3184C91.9554 44.3184 91.7298 44.2409 91.5703 44.0859C91.4154 43.9264 91.3379 43.71 91.3379 43.4365ZM98.6455 53.1367C97.4697 53.1367 96.5492 52.7949 95.8838 52.1113C95.223 51.4232 94.8926 50.4775 94.8926 49.2744C94.8926 48.0394 95.2002 47.0687 95.8154 46.3623C96.4307 45.6559 97.276 45.3027 98.3516 45.3027C99.3496 45.3027 100.138 45.6058 100.717 46.2119C101.296 46.818 101.585 47.652 101.585 48.7139V49.582H96.5469C96.5697 50.3158 96.7679 50.8809 97.1416 51.2773C97.5153 51.6693 98.0417 51.8652 98.7207 51.8652C99.1673 51.8652 99.582 51.8242 99.9648 51.7422C100.352 51.6556 100.767 51.5143 101.209 51.3184V52.624C100.817 52.8109 100.421 52.943 100.02 53.0205C99.6185 53.098 99.1605 53.1367 98.6455 53.1367ZM98.3516 46.5195C97.8411 46.5195 97.431 46.6813 97.1211 47.0049C96.8158 47.3285 96.6335 47.8001 96.5742 48.4199H100.006C99.9967 47.7956 99.8464 47.3239 99.5547 47.0049C99.263 46.6813 98.862 46.5195 98.3516 46.5195ZM107.204 46.6562H105.358V53H103.745V46.6562H102.501V45.9043L103.745 45.4121V44.9199C103.745 44.0267 103.955 43.3659 104.374 42.9375C104.793 42.5046 105.434 42.2881 106.295 42.2881C106.86 42.2881 107.416 42.3815 107.963 42.5684L107.539 43.7852C107.143 43.6576 106.764 43.5938 106.404 43.5938C106.04 43.5938 105.773 43.7077 105.604 43.9355C105.44 44.1589 105.358 44.4961 105.358 44.9473V45.4395H107.204V46.6562ZM110.096 53H108.489V45.4395H110.096V53ZM108.394 43.4365C108.394 43.1494 108.471 42.9284 108.626 42.7734C108.785 42.6185 109.011 42.541 109.303 42.541C109.585 42.541 109.804 42.6185 109.959 42.7734C110.118 42.9284 110.198 43.1494 110.198 43.4365C110.198 43.71 110.118 43.9264 109.959 44.0859C109.804 44.2409 109.585 44.3184 109.303 44.3184C109.011 44.3184 108.785 44.2409 108.626 44.0859C108.471 43.9264 108.394 43.71 108.394 43.4365ZM119.058 53H117.444V48.3516C117.444 47.7682 117.326 47.333 117.089 47.0459C116.856 46.7588 116.485 46.6152 115.975 46.6152C115.296 46.6152 114.799 46.8158 114.484 47.2168C114.17 47.6178 114.013 48.29 114.013 49.2334V53H112.406V45.4395H113.664L113.89 46.4307H113.972C114.2 46.0706 114.523 45.7926 114.942 45.5967C115.362 45.4007 115.826 45.3027 116.337 45.3027C118.151 45.3027 119.058 46.2256 119.058 48.0713V53ZM127.678 45.4395V46.3213L126.386 46.5605C126.504 46.7201 126.602 46.916 126.68 47.1484C126.757 47.3809 126.796 47.627 126.796 47.8867C126.796 48.666 126.527 49.279 125.989 49.7256C125.451 50.1722 124.711 50.3955 123.768 50.3955C123.526 50.3955 123.307 50.3773 123.111 50.3408C122.765 50.555 122.592 50.8057 122.592 51.0928C122.592 51.266 122.672 51.3958 122.831 51.4824C122.995 51.569 123.294 51.6123 123.727 51.6123H125.046C125.88 51.6123 126.513 51.79 126.946 52.1455C127.379 52.501 127.596 53.0137 127.596 53.6836C127.596 54.5404 127.243 55.2012 126.536 55.666C125.83 56.1309 124.809 56.3633 123.474 56.3633C122.444 56.3633 121.658 56.181 121.115 55.8164C120.573 55.4518 120.302 54.9323 120.302 54.2578C120.302 53.793 120.448 53.401 120.739 53.082C121.035 52.7676 121.448 52.5488 121.977 52.4258C121.762 52.3346 121.585 52.1888 121.443 51.9883C121.307 51.7832 121.238 51.569 121.238 51.3457C121.238 51.0632 121.318 50.8239 121.478 50.6279C121.637 50.432 121.874 50.2383 122.188 50.0469C121.797 49.8783 121.478 49.6048 121.231 49.2266C120.99 48.8438 120.869 48.3971 120.869 47.8867C120.869 47.0664 121.127 46.4307 121.642 45.9795C122.161 45.5283 122.899 45.3027 123.856 45.3027C124.071 45.3027 124.294 45.3187 124.526 45.3506C124.763 45.3779 124.941 45.4076 125.06 45.4395H127.678ZM121.737 54.1758C121.737 54.5221 121.892 54.7887 122.202 54.9756C122.517 55.1624 122.956 55.2559 123.521 55.2559C124.396 55.2559 125.048 55.1305 125.477 54.8799C125.905 54.6292 126.119 54.2965 126.119 53.8818C126.119 53.5537 126.001 53.319 125.764 53.1777C125.531 53.041 125.096 52.9727 124.458 52.9727H123.241C122.781 52.9727 122.414 53.0798 122.141 53.2939C121.872 53.5127 121.737 53.8066 121.737 54.1758ZM122.428 47.8867C122.428 48.3607 122.549 48.7253 122.79 48.9805C123.036 49.2357 123.387 49.3633 123.843 49.3633C124.772 49.3633 125.237 48.8665 125.237 47.873C125.237 47.3809 125.121 47.0026 124.889 46.7383C124.661 46.4694 124.312 46.335 123.843 46.335C123.378 46.335 123.025 46.4671 122.783 46.7314C122.546 46.9958 122.428 47.3809 122.428 47.8867Z" class="path-18"/>
<path d="M78.8145 70H77.8184V62.3184H75.1055V61.4336H81.5273V62.3184H78.8145V70ZM83.6484 70H82.6758V63.5781H83.6484V70ZM82.5938 61.8379C82.5938 61.6152 82.6484 61.4531 82.7578 61.3516C82.8672 61.2461 83.0039 61.1934 83.168 61.1934C83.3242 61.1934 83.459 61.2461 83.5723 61.3516C83.6855 61.457 83.7422 61.6191 83.7422 61.8379C83.7422 62.0566 83.6855 62.2207 83.5723 62.3301C83.459 62.4355 83.3242 62.4883 83.168 62.4883C83.0039 62.4883 82.8672 62.4355 82.7578 62.3301C82.6484 62.2207 82.5938 62.0566 82.5938 61.8379ZM87.7852 69.3145C87.957 69.3145 88.123 69.3027 88.2832 69.2793C88.4434 69.252 88.5703 69.2246 88.6641 69.1973V69.9414C88.5586 69.9922 88.4023 70.0332 88.1953 70.0645C87.9922 70.0996 87.8086 70.1172 87.6445 70.1172C86.4023 70.1172 85.7812 69.4629 85.7812 68.1543V64.334H84.8613V63.8652L85.7812 63.4609L86.1914 62.0898H86.7539V63.5781H88.6172V64.334H86.7539V68.1133C86.7539 68.5 86.8457 68.7969 87.0293 69.0039C87.2129 69.2109 87.4648 69.3145 87.7852 69.3145ZM90.9258 70H89.9531V60.8828H90.9258V70ZM95.7012 70.1172C94.752 70.1172 94.002 69.8281 93.4512 69.25C92.9043 68.6719 92.6309 67.8691 92.6309 66.8418C92.6309 65.8066 92.8848 64.9844 93.3926 64.375C93.9043 63.7656 94.5898 63.4609 95.4492 63.4609C96.2539 63.4609 96.8906 63.7266 97.3594 64.2578C97.8281 64.7852 98.0625 65.4824 98.0625 66.3496V66.9648H93.6387C93.6582 67.7188 93.8477 68.291 94.207 68.6816C94.5703 69.0723 95.0801 69.2676 95.7363 69.2676C96.4277 69.2676 97.1113 69.123 97.7871 68.834V69.7012C97.4434 69.8496 97.1172 69.9551 96.8086 70.0176C96.5039 70.084 96.1348 70.1172 95.7012 70.1172ZM95.4375 64.2754C94.9219 64.2754 94.5098 64.4434 94.2012 64.7793C93.8965 65.1152 93.7168 65.5801 93.6621 66.1738H97.0195C97.0195 65.5605 96.8828 65.0918 96.6094 64.7676C96.3359 64.4395 95.9453 64.2754 95.4375 64.2754Z" class="path-2"/>
<path d="M83.0156 81.6348C83.0156 83.0488 82.6309 84.1309 81.8613 84.8809C81.0957 85.627 79.9922 86 78.5508 86H76.1777V77.4336H78.8027C80.1348 77.4336 81.1699 77.8027 81.9082 78.541C82.6465 79.2793 83.0156 80.3105 83.0156 81.6348ZM81.9609 81.6699C81.9609 80.5527 81.6797 79.7109 81.1172 79.1445C80.5586 78.5781 79.7266 78.2949 78.6211 78.2949H77.1738V85.1387H78.3867C79.5742 85.1387 80.4668 84.8477 81.0645 84.2656C81.6621 83.6797 81.9609 82.8145 81.9609 81.6699ZM87.498 86.1172C86.5488 86.1172 85.7988 85.8281 85.248 85.25C84.7012 84.6719 84.4277 83.8691 84.4277 82.8418C84.4277 81.8066 84.6816 80.9844 85.1895 80.375C85.7012 79.7656 86.3867 79.4609 87.2461 79.4609C88.0508 79.4609 88.6875 79.7266 89.1562 80.2578C89.625 80.7852 89.8594 81.4824 89.8594 82.3496V82.9648H85.4355C85.4551 83.7188 85.6445 84.291 86.0039 84.6816C86.3672 85.0723 86.877 85.2676 87.5332 85.2676C88.2246 85.2676 88.9082 85.123 89.584 84.834V85.7012C89.2402 85.8496 88.9141 85.9551 88.6055 86.0176C88.3008 86.084 87.9316 86.1172 87.498 86.1172ZM87.2344 80.2754C86.7188 80.2754 86.3066 80.4434 85.998 80.7793C85.6934 81.1152 85.5137 81.5801 85.459 82.1738H88.8164C88.8164 81.5605 88.6797 81.0918 88.4062 80.7676C88.1328 80.4395 87.7422 80.2754 87.2344 80.2754ZM95.666 84.248C95.666 84.8457 95.4434 85.3066 94.998 85.6309C94.5527 85.9551 93.9277 86.1172 93.123 86.1172C92.2715 86.1172 91.6074 85.9824 91.1309 85.7129V84.8105C91.4395 84.9668 91.7695 85.0898 92.1211 85.1797C92.4766 85.2695 92.8184 85.3145 93.1465 85.3145C93.6543 85.3145 94.0449 85.2344 94.3184 85.0742C94.5918 84.9102 94.7285 84.6621 94.7285 84.3301C94.7285 84.0801 94.6191 83.8672 94.4004 83.6914C94.1855 83.5117 93.7637 83.3008 93.1348 83.0586C92.5371 82.8359 92.1113 82.6426 91.8574 82.4785C91.6074 82.3105 91.4199 82.1211 91.2949 81.9102C91.1738 81.6992 91.1133 81.4473 91.1133 81.1543C91.1133 80.6309 91.3262 80.2188 91.752 79.918C92.1777 79.6133 92.7617 79.4609 93.5039 79.4609C94.1953 79.4609 94.8711 79.6016 95.5312 79.8828L95.1855 80.6738C94.541 80.4082 93.957 80.2754 93.4336 80.2754C92.9727 80.2754 92.625 80.3477 92.3906 80.4922C92.1562 80.6367 92.0391 80.8359 92.0391 81.0898C92.0391 81.2617 92.082 81.4082 92.168 81.5293C92.2578 81.6504 92.4004 81.7656 92.5957 81.875C92.791 81.9844 93.166 82.1426 93.7207 82.3496C94.4824 82.627 94.9961 82.9062 95.2617 83.1875C95.5312 83.4688 95.666 83.8223 95.666 84.248ZM99.8203 86.1172C98.8906 86.1172 98.1699 85.832 97.6582 85.2617C97.1504 84.6875 96.8965 83.877 96.8965 82.8301C96.8965 81.7559 97.1543 80.9258 97.6699 80.3398C98.1895 79.7539 98.9277 79.4609 99.8848 79.4609C100.193 79.4609 100.502 79.4941 100.811 79.5605C101.119 79.627 101.361 79.7051 101.537 79.7949L101.238 80.6211C101.023 80.5352 100.789 80.4648 100.535 80.4102C100.281 80.3516 100.057 80.3223 99.8613 80.3223C98.5566 80.3223 97.9043 81.1543 97.9043 82.8184C97.9043 83.6074 98.0625 84.2129 98.3789 84.6348C98.6992 85.0566 99.1719 85.2676 99.7969 85.2676C100.332 85.2676 100.881 85.1523 101.443 84.9219V85.7832C101.014 86.0059 100.473 86.1172 99.8203 86.1172ZM105.902 79.4609C106.188 79.4609 106.443 79.4844 106.67 79.5312L106.535 80.4336C106.27 80.375 106.035 80.3457 105.832 80.3457C105.312 80.3457 104.867 80.5566 104.496 80.9785C104.129 81.4004 103.945 81.9258 103.945 82.5547V86H102.973V79.5781H103.775L103.887 80.7676H103.934C104.172 80.3496 104.459 80.0273 104.795 79.8008C105.131 79.5742 105.5 79.4609 105.902 79.4609ZM108.844 86H107.871V79.5781H108.844V86ZM107.789 77.8379C107.789 77.6152 107.844 77.4531 107.953 77.3516C108.062 77.2461 108.199 77.1934 108.363 77.1934C108.52 77.1934 108.654 77.2461 108.768 77.3516C108.881 77.457 108.938 77.6191 108.938 77.8379C108.938 78.0566 108.881 78.2207 108.768 78.3301C108.654 78.4355 108.52 78.4883 108.363 78.4883C108.199 78.4883 108.062 78.4355 107.953 78.3301C107.844 78.2207 107.789 78.0566 107.789 77.8379ZM113.895 86.1172C113.477 86.1172 113.094 86.041 112.746 85.8887C112.402 85.7324 112.113 85.4941 111.879 85.1738H111.809C111.855 85.5488 111.879 85.9043 111.879 86.2402V88.8828H110.906V79.5781H111.697L111.832 80.457H111.879C112.129 80.1055 112.42 79.8516 112.752 79.6953C113.084 79.5391 113.465 79.4609 113.895 79.4609C114.746 79.4609 115.402 79.752 115.863 80.334C116.328 80.916 116.561 81.7324 116.561 82.7832C116.561 83.8379 116.324 84.6582 115.852 85.2441C115.383 85.8262 114.73 86.1172 113.895 86.1172ZM113.754 80.2871C113.098 80.2871 112.623 80.4688 112.33 80.832C112.037 81.1953 111.887 81.7734 111.879 82.5664V82.7832C111.879 83.6855 112.029 84.332 112.33 84.7227C112.631 85.1094 113.113 85.3027 113.777 85.3027C114.332 85.3027 114.766 85.0781 115.078 84.6289C115.395 84.1797 115.553 83.5605 115.553 82.7715C115.553 81.9707 115.395 81.3574 115.078 80.9316C114.766 80.502 114.324 80.2871 113.754 80.2871ZM120.34 85.3145C120.512 85.3145 120.678 85.3027 120.838 85.2793C120.998 85.252 121.125 85.2246 121.219 85.1973V85.9414C121.113 85.9922 120.957 86.0332 120.75 86.0645C120.547 86.0996 120.363 86.1172 120.199 86.1172C118.957 86.1172 118.336 85.4629 118.336 84.1543V80.334H117.416V79.8652L118.336 79.4609L118.746 78.0898H119.309V79.5781H121.172V80.334H119.309V84.1133C119.309 84.5 119.4 84.7969 119.584 85.0039C119.768 85.2109 120.02 85.3145 120.34 85.3145ZM123.48 86H122.508V79.5781H123.48V86ZM122.426 77.8379C122.426 77.6152 122.48 77.4531 122.59 77.3516C122.699 77.2461 122.836 77.1934 123 77.1934C123.156 77.1934 123.291 77.2461 123.404 77.3516C123.518 77.457 123.574 77.6191 123.574 77.8379C123.574 78.0566 123.518 78.2207 123.404 78.3301C123.291 78.4355 123.156 78.4883 123 78.4883C122.836 78.4883 122.699 78.4355 122.59 78.3301C122.48 78.2207 122.426 78.0566 122.426 77.8379ZM131.086 82.7832C131.086 83.8301 130.822 84.6484 130.295 85.2383C129.768 85.8242 129.039 86.1172 128.109 86.1172C127.535 86.1172 127.025 85.9824 126.58 85.7129C126.135 85.4434 125.791 85.0566 125.549 84.5527C125.307 84.0488 125.186 83.459 125.186 82.7832C125.186 81.7363 125.447 80.9219 125.971 80.3398C126.494 79.7539 127.221 79.4609 128.15 79.4609C129.049 79.4609 129.762 79.7598 130.289 80.3574C130.82 80.9551 131.086 81.7637 131.086 82.7832ZM126.193 82.7832C126.193 83.6035 126.357 84.2285 126.686 84.6582C127.014 85.0879 127.496 85.3027 128.133 85.3027C128.77 85.3027 129.252 85.0898 129.58 84.6641C129.912 84.2344 130.078 83.6074 130.078 82.7832C130.078 81.9668 129.912 81.3477 129.58 80.9258C129.252 80.5 128.766 80.2871 128.121 80.2871C127.484 80.2871 127.004 80.4961 126.68 80.9141C126.355 81.332 126.193 81.9551 126.193 82.7832ZM137.191 86V81.8457C137.191 81.3223 137.072 80.9316 136.834 80.6738C136.596 80.416 136.223 80.2871 135.715 80.2871C135.043 80.2871 134.551 80.4688 134.238 80.832C133.926 81.1953 133.77 81.7949 133.77 82.6309V86H132.797V79.5781H133.588L133.746 80.457H133.793C133.992 80.1406 134.271 79.8965 134.631 79.7246C134.99 79.5488 135.391 79.4609 135.832 79.4609C136.605 79.4609 137.188 79.6484 137.578 80.0234C137.969 80.3945 138.164 80.9902 138.164 81.8105V86H137.191Z" class="path-3"/>
<circle cx="47" cy="141" r="11.5" class="circle-2"/>
<path d="M49.9062 145H44.0996V143.957L46.3086 141.736C46.9609 141.068 47.3926 140.596 47.6035 140.318C47.8184 140.037 47.9746 139.773 48.0723 139.527C48.1699 139.281 48.2188 139.018 48.2188 138.736C48.2188 138.35 48.1016 138.045 47.8672 137.822C47.6367 137.6 47.3164 137.488 46.9062 137.488C46.5781 137.488 46.2598 137.549 45.9512 137.67C45.6465 137.791 45.293 138.01 44.8906 138.326L44.1465 137.418C44.623 137.016 45.0859 136.73 45.5352 136.562C45.9844 136.395 46.4629 136.311 46.9707 136.311C47.7676 136.311 48.4062 136.52 48.8867 136.938C49.3672 137.352 49.6074 137.91 49.6074 138.613C49.6074 139 49.5371 139.367 49.3965 139.715C49.2598 140.062 49.0469 140.422 48.7578 140.793C48.4727 141.16 47.9961 141.658 47.3281 142.287L45.8398 143.729V143.787H49.9062V145Z" class="path-4"/>
<path d="M82.9365 137.027C82.9365 138.071 82.5947 138.871 81.9111 139.427C81.2275 139.983 80.2546 140.261 78.9922 140.261H77.9531V144H76.3193V134.006H79.1973C80.446 134.006 81.3802 134.261 82 134.771C82.6243 135.282 82.9365 136.034 82.9365 137.027ZM77.9531 138.887H78.8213C79.6598 138.887 80.2751 138.741 80.667 138.449C81.0589 138.158 81.2549 137.702 81.2549 137.082C81.2549 136.508 81.0794 136.079 80.7285 135.797C80.3776 135.514 79.8307 135.373 79.0879 135.373H77.9531V138.887ZM89.4922 144L89.1709 142.947H89.1162C88.7516 143.408 88.3848 143.722 88.0156 143.891C87.6465 144.055 87.1725 144.137 86.5938 144.137C85.8509 144.137 85.2699 143.936 84.8506 143.535C84.4359 143.134 84.2285 142.567 84.2285 141.833C84.2285 141.054 84.5179 140.466 85.0967 140.069C85.6755 139.673 86.5573 139.456 87.7422 139.42L89.0479 139.379V138.976C89.0479 138.493 88.9339 138.132 88.7061 137.896C88.4827 137.654 88.1341 137.533 87.6602 137.533C87.2728 137.533 86.9014 137.59 86.5459 137.704C86.1904 137.818 85.8486 137.952 85.5205 138.107L85.001 136.959C85.4111 136.745 85.86 136.583 86.3477 136.474C86.8353 136.36 87.2956 136.303 87.7285 136.303C88.6901 136.303 89.4147 136.512 89.9023 136.932C90.3945 137.351 90.6406 138.009 90.6406 138.907V144H89.4922ZM87.0996 142.906C87.6829 142.906 88.1501 142.744 88.501 142.421C88.8564 142.093 89.0342 141.635 89.0342 141.047V140.391L88.0635 140.432C87.307 140.459 86.7555 140.587 86.4092 140.814C86.0674 141.038 85.8965 141.382 85.8965 141.847C85.8965 142.184 85.9967 142.446 86.1973 142.633C86.3978 142.815 86.6986 142.906 87.0996 142.906ZM96.7178 136.303C97.0413 136.303 97.3079 136.326 97.5176 136.371L97.3604 137.868C97.1325 137.813 96.8955 137.786 96.6494 137.786C96.0068 137.786 95.485 137.996 95.084 138.415C94.6875 138.834 94.4893 139.379 94.4893 140.049V144H92.8828V136.439H94.1406L94.3525 137.772H94.4346C94.6852 137.321 95.0111 136.964 95.4121 136.699C95.8177 136.435 96.2529 136.303 96.7178 136.303ZM103.656 144L103.335 142.947H103.28C102.916 143.408 102.549 143.722 102.18 143.891C101.811 144.055 101.337 144.137 100.758 144.137C100.015 144.137 99.4339 143.936 99.0146 143.535C98.5999 143.134 98.3926 142.567 98.3926 141.833C98.3926 141.054 98.682 140.466 99.2607 140.069C99.8395 139.673 100.721 139.456 101.906 139.42L103.212 139.379V138.976C103.212 138.493 103.098 138.132 102.87 137.896C102.647 137.654 102.298 137.533 101.824 137.533C101.437 137.533 101.065 137.59 100.71 137.704C100.354 137.818 100.013 137.952 99.6846 138.107L99.165 136.959C99.5752 136.745 100.024 136.583 100.512 136.474C100.999 136.36 101.46 136.303 101.893 136.303C102.854 136.303 103.579 136.512 104.066 136.932C104.559 137.351 104.805 138.009 104.805 138.907V144H103.656ZM101.264 142.906C101.847 142.906 102.314 142.744 102.665 142.421C103.021 142.093 103.198 141.635 103.198 141.047V140.391L102.228 140.432C101.471 140.459 100.92 140.587 100.573 140.814C100.231 141.038 100.061 141.382 100.061 141.847C100.061 142.184 100.161 142.446 100.361 142.633C100.562 142.815 100.863 142.906 101.264 142.906ZM113.418 144H111.805V139.338C111.805 138.759 111.695 138.328 111.477 138.046C111.258 137.759 110.916 137.615 110.451 137.615C109.831 137.615 109.376 137.818 109.084 138.224C108.797 138.625 108.653 139.295 108.653 140.233V144H107.047V136.439H108.305L108.53 137.431H108.612C108.822 137.071 109.125 136.793 109.521 136.597C109.923 136.401 110.362 136.303 110.841 136.303C112.003 136.303 112.773 136.699 113.151 137.492H113.261C113.484 137.118 113.799 136.827 114.204 136.617C114.61 136.408 115.075 136.303 115.599 136.303C116.501 136.303 117.157 136.531 117.567 136.986C117.982 137.442 118.189 138.137 118.189 139.071V144H116.583V139.338C116.583 138.759 116.471 138.328 116.248 138.046C116.029 137.759 115.688 137.615 115.223 137.615C114.598 137.615 114.14 137.811 113.849 138.203C113.562 138.59 113.418 139.188 113.418 139.994V144ZM123.733 144.137C122.558 144.137 121.637 143.795 120.972 143.111C120.311 142.423 119.98 141.478 119.98 140.274C119.98 139.039 120.288 138.069 120.903 137.362C121.519 136.656 122.364 136.303 123.439 136.303C124.438 136.303 125.226 136.606 125.805 137.212C126.383 137.818 126.673 138.652 126.673 139.714V140.582H121.635C121.658 141.316 121.856 141.881 122.229 142.277C122.603 142.669 123.13 142.865 123.809 142.865C124.255 142.865 124.67 142.824 125.053 142.742C125.44 142.656 125.855 142.514 126.297 142.318V143.624C125.905 143.811 125.508 143.943 125.107 144.021C124.706 144.098 124.248 144.137 123.733 144.137ZM123.439 137.52C122.929 137.52 122.519 137.681 122.209 138.005C121.904 138.328 121.721 138.8 121.662 139.42H125.094C125.085 138.796 124.934 138.324 124.643 138.005C124.351 137.681 123.95 137.52 123.439 137.52ZM131.314 142.838C131.706 142.838 132.098 142.776 132.49 142.653V143.863C132.312 143.941 132.082 144.005 131.8 144.055C131.522 144.109 131.232 144.137 130.932 144.137C129.41 144.137 128.648 143.335 128.648 141.73V137.656H127.616V136.945L128.724 136.357L129.271 134.758H130.262V136.439H132.415V137.656H130.262V141.703C130.262 142.09 130.357 142.378 130.549 142.564C130.745 142.747 131 142.838 131.314 142.838ZM137.31 144.137C136.134 144.137 135.213 143.795 134.548 143.111C133.887 142.423 133.557 141.478 133.557 140.274C133.557 139.039 133.864 138.069 134.479 137.362C135.095 136.656 135.94 136.303 137.016 136.303C138.014 136.303 138.802 136.606 139.381 137.212C139.96 137.818 140.249 138.652 140.249 139.714V140.582H135.211C135.234 141.316 135.432 141.881 135.806 142.277C136.179 142.669 136.706 142.865 137.385 142.865C137.831 142.865 138.246 142.824 138.629 142.742C139.016 142.656 139.431 142.514 139.873 142.318V143.624C139.481 143.811 139.085 143.943 138.684 144.021C138.283 144.098 137.825 144.137 137.31 144.137ZM137.016 137.52C136.505 137.52 136.095 137.681 135.785 138.005C135.48 138.328 135.298 138.8 135.238 139.42H138.67C138.661 138.796 138.51 138.324 138.219 138.005C137.927 137.681 137.526 137.52 137.016 137.52ZM145.909 136.303C146.233 136.303 146.499 136.326 146.709 136.371L146.552 137.868C146.324 137.813 146.087 137.786 145.841 137.786C145.198 137.786 144.676 137.996 144.275 138.415C143.879 138.834 143.681 139.379 143.681 140.049V144H142.074V136.439H143.332L143.544 137.772H143.626C143.877 137.321 144.202 136.964 144.604 136.699C145.009 136.435 145.444 136.303 145.909 136.303ZM153.196 141.847C153.196 142.585 152.927 143.152 152.39 143.549C151.852 143.941 151.082 144.137 150.079 144.137C149.072 144.137 148.263 143.984 147.652 143.679V142.291C148.541 142.701 149.368 142.906 150.134 142.906C151.123 142.906 151.617 142.608 151.617 142.011C151.617 141.819 151.562 141.66 151.453 141.532C151.344 141.405 151.164 141.272 150.913 141.136C150.662 140.999 150.314 140.844 149.867 140.671C148.997 140.334 148.407 139.996 148.097 139.659C147.791 139.322 147.639 138.884 147.639 138.347C147.639 137.7 147.898 137.198 148.418 136.843C148.942 136.483 149.653 136.303 150.551 136.303C151.439 136.303 152.28 136.483 153.073 136.843L152.554 138.053C151.738 137.715 151.052 137.547 150.496 137.547C149.648 137.547 149.225 137.788 149.225 138.271C149.225 138.508 149.334 138.709 149.553 138.873C149.776 139.037 150.259 139.263 151.002 139.55C151.626 139.791 152.08 140.012 152.362 140.213C152.645 140.413 152.854 140.646 152.991 140.91C153.128 141.17 153.196 141.482 153.196 141.847Z" class="path-5"/>
<path d="M79.8457 153.201C78.9043 153.201 78.1602 153.516 77.6133 154.145C77.0703 154.77 76.7988 155.627 76.7988 156.717C76.7988 157.838 77.0605 158.705 77.584 159.318C78.1113 159.928 78.8613 160.232 79.834 160.232C80.4316 160.232 81.1133 160.125 81.8789 159.91V160.783C81.2852 161.006 80.5527 161.117 79.6816 161.117C78.4199 161.117 77.4453 160.734 76.7578 159.969C76.0742 159.203 75.7324 158.115 75.7324 156.705C75.7324 155.822 75.8965 155.049 76.2246 154.385C76.5566 153.721 77.0332 153.209 77.6543 152.85C78.2793 152.49 79.0137 152.311 79.8574 152.311C80.7559 152.311 81.541 152.475 82.2129 152.803L81.791 153.658C81.1426 153.354 80.4941 153.201 79.8457 153.201ZM89.1445 157.783C89.1445 158.83 88.8809 159.648 88.3535 160.238C87.8262 160.824 87.0977 161.117 86.168 161.117C85.5938 161.117 85.084 160.982 84.6387 160.713C84.1934 160.443 83.8496 160.057 83.6074 159.553C83.3652 159.049 83.2441 158.459 83.2441 157.783C83.2441 156.736 83.5059 155.922 84.0293 155.34C84.5527 154.754 85.2793 154.461 86.209 154.461C87.1074 154.461 87.8203 154.76 88.3477 155.357C88.8789 155.955 89.1445 156.764 89.1445 157.783ZM84.252 157.783C84.252 158.604 84.416 159.229 84.7441 159.658C85.0723 160.088 85.5547 160.303 86.1914 160.303C86.8281 160.303 87.3105 160.09 87.6387 159.664C87.9707 159.234 88.1367 158.607 88.1367 157.783C88.1367 156.967 87.9707 156.348 87.6387 155.926C87.3105 155.5 86.8242 155.287 86.1797 155.287C85.543 155.287 85.0625 155.496 84.7383 155.914C84.4141 156.332 84.252 156.955 84.252 157.783ZM91.7695 154.578V158.744C91.7695 159.268 91.8887 159.658 92.127 159.916C92.3652 160.174 92.7383 160.303 93.2461 160.303C93.918 160.303 94.4082 160.119 94.7168 159.752C95.0293 159.385 95.1855 158.785 95.1855 157.953V154.578H96.1582V161H95.3555L95.2148 160.139H95.1621C94.9629 160.455 94.6855 160.697 94.3301 160.865C93.9785 161.033 93.5762 161.117 93.123 161.117C92.3418 161.117 91.7559 160.932 91.3652 160.561C90.9785 160.189 90.7852 159.596 90.7852 158.779V154.578H91.7695ZM101.156 154.461C101.441 154.461 101.697 154.484 101.924 154.531L101.789 155.434C101.523 155.375 101.289 155.346 101.086 155.346C100.566 155.346 100.121 155.557 99.75 155.979C99.3828 156.4 99.1992 156.926 99.1992 157.555V161H98.2266V154.578H99.0293L99.1406 155.768H99.1875C99.4258 155.35 99.7129 155.027 100.049 154.801C100.385 154.574 100.754 154.461 101.156 154.461ZM105.199 160.314C105.371 160.314 105.537 160.303 105.697 160.279C105.857 160.252 105.984 160.225 106.078 160.197V160.941C105.973 160.992 105.816 161.033 105.609 161.064C105.406 161.1 105.223 161.117 105.059 161.117C103.816 161.117 103.195 160.463 103.195 159.154V155.334H102.275V154.865L103.195 154.461L103.605 153.09H104.168V154.578H106.031V155.334H104.168V159.113C104.168 159.5 104.26 159.797 104.443 160.004C104.627 160.211 104.879 160.314 105.199 160.314Z" class="path-6"/>
<path d="M79.8457 169.201C78.9043 169.201 78.1602 169.516 77.6133 170.145C77.0703 170.77 76.7988 171.627 76.7988 172.717C76.7988 173.838 77.0605 174.705 77.584 175.318C78.1113 175.928 78.8613 176.232 79.834 176.232C80.4316 176.232 81.1133 176.125 81.8789 175.91V176.783C81.2852 177.006 80.5527 177.117 79.6816 177.117C78.4199 177.117 77.4453 176.734 76.7578 175.969C76.0742 175.203 75.7324 174.115 75.7324 172.705C75.7324 171.822 75.8965 171.049 76.2246 170.385C76.5566 169.721 77.0332 169.209 77.6543 168.85C78.2793 168.49 79.0137 168.311 79.8574 168.311C80.7559 168.311 81.541 168.475 82.2129 168.803L81.791 169.658C81.1426 169.354 80.4941 169.201 79.8457 169.201ZM87.5508 177L87.3574 176.086H87.3105C86.9902 176.488 86.6699 176.762 86.3496 176.906C86.0332 177.047 85.6367 177.117 85.1602 177.117C84.5234 177.117 84.0234 176.953 83.6602 176.625C83.3008 176.297 83.1211 175.83 83.1211 175.225C83.1211 173.928 84.1582 173.248 86.2324 173.186L87.3223 173.15V172.752C87.3223 172.248 87.2129 171.877 86.9941 171.639C86.7793 171.396 86.4336 171.275 85.957 171.275C85.4219 171.275 84.8164 171.439 84.1406 171.768L83.8418 171.023C84.1582 170.852 84.5039 170.717 84.8789 170.619C85.2578 170.521 85.6367 170.473 86.0156 170.473C86.7812 170.473 87.3477 170.643 87.7148 170.982C88.0859 171.322 88.2715 171.867 88.2715 172.617V177H87.5508ZM85.3535 176.314C85.959 176.314 86.4336 176.148 86.7773 175.816C87.125 175.484 87.2988 175.02 87.2988 174.422V173.842L86.3262 173.883C85.5527 173.91 84.9941 174.031 84.6504 174.246C84.3105 174.457 84.1406 174.787 84.1406 175.236C84.1406 175.588 84.2461 175.855 84.457 176.039C84.6719 176.223 84.9707 176.314 85.3535 176.314ZM92.3555 176.314C92.5273 176.314 92.6934 176.303 92.8535 176.279C93.0137 176.252 93.1406 176.225 93.2344 176.197V176.941C93.1289 176.992 92.9727 177.033 92.7656 177.064C92.5625 177.1 92.3789 177.117 92.2148 177.117C90.9727 177.117 90.3516 176.463 90.3516 175.154V171.334H89.4316V170.865L90.3516 170.461L90.7617 169.09H91.3242V170.578H93.1875V171.334H91.3242V175.113C91.3242 175.5 91.416 175.797 91.5996 176.004C91.7832 176.211 92.0352 176.314 92.3555 176.314ZM97.2363 177.117C96.2871 177.117 95.5371 176.828 94.9863 176.25C94.4395 175.672 94.166 174.869 94.166 173.842C94.166 172.807 94.4199 171.984 94.9277 171.375C95.4395 170.766 96.125 170.461 96.9844 170.461C97.7891 170.461 98.4258 170.727 98.8945 171.258C99.3633 171.785 99.5977 172.482 99.5977 173.35V173.965H95.1738C95.1934 174.719 95.3828 175.291 95.7422 175.682C96.1055 176.072 96.6152 176.268 97.2715 176.268C97.9629 176.268 98.6465 176.123 99.3223 175.834V176.701C98.9785 176.85 98.6523 176.955 98.3438 177.018C98.0391 177.084 97.6699 177.117 97.2363 177.117ZM96.9727 171.275C96.457 171.275 96.0449 171.443 95.7363 171.779C95.4316 172.115 95.252 172.58 95.1973 173.174H98.5547C98.5547 172.561 98.418 172.092 98.1445 171.768C97.8711 171.439 97.4805 171.275 96.9727 171.275ZM106.518 170.578V171.193L105.328 171.334C105.438 171.471 105.535 171.65 105.621 171.873C105.707 172.092 105.75 172.34 105.75 172.617C105.75 173.246 105.535 173.748 105.105 174.123C104.676 174.498 104.086 174.686 103.336 174.686C103.145 174.686 102.965 174.67 102.797 174.639C102.383 174.857 102.176 175.133 102.176 175.465C102.176 175.641 102.248 175.771 102.393 175.857C102.537 175.939 102.785 175.98 103.137 175.98H104.273C104.969 175.98 105.502 176.127 105.873 176.42C106.248 176.713 106.436 177.139 106.436 177.697C106.436 178.408 106.15 178.949 105.58 179.32C105.01 179.695 104.178 179.883 103.084 179.883C102.244 179.883 101.596 179.727 101.139 179.414C100.686 179.102 100.459 178.66 100.459 178.09C100.459 177.699 100.584 177.361 100.834 177.076C101.084 176.791 101.436 176.598 101.889 176.496C101.725 176.422 101.586 176.307 101.473 176.15C101.363 175.994 101.309 175.812 101.309 175.605C101.309 175.371 101.371 175.166 101.496 174.99C101.621 174.814 101.818 174.645 102.088 174.48C101.756 174.344 101.484 174.111 101.273 173.783C101.066 173.455 100.963 173.08 100.963 172.658C100.963 171.955 101.174 171.414 101.596 171.035C102.018 170.652 102.615 170.461 103.389 170.461C103.725 170.461 104.027 170.5 104.297 170.578H106.518ZM101.396 178.078C101.396 178.426 101.543 178.689 101.836 178.869C102.129 179.049 102.549 179.139 103.096 179.139C103.912 179.139 104.516 179.016 104.906 178.77C105.301 178.527 105.498 178.197 105.498 177.779C105.498 177.432 105.391 177.189 105.176 177.053C104.961 176.92 104.557 176.854 103.963 176.854H102.797C102.355 176.854 102.012 176.959 101.766 177.17C101.52 177.381 101.396 177.684 101.396 178.078ZM101.924 172.635C101.924 173.084 102.051 173.424 102.305 173.654C102.559 173.885 102.912 174 103.365 174C104.314 174 104.789 173.539 104.789 172.617C104.789 171.652 104.309 171.17 103.348 171.17C102.891 171.17 102.539 171.293 102.293 171.539C102.047 171.785 101.924 172.15 101.924 172.635ZM113.379 173.783C113.379 174.83 113.115 175.648 112.588 176.238C112.061 176.824 111.332 177.117 110.402 177.117C109.828 177.117 109.318 176.982 108.873 176.713C108.428 176.443 108.084 176.057 107.842 175.553C107.6 175.049 107.479 174.459 107.479 173.783C107.479 172.736 107.74 171.922 108.264 171.34C108.787 170.754 109.514 170.461 110.443 170.461C111.342 170.461 112.055 170.76 112.582 171.357C113.113 171.955 113.379 172.764 113.379 173.783ZM108.486 173.783C108.486 174.604 108.65 175.229 108.979 175.658C109.307 176.088 109.789 176.303 110.426 176.303C111.062 176.303 111.545 176.09 111.873 175.664C112.205 175.234 112.371 174.607 112.371 173.783C112.371 172.967 112.205 172.348 111.873 171.926C111.545 171.5 111.059 171.287 110.414 171.287C109.777 171.287 109.297 171.496 108.973 171.914C108.648 172.332 108.486 172.955 108.486 173.783ZM118.02 170.461C118.305 170.461 118.561 170.484 118.787 170.531L118.652 171.434C118.387 171.375 118.152 171.346 117.949 171.346C117.43 171.346 116.984 171.557 116.613 171.979C116.246 172.4 116.062 172.926 116.062 173.555V177H115.09V170.578H115.893L116.004 171.768H116.051C116.289 171.35 116.576 171.027 116.912 170.801C117.248 170.574 117.617 170.461 118.02 170.461ZM118.969 170.578H120.012L121.418 174.24C121.727 175.076 121.918 175.68 121.992 176.051H122.039C122.09 175.852 122.195 175.512 122.355 175.031C122.52 174.547 123.051 173.062 123.949 170.578H124.992L122.232 177.891C121.959 178.613 121.639 179.125 121.271 179.426C120.908 179.73 120.461 179.883 119.93 179.883C119.633 179.883 119.34 179.85 119.051 179.783V179.004C119.266 179.051 119.506 179.074 119.771 179.074C120.439 179.074 120.916 178.699 121.201 177.949L121.559 177.035L118.969 170.578Z" class="path-7"/>
<path d="M74.9297 195.256C74.5625 195.256 74.2734 195.203 74.0625 195.098V194.248C74.3398 194.326 74.6289 194.365 74.9297 194.365C75.3164 194.365 75.6094 194.248 75.8086 194.014C76.0117 193.779 76.1133 193.441 76.1133 193V184.434H77.1094V192.918C77.1094 193.66 76.9219 194.234 76.5469 194.641C76.1719 195.051 75.6328 195.256 74.9297 195.256ZM80.1562 186.578V190.744C80.1562 191.268 80.2754 191.658 80.5137 191.916C80.752 192.174 81.125 192.303 81.6328 192.303C82.3047 192.303 82.7949 192.119 83.1035 191.752C83.416 191.385 83.5723 190.785 83.5723 189.953V186.578H84.5449V193H83.7422L83.6016 192.139H83.5488C83.3496 192.455 83.0723 192.697 82.7168 192.865C82.3652 193.033 81.9629 193.117 81.5098 193.117C80.7285 193.117 80.1426 192.932 79.752 192.561C79.3652 192.189 79.1719 191.596 79.1719 190.779V186.578H80.1562ZM89.543 186.461C89.8281 186.461 90.084 186.484 90.3105 186.531L90.1758 187.434C89.9102 187.375 89.6758 187.346 89.4727 187.346C88.9531 187.346 88.5078 187.557 88.1367 187.979C87.7695 188.4 87.5859 188.926 87.5859 189.555V193H86.6133V186.578H87.416L87.5273 187.768H87.5742C87.8125 187.35 88.0996 187.027 88.4355 186.801C88.7715 186.574 89.1406 186.461 89.543 186.461ZM97.0547 189.783C97.0547 190.83 96.791 191.648 96.2637 192.238C95.7363 192.824 95.0078 193.117 94.0781 193.117C93.5039 193.117 92.9941 192.982 92.5488 192.713C92.1035 192.443 91.7598 192.057 91.5176 191.553C91.2754 191.049 91.1543 190.459 91.1543 189.783C91.1543 188.736 91.416 187.922 91.9395 187.34C92.4629 186.754 93.1895 186.461 94.1191 186.461C95.0176 186.461 95.7305 186.76 96.2578 187.357C96.7891 187.955 97.0547 188.764 97.0547 189.783ZM92.1621 189.783C92.1621 190.604 92.3262 191.229 92.6543 191.658C92.9824 192.088 93.4648 192.303 94.1016 192.303C94.7383 192.303 95.2207 192.09 95.5488 191.664C95.8809 191.234 96.0469 190.607 96.0469 189.783C96.0469 188.967 95.8809 188.348 95.5488 187.926C95.2207 187.5 94.7344 187.287 94.0898 187.287C93.4531 187.287 92.9727 187.496 92.6484 187.914C92.3242 188.332 92.1621 188.955 92.1621 189.783ZM101.695 186.461C101.98 186.461 102.236 186.484 102.463 186.531L102.328 187.434C102.062 187.375 101.828 187.346 101.625 187.346C101.105 187.346 100.66 187.557 100.289 187.979C99.9219 188.4 99.7383 188.926 99.7383 189.555V193H98.7656V186.578H99.5684L99.6797 187.768H99.7266C99.9648 187.35 100.252 187.027 100.588 186.801C100.924 186.574 101.293 186.461 101.695 186.461ZM107.807 191.248C107.807 191.846 107.584 192.307 107.139 192.631C106.693 192.955 106.068 193.117 105.264 193.117C104.412 193.117 103.748 192.982 103.271 192.713V191.811C103.58 191.967 103.91 192.09 104.262 192.18C104.617 192.27 104.959 192.314 105.287 192.314C105.795 192.314 106.186 192.234 106.459 192.074C106.732 191.91 106.869 191.662 106.869 191.33C106.869 191.08 106.76 190.867 106.541 190.691C106.326 190.512 105.904 190.301 105.275 190.059C104.678 189.836 104.252 189.643 103.998 189.479C103.748 189.311 103.561 189.121 103.436 188.91C103.314 188.699 103.254 188.447 103.254 188.154C103.254 187.631 103.467 187.219 103.893 186.918C104.318 186.613 104.902 186.461 105.645 186.461C106.336 186.461 107.012 186.602 107.672 186.883L107.326 187.674C106.682 187.408 106.098 187.275 105.574 187.275C105.113 187.275 104.766 187.348 104.531 187.492C104.297 187.637 104.18 187.836 104.18 188.09C104.18 188.262 104.223 188.408 104.309 188.529C104.398 188.65 104.541 188.766 104.736 188.875C104.932 188.984 105.307 189.143 105.861 189.35C106.623 189.627 107.137 189.906 107.402 190.188C107.672 190.469 107.807 190.822 107.807 191.248Z" class="path-8"/>
<path d="M81.0703 200.434H82.1426L79.0547 209H78.0703L75 200.434H76.0547L78.0234 205.977C78.25 206.613 78.4297 207.232 78.5625 207.834C78.7031 207.201 78.8867 206.57 79.1133 205.941L81.0703 200.434ZM88.7227 205.783C88.7227 206.83 88.459 207.648 87.9316 208.238C87.4043 208.824 86.6758 209.117 85.7461 209.117C85.1719 209.117 84.6621 208.982 84.2168 208.713C83.7715 208.443 83.4277 208.057 83.1855 207.553C82.9434 207.049 82.8223 206.459 82.8223 205.783C82.8223 204.736 83.084 203.922 83.6074 203.34C84.1309 202.754 84.8574 202.461 85.7871 202.461C86.6855 202.461 87.3984 202.76 87.9258 203.357C88.457 203.955 88.7227 204.764 88.7227 205.783ZM83.8301 205.783C83.8301 206.604 83.9941 207.229 84.3223 207.658C84.6504 208.088 85.1328 208.303 85.7695 208.303C86.4062 208.303 86.8887 208.09 87.2168 207.664C87.5488 207.234 87.7148 206.607 87.7148 205.783C87.7148 204.967 87.5488 204.348 87.2168 203.926C86.8887 203.5 86.4023 203.287 85.7578 203.287C85.1211 203.287 84.6406 203.496 84.3164 203.914C83.9922 204.332 83.8301 204.955 83.8301 205.783ZM92.5078 208.314C92.6797 208.314 92.8457 208.303 93.0059 208.279C93.166 208.252 93.293 208.225 93.3867 208.197V208.941C93.2812 208.992 93.125 209.033 92.918 209.064C92.7148 209.1 92.5312 209.117 92.3672 209.117C91.125 209.117 90.5039 208.463 90.5039 207.154V203.334H89.584V202.865L90.5039 202.461L90.9141 201.09H91.4766V202.578H93.3398V203.334H91.4766V207.113C91.4766 207.5 91.5684 207.797 91.752 208.004C91.9355 208.211 92.1875 208.314 92.5078 208.314ZM95.6484 209H94.6758V202.578H95.6484V209ZM94.5938 200.838C94.5938 200.615 94.6484 200.453 94.7578 200.352C94.8672 200.246 95.0039 200.193 95.168 200.193C95.3242 200.193 95.459 200.246 95.5723 200.352C95.6855 200.457 95.7422 200.619 95.7422 200.838C95.7422 201.057 95.6855 201.221 95.5723 201.33C95.459 201.436 95.3242 201.488 95.168 201.488C95.0039 201.488 94.8672 201.436 94.7578 201.33C94.6484 201.221 94.5938 201.057 94.5938 200.838ZM102.105 209V204.846C102.105 204.322 101.986 203.932 101.748 203.674C101.51 203.416 101.137 203.287 100.629 203.287C99.957 203.287 99.4648 203.469 99.1523 203.832C98.8398 204.195 98.6836 204.795 98.6836 205.631V209H97.7109V202.578H98.502L98.6602 203.457H98.707C98.9062 203.141 99.1855 202.896 99.5449 202.725C99.9043 202.549 100.305 202.461 100.746 202.461C101.52 202.461 102.102 202.648 102.492 203.023C102.883 203.395 103.078 203.99 103.078 204.811V209H102.105ZM110.338 202.578V203.193L109.148 203.334C109.258 203.471 109.355 203.65 109.441 203.873C109.527 204.092 109.57 204.34 109.57 204.617C109.57 205.246 109.355 205.748 108.926 206.123C108.496 206.498 107.906 206.686 107.156 206.686C106.965 206.686 106.785 206.67 106.617 206.639C106.203 206.857 105.996 207.133 105.996 207.465C105.996 207.641 106.068 207.771 106.213 207.857C106.357 207.939 106.605 207.98 106.957 207.98H108.094C108.789 207.98 109.322 208.127 109.693 208.42C110.068 208.713 110.256 209.139 110.256 209.697C110.256 210.408 109.971 210.949 109.4 211.32C108.83 211.695 107.998 211.883 106.904 211.883C106.064 211.883 105.416 211.727 104.959 211.414C104.506 211.102 104.279 210.66 104.279 210.09C104.279 209.699 104.404 209.361 104.654 209.076C104.904 208.791 105.256 208.598 105.709 208.496C105.545 208.422 105.406 208.307 105.293 208.15C105.184 207.994 105.129 207.812 105.129 207.605C105.129 207.371 105.191 207.166 105.316 206.99C105.441 206.814 105.639 206.645 105.908 206.48C105.576 206.344 105.305 206.111 105.094 205.783C104.887 205.455 104.783 205.08 104.783 204.658C104.783 203.955 104.994 203.414 105.416 203.035C105.838 202.652 106.436 202.461 107.209 202.461C107.545 202.461 107.848 202.5 108.117 202.578H110.338ZM105.217 210.078C105.217 210.426 105.363 210.689 105.656 210.869C105.949 211.049 106.369 211.139 106.916 211.139C107.732 211.139 108.336 211.016 108.727 210.77C109.121 210.527 109.318 210.197 109.318 209.779C109.318 209.432 109.211 209.189 108.996 209.053C108.781 208.92 108.377 208.854 107.783 208.854H106.617C106.176 208.854 105.832 208.959 105.586 209.17C105.34 209.381 105.217 209.684 105.217 210.078ZM105.744 204.635C105.744 205.084 105.871 205.424 106.125 205.654C106.379 205.885 106.732 206 107.186 206C108.135 206 108.609 205.539 108.609 204.617C108.609 203.652 108.129 203.17 107.168 203.17C106.711 203.17 106.359 203.293 106.113 203.539C105.867 203.785 105.744 204.15 105.744 204.635ZM120.316 205.783C120.316 206.83 120.053 207.648 119.525 208.238C118.998 208.824 118.27 209.117 117.34 209.117C116.766 209.117 116.256 208.982 115.811 208.713C115.365 208.443 115.021 208.057 114.779 207.553C114.537 207.049 114.416 206.459 114.416 205.783C114.416 204.736 114.678 203.922 115.201 203.34C115.725 202.754 116.451 202.461 117.381 202.461C118.279 202.461 118.992 202.76 119.52 203.357C120.051 203.955 120.316 204.764 120.316 205.783ZM115.424 205.783C115.424 206.604 115.588 207.229 115.916 207.658C116.244 208.088 116.727 208.303 117.363 208.303C118 208.303 118.482 208.09 118.811 207.664C119.143 207.234 119.309 206.607 119.309 205.783C119.309 204.967 119.143 204.348 118.811 203.926C118.482 203.5 117.996 203.287 117.352 203.287C116.715 203.287 116.234 203.496 115.91 203.914C115.586 204.332 115.424 204.955 115.424 205.783ZM125.016 209.117C124.598 209.117 124.215 209.041 123.867 208.889C123.523 208.732 123.234 208.494 123 208.174H122.93C122.977 208.549 123 208.904 123 209.24V211.883H122.027V202.578H122.818L122.953 203.457H123C123.25 203.105 123.541 202.852 123.873 202.695C124.205 202.539 124.586 202.461 125.016 202.461C125.867 202.461 126.523 202.752 126.984 203.334C127.449 203.916 127.682 204.732 127.682 205.783C127.682 206.838 127.445 207.658 126.973 208.244C126.504 208.826 125.852 209.117 125.016 209.117ZM124.875 203.287C124.219 203.287 123.744 203.469 123.451 203.832C123.158 204.195 123.008 204.773 123 205.566V205.783C123 206.686 123.15 207.332 123.451 207.723C123.752 208.109 124.234 208.303 124.898 208.303C125.453 208.303 125.887 208.078 126.199 207.629C126.516 207.18 126.674 206.561 126.674 205.771C126.674 204.971 126.516 204.357 126.199 203.932C125.887 203.502 125.445 203.287 124.875 203.287ZM131.461 208.314C131.633 208.314 131.799 208.303 131.959 208.279C132.119 208.252 132.246 208.225 132.34 208.197V208.941C132.234 208.992 132.078 209.033 131.871 209.064C131.668 209.1 131.484 209.117 131.32 209.117C130.078 209.117 129.457 208.463 129.457 207.154V203.334H128.537V202.865L129.457 202.461L129.867 201.09H130.43V202.578H132.293V203.334H130.43V207.113C130.43 207.5 130.521 207.797 130.705 208.004C130.889 208.211 131.141 208.314 131.461 208.314ZM134.602 209H133.629V202.578H134.602V209ZM133.547 200.838C133.547 200.615 133.602 200.453 133.711 200.352C133.82 200.246 133.957 200.193 134.121 200.193C134.277 200.193 134.412 200.246 134.525 200.352C134.639 200.457 134.695 200.619 134.695 200.838C134.695 201.057 134.639 201.221 134.525 201.33C134.412 201.436 134.277 201.488 134.121 201.488C133.957 201.488 133.82 201.436 133.711 201.33C133.602 201.221 133.547 201.057 133.547 200.838ZM142.207 205.783C142.207 206.83 141.943 207.648 141.416 208.238C140.889 208.824 140.16 209.117 139.23 209.117C138.656 209.117 138.146 208.982 137.701 208.713C137.256 208.443 136.912 208.057 136.67 207.553C136.428 207.049 136.307 206.459 136.307 205.783C136.307 204.736 136.568 203.922 137.092 203.34C137.615 202.754 138.342 202.461 139.271 202.461C140.17 202.461 140.883 202.76 141.41 203.357C141.941 203.955 142.207 204.764 142.207 205.783ZM137.314 205.783C137.314 206.604 137.479 207.229 137.807 207.658C138.135 208.088 138.617 208.303 139.254 208.303C139.891 208.303 140.373 208.09 140.701 207.664C141.033 207.234 141.199 206.607 141.199 205.783C141.199 204.967 141.033 204.348 140.701 203.926C140.373 203.5 139.887 203.287 139.242 203.287C138.605 203.287 138.125 203.496 137.801 203.914C137.477 204.332 137.314 204.955 137.314 205.783ZM148.312 209V204.846C148.312 204.322 148.193 203.932 147.955 203.674C147.717 203.416 147.344 203.287 146.836 203.287C146.164 203.287 145.672 203.469 145.359 203.832C145.047 204.195 144.891 204.795 144.891 205.631V209H143.918V202.578H144.709L144.867 203.457H144.914C145.113 203.141 145.393 202.896 145.752 202.725C146.111 202.549 146.512 202.461 146.953 202.461C147.727 202.461 148.309 202.648 148.699 203.023C149.09 203.395 149.285 203.99 149.285 204.811V209H148.312ZM155.432 207.248C155.432 207.846 155.209 208.307 154.764 208.631C154.318 208.955 153.693 209.117 152.889 209.117C152.037 209.117 151.373 208.982 150.896 208.713V207.811C151.205 207.967 151.535 208.09 151.887 208.18C152.242 208.27 152.584 208.314 152.912 208.314C153.42 208.314 153.811 208.234 154.084 208.074C154.357 207.91 154.494 207.662 154.494 207.33C154.494 207.08 154.385 206.867 154.166 206.691C153.951 206.512 153.529 206.301 152.9 206.059C152.303 205.836 151.877 205.643 151.623 205.479C151.373 205.311 151.186 205.121 151.061 204.91C150.939 204.699 150.879 204.447 150.879 204.154C150.879 203.631 151.092 203.219 151.518 202.918C151.943 202.613 152.527 202.461 153.27 202.461C153.961 202.461 154.637 202.602 155.297 202.883L154.951 203.674C154.307 203.408 153.723 203.275 153.199 203.275C152.738 203.275 152.391 203.348 152.156 203.492C151.922 203.637 151.805 203.836 151.805 204.09C151.805 204.262 151.848 204.408 151.934 204.529C152.023 204.65 152.166 204.766 152.361 204.875C152.557 204.984 152.932 205.143 153.486 205.35C154.248 205.627 154.762 205.906 155.027 206.188C155.297 206.469 155.432 206.822 155.432 207.248Z" class="path-9"/>
<path d="M79.8457 217.201C78.9043 217.201 78.1602 217.516 77.6133 218.145C77.0703 218.77 76.7988 219.627 76.7988 220.717C76.7988 221.838 77.0605 222.705 77.584 223.318C78.1113 223.928 78.8613 224.232 79.834 224.232C80.4316 224.232 81.1133 224.125 81.8789 223.91V224.783C81.2852 225.006 80.5527 225.117 79.6816 225.117C78.4199 225.117 77.4453 224.734 76.7578 223.969C76.0742 223.203 75.7324 222.115 75.7324 220.705C75.7324 219.822 75.8965 219.049 76.2246 218.385C76.5566 217.721 77.0332 217.209 77.6543 216.85C78.2793 216.49 79.0137 216.311 79.8574 216.311C80.7559 216.311 81.541 216.475 82.2129 216.803L81.791 217.658C81.1426 217.354 80.4941 217.201 79.8457 217.201ZM89.1445 221.783C89.1445 222.83 88.8809 223.648 88.3535 224.238C87.8262 224.824 87.0977 225.117 86.168 225.117C85.5938 225.117 85.084 224.982 84.6387 224.713C84.1934 224.443 83.8496 224.057 83.6074 223.553C83.3652 223.049 83.2441 222.459 83.2441 221.783C83.2441 220.736 83.5059 219.922 84.0293 219.34C84.5527 218.754 85.2793 218.461 86.209 218.461C87.1074 218.461 87.8203 218.76 88.3477 219.357C88.8789 219.955 89.1445 220.764 89.1445 221.783ZM84.252 221.783C84.252 222.604 84.416 223.229 84.7441 223.658C85.0723 224.088 85.5547 224.303 86.1914 224.303C86.8281 224.303 87.3105 224.09 87.6387 223.664C87.9707 223.234 88.1367 222.607 88.1367 221.783C88.1367 220.967 87.9707 220.348 87.6387 219.926C87.3105 219.5 86.8242 219.287 86.1797 219.287C85.543 219.287 85.0625 219.496 84.7383 219.914C84.4141 220.332 84.252 220.955 84.252 221.783ZM91.7695 218.578V222.744C91.7695 223.268 91.8887 223.658 92.127 223.916C92.3652 224.174 92.7383 224.303 93.2461 224.303C93.918 224.303 94.4082 224.119 94.7168 223.752C95.0293 223.385 95.1855 222.785 95.1855 221.953V218.578H96.1582V225H95.3555L95.2148 224.139H95.1621C94.9629 224.455 94.6855 224.697 94.3301 224.865C93.9785 225.033 93.5762 225.117 93.123 225.117C92.3418 225.117 91.7559 224.932 91.3652 224.561C90.9785 224.189 90.7852 223.596 90.7852 222.779V218.578H91.7695ZM102.621 225V220.846C102.621 220.322 102.502 219.932 102.264 219.674C102.025 219.416 101.652 219.287 101.145 219.287C100.473 219.287 99.9805 219.469 99.668 219.832C99.3555 220.195 99.1992 220.795 99.1992 221.631V225H98.2266V218.578H99.0176L99.1758 219.457H99.2227C99.4219 219.141 99.7012 218.896 100.061 218.725C100.42 218.549 100.82 218.461 101.262 218.461C102.035 218.461 102.617 218.648 103.008 219.023C103.398 219.395 103.594 219.99 103.594 220.811V225H102.621ZM107.672 224.314C107.844 224.314 108.01 224.303 108.17 224.279C108.33 224.252 108.457 224.225 108.551 224.197V224.941C108.445 224.992 108.289 225.033 108.082 225.064C107.879 225.1 107.695 225.117 107.531 225.117C106.289 225.117 105.668 224.463 105.668 223.154V219.334H104.748V218.865L105.668 218.461L106.078 217.09H106.641V218.578H108.504V219.334H106.641V223.113C106.641 223.5 106.732 223.797 106.916 224.004C107.1 224.211 107.352 224.314 107.672 224.314ZM112.553 225.117C111.604 225.117 110.854 224.828 110.303 224.25C109.756 223.672 109.482 222.869 109.482 221.842C109.482 220.807 109.736 219.984 110.244 219.375C110.756 218.766 111.441 218.461 112.301 218.461C113.105 218.461 113.742 218.727 114.211 219.258C114.68 219.785 114.914 220.482 114.914 221.35V221.965H110.49C110.51 222.719 110.699 223.291 111.059 223.682C111.422 224.072 111.932 224.268 112.588 224.268C113.279 224.268 113.963 224.123 114.639 223.834V224.701C114.295 224.85 113.969 224.955 113.66 225.018C113.355 225.084 112.986 225.117 112.553 225.117ZM112.289 219.275C111.773 219.275 111.361 219.443 111.053 219.779C110.748 220.115 110.568 220.58 110.514 221.174H113.871C113.871 220.561 113.734 220.092 113.461 219.768C113.188 219.439 112.797 219.275 112.289 219.275ZM119.508 218.461C119.793 218.461 120.049 218.484 120.275 218.531L120.141 219.434C119.875 219.375 119.641 219.346 119.438 219.346C118.918 219.346 118.473 219.557 118.102 219.979C117.734 220.4 117.551 220.926 117.551 221.555V225H116.578V218.578H117.381L117.492 219.768H117.539C117.777 219.35 118.064 219.027 118.4 218.801C118.736 218.574 119.105 218.461 119.508 218.461ZM124.465 225.117C124.047 225.117 123.664 225.041 123.316 224.889C122.973 224.732 122.684 224.494 122.449 224.174H122.379C122.426 224.549 122.449 224.904 122.449 225.24V227.883H121.477V218.578H122.268L122.402 219.457H122.449C122.699 219.105 122.99 218.852 123.322 218.695C123.654 218.539 124.035 218.461 124.465 218.461C125.316 218.461 125.973 218.752 126.434 219.334C126.898 219.916 127.131 220.732 127.131 221.783C127.131 222.838 126.895 223.658 126.422 224.244C125.953 224.826 125.301 225.117 124.465 225.117ZM124.324 219.287C123.668 219.287 123.193 219.469 122.9 219.832C122.607 220.195 122.457 220.773 122.449 221.566V221.783C122.449 222.686 122.6 223.332 122.9 223.723C123.201 224.109 123.684 224.303 124.348 224.303C124.902 224.303 125.336 224.078 125.648 223.629C125.965 223.18 126.123 222.561 126.123 221.771C126.123 220.971 125.965 220.357 125.648 219.932C125.336 219.502 124.895 219.287 124.324 219.287ZM132.785 225L132.592 224.086H132.545C132.225 224.488 131.904 224.762 131.584 224.906C131.268 225.047 130.871 225.117 130.395 225.117C129.758 225.117 129.258 224.953 128.895 224.625C128.535 224.297 128.355 223.83 128.355 223.225C128.355 221.928 129.393 221.248 131.467 221.186L132.557 221.15V220.752C132.557 220.248 132.447 219.877 132.229 219.639C132.014 219.396 131.668 219.275 131.191 219.275C130.656 219.275 130.051 219.439 129.375 219.768L129.076 219.023C129.393 218.852 129.738 218.717 130.113 218.619C130.492 218.521 130.871 218.473 131.25 218.473C132.016 218.473 132.582 218.643 132.949 218.982C133.32 219.322 133.506 219.867 133.506 220.617V225H132.785ZM130.588 224.314C131.193 224.314 131.668 224.148 132.012 223.816C132.359 223.484 132.533 223.02 132.533 222.422V221.842L131.561 221.883C130.787 221.91 130.229 222.031 129.885 222.246C129.545 222.457 129.375 222.787 129.375 223.236C129.375 223.588 129.48 223.855 129.691 224.039C129.906 224.223 130.205 224.314 130.588 224.314ZM138.445 218.461C138.73 218.461 138.986 218.484 139.213 218.531L139.078 219.434C138.812 219.375 138.578 219.346 138.375 219.346C137.855 219.346 137.41 219.557 137.039 219.979C136.672 220.4 136.488 220.926 136.488 221.555V225H135.516V218.578H136.318L136.43 219.768H136.477C136.715 219.35 137.002 219.027 137.338 218.801C137.674 218.574 138.043 218.461 138.445 218.461ZM142.488 224.314C142.66 224.314 142.826 224.303 142.986 224.279C143.146 224.252 143.273 224.225 143.367 224.197V224.941C143.262 224.992 143.105 225.033 142.898 225.064C142.695 225.1 142.512 225.117 142.348 225.117C141.105 225.117 140.484 224.463 140.484 223.154V219.334H139.564V218.865L140.484 218.461L140.895 217.09H141.457V218.578H143.32V219.334H141.457V223.113C141.457 223.5 141.549 223.797 141.732 224.004C141.916 224.211 142.168 224.314 142.488 224.314ZM145.629 225H144.656V218.578H145.629V225ZM144.574 216.838C144.574 216.615 144.629 216.453 144.738 216.352C144.848 216.246 144.984 216.193 145.148 216.193C145.305 216.193 145.439 216.246 145.553 216.352C145.666 216.457 145.723 216.619 145.723 216.838C145.723 217.057 145.666 217.221 145.553 217.33C145.439 217.436 145.305 217.488 145.148 217.488C144.984 217.488 144.848 217.436 144.738 217.33C144.629 217.221 144.574 217.057 144.574 216.838ZM150.404 225.117C149.455 225.117 148.705 224.828 148.154 224.25C147.607 223.672 147.334 222.869 147.334 221.842C147.334 220.807 147.588 219.984 148.096 219.375C148.607 218.766 149.293 218.461 150.152 218.461C150.957 218.461 151.594 218.727 152.062 219.258C152.531 219.785 152.766 220.482 152.766 221.35V221.965H148.342C148.361 222.719 148.551 223.291 148.91 223.682C149.273 224.072 149.783 224.268 150.439 224.268C151.131 224.268 151.814 224.123 152.49 223.834V224.701C152.146 224.85 151.82 224.955 151.512 225.018C151.207 225.084 150.838 225.117 150.404 225.117ZM150.141 219.275C149.625 219.275 149.213 219.443 148.904 219.779C148.6 220.115 148.42 220.58 148.365 221.174H151.723C151.723 220.561 151.586 220.092 151.312 219.768C151.039 219.439 150.648 219.275 150.141 219.275ZM158.572 223.248C158.572 223.846 158.35 224.307 157.904 224.631C157.459 224.955 156.834 225.117 156.029 225.117C155.178 225.117 154.514 224.982 154.037 224.713V223.811C154.346 223.967 154.676 224.09 155.027 224.18C155.383 224.27 155.725 224.314 156.053 224.314C156.561 224.314 156.951 224.234 157.225 224.074C157.498 223.91 157.635 223.662 157.635 223.33C157.635 223.08 157.525 222.867 157.307 222.691C157.092 222.512 156.67 222.301 156.041 222.059C155.443 221.836 155.018 221.643 154.764 221.479C154.514 221.311 154.326 221.121 154.201 220.91C154.08 220.699 154.02 220.447 154.02 220.154C154.02 219.631 154.232 219.219 154.658 218.918C155.084 218.613 155.668 218.461 156.41 218.461C157.102 218.461 157.777 218.602 158.438 218.883L158.092 219.674C157.447 219.408 156.863 219.275 156.34 219.275C155.879 219.275 155.531 219.348 155.297 219.492C155.062 219.637 154.945 219.836 154.945 220.09C154.945 220.262 154.988 220.408 155.074 220.529C155.164 220.65 155.307 220.766 155.502 220.875C155.697 220.984 156.072 221.143 156.627 221.35C157.389 221.627 157.902 221.906 158.168 222.188C158.438 222.469 158.572 222.822 158.572 223.248Z" class="path-10"/>
<path d="M47 71L47 121" class="path-11"/>
<path d="M47 161L47 250" class="path-12"/>
<path d="M47 297L47 323" class="path-13"/>
<circle cx="47" cy="277" r="11.5" class="circle-3"/>
<path d="M49.584 274.402C49.584 274.945 49.4258 275.398 49.1094 275.762C48.793 276.121 48.3477 276.363 47.7734 276.488V276.535C48.4609 276.621 48.9766 276.836 49.3203 277.18C49.6641 277.52 49.8359 277.973 49.8359 278.539C49.8359 279.363 49.5449 280 48.9629 280.449C48.3809 280.895 47.5527 281.117 46.4785 281.117C45.5293 281.117 44.7285 280.963 44.0762 280.654V279.43C44.4395 279.609 44.8242 279.748 45.2305 279.846C45.6367 279.943 46.0273 279.992 46.4023 279.992C47.0664 279.992 47.5625 279.869 47.8906 279.623C48.2188 279.377 48.3828 278.996 48.3828 278.48C48.3828 278.023 48.2012 277.688 47.8379 277.473C47.4746 277.258 46.9043 277.15 46.127 277.15H45.3828V276.031H46.1387C47.5059 276.031 48.1895 275.559 48.1895 274.613C48.1895 274.246 48.0703 273.963 47.832 273.764C47.5938 273.564 47.2422 273.465 46.7773 273.465C46.4531 273.465 46.1406 273.512 45.8398 273.605C45.5391 273.695 45.1836 273.873 44.7734 274.139L44.0996 273.178C44.8848 272.6 45.7969 272.311 46.8359 272.311C47.6992 272.311 48.373 272.496 48.8574 272.867C49.3418 273.238 49.584 273.75 49.584 274.402Z" class="path-14"/>
<path d="M82.9365 275.527C82.9365 276.571 82.5947 277.371 81.9111 277.927C81.2275 278.483 80.2546 278.761 78.9922 278.761H77.9531V282.5H76.3193V272.506H79.1973C80.446 272.506 81.3802 272.761 82 273.271C82.6243 273.782 82.9365 274.534 82.9365 275.527ZM77.9531 277.387H78.8213C79.6598 277.387 80.2751 277.241 80.667 276.949C81.0589 276.658 81.2549 276.202 81.2549 275.582C81.2549 275.008 81.0794 274.579 80.7285 274.297C80.3776 274.014 79.8307 273.873 79.0879 273.873H77.9531V277.387ZM91.4678 278.706C91.4678 279.941 91.151 280.905 90.5176 281.598C89.8841 282.29 89.0023 282.637 87.8721 282.637C87.1657 282.637 86.5413 282.477 85.999 282.158C85.4567 281.839 85.0397 281.381 84.748 280.784C84.4564 280.187 84.3105 279.494 84.3105 278.706C84.3105 277.48 84.625 276.523 85.2539 275.835C85.8828 275.147 86.7692 274.803 87.9131 274.803C89.0068 274.803 89.8727 275.156 90.5107 275.862C91.1488 276.564 91.4678 277.512 91.4678 278.706ZM85.9648 278.706C85.9648 280.451 86.6097 281.324 87.8994 281.324C89.1755 281.324 89.8135 280.451 89.8135 278.706C89.8135 276.979 89.1709 276.115 87.8857 276.115C87.2113 276.115 86.7214 276.339 86.416 276.785C86.1152 277.232 85.9648 277.872 85.9648 278.706ZM94.9268 282.5H93.3203V271.863H94.9268V282.5ZM98.8369 282.5H97.2305V274.939H98.8369V282.5ZM97.1348 272.937C97.1348 272.649 97.2122 272.428 97.3672 272.273C97.5267 272.118 97.7523 272.041 98.0439 272.041C98.3265 272.041 98.5452 272.118 98.7002 272.273C98.8597 272.428 98.9395 272.649 98.9395 272.937C98.9395 273.21 98.8597 273.426 98.7002 273.586C98.5452 273.741 98.3265 273.818 98.0439 273.818C97.7523 273.818 97.5267 273.741 97.3672 273.586C97.2122 273.426 97.1348 273.21 97.1348 272.937ZM104.189 282.637C103.046 282.637 102.175 282.304 101.578 281.639C100.986 280.969 100.689 280.009 100.689 278.761C100.689 277.489 100.999 276.512 101.619 275.828C102.243 275.145 103.144 274.803 104.319 274.803C105.117 274.803 105.835 274.951 106.473 275.247L105.987 276.539C105.308 276.275 104.748 276.143 104.306 276.143C102.998 276.143 102.344 277.011 102.344 278.747C102.344 279.595 102.506 280.233 102.829 280.661C103.157 281.085 103.636 281.297 104.265 281.297C104.98 281.297 105.657 281.119 106.295 280.764V282.165C106.008 282.334 105.7 282.454 105.372 282.527C105.049 282.6 104.654 282.637 104.189 282.637ZM106.924 274.939H108.674L110.212 279.226C110.444 279.836 110.599 280.41 110.677 280.948H110.731C110.772 280.698 110.848 280.395 110.957 280.039C111.066 279.679 111.645 277.979 112.693 274.939H114.43L111.196 283.505C110.608 285.077 109.629 285.863 108.257 285.863C107.901 285.863 107.555 285.825 107.218 285.747V284.476C107.459 284.53 107.735 284.558 108.045 284.558C108.82 284.558 109.364 284.109 109.679 283.211L109.959 282.5L106.924 274.939Z" class="path-15"/>
<circle cx="47" cy="343" r="11.5" class="circle-4"/>
<path d="M50.2109 345.131H49.0566V347H47.7148V345.131H43.8008V344.07L47.7148 338.41H49.0566V343.988H50.2109V345.131ZM47.7148 343.988V341.838C47.7148 341.072 47.7344 340.445 47.7734 339.957H47.7266C47.6172 340.215 47.4453 340.527 47.2109 340.895L45.084 343.988H47.7148Z" class="path-16"/>
<path d="M82.9365 341.527C82.9365 342.571 82.5947 343.371 81.9111 343.927C81.2275 344.483 80.2546 344.761 78.9922 344.761H77.9531V348.5H76.3193V338.506H79.1973C80.446 338.506 81.3802 338.761 82 339.271C82.6243 339.782 82.9365 340.534 82.9365 341.527ZM77.9531 343.387H78.8213C79.6598 343.387 80.2751 343.241 80.667 342.949C81.0589 342.658 81.2549 342.202 81.2549 341.582C81.2549 341.008 81.0794 340.579 80.7285 340.297C80.3776 340.014 79.8307 339.873 79.0879 339.873H77.9531V343.387ZM88.5967 340.803C88.9202 340.803 89.1868 340.826 89.3965 340.871L89.2393 342.368C89.0114 342.313 88.7744 342.286 88.5283 342.286C87.8857 342.286 87.3639 342.496 86.9629 342.915C86.5664 343.334 86.3682 343.879 86.3682 344.549V348.5H84.7617V340.939H86.0195L86.2314 342.272H86.3135C86.5641 341.821 86.89 341.464 87.291 341.199C87.6966 340.935 88.1318 340.803 88.5967 340.803ZM94.1064 348.637C92.9307 348.637 92.0101 348.295 91.3447 347.611C90.6839 346.923 90.3535 345.978 90.3535 344.774C90.3535 343.539 90.6611 342.569 91.2764 341.862C91.8916 341.156 92.737 340.803 93.8125 340.803C94.8105 340.803 95.599 341.106 96.1777 341.712C96.7565 342.318 97.0459 343.152 97.0459 344.214V345.082H92.0078C92.0306 345.816 92.2288 346.381 92.6025 346.777C92.9762 347.169 93.5026 347.365 94.1816 347.365C94.6283 347.365 95.043 347.324 95.4258 347.242C95.8132 347.156 96.2279 347.014 96.6699 346.818V348.124C96.278 348.311 95.8815 348.443 95.4805 348.521C95.0794 348.598 94.6214 348.637 94.1064 348.637ZM93.8125 342.02C93.3021 342.02 92.8919 342.181 92.582 342.505C92.2767 342.828 92.0944 343.3 92.0352 343.92H95.4668C95.4577 343.296 95.3073 342.824 95.0156 342.505C94.724 342.181 94.3229 342.02 93.8125 342.02ZM100.594 348.5L97.7227 340.939H99.418L100.956 345.335C101.22 346.073 101.38 346.67 101.435 347.126H101.489C101.53 346.798 101.69 346.201 101.968 345.335L103.506 340.939H105.215L102.33 348.5H100.594ZM107.97 348.5H106.363V340.939H107.97V348.5ZM106.268 338.937C106.268 338.649 106.345 338.428 106.5 338.273C106.66 338.118 106.885 338.041 107.177 338.041C107.459 338.041 107.678 338.118 107.833 338.273C107.993 338.428 108.072 338.649 108.072 338.937C108.072 339.21 107.993 339.426 107.833 339.586C107.678 339.741 107.459 339.818 107.177 339.818C106.885 339.818 106.66 339.741 106.5 339.586C106.345 339.426 106.268 339.21 106.268 338.937ZM113.575 348.637C112.399 348.637 111.479 348.295 110.813 347.611C110.153 346.923 109.822 345.978 109.822 344.774C109.822 343.539 110.13 342.569 110.745 341.862C111.36 341.156 112.206 340.803 113.281 340.803C114.279 340.803 115.068 341.106 115.646 341.712C116.225 342.318 116.515 343.152 116.515 344.214V345.082H111.477C111.499 345.816 111.698 346.381 112.071 346.777C112.445 347.169 112.971 347.365 113.65 347.365C114.097 347.365 114.512 347.324 114.895 347.242C115.282 347.156 115.697 347.014 116.139 346.818V348.124C115.747 348.311 115.35 348.443 114.949 348.521C114.548 348.598 114.09 348.637 113.575 348.637ZM113.281 342.02C112.771 342.02 112.361 342.181 112.051 342.505C111.745 342.828 111.563 343.3 111.504 343.92H114.936C114.926 343.296 114.776 342.824 114.484 342.505C114.193 342.181 113.792 342.02 113.281 342.02ZM124.54 348.5L123.562 344.973C123.444 344.599 123.23 343.731 122.92 342.368H122.858C122.594 343.599 122.384 344.471 122.229 344.986L121.225 348.5H119.447L117.328 340.939H118.969L119.933 344.665C120.151 345.586 120.306 346.374 120.397 347.03H120.438C120.484 346.698 120.552 346.317 120.644 345.889C120.739 345.456 120.821 345.132 120.89 344.918L122.038 340.939H123.802L124.916 344.918C124.984 345.141 125.069 345.483 125.169 345.943C125.274 346.404 125.335 346.761 125.354 347.017H125.408C125.477 346.456 125.636 345.672 125.887 344.665L126.864 340.939H128.478L126.345 348.5H124.54Z" class="path-17"/>
<defs>
<filter id="filter0_d_21428_72850" x="0.682432" y="0.227477" width="298.635" height="402.635" filterUnits="userSpaceOnUse" color-interpolation-filters="sRGB">
<feFlood flood-opacity="0" result="BackgroundImageFix"/>
<feColorMatrix in="SourceAlpha" type="matrix" values="0 0 0 0 0 0 0 0 0 0 0 0 0 0 0 0 0 0 127 0" result="hardAlpha"/>
<feOffset dy="1.54505"/>
<feGaussianBlur stdDeviation="1.15878"/>
<feColorMatrix type="matrix" values="0 0 0 0 0 0 0 0 0 0 0 0 0 0 0 0 0 0 0.06 0"/>
<feBlend mode="normal" in2="BackgroundImageFix" result="effect1_dropShadow_21428_72850"/>
<feBlend mode="normal" in="SourceGraphic" in2="effect1_dropShadow_21428_72850" result="shape"/>
</filter>
</defs>
</svg>
