<svg width="346" height="403" viewBox="0 0 346 403" fill="none" xmlns="http://www.w3.org/2000/svg">
<g filter="url(#filter0_d_21428_72863)">
<rect x="3" y="1" width="340" height="398" rx="2.31757" class="rect-1"/>
<rect x="3.38626" y="1.38626" width="339.227" height="397.227" rx="1.93131" stroke-width="0.772523" class="rect-2"/>
</g>
<path d="M116.75 30.4715H119.045L114.307 44H111.976L107.256 30.4715H109.533L112.355 38.8829C112.503 39.2838 112.66 39.802 112.827 40.4374C112.994 41.0667 113.101 41.5355 113.151 41.844C113.231 41.3751 113.354 40.8322 113.521 40.2154C113.688 39.5985 113.823 39.142 113.928 38.8458L116.75 30.4715ZM129.677 38.8644C129.677 40.5361 129.249 41.8409 128.391 42.7785C127.534 43.7162 126.34 44.1851 124.81 44.1851C123.854 44.1851 123.009 43.9692 122.275 43.5373C121.541 43.1055 120.976 42.4855 120.581 41.6774C120.187 40.8693 119.989 39.9316 119.989 38.8644C119.989 37.2049 120.415 35.9094 121.266 34.9779C122.117 34.0464 123.317 33.5806 124.866 33.5806C126.346 33.5806 127.518 34.0587 128.382 35.0149C129.246 35.9649 129.677 37.2481 129.677 38.8644ZM122.228 38.8644C122.228 41.2271 123.101 42.4084 124.847 42.4084C126.574 42.4084 127.438 41.2271 127.438 38.8644C127.438 36.5263 126.568 35.3573 124.829 35.3573C123.916 35.3573 123.252 35.6596 122.839 36.2641C122.432 36.8687 122.228 37.7354 122.228 38.8644ZM135.998 42.4269C136.528 42.4269 137.059 42.3436 137.589 42.1771V43.8149C137.349 43.9198 137.037 44.0062 136.655 44.074C136.278 44.1481 135.886 44.1851 135.479 44.1851C133.419 44.1851 132.389 43.0993 132.389 40.9279V35.4128H130.991V34.4505L132.49 33.6547L133.231 31.4894H134.572V33.7657H137.487V35.4128H134.572V40.8909C134.572 41.4152 134.702 41.8039 134.961 42.0568C135.226 42.3035 135.572 42.4269 135.998 42.4269ZM141.818 44H139.643V33.7657H141.818V44ZM139.514 31.0545C139.514 30.6658 139.619 30.3666 139.828 30.1569C140.044 29.9471 140.35 29.8423 140.745 29.8423C141.127 29.8423 141.423 29.9471 141.633 30.1569C141.849 30.3666 141.957 30.6658 141.957 31.0545C141.957 31.4246 141.849 31.7176 141.633 31.9335C141.423 32.1433 141.127 32.2482 140.745 32.2482C140.35 32.2482 140.044 32.1433 139.828 31.9335C139.619 31.7176 139.514 31.4246 139.514 31.0545ZM153.94 44H151.756V37.7077C151.756 36.918 151.596 36.3289 151.275 35.9403C150.96 35.5516 150.458 35.3573 149.767 35.3573C148.847 35.3573 148.175 35.6287 147.749 36.1716C147.324 36.7145 147.111 37.6244 147.111 38.9014V44H144.936V33.7657H146.639L146.944 35.1075H147.055C147.364 34.6201 147.802 34.2438 148.369 33.9785C148.937 33.7133 149.566 33.5806 150.257 33.5806C152.712 33.5806 153.94 34.8299 153.94 37.3283V44ZM165.608 33.7657V34.9594L163.86 35.2833C164.02 35.4992 164.153 35.7645 164.257 36.0791C164.362 36.3937 164.415 36.7268 164.415 37.0784C164.415 38.1333 164.051 38.9631 163.323 39.5676C162.595 40.1722 161.592 40.4744 160.316 40.4744C159.989 40.4744 159.692 40.4498 159.427 40.4004C158.958 40.6904 158.724 41.0297 158.724 41.4183C158.724 41.6527 158.832 41.8285 159.048 41.9457C159.27 42.063 159.674 42.1216 160.26 42.1216H162.046C163.175 42.1216 164.032 42.3621 164.618 42.8433C165.204 43.3245 165.497 44.0185 165.497 44.9253C165.497 46.0851 165.019 46.9796 164.063 47.6088C163.107 48.2381 161.725 48.5527 159.918 48.5527C158.523 48.5527 157.459 48.3059 156.725 47.8124C155.991 47.3189 155.624 46.6156 155.624 45.7026C155.624 45.0734 155.821 44.5429 156.216 44.111C156.617 43.6854 157.176 43.3893 157.891 43.2227C157.601 43.0993 157.361 42.9019 157.169 42.6305C156.984 42.3529 156.892 42.063 156.892 41.7607C156.892 41.3782 157 41.0543 157.216 40.7891C157.432 40.5238 157.752 40.2616 158.178 40.0025C157.647 39.7743 157.216 39.4041 156.882 38.8921C156.556 38.3739 156.392 37.7694 156.392 37.0784C156.392 35.968 156.741 35.1075 157.438 34.4967C158.141 33.886 159.14 33.5806 160.436 33.5806C160.726 33.5806 161.028 33.6022 161.343 33.6454C161.663 33.6824 161.904 33.7225 162.064 33.7657H165.608ZM157.567 45.5916C157.567 46.0604 157.777 46.4213 158.196 46.6742C158.622 46.9272 159.217 47.0536 159.982 47.0536C161.167 47.0536 162.049 46.884 162.629 46.5447C163.209 46.2054 163.499 45.7551 163.499 45.1937C163.499 44.7495 163.338 44.4318 163.018 44.2406C162.703 44.0555 162.114 43.963 161.25 43.963H159.603C158.98 43.963 158.483 44.108 158.113 44.3979C157.749 44.694 157.567 45.0919 157.567 45.5916ZM158.502 37.0784C158.502 37.72 158.665 38.2135 158.992 38.559C159.325 38.9044 159.8 39.0772 160.417 39.0772C161.676 39.0772 162.305 38.4048 162.305 37.0599C162.305 36.3937 162.148 35.8817 161.833 35.5239C161.525 35.1599 161.053 34.9779 160.417 34.9779C159.788 34.9779 159.31 35.1568 158.983 35.5146C158.662 35.8724 158.502 36.3937 158.502 37.0784ZM181.515 38.8644C181.515 40.5361 181.086 41.8409 180.229 42.7785C179.371 43.7162 178.178 44.1851 176.648 44.1851C175.692 44.1851 174.846 43.9692 174.112 43.5373C173.378 43.1055 172.814 42.4855 172.419 41.6774C172.024 40.8693 171.827 39.9316 171.827 38.8644C171.827 37.2049 172.252 35.9094 173.104 34.9779C173.955 34.0464 175.155 33.5806 176.703 33.5806C178.184 33.5806 179.356 34.0587 180.22 35.0149C181.083 35.9649 181.515 37.2481 181.515 38.8644ZM174.066 38.8644C174.066 41.2271 174.939 42.4084 176.685 42.4084C178.412 42.4084 179.276 41.2271 179.276 38.8644C179.276 36.5263 178.406 35.3573 176.666 35.3573C175.753 35.3573 175.09 35.6596 174.677 36.2641C174.27 36.8687 174.066 37.7354 174.066 38.8644ZM189.214 44.1851C187.918 44.1851 186.913 43.7193 186.197 42.7878H186.068C186.154 43.6515 186.197 44.1758 186.197 44.3609V48.5527H184.023V33.7657H185.781C185.83 33.957 185.932 34.4135 186.086 35.1352H186.197C186.876 34.0988 187.894 33.5806 189.251 33.5806C190.528 33.5806 191.521 34.0433 192.231 34.9687C192.946 35.894 193.304 37.1926 193.304 38.8644C193.304 40.5361 192.94 41.8409 192.212 42.7785C191.49 43.7162 190.491 44.1851 189.214 44.1851ZM188.687 35.3573C187.823 35.3573 187.191 35.6102 186.79 36.1161C186.395 36.6219 186.197 37.4301 186.197 38.5405V38.8644C186.197 40.1105 186.395 41.0142 186.79 41.5756C187.184 42.1308 187.829 42.4084 188.724 42.4084C189.476 42.4084 190.056 42.1 190.463 41.4831C190.87 40.8662 191.074 39.9871 191.074 38.8458C191.074 37.6984 190.87 36.8317 190.463 36.2456C190.062 35.6534 189.47 35.3573 188.687 35.3573ZM199.643 42.4269C200.173 42.4269 200.704 42.3436 201.234 42.1771V43.8149C200.994 43.9198 200.682 44.0062 200.3 44.074C199.923 44.1481 199.532 44.1851 199.124 44.1851C197.064 44.1851 196.034 43.0993 196.034 40.9279V35.4128H194.636V34.4505L196.136 33.6547L196.876 31.4894H198.218V33.7657H201.132V35.4128H198.218V40.8909C198.218 41.4152 198.347 41.8039 198.606 42.0568C198.871 42.3035 199.217 42.4269 199.643 42.4269ZM205.463 44H203.288V33.7657H205.463V44ZM203.159 31.0545C203.159 30.6658 203.264 30.3666 203.473 30.1569C203.689 29.9471 203.995 29.8423 204.39 29.8423C204.772 29.8423 205.068 29.9471 205.278 30.1569C205.494 30.3666 205.602 30.6658 205.602 31.0545C205.602 31.4246 205.494 31.7176 205.278 31.9335C205.068 32.1433 204.772 32.2482 204.39 32.2482C203.995 32.2482 203.689 32.1433 203.473 31.9335C203.264 31.7176 203.159 31.4246 203.159 31.0545ZM217.659 38.8644C217.659 40.5361 217.23 41.8409 216.373 42.7785C215.515 43.7162 214.322 44.1851 212.792 44.1851C211.835 44.1851 210.99 43.9692 210.256 43.5373C209.522 43.1055 208.958 42.4855 208.563 41.6774C208.168 40.8693 207.971 39.9316 207.971 38.8644C207.971 37.2049 208.396 35.9094 209.248 34.9779C210.099 34.0464 211.299 33.5806 212.847 33.5806C214.328 33.5806 215.5 34.0587 216.363 35.0149C217.227 35.9649 217.659 37.2481 217.659 38.8644ZM210.21 38.8644C210.21 41.2271 211.083 42.4084 212.829 42.4084C214.556 42.4084 215.42 41.2271 215.42 38.8644C215.42 36.5263 214.55 35.3573 212.81 35.3573C211.897 35.3573 211.234 35.6596 210.821 36.2641C210.414 36.8687 210.21 37.7354 210.21 38.8644ZM229.17 44H226.986V37.7077C226.986 36.918 226.826 36.3289 226.505 35.9403C226.191 35.5516 225.688 35.3573 224.997 35.3573C224.078 35.3573 223.405 35.6287 222.98 36.1716C222.554 36.7145 222.341 37.6244 222.341 38.9014V44H220.167V33.7657H221.869L222.175 35.1075H222.286C222.594 34.6201 223.032 34.2438 223.6 33.9785C224.167 33.7133 224.796 33.5806 225.487 33.5806C227.943 33.5806 229.17 34.8299 229.17 37.3283V44ZM239.071 41.0852C239.071 42.0845 238.707 42.8526 237.979 43.3893C237.252 43.9198 236.209 44.1851 234.852 44.1851C233.488 44.1851 232.393 43.9784 231.567 43.5651V41.6866C232.77 42.2418 233.889 42.5195 234.926 42.5195C236.265 42.5195 236.934 42.1154 236.934 41.3073C236.934 41.0482 236.86 40.8322 236.712 40.6595C236.564 40.4868 236.32 40.3079 235.981 40.1228C235.641 39.9377 235.17 39.728 234.565 39.4936C233.387 39.0371 232.588 38.5806 232.168 38.1241C231.755 37.6676 231.548 37.0754 231.548 36.3474C231.548 35.4714 231.9 34.7928 232.603 34.3117C233.313 33.8243 234.275 33.5806 235.49 33.5806C236.693 33.5806 237.831 33.8243 238.905 34.3117L238.202 35.9495C237.097 35.493 236.169 35.2648 235.416 35.2648C234.269 35.2648 233.695 35.5917 233.695 36.2456C233.695 36.5664 233.843 36.8379 234.139 37.0599C234.442 37.282 235.095 37.5874 236.101 37.976C236.946 38.303 237.56 38.6022 237.942 38.8736C238.325 39.145 238.609 39.4597 238.794 39.8175C238.979 40.1691 239.071 40.5917 239.071 41.0852Z" class="path-1"/>
<rect x="36.3948" y="214.801" width="273.21" height="34.7435" rx="1.97406" stroke-width="0.789625" class="rect-3"/>
<path d="M55.5924 228.914C55.5924 229.827 55.2798 230.53 54.6547 231.023C54.0337 231.513 53.1433 231.758 51.9835 231.758H50.9225V235.305H49.8737V226.286H52.2118C54.4655 226.286 55.5924 227.162 55.5924 228.914ZM50.9225 230.857H51.8663C52.7958 230.857 53.4682 230.707 53.8836 230.407C54.2989 230.106 54.5066 229.625 54.5066 228.963C54.5066 228.367 54.3113 227.923 53.9206 227.631C53.5299 227.339 52.9212 227.193 52.0946 227.193H50.9225V230.857ZM61.4899 235.305L61.2863 234.342H61.237C60.8997 234.766 60.5625 235.054 60.2252 235.206C59.8921 235.354 59.4747 235.428 58.9729 235.428C58.3026 235.428 57.7762 235.255 57.3937 234.91C57.0153 234.564 56.8262 234.073 56.8262 233.435C56.8262 232.07 57.9181 231.355 60.1019 231.289L61.2493 231.252V230.832C61.2493 230.302 61.1341 229.911 60.9038 229.66C60.6776 229.405 60.3137 229.278 59.8119 229.278C59.2485 229.278 58.611 229.45 57.8995 229.796L57.5849 229.012C57.9181 228.831 58.282 228.69 58.6768 228.587C59.0758 228.484 59.4747 228.432 59.8736 228.432C60.6797 228.432 61.276 228.611 61.6626 228.969C62.0533 229.327 62.2487 229.901 62.2487 230.69V235.305H61.4899ZM59.1765 234.583C59.814 234.583 60.3137 234.408 60.6756 234.059C61.0416 233.709 61.2246 233.22 61.2246 232.59V231.98L60.2006 232.023C59.3863 232.052 58.7982 232.179 58.4362 232.405C58.0784 232.627 57.8995 232.975 57.8995 233.448C57.8995 233.818 58.0106 234.1 58.2327 234.293C58.4589 234.486 58.7735 234.583 59.1765 234.583ZM63.2912 228.544H64.3893L65.8698 232.399C66.1947 233.279 66.3962 233.915 66.4744 234.305H66.5237C66.5772 234.096 66.6882 233.738 66.8569 233.232C67.0296 232.722 67.5889 231.159 68.5348 228.544H69.6329L66.7273 236.242C66.4394 237.003 66.1022 237.542 65.7156 237.859C65.3331 238.179 64.8622 238.34 64.3029 238.34C63.9904 238.34 63.6819 238.305 63.3776 238.235V237.414C63.6038 237.464 63.8567 237.488 64.1364 237.488C64.8396 237.488 65.3414 237.094 65.6416 236.304L66.0179 235.342L63.2912 228.544ZM79.4724 235.305H73.544V234.423L75.919 232.035C76.6429 231.303 77.1199 230.781 77.3502 230.468C77.5805 230.156 77.7533 229.851 77.8684 229.555C77.9836 229.259 78.0412 228.94 78.0412 228.599C78.0412 228.118 77.8952 227.737 77.6032 227.458C77.3112 227.174 76.9061 227.032 76.3879 227.032C76.0136 227.032 75.6579 227.094 75.3207 227.217C74.9875 227.341 74.6153 227.565 74.2041 227.89L73.6612 227.193C74.492 226.502 75.3967 226.156 76.3755 226.156C77.2228 226.156 77.8869 226.374 78.3681 226.81C78.8493 227.242 79.0899 227.824 79.0899 228.556C79.0899 229.128 78.9295 229.693 78.6087 230.252C78.2879 230.812 77.6875 231.519 76.8074 232.374L74.8333 234.305V234.355H79.4724V235.305ZM83.5932 229.796C84.5432 229.796 85.2897 230.032 85.8325 230.505C86.3795 230.974 86.653 231.618 86.653 232.436C86.653 233.37 86.3549 234.102 85.7585 234.632C85.1663 235.163 84.3479 235.428 83.3033 235.428C82.2875 235.428 81.5122 235.266 80.9776 234.941V233.954C81.2655 234.139 81.6233 234.285 82.051 234.392C82.4787 234.494 82.9002 234.546 83.3156 234.546C84.0394 234.546 84.6008 234.375 84.9997 234.034C85.4028 233.693 85.6043 233.199 85.6043 232.553C85.6043 231.295 84.8332 230.666 83.2909 230.666C82.9002 230.666 82.3779 230.725 81.724 230.845L81.1935 230.505L81.5328 226.286H86.0176V227.23H82.4088L82.1805 229.938C82.6535 229.843 83.1244 229.796 83.5932 229.796ZM93.9817 230.783C93.9817 232.342 93.735 233.505 93.2415 234.274C92.7521 235.044 92.0015 235.428 90.9898 235.428C90.0192 235.428 89.281 235.035 88.7751 234.25C88.2693 233.46 88.0164 232.305 88.0164 230.783C88.0164 229.212 88.2611 228.046 88.7505 227.285C89.2399 226.524 89.9863 226.144 90.9898 226.144C91.9686 226.144 92.7109 226.541 93.2168 227.334C93.7267 228.128 93.9817 229.278 93.9817 230.783ZM89.0527 230.783C89.0527 232.095 89.207 233.051 89.5154 233.651C89.8239 234.248 90.3153 234.546 90.9898 234.546C91.6725 234.546 92.166 234.244 92.4703 233.639C92.7788 233.03 92.933 232.078 92.933 230.783C92.933 229.487 92.7788 228.539 92.4703 227.939C92.166 227.334 91.6725 227.032 90.9898 227.032C90.3153 227.032 89.8239 227.33 89.5154 227.927C89.207 228.519 89.0527 229.471 89.0527 230.783ZM106.338 230.709C106.338 232.198 105.933 233.337 105.123 234.126C104.317 234.912 103.155 235.305 101.637 235.305H99.139V226.286H101.903C103.305 226.286 104.395 226.674 105.172 227.452C105.949 228.229 106.338 229.315 106.338 230.709ZM105.228 230.746C105.228 229.57 104.932 228.683 104.339 228.087C103.751 227.491 102.875 227.193 101.711 227.193H100.188V234.398H101.465C102.715 234.398 103.655 234.091 104.284 233.479C104.913 232.862 105.228 231.951 105.228 230.746ZM114.025 235.305L112.902 232.436H109.287L108.176 235.305H107.115L110.681 226.249H111.563L115.11 235.305H114.025ZM112.575 231.492L111.526 228.698C111.39 228.344 111.251 227.91 111.107 227.396C111.016 227.791 110.887 228.225 110.718 228.698L109.657 231.492H112.575ZM116.35 235.305V226.286H117.399V235.305H116.35Z" class="path-2"/>
<path d="M41.5922 194.827H42.58L39.7353 202.719H38.8285L36 194.827H36.9716L38.7853 199.933C38.994 200.52 39.1595 201.09 39.2819 201.645C39.4114 201.062 39.5806 200.48 39.7893 199.901L41.5922 194.827ZM48.6417 199.755C48.6417 200.72 48.3988 201.474 47.913 202.017C47.4272 202.557 46.7561 202.827 45.8996 202.827C45.3706 202.827 44.901 202.703 44.4908 202.454C44.0806 202.206 43.7639 201.85 43.5408 201.385C43.3177 200.921 43.2061 200.378 43.2061 199.755C43.2061 198.791 43.4472 198.041 43.9294 197.504C44.4116 196.965 45.0809 196.695 45.9374 196.695C46.7651 196.695 47.4218 196.97 47.9076 197.521C48.397 198.071 48.6417 198.816 48.6417 199.755ZM44.1345 199.755C44.1345 200.511 44.2857 201.087 44.5879 201.483C44.8902 201.878 45.3346 202.076 45.9212 202.076C46.5078 202.076 46.9522 201.88 47.2545 201.488C47.5604 201.092 47.7133 200.515 47.7133 199.755C47.7133 199.003 47.5604 198.433 47.2545 198.044C46.9522 197.652 46.5042 197.456 45.9104 197.456C45.3239 197.456 44.8812 197.648 44.5825 198.033C44.2839 198.418 44.1345 198.992 44.1345 199.755ZM52.1287 202.087C52.2871 202.087 52.44 202.076 52.5875 202.055C52.7351 202.03 52.852 202.004 52.9384 201.979V202.665C52.8412 202.712 52.6973 202.749 52.5066 202.778C52.3194 202.811 52.1503 202.827 51.9992 202.827C50.8548 202.827 50.2827 202.224 50.2827 201.018V197.499H49.4352V197.067L50.2827 196.695L50.6605 195.432H51.1787V196.803H52.8952V197.499H51.1787V200.981C51.1787 201.337 51.2633 201.61 51.4324 201.801C51.6015 201.992 51.8336 202.087 52.1287 202.087ZM55.022 202.719H54.1259V196.803H55.022V202.719ZM54.0503 195.2C54.0503 194.994 54.1007 194.845 54.2015 194.752C54.3022 194.654 54.4282 194.606 54.5793 194.606C54.7233 194.606 54.8474 194.654 54.9518 194.752C55.0561 194.849 55.1083 194.998 55.1083 195.2C55.1083 195.401 55.0561 195.552 54.9518 195.653C54.8474 195.75 54.7233 195.799 54.5793 195.799C54.4282 195.799 54.3022 195.75 54.2015 195.653C54.1007 195.552 54.0503 195.401 54.0503 195.2ZM60.9704 202.719V198.892C60.9704 198.409 60.8606 198.05 60.6411 197.812C60.4216 197.575 60.0779 197.456 59.6101 197.456C58.9912 197.456 58.5377 197.623 58.2499 197.958C57.962 198.293 57.818 198.845 57.818 199.615V202.719H56.922V196.803H57.6507L57.7964 197.612H57.8396C58.0231 197.321 58.2804 197.096 58.6115 196.938C58.9426 196.776 59.3114 196.695 59.7181 196.695C60.4306 196.695 60.9668 196.868 61.3266 197.213C61.6865 197.555 61.8664 198.104 61.8664 198.859V202.719H60.9704ZM68.5543 196.803V197.37L67.4586 197.499C67.5593 197.625 67.6493 197.791 67.7284 197.996C67.8076 198.197 67.8472 198.426 67.8472 198.681C67.8472 199.261 67.6493 199.723 67.2534 200.068C66.8576 200.414 66.3142 200.587 65.6233 200.587C65.447 200.587 65.2814 200.572 65.1267 200.543C64.7452 200.745 64.5545 200.999 64.5545 201.305C64.5545 201.466 64.6211 201.587 64.7542 201.666C64.8874 201.742 65.1159 201.78 65.4398 201.78H66.4869C67.1275 201.78 67.6187 201.914 67.9605 202.184C68.306 202.454 68.4787 202.846 68.4787 203.361C68.4787 204.016 68.216 204.514 67.6907 204.856C67.1653 205.202 66.3988 205.374 65.3912 205.374C64.6175 205.374 64.0201 205.231 63.5991 204.943C63.1817 204.655 62.973 204.248 62.973 203.723C62.973 203.363 63.0881 203.052 63.3184 202.789C63.5487 202.526 63.8726 202.348 64.29 202.255C64.1389 202.186 64.0111 202.08 63.9068 201.936C63.806 201.792 63.7556 201.625 63.7556 201.434C63.7556 201.218 63.8132 201.029 63.9284 200.867C64.0435 200.705 64.2253 200.549 64.4736 200.398C64.1677 200.272 63.9176 200.058 63.7233 199.755C63.5325 199.453 63.4372 199.108 63.4372 198.719C63.4372 198.071 63.6315 197.573 64.0201 197.224C64.4088 196.871 64.9594 196.695 65.6719 196.695C65.9813 196.695 66.2602 196.731 66.5085 196.803H68.5543ZM63.8366 203.712C63.8366 204.032 63.9716 204.275 64.2414 204.441C64.5113 204.606 64.8982 204.689 65.402 204.689C66.1541 204.689 66.7101 204.576 67.0699 204.349C67.4334 204.126 67.6151 203.822 67.6151 203.437C67.6151 203.116 67.5161 202.893 67.3182 202.767C67.1203 202.645 66.7478 202.584 66.2009 202.584H65.1267C64.7201 202.584 64.4034 202.681 64.1767 202.875C63.95 203.07 63.8366 203.348 63.8366 203.712ZM64.3224 198.697C64.3224 199.111 64.4394 199.424 64.6733 199.637C64.9072 199.849 65.2328 199.955 65.6503 199.955C66.5247 199.955 66.962 199.53 66.962 198.681C66.962 197.792 66.5193 197.348 65.6341 197.348C65.2131 197.348 64.8892 197.461 64.6625 197.688C64.4358 197.915 64.3224 198.251 64.3224 198.697ZM79.6253 198.762C79.6253 200.025 79.305 201.018 78.6644 201.742C78.0275 202.465 77.1405 202.827 76.0033 202.827C74.841 202.827 73.9431 202.472 73.3098 201.763C72.6801 201.051 72.3652 200.047 72.3652 198.751C72.3652 197.467 72.6819 196.472 73.3152 195.766C73.9485 195.057 74.8482 194.703 76.0141 194.703C77.1477 194.703 78.0329 195.063 78.6698 195.783C79.3068 196.502 79.6253 197.495 79.6253 198.762ZM73.3368 198.762C73.3368 199.831 73.5635 200.642 74.0169 201.197C74.4739 201.747 75.1361 202.022 76.0033 202.022C76.8778 202.022 77.5381 201.747 77.9843 201.197C78.4305 200.646 78.6536 199.835 78.6536 198.762C78.6536 197.701 78.4305 196.896 77.9843 196.349C77.5417 195.799 76.885 195.523 76.0141 195.523C75.1397 195.523 74.4739 195.801 74.0169 196.355C73.5635 196.905 73.3368 197.708 73.3368 198.762ZM84.0083 202.827C83.6233 202.827 83.2706 202.757 82.9503 202.616C82.6336 202.472 82.3674 202.253 82.1514 201.958H82.0867C82.1299 202.303 82.1514 202.631 82.1514 202.94V205.374H81.2554V196.803H81.9841L82.1083 197.612H82.1514C82.3818 197.289 82.6498 197.055 82.9557 196.911C83.2616 196.767 83.6125 196.695 84.0083 196.695C84.7928 196.695 85.3973 196.963 85.822 197.499C86.2502 198.035 86.4643 198.787 86.4643 199.755C86.4643 200.727 86.2466 201.483 85.8112 202.022C85.3793 202.559 84.7784 202.827 84.0083 202.827ZM83.8787 197.456C83.2742 197.456 82.837 197.623 82.5671 197.958C82.2972 198.293 82.1586 198.825 82.1514 199.556V199.755C82.1514 200.587 82.29 201.182 82.5671 201.542C82.8442 201.898 83.2886 202.076 83.9003 202.076C84.4113 202.076 84.8108 201.869 85.0987 201.456C85.3901 201.042 85.5359 200.471 85.5359 199.745C85.5359 199.007 85.3901 198.442 85.0987 198.05C84.8108 197.654 84.4041 197.456 83.8787 197.456ZM89.9459 202.087C90.1042 202.087 90.2572 202.076 90.4047 202.055C90.5523 202.03 90.6692 202.004 90.7556 201.979V202.665C90.6584 202.712 90.5145 202.749 90.3238 202.778C90.1366 202.811 89.9675 202.827 89.8164 202.827C88.672 202.827 88.0999 202.224 88.0999 201.018V197.499H87.2524V197.067L88.0999 196.695L88.4777 195.432H88.9959V196.803H90.7124V197.499H88.9959V200.981C88.9959 201.337 89.0805 201.61 89.2496 201.801C89.4187 201.992 89.6508 202.087 89.9459 202.087ZM92.8391 202.719H91.9431V196.803H92.8391V202.719ZM91.8675 195.2C91.8675 194.994 91.9179 194.845 92.0187 194.752C92.1194 194.654 92.2454 194.606 92.3965 194.606C92.5405 194.606 92.6646 194.654 92.769 194.752C92.8733 194.849 92.9255 194.998 92.9255 195.2C92.9255 195.401 92.8733 195.552 92.769 195.653C92.6646 195.75 92.5405 195.799 92.3965 195.799C92.2454 195.799 92.1194 195.75 92.0187 195.653C91.9179 195.552 91.8675 195.401 91.8675 195.2ZM99.8455 199.755C99.8455 200.72 99.6026 201.474 99.1168 202.017C98.631 202.557 97.9599 202.827 97.1034 202.827C96.5744 202.827 96.1048 202.703 95.6946 202.454C95.2844 202.206 94.9677 201.85 94.7446 201.385C94.5215 200.921 94.4099 200.378 94.4099 199.755C94.4099 198.791 94.651 198.041 95.1332 197.504C95.6154 196.965 96.2848 196.695 97.1412 196.695C97.9689 196.695 98.6256 196.97 99.1114 197.521C99.6008 198.071 99.8455 198.816 99.8455 199.755ZM95.3383 199.755C95.3383 200.511 95.4895 201.087 95.7918 201.483C96.094 201.878 96.5385 202.076 97.125 202.076C97.7116 202.076 98.156 201.88 98.4583 201.488C98.7642 201.092 98.9171 200.515 98.9171 199.755C98.9171 199.003 98.7642 198.433 98.4583 198.044C98.156 197.652 97.708 197.456 97.1142 197.456C96.5277 197.456 96.085 197.648 95.7864 198.033C95.4877 198.418 95.3383 198.992 95.3383 199.755ZM105.47 202.719V198.892C105.47 198.409 105.36 198.05 105.141 197.812C104.921 197.575 104.578 197.456 104.11 197.456C103.491 197.456 103.037 197.623 102.75 197.958C102.462 198.293 102.318 198.845 102.318 199.615V202.719H101.422V196.803H102.15L102.296 197.612H102.339C102.523 197.321 102.78 197.096 103.111 196.938C103.442 196.776 103.811 196.695 104.218 196.695C104.93 196.695 105.466 196.868 105.826 197.213C106.186 197.555 106.366 198.104 106.366 198.859V202.719H105.47ZM113.993 202.719H113.119V197.094C113.119 196.626 113.133 196.184 113.162 195.766C113.086 195.842 113.002 195.921 112.908 196.004C112.815 196.087 112.386 196.437 111.624 197.056L111.149 196.441L113.238 194.827H113.993V202.719Z" class="path-3"/>
<rect x="36.3948" y="286.293" width="273.21" height="34.7435" rx="1.97406" stroke-width="0.789625" class="rect-4"/>
<path d="M55.5924 300.406C55.5924 301.319 55.2798 302.022 54.6547 302.516C54.0337 303.005 53.1433 303.25 51.9835 303.25H50.9225V306.797H49.8737V297.778H52.2118C54.4655 297.778 55.5924 298.654 55.5924 300.406ZM50.9225 302.349H51.8663C52.7958 302.349 53.4682 302.199 53.8836 301.899C54.2989 301.599 54.5066 301.117 54.5066 300.455C54.5066 299.859 54.3113 299.415 53.9206 299.123C53.5299 298.831 52.9212 298.685 52.0946 298.685H50.9225V302.349ZM61.4899 306.797L61.2863 305.835H61.237C60.8997 306.258 60.5625 306.546 60.2252 306.698C59.8921 306.846 59.4747 306.92 58.9729 306.92C58.3026 306.92 57.7762 306.748 57.3937 306.402C57.0153 306.057 56.8262 305.565 56.8262 304.928C56.8262 303.562 57.9181 302.847 60.1019 302.781L61.2493 302.744V302.324C61.2493 301.794 61.1341 301.403 60.9038 301.152C60.6776 300.897 60.3137 300.77 59.8119 300.77C59.2485 300.77 58.611 300.943 57.8995 301.288L57.5849 300.505C57.9181 300.324 58.282 300.182 58.6768 300.079C59.0758 299.976 59.4747 299.925 59.8736 299.925C60.6797 299.925 61.276 300.104 61.6626 300.461C62.0533 300.819 62.2487 301.393 62.2487 302.183V306.797H61.4899ZM59.1765 306.075C59.814 306.075 60.3137 305.9 60.6756 305.551C61.0416 305.201 61.2246 304.712 61.2246 304.083V303.472L60.2006 303.515C59.3863 303.544 58.7982 303.671 58.4362 303.897C58.0784 304.12 57.8995 304.467 57.8995 304.94C57.8995 305.31 58.0106 305.592 58.2327 305.785C58.4589 305.978 58.7735 306.075 59.1765 306.075ZM63.2912 300.036H64.3893L65.8698 303.891C66.1947 304.771 66.3962 305.407 66.4744 305.798H66.5237C66.5772 305.588 66.6882 305.23 66.8569 304.724C67.0296 304.214 67.5889 302.651 68.5348 300.036H69.6329L66.7273 307.735C66.4394 308.495 66.1022 309.034 65.7156 309.351C65.3331 309.672 64.8622 309.832 64.3029 309.832C63.9904 309.832 63.6819 309.797 63.3776 309.727V308.907C63.6038 308.956 63.8567 308.981 64.1364 308.981C64.8396 308.981 65.3414 308.586 65.6416 307.796L66.0179 306.834L63.2912 300.036ZM77.3379 306.797H76.3385V300.369C76.3385 299.834 76.355 299.328 76.3879 298.851C76.3015 298.938 76.2049 299.028 76.0979 299.123C75.991 299.217 75.5016 299.618 74.6297 300.326L74.0869 299.622L76.4743 297.778H77.3379V306.797ZM86.7517 302.275C86.7517 303.834 86.505 304.998 86.0114 305.767C85.522 306.536 84.7715 306.92 83.7598 306.92C82.7892 306.92 82.051 306.527 81.5451 305.742C81.0393 304.952 80.7863 303.797 80.7863 302.275C80.7863 300.704 81.031 299.538 81.5205 298.777C82.0099 298.016 82.7563 297.636 83.7598 297.636C84.7386 297.636 85.4809 298.033 85.9868 298.827C86.4967 299.62 86.7517 300.77 86.7517 302.275ZM81.8227 302.275C81.8227 303.587 81.977 304.543 82.2854 305.144C82.5938 305.74 83.0853 306.038 83.7598 306.038C84.4425 306.038 84.936 305.736 85.2403 305.131C85.5488 304.523 85.703 303.571 85.703 302.275C85.703 300.98 85.5488 300.032 85.2403 299.431C84.936 298.827 84.4425 298.524 83.7598 298.524C83.0853 298.524 82.5938 298.822 82.2854 299.419C81.977 300.011 81.8227 300.963 81.8227 302.275ZM93.9817 302.275C93.9817 303.834 93.735 304.998 93.2415 305.767C92.7521 306.536 92.0015 306.92 90.9898 306.92C90.0192 306.92 89.281 306.527 88.7751 305.742C88.2693 304.952 88.0164 303.797 88.0164 302.275C88.0164 300.704 88.2611 299.538 88.7505 298.777C89.2399 298.016 89.9863 297.636 90.9898 297.636C91.9686 297.636 92.7109 298.033 93.2168 298.827C93.7267 299.62 93.9817 300.77 93.9817 302.275ZM89.0527 302.275C89.0527 303.587 89.207 304.543 89.5154 305.144C89.8239 305.74 90.3153 306.038 90.9898 306.038C91.6725 306.038 92.166 305.736 92.4703 305.131C92.7788 304.523 92.933 303.571 92.933 302.275C92.933 300.98 92.7788 300.032 92.4703 299.431C92.166 298.827 91.6725 298.524 90.9898 298.524C90.3153 298.524 89.8239 298.822 89.5154 299.419C89.207 300.011 89.0527 300.963 89.0527 302.275ZM106.338 302.201C106.338 303.69 105.933 304.829 105.123 305.619C104.317 306.404 103.155 306.797 101.637 306.797H99.139V297.778H101.903C103.305 297.778 104.395 298.167 105.172 298.944C105.949 299.721 106.338 300.807 106.338 302.201ZM105.228 302.238C105.228 301.062 104.932 300.176 104.339 299.579C103.751 298.983 102.875 298.685 101.711 298.685H100.188V305.89H101.465C102.715 305.89 103.655 305.584 104.284 304.971C104.913 304.354 105.228 303.443 105.228 302.238ZM114.025 306.797L112.902 303.928H109.287L108.176 306.797H107.115L110.681 297.741H111.563L115.11 306.797H114.025ZM112.575 302.984L111.526 300.19C111.39 299.836 111.251 299.402 111.107 298.888C111.016 299.283 110.887 299.717 110.718 300.19L109.657 302.984H112.575ZM116.35 306.797V297.778H117.399V306.797H116.35Z" class="path-4"/>
<path d="M41.5922 266.319H42.58L39.7353 274.211H38.8285L36 266.319H36.9716L38.7853 271.426C38.994 272.012 39.1595 272.583 39.2819 273.137C39.4114 272.554 39.5806 271.973 39.7893 271.393L41.5922 266.319ZM48.6417 271.248C48.6417 272.212 48.3988 272.966 47.913 273.509C47.4272 274.049 46.7561 274.319 45.8996 274.319C45.3706 274.319 44.901 274.195 44.4908 273.946C44.0806 273.698 43.7639 273.342 43.5408 272.878C43.3177 272.413 43.2061 271.87 43.2061 271.248C43.2061 270.283 43.4472 269.533 43.9294 268.997C44.4116 268.457 45.0809 268.187 45.9374 268.187C46.7651 268.187 47.4218 268.462 47.9076 269.013C48.397 269.563 48.6417 270.308 48.6417 271.248ZM44.1345 271.248C44.1345 272.003 44.2857 272.579 44.5879 272.975C44.8902 273.371 45.3346 273.569 45.9212 273.569C46.5078 273.569 46.9522 273.372 47.2545 272.98C47.5604 272.584 47.7133 272.007 47.7133 271.248C47.7133 270.495 47.5604 269.925 47.2545 269.536C46.9522 269.144 46.5042 268.948 45.9104 268.948C45.3239 268.948 44.8812 269.141 44.5825 269.526C44.2839 269.911 44.1345 270.485 44.1345 271.248ZM52.1287 273.579C52.2871 273.579 52.44 273.569 52.5875 273.547C52.7351 273.522 52.852 273.497 52.9384 273.471V274.157C52.8412 274.204 52.6973 274.242 52.5066 274.27C52.3194 274.303 52.1503 274.319 51.9992 274.319C50.8548 274.319 50.2827 273.716 50.2827 272.511V268.991H49.4352V268.559L50.2827 268.187L50.6605 266.924H51.1787V268.295H52.8952V268.991H51.1787V272.473C51.1787 272.829 51.2633 273.103 51.4324 273.293C51.6015 273.484 51.8336 273.579 52.1287 273.579ZM55.022 274.211H54.1259V268.295H55.022V274.211ZM54.0503 266.692C54.0503 266.487 54.1007 266.337 54.2015 266.244C54.3022 266.147 54.4282 266.098 54.5793 266.098C54.7233 266.098 54.8474 266.147 54.9518 266.244C55.0561 266.341 55.1083 266.49 55.1083 266.692C55.1083 266.893 55.0561 267.044 54.9518 267.145C54.8474 267.242 54.7233 267.291 54.5793 267.291C54.4282 267.291 54.3022 267.242 54.2015 267.145C54.1007 267.044 54.0503 266.893 54.0503 266.692ZM60.9704 274.211V270.384C60.9704 269.902 60.8606 269.542 60.6411 269.304C60.4216 269.067 60.0779 268.948 59.6101 268.948C58.9912 268.948 58.5377 269.115 58.2499 269.45C57.962 269.785 57.818 270.337 57.818 271.107V274.211H56.922V268.295H57.6507L57.7964 269.105H57.8396C58.0231 268.813 58.2804 268.588 58.6115 268.43C58.9426 268.268 59.3114 268.187 59.7181 268.187C60.4306 268.187 60.9668 268.36 61.3266 268.705C61.6865 269.047 61.8664 269.596 61.8664 270.351V274.211H60.9704ZM68.5543 268.295V268.862L67.4586 268.991C67.5593 269.117 67.6493 269.283 67.7284 269.488C67.8076 269.689 67.8472 269.918 67.8472 270.173C67.8472 270.753 67.6493 271.215 67.2534 271.561C66.8576 271.906 66.3142 272.079 65.6233 272.079C65.447 272.079 65.2814 272.064 65.1267 272.036C64.7452 272.237 64.5545 272.491 64.5545 272.797C64.5545 272.959 64.6211 273.079 64.7542 273.158C64.8874 273.234 65.1159 273.272 65.4398 273.272H66.4869C67.1275 273.272 67.6187 273.407 67.9605 273.677C68.306 273.946 68.4787 274.339 68.4787 274.853C68.4787 275.508 68.216 276.007 67.6907 276.348C67.1653 276.694 66.3988 276.867 65.3912 276.867C64.6175 276.867 64.0201 276.723 63.5991 276.435C63.1817 276.147 62.973 275.74 62.973 275.215C62.973 274.855 63.0881 274.544 63.3184 274.281C63.5487 274.018 63.8726 273.84 64.29 273.747C64.1389 273.678 64.0111 273.572 63.9068 273.428C63.806 273.284 63.7556 273.117 63.7556 272.926C63.7556 272.71 63.8132 272.521 63.9284 272.359C64.0435 272.198 64.2253 272.041 64.4736 271.89C64.1677 271.764 63.9176 271.55 63.7233 271.248C63.5325 270.945 63.4372 270.6 63.4372 270.211C63.4372 269.563 63.6315 269.065 64.0201 268.716C64.4088 268.363 64.9594 268.187 65.6719 268.187C65.9813 268.187 66.2602 268.223 66.5085 268.295H68.5543ZM63.8366 275.204C63.8366 275.524 63.9716 275.767 64.2414 275.933C64.5113 276.098 64.8982 276.181 65.402 276.181C66.1541 276.181 66.7101 276.068 67.0699 275.841C67.4334 275.618 67.6151 275.314 67.6151 274.929C67.6151 274.609 67.5161 274.385 67.3182 274.26C67.1203 274.137 66.7478 274.076 66.2009 274.076H65.1267C64.7201 274.076 64.4034 274.173 64.1767 274.367C63.95 274.562 63.8366 274.841 63.8366 275.204ZM64.3224 270.19C64.3224 270.603 64.4394 270.916 64.6733 271.129C64.9072 271.341 65.2328 271.447 65.6503 271.447C66.5247 271.447 66.962 271.023 66.962 270.173C66.962 269.285 66.5193 268.84 65.6341 268.84C65.2131 268.84 64.8892 268.953 64.6625 269.18C64.4358 269.407 64.3224 269.743 64.3224 270.19ZM79.6253 270.254C79.6253 271.517 79.305 272.511 78.6644 273.234C78.0275 273.957 77.1405 274.319 76.0033 274.319C74.841 274.319 73.9431 273.964 73.3098 273.256C72.6801 272.543 72.3652 271.539 72.3652 270.244C72.3652 268.959 72.6819 267.964 73.3152 267.259C73.9485 266.55 74.8482 266.195 76.0141 266.195C77.1477 266.195 78.0329 266.555 78.6698 267.275C79.3068 267.994 79.6253 268.988 79.6253 270.254ZM73.3368 270.254C73.3368 271.323 73.5635 272.135 74.0169 272.689C74.4739 273.239 75.1361 273.515 76.0033 273.515C76.8778 273.515 77.5381 273.239 77.9843 272.689C78.4305 272.138 78.6536 271.327 78.6536 270.254C78.6536 269.193 78.4305 268.388 77.9843 267.841C77.5417 267.291 76.885 267.016 76.0141 267.016C75.1397 267.016 74.4739 267.293 74.0169 267.847C73.5635 268.397 73.3368 269.2 73.3368 270.254ZM84.0083 274.319C83.6233 274.319 83.2706 274.249 82.9503 274.108C82.6336 273.964 82.3674 273.745 82.1514 273.45H82.0867C82.1299 273.795 82.1514 274.123 82.1514 274.432V276.867H81.2554V268.295H81.9841L82.1083 269.105H82.1514C82.3818 268.781 82.6498 268.547 82.9557 268.403C83.2616 268.259 83.6125 268.187 84.0083 268.187C84.7928 268.187 85.3973 268.455 85.822 268.991C86.2502 269.527 86.4643 270.28 86.4643 271.248C86.4643 272.219 86.2466 272.975 85.8112 273.515C85.3793 274.051 84.7784 274.319 84.0083 274.319ZM83.8787 268.948C83.2742 268.948 82.837 269.115 82.5671 269.45C82.2972 269.785 82.1586 270.317 82.1514 271.048V271.248C82.1514 272.079 82.29 272.674 82.5671 273.034C82.8442 273.39 83.2886 273.569 83.9003 273.569C84.4113 273.569 84.8108 273.362 85.0987 272.948C85.3901 272.534 85.5359 271.964 85.5359 271.237C85.5359 270.499 85.3901 269.934 85.0987 269.542C84.8108 269.146 84.4041 268.948 83.8787 268.948ZM89.9459 273.579C90.1042 273.579 90.2572 273.569 90.4047 273.547C90.5523 273.522 90.6692 273.497 90.7556 273.471V274.157C90.6584 274.204 90.5145 274.242 90.3238 274.27C90.1366 274.303 89.9675 274.319 89.8164 274.319C88.672 274.319 88.0999 273.716 88.0999 272.511V268.991H87.2524V268.559L88.0999 268.187L88.4777 266.924H88.9959V268.295H90.7124V268.991H88.9959V272.473C88.9959 272.829 89.0805 273.103 89.2496 273.293C89.4187 273.484 89.6508 273.579 89.9459 273.579ZM92.8391 274.211H91.9431V268.295H92.8391V274.211ZM91.8675 266.692C91.8675 266.487 91.9179 266.337 92.0187 266.244C92.1194 266.147 92.2454 266.098 92.3965 266.098C92.5405 266.098 92.6646 266.147 92.769 266.244C92.8733 266.341 92.9255 266.49 92.9255 266.692C92.9255 266.893 92.8733 267.044 92.769 267.145C92.6646 267.242 92.5405 267.291 92.3965 267.291C92.2454 267.291 92.1194 267.242 92.0187 267.145C91.9179 267.044 91.8675 266.893 91.8675 266.692ZM99.8455 271.248C99.8455 272.212 99.6026 272.966 99.1168 273.509C98.631 274.049 97.9599 274.319 97.1034 274.319C96.5744 274.319 96.1048 274.195 95.6946 273.946C95.2844 273.698 94.9677 273.342 94.7446 272.878C94.5215 272.413 94.4099 271.87 94.4099 271.248C94.4099 270.283 94.651 269.533 95.1332 268.997C95.6154 268.457 96.2848 268.187 97.1412 268.187C97.9689 268.187 98.6256 268.462 99.1114 269.013C99.6008 269.563 99.8455 270.308 99.8455 271.248ZM95.3383 271.248C95.3383 272.003 95.4895 272.579 95.7918 272.975C96.094 273.371 96.5385 273.569 97.125 273.569C97.7116 273.569 98.156 273.372 98.4583 272.98C98.7642 272.584 98.9171 272.007 98.9171 271.248C98.9171 270.495 98.7642 269.925 98.4583 269.536C98.156 269.144 97.708 268.948 97.1142 268.948C96.5277 268.948 96.085 269.141 95.7864 269.526C95.4877 269.911 95.3383 270.485 95.3383 271.248ZM105.47 274.211V270.384C105.47 269.902 105.36 269.542 105.141 269.304C104.921 269.067 104.578 268.948 104.11 268.948C103.491 268.948 103.037 269.115 102.75 269.45C102.462 269.785 102.318 270.337 102.318 271.107V274.211H101.422V268.295H102.15L102.296 269.105H102.339C102.523 268.813 102.78 268.588 103.111 268.43C103.442 268.268 103.811 268.187 104.218 268.187C104.93 268.187 105.466 268.36 105.826 268.705C106.186 269.047 106.366 269.596 106.366 270.351V274.211H105.47ZM115.861 274.211H110.674V273.439L112.752 271.35C113.385 270.71 113.803 270.253 114.004 269.979C114.206 269.706 114.357 269.439 114.457 269.18C114.558 268.921 114.609 268.642 114.609 268.343C114.609 267.922 114.481 267.59 114.225 267.345C113.97 267.097 113.615 266.972 113.162 266.972C112.835 266.972 112.523 267.026 112.228 267.134C111.937 267.242 111.611 267.438 111.251 267.723L110.776 267.113C111.503 266.508 112.295 266.206 113.151 266.206C113.892 266.206 114.474 266.397 114.895 266.778C115.316 267.156 115.526 267.665 115.526 268.306C115.526 268.806 115.386 269.301 115.105 269.79C114.825 270.28 114.299 270.898 113.529 271.647L111.802 273.336V273.38H115.861V274.211Z" class="path-5"/>
<rect x="36.3948" y="97.8284" width="273.21" height="34.7435" rx="1.97406" stroke-width="0.789625" class="rect-5"/>
<path d="M56.7213 118.332H55.6726V114.088H50.9225V118.332H49.8737V109.313H50.9225V113.15H55.6726V109.313H56.7213V118.332ZM64.8828 114.945C64.8828 116.047 64.6052 116.909 64.05 117.53C63.4948 118.147 62.7278 118.455 61.749 118.455C61.1444 118.455 60.6077 118.314 60.1389 118.03C59.67 117.746 59.3081 117.339 59.0531 116.808C58.7982 116.278 58.6707 115.657 58.6707 114.945C58.6707 113.843 58.9462 112.986 59.4973 112.373C60.0484 111.756 60.8133 111.447 61.7922 111.447C62.7381 111.447 63.4886 111.762 64.0438 112.391C64.6031 113.021 64.8828 113.872 64.8828 114.945ZM59.7317 114.945C59.7317 115.809 59.9045 116.467 60.2499 116.919C60.5954 117.372 61.1033 117.598 61.7736 117.598C62.444 117.598 62.9519 117.374 63.2974 116.926C63.647 116.473 63.8217 115.813 63.8217 114.945C63.8217 114.086 63.647 113.434 63.2974 112.99C62.9519 112.541 62.4399 112.317 61.7613 112.317C61.091 112.317 60.5851 112.537 60.2437 112.977C59.9024 113.417 59.7317 114.073 59.7317 114.945ZM72.2053 118.332L70.9654 114.365C70.8872 114.123 70.7412 113.572 70.5274 112.712H70.478C70.3135 113.432 70.1696 113.987 70.0462 114.378L68.7692 118.332H67.5848L65.7403 111.571H66.8137C67.2496 113.269 67.5807 114.563 67.8069 115.451C68.0372 116.339 68.1688 116.938 68.2017 117.246H68.251C68.2963 117.012 68.3683 116.71 68.467 116.339C68.5698 115.965 68.6582 115.669 68.7322 115.451L69.9722 111.571H71.0826L72.2917 115.451C72.522 116.159 72.6783 116.753 72.7605 117.234H72.8099C72.8263 117.086 72.8695 116.858 72.9394 116.549C73.0135 116.241 73.4432 114.581 74.2288 111.571H75.2898L73.4206 118.332H72.2053ZM88.4173 118.332V113.934C88.4173 113.395 88.3022 112.992 88.0719 112.724C87.8416 112.453 87.4838 112.317 86.9985 112.317C86.361 112.317 85.8901 112.5 85.5858 112.866C85.2815 113.232 85.1293 113.796 85.1293 114.557V118.332H84.1052V113.934C84.1052 113.395 83.9901 112.992 83.7598 112.724C83.5295 112.453 83.1696 112.317 82.6802 112.317C82.0386 112.317 81.5677 112.511 81.2675 112.897C80.9714 113.28 80.8234 113.909 80.8234 114.785V118.332H79.7993V111.571H80.6321L80.7987 112.496H80.848C81.0413 112.167 81.3128 111.91 81.6623 111.725C82.016 111.54 82.4108 111.447 82.8468 111.447C83.9037 111.447 84.5946 111.83 84.9195 112.595H84.9689C85.1704 112.241 85.4624 111.962 85.8449 111.756C86.2274 111.55 86.6633 111.447 87.1527 111.447C87.9177 111.447 88.4893 111.645 88.8677 112.04C89.2501 112.43 89.4414 113.058 89.4414 113.921V118.332H88.4173ZM92.5197 111.571V115.957C92.5197 116.508 92.6451 116.919 92.896 117.191C93.1469 117.462 93.5396 117.598 94.0743 117.598C94.7816 117.598 95.2978 117.405 95.6227 117.018C95.9517 116.631 96.1162 116 96.1162 115.124V111.571H97.1402V118.332H96.2951L96.147 117.425H96.0915C95.8818 117.758 95.5898 118.013 95.2155 118.19C94.8454 118.367 94.4218 118.455 93.9447 118.455C93.1222 118.455 92.5053 118.26 92.094 117.869C91.6869 117.479 91.4833 116.854 91.4833 115.994V111.571H92.5197ZM102.02 118.455C101.041 118.455 100.282 118.155 99.7435 117.555C99.2089 116.95 98.9416 116.097 98.9416 114.995C98.9416 113.864 99.213 112.99 99.7559 112.373C100.303 111.756 101.08 111.447 102.088 111.447C102.413 111.447 102.738 111.482 103.062 111.552C103.387 111.622 103.642 111.705 103.827 111.799L103.513 112.669C103.287 112.578 103.04 112.504 102.772 112.447C102.505 112.385 102.269 112.354 102.063 112.354C100.689 112.354 100.003 113.23 100.003 114.982C100.003 115.813 100.169 116.451 100.502 116.895C100.84 117.339 101.337 117.561 101.995 117.561C102.559 117.561 103.136 117.44 103.729 117.197V118.104C103.276 118.338 102.707 118.455 102.02 118.455ZM109.965 118.332V113.958C109.965 113.407 109.84 112.996 109.589 112.724C109.338 112.453 108.946 112.317 108.411 112.317C107.699 112.317 107.179 112.511 106.85 112.897C106.525 113.284 106.363 113.917 106.363 114.797V118.332H105.339V108.733H106.363V111.639C106.363 111.988 106.346 112.278 106.313 112.509H106.375C106.577 112.184 106.862 111.929 107.233 111.744C107.607 111.554 108.033 111.46 108.51 111.46C109.336 111.46 109.955 111.657 110.366 112.052C110.782 112.443 110.99 113.066 110.99 113.921V118.332H109.965ZM120.743 116.488C120.743 117.117 120.508 117.602 120.039 117.943C119.571 118.285 118.913 118.455 118.065 118.455C117.169 118.455 116.47 118.314 115.968 118.03V117.08C116.293 117.244 116.64 117.374 117.01 117.468C117.385 117.563 117.745 117.61 118.09 117.61C118.625 117.61 119.036 117.526 119.324 117.357C119.612 117.185 119.756 116.923 119.756 116.574C119.756 116.311 119.64 116.087 119.41 115.901C119.184 115.712 118.74 115.49 118.078 115.235C117.448 115.001 117 114.797 116.733 114.624C116.47 114.448 116.272 114.248 116.141 114.026C116.013 113.804 115.949 113.539 115.949 113.23C115.949 112.679 116.173 112.245 116.622 111.929C117.07 111.608 117.685 111.447 118.466 111.447C119.194 111.447 119.906 111.596 120.601 111.892L120.237 112.724C119.558 112.445 118.943 112.305 118.392 112.305C117.907 112.305 117.541 112.381 117.294 112.533C117.047 112.685 116.924 112.895 116.924 113.162C116.924 113.343 116.969 113.498 117.06 113.625C117.154 113.753 117.304 113.874 117.51 113.989C117.716 114.104 118.111 114.271 118.695 114.489C119.496 114.781 120.037 115.075 120.317 115.371C120.601 115.667 120.743 116.039 120.743 116.488ZM127.041 118.332V113.958C127.041 113.407 126.916 112.996 126.665 112.724C126.414 112.453 126.021 112.317 125.487 112.317C124.775 112.317 124.255 112.511 123.926 112.897C123.601 113.284 123.438 113.917 123.438 114.797V118.332H122.414V108.733H123.438V111.639C123.438 111.988 123.422 112.278 123.389 112.509H123.451C123.652 112.184 123.938 111.929 124.308 111.744C124.683 111.554 125.108 111.46 125.585 111.46C126.412 111.46 127.031 111.657 127.442 112.052C127.857 112.443 128.065 113.066 128.065 113.921V118.332H127.041ZM136.011 114.945C136.011 116.047 135.733 116.909 135.178 117.53C134.623 118.147 133.856 118.455 132.877 118.455C132.272 118.455 131.736 118.314 131.267 118.03C130.798 117.746 130.436 117.339 130.181 116.808C129.926 116.278 129.799 115.657 129.799 114.945C129.799 113.843 130.074 112.986 130.625 112.373C131.176 111.756 131.941 111.447 132.92 111.447C133.866 111.447 134.617 111.762 135.172 112.391C135.731 113.021 136.011 113.872 136.011 114.945ZM130.86 114.945C130.86 115.809 131.032 116.467 131.378 116.919C131.723 117.372 132.231 117.598 132.902 117.598C133.572 117.598 134.08 117.374 134.425 116.926C134.775 116.473 134.95 115.813 134.95 114.945C134.95 114.086 134.775 113.434 134.425 112.99C134.08 112.541 133.568 112.317 132.889 112.317C132.219 112.317 131.713 112.537 131.372 112.977C131.03 113.417 130.86 114.073 130.86 114.945ZM138.774 111.571V115.957C138.774 116.508 138.9 116.919 139.151 117.191C139.402 117.462 139.794 117.598 140.329 117.598C141.036 117.598 141.553 117.405 141.877 117.018C142.206 116.631 142.371 116 142.371 115.124V111.571H143.395V118.332H142.55L142.402 117.425H142.346C142.137 117.758 141.845 118.013 141.47 118.19C141.1 118.367 140.677 118.455 140.199 118.455C139.377 118.455 138.76 118.26 138.349 117.869C137.942 117.479 137.738 116.854 137.738 115.994V111.571H138.774ZM146.597 118.332H145.573V108.733H146.597V118.332ZM153.37 117.425H153.315C152.842 118.112 152.134 118.455 151.193 118.455C150.308 118.455 149.619 118.153 149.126 117.549C148.637 116.944 148.392 116.084 148.392 114.97C148.392 113.855 148.639 112.99 149.132 112.373C149.626 111.756 150.312 111.447 151.193 111.447C152.11 111.447 152.813 111.781 153.302 112.447H153.383L153.339 111.96L153.315 111.484V108.733H154.339V118.332H153.506L153.37 117.425ZM151.322 117.598C152.021 117.598 152.527 117.409 152.84 117.03C153.156 116.648 153.315 116.033 153.315 115.186V114.97C153.315 114.012 153.154 113.329 152.833 112.922C152.517 112.511 152.009 112.305 151.31 112.305C150.709 112.305 150.249 112.539 149.928 113.008C149.611 113.473 149.453 114.131 149.453 114.982C149.453 115.846 149.611 116.498 149.928 116.938C150.245 117.378 150.709 117.598 151.322 117.598ZM165.622 118.332L164.499 115.463H160.884L159.774 118.332H158.712L162.278 109.276H163.16L166.707 118.332H165.622ZM164.172 114.52L163.123 111.725C162.988 111.371 162.848 110.938 162.704 110.423C162.613 110.818 162.484 111.252 162.315 111.725L161.254 114.52H164.172ZM168.817 118.332H167.793V108.733H168.817V118.332ZM172.013 118.332H170.989V111.571H172.013V118.332ZM170.902 109.739C170.902 109.504 170.96 109.334 171.075 109.227C171.19 109.116 171.334 109.06 171.507 109.06C171.671 109.06 171.813 109.116 171.933 109.227C172.052 109.338 172.111 109.508 172.111 109.739C172.111 109.969 172.052 110.142 171.933 110.257C171.813 110.368 171.671 110.423 171.507 110.423C171.334 110.423 171.19 110.368 171.075 110.257C170.96 110.142 170.902 109.969 170.902 109.739ZM176.886 118.455C175.907 118.455 175.149 118.155 174.61 117.555C174.075 116.95 173.808 116.097 173.808 114.995C173.808 113.864 174.079 112.99 174.622 112.373C175.169 111.756 175.946 111.447 176.954 111.447C177.279 111.447 177.604 111.482 177.929 111.552C178.254 111.622 178.509 111.705 178.694 111.799L178.379 112.669C178.153 112.578 177.906 112.504 177.639 112.447C177.372 112.385 177.135 112.354 176.929 112.354C175.556 112.354 174.869 113.23 174.869 114.982C174.869 115.813 175.036 116.451 175.369 116.895C175.706 117.339 176.204 117.561 176.862 117.561C177.425 117.561 178.003 117.44 178.595 117.197V118.104C178.143 118.338 177.573 118.455 176.886 118.455ZM183.061 118.455C182.062 118.455 181.272 118.151 180.692 117.542C180.117 116.934 179.829 116.089 179.829 115.007C179.829 113.917 180.096 113.051 180.631 112.41C181.17 111.768 181.891 111.447 182.796 111.447C183.643 111.447 184.314 111.727 184.807 112.286C185.301 112.842 185.547 113.576 185.547 114.489V115.137H180.89C180.91 115.93 181.11 116.533 181.488 116.944C181.871 117.355 182.407 117.561 183.098 117.561C183.826 117.561 184.546 117.409 185.257 117.104V118.017C184.896 118.174 184.552 118.285 184.227 118.351C183.906 118.42 183.518 118.455 183.061 118.455ZM182.784 112.305C182.241 112.305 181.807 112.482 181.482 112.835C181.161 113.189 180.972 113.679 180.915 114.304H184.449C184.449 113.658 184.305 113.165 184.018 112.823C183.73 112.478 183.318 112.305 182.784 112.305ZM193.666 111.447C193.966 111.447 194.235 111.472 194.474 111.522L194.332 112.472C194.052 112.41 193.806 112.379 193.592 112.379C193.045 112.379 192.576 112.601 192.185 113.045C191.799 113.489 191.605 114.043 191.605 114.705V118.332H190.581V111.571H191.426L191.544 112.823H191.593C191.844 112.383 192.146 112.044 192.5 111.805C192.854 111.567 193.242 111.447 193.666 111.447ZM198.595 118.455C197.595 118.455 196.806 118.151 196.226 117.542C195.65 116.934 195.362 116.089 195.362 115.007C195.362 113.917 195.63 113.051 196.164 112.41C196.703 111.768 197.425 111.447 198.329 111.447C199.177 111.447 199.847 111.727 200.341 112.286C200.834 112.842 201.081 113.576 201.081 114.489V115.137H196.423C196.444 115.93 196.643 116.533 197.022 116.944C197.404 117.355 197.941 117.561 198.632 117.561C199.36 117.561 200.079 117.409 200.791 117.104V118.017C200.429 118.174 200.086 118.285 199.761 118.351C199.44 118.42 199.051 118.455 198.595 118.455ZM198.317 112.305C197.774 112.305 197.34 112.482 197.015 112.835C196.695 113.189 196.506 113.679 196.448 114.304H199.983C199.983 113.658 199.839 113.165 199.551 112.823C199.263 112.478 198.852 112.305 198.317 112.305ZM205.535 118.455C204.556 118.455 203.797 118.155 203.258 117.555C202.724 116.95 202.457 116.097 202.457 114.995C202.457 113.864 202.728 112.99 203.271 112.373C203.818 111.756 204.595 111.447 205.603 111.447C205.928 111.447 206.252 111.482 206.577 111.552C206.902 111.622 207.157 111.705 207.342 111.799L207.028 112.669C206.802 112.578 206.555 112.504 206.287 112.447C206.02 112.385 205.784 112.354 205.578 112.354C204.204 112.354 203.518 113.23 203.518 114.982C203.518 115.813 203.684 116.451 204.017 116.895C204.354 117.339 204.852 117.561 205.51 117.561C206.074 117.561 206.651 117.44 207.244 117.197V118.104C206.791 118.338 206.222 118.455 205.535 118.455ZM211.71 118.455C210.711 118.455 209.921 118.151 209.341 117.542C208.765 116.934 208.477 116.089 208.477 115.007C208.477 113.917 208.745 113.051 209.279 112.41C209.818 111.768 210.54 111.447 211.445 111.447C212.292 111.447 212.962 111.727 213.456 112.286C213.949 112.842 214.196 113.576 214.196 114.489V115.137H209.538C209.559 115.93 209.758 116.533 210.137 116.944C210.519 117.355 211.056 117.561 211.747 117.561C212.475 117.561 213.195 117.409 213.906 117.104V118.017C213.544 118.174 213.201 118.285 212.876 118.351C212.555 118.42 212.166 118.455 211.71 118.455ZM211.432 112.305C210.889 112.305 210.456 112.482 210.131 112.835C209.81 113.189 209.621 113.679 209.563 114.304H213.098C213.098 113.658 212.954 113.165 212.666 112.823C212.378 112.478 211.967 112.305 211.432 112.305ZM216.972 118.332H215.948V111.571H216.972V118.332ZM215.862 109.739C215.862 109.504 215.919 109.334 216.034 109.227C216.15 109.116 216.293 109.06 216.466 109.06C216.631 109.06 216.773 109.116 216.892 109.227C217.011 109.338 217.071 109.508 217.071 109.739C217.071 109.969 217.011 110.142 216.892 110.257C216.773 110.368 216.631 110.423 216.466 110.423C216.293 110.423 216.15 110.368 216.034 110.257C215.919 110.142 215.862 109.969 215.862 109.739ZM220.624 118.332L218.058 111.571H219.156L220.612 115.581C220.941 116.518 221.134 117.127 221.192 117.407H221.241C221.286 117.189 221.428 116.738 221.667 116.056C221.909 115.369 222.45 113.874 223.289 111.571H224.387L221.821 118.332H220.624ZM228.329 118.455C227.33 118.455 226.54 118.151 225.96 117.542C225.384 116.934 225.097 116.089 225.097 115.007C225.097 113.917 225.364 113.051 225.899 112.41C226.437 111.768 227.159 111.447 228.064 111.447C228.911 111.447 229.581 111.727 230.075 112.286C230.568 112.842 230.815 113.576 230.815 114.489V115.137H226.158C226.178 115.93 226.378 116.533 226.756 116.944C227.138 117.355 227.675 117.561 228.366 117.561C229.094 117.561 229.814 117.409 230.525 117.104V118.017C230.163 118.174 229.82 118.285 229.495 118.351C229.174 118.42 228.786 118.455 228.329 118.455ZM228.051 112.305C227.509 112.305 227.075 112.482 226.75 112.835C226.429 113.189 226.24 113.679 226.182 114.304H229.717C229.717 113.658 229.573 113.165 229.285 112.823C228.997 112.478 228.586 112.305 228.051 112.305ZM233.264 115.846V115.513C233.264 115.032 233.338 114.637 233.486 114.328C233.634 114.016 233.91 113.687 234.313 113.341C234.872 112.868 235.224 112.513 235.368 112.274C235.516 112.036 235.59 111.748 235.59 111.41C235.59 110.991 235.454 110.668 235.183 110.442C234.915 110.212 234.529 110.096 234.023 110.096C233.698 110.096 233.381 110.136 233.073 110.214C232.765 110.288 232.411 110.425 232.012 110.627L231.648 109.794C232.425 109.387 233.238 109.183 234.085 109.183C234.87 109.183 235.481 109.377 235.917 109.763C236.353 110.15 236.571 110.695 236.571 111.398C236.571 111.698 236.53 111.964 236.447 112.194C236.369 112.42 236.252 112.636 236.096 112.842C235.94 113.043 235.602 113.37 235.084 113.823C234.669 114.176 234.393 114.47 234.257 114.705C234.126 114.939 234.06 115.252 234.06 115.642V115.846H233.264ZM232.962 117.678C232.962 117.119 233.209 116.839 233.702 116.839C233.941 116.839 234.124 116.911 234.251 117.055C234.383 117.199 234.449 117.407 234.449 117.678C234.449 117.941 234.383 118.147 234.251 118.295C234.12 118.439 233.937 118.511 233.702 118.511C233.488 118.511 233.312 118.447 233.172 118.32C233.032 118.188 232.962 117.974 232.962 117.678Z" class="path-6"/>
<path d="M43.9348 81.7895C43.9348 82.8007 43.7315 83.6409 43.3249 84.3103C42.9182 84.9796 42.3442 85.433 41.6029 85.6705L43.4814 87.6245H42.1481L40.6097 85.8433L40.3129 85.8541C39.1505 85.8541 38.2527 85.4996 37.6193 84.7907C36.9896 84.0782 36.6747 83.0742 36.6747 81.7787C36.6747 80.494 36.9914 79.499 37.6247 78.7937C38.2581 78.0848 39.1577 77.7303 40.3237 77.7303C41.4572 77.7303 42.3424 78.0902 42.9794 78.8099C43.6163 79.5296 43.9348 80.5228 43.9348 81.7895ZM37.6463 81.7895C37.6463 82.8583 37.873 83.6697 38.3265 84.2239C38.7835 84.7745 39.4456 85.0498 40.3129 85.0498C41.1873 85.0498 41.8476 84.7745 42.2939 84.2239C42.7401 83.6733 42.9632 82.8619 42.9632 81.7895C42.9632 80.7279 42.7401 79.9236 42.2939 79.3767C41.8512 78.8261 41.1945 78.5508 40.3237 78.5508C39.4492 78.5508 38.7835 78.8279 38.3265 79.3821C37.873 79.9326 37.6463 80.7351 37.6463 81.7895ZM46.407 79.8301V83.6679C46.407 84.1501 46.5168 84.51 46.7363 84.7475C46.9558 84.985 47.2995 85.1038 47.7673 85.1038C48.3862 85.1038 48.8378 84.9346 49.1221 84.5964C49.41 84.2581 49.554 83.7057 49.554 82.9392V79.8301H50.45V85.7461H49.7105L49.5809 84.9526H49.5324C49.3488 85.2441 49.0933 85.4672 48.7659 85.6219C48.442 85.7767 48.0713 85.8541 47.6539 85.8541C46.9342 85.8541 46.3944 85.6831 46.0346 85.3413C45.6783 84.9994 45.5002 84.4524 45.5002 83.7003V79.8301H46.407ZM54.8546 85.8541C53.9802 85.8541 53.2892 85.5878 52.7819 85.0552C52.2781 84.5226 52.0262 83.7831 52.0262 82.8367C52.0262 81.883 52.2601 81.1256 52.7279 80.5642C53.1993 80.0028 53.8308 79.7221 54.6225 79.7221C55.3638 79.7221 55.9504 79.9668 56.3822 80.4562C56.814 80.942 57.0299 81.5844 57.0299 82.3832V82.95H52.9546C52.9726 83.6445 53.1471 84.1717 53.4782 84.5316C53.8128 84.8914 54.2824 85.0714 54.887 85.0714C55.5239 85.0714 56.1537 84.9382 56.7762 84.6719V85.4708C56.4596 85.6075 56.1591 85.7047 55.8748 85.7623C55.5941 85.8235 55.2541 85.8541 54.8546 85.8541ZM54.6117 80.4724C54.1367 80.4724 53.7571 80.6272 53.4728 80.9366C53.1921 81.2461 53.0266 81.6743 52.9762 82.2213H56.0691C56.0691 81.6563 55.9432 81.2245 55.6913 80.9258C55.4394 80.6236 55.0795 80.4724 54.6117 80.4724ZM62.3792 84.1321C62.3792 84.6827 62.1741 85.1074 61.7638 85.406C61.3536 85.7047 60.7778 85.8541 60.0365 85.8541C59.2521 85.8541 58.6403 85.7299 58.2013 85.4816V84.6503C58.4856 84.7943 58.7896 84.9076 59.1135 84.9904C59.441 85.0732 59.7558 85.1145 60.0581 85.1145C60.5259 85.1145 60.8858 85.0408 61.1377 84.8932C61.3896 84.7421 61.5155 84.5136 61.5155 84.2077C61.5155 83.9774 61.4148 83.7813 61.2133 83.6193C61.0153 83.4538 60.6267 83.2595 60.0473 83.0364C59.4968 82.8313 59.1045 82.6531 58.8706 82.502C58.6403 82.3473 58.4676 82.1727 58.3524 81.9784C58.2409 81.7841 58.1851 81.552 58.1851 81.2821C58.1851 80.7999 58.3812 80.4202 58.7734 80.1431C59.1657 79.8625 59.7037 79.7221 60.3874 79.7221C61.0243 79.7221 61.6469 79.8517 62.255 80.1108L61.9366 80.8395C61.3428 80.5948 60.8048 80.4724 60.3226 80.4724C59.898 80.4724 59.5777 80.539 59.3618 80.6721C59.1459 80.8053 59.0379 80.9888 59.0379 81.2227C59.0379 81.381 59.0775 81.516 59.1567 81.6275C59.2395 81.7391 59.3708 81.8453 59.5507 81.946C59.7307 82.0468 60.0761 82.1925 60.5871 82.3832C61.2888 82.6387 61.762 82.896 62.0067 83.1551C62.255 83.4142 62.3792 83.7399 62.3792 84.1321ZM65.7528 85.1145C65.9112 85.1145 66.0641 85.1038 66.2117 85.0822C66.3592 85.057 66.4761 85.0318 66.5625 85.0066V85.6921C66.4654 85.7389 66.3214 85.7767 66.1307 85.8055C65.9436 85.8379 65.7744 85.8541 65.6233 85.8541C64.4789 85.8541 63.9068 85.2513 63.9068 84.0458V80.5264H63.0593V80.0946L63.9068 79.7221L64.2846 78.459H64.8028V79.8301H66.5193V80.5264H64.8028V84.008C64.8028 84.3642 64.8874 84.6377 65.0565 84.8285C65.2256 85.0192 65.4578 85.1145 65.7528 85.1145ZM68.6461 85.7461H67.75V79.8301H68.6461V85.7461ZM67.6745 78.2269C67.6745 78.0218 67.7248 77.8725 67.8256 77.7789C67.9264 77.6817 68.0523 77.6332 68.2035 77.6332C68.3474 77.6332 68.4715 77.6817 68.5759 77.7789C68.6803 77.8761 68.7324 78.0254 68.7324 78.2269C68.7324 78.4284 68.6803 78.5796 68.5759 78.6803C68.4715 78.7775 68.3474 78.8261 68.2035 78.8261C68.0523 78.8261 67.9264 78.7775 67.8256 78.6803C67.7248 78.5796 67.6745 78.4284 67.6745 78.2269ZM75.6525 82.7827C75.6525 83.7471 75.4096 84.501 74.9238 85.0444C74.4379 85.5842 73.7668 85.8541 72.9104 85.8541C72.3814 85.8541 71.9118 85.7299 71.5015 85.4816C71.0913 85.2333 70.7746 84.877 70.5515 84.4128C70.3284 83.9486 70.2168 83.4052 70.2168 82.7827C70.2168 81.8183 70.4579 81.068 70.9402 80.5318C71.4224 79.992 72.0917 79.7221 72.9481 79.7221C73.7758 79.7221 74.4325 79.9974 74.9184 80.548C75.4078 81.0986 75.6525 81.8435 75.6525 82.7827ZM71.1453 82.7827C71.1453 83.5384 71.2964 84.1141 71.5987 84.51C71.901 84.9058 72.3454 85.1038 72.932 85.1038C73.5185 85.1038 73.9629 84.9076 74.2652 84.5154C74.5711 84.1195 74.724 83.542 74.724 82.7827C74.724 82.0306 74.5711 81.4602 74.2652 81.0716C73.9629 80.6793 73.5149 80.4832 72.9212 80.4832C72.3346 80.4832 71.892 80.6757 71.5933 81.0608C71.2946 81.4458 71.1453 82.0198 71.1453 82.7827ZM81.277 85.7461V81.919C81.277 81.4368 81.1672 81.077 80.9477 80.8395C80.7282 80.602 80.3846 80.4832 79.9167 80.4832C79.2978 80.4832 78.8444 80.6505 78.5565 80.9852C78.2686 81.3199 78.1247 81.8723 78.1247 82.6423V85.7461H77.2286V79.8301H77.9573L78.1031 80.6397H78.1463C78.3298 80.3483 78.5871 80.1234 78.9181 79.965C79.2492 79.8031 79.6181 79.7221 80.0247 79.7221C80.7372 79.7221 81.2734 79.8948 81.6333 80.2403C81.9931 80.5822 82.173 81.1309 82.173 81.8866V85.7461H81.277Z" class="path-7"/>
<g clip-path="url(#clip0_21428_72863)">
<g clip-path="url(#clip1_21428_72863)">
<path fill-rule="evenodd" clip-rule="evenodd" d="M36 152.708C36 149.219 38.8286 146.391 42.317 146.391C45.8055 146.391 48.634 149.219 48.634 152.708C48.634 156.196 45.8055 159.025 42.317 159.025C38.8286 159.025 36 156.196 36 152.708ZM37.0716 152.708C37.0716 155.604 39.4208 157.953 42.317 157.953C45.2132 157.953 47.5624 155.604 47.5624 152.708C47.5624 149.811 45.2132 147.462 42.317 147.462C39.4208 147.462 37.0716 149.811 37.0716 152.708ZM41.8382 150.705C41.7113 150.578 41.64 150.405 41.64 150.226C41.64 150.046 41.7113 149.874 41.8382 149.747C41.9651 149.62 42.1373 149.549 42.3168 149.549C42.4963 149.549 42.6684 149.62 42.7954 149.747C42.9223 149.874 42.9936 150.046 42.9936 150.226C42.9936 150.405 42.9223 150.578 42.7954 150.705C42.6684 150.831 42.4963 150.903 42.3168 150.903C42.1373 150.903 41.9651 150.831 41.8382 150.705ZM41.8656 151.918C41.8656 151.856 41.9163 151.805 41.9784 151.805H42.6552C42.7172 151.805 42.768 151.856 42.768 151.918V155.753C42.768 155.815 42.7172 155.866 42.6552 155.866H41.9784C41.9163 155.866 41.8656 155.815 41.8656 155.753V151.918Z" class="path-8"/>
</g>
<path d="M58.4652 156.812H57.5475V149.736H55.0483V148.921H60.9644V149.736H58.4652V156.812ZM61.0831 150.896H62.0439L63.3394 154.27C63.6237 155.04 63.8 155.596 63.8684 155.938H63.9116C63.9584 155.755 64.0555 155.441 64.2031 154.999C64.3542 154.553 64.8436 153.185 65.6713 150.896H66.6321L64.0897 157.633C63.8378 158.299 63.5427 158.77 63.2045 159.047C62.8698 159.328 62.4578 159.468 61.9684 159.468C61.6949 159.468 61.425 159.438 61.1587 159.376V158.659C61.3566 158.702 61.5779 158.723 61.8226 158.723C62.438 158.723 62.877 158.378 63.1397 157.687L63.4689 156.845L61.0831 150.896ZM70.3458 156.92C69.9607 156.92 69.6081 156.85 69.2878 156.71C68.9711 156.566 68.7048 156.346 68.4889 156.051H68.4242C68.4673 156.397 68.4889 156.724 68.4889 157.034V159.468H67.5929V150.896H68.3216L68.4457 151.706H68.4889C68.7192 151.382 68.9873 151.148 69.2932 151.004C69.5991 150.86 69.9499 150.789 70.3458 150.789C71.1303 150.789 71.7348 151.057 72.1595 151.593C72.5877 152.129 72.8018 152.881 72.8018 153.849C72.8018 154.821 72.5841 155.576 72.1487 156.116C71.7168 156.652 71.1159 156.92 70.3458 156.92ZM70.2162 151.55C69.6117 151.55 69.1745 151.717 68.9046 152.052C68.6347 152.386 68.4961 152.919 68.4889 153.649V153.849C68.4889 154.68 68.6275 155.276 68.9046 155.636C69.1817 155.992 69.6261 156.17 70.2378 156.17C70.7488 156.17 71.1483 155.963 71.4361 155.549C71.7276 155.136 71.8734 154.565 71.8734 153.838C71.8734 153.101 71.7276 152.536 71.4361 152.143C71.1483 151.748 70.7416 151.55 70.2162 151.55ZM76.8718 156.92C75.9973 156.92 75.3064 156.654 74.799 156.122C74.2952 155.589 74.0433 154.849 74.0433 153.903C74.0433 152.949 74.2772 152.192 74.745 151.631C75.2164 151.069 75.848 150.789 76.6397 150.789C77.381 150.789 77.9675 151.033 78.3993 151.523C78.8312 152.008 79.0471 152.651 79.0471 153.45V154.016H74.9717C74.9897 154.711 75.1642 155.238 75.4953 155.598C75.83 155.958 76.2996 156.138 76.9041 156.138C77.5411 156.138 78.1708 156.005 78.7934 155.738V156.537C78.4767 156.674 78.1762 156.771 77.8919 156.829C77.6113 156.89 77.2712 156.92 76.8718 156.92ZM76.6289 151.539C76.1538 151.539 75.7742 151.694 75.4899 152.003C75.2092 152.313 75.0437 152.741 74.9933 153.288H78.0863C78.0863 152.723 77.9603 152.291 77.7084 151.992C77.4565 151.69 77.0967 151.539 76.6289 151.539ZM85.3625 156.181C85.5209 156.181 85.6738 156.17 85.8214 156.149C85.9689 156.123 86.0859 156.098 86.1722 156.073V156.759C86.0751 156.805 85.9311 156.843 85.7404 156.872C85.5533 156.904 85.3841 156.92 85.233 156.92C84.0887 156.92 83.5165 156.318 83.5165 155.112V151.593H82.669V151.161L83.5165 150.789L83.8943 149.525H84.4125V150.896H86.129V151.593H84.4125V155.074C84.4125 155.431 84.4971 155.704 84.6662 155.895C84.8354 156.086 85.0675 156.181 85.3625 156.181ZM91.4081 156.812V152.985C91.4081 152.503 91.2984 152.143 91.0788 151.906C90.8593 151.668 90.5157 151.55 90.0479 151.55C89.4253 151.55 88.9701 151.719 88.6822 152.057C88.3979 152.395 88.2558 152.949 88.2558 153.72V156.812H87.3597V148.413H88.2558V150.956C88.2558 151.262 88.2414 151.515 88.2126 151.717H88.2666C88.4429 151.433 88.693 151.21 89.0169 151.048C89.3443 150.882 89.7168 150.799 90.1342 150.799C90.8575 150.799 91.3991 150.972 91.759 151.318C92.1224 151.659 92.3042 152.205 92.3042 152.953V156.812H91.4081ZM96.6494 156.92C95.775 156.92 95.084 156.654 94.5766 156.122C94.0728 155.589 93.8209 154.849 93.8209 153.903C93.8209 152.949 94.0549 152.192 94.5227 151.631C94.9941 151.069 95.6256 150.789 96.4173 150.789C97.1586 150.789 97.7452 151.033 98.177 151.523C98.6088 152.008 98.8247 152.651 98.8247 153.45V154.016H94.7494C94.7674 154.711 94.9419 155.238 95.273 155.598C95.6076 155.958 96.0772 156.138 96.6818 156.138C97.3187 156.138 97.9485 156.005 98.571 155.738V156.537C98.2544 156.674 97.9539 156.771 97.6696 156.829C97.3889 156.89 97.0488 156.92 96.6494 156.92ZM96.4065 151.539C95.9315 151.539 95.5518 151.694 95.2676 152.003C94.9869 152.313 94.8213 152.741 94.771 153.288H97.8639C97.8639 152.723 97.738 152.291 97.4861 151.992C97.2342 151.69 96.8743 151.539 96.4065 151.539ZM105.464 156.17C106.061 156.17 106.497 156.01 106.77 155.69C107.044 155.369 107.19 154.83 107.208 154.07V153.871C107.208 153.043 107.067 152.447 106.787 152.084C106.506 151.721 106.061 151.539 105.453 151.539C104.928 151.539 104.525 151.744 104.244 152.154C103.967 152.561 103.829 153.137 103.829 153.881C103.829 154.626 103.965 155.195 104.239 155.587C104.516 155.976 104.924 156.17 105.464 156.17ZM105.329 156.92C104.566 156.92 103.971 156.652 103.542 156.116C103.114 155.58 102.9 154.831 102.9 153.871C102.9 152.903 103.116 152.147 103.548 151.604C103.98 151.06 104.581 150.789 105.351 150.789C106.16 150.789 106.783 151.094 107.218 151.706H107.267L107.396 150.896H108.104V159.468H107.208V156.937C107.208 156.577 107.227 156.271 107.267 156.019H107.197C106.783 156.62 106.16 156.92 105.329 156.92ZM110.851 150.896V154.734C110.851 155.217 110.961 155.576 111.18 155.814C111.4 156.051 111.744 156.17 112.211 156.17C112.83 156.17 113.282 156.001 113.566 155.663C113.854 155.324 113.998 154.772 113.998 154.006V150.896H114.894V156.812H114.155L114.025 156.019H113.976C113.793 156.311 113.537 156.534 113.21 156.688C112.886 156.843 112.515 156.92 112.098 156.92C111.378 156.92 110.839 156.75 110.479 156.408C110.122 156.066 109.944 155.519 109.944 154.767V150.896H110.851ZM119.299 156.92C118.424 156.92 117.733 156.654 117.226 156.122C116.722 155.589 116.47 154.849 116.47 153.903C116.47 152.949 116.704 152.192 117.172 151.631C117.643 151.069 118.275 150.789 119.067 150.789C119.808 150.789 120.394 151.033 120.826 151.523C121.258 152.008 121.474 152.651 121.474 153.45V154.016H117.399C117.417 154.711 117.591 155.238 117.922 155.598C118.257 155.958 118.727 156.138 119.331 156.138C119.968 156.138 120.598 156.005 121.22 155.738V156.537C120.904 156.674 120.603 156.771 120.319 156.829C120.038 156.89 119.698 156.92 119.299 156.92ZM119.056 151.539C118.581 151.539 118.201 151.694 117.917 152.003C117.636 152.313 117.471 152.741 117.42 153.288H120.513C120.513 152.723 120.387 152.291 120.135 151.992C119.883 151.69 119.524 151.539 119.056 151.539ZM126.823 155.199C126.823 155.749 126.618 156.174 126.208 156.472C125.798 156.771 125.222 156.92 124.481 156.92C123.696 156.92 123.084 156.796 122.645 156.548V155.717C122.93 155.861 123.234 155.974 123.558 156.057C123.885 156.14 124.2 156.181 124.502 156.181C124.97 156.181 125.33 156.107 125.582 155.96C125.834 155.809 125.96 155.58 125.96 155.274C125.96 155.044 125.859 154.848 125.657 154.686C125.459 154.52 125.071 154.326 124.491 154.103C123.941 153.898 123.549 153.72 123.315 153.568C123.084 153.414 122.912 153.239 122.796 153.045C122.685 152.85 122.629 152.618 122.629 152.348C122.629 151.866 122.825 151.487 123.218 151.21C123.61 150.929 124.148 150.789 124.831 150.789C125.468 150.789 126.091 150.918 126.699 151.177L126.381 151.906C125.787 151.661 125.249 151.539 124.767 151.539C124.342 151.539 124.022 151.605 123.806 151.739C123.59 151.872 123.482 152.055 123.482 152.289C123.482 152.447 123.522 152.582 123.601 152.694C123.684 152.806 123.815 152.912 123.995 153.012C124.175 153.113 124.52 153.259 125.031 153.45C125.733 153.705 126.206 153.962 126.451 154.222C126.699 154.481 126.823 154.806 126.823 155.199ZM130.197 156.181C130.355 156.181 130.508 156.17 130.656 156.149C130.803 156.123 130.92 156.098 131.007 156.073V156.759C130.909 156.805 130.765 156.843 130.575 156.872C130.388 156.904 130.219 156.92 130.067 156.92C128.923 156.92 128.351 156.318 128.351 155.112V151.593H127.503V151.161L128.351 150.789L128.729 149.525H129.247V150.896H130.963V151.593H129.247V155.074C129.247 155.431 129.331 155.704 129.501 155.895C129.67 156.086 129.902 156.181 130.197 156.181ZM133.09 156.812H132.194V150.896H133.09V156.812ZM132.119 149.293C132.119 149.088 132.169 148.939 132.27 148.845C132.37 148.748 132.496 148.7 132.648 148.7C132.791 148.7 132.916 148.748 133.02 148.845C133.124 148.942 133.177 149.092 133.177 149.293C133.177 149.495 133.124 149.646 133.02 149.747C132.916 149.844 132.791 149.892 132.648 149.892C132.496 149.892 132.37 149.844 132.27 149.747C132.169 149.646 132.119 149.495 132.119 149.293ZM140.097 153.849C140.097 154.814 139.854 155.567 139.368 156.111C138.882 156.651 138.211 156.92 137.354 156.92C136.825 156.92 136.356 156.796 135.946 156.548C135.535 156.3 135.219 155.943 134.996 155.479C134.772 155.015 134.661 154.472 134.661 153.849C134.661 152.885 134.902 152.134 135.384 151.598C135.866 151.058 136.536 150.789 137.392 150.789C138.22 150.789 138.877 151.064 139.362 151.614C139.852 152.165 140.097 152.91 140.097 153.849ZM135.589 153.849C135.589 154.605 135.74 155.181 136.043 155.576C136.345 155.972 136.789 156.17 137.376 156.17C137.963 156.17 138.407 155.974 138.709 155.582C139.015 155.186 139.168 154.608 139.168 153.849C139.168 153.097 139.015 152.527 138.709 152.138C138.407 151.746 137.959 151.55 137.365 151.55C136.779 151.55 136.336 151.742 136.037 152.127C135.739 152.512 135.589 153.086 135.589 153.849ZM145.721 156.812V152.985C145.721 152.503 145.611 152.143 145.392 151.906C145.172 151.668 144.829 151.55 144.361 151.55C143.742 151.55 143.288 151.717 143.001 152.052C142.713 152.386 142.569 152.939 142.569 153.709V156.812H141.673V150.896H142.401L142.547 151.706H142.59C142.774 151.415 143.031 151.19 143.362 151.031C143.693 150.869 144.062 150.789 144.469 150.789C145.181 150.789 145.717 150.961 146.077 151.307C146.437 151.649 146.617 152.197 146.617 152.953V156.812H145.721ZM150.617 159.468C150.275 159.468 149.998 159.423 149.786 159.333V158.605C150.034 158.677 150.279 158.713 150.52 158.713C150.8 158.713 151.006 158.635 151.135 158.48C151.268 158.329 151.335 158.097 151.335 157.784V150.896H152.231V157.719C152.231 158.885 151.693 159.468 150.617 159.468ZM151.259 149.293C151.259 149.088 151.31 148.939 151.41 148.845C151.511 148.748 151.637 148.7 151.788 148.7C151.932 148.7 152.056 148.748 152.161 148.845C152.265 148.942 152.317 149.092 152.317 149.293C152.317 149.495 152.265 149.646 152.161 149.747C152.056 149.844 151.932 149.892 151.788 149.892C151.637 149.892 151.511 149.844 151.41 149.747C151.31 149.646 151.259 149.495 151.259 149.293ZM154.973 150.896V154.734C154.973 155.217 155.083 155.576 155.302 155.814C155.522 156.051 155.865 156.17 156.333 156.17C156.952 156.17 157.404 156.001 157.688 155.663C157.976 155.324 158.12 154.772 158.12 154.006V150.896H159.016V156.812H158.276L158.147 156.019H158.098C157.915 156.311 157.659 156.534 157.332 156.688C157.008 156.843 156.637 156.92 156.22 156.92C155.5 156.92 154.96 156.75 154.601 156.408C154.244 156.066 154.066 155.519 154.066 154.767V150.896H154.973ZM163.62 150.789C163.883 150.789 164.119 150.81 164.327 150.853L164.203 151.685C163.959 151.631 163.743 151.604 163.556 151.604C163.077 151.604 162.667 151.798 162.325 152.187C161.987 152.575 161.817 153.059 161.817 153.639V156.812H160.921V150.896H161.661L161.763 151.992H161.807C162.026 151.607 162.291 151.31 162.6 151.102C162.91 150.893 163.25 150.789 163.62 150.789ZM170.54 153.849C170.54 154.814 170.297 155.567 169.812 156.111C169.326 156.651 168.655 156.92 167.798 156.92C167.269 156.92 166.8 156.796 166.389 156.548C165.979 156.3 165.662 155.943 165.439 155.479C165.216 155.015 165.105 154.472 165.105 153.849C165.105 152.885 165.346 152.134 165.828 151.598C166.31 151.058 166.98 150.789 167.836 150.789C168.664 150.789 169.32 151.064 169.806 151.614C170.296 152.165 170.54 152.91 170.54 153.849ZM166.033 153.849C166.033 154.605 166.184 155.181 166.487 155.576C166.789 155.972 167.233 156.17 167.82 156.17C168.406 156.17 168.851 155.974 169.153 155.582C169.459 155.186 169.612 154.608 169.612 153.849C169.612 153.097 169.459 152.527 169.153 152.138C168.851 151.746 168.403 151.55 167.809 151.55C167.222 151.55 166.78 151.742 166.481 152.127C166.182 152.512 166.033 153.086 166.033 153.849ZM174.815 150.789C175.078 150.789 175.314 150.81 175.522 150.853L175.398 151.685C175.154 151.631 174.938 151.604 174.751 151.604C174.272 151.604 173.862 151.798 173.52 152.187C173.182 152.575 173.013 153.059 173.013 153.639V156.812H172.116V150.896H172.856L172.959 151.992H173.002C173.221 151.607 173.486 151.31 173.795 151.102C174.105 150.893 174.445 150.789 174.815 150.789ZM180.445 155.199C180.445 155.749 180.24 156.174 179.83 156.472C179.42 156.771 178.844 156.92 178.103 156.92C177.318 156.92 176.706 156.796 176.267 156.548V155.717C176.552 155.861 176.856 155.974 177.18 156.057C177.507 156.14 177.822 156.181 178.124 156.181C178.592 156.181 178.952 156.107 179.204 155.96C179.456 155.809 179.582 155.58 179.582 155.274C179.582 155.044 179.481 154.848 179.279 154.686C179.081 154.52 178.693 154.326 178.113 154.103C177.563 153.898 177.171 153.72 176.937 153.568C176.706 153.414 176.534 153.239 176.419 153.045C176.307 152.85 176.251 152.618 176.251 152.348C176.251 151.866 176.447 151.487 176.84 151.21C177.232 150.929 177.77 150.789 178.454 150.789C179.09 150.789 179.713 150.918 180.321 151.177L180.003 151.906C179.409 151.661 178.871 151.539 178.389 151.539C177.964 151.539 177.644 151.605 177.428 151.739C177.212 151.872 177.104 152.055 177.104 152.289C177.104 152.447 177.144 152.582 177.223 152.694C177.306 152.806 177.437 152.912 177.617 153.012C177.797 153.113 178.142 153.259 178.653 153.45C179.355 153.705 179.828 153.962 180.073 154.222C180.321 154.481 180.445 154.806 180.445 155.199ZM189.611 156.812L188.526 153.342C188.457 153.129 188.33 152.647 188.143 151.895H188.099C187.955 152.525 187.83 153.011 187.722 153.352L186.604 156.812H185.568L183.954 150.896H184.893C185.275 152.383 185.564 153.514 185.762 154.292C185.964 155.069 186.079 155.593 186.108 155.862H186.151C186.19 155.657 186.253 155.393 186.34 155.069C186.43 154.742 186.507 154.482 186.572 154.292L187.657 150.896H188.628L189.686 154.292C189.888 154.911 190.025 155.431 190.097 155.852H190.14C190.154 155.722 190.192 155.522 190.253 155.253C190.318 154.983 190.694 153.531 191.381 150.896H192.31L190.674 156.812H189.611ZM194.28 156.812H193.384V150.896H194.28V156.812ZM193.308 149.293C193.308 149.088 193.359 148.939 193.459 148.845C193.56 148.748 193.686 148.7 193.837 148.7C193.981 148.7 194.105 148.748 194.21 148.845C194.314 148.942 194.366 149.092 194.366 149.293C194.366 149.495 194.314 149.646 194.21 149.747C194.105 149.844 193.981 149.892 193.837 149.892C193.686 149.892 193.56 149.844 193.459 149.747C193.359 149.646 193.308 149.495 193.308 149.293ZM197.076 156.812H196.18V148.413H197.076V156.812ZM199.872 156.812H198.976V148.413H199.872V156.812ZM208.46 155.199C208.46 155.749 208.255 156.174 207.845 156.472C207.434 156.771 206.859 156.92 206.117 156.92C205.333 156.92 204.721 156.796 204.282 156.548V155.717C204.566 155.861 204.87 155.974 205.194 156.057C205.522 156.14 205.837 156.181 206.139 156.181C206.607 156.181 206.967 156.107 207.219 155.96C207.47 155.809 207.596 155.58 207.596 155.274C207.596 155.044 207.496 154.848 207.294 154.686C207.096 154.52 206.708 154.326 206.128 154.103C205.578 153.898 205.185 153.72 204.951 153.568C204.721 153.414 204.548 153.239 204.433 153.045C204.322 152.85 204.266 152.618 204.266 152.348C204.266 151.866 204.462 151.487 204.854 151.21C205.247 150.929 205.785 150.789 206.468 150.789C207.105 150.789 207.728 150.918 208.336 151.177L208.017 151.906C207.424 151.661 206.886 151.539 206.403 151.539C205.979 151.539 205.659 151.605 205.443 151.739C205.227 151.872 205.119 152.055 205.119 152.289C205.119 152.447 205.158 152.582 205.238 152.694C205.32 152.806 205.452 152.912 205.632 153.012C205.812 153.113 206.157 153.259 206.668 153.45C207.37 153.705 207.843 153.962 208.088 154.222C208.336 154.481 208.46 154.806 208.46 155.199ZM212.422 156.92C211.548 156.92 210.857 156.654 210.349 156.122C209.845 155.589 209.594 154.849 209.594 153.903C209.594 152.949 209.827 152.192 210.295 151.631C210.767 151.069 211.398 150.789 212.19 150.789C212.931 150.789 213.518 151.033 213.95 151.523C214.381 152.008 214.597 152.651 214.597 153.45V154.016H210.522C210.54 154.711 210.715 155.238 211.046 155.598C211.38 155.958 211.85 156.138 212.454 156.138C213.091 156.138 213.721 156.005 214.344 155.738V156.537C214.027 156.674 213.727 156.771 213.442 156.829C213.162 156.89 212.821 156.92 212.422 156.92ZM212.179 151.539C211.704 151.539 211.324 151.694 211.04 152.003C210.76 152.313 210.594 152.741 210.544 153.288H213.637C213.637 152.723 213.511 152.291 213.259 151.992C213.007 151.69 212.647 151.539 212.179 151.539ZM218.63 156.92C217.755 156.92 217.064 156.654 216.557 156.122C216.053 155.589 215.801 154.849 215.801 153.903C215.801 152.949 216.035 152.192 216.503 151.631C216.974 151.069 217.606 150.789 218.397 150.789C219.139 150.789 219.725 151.033 220.157 151.523C220.589 152.008 220.805 152.651 220.805 153.45V154.016H216.73C216.748 154.711 216.922 155.238 217.253 155.598C217.588 155.958 218.057 156.138 218.662 156.138C219.299 156.138 219.929 156.005 220.551 155.738V156.537C220.235 156.674 219.934 156.771 219.65 156.829C219.369 156.89 219.029 156.92 218.63 156.92ZM218.387 151.539C217.912 151.539 217.532 151.694 217.248 152.003C216.967 152.313 216.801 152.741 216.751 153.288H219.844C219.844 152.723 219.718 152.291 219.466 151.992C219.214 151.69 218.854 151.539 218.387 151.539ZM230.041 156.812L228.956 153.342C228.887 153.129 228.759 152.647 228.572 151.895H228.529C228.385 152.525 228.259 153.011 228.151 153.352L227.034 156.812H225.998L224.384 150.896H225.323C225.704 152.383 225.994 153.514 226.192 154.292C226.393 155.069 226.509 155.593 226.537 155.862H226.581C226.62 155.657 226.683 155.393 226.769 155.069C226.859 154.742 226.937 154.482 227.002 154.292L228.087 150.896H229.058L230.116 154.292C230.318 154.911 230.454 155.431 230.526 155.852H230.57C230.584 155.722 230.622 155.522 230.683 155.253C230.748 154.983 231.124 153.531 231.811 150.896H232.739L231.104 156.812H230.041ZM237.862 156.812V152.985C237.862 152.503 237.752 152.143 237.533 151.906C237.313 151.668 236.97 151.55 236.502 151.55C235.879 151.55 235.424 151.719 235.136 152.057C234.852 152.395 234.71 152.949 234.71 153.72V156.812H233.814V148.413H234.71V150.956C234.71 151.262 234.695 151.515 234.667 151.717H234.72C234.897 151.433 235.147 151.21 235.471 151.048C235.798 150.882 236.171 150.799 236.588 150.799C237.311 150.799 237.853 150.972 238.213 151.318C238.576 151.659 238.758 152.205 238.758 152.953V156.812H237.862ZM243.103 156.92C242.229 156.92 241.538 156.654 241.031 156.122C240.527 155.589 240.275 154.849 240.275 153.903C240.275 152.949 240.509 152.192 240.977 151.631C241.448 151.069 242.08 150.789 242.871 150.789C243.613 150.789 244.199 151.033 244.631 151.523C245.063 152.008 245.279 152.651 245.279 153.45V154.016H241.203C241.221 154.711 241.396 155.238 241.727 155.598C242.062 155.958 242.531 156.138 243.136 156.138C243.773 156.138 244.402 156.005 245.025 155.738V156.537C244.708 156.674 244.408 156.771 244.124 156.829C243.843 156.89 243.503 156.92 243.103 156.92ZM242.86 151.539C242.385 151.539 242.006 151.694 241.721 152.003C241.441 152.313 241.275 152.741 241.225 153.288H244.318C244.318 152.723 244.192 152.291 243.94 151.992C243.688 151.69 243.328 151.539 242.86 151.539ZM250.86 156.812V152.985C250.86 152.503 250.75 152.143 250.531 151.906C250.311 151.668 249.968 151.55 249.5 151.55C248.881 151.55 248.427 151.717 248.14 152.052C247.852 152.386 247.708 152.939 247.708 153.709V156.812H246.812V150.896H247.54L247.686 151.706H247.729C247.913 151.415 248.17 151.19 248.501 151.031C248.832 150.869 249.201 150.789 249.608 150.789C250.32 150.789 250.856 150.961 251.216 151.307C251.576 151.649 251.756 152.197 251.756 152.953V156.812H250.86ZM257.769 156.812L255.524 150.896H256.485L257.758 154.405C258.046 155.226 258.215 155.758 258.266 156.003H258.309C258.349 155.812 258.473 155.418 258.681 154.821C258.894 154.22 259.367 152.912 260.101 150.896H261.062L258.816 156.812H257.769ZM267.118 153.849C267.118 154.814 266.875 155.567 266.39 156.111C265.904 156.651 265.233 156.92 264.376 156.92C263.847 156.92 263.378 156.796 262.967 156.548C262.557 156.3 262.24 155.943 262.017 155.479C261.794 155.015 261.683 154.472 261.683 153.849C261.683 152.885 261.924 152.134 262.406 151.598C262.888 151.058 263.558 150.789 264.414 150.789C265.242 150.789 265.898 151.064 266.384 151.614C266.874 152.165 267.118 152.91 267.118 153.849ZM262.611 153.849C262.611 154.605 262.762 155.181 263.064 155.576C263.367 155.972 263.811 156.17 264.398 156.17C264.984 156.17 265.429 155.974 265.731 155.582C266.037 155.186 266.19 154.608 266.19 153.849C266.19 153.097 266.037 152.527 265.731 152.138C265.429 151.746 264.981 151.55 264.387 151.55C263.8 151.55 263.358 151.742 263.059 152.127C262.76 152.512 262.611 153.086 262.611 153.849ZM270.605 156.181C270.764 156.181 270.917 156.17 271.064 156.149C271.212 156.123 271.329 156.098 271.415 156.073V156.759C271.318 156.805 271.174 156.843 270.983 156.872C270.796 156.904 270.627 156.92 270.476 156.92C269.331 156.92 268.759 156.318 268.759 155.112V151.593H267.912V151.161L268.759 150.789L269.137 149.525H269.655V150.896H271.372V151.593H269.655V155.074C269.655 155.431 269.74 155.704 269.909 155.895C270.078 156.086 270.31 156.181 270.605 156.181ZM273.499 156.812H272.602V150.896H273.499V156.812ZM272.527 149.293C272.527 149.088 272.577 148.939 272.678 148.845C272.779 148.748 272.905 148.7 273.056 148.7C273.2 148.7 273.324 148.748 273.428 148.845C273.533 148.942 273.585 149.092 273.585 149.293C273.585 149.495 273.533 149.646 273.428 149.747C273.324 149.844 273.2 149.892 273.056 149.892C272.905 149.892 272.779 149.844 272.678 149.747C272.577 149.646 272.527 149.495 272.527 149.293ZM279.447 156.812V152.985C279.447 152.503 279.337 152.143 279.118 151.906C278.898 151.668 278.554 151.55 278.087 151.55C277.468 151.55 277.014 151.717 276.726 152.052C276.439 152.386 276.295 152.939 276.295 153.709V156.812H275.399V150.896H276.127L276.273 151.706H276.316C276.5 151.415 276.757 151.19 277.088 151.031C277.419 150.869 277.788 150.789 278.195 150.789C278.907 150.789 279.443 150.961 279.803 151.307C280.163 151.649 280.343 152.197 280.343 152.953V156.812H279.447ZM287.031 150.896V151.463L285.935 151.593C286.036 151.719 286.126 151.884 286.205 152.089C286.284 152.291 286.324 152.519 286.324 152.775C286.324 153.354 286.126 153.817 285.73 154.162C285.334 154.508 284.791 154.68 284.1 154.68C283.924 154.68 283.758 154.666 283.603 154.637C283.222 154.839 283.031 155.092 283.031 155.398C283.031 155.56 283.098 155.681 283.231 155.76C283.364 155.835 283.592 155.873 283.916 155.873H284.963C285.604 155.873 286.095 156.008 286.437 156.278C286.783 156.548 286.955 156.94 286.955 157.455C286.955 158.11 286.693 158.608 286.167 158.95C285.642 159.296 284.875 159.468 283.868 159.468C283.094 159.468 282.497 159.324 282.076 159.036C281.658 158.749 281.449 158.342 281.449 157.816C281.449 157.457 281.565 157.145 281.795 156.883C282.025 156.62 282.349 156.442 282.767 156.348C282.615 156.28 282.488 156.174 282.383 156.03C282.283 155.886 282.232 155.719 282.232 155.528C282.232 155.312 282.29 155.123 282.405 154.961C282.52 154.799 282.702 154.643 282.95 154.491C282.644 154.365 282.394 154.151 282.2 153.849C282.009 153.547 281.914 153.201 281.914 152.813C281.914 152.165 282.108 151.667 282.497 151.318C282.885 150.965 283.436 150.789 284.148 150.789C284.458 150.789 284.737 150.825 284.985 150.896H287.031ZM282.313 157.806C282.313 158.126 282.448 158.369 282.718 158.534C282.988 158.7 283.375 158.783 283.879 158.783C284.631 158.783 285.187 158.669 285.546 158.443C285.91 158.22 286.092 157.915 286.092 157.53C286.092 157.21 285.993 156.987 285.795 156.861C285.597 156.739 285.224 156.678 284.677 156.678H283.603C283.197 156.678 282.88 156.775 282.653 156.969C282.427 157.163 282.313 157.442 282.313 157.806ZM282.799 152.791C282.799 153.205 282.916 153.518 283.15 153.73C283.384 153.943 283.709 154.049 284.127 154.049C285.001 154.049 285.438 153.624 285.438 152.775C285.438 151.886 284.996 151.442 284.111 151.442C283.69 151.442 283.366 151.555 283.139 151.782C282.912 152.008 282.799 152.345 282.799 152.791ZM288.116 156.24C288.116 155.999 288.17 155.818 288.278 155.695C288.389 155.569 288.548 155.506 288.753 155.506C288.961 155.506 289.123 155.569 289.239 155.695C289.357 155.818 289.417 155.999 289.417 156.24C289.417 156.474 289.357 156.654 289.239 156.78C289.12 156.906 288.958 156.969 288.753 156.969C288.569 156.969 288.416 156.913 288.294 156.802C288.175 156.687 288.116 156.499 288.116 156.24Z" class="path-9"/>
</g>
<circle cx="79.75" cy="355.5" r="12.5" fill-opacity="0.12" class="circle-1"/>
<g clip-path="url(#clip2_21428_72863)">
<path d="M85.8641 354.977H73.6359C73.5611 354.977 73.5 355.038 73.5 355.112V356.131C73.5 356.206 73.5611 356.267 73.6359 356.267H85.8641C85.9389 356.267 86 356.206 86 356.131V355.112C86 355.038 85.9389 354.977 85.8641 354.977Z" fill="white" class="path-10"/>
</g>
<circle cx="48.5" cy="355.5" r="12.5" class="circle-2"/>
<g clip-path="url(#clip3_21428_72863)">
<path d="M49.0447 349.246H47.9545C47.8576 349.246 47.8092 349.292 47.8092 349.385V354.836H42.3953C42.2984 354.836 42.25 354.883 42.25 354.975V356.017C42.25 356.109 42.2984 356.156 42.3953 356.156H47.8092V361.607C47.8092 361.7 47.8576 361.746 47.9545 361.746H49.0447C49.1415 361.746 49.19 361.7 49.19 361.607V356.156H54.6047C54.7016 356.156 54.75 356.109 54.75 356.017V354.975C54.75 354.883 54.7016 354.836 54.6047 354.836H49.19V349.385C49.19 349.292 49.1415 349.246 49.0447 349.246Z" fill="white" class="path-11"/>
</g>
<defs>
<filter id="filter0_d_21428_72863" x="0.682432" y="0.227477" width="344.635" height="402.635" filterUnits="userSpaceOnUse" color-interpolation-filters="sRGB">
<feFlood flood-opacity="0" result="BackgroundImageFix"/>
<feColorMatrix in="SourceAlpha" type="matrix" values="0 0 0 0 0 0 0 0 0 0 0 0 0 0 0 0 0 0 127 0" result="hardAlpha"/>
<feOffset dy="1.54505"/>
<feGaussianBlur stdDeviation="1.15878"/>
<feColorMatrix type="matrix" values="0 0 0 0 0 0 0 0 0 0 0 0 0 0 0 0 0 0 0.06 0"/>
<feBlend mode="normal" in2="BackgroundImageFix" result="effect1_dropShadow_21428_72863"/>
<feBlend mode="normal" in="SourceGraphic" in2="effect1_dropShadow_21428_72863" result="shape"/>
</filter>
<clipPath id="clip0_21428_72863">
<rect width="274" height="14.2133" fill="white" transform="translate(36 146.391)" class="rect-6"/>
</clipPath>
<clipPath id="clip1_21428_72863">
<rect width="12.634" height="12.634" fill="white" transform="translate(36 146.391)" class="rect-7"/>
</clipPath>
<clipPath id="clip2_21428_72863">
<rect width="12.5" height="12.5" fill="white" transform="translate(73.5 349.246)" class="rect-8"/>
</clipPath>
<clipPath id="clip3_21428_72863">
<rect width="12.5" height="12.5" fill="white" transform="translate(42.25 349.246)" class="rect-9"/>
</clipPath>
</defs>
</svg>
