<svg viewBox="0 0 390 150" fill="none" xmlns="http://www.w3.org/2000/svg">
<g clip-path="url(#clip0_16498_64793)">
<path d="M390 0H0V151H390V0Z" fill="#4D00B4"/>
<path fill-rule="evenodd" clip-rule="evenodd" d="M380.152 150.559L320.784 18.487L108.806 9L0 144.694V150.559H6.67975L90.5434 44.5304L65.5521 150.559H192.2L264.215 119.057L260.057 150.559H289.78L294.367 116.61L327.78 150.559H366.713L301.797 84.4891L320.93 45.1631L370.026 150.559H380.152ZM123.653 32.4488L246.428 85.3812L97.8622 143.736L123.653 32.4488ZM172.037 21.265L297.093 26.3473L275.193 66.4381L172.037 21.265Z" fill="#5C16BA"/>
<path d="M229.029 77.5718L229.033 78.9269L207.141 68.5137L206.827 65.31L229.029 77.5718Z" fill="#FAFBFC"/>
<path d="M250.674 89.5286L250.6 90.4108L244.363 87.1639L244.253 85.9409L250.674 89.5286Z" fill="#FAFBFC"/>
<path d="M211.407 66.5273L206.994 64.0241L207.232 61.2714L211.137 64.8477L211.407 66.5273Z" fill="#FAFBFC"/>
<path d="M206.121 71.3561L143.602 83.2672L143.388 82.1363L143.198 81.678L143.65 81.3951L143.523 79.1879L205.508 65.2815L206.121 71.3561Z" fill="#FAFBFC"/>
<path d="M206.636 60.2994L205.816 62.5467L205.934 63.5064L142.651 78.4075L141.903 78.313L141.543 75.6572L145.24 74.1145L145.362 74.9674L147.045 73.9889L147.273 74.837L145.062 76.1416L148.768 75.1354L157.198 70.2308L164.916 67.1446L164.719 68.106L167.058 67.8614L167.033 66.2673L170.319 65.3703L170.131 67.1813L171.935 66.9448L172.29 62.1463L196.459 63.3156L196.438 61.8218L199.843 61.7777L200.037 60.0703L206.636 60.2994Z" fill="#FAFBFC"/>
<path d="M251.407 93.2247L207.544 71.3471L207.426 69.6568L229.904 80.9034L251.119 91.7032L251.407 93.2247Z" fill="#FAFBFC"/>
<path d="M185.481 107.098L142.425 111.766L142.948 110.423L185.481 107.098Z" fill="#FAFBFC"/>
<path d="M206.534 107.046L252.562 115.2L252.683 115.43L252.698 115.43C252.773 115.428 252.844 115.426 252.91 115.426C252.954 115.426 252.995 115.428 253.039 115.43C253.068 115.432 253.098 115.433 253.131 115.434L253.2 115.436C253.258 115.438 253.317 115.44 253.375 115.44C253.441 115.44 253.508 115.437 253.577 115.431H254.643V114.758H256.122V114.771L265.01 114.599L302.184 114.739H302.87V115.412H304.348V115.772L304.618 115.818C305.503 115.967 305.93 115.83 306.161 115.755C306.327 115.702 306.393 115.681 306.456 115.818C306.515 115.954 306.585 116.084 306.665 116.21C306.724 116.277 306.767 116.355 306.794 116.439C306.82 116.523 306.828 116.611 306.818 116.698C306.788 116.907 306.827 117.026 307.35 117.374C307.703 117.628 308.132 117.768 308.576 117.773C308.747 117.77 308.919 117.756 309.089 117.731C309.225 117.711 309.363 117.699 309.501 117.695C309.783 117.668 310.048 117.559 310.26 117.381C310.559 117.139 310.936 116.998 311.329 116.982C311.72 116.986 312.109 117.046 312.481 117.16C312.907 117.278 313.343 117.364 313.783 117.416C315.857 117.713 317.909 118.133 319.927 118.674C320.333 118.828 320.769 118.895 321.205 118.869C321.407 118.869 321.591 118.861 321.725 118.855C321.758 118.854 321.788 118.853 321.815 118.852C321.85 118.85 321.879 118.849 321.902 118.849C322.061 118.873 322.209 118.938 322.332 119.036C322.455 119.135 322.546 119.263 322.597 119.408C322.761 119.946 325.238 120.009 325.262 120.009C325.556 120 325.848 119.969 326.137 119.918C326.493 119.855 326.853 119.819 327.215 119.81C327.562 119.81 327.686 120.073 327.816 120.348L327.817 120.35C327.914 120.557 328.016 120.771 328.224 120.843C328.589 120.97 329.016 122.098 329.016 124.864V128.44C329.016 128.447 329.016 128.453 329.018 128.46C329.02 128.468 329.022 128.476 329.026 128.483L329.028 128.487L329.03 128.49H334.328V128.912H335.809V129.332H336.869V130.158C336.904 130.158 336.939 130.16 336.973 130.161L337.008 130.163C337.03 130.164 337.051 130.164 337.072 130.164H337.316C337.358 130.164 337.396 130.163 337.433 130.162C337.453 130.161 337.472 130.16 337.491 130.16C337.507 130.159 337.522 130.159 337.537 130.159H337.863C337.929 130.159 337.996 130.16 338.064 130.162C338.105 130.162 338.147 130.163 338.189 130.164C338.216 130.164 338.244 130.164 338.271 130.164C338.826 130.164 339.081 130.121 339.149 130.013C339.212 129.391 339.215 128.765 339.157 128.143C339.156 128.134 339.153 128.126 339.148 128.119C339.146 128.116 339.144 128.113 339.141 128.11C339.137 128.107 339.134 128.104 339.13 128.102C339.097 128.082 339.068 128.058 339.042 128.031H340.395C340.477 128.031 340.578 128.031 340.699 128.023C340.843 128.016 341.008 128.011 341.164 128.011C341.344 127.992 341.525 128.014 341.696 128.075C342.109 128.224 342.55 128.278 342.987 128.233C343.141 128.233 343.333 128.218 343.54 128.201L343.59 128.197C343.827 128.178 344.087 128.157 344.329 128.157C344.533 128.151 344.737 128.174 344.934 128.227C345.043 128.261 345.156 128.277 345.27 128.276C345.48 128.267 345.688 128.234 345.891 128.177C346.308 128.069 346.738 128.015 347.169 128.014C347.658 128.014 348.049 128.038 348.332 128.055L348.412 128.059C348.551 128.067 348.664 128.073 348.757 128.073C348.839 128.073 349.04 128.073 349.102 127.974C349.216 127.872 349.35 127.796 349.496 127.75C349.642 127.703 349.796 127.689 349.948 127.707C350.041 127.707 350.133 127.713 350.225 127.723C350.582 127.764 350.64 127.892 350.698 128.028C350.721 128.102 350.767 128.168 350.828 128.215C350.89 128.263 350.965 128.29 351.043 128.293C351.091 128.299 351.138 128.302 351.186 128.302C351.333 128.297 351.479 128.281 351.623 128.254C351.861 128.212 352.103 128.19 352.345 128.187C352.513 128.187 352.681 128.198 352.848 128.22C353.169 128.263 353.429 128.277 353.642 128.287C354.097 128.312 354.171 128.325 354.171 128.46C354.176 128.569 354.207 128.675 354.262 128.77C354.328 128.899 354.319 128.908 354.231 128.933C353.913 129.02 353.973 129.963 354.037 130.519C354.037 130.551 354.085 130.576 354.138 130.576H361.041C364.429 130.576 366.221 130.927 366.221 131.591C366.221 132.009 366.828 132.008 367.118 132.008C367.228 132.008 367.345 132.008 367.468 132.002C367.591 131.995 367.725 131.995 367.856 131.995H367.859C368.104 131.96 368.354 131.978 368.591 132.049C368.829 132.119 369.048 132.24 369.235 132.403C369.485 132.714 369.371 133.277 369.248 133.871C369.111 134.537 369.619 134.499 370.445 134.437C371.015 134.395 371.736 134.342 372.5 134.5C372.875 134.586 374.211 133.985 375.623 133.35C377.322 132.585 379.129 131.772 379.5 132.049C380.111 133.161 383.734 131.69 386.559 130.544C388.361 129.812 389.838 129.213 390 129.5V151H0V144H0.00391911L0 129.271L4.28866 129.779L5.76102 129.213L9.93285 131.845H24.3353L30.5667 128.266C30.5667 128.266 44.8397 129.115 51.8301 128.266C56.5824 127.689 59.5734 126.387 61.0015 125.612V124.963C61.0015 122.407 61.4294 121.364 61.7952 121.246C62.0034 121.18 62.1063 120.982 62.2034 120.79C62.3341 120.535 62.4592 120.292 62.8079 120.292C63.1704 120.3 63.5317 120.333 63.8882 120.391C64.1778 120.439 64.4713 120.467 64.7659 120.476C64.7904 120.476 67.2743 120.417 67.4385 119.919C67.4894 119.786 67.5812 119.667 67.7042 119.576C67.8272 119.485 67.9765 119.425 68.1358 119.403C68.1586 119.403 68.188 119.404 68.2232 119.406L68.2623 119.407L68.313 119.409C68.4478 119.415 68.6322 119.422 68.8347 119.422C69.2719 119.446 69.7097 119.384 70.116 119.242C72.14 118.742 74.1978 118.353 76.2776 118.079C76.7197 118.03 77.1567 117.951 77.5842 117.841C77.9573 117.736 78.3465 117.681 78.7386 117.678C79.1334 117.692 79.5112 117.822 79.811 118.046C80.0235 118.21 80.2897 118.312 80.5719 118.336C80.7106 118.34 80.8489 118.351 80.986 118.37C81.1563 118.393 81.328 118.405 81.5003 118.408C81.9448 118.404 82.3759 118.275 82.7293 118.039C83.2535 117.718 83.2934 117.608 83.2632 117.415C83.2529 117.335 83.2611 117.253 83.2873 117.176C83.3135 117.098 83.3572 117.026 83.4159 116.963C83.4962 116.847 83.5666 116.727 83.6266 116.602C83.7777 116.297 83.8096 116.233 85.3317 115.998L85.6018 115.955V115.622H87.0848V115H87.7724L108.797 115.135H109.484V115.758H110.968V116.379H112.03V117.599C112.099 117.605 112.166 117.608 112.232 117.608C112.291 117.608 112.349 117.606 112.408 117.604L112.477 117.602C112.51 117.601 112.54 117.6 112.569 117.599C112.593 117.598 112.615 117.597 112.638 117.596L112.672 117.595L112.698 117.595C112.765 117.595 112.838 117.597 112.914 117.598C112.95 117.599 112.987 117.6 113.025 117.601C113.157 117.604 113.296 117.608 113.433 117.608C113.989 117.608 114.245 117.544 114.313 117.386V116.958L114.304 116.708L114.296 116.464C114.295 116.442 114.285 116.42 114.268 116.404C114.234 116.372 114.204 116.337 114.18 116.299C124.539 116.263 131.784 116.119 137.239 115.968L137.483 113.9L151.915 113.003L179.924 110.358L139.041 112.901L139.127 112.112L183.046 108.83L204.939 105.904L205.033 113.173L206.913 113.321L206.877 112.23L207 112.242V111.195L206.734 111.169L206.534 107.046Z" fill="#FAFBFC"/>
<path d="M155.919 84.5898L153.284 83.1775L148.716 84.0842L148.763 83.4605L153.352 82.6043L155.919 83.9774V84.5898Z" fill="#FAFBFC"/>
<path d="M156.812 108.605L158.273 84.6599L158.256 84.6607C158.262 84.646 158.262 84.6313 158.262 84.6167C158.264 84.5817 158.262 84.5466 158.255 84.5123C158.247 84.4702 158.228 84.4308 158.2 84.3981C158.164 84.3588 158.116 84.3325 158.063 84.3231C158.038 84.317 158.012 84.3159 157.986 84.32C157.961 84.3241 157.936 84.3331 157.914 84.3468C157.877 84.3727 157.847 84.4078 157.827 84.4487C157.81 84.4844 157.797 84.5219 157.788 84.5604C157.784 84.5776 157.781 84.595 157.779 84.6126L156.175 108.655L155.826 108.68C155.889 107.773 156.012 106.007 156.166 103.809C156.32 101.612 156.504 98.9886 156.691 96.359C156.878 93.7294 157.066 91.1087 157.227 88.9186C157.389 86.7285 157.519 84.973 157.601 84.0858C157.986 83.7847 158.438 83.5811 158.918 83.4923C159.34 83.4155 159.772 83.4051 160.197 83.4613C160.526 83.5029 160.85 83.5746 161.165 83.6757C161.295 83.7163 161.423 83.7636 161.548 83.8176L161.027 108.304L160.73 108.326L161.316 84.3182C161.319 84.3032 161.321 84.2879 161.321 84.2726C161.324 84.2376 161.322 84.2026 161.315 84.1682C161.307 84.1261 161.289 84.0867 161.261 84.054C161.225 84.0146 161.177 83.988 161.125 83.9782C161.099 83.9719 161.073 83.9706 161.047 83.9747C161.021 83.9788 160.996 83.988 160.974 84.0019C160.938 84.0278 160.91 84.0626 160.893 84.103C160.875 84.1382 160.862 84.1755 160.854 84.2139C160.85 84.231 160.847 84.2485 160.845 84.266L160.111 108.37L159.797 108.391L160.547 84.0924C160.55 84.0773 160.552 84.0621 160.553 84.0467C160.555 84.0121 160.553 83.9772 160.546 83.9432C160.538 83.9013 160.52 83.8623 160.492 83.8298C160.457 83.7908 160.409 83.7646 160.357 83.7556C160.332 83.7489 160.305 83.7473 160.279 83.7511C160.254 83.7549 160.229 83.7639 160.207 83.7776C160.171 83.8037 160.143 83.8386 160.125 83.8788C160.109 83.9139 160.097 83.9508 160.09 83.9888C160.086 84.0063 160.083 84.024 160.081 84.0418L159.177 108.434L158.788 108.461L159.808 84.0964C159.811 84.0814 159.813 84.0661 159.814 84.0508C159.816 84.0159 159.814 83.9808 159.807 83.9464C159.799 83.9046 159.781 83.8655 159.753 83.8331C159.718 83.794 159.67 83.7684 159.618 83.7605C159.593 83.7539 159.567 83.7525 159.541 83.7563C159.516 83.7601 159.491 83.769 159.469 83.7825C159.433 83.8085 159.405 83.8434 159.387 83.8836C159.37 83.9189 159.357 83.9561 159.348 83.9945C159.344 84.0117 159.341 84.0291 159.339 84.0467L158.163 108.508L157.765 108.537L159.03 84.3321C159.035 84.3166 159.035 84.3019 159.035 84.2864C159.037 84.2512 159.035 84.2158 159.028 84.1812C159.02 84.1389 159.001 84.0993 158.973 84.0663C158.937 84.0274 158.889 84.0014 158.837 83.9921C158.812 83.9857 158.786 83.9845 158.76 83.9886C158.735 83.9927 158.71 84.0019 158.688 84.0157C158.653 84.0424 158.625 84.0778 158.607 84.1185C158.589 84.154 158.576 84.1915 158.567 84.2302C158.566 84.2335 158.565 84.2369 158.564 84.2404C158.561 84.2544 158.557 84.2688 158.557 84.2832L157.156 108.582L156.812 108.605Z" fill="#FAFBFC"/>
<path d="M160.745 81.8109L156.034 82.7486L156.067 82.1045L160.796 81.2182L163.462 82.6369L163.476 83.2705L160.745 81.8109Z" fill="#FAFBFC"/>
<path d="M165.261 107.993L166.508 83.1922L166.507 83.1962C166.51 83.1825 166.511 83.1686 166.512 83.1547C166.514 83.1187 166.512 83.0824 166.505 83.047C166.496 83.0035 166.477 82.9628 166.449 82.9288C166.413 82.8866 166.364 82.8579 166.309 82.8473C166.283 82.8408 166.255 82.8397 166.229 82.844C166.202 82.8484 166.176 82.8581 166.153 82.8726C166.115 82.8995 166.084 82.9361 166.065 82.9786C166.047 83.0155 166.033 83.0543 166.025 83.0943C166.02 83.1123 166.017 83.1306 166.016 83.149L164.629 108.043L164.272 108.068L164.312 107.393C164.37 106.394 164.458 104.884 164.565 103.086C164.681 101.132 164.818 98.8398 164.958 96.4981L165.026 95.3675C165.189 92.64 165.353 89.9167 165.497 87.6336C165.641 85.3505 165.76 83.5224 165.83 82.6018C166.224 82.2902 166.688 82.0795 167.182 81.9879C167.618 81.9082 168.063 81.8972 168.502 81.9553C168.841 81.9978 169.176 82.0718 169.502 82.1762C169.637 82.2182 169.769 82.2672 169.899 82.323L169.627 107.681L169.322 107.704L169.663 82.8416C169.666 82.8259 169.668 82.8101 169.668 82.7943C169.67 82.7579 169.667 82.7215 169.66 82.6858C169.651 82.6423 169.632 82.6017 169.603 82.5676C169.566 82.5268 169.517 82.4995 169.463 82.4902C169.437 82.4837 169.41 82.4826 169.383 82.4868C169.357 82.491 169.332 82.5004 169.309 82.5146C169.271 82.5413 169.241 82.5776 169.222 82.6198C169.204 82.6563 169.191 82.6949 169.183 82.7348C169.178 82.7525 169.175 82.7704 169.174 82.7886L168.679 107.75L168.353 107.774L168.869 82.6141C168.871 82.6048 168.873 82.5955 168.874 82.5861C168.874 82.5797 168.875 82.5732 168.875 82.5668C168.878 82.5308 168.875 82.4945 168.868 82.4591C168.859 82.4154 168.84 82.3747 168.811 82.341C168.774 82.2984 168.723 82.2697 168.668 82.2594C168.642 82.2527 168.615 82.2513 168.589 82.2554C168.562 82.2594 168.537 82.2688 168.514 82.283C168.476 82.3098 168.446 82.3461 168.427 82.3882C168.41 82.4252 168.397 82.464 168.389 82.504C168.385 82.522 168.382 82.5403 168.381 82.5586L167.716 107.813L167.309 107.845L168.103 82.6198C168.108 82.6046 168.108 82.5887 168.108 82.5735C168.109 82.5374 168.106 82.5002 168.099 82.4649C168.09 82.4214 168.07 82.3808 168.042 82.3466C168.005 82.3045 167.956 82.2758 167.901 82.2651C167.847 82.2522 167.791 82.261 167.744 82.2895C167.706 82.316 167.675 82.3523 167.655 82.3948C167.638 82.4314 167.624 82.47 167.615 82.5097C167.611 82.5274 167.608 82.5454 167.606 82.5635L166.661 107.893L166.254 107.92L167.295 82.8522C167.3 82.8367 167.3 82.8204 167.3 82.8049C167.302 82.7688 167.299 82.7326 167.292 82.6972C167.283 82.6539 167.263 82.6135 167.234 82.5798C167.198 82.5393 167.148 82.5123 167.094 82.5032C167.068 82.4965 167.041 82.4953 167.014 82.4995C166.987 82.5037 166.962 82.5133 166.939 82.5277C166.9 82.5543 166.87 82.5906 166.85 82.6328C166.833 82.6696 166.82 82.7086 166.811 82.7486C166.807 82.7666 166.804 82.7848 166.802 82.8032L165.617 107.968L165.261 107.993Z" fill="#FAFBFC"/>
<path d="M190.488 78.4279L187.442 76.8257L182.32 77.8555L182.34 77.1461L187.486 76.1726L190.448 77.7291L190.488 78.4279Z" fill="#FAFBFC"/>
<path d="M169.023 80.2478L164.177 81.2182L164.21 80.5487L169.078 79.6387L171.842 81.1064L171.865 81.7587L169.023 80.2478Z" fill="#FAFBFC"/>
<path d="M174.158 107.346L175.199 81.4432L175.204 81.444C175.209 81.4293 175.214 81.4143 175.217 81.3992C175.219 81.3617 175.215 81.3241 175.207 81.2874C175.198 81.2426 175.177 81.2009 175.148 81.1659C175.11 81.1233 175.058 81.0946 175.002 81.0844C174.975 81.0776 174.947 81.0762 174.92 81.0805C174.893 81.0847 174.866 81.0943 174.843 81.1089C174.804 81.1365 174.774 81.1739 174.754 81.2173C174.736 81.2553 174.723 81.2952 174.715 81.3364C174.711 81.3549 174.708 81.3737 174.706 81.3926L173.517 107.397L173.147 107.424C173.166 107.033 173.201 106.32 173.247 105.369C173.285 104.597 173.331 103.668 173.382 102.629C173.495 100.31 173.638 97.4451 173.783 94.5424C173.928 91.6396 174.077 88.7026 174.208 86.245C174.338 83.7874 174.447 81.806 174.513 80.8276C174.917 80.5064 175.393 80.2893 175.9 80.1956C176.348 80.1142 176.807 80.1035 177.259 80.1638C177.61 80.2086 177.955 80.2856 178.292 80.3938C178.43 80.437 178.567 80.4876 178.7 80.5455L178.679 107.023L178.359 107.043L178.461 81.0779C178.464 81.0616 178.466 81.0453 178.466 81.029C178.467 80.9918 178.464 80.9544 178.456 80.9181C178.446 80.8734 178.426 80.8317 178.396 80.7966C178.358 80.7542 178.307 80.7255 178.251 80.7151C178.224 80.7078 178.195 80.7063 178.167 80.7105C178.139 80.7147 178.112 80.7246 178.088 80.7395C178.049 80.7671 178.019 80.8045 177.999 80.8479C177.982 80.8859 177.969 80.926 177.961 80.967C177.957 80.9856 177.954 81.0044 177.953 81.0233L177.697 107.091L177.357 107.117L177.638 80.8439C177.641 80.8276 177.643 80.8113 177.643 80.795C177.645 80.7575 177.641 80.7199 177.633 80.6833C177.624 80.6381 177.603 80.596 177.573 80.5609C177.535 80.5178 177.483 80.489 177.426 80.4794C177.399 80.472 177.37 80.4703 177.342 80.4745C177.314 80.4787 177.287 80.4887 177.263 80.5038C177.224 80.531 177.193 80.5685 177.173 80.6123C177.156 80.6503 177.142 80.6903 177.134 80.7314C177.13 80.7497 177.127 80.7682 177.125 80.7868L176.692 107.164L176.275 107.195L176.845 80.8431C176.848 80.8271 176.85 80.8111 176.85 80.795C176.852 80.758 176.849 80.721 176.841 80.6849C176.831 80.6401 176.81 80.5986 176.779 80.5642C176.74 80.5218 176.688 80.4931 176.631 80.4826C176.604 80.4762 176.577 80.4753 176.55 80.4799C176.523 80.4845 176.497 80.4946 176.474 80.5096C176.435 80.5373 176.404 80.5751 176.385 80.6189C176.367 80.6568 176.354 80.6968 176.346 80.7379C176.341 80.7561 176.338 80.7747 176.337 80.7933L175.613 107.241L175.19 107.272L176.006 81.0885C176.011 81.0722 176.011 81.0567 176.011 81.0404C176.012 81.0032 176.009 80.9659 176.001 80.9295C175.991 80.8848 175.971 80.8431 175.941 80.808C175.903 80.7656 175.852 80.7369 175.796 80.7265C175.768 80.7195 175.74 80.7182 175.712 80.7229C175.684 80.7275 175.657 80.7379 175.633 80.7534C175.594 80.781 175.564 80.8184 175.544 80.8618C175.527 80.9007 175.515 80.9415 175.507 80.9833C175.503 81.0016 175.5 81.0201 175.498 81.0387L174.526 107.323L174.158 107.346Z" fill="#FAFBFC"/>
<path d="M177.764 78.4034L172.781 79.4047L172.809 78.7166L177.812 77.7715L180.676 79.2841L180.708 79.9608L177.764 78.4034Z" fill="#FAFBFC"/>
<path d="M196.879 75.0652L191.616 76.1252L191.634 75.3939L196.918 74.3942L199.98 75.9989L200.024 76.7164L196.879 75.0652Z" fill="#FAFBFC"/>
<path d="M149.75 109.12L151.299 85.9262C151.305 85.9124 151.311 85.8982 151.315 85.8838C151.317 85.8503 151.316 85.8166 151.31 85.7835C151.304 85.7435 151.287 85.7057 151.263 85.6734C151.231 85.6356 151.188 85.61 151.14 85.6008C151.117 85.5947 151.093 85.5934 151.069 85.5972C151.046 85.601 151.023 85.6097 151.003 85.6228C150.968 85.6477 150.94 85.6814 150.922 85.7207C150.906 85.7551 150.894 85.7912 150.886 85.8283C150.882 85.845 150.879 85.8619 150.877 85.8789L149.202 109.158L148.882 109.183C148.902 108.913 148.929 108.559 148.961 108.133C149.03 107.211 149.123 105.957 149.233 104.504L149.247 104.325C149.405 102.238 149.592 99.7637 149.781 97.2869C149.976 94.7388 150.173 92.19 150.341 90.0618C150.508 87.9337 150.645 86.227 150.726 85.366C151.073 85.0784 151.486 84.8822 151.928 84.7952C152.311 84.7214 152.704 84.7117 153.09 84.7667C153.388 84.8073 153.682 84.8769 153.967 84.9746C154.085 85.0139 154.2 85.0599 154.313 85.1124L153.609 108.84L153.337 108.861L154.096 85.5943C154.099 85.5797 154.1 85.565 154.101 85.5503C154.103 85.5167 154.101 85.4831 154.096 85.45C154.089 85.4101 154.072 85.3725 154.047 85.3407C154.015 85.3036 153.971 85.2785 153.923 85.2698C153.9 85.2632 153.876 85.2617 153.853 85.2653C153.829 85.269 153.807 85.2777 153.787 85.291C153.752 85.3163 153.724 85.3503 153.706 85.3896C153.69 85.4243 153.678 85.4607 153.671 85.4981C153.667 85.5151 153.664 85.5322 153.663 85.5495L152.766 108.899L152.476 108.921L153.393 85.384C153.396 85.3691 153.397 85.3541 153.398 85.3391C153.4 85.3053 153.399 85.2713 153.393 85.238C153.386 85.1975 153.369 85.1594 153.344 85.1271C153.312 85.089 153.268 85.0633 153.219 85.0546C153.196 85.0484 153.172 85.0473 153.149 85.0512C153.126 85.0552 153.104 85.0641 153.084 85.0773C153.049 85.1027 153.021 85.1367 153.003 85.176C152.987 85.2104 152.975 85.2465 152.967 85.2836C152.965 85.292 152.963 85.3003 152.962 85.3088C152.96 85.3172 152.959 85.3257 152.958 85.3342L151.91 108.962L151.555 108.989L152.722 85.3856C152.723 85.3754 152.725 85.3651 152.725 85.3548C152.726 85.3504 152.726 85.346 152.726 85.3416C152.728 85.308 152.726 85.2743 152.72 85.2412C152.713 85.2013 152.696 85.1638 152.671 85.132C152.64 85.0944 152.596 85.0688 152.548 85.0594C152.525 85.0532 152.501 85.052 152.477 85.0557C152.454 85.0595 152.431 85.0683 152.412 85.0814C152.376 85.1063 152.348 85.14 152.33 85.1793C152.314 85.2134 152.302 85.2492 152.293 85.2861C152.291 85.2937 152.289 85.3014 152.288 85.3092C152.286 85.3182 152.284 85.3274 152.284 85.3366L150.987 109.03L150.626 109.057L152.006 85.6098C152.007 85.6034 152.008 85.597 152.009 85.5905C152.01 85.5823 152.011 85.574 152.011 85.5658C152.014 85.532 152.012 85.4981 152.007 85.4647C152 85.4245 151.983 85.3866 151.958 85.3546C151.927 85.3168 151.883 85.2912 151.835 85.282C151.812 85.2754 151.788 85.274 151.764 85.2778C151.741 85.2816 151.718 85.2905 151.698 85.304C151.663 85.3289 151.635 85.3626 151.617 85.4019C151.601 85.4362 151.588 85.4724 151.581 85.5095C151.577 85.5258 151.572 85.543 151.572 85.5601L150.061 109.094L149.75 109.12Z" fill="#FAFBFC"/>
<path d="M186.176 106.474L186.512 79.3379C186.512 79.321 186.512 79.3039 186.512 79.2865C186.513 79.2484 186.509 79.2103 186.501 79.1732C186.49 79.127 186.469 79.0842 186.438 79.0484C186.398 79.0056 186.345 78.9769 186.287 78.9669C186.259 78.96 186.231 78.9587 186.203 78.9631C186.175 78.9674 186.148 78.9773 186.124 78.9921C186.084 79.0204 186.052 79.0591 186.033 79.1038C186.014 79.1429 186.001 79.184 185.992 79.2262C185.99 79.2358 185.988 79.2455 185.987 79.2552C185.985 79.2648 185.984 79.2744 185.984 79.2841L185.494 106.524L185.06 106.557L185.656 79.5931C185.659 79.5766 185.661 79.56 185.661 79.5433C185.662 79.505 185.659 79.4666 185.65 79.4292C185.64 79.3833 185.618 79.3408 185.587 79.3053C185.547 79.2621 185.494 79.2334 185.435 79.2237C185.408 79.2164 185.379 79.2149 185.351 79.2192C185.323 79.2236 185.296 79.2337 185.272 79.249C185.233 79.2771 185.202 79.3158 185.183 79.3607C185.165 79.3998 185.152 79.4409 185.144 79.483C185.142 79.4936 185.14 79.5042 185.139 79.5149C185.138 79.5235 185.137 79.5322 185.136 79.5409L184.385 106.607L184.007 106.634L184.827 79.9559C184.832 79.94 184.832 79.9233 184.832 79.9074V79.9062C184.834 79.8679 184.831 79.8295 184.822 79.792C184.813 79.7458 184.791 79.7029 184.76 79.6673C184.72 79.6242 184.667 79.5955 184.609 79.5857C184.581 79.5789 184.553 79.5776 184.525 79.5819C184.497 79.5863 184.47 79.5962 184.446 79.611C184.406 79.6388 184.374 79.6772 184.354 79.7219C184.336 79.761 184.323 79.802 184.315 79.8442C184.311 79.8631 184.309 79.8821 184.307 79.9013L183.334 106.68L182.953 106.711C182.986 105.953 183.057 104.116 183.149 101.722C183.226 99.7253 183.324 97.3432 183.425 94.8772C183.445 94.3862 183.466 93.892 183.486 93.3967C183.608 90.414 183.735 87.4004 183.845 84.8784C183.955 82.3564 184.049 80.3285 184.107 79.3207C184.52 78.9888 185.008 78.7647 185.529 78.6684C185.99 78.5836 186.462 78.5723 186.926 78.635C187.286 78.6815 187.641 78.7607 187.986 78.8715C188.13 78.9164 188.271 78.9686 188.409 79.028L188.642 106.295L188.316 106.319L188.169 79.5743C188.172 79.5576 188.174 79.5407 188.174 79.5238C188.176 79.4852 188.173 79.4466 188.165 79.4088C188.155 79.3621 188.134 79.3186 188.103 79.2824C188.063 79.2393 188.01 79.2106 187.952 79.2009C187.924 79.1943 187.895 79.1935 187.867 79.1984C187.839 79.2033 187.812 79.2138 187.789 79.2294C187.749 79.2585 187.718 79.2977 187.698 79.3428C187.68 79.3821 187.667 79.4235 187.659 79.4659C187.655 79.485 187.652 79.5043 187.651 79.5238L187.638 106.367L187.286 106.392L187.33 79.3338C187.331 79.3172 187.331 79.3006 187.33 79.2841C187.331 79.2456 187.327 79.2072 187.318 79.1699C187.308 79.1235 187.286 79.0804 187.255 79.0443C187.214 79.0013 187.161 78.9727 187.103 78.9628C187.076 78.9558 187.047 78.9545 187.019 78.959C186.991 78.9635 186.964 78.9737 186.94 78.9889C186.9 79.0172 186.869 79.0559 186.849 79.1006C186.832 79.1397 186.819 79.1807 186.811 79.2229C186.807 79.242 186.804 79.2613 186.803 79.2808L186.609 106.444L186.176 106.474Z" fill="#FAFBFC"/>
<path d="M204.964 105.111L204.834 76.0666L204.834 76.0706C204.838 76.0551 204.841 76.0392 204.843 76.0233C204.844 75.9824 204.839 75.9416 204.83 75.9018C204.818 75.8526 204.794 75.807 204.761 75.769C204.718 75.7224 204.66 75.6914 204.598 75.6809C204.569 75.6735 204.539 75.6722 204.509 75.6769C204.48 75.6817 204.452 75.6925 204.427 75.7086C204.385 75.7389 204.353 75.7801 204.333 75.8276C204.314 75.8693 204.301 75.9132 204.293 75.9581C204.289 75.9783 204.286 75.9987 204.285 76.0192L204.251 105.174L203.791 105.207L203.937 76.3421C203.942 76.3242 203.941 76.3071 203.941 76.2892C203.943 76.2486 203.939 76.208 203.93 76.1685C203.919 76.1193 203.896 76.0736 203.862 76.0356C203.819 75.9891 203.762 75.9579 203.699 75.9467C203.67 75.9394 203.64 75.9383 203.61 75.9433C203.58 75.9484 203.552 75.9595 203.526 75.976C203.485 76.0067 203.453 76.0482 203.433 76.0959C203.415 76.1377 203.403 76.1815 203.395 76.2264C203.388 76.2467 203.388 76.2671 203.388 76.2875L203.076 105.254L202.674 105.285L203.071 76.7287V76.6757C203.071 76.6347 203.067 76.5939 203.057 76.5541C203.045 76.5049 203.021 76.4594 202.988 76.4213C202.944 76.3754 202.887 76.3448 202.825 76.334C202.796 76.3268 202.765 76.3256 202.736 76.3305C202.706 76.3354 202.678 76.3463 202.653 76.3625C202.612 76.3929 202.579 76.4341 202.559 76.4816C202.541 76.523 202.528 76.5665 202.52 76.6112C202.516 76.6314 202.513 76.6518 202.511 76.6724L201.956 105.34L201.556 105.366C201.565 104.881 201.605 103.087 201.662 100.596C201.718 98.1048 201.791 94.9199 201.87 91.6534C201.948 88.387 202.03 85.0423 202.104 82.2365C202.179 79.4308 202.245 77.164 202.29 76.0568C202.722 75.7043 203.236 75.466 203.784 75.3637C204.272 75.2739 204.771 75.2618 205.263 75.3278C205.646 75.3769 206.024 75.4607 206.393 75.5781C206.546 75.6247 206.696 75.6791 206.844 75.7412L207.522 102.425C207.562 100.686 207.612 98.5247 207.667 96.196C207.722 93.8672 207.781 91.3868 207.84 89.0205C207.894 86.8455 207.949 84.7697 207.996 82.9989L208.009 82.5391C208.058 80.6727 208.106 79.196 208.14 78.3806C208.552 78.0448 209.041 77.818 209.564 77.721C210.029 77.6354 210.505 77.6239 210.973 77.6867C211.339 77.7333 211.7 77.813 212.051 77.9248C212.197 77.9699 212.341 78.0224 212.481 78.0822L213.195 106.441H212.861L212.254 78.6366V78.5861C212.254 78.547 212.249 78.5082 212.24 78.4703C212.228 78.4234 212.206 78.38 212.174 78.3439C212.132 78.3008 212.078 78.2722 212.02 78.2624C211.992 78.2548 211.963 78.2532 211.935 78.2576C211.907 78.2619 211.88 78.2722 211.856 78.2877C211.817 78.3163 211.786 78.3553 211.768 78.4002C211.75 78.4399 211.738 78.4815 211.73 78.5241C211.728 78.5332 211.727 78.5423 211.725 78.5515C211.724 78.5616 211.723 78.5718 211.722 78.582L212.169 106.399L211.816 106.334L211.387 78.392V78.3415C211.387 78.3025 211.383 78.2636 211.374 78.2257C211.362 78.1789 211.34 78.1355 211.308 78.0993C211.266 78.0562 211.212 78.0276 211.154 78.0178C211.126 78.0108 211.097 78.0095 211.069 78.014C211.041 78.0185 211.014 78.0286 210.991 78.0439C210.95 78.0724 210.919 78.1117 210.901 78.1572C210.884 78.1969 210.871 78.2386 210.864 78.2811C210.861 78.2999 210.857 78.3195 210.857 78.339L211.119 106.206L210.682 106.125L210.566 78.3969V78.3463C210.566 78.3076 210.562 78.269 210.553 78.2314C210.541 78.1845 210.519 78.1411 210.487 78.105C210.445 78.0619 210.391 78.0333 210.333 78.0235C210.305 78.0166 210.276 78.0155 210.248 78.0202C210.22 78.0248 210.193 78.0351 210.169 78.0504C210.129 78.079 210.098 78.1182 210.08 78.1637C210.063 78.2034 210.05 78.245 210.042 78.2877C210.037 78.3072 210.035 78.3268 210.035 78.3463L210.006 105.997L209.569 105.915L209.716 78.6595C209.719 78.6425 209.72 78.6253 209.72 78.6081C209.722 78.5686 209.718 78.5291 209.709 78.4907C209.698 78.4436 209.676 78.3999 209.644 78.3635C209.604 78.3197 209.549 78.291 209.49 78.2819C209.463 78.275 209.434 78.2737 209.406 78.2781C209.378 78.2824 209.351 78.2923 209.327 78.3072C209.287 78.3356 209.256 78.375 209.238 78.4205C209.221 78.4604 209.209 78.5024 209.202 78.5453C209.199 78.5647 209.197 78.5843 209.196 78.604L208.892 105.789L208.517 105.719L208.895 79.0239V78.9726C208.896 78.9333 208.891 78.894 208.881 78.856C208.87 78.8086 208.847 78.7649 208.814 78.7288C208.772 78.6856 208.717 78.6571 208.658 78.6472C208.63 78.6404 208.601 78.6392 208.573 78.6439C208.545 78.6485 208.519 78.6588 208.495 78.6742C208.455 78.7029 208.424 78.7421 208.405 78.7875C208.387 78.827 208.374 78.8687 208.367 78.9114C208.364 78.923 208.362 78.9346 208.361 78.9464C208.36 78.954 208.359 78.9617 208.358 78.9693L207.837 105.593L207.461 105.525V105.486H207.26L206.608 76.316V76.263C206.609 76.2224 206.604 76.1818 206.594 76.1424C206.582 76.0934 206.558 76.048 206.525 76.0103C206.481 75.9647 206.424 75.9344 206.362 75.9238C206.333 75.9162 206.303 75.9146 206.273 75.9193C206.244 75.9239 206.215 75.9346 206.19 75.9508C206.149 75.981 206.116 76.0222 206.097 76.0698C206.078 76.1115 206.065 76.1554 206.057 76.2003C206.054 76.2205 206.051 76.2409 206.049 76.2614L206.522 105.349L206.154 105.28L205.699 76.06V76.007C205.699 75.9664 205.695 75.9258 205.685 75.8864C205.673 75.8372 205.649 75.7916 205.615 75.7534C205.572 75.707 205.515 75.6758 205.452 75.6645C205.423 75.6574 205.393 75.6562 205.363 75.6611C205.333 75.666 205.305 75.6769 205.28 75.6931C205.238 75.7234 205.206 75.7646 205.187 75.8122C205.169 75.8537 205.156 75.8972 205.149 75.9418C205.146 75.962 205.144 75.9825 205.143 76.003L205.421 105.146L205.159 105.097L204.964 105.111Z" fill="#FAFBFC"/>
<path d="M193.606 105.931L194.216 78.2893C194.221 78.2699 194.225 78.2504 194.228 78.2306C194.229 78.1908 194.225 78.1511 194.216 78.1123C194.205 78.0644 194.182 78.0199 194.15 77.9827C194.109 77.9394 194.054 77.9108 193.995 77.9012C193.966 77.8939 193.936 77.8926 193.907 77.8972C193.878 77.9018 193.851 77.9123 193.826 77.9281C193.785 77.9574 193.753 77.9975 193.733 78.0439C193.715 78.0844 193.702 78.1267 193.694 78.1702C193.69 78.1899 193.687 78.2097 193.686 78.2297L192.917 105.981L192.528 106.011C192.546 105.39 192.601 103.575 192.677 101.129C192.753 98.6829 192.85 95.6146 192.95 92.4859C193.05 89.3573 193.156 86.174 193.249 83.5061C193.341 80.8382 193.422 78.6888 193.474 77.6288C193.897 77.2869 194.398 77.0559 194.932 76.9569C195.407 76.8699 195.893 76.8581 196.372 76.9219C196.745 76.9698 197.112 77.0516 197.471 77.1665C197.619 77.2131 197.766 77.2675 197.909 77.3296L198.398 105.587L198.057 105.614L197.667 77.8955C197.668 77.8784 197.668 77.8612 197.667 77.8441C197.668 77.8046 197.664 77.7652 197.655 77.7267C197.644 77.6789 197.621 77.6346 197.588 77.5978C197.545 77.5545 197.49 77.5259 197.43 77.5163C197.402 77.5095 197.374 77.5084 197.346 77.513C197.318 77.5176 197.291 77.5279 197.267 77.5432C197.226 77.5726 197.194 77.6126 197.175 77.659C197.157 77.6995 197.144 77.7419 197.136 77.7854C197.132 77.805 197.129 77.8249 197.127 77.8449L197.358 105.659L197.003 105.689L196.792 77.6476V77.5954C196.793 77.5554 196.789 77.5154 196.78 77.4764C196.769 77.4285 196.747 77.384 196.715 77.3467C196.673 77.3035 196.619 77.2748 196.56 77.2652C196.531 77.2579 196.502 77.2566 196.473 77.2612C196.444 77.2658 196.416 77.2764 196.391 77.2921C196.35 77.3207 196.318 77.3603 196.298 77.4062C196.28 77.4461 196.267 77.488 196.259 77.531C196.255 77.5503 196.252 77.57 196.251 77.5897L196.285 105.733L195.839 105.764L195.944 77.646C195.946 77.6287 195.947 77.6112 195.948 77.5938C195.948 77.554 195.944 77.5143 195.935 77.4755C195.925 77.4274 195.902 77.3827 195.869 77.3459C195.827 77.3027 195.772 77.2741 195.713 77.2644C195.684 77.2571 195.655 77.2557 195.626 77.2604C195.597 77.265 195.569 77.2755 195.545 77.2912C195.504 77.3204 195.472 77.3606 195.453 77.407C195.436 77.4474 195.423 77.4899 195.415 77.5334C195.41 77.5459 195.409 77.5587 195.408 77.5714C195.408 77.5786 195.408 77.5859 195.408 77.593L195.139 105.819L194.693 105.848L195.066 77.9118C195.067 77.8944 195.067 77.8769 195.066 77.8596C195.067 77.8195 195.063 77.7796 195.054 77.7405C195.043 77.6926 195.021 77.6481 194.989 77.6109C194.947 77.567 194.892 77.5383 194.832 77.5294C194.805 77.5225 194.776 77.5212 194.748 77.5255C194.72 77.5299 194.693 77.5397 194.669 77.5546C194.628 77.5838 194.597 77.624 194.578 77.6704C194.56 77.7108 194.547 77.7533 194.539 77.7968C194.535 77.8165 194.533 77.8364 194.531 77.8563L193.998 105.906L193.606 105.931Z" fill="#FAFBFC"/>
<path d="M142.944 85.2144L142.998 84.6126L147.444 83.7866L149.913 85.1124V85.7028L147.381 84.3419L142.944 85.2144Z" fill="#FAFBFC"/>
<path d="M143.767 109.553L145.538 86.9919C145.539 86.977 145.54 86.962 145.54 86.947C145.542 86.9144 145.54 86.8815 145.535 86.8492C145.528 86.8105 145.512 86.7741 145.488 86.7432C145.458 86.7074 145.416 86.6835 145.37 86.6755C145.348 86.6698 145.325 86.6687 145.302 86.6725C145.279 86.6763 145.258 86.6848 145.239 86.6975C145.206 86.7221 145.179 86.7546 145.162 86.7921C145.147 86.8253 145.135 86.86 145.126 86.8957C145.122 86.9128 145.117 86.9299 145.117 86.947L143.224 109.598L142.913 109.618C142.976 108.896 143.115 107.301 143.293 105.259C143.472 103.217 143.689 100.732 143.91 98.2279C144.13 95.7238 144.354 93.2092 144.544 91.099C144.734 88.9888 144.891 87.2976 144.979 86.4513C145.316 86.1732 145.717 85.9833 146.146 85.8985C146.517 85.8276 146.896 85.8185 147.269 85.8715C147.557 85.9108 147.839 85.9782 148.114 86.0729C148.227 86.1111 148.339 86.1555 148.447 86.2059L147.5 109.281L147.237 109.302L148.24 86.6731C148.243 86.659 148.244 86.6449 148.245 86.6307C148.247 86.5983 148.246 86.5657 148.24 86.5336C148.234 86.4949 148.218 86.4583 148.195 86.4268C148.165 86.3903 148.123 86.3655 148.076 86.3567C148.054 86.3506 148.031 86.3493 148.008 86.3529C147.985 86.3566 147.963 86.3651 147.943 86.3779C147.908 86.4015 147.88 86.4342 147.862 86.4725C147.846 86.5059 147.834 86.5409 147.826 86.5768C147.822 86.593 147.819 86.6093 147.817 86.6258L146.681 109.337L146.404 109.359L147.554 86.4643C147.556 86.4503 147.558 86.4361 147.559 86.4219C147.564 86.3897 147.564 86.3571 147.559 86.3249C147.554 86.2863 147.538 86.2498 147.515 86.2189C147.485 86.1825 147.443 86.1579 147.397 86.1496C147.375 86.1437 147.351 86.1426 147.329 86.1464C147.306 86.1502 147.284 86.1588 147.265 86.1716C147.232 86.1959 147.205 86.2285 147.189 86.2662C147.174 86.2992 147.162 86.334 147.155 86.3697C147.151 86.3859 147.148 86.4022 147.147 86.4187L145.856 109.402L145.509 109.426L146.913 86.4709C146.916 86.4569 146.917 86.4427 146.919 86.4285C146.923 86.3963 146.923 86.3636 146.919 86.3314C146.912 86.293 146.896 86.2566 146.873 86.2254C146.843 86.189 146.801 86.1644 146.755 86.1561C146.733 86.1499 146.71 86.1485 146.687 86.152C146.664 86.1555 146.642 86.1639 146.623 86.1765C146.588 86.2004 146.559 86.233 146.541 86.2711C146.525 86.3043 146.512 86.3394 146.504 86.3755C146.502 86.384 146.5 86.3927 146.499 86.4013C146.497 86.409 146.496 86.4167 146.495 86.4244L144.966 109.467L144.617 109.491L146.218 86.6861C146.221 86.6721 146.223 86.6579 146.224 86.6437C146.227 86.6113 146.225 86.5787 146.22 86.5467C146.213 86.5082 146.197 86.4719 146.174 86.4407C146.144 86.4043 146.103 86.3797 146.057 86.3714C146.034 86.365 146.011 86.3635 145.988 86.3669C145.965 86.3702 145.943 86.3784 145.924 86.391C145.89 86.4148 145.863 86.4472 145.846 86.4847C145.831 86.5179 145.819 86.5526 145.81 86.5883C145.806 86.6046 145.801 86.6209 145.801 86.6372L144.072 109.532L143.767 109.553Z" fill="#FAFBFC"/>
<path d="M200.383 73.7394L205.809 72.708L208.968 74.3583L209.02 75.0995L205.772 73.3986L200.373 74.4937L200.383 73.7394Z" fill="#FAFBFC"/>
<path d="M225.935 82.8114L222.993 81.3625L220.961 81.7955L221.833 80.9996L223.016 80.764L225.87 82.1673L225.935 82.8114Z" fill="#FAFBFC"/>
<path d="M234.695 88.2892L235.434 87.5977L236.453 87.3955L238.963 88.6137L239.033 89.1706L236.453 87.9174L234.695 88.2892Z" fill="#FAFBFC"/>
<path d="M230.764 85.1997L227.933 83.8094L225.978 84.222L226.81 83.4556L227.951 83.2321L230.702 84.5808L230.764 85.1997Z" fill="#FAFBFC"/>
<path d="M230.482 86.3804L231.276 85.6465L232.354 85.4353L234.98 86.722L235.036 87.3115L232.345 85.9857L230.482 86.3804Z" fill="#FAFBFC"/>
<path d="M238.541 90.1311L239.242 89.4788L240.214 89.2848L242.595 90.4409L242.657 90.9726L240.211 89.7788L238.541 90.1311Z" fill="#FAFBFC"/>
<path d="M242.566 91.0859L243.475 90.9025L245.71 91.9878L245.776 92.4843L243.474 91.3681L241.914 91.6991L242.566 91.0859Z" fill="#FAFBFC"/>
<path d="M245.481 94.491L247.074 112.906L246.757 112.848L245.268 94.7079C245.269 94.6965 245.269 94.685 245.268 94.6736C245.266 94.6459 245.261 94.6184 245.252 94.5921C245.24 94.5551 245.218 94.5222 245.188 94.4973C245.158 94.4723 245.122 94.4563 245.083 94.451C245.064 94.4458 245.044 94.4447 245.025 94.4478C245.005 94.4509 244.987 94.4581 244.97 94.469C244.944 94.4898 244.924 94.5183 244.915 94.5505C244.905 94.5769 244.899 94.6042 244.897 94.632C244.896 94.6387 244.896 94.6454 244.896 94.6522C244.896 94.659 244.896 94.6659 244.897 94.6728L245.732 105.611L244.656 94.248C244.932 94.1281 245.227 94.058 245.528 94.0409C245.8 94.0244 246.073 94.037 246.343 94.0784C246.548 94.1092 246.75 94.1537 246.949 94.2113C247.098 94.2586 247.186 94.2928 247.186 94.2928L249.351 113.33L249.112 113.285L247.059 94.6736C247.06 94.662 247.06 94.6502 247.059 94.6386C247.057 94.6108 247.051 94.5834 247.042 94.557C247.031 94.5245 247.012 94.495 246.987 94.4706C246.956 94.4413 246.917 94.4221 246.875 94.4152C246.855 94.4104 246.835 94.4096 246.816 94.413C246.796 94.4163 246.777 94.4237 246.761 94.4347C246.734 94.4552 246.714 94.4837 246.704 94.5162C246.691 94.5566 246.684 94.5992 246.685 94.6418L248.62 113.192L248.368 113.145L246.435 94.5114C246.436 94.4997 246.436 94.488 246.435 94.4763C246.434 94.4486 246.43 94.421 246.421 94.3947C246.409 94.3576 246.387 94.3245 246.357 94.2993C246.327 94.2742 246.291 94.2581 246.253 94.2529C246.233 94.2481 246.213 94.2474 246.193 94.2508C246.173 94.2541 246.154 94.2615 246.138 94.2725C246.111 94.2932 246.091 94.3216 246.082 94.354C246.067 94.394 246.06 94.4363 246.061 94.4788L247.873 113.055L247.563 112.996L245.86 94.5228C245.861 94.5111 245.861 94.4994 245.86 94.4877C245.858 94.4599 245.853 94.4325 245.843 94.4062C245.833 94.3736 245.814 94.3439 245.789 94.3197C245.758 94.2902 245.719 94.2709 245.676 94.2643C245.657 94.2594 245.637 94.2585 245.617 94.2617C245.597 94.2649 245.579 94.2722 245.562 94.2831C245.535 94.3035 245.514 94.332 245.504 94.3646C245.489 94.4051 245.482 94.4479 245.481 94.491Z" fill="#FAFBFC"/>
<path d="M220.469 80.4411L217.487 78.8918L214.643 79.474L215.637 78.6244L217.507 78.2697L220.407 79.7692L220.469 80.4411Z" fill="#FAFBFC"/>
<path d="M245.384 93.0429L245.885 92.4721L246.327 92.3824L248.541 93.4367L248.623 93.9259L246.34 92.8382L245.384 93.0429Z" fill="#FAFBFC"/>
<path d="M234.039 90.3349L234.638 107.199C234.638 107.199 234.59 106.185 234.516 104.643C234.442 103.101 234.344 101.041 234.245 98.943C234.145 96.845 234.046 94.7128 233.971 93.0364C233.896 91.3599 233.842 90.1409 233.842 89.871C234.169 89.599 234.559 89.4141 234.977 89.3337C235.353 89.2619 235.738 89.2481 236.118 89.2929C236.418 89.3262 236.714 89.3859 237.004 89.4715C237.226 89.5367 237.359 89.5921 237.359 89.5921L238.952 111.391L238.677 111.34L237.19 90.0325C237.19 90.0233 237.19 90.0141 237.19 90.0049C237.19 90.0008 237.19 89.9966 237.19 89.9925C237.189 89.9616 237.184 89.9309 237.176 89.9012C237.164 89.8588 237.141 89.8208 237.108 89.7918C237.075 89.7628 237.034 89.7441 236.991 89.7381C236.968 89.732 236.945 89.7306 236.923 89.7342C236.9 89.7377 236.878 89.746 236.859 89.7585C236.828 89.7816 236.804 89.813 236.79 89.849C236.772 89.8954 236.762 89.9445 236.761 89.9941L238.111 111.237L237.826 111.181L236.48 89.8465C236.481 89.8332 236.481 89.8199 236.48 89.8066C236.479 89.7756 236.474 89.7449 236.465 89.7152C236.453 89.6779 236.433 89.6438 236.406 89.6158C236.37 89.5819 236.326 89.5594 236.277 89.5514C236.255 89.5461 236.231 89.5453 236.209 89.5493C236.186 89.5532 236.164 89.5617 236.144 89.5742C236.113 89.5974 236.089 89.6291 236.076 89.6655C236.058 89.7119 236.048 89.761 236.046 89.8106L237.26 111.075L236.906 111.008L235.815 89.8588C235.815 89.8541 235.815 89.8494 235.816 89.8447C235.816 89.8361 235.815 89.8274 235.815 89.8188C235.814 89.7878 235.809 89.7571 235.799 89.7275C235.787 89.6846 235.762 89.6464 235.728 89.6174C235.694 89.5884 235.653 89.57 235.609 89.5644C235.587 89.5589 235.564 89.558 235.541 89.5618C235.519 89.5656 235.498 89.574 235.479 89.5864C235.448 89.6095 235.425 89.6409 235.411 89.6769C235.398 89.7086 235.39 89.7417 235.385 89.7756C235.383 89.791 235.382 89.8065 235.381 89.8221L236.345 110.905L235.991 110.838L235.123 90.074C235.123 90.0607 235.123 90.0474 235.123 90.0341C235.122 90.0029 235.117 89.9719 235.108 89.9419C235.096 89.8997 235.071 89.8619 235.038 89.833C235.005 89.8041 234.964 89.7853 234.921 89.7788C234.898 89.7736 234.875 89.7729 234.852 89.7769C234.83 89.7808 234.808 89.7892 234.789 89.8017C234.758 89.8245 234.735 89.8556 234.721 89.8914C234.708 89.9225 234.699 89.9551 234.695 89.9884C234.694 90.0036 234.694 90.0189 234.695 90.0341L235.439 110.737L235.132 110.681L234.467 90.3733C234.468 90.36 234.468 90.3467 234.467 90.3334C234.466 90.3021 234.461 90.2711 234.452 90.2412C234.439 90.1986 234.414 90.1605 234.381 90.1315C234.347 90.1026 234.306 90.084 234.262 90.0781C234.24 90.0727 234.217 90.0719 234.194 90.0759C234.172 90.0798 234.151 90.0883 234.132 90.1009C234.101 90.124 234.078 90.1554 234.064 90.1915C234.052 90.2229 234.043 90.2558 234.039 90.2893C234.039 90.2977 234.038 90.3061 234.038 90.3145C234.039 90.3213 234.039 90.3281 234.039 90.3349Z" fill="#FAFBFC"/>
<path d="M214.554 77.4772L211.46 75.8578L209.138 76.3291L210.002 75.4819L211.49 75.2014L214.507 76.7727L214.554 77.4772Z" fill="#FAFBFC"/>
<path d="M241.935 93.2557L242.832 111.683L242.624 109.323L242.151 102.859L241.732 93.5549C241.733 93.5433 241.733 93.5315 241.732 93.5198C241.731 93.4921 241.726 93.4646 241.718 93.4383C241.706 93.4006 241.684 93.3668 241.654 93.3411C241.624 93.3154 241.588 93.2988 241.549 93.2932H241.497L241.477 93.2989L241.457 93.3062L241.43 92.9434C241.722 92.7681 242.049 92.657 242.388 92.6172C242.696 92.5798 243.007 92.582 243.315 92.6237C243.551 92.6547 243.785 92.7037 244.014 92.7705C244.188 92.8211 244.292 92.8627 244.292 92.8627L245.997 112.707L245.752 112.661L244.149 93.2548C244.15 93.2429 244.15 93.2309 244.149 93.219C244.147 93.1913 244.142 93.1639 244.134 93.1374C244.124 93.1041 244.106 93.0736 244.081 93.0485C244.05 93.0182 244.01 92.9983 243.966 92.9915C243.947 92.9865 243.926 92.9857 243.906 92.989C243.886 92.9924 243.867 92.9999 243.851 93.0111C243.824 93.0321 243.803 93.0604 243.792 93.0926C243.779 93.1327 243.773 93.1745 243.774 93.2165L245.253 112.559L244.996 112.513L243.522 93.0853C243.523 93.0733 243.523 93.0613 243.522 93.0494C243.52 93.0217 243.515 92.9943 243.507 92.9678C243.497 92.9345 243.479 92.904 243.454 92.8789C243.423 92.8482 243.382 92.828 243.339 92.8211C243.318 92.8162 243.298 92.8155 243.277 92.819C243.257 92.8225 243.238 92.8302 243.22 92.8415C243.193 92.8619 243.172 92.8904 243.161 92.923C243.145 92.9642 243.137 93.0078 243.137 93.0518L244.491 112.42L244.169 112.361L242.927 93.0983C242.927 93.0926 242.927 93.0868 242.927 93.0811C242.927 93.0749 242.927 93.0686 242.927 93.0624C242.925 93.0348 242.92 93.0073 242.912 92.9809C242.901 92.9475 242.883 92.9171 242.859 92.892C242.827 92.8617 242.787 92.8417 242.744 92.8349C242.724 92.83 242.704 92.8291 242.683 92.8325C242.663 92.8359 242.644 92.8434 242.627 92.8545C242.599 92.875 242.578 92.9034 242.566 92.936C242.555 92.964 242.548 92.9934 242.544 93.0233C242.543 93.0368 242.543 93.0505 242.544 93.0641L243.673 112.268L243.356 112.21L242.319 93.2883C242.319 93.2763 242.319 93.2643 242.319 93.2524C242.318 93.2247 242.313 93.1973 242.305 93.1709C242.294 93.1333 242.272 93.0997 242.242 93.0742C242.213 93.0487 242.176 93.0324 242.137 93.0273C242.118 93.0225 242.097 93.0216 242.077 93.0249C242.057 93.0281 242.038 93.0353 242.021 93.0461C241.993 93.0666 241.972 93.0951 241.96 93.1277C241.945 93.1686 241.936 93.2119 241.935 93.2557Z" fill="#FAFBFC"/>
<path d="M251.745 95.4213L249.5 94.3614L248.567 94.5538L249.045 94.0001L249.472 93.9186L251.659 94.9508L251.745 95.4213Z" fill="#FAFBFC"/>
<path d="M215.155 106.957L215.073 81.9145C215.074 81.8993 215.073 81.884 215.072 81.8688C215.073 81.8314 215.068 81.7941 215.058 81.7579C215.047 81.713 215.025 81.6716 214.994 81.6372C214.955 81.5947 214.903 81.5661 214.846 81.5557C214.819 81.5488 214.791 81.5475 214.764 81.5518C214.737 81.5562 214.711 81.5661 214.688 81.581C214.651 81.6085 214.623 81.6458 214.607 81.6886C214.591 81.7262 214.579 81.7656 214.573 81.8061C214.569 81.8244 214.567 81.8429 214.566 81.8615L214.504 106.838L214.144 106.772C214.146 106.359 214.149 105.859 214.152 105.288C214.159 104.171 214.166 102.782 214.176 101.236L214.183 100.2C214.196 98.1211 214.21 95.8232 214.227 93.5533C214.246 90.8992 214.267 88.2867 214.288 86.1105C214.309 83.9342 214.331 82.1966 214.352 81.2997C214.742 80.9792 215.207 80.7631 215.703 80.6719C216.148 80.5905 216.602 80.5795 217.05 80.6392C217.4 80.6839 217.746 80.76 218.084 80.8667C218.224 80.9099 218.361 80.9603 218.496 81.0175L219.632 107.794L219.314 107.735L218.286 81.5508V81.5027C218.286 81.4653 218.281 81.428 218.271 81.3918C218.259 81.3467 218.237 81.305 218.206 81.2703C218.166 81.228 218.114 81.1995 218.057 81.1888C218.031 81.1821 218.004 81.1808 217.977 81.1852C217.95 81.1895 217.925 81.1994 217.903 81.2141C217.866 81.2416 217.837 81.2789 217.821 81.3217C217.805 81.3597 217.794 81.3993 217.788 81.4399C217.784 81.4582 217.782 81.4768 217.781 81.4954L218.65 107.621L218.313 107.558L217.456 81.3242V81.276C217.456 81.2386 217.451 81.2013 217.441 81.1652C217.429 81.1202 217.407 81.0788 217.376 81.0445C217.336 81.0022 217.284 80.9736 217.227 80.9629C217.2 80.9563 217.173 80.9551 217.146 80.9594C217.119 80.9638 217.094 80.9736 217.071 80.9882C217.034 81.0157 217.006 81.053 216.989 81.0958C216.973 81.1337 216.962 81.1734 216.956 81.2141C216.953 81.2324 216.951 81.2509 216.95 81.2695L217.649 107.433L217.231 107.351L216.672 81.3233V81.2752C216.672 81.2381 216.667 81.201 216.657 81.1652C216.646 81.1205 216.623 81.0794 216.592 81.0453C216.553 81.0028 216.501 80.9742 216.445 80.9637C216.418 80.9566 216.391 80.9549 216.364 80.959C216.337 80.9631 216.311 80.9728 216.288 80.9874C216.251 81.0149 216.223 81.0522 216.207 81.095C216.184 81.1506 216.171 81.2096 216.167 81.2695L216.575 107.231L216.156 107.149L215.855 81.5696V81.5206C215.856 81.4833 215.851 81.446 215.842 81.4098C215.831 81.3647 215.809 81.3229 215.779 81.2883C215.739 81.2458 215.687 81.2172 215.63 81.2067C215.604 81.1998 215.576 81.1985 215.549 81.2029C215.522 81.2072 215.496 81.2171 215.474 81.232C215.437 81.2597 215.408 81.2973 215.392 81.3404C215.376 81.3783 215.364 81.418 215.358 81.4587C215.354 81.477 215.352 81.4955 215.351 81.5141L215.514 107.023L215.155 106.957Z" fill="#FAFBFC"/>
<path d="M239.235 111.365L239.238 111.444L239.241 111.447L239.235 111.365Z" fill="#FAFBFC"/>
<path d="M238.538 91.7929L239.235 111.365L238.721 104.318L238.328 92.1182C238.329 92.1054 238.329 92.0926 238.328 92.0799C238.326 92.0503 238.321 92.021 238.312 91.9926C238.302 91.957 238.282 91.9245 238.256 91.898C238.223 91.8656 238.18 91.8443 238.134 91.8369C238.113 91.8322 238.091 91.8318 238.069 91.8357C238.048 91.8396 238.027 91.8478 238.009 91.8597C237.98 91.8819 237.957 91.9118 237.944 91.9462C237.932 91.9762 237.924 92.0077 237.92 92.0399C237.919 92.0546 237.919 92.0693 237.92 92.084L238.001 94.3882L237.799 91.5972C238.109 91.3566 238.473 91.1951 238.86 91.1267C239.21 91.0656 239.567 91.0565 239.92 91.0998C240.195 91.1308 240.468 91.1854 240.735 91.2629C240.938 91.3224 241.061 91.3738 241.061 91.3738L242.571 112.066L242.311 112.014L240.904 91.7929C240.905 91.7804 240.905 91.7678 240.904 91.7553C240.903 91.7261 240.898 91.697 240.89 91.669C240.879 91.6287 240.856 91.5925 240.825 91.5649C240.794 91.5372 240.755 91.5193 240.714 91.5132C240.692 91.508 240.67 91.5072 240.648 91.5108C240.627 91.5145 240.606 91.5225 240.587 91.5344C240.558 91.5565 240.535 91.5865 240.522 91.6208C240.51 91.6509 240.502 91.6824 240.498 91.7146C240.497 91.7293 240.497 91.744 240.498 91.7586L241.771 111.92L241.496 111.867L240.225 91.6208C240.225 91.6083 240.225 91.5958 240.225 91.5833C240.224 91.5539 240.219 91.5249 240.21 91.4969C240.198 91.4566 240.175 91.4206 240.143 91.3931C240.112 91.3656 240.073 91.3479 240.031 91.342C240.01 91.3368 239.987 91.3361 239.965 91.3398C239.943 91.3436 239.923 91.3518 239.904 91.364C239.875 91.3847 239.853 91.4128 239.839 91.4455C239.827 91.4753 239.818 91.5065 239.814 91.5385C239.814 91.5529 239.814 91.5673 239.814 91.5817L240.962 111.767L240.625 111.704L239.595 91.6298C239.596 91.617 239.596 91.6042 239.595 91.5915C239.594 91.5618 239.589 91.5325 239.58 91.5042C239.569 91.4637 239.545 91.4275 239.513 91.4001C239.481 91.3727 239.442 91.3553 239.4 91.3501C239.379 91.3449 239.357 91.344 239.336 91.3475C239.315 91.351 239.294 91.3588 239.276 91.3705C239.247 91.391 239.225 91.4193 239.212 91.452C239.195 91.496 239.185 91.5426 239.183 91.5898L240.094 111.599L239.76 111.537L238.944 91.8288C238.945 91.816 238.945 91.8032 238.944 91.7904C238.943 91.7609 238.939 91.7316 238.931 91.7032C238.919 91.6626 238.896 91.6261 238.865 91.5984C238.833 91.5707 238.794 91.553 238.752 91.5474C238.731 91.5424 238.708 91.5416 238.687 91.5453C238.665 91.5489 238.645 91.5568 238.626 91.5686C238.597 91.5908 238.575 91.6208 238.562 91.6551C238.55 91.6853 238.543 91.7168 238.538 91.7488C238.537 91.7635 238.537 91.7782 238.538 91.7929Z" fill="#FAFBFC"/>
<path d="M252.83 113.975L252.596 113.931L250.234 96.1495C250.235 96.1384 250.235 96.1272 250.234 96.116C250.231 96.0898 250.225 96.0641 250.216 96.0394C250.204 96.0084 250.186 95.9805 250.162 95.9578C250.13 95.9293 250.092 95.9106 250.05 95.904C250.031 95.8991 250.012 95.898 249.993 95.901C249.974 95.9039 249.955 95.9108 249.939 95.9212C249.914 95.9401 249.895 95.9667 249.886 95.997C249.877 96.0233 249.871 96.0507 249.87 96.0785C249.869 96.0915 249.869 96.1047 249.87 96.1177L252.114 113.842L251.864 113.795L249.617 95.9978C249.617 95.9933 249.617 95.9888 249.618 95.9843C249.618 95.9774 249.617 95.9705 249.617 95.9636C249.615 95.9357 249.609 95.9083 249.599 95.882C249.587 95.8513 249.568 95.8235 249.544 95.8005C249.514 95.7714 249.475 95.7521 249.433 95.745C249.415 95.7406 249.395 95.7401 249.376 95.7435C249.357 95.7468 249.339 95.754 249.323 95.7646C249.297 95.7842 249.278 95.8109 249.268 95.8412C249.255 95.8806 249.248 95.922 249.249 95.9636L251.378 113.71L251.077 113.653L249.057 96.0068C249.058 95.9954 249.058 95.9839 249.057 95.9725C249.055 95.9446 249.049 95.9172 249.039 95.891C249.027 95.86 249.008 95.8322 248.983 95.8094C248.952 95.7808 248.913 95.7621 248.871 95.7556C248.852 95.7509 248.833 95.7501 248.814 95.7533C248.794 95.7566 248.776 95.7637 248.76 95.7744C248.735 95.7937 248.717 95.8202 248.707 95.8502C248.698 95.8765 248.692 95.904 248.691 95.9318C248.69 95.9448 248.69 95.9579 248.691 95.9709L250.597 113.562L250.297 113.504L248.488 96.1845C248.489 96.1795 248.489 96.1745 248.489 96.1695C248.489 96.1634 248.489 96.1572 248.488 96.1511C248.486 96.1249 248.48 96.0991 248.471 96.0744C248.457 96.0384 248.435 96.0066 248.405 95.9821C248.376 95.9576 248.34 95.9414 248.303 95.935C248.284 95.9303 248.264 95.9295 248.245 95.9327C248.226 95.9359 248.208 95.9431 248.192 95.9538C248.167 95.9735 248.148 96.0002 248.138 96.0304C248.129 96.0568 248.123 96.0842 248.121 96.112C248.12 96.125 248.12 96.138 248.121 96.1511L249.181 106.82L247.885 95.7393C248.153 95.6215 248.44 95.5524 248.732 95.5355C248.999 95.5184 249.267 95.5305 249.531 95.5713C249.731 95.6015 249.929 95.6448 250.123 95.701C250.269 95.7434 250.356 95.7768 250.356 95.7768L252.83 113.975Z" fill="#FAFBFC"/>
<path d="M221.009 108.048L220.66 84.1935C220.66 84.178 220.659 84.1624 220.658 84.147C220.657 84.1111 220.652 84.0755 220.642 84.041C220.63 83.998 220.608 83.9585 220.578 83.926C220.538 83.8868 220.487 83.8609 220.432 83.8518C220.406 83.8458 220.379 83.8451 220.353 83.8497C220.326 83.8543 220.301 83.8642 220.279 83.8788C220.242 83.9054 220.214 83.9415 220.197 83.9831C220.181 84.0193 220.17 84.0574 220.164 84.0964C220.161 84.114 220.16 84.1317 220.159 84.1494L220.367 107.931L220.014 107.865C220.008 106.649 219.998 104.74 219.987 102.506C219.975 100.272 219.963 97.7134 219.953 95.1987C219.943 92.6841 219.936 90.2159 219.933 88.1612C219.93 86.1064 219.932 84.4683 219.943 83.617C220.323 83.3036 220.776 83.0905 221.259 82.9973C221.694 82.914 222.139 82.898 222.579 82.95C222.923 82.9884 223.263 83.0575 223.595 83.1563C223.733 83.1949 223.869 83.2414 224.002 83.2957L225.024 101.939C225.02 101.065 225.017 100.163 225.014 99.2528C225.011 98.5512 225.008 97.8444 225.005 97.141C225.004 96.8396 225.003 96.5389 225.002 96.2395C224.996 94.9337 224.991 93.6537 224.991 92.4558C224.991 91.9456 224.991 91.4505 224.99 90.9749C224.99 90.0776 224.99 89.2497 224.991 88.5207C224.991 87.4053 224.996 86.5206 225.003 85.9743C225.368 85.6736 225.803 85.4693 226.268 85.3799C226.686 85.2999 227.114 85.2845 227.536 85.3342C227.868 85.3709 228.195 85.437 228.515 85.5315C228.647 85.5693 228.778 85.614 228.906 85.6652L229.549 97.4068C229.547 96.9109 229.545 96.42 229.544 95.9373C229.542 95.4129 229.541 94.8983 229.539 94.398C229.535 93.4375 229.535 92.53 229.535 91.7073C229.535 91.4215 229.535 91.146 229.534 90.8821C229.534 90.3865 229.534 89.9319 229.535 89.5269C229.536 89.203 229.538 88.9111 229.54 88.6556C229.542 88.4218 229.544 88.2186 229.544 88.0494C229.893 87.7614 230.309 87.5652 230.753 87.4787C231.151 87.402 231.559 87.3874 231.962 87.4355C232.277 87.4704 232.589 87.5335 232.893 87.6238C233.019 87.6603 233.143 87.703 233.264 87.7518L234.546 110.568L234.261 110.513L233.124 88.2256C233.125 88.2173 233.125 88.2089 233.125 88.2006C233.125 88.1948 233.124 88.189 233.124 88.1832C233.124 88.1506 233.119 88.1182 233.11 88.087C233.099 88.0421 233.074 88.0017 233.039 87.9712C233.004 87.9406 232.961 87.9213 232.915 87.9157C232.891 87.9097 232.867 87.9085 232.843 87.9123C232.819 87.9161 232.796 87.9247 232.776 87.9377C232.743 87.9618 232.717 87.9949 232.703 88.0331C232.689 88.0666 232.679 88.1016 232.674 88.1375C232.669 88.1538 232.669 88.1701 232.669 88.1864L233.668 110.406L233.364 110.348L232.376 88.029C232.377 88.0149 232.377 88.0008 232.376 87.9866C232.376 87.9538 232.371 87.9212 232.362 87.8896C232.351 87.8499 232.33 87.8135 232.301 87.7836C232.265 87.7473 232.218 87.7231 232.167 87.7143C232.143 87.709 232.118 87.7086 232.094 87.7129C232.07 87.7173 232.047 87.7263 232.027 87.7396C231.993 87.7641 231.968 87.7974 231.952 87.8358C231.938 87.869 231.929 87.9038 231.923 87.9394C231.921 87.9556 231.919 87.9719 231.918 87.9883L232.771 110.236L232.399 110.168L231.672 88.0421C231.673 88.028 231.673 88.0138 231.672 87.9997C231.672 87.9669 231.667 87.9342 231.658 87.9027C231.646 87.8578 231.622 87.8174 231.587 87.7869C231.552 87.7563 231.508 87.737 231.462 87.7314C231.439 87.7253 231.414 87.7242 231.389 87.7281C231.365 87.7321 231.342 87.741 231.321 87.7543C231.288 87.778 231.263 87.8108 231.248 87.8488C231.234 87.882 231.224 87.9168 231.219 87.9524C231.217 87.9683 231.215 87.9844 231.214 88.0005L231.811 110.059L231.438 109.99L230.94 88.2688C230.941 88.2546 230.941 88.2405 230.94 88.2264C230.94 88.1935 230.935 88.1609 230.926 88.1294C230.915 88.0899 230.894 88.0538 230.866 88.0242C230.828 87.9877 230.78 87.9637 230.729 87.9557C230.705 87.9498 230.681 87.9488 230.657 87.9527C230.634 87.9566 230.611 87.9654 230.591 87.9785C230.558 88.0027 230.533 88.0354 230.518 88.0731C230.504 88.1062 230.495 88.141 230.49 88.1766C230.485 88.193 230.485 88.2093 230.485 88.2256L230.857 109.881L230.53 109.822L230.233 88.5827C230.234 88.5683 230.234 88.5539 230.233 88.5395C230.233 88.5064 230.228 88.4735 230.219 88.4417C230.208 88.4019 230.188 88.3654 230.159 88.3356C230.123 88.2996 230.076 88.2761 230.026 88.2688C230.002 88.2635 229.977 88.263 229.953 88.2673C229.928 88.2717 229.905 88.2808 229.885 88.294C229.851 88.3185 229.825 88.3518 229.81 88.3902C229.796 88.4235 229.786 88.4583 229.78 88.4938C229.777 88.5101 229.775 88.5264 229.775 88.5427L229.899 103.301L230.252 109.767L229.633 109.651C229.63 109.247 229.628 108.792 229.625 108.288L229.623 107.906C229.622 107.512 229.62 107.094 229.617 106.657C229.614 106.077 229.611 105.461 229.607 104.82C229.606 104.601 229.605 104.379 229.603 104.154C229.6 103.722 229.597 103.28 229.597 102.832L228.744 86.1561C228.745 86.1414 228.745 86.1268 228.744 86.1121C228.743 86.0779 228.739 86.0439 228.729 86.011C228.718 85.9698 228.697 85.9319 228.667 85.9009C228.629 85.8631 228.58 85.8383 228.526 85.83C228.501 85.824 228.475 85.823 228.45 85.8272C228.425 85.8314 228.4 85.8407 228.379 85.8544C228.342 85.8791 228.314 85.914 228.297 85.9547C228.283 85.9897 228.272 86.0265 228.267 86.064C228.264 86.0814 228.262 86.0985 228.262 86.1153L229.322 109.593L229.002 109.532L227.951 85.9523C227.951 85.9373 227.951 85.9224 227.951 85.9074C227.951 85.8726 227.946 85.8381 227.936 85.8047C227.925 85.7632 227.903 85.7251 227.874 85.6938C227.836 85.656 227.787 85.6314 227.734 85.6237C227.708 85.6177 227.682 85.6169 227.657 85.6213C227.631 85.6256 227.606 85.635 227.584 85.6489C227.548 85.6737 227.52 85.7082 227.503 85.7484C227.488 85.7831 227.478 85.8196 227.473 85.8568C227.47 85.8736 227.469 85.8905 227.468 85.9074L228.375 109.417L227.983 109.344L227.209 85.9645C227.209 85.9498 227.209 85.9351 227.209 85.9205C227.208 85.8862 227.203 85.8523 227.193 85.8194C227.182 85.7781 227.16 85.7403 227.13 85.7093C227.092 85.6713 227.043 85.6462 226.99 85.6375C226.965 85.6312 226.939 85.6301 226.913 85.6341C226.888 85.6382 226.863 85.6474 226.842 85.6612C226.805 85.6862 226.777 85.721 226.76 85.7614C226.745 85.7967 226.735 85.8337 226.729 85.8715C226.726 85.8885 226.724 85.9057 226.723 85.9229L227.363 109.23L226.968 109.158L226.438 86.2009C226.439 86.1921 226.439 86.1833 226.439 86.1744C226.439 86.1683 226.438 86.1622 226.438 86.1561C226.437 86.1216 226.432 86.0873 226.423 86.0542C226.41 86.0071 226.384 85.9647 226.347 85.9322C226.311 85.8997 226.266 85.8787 226.218 85.8715C226.193 85.8657 226.167 85.8649 226.141 85.8692C226.116 85.8736 226.092 85.8829 226.07 85.8968C226.034 85.9219 226.006 85.9566 225.989 85.9971C225.974 86.0321 225.964 86.0688 225.958 86.1064C225.955 86.1234 225.953 86.1405 225.952 86.1577L226.352 109.043L226.016 108.979L225.69 86.5288C225.69 86.5138 225.69 86.4989 225.69 86.4839C225.689 86.4495 225.685 86.4152 225.676 86.382C225.664 86.335 225.638 86.2927 225.602 86.2606C225.566 86.2286 225.521 86.2083 225.473 86.2026C225.448 86.1965 225.422 86.1956 225.397 86.1998C225.372 86.204 225.348 86.2133 225.327 86.2271C225.291 86.2522 225.262 86.2869 225.245 86.3273C225.23 86.3622 225.219 86.3989 225.213 86.4366C225.212 86.4465 225.21 86.4565 225.209 86.4665C225.208 86.4736 225.208 86.4808 225.208 86.488L225.405 108.722L225.411 108.861L225.066 108.798V108.136L223.812 83.7988C223.813 83.7836 223.813 83.7684 223.812 83.7532C223.811 83.7176 223.806 83.6822 223.796 83.648C223.783 83.5992 223.756 83.5553 223.718 83.5217C223.68 83.4881 223.633 83.4663 223.583 83.4588C223.558 83.4527 223.531 83.4519 223.505 83.4564C223.479 83.4609 223.455 83.4705 223.432 83.4849C223.396 83.5113 223.368 83.5475 223.351 83.5893C223.335 83.6258 223.325 83.6642 223.319 83.7034C223.318 83.7107 223.317 83.7179 223.316 83.7253C223.315 83.7359 223.314 83.7466 223.313 83.7573L224.449 108.683L224.117 108.621L222.995 83.5885C222.995 83.5828 222.995 83.5772 222.995 83.5715C222.995 83.5617 222.995 83.5518 222.995 83.542C222.994 83.5061 222.989 83.4705 222.979 83.436C222.967 83.3927 222.945 83.353 222.915 83.3202C222.876 83.281 222.825 83.2551 222.77 83.246C222.744 83.2398 222.717 83.2389 222.69 83.2434C222.664 83.2479 222.638 83.2576 222.616 83.2721C222.579 83.2985 222.551 83.3347 222.534 83.3765C222.518 83.4127 222.508 83.4508 222.502 83.4898C222.499 83.5073 222.497 83.5251 222.496 83.5428L223.468 108.501L223.056 108.427L222.23 83.5991C222.231 83.5839 222.231 83.5686 222.23 83.5534C222.229 83.5181 222.223 83.483 222.213 83.449C222.2 83.4002 222.173 83.3564 222.135 83.323C222.097 83.2896 222.05 83.2683 222 83.2615C221.974 83.255 221.947 83.2539 221.921 83.2582C221.895 83.2626 221.87 83.2723 221.847 83.2868C221.811 83.3132 221.783 83.3494 221.766 83.3911C221.75 83.4277 221.74 83.4661 221.734 83.5053C221.733 83.5127 221.732 83.5202 221.731 83.5277C221.73 83.5381 221.729 83.5486 221.728 83.5591L222.412 108.307L222.001 108.232L221.43 83.8518C221.431 83.8363 221.431 83.8208 221.43 83.8053C221.43 83.7695 221.424 83.7338 221.414 83.6993C221.402 83.6502 221.375 83.606 221.337 83.5722C221.299 83.5384 221.252 83.5166 221.202 83.5094C221.176 83.503 221.149 83.5018 221.122 83.5061C221.096 83.5103 221.071 83.5197 221.048 83.5338C221.012 83.56 220.983 83.5963 220.967 83.6382C220.952 83.6749 220.942 83.7132 220.936 83.7523C220.931 83.7703 220.931 83.7883 220.931 83.8062L221.362 108.115L221.009 108.048Z" fill="#FAFBFC"/>
</g>
<defs>
<clipPath id="clip0_16498_64793">
<rect width="390" height="151" fill="white"/>
</clipPath>
</defs>
</svg>
