<svg viewBox="0 0 385 319" fill="none" xmlns="http://www.w3.org/2000/svg">
<rect x="0.363326" y="0.363326" width="384.273" height="318.273" rx="1.81663" stroke-width="0.726651" class="rect-1"/>
<g filter="url(#filter0_d_13917_210955)">
<rect x="24" y="25" width="335.802" height="32.6993" rx="2.17995" class="rect-2"/>
<rect x="24.3633" y="25.3633" width="335.075" height="31.9727" rx="1.81663" stroke-width="0.726651" class="rect-3"/>
</g>
<path d="M24.7267 27.1799C24.7267 26.3772 25.3774 25.7266 26.18 25.7266H132.271V56.9726H26.18C25.3773 56.9726 24.7267 56.3219 24.7267 55.5193V27.1799Z" class="path-1"/>
<path d="M150.301 40.1109C150.301 40.951 150.013 41.5982 149.438 42.0524C148.867 42.5027 148.047 42.7279 146.98 42.7279H146.004V45.9922H145.039V37.6925H147.19C149.264 37.6925 150.301 38.4986 150.301 40.1109ZM146.004 41.8991H146.872C147.728 41.8991 148.346 41.761 148.729 41.4847C149.111 41.2084 149.302 40.7656 149.302 40.1563C149.302 39.6075 149.122 39.1988 148.763 38.93C148.403 38.6613 147.843 38.527 147.082 38.527H146.004V41.8991ZM155.728 45.9922L155.541 45.1066H155.495C155.185 45.4964 154.875 45.7613 154.564 45.9014C154.258 46.0376 153.874 46.1057 153.412 46.1057C152.795 46.1057 152.311 45.9468 151.959 45.6289C151.611 45.311 151.436 44.8587 151.436 44.2721C151.436 43.0156 152.441 42.357 154.451 42.2965L155.507 42.2624V41.8764C155.507 41.3882 155.401 41.0286 155.189 40.7978C154.981 40.5631 154.646 40.4458 154.184 40.4458C153.666 40.4458 153.079 40.6047 152.424 40.9227L152.135 40.2017C152.441 40.0352 152.776 39.9046 153.14 39.81C153.507 39.7154 153.874 39.668 154.241 39.668C154.983 39.668 155.531 39.8327 155.887 40.1619C156.247 40.4912 156.427 41.0192 156.427 41.7458V45.9922H155.728ZM153.599 45.328C154.186 45.328 154.646 45.1671 154.979 44.8454C155.316 44.5237 155.484 44.0734 155.484 43.4943V42.9323L154.542 42.972C153.792 42.9985 153.251 43.1159 152.918 43.324C152.589 43.5284 152.424 43.8482 152.424 44.2834C152.424 44.624 152.526 44.8833 152.731 45.0612C152.939 45.239 153.228 45.328 153.599 45.328ZM157.386 39.7702H158.396L159.759 43.3183C160.058 44.1283 160.243 44.713 160.315 45.0725H160.361C160.41 44.8795 160.512 44.5502 160.667 44.0847C160.826 43.6154 161.341 42.1773 162.211 39.7702H163.222L160.548 46.8551C160.283 47.5552 159.973 48.051 159.617 48.3425C159.265 48.6377 158.832 48.7853 158.317 48.7853C158.029 48.7853 157.745 48.7531 157.465 48.6887V47.9337C157.674 47.9791 157.906 48.0018 158.164 48.0018C158.811 48.0018 159.273 47.6385 159.549 46.9119L159.895 46.0262L157.386 39.7702ZM172.277 45.9922H166.821V45.1804L169.007 42.9834C169.673 42.3097 170.112 41.8291 170.324 41.5414C170.536 41.2538 170.695 40.9738 170.801 40.7013C170.907 40.4288 170.96 40.1355 170.96 39.8213C170.96 39.3785 170.825 39.0284 170.556 38.7711C170.288 38.5099 169.915 38.3794 169.438 38.3794C169.094 38.3794 168.766 38.4361 168.456 38.5497C168.149 38.6632 167.807 38.8695 167.428 39.1685L166.929 38.527C167.693 37.8912 168.526 37.5732 169.427 37.5732C170.206 37.5732 170.818 37.7738 171.26 38.175C171.703 38.5724 171.925 39.1079 171.925 39.7816C171.925 40.3077 171.777 40.828 171.482 41.3428C171.187 41.8575 170.634 42.5084 169.824 43.2956L168.008 45.0725V45.1179H172.277V45.9922ZM176.069 40.9227C176.943 40.9227 177.63 41.1403 178.13 41.5755C178.633 42.007 178.885 42.5993 178.885 43.3524C178.885 44.2115 178.61 44.8852 178.061 45.3734C177.516 45.8616 176.763 46.1057 175.802 46.1057C174.867 46.1057 174.154 45.9562 173.662 45.6572V44.7489C173.927 44.9192 174.256 45.0536 174.65 45.152C175.043 45.2466 175.431 45.2939 175.813 45.2939C176.479 45.2939 176.996 45.1369 177.363 44.8227C177.734 44.5086 177.92 44.0545 177.92 43.4603C177.92 42.3022 177.21 41.7231 175.791 41.7231C175.431 41.7231 174.95 41.778 174.349 41.8877L173.86 41.5755L174.173 37.6925H178.3V38.561H174.979L174.769 41.0532C175.204 40.9662 175.637 40.9227 176.069 40.9227ZM185.629 41.831C185.629 43.2654 185.402 44.3364 184.948 45.0441C184.497 45.7519 183.807 46.1057 182.876 46.1057C181.982 46.1057 181.303 45.7443 180.837 45.0214C180.372 44.2948 180.139 43.2313 180.139 41.831C180.139 40.3852 180.364 39.3123 180.815 38.6121C181.265 37.912 181.952 37.5619 182.876 37.5619C183.776 37.5619 184.459 37.9271 184.925 38.6575C185.394 39.388 185.629 40.4458 185.629 41.831ZM181.093 41.831C181.093 43.0383 181.235 43.9182 181.519 44.4708C181.803 45.0195 182.255 45.2939 182.876 45.2939C183.504 45.2939 183.958 45.0157 184.238 44.4594C184.522 43.8993 184.664 43.0231 184.664 41.831C184.664 40.6388 184.522 39.7664 184.238 39.2139C183.958 38.6575 183.504 38.3794 182.876 38.3794C182.255 38.3794 181.803 38.6538 181.519 39.2025C181.235 39.7475 181.093 40.6237 181.093 41.831ZM197 41.7628C197 43.1329 196.627 44.1812 195.881 44.9079C195.14 45.6308 194.07 45.9922 192.674 45.9922H190.375V37.6925H192.918C194.209 37.6925 195.212 38.0501 195.927 38.7654C196.642 39.4807 197 40.4799 197 41.7628ZM195.978 41.7969C195.978 40.7145 195.705 39.8989 195.16 39.3501C194.619 38.8014 193.813 38.527 192.742 38.527H191.34V45.1577H192.515C193.666 45.1577 194.53 44.8757 195.109 44.3118C195.688 43.7441 195.978 42.9058 195.978 41.7969ZM204.073 45.9922L203.04 43.3524H199.713L198.692 45.9922H197.715L200.996 37.6584H201.808L205.072 45.9922H204.073ZM202.739 42.4838L201.774 39.9122C201.649 39.5867 201.521 39.1874 201.388 38.7143C201.305 39.0776 201.186 39.4769 201.03 39.9122L200.054 42.4838H202.739ZM206.214 45.9922V37.6925H207.179V45.9922H206.214Z" class="path-2"/>
<path d="M63.3074 45.9922H61.9733V40.6331C61.9733 39.9935 61.9885 39.4864 62.0188 39.1117C61.9317 39.2025 61.8238 39.3028 61.6952 39.4126C61.5703 39.5223 61.1464 39.8705 60.4235 40.4571L59.7536 39.6113L62.1947 37.6925H63.3074V45.9922ZM70.6932 44.2039C70.6932 44.8171 70.4699 45.2882 70.0233 45.6175C69.5767 45.943 68.9371 46.1057 68.1045 46.1057C67.2681 46.1057 66.5963 45.9789 66.0891 45.7254V44.5729C66.8271 44.9136 67.5141 45.0839 68.1499 45.0839C68.9711 45.0839 69.3818 44.836 69.3818 44.3402C69.3818 44.1812 69.3364 44.0488 69.2455 43.9428C69.1547 43.8368 69.0052 43.7271 68.7971 43.6135C68.5889 43.5 68.2994 43.3713 67.9285 43.2275C67.2056 42.9474 66.7155 42.6674 66.4581 42.3873C66.2046 42.1073 66.0778 41.7439 66.0778 41.2973C66.0778 40.7599 66.2935 40.3436 66.725 40.0484C67.1602 39.7494 67.7506 39.5999 68.4962 39.5999C69.2342 39.5999 69.9324 39.7494 70.591 40.0484L70.1595 41.0532C69.4821 40.7732 68.9125 40.6331 68.4508 40.6331C67.7468 40.6331 67.3948 40.8337 67.3948 41.2349C67.3948 41.4317 67.4857 41.5982 67.6673 41.7345C67.8528 41.8707 68.254 42.0581 68.8709 42.2965C69.3893 42.4971 69.7659 42.6806 70.0006 42.8471C70.2352 43.0137 70.4093 43.2067 70.5228 43.4262C70.6364 43.6419 70.6932 43.9012 70.6932 44.2039ZM74.4797 45.0271C74.8052 45.0271 75.1307 44.976 75.4561 44.8738V45.8786C75.3085 45.943 75.1174 45.996 74.8828 46.0376C74.6519 46.083 74.4116 46.1057 74.1618 46.1057C72.8977 46.1057 72.2657 45.4396 72.2657 44.1074V40.724H71.4085V40.1336L72.3281 39.6453L72.7823 38.3169H73.6054V39.7135H75.3937V40.724H73.6054V44.0847C73.6054 44.4064 73.6849 44.6449 73.8439 44.8C74.0066 44.9514 74.2186 45.0271 74.4797 45.0271Z" class="path-3"/>
<path fill-rule="evenodd" clip-rule="evenodd" d="M40.7599 41.7116C40.7599 40.8952 40.0995 40.2348 39.2831 40.2348C38.4668 40.2348 37.8064 40.8952 37.8064 41.7116C37.8064 42.5279 38.4668 43.1883 39.2831 43.1883C40.0995 43.1883 40.7599 42.5279 40.7599 41.7116ZM39.2831 39.5785C38.4668 39.5785 37.8064 38.9181 37.8064 38.1017C37.8064 37.2854 38.4668 36.625 39.2831 36.625C40.0995 36.625 40.7599 37.2854 40.7599 38.1017C40.7599 38.9181 40.0995 39.5785 39.2831 39.5785ZM39.2831 46.7981C38.4668 46.7981 37.8064 46.1377 37.8064 45.3214C37.8064 44.5051 38.4668 43.8446 39.2831 43.8446C40.0995 43.8446 40.7599 44.5051 40.7599 45.3214C40.7599 46.1377 40.0995 46.7981 39.2831 46.7981ZM45.1198 41.7116C45.1198 40.8952 44.4593 40.2348 43.643 40.2348C42.8267 40.2348 42.1663 40.8952 42.1663 41.7116C42.1663 42.5279 42.8267 43.1883 43.643 43.1883C44.4593 43.1883 45.1198 42.5279 45.1198 41.7116ZM43.643 39.5785C42.8267 39.5785 42.1663 38.9181 42.1663 38.1017C42.1663 37.2854 42.8267 36.625 43.643 36.625C44.4593 36.625 45.1198 37.2854 45.1198 38.1017C45.1198 38.9181 44.4593 39.5785 43.643 39.5785ZM43.643 46.7981C42.8267 46.7981 42.1663 46.1377 42.1663 45.3214C42.1663 44.5051 42.8267 43.8446 43.643 43.8446C44.4593 43.8446 45.1198 44.5051 45.1198 45.3214C45.1198 46.1377 44.4593 46.7981 43.643 46.7981Z" class="path-4"/>
<g filter="url(#filter1_d_13917_210955)">
<rect x="24" y="69.625" width="335.802" height="32.6993" rx="2.17995" class="rect-4"/>
<rect x="24.3633" y="69.9883" width="335.075" height="31.9727" rx="1.81663" stroke-width="0.726651" class="rect-5"/>
</g>
<path d="M24.7267 71.8049C24.7267 71.0022 25.3774 70.3516 26.18 70.3516H132.271V101.598H26.18C25.3773 101.598 24.7267 100.947 24.7267 100.144V71.8049Z" class="path-5"/>
<path d="M150.301 84.7359C150.301 85.576 150.013 86.2232 149.438 86.6774C148.867 87.1277 148.047 87.3529 146.98 87.3529H146.004V90.6172H145.039V82.3175H147.19C149.264 82.3175 150.301 83.1236 150.301 84.7359ZM146.004 86.5241H146.872C147.728 86.5241 148.346 86.386 148.729 86.1097C149.111 85.8334 149.302 85.3906 149.302 84.7813C149.302 84.2325 149.122 83.8238 148.763 83.555C148.403 83.2863 147.843 83.152 147.082 83.152H146.004V86.5241ZM155.728 90.6172L155.541 89.7316H155.495C155.185 90.1214 154.875 90.3863 154.564 90.5264C154.258 90.6626 153.874 90.7307 153.412 90.7307C152.795 90.7307 152.311 90.5718 151.959 90.2539C151.611 89.936 151.436 89.4837 151.436 88.8971C151.436 87.6406 152.441 86.982 154.451 86.9215L155.507 86.8874V86.5014C155.507 86.0132 155.401 85.6536 155.189 85.4228C154.981 85.1881 154.646 85.0708 154.184 85.0708C153.666 85.0708 153.079 85.2297 152.424 85.5477L152.135 84.8267C152.441 84.6602 152.776 84.5296 153.14 84.435C153.507 84.3404 153.874 84.293 154.241 84.293C154.983 84.293 155.531 84.4577 155.887 84.7869C156.247 85.1162 156.427 85.6442 156.427 86.3708V90.6172H155.728ZM153.599 89.953C154.186 89.953 154.646 89.7921 154.979 89.4704C155.316 89.1487 155.484 88.6984 155.484 88.1193V87.5573L154.542 87.597C153.792 87.6235 153.251 87.7409 152.918 87.949C152.589 88.1534 152.424 88.4732 152.424 88.9084C152.424 89.249 152.526 89.5083 152.731 89.6862C152.939 89.864 153.228 89.953 153.599 89.953ZM157.386 84.3952H158.396L159.759 87.9433C160.058 88.7533 160.243 89.338 160.315 89.6975H160.361C160.41 89.5045 160.512 89.1752 160.667 88.7097C160.826 88.2404 161.341 86.8023 162.211 84.3952H163.222L160.548 91.4801C160.283 92.1802 159.973 92.676 159.617 92.9675C159.265 93.2627 158.832 93.4103 158.317 93.4103C158.029 93.4103 157.745 93.3781 157.465 93.3137V92.5587C157.674 92.6041 157.906 92.6268 158.164 92.6268C158.811 92.6268 159.273 92.2635 159.549 91.5369L159.895 90.6512L157.386 84.3952ZM170.312 90.6172H169.393V84.7018C169.393 84.2098 169.408 83.7443 169.438 83.3053C169.359 83.3847 169.27 83.468 169.171 83.555C169.073 83.6421 168.623 84.0111 167.82 84.6621L167.321 84.0149L169.518 82.3175H170.312V90.6172ZM178.93 85.8599C178.93 89.1071 177.674 90.7307 175.161 90.7307C174.721 90.7307 174.373 90.6929 174.116 90.6172V89.8054C174.419 89.9038 174.763 89.953 175.149 89.953C176.057 89.953 176.742 89.6729 177.204 89.1128C177.67 88.5489 177.923 87.686 177.965 86.5241H177.897C177.689 86.8382 177.412 87.0785 177.068 87.2451C176.724 87.4078 176.336 87.4892 175.904 87.4892C175.17 87.4892 174.587 87.2697 174.156 86.8307C173.724 86.3916 173.509 85.7785 173.509 84.9913C173.509 84.1284 173.749 83.4472 174.229 82.9476C174.714 82.448 175.35 82.1982 176.137 82.1982C176.701 82.1982 177.193 82.344 177.613 82.6354C178.037 82.923 178.362 83.345 178.589 83.9013C178.816 84.4539 178.93 85.1067 178.93 85.8599ZM176.137 83.0044C175.596 83.0044 175.178 83.1785 174.882 83.5267C174.587 83.8748 174.44 84.3593 174.44 84.98C174.44 85.525 174.576 85.9545 174.848 86.2686C175.121 86.579 175.535 86.7341 176.092 86.7341C176.436 86.7341 176.752 86.6641 177.04 86.5241C177.331 86.3841 177.56 86.1929 177.726 85.9507C177.893 85.7085 177.976 85.4549 177.976 85.19C177.976 84.7926 177.899 84.4255 177.744 84.0887C177.588 83.7518 177.371 83.4869 177.091 83.2939C176.814 83.1009 176.496 83.0044 176.137 83.0044ZM185.629 86.456C185.629 87.8904 185.402 88.9614 184.948 89.6691C184.497 90.3769 183.807 90.7307 182.876 90.7307C181.982 90.7307 181.303 90.3693 180.837 89.6464C180.372 88.9198 180.139 87.8563 180.139 86.456C180.139 85.0102 180.364 83.9373 180.815 83.2371C181.265 82.537 181.952 82.1869 182.876 82.1869C183.776 82.1869 184.459 82.5521 184.925 83.2825C185.394 84.013 185.629 85.0708 185.629 86.456ZM181.093 86.456C181.093 87.6633 181.235 88.5432 181.519 89.0958C181.803 89.6445 182.255 89.9189 182.876 89.9189C183.504 89.9189 183.958 89.6407 184.238 89.0844C184.522 88.5243 184.664 87.6481 184.664 86.456C184.664 85.2638 184.522 84.3914 184.238 83.8389C183.958 83.2825 183.504 83.0044 182.876 83.0044C182.255 83.0044 181.803 83.2788 181.519 83.8275C181.235 84.3725 181.093 85.2487 181.093 86.456ZM197 86.3878C197 87.7579 196.627 88.8062 195.881 89.5329C195.14 90.2558 194.07 90.6172 192.674 90.6172H190.375V82.3175H192.918C194.209 82.3175 195.212 82.6751 195.927 83.3904C196.642 84.1057 197 85.1049 197 86.3878ZM195.978 86.4219C195.978 85.3395 195.705 84.5239 195.16 83.9751C194.619 83.4264 193.813 83.152 192.742 83.152H191.34V89.7827H192.515C193.666 89.7827 194.53 89.5007 195.109 88.9368C195.688 88.3691 195.978 87.5308 195.978 86.4219ZM204.073 90.6172L203.04 87.9774H199.713L198.692 90.6172H197.715L200.996 82.2834H201.808L205.072 90.6172H204.073ZM202.739 87.1088L201.774 84.5372C201.649 84.2117 201.521 83.8124 201.388 83.3393C201.305 83.7026 201.186 84.1019 201.03 84.5372L200.054 87.1088H202.739ZM206.214 90.6172V82.3175H207.179V90.6172H206.214Z" class="path-6"/>
<path d="M65.0162 90.6172H59.3903V89.6067L61.5305 87.4551C62.1626 86.8079 62.5808 86.35 62.7851 86.0813C62.9933 85.8088 63.1447 85.5533 63.2393 85.3149C63.3339 85.0765 63.3812 84.821 63.3812 84.5485C63.3812 84.1738 63.2677 83.8786 63.0406 83.6629C62.8173 83.4472 62.507 83.3393 62.1096 83.3393C61.7917 83.3393 61.4832 83.398 61.1842 83.5153C60.889 83.6326 60.5465 83.8446 60.1567 84.1511L59.4357 83.2712C59.8975 82.8814 60.3459 82.6051 60.7812 82.4424C61.2164 82.2796 61.68 82.1982 62.172 82.1982C62.9441 82.1982 63.5629 82.4007 64.0284 82.8057C64.4939 83.2069 64.7267 83.7481 64.7267 84.4293C64.7267 84.804 64.6585 85.1597 64.5223 85.4966C64.3898 85.8334 64.1836 86.1816 63.9035 86.5411C63.6272 86.8969 63.1655 87.3794 62.5183 87.9888L61.0764 89.3853V89.4421H65.0162V90.6172ZM71.9989 90.6172H70.6591V86.7569C70.6591 86.2724 70.5607 85.911 70.3639 85.6726C70.1709 85.4341 69.8624 85.3149 69.4385 85.3149C68.8746 85.3149 68.4621 85.4814 68.201 85.8145C67.9398 86.1475 67.8093 86.7058 67.8093 87.4892V90.6172H66.4752V84.3385H67.5197L67.7071 85.1616H67.7752C67.9644 84.8626 68.2331 84.6318 68.5813 84.469C68.9295 84.3063 69.3155 84.2249 69.7394 84.2249C71.2457 84.2249 71.9989 84.9913 71.9989 86.5241V90.6172ZM75.9727 90.7307C75.1893 90.7307 74.5781 90.4469 74.1391 89.8792C73.7001 89.3115 73.4805 88.5148 73.4805 87.4892C73.4805 86.4598 73.7019 85.6593 74.1448 85.0878C74.5913 84.5126 75.2082 84.2249 75.9954 84.2249C76.8205 84.2249 77.4487 84.5296 77.8802 85.1389H77.9483C77.884 84.6885 77.8518 84.3328 77.8518 84.0716V81.7838H79.1916V90.6172H78.147L77.9143 89.794H77.8518C77.4241 90.4185 76.7978 90.7307 75.9727 90.7307ZM76.3304 89.6521C76.8792 89.6521 77.2784 89.4988 77.5282 89.1923C77.778 88.8819 77.9067 88.3805 77.9143 87.6879V87.5005C77.9143 86.7095 77.7856 86.1475 77.5282 85.8145C77.2709 85.4814 76.8678 85.3149 76.319 85.3149C75.8497 85.3149 75.4883 85.506 75.2347 85.8883C74.9812 86.2667 74.8544 86.8079 74.8544 87.5119C74.8544 88.2083 74.9774 88.74 75.2234 89.1071C75.4694 89.4704 75.8384 89.6521 76.3304 89.6521Z" class="path-7"/>
<path fill-rule="evenodd" clip-rule="evenodd" d="M40.76 86.3405C40.76 85.5242 40.0996 84.8637 39.2833 84.8637C38.467 84.8637 37.8065 85.5242 37.8065 86.3405C37.8065 87.1568 38.467 87.8172 39.2833 87.8172C40.0996 87.8172 40.76 87.1568 40.76 86.3405ZM39.2833 84.2074C38.467 84.2074 37.8065 83.547 37.8065 82.7306C37.8065 81.9143 38.467 81.2539 39.2833 81.2539C40.0996 81.2539 40.76 81.9143 40.76 82.7306C40.76 83.547 40.0996 84.2074 39.2833 84.2074ZM39.2833 91.427C38.467 91.427 37.8065 90.7666 37.8065 89.9503C37.8065 89.134 38.467 88.4735 39.2833 88.4735C40.0996 88.4735 40.76 89.134 40.76 89.9503C40.76 90.7666 40.0996 91.427 39.2833 91.427ZM45.1198 86.3405C45.1198 85.5242 44.4594 84.8638 43.6431 84.8638C42.8268 84.8638 42.1664 85.5242 42.1664 86.3405C42.1664 87.1568 42.8268 87.8173 43.6431 87.8173C44.4594 87.8173 45.1198 87.1568 45.1198 86.3405ZM43.6431 84.2074C42.8268 84.2074 42.1664 83.547 42.1664 82.7307C42.1664 81.9144 42.8268 81.254 43.6431 81.254C44.4594 81.254 45.1198 81.9144 45.1198 82.7307C45.1198 83.547 44.4594 84.2074 43.6431 84.2074ZM43.6431 91.4271C42.8268 91.4271 42.1664 90.7666 42.1664 89.9503C42.1664 89.134 42.8268 88.4736 43.6431 88.4736C44.4594 88.4736 45.1198 89.134 45.1198 89.9503C45.1198 90.7666 44.4594 91.4271 43.6431 91.4271Z" class="path-8"/>
<rect x="12.3633" y="13.3633" width="359.273" height="99.2733" rx="1.81663" stroke-width="0.726651" class="rect-6"/>
<path d="M150.828 148.954V154.325C150.828 155.271 150.542 156.014 149.971 156.556C149.399 157.097 148.614 157.367 147.615 157.367C146.616 157.367 145.842 157.095 145.293 156.55C144.748 156.005 144.476 155.256 144.476 154.302V148.954H145.441V154.37C145.441 155.063 145.63 155.594 146.008 155.965C146.387 156.336 146.943 156.522 147.677 156.522C148.378 156.522 148.917 156.336 149.295 155.965C149.674 155.591 149.863 155.055 149.863 154.359V148.954H150.828ZM157.147 157.254V153.229C157.147 152.722 157.031 152.343 156.8 152.094C156.569 151.844 156.208 151.719 155.716 151.719C155.065 151.719 154.588 151.895 154.285 152.247C153.983 152.599 153.831 153.18 153.831 153.99V157.254H152.889V151.032H153.655L153.808 151.883H153.854C154.047 151.577 154.318 151.34 154.666 151.174C155.014 151.004 155.402 150.918 155.829 150.918C156.579 150.918 157.143 151.1 157.521 151.463C157.9 151.823 158.089 152.4 158.089 153.195V157.254H157.147ZM162.869 150.918C163.145 150.918 163.393 150.941 163.613 150.987L163.482 151.861C163.225 151.804 162.998 151.776 162.801 151.776C162.297 151.776 161.866 151.98 161.506 152.389C161.151 152.797 160.973 153.307 160.973 153.916V157.254H160.03V151.032H160.808L160.916 152.184H160.961C161.192 151.779 161.47 151.467 161.796 151.248C162.121 151.028 162.479 150.918 162.869 150.918ZM168.603 157.254L168.415 156.368H168.37C168.06 156.758 167.749 157.023 167.439 157.163C167.132 157.299 166.748 157.367 166.286 157.367C165.67 157.367 165.185 157.208 164.833 156.891C164.485 156.573 164.311 156.12 164.311 155.534C164.311 154.277 165.316 153.619 167.325 153.558L168.381 153.524V153.138C168.381 152.65 168.275 152.29 168.063 152.059C167.855 151.825 167.52 151.708 167.059 151.708C166.54 151.708 165.953 151.866 165.299 152.184L165.009 151.463C165.316 151.297 165.651 151.166 166.014 151.072C166.381 150.977 166.748 150.93 167.115 150.93C167.857 150.93 168.406 151.094 168.762 151.424C169.121 151.753 169.301 152.281 169.301 153.008V157.254H168.603ZM166.474 156.59C167.06 156.59 167.52 156.429 167.853 156.107C168.19 155.785 168.359 155.335 168.359 154.756V154.194L167.416 154.234C166.667 154.26 166.126 154.378 165.793 154.586C165.463 154.79 165.299 155.11 165.299 155.545C165.299 155.886 165.401 156.145 165.605 156.323C165.813 156.501 166.103 156.59 166.474 156.59ZM175.506 157.254V153.229C175.506 152.722 175.39 152.343 175.16 152.094C174.929 151.844 174.567 151.719 174.075 151.719C173.424 151.719 172.947 151.895 172.645 152.247C172.342 152.599 172.19 153.18 172.19 153.99V157.254H171.248V151.032H172.015L172.168 151.883H172.213C172.406 151.577 172.677 151.34 173.025 151.174C173.373 151.004 173.761 150.918 174.189 150.918C174.938 150.918 175.502 151.1 175.881 151.463C176.259 151.823 176.448 152.4 176.448 153.195V157.254H175.506ZM179.321 154.069C179.484 153.838 179.731 153.535 180.064 153.161L182.074 151.032H183.192L180.672 153.683L183.368 157.254H182.227L180.03 154.313L179.321 154.926V157.254H178.39V148.421H179.321V153.104C179.321 153.312 179.306 153.634 179.275 154.069H179.321ZM187.127 157.367C186.207 157.367 185.48 157.087 184.947 156.527C184.417 155.967 184.152 155.189 184.152 154.194C184.152 153.191 184.398 152.394 184.89 151.804C185.386 151.214 186.05 150.918 186.882 150.918C187.662 150.918 188.279 151.176 188.733 151.69C189.187 152.201 189.414 152.877 189.414 153.717V154.313H185.128C185.147 155.044 185.331 155.598 185.679 155.977C186.031 156.355 186.525 156.544 187.161 156.544C187.831 156.544 188.493 156.404 189.148 156.124V156.964C188.815 157.108 188.499 157.21 188.2 157.271C187.904 157.335 187.547 157.367 187.127 157.367ZM186.871 151.708C186.372 151.708 185.972 151.87 185.673 152.196C185.378 152.521 185.204 152.972 185.151 153.547H188.404C188.404 152.953 188.271 152.499 188.007 152.184C187.742 151.866 187.363 151.708 186.871 151.708ZM195.262 156.419H195.211C194.775 157.051 194.124 157.367 193.258 157.367C192.444 157.367 191.81 157.089 191.356 156.533C190.906 155.977 190.68 155.186 190.68 154.16C190.68 153.134 190.907 152.338 191.362 151.77C191.816 151.202 192.448 150.918 193.258 150.918C194.102 150.918 194.749 151.225 195.199 151.838H195.273L195.233 151.39L195.211 150.952V148.421H196.153V157.254H195.387L195.262 156.419ZM193.377 156.578C194.02 156.578 194.486 156.404 194.773 156.056C195.065 155.704 195.211 155.138 195.211 154.359V154.16C195.211 153.278 195.063 152.65 194.768 152.275C194.476 151.897 194.009 151.708 193.366 151.708C192.813 151.708 192.389 151.923 192.094 152.355C191.803 152.782 191.657 153.388 191.657 154.171C191.657 154.966 191.803 155.566 192.094 155.971C192.385 156.376 192.813 156.578 193.377 156.578ZM206.547 154.137C206.547 155.152 206.292 155.944 205.781 156.516C205.27 157.084 204.564 157.367 203.664 157.367C203.107 157.367 202.613 157.237 202.182 156.976C201.75 156.715 201.417 156.34 201.183 155.852C200.948 155.363 200.831 154.792 200.831 154.137C200.831 153.123 201.084 152.334 201.591 151.77C202.099 151.202 202.803 150.918 203.703 150.918C204.574 150.918 205.264 151.208 205.775 151.787C206.29 152.366 206.547 153.149 206.547 154.137ZM201.807 154.137C201.807 154.932 201.966 155.538 202.284 155.954C202.602 156.37 203.069 156.578 203.686 156.578C204.303 156.578 204.771 156.372 205.089 155.96C205.41 155.543 205.571 154.936 205.571 154.137C205.571 153.346 205.41 152.746 205.089 152.338C204.771 151.925 204.299 151.719 203.675 151.719C203.058 151.719 202.593 151.921 202.278 152.326C201.964 152.731 201.807 153.335 201.807 154.137ZM211.1 157.367C210.695 157.367 210.325 157.294 209.988 157.146C209.655 156.995 209.375 156.764 209.148 156.453H209.079C209.125 156.817 209.148 157.161 209.148 157.487V160.047H208.205V151.032H208.972L209.102 151.883H209.148C209.39 151.543 209.672 151.297 209.993 151.145C210.315 150.994 210.684 150.918 211.1 150.918C211.925 150.918 212.561 151.2 213.008 151.764C213.458 152.328 213.683 153.119 213.683 154.137C213.683 155.159 213.454 155.954 212.997 156.522C212.542 157.085 211.91 157.367 211.1 157.367ZM210.964 151.719C210.328 151.719 209.869 151.895 209.585 152.247C209.301 152.599 209.155 153.159 209.148 153.927V154.137C209.148 155.012 209.293 155.638 209.585 156.016C209.876 156.391 210.343 156.578 210.987 156.578C211.524 156.578 211.944 156.361 212.247 155.925C212.554 155.49 212.707 154.89 212.707 154.126C212.707 153.35 212.554 152.756 212.247 152.343C211.944 151.927 211.517 151.719 210.964 151.719ZM217.345 156.59C217.512 156.59 217.672 156.578 217.828 156.556C217.983 156.529 218.106 156.503 218.197 156.476V157.197C218.094 157.246 217.943 157.286 217.742 157.316C217.546 157.35 217.368 157.367 217.209 157.367C216.005 157.367 215.404 156.734 215.404 155.466V151.764H214.512V151.31L215.404 150.918L215.801 149.59H216.346V151.032H218.151V151.764H216.346V155.426C216.346 155.801 216.435 156.088 216.613 156.289C216.791 156.489 217.035 156.59 217.345 156.59ZM220.388 157.254H219.446V151.032H220.388V157.254ZM219.366 149.346C219.366 149.13 219.419 148.973 219.525 148.875C219.631 148.773 219.763 148.721 219.922 148.721C220.074 148.721 220.204 148.773 220.314 148.875C220.424 148.977 220.479 149.134 220.479 149.346C220.479 149.558 220.424 149.717 220.314 149.823C220.204 149.925 220.074 149.976 219.922 149.976C219.763 149.976 219.631 149.925 219.525 149.823C219.419 149.717 219.366 149.558 219.366 149.346ZM227.757 154.137C227.757 155.152 227.501 155.944 226.99 156.516C226.479 157.084 225.773 157.367 224.873 157.367C224.316 157.367 223.823 157.237 223.391 156.976C222.96 156.715 222.627 156.34 222.392 155.852C222.157 155.363 222.04 154.792 222.04 154.137C222.04 153.123 222.294 152.334 222.801 151.77C223.308 151.202 224.012 150.918 224.912 150.918C225.783 150.918 226.474 151.208 226.985 151.787C227.499 152.366 227.757 153.149 227.757 154.137ZM223.016 154.137C223.016 154.932 223.175 155.538 223.493 155.954C223.811 156.37 224.279 156.578 224.895 156.578C225.512 156.578 225.98 156.372 226.298 155.96C226.619 155.543 226.78 154.936 226.78 154.137C226.78 153.346 226.619 152.746 226.298 152.338C225.98 151.925 225.509 151.719 224.884 151.719C224.267 151.719 223.802 151.921 223.488 152.326C223.173 152.731 223.016 153.335 223.016 154.137ZM233.672 157.254V153.229C233.672 152.722 233.557 152.343 233.326 152.094C233.095 151.844 232.733 151.719 232.241 151.719C231.59 151.719 231.114 151.895 230.811 152.247C230.508 152.599 230.357 153.18 230.357 153.99V157.254H229.414V151.032H230.181L230.334 151.883H230.379C230.572 151.577 230.843 151.34 231.191 151.174C231.539 151.004 231.927 150.918 232.355 150.918C233.104 150.918 233.668 151.1 234.047 151.463C234.425 151.823 234.614 152.4 234.614 153.195V157.254H233.672ZM240.57 155.556C240.57 156.136 240.354 156.582 239.922 156.896C239.491 157.21 238.885 157.367 238.106 157.367C237.281 157.367 236.637 157.237 236.176 156.976V156.101C236.475 156.253 236.794 156.372 237.135 156.459C237.479 156.546 237.811 156.59 238.128 156.59C238.62 156.59 238.999 156.512 239.264 156.357C239.529 156.198 239.661 155.958 239.661 155.636C239.661 155.394 239.555 155.187 239.343 155.017C239.135 154.843 238.726 154.639 238.117 154.404C237.538 154.188 237.126 154.001 236.88 153.842C236.637 153.679 236.456 153.496 236.335 153.291C236.217 153.087 236.159 152.843 236.159 152.559C236.159 152.052 236.365 151.653 236.777 151.361C237.19 151.066 237.756 150.918 238.475 150.918C239.145 150.918 239.799 151.055 240.439 151.327L240.104 152.094C239.48 151.836 238.914 151.708 238.407 151.708C237.96 151.708 237.623 151.778 237.396 151.918C237.169 152.058 237.055 152.251 237.055 152.497C237.055 152.663 237.097 152.805 237.18 152.922C237.267 153.04 237.406 153.151 237.595 153.257C237.784 153.363 238.147 153.517 238.685 153.717C239.423 153.986 239.92 154.256 240.178 154.529C240.439 154.801 240.57 155.144 240.57 155.556Z" class="path-9"/>
<rect x="12.3633" y="124.988" width="359.273" height="56.2733" rx="1.81663" stroke-width="0.726651" class="rect-7"/>
<g filter="url(#filter2_d_13917_210955)">
<rect x="24" y="205" width="334.529" height="32.6993" rx="2.17995" class="rect-8"/>
<rect x="24.3633" y="205.363" width="333.802" height="31.9727" rx="1.81663" stroke-width="0.726651" class="rect-9"/>
</g>
<path d="M24.7267 207.18C24.7267 206.377 25.3774 205.727 26.18 205.727H132.271V236.973H26.18C25.3773 236.973 24.7267 236.322 24.7267 235.519V207.18Z" class="path-10"/>
<path d="M150.301 220.115C150.301 220.955 150.013 221.602 149.438 222.056C148.867 222.507 148.047 222.732 146.98 222.732H146.004V225.996H145.039V217.696H147.19C149.264 217.696 150.301 218.503 150.301 220.115ZM146.004 221.903H146.872C147.728 221.903 148.346 221.765 148.729 221.489C149.111 221.212 149.302 220.77 149.302 220.16C149.302 219.611 149.122 219.203 148.763 218.934C148.403 218.665 147.843 218.531 147.082 218.531H146.004V221.903ZM155.728 225.996L155.541 225.11H155.495C155.185 225.5 154.875 225.765 154.564 225.905C154.258 226.042 153.874 226.11 153.412 226.11C152.795 226.11 152.311 225.951 151.959 225.633C151.611 225.315 151.436 224.863 151.436 224.276C151.436 223.019 152.441 222.361 154.451 222.3L155.507 222.266V221.88C155.507 221.392 155.401 221.033 155.189 220.802C154.981 220.567 154.646 220.45 154.184 220.45C153.666 220.45 153.079 220.609 152.424 220.927L152.135 220.206C152.441 220.039 152.776 219.908 153.14 219.814C153.507 219.719 153.874 219.672 154.241 219.672C154.983 219.672 155.531 219.837 155.887 220.166C156.247 220.495 156.427 221.023 156.427 221.75V225.996H155.728ZM153.599 225.332C154.186 225.332 154.646 225.171 154.979 224.849C155.316 224.528 155.484 224.077 155.484 223.498V222.936L154.542 222.976C153.792 223.002 153.251 223.12 152.918 223.328C152.589 223.532 152.424 223.852 152.424 224.287C152.424 224.628 152.526 224.887 152.731 225.065C152.939 225.243 153.228 225.332 153.599 225.332ZM157.386 219.774H158.396L159.759 223.322C160.058 224.132 160.243 224.717 160.315 225.076H160.361C160.41 224.883 160.512 224.554 160.667 224.089C160.826 223.619 161.341 222.181 162.211 219.774H163.222L160.548 226.859C160.283 227.559 159.973 228.055 159.617 228.346C159.265 228.642 158.832 228.789 158.317 228.789C158.029 228.789 157.745 228.757 157.465 228.693V227.938C157.674 227.983 157.906 228.006 158.164 228.006C158.811 228.006 159.273 227.642 159.549 226.916L159.895 226.03L157.386 219.774ZM170.312 225.996H169.393V220.081C169.393 219.589 169.408 219.123 169.438 218.684C169.359 218.764 169.27 218.847 169.171 218.934C169.073 219.021 168.623 219.39 167.82 220.041L167.321 219.394L169.518 217.696H170.312V225.996ZM176.069 220.927C176.943 220.927 177.63 221.144 178.13 221.579C178.633 222.011 178.885 222.603 178.885 223.356C178.885 224.215 178.61 224.889 178.061 225.377C177.516 225.866 176.763 226.11 175.802 226.11C174.867 226.11 174.154 225.96 173.662 225.661V224.753C173.927 224.923 174.256 225.058 174.65 225.156C175.043 225.251 175.431 225.298 175.813 225.298C176.479 225.298 176.996 225.141 177.363 224.827C177.734 224.513 177.92 224.058 177.92 223.464C177.92 222.306 177.21 221.727 175.791 221.727C175.431 221.727 174.95 221.782 174.349 221.892L173.86 221.579L174.173 217.696H178.3V218.565H174.979L174.769 221.057C175.204 220.97 175.637 220.927 176.069 220.927ZM185.629 221.835C185.629 223.269 185.402 224.34 184.948 225.048C184.497 225.756 183.807 226.11 182.876 226.11C181.982 226.11 181.303 225.748 180.837 225.025C180.372 224.299 180.139 223.235 180.139 221.835C180.139 220.389 180.364 219.316 180.815 218.616C181.265 217.916 181.952 217.566 182.876 217.566C183.776 217.566 184.459 217.931 184.925 218.661C185.394 219.392 185.629 220.45 185.629 221.835ZM181.093 221.835C181.093 223.042 181.235 223.922 181.519 224.475C181.803 225.023 182.255 225.298 182.876 225.298C183.504 225.298 183.958 225.02 184.238 224.463C184.522 223.903 184.664 223.027 184.664 221.835C184.664 220.643 184.522 219.77 184.238 219.218C183.958 218.661 183.504 218.383 182.876 218.383C182.255 218.383 181.803 218.658 181.519 219.206C181.235 219.751 181.093 220.628 181.093 221.835ZM197 221.767C197 223.137 196.627 224.185 195.881 224.912C195.14 225.635 194.07 225.996 192.674 225.996H190.375V217.696H192.918C194.209 217.696 195.212 218.054 195.927 218.769C196.642 219.485 197 220.484 197 221.767ZM195.978 221.801C195.978 220.718 195.705 219.903 195.16 219.354C194.619 218.805 193.813 218.531 192.742 218.531H191.34V225.162H192.515C193.666 225.162 194.53 224.88 195.109 224.316C195.688 223.748 195.978 222.91 195.978 221.801ZM204.073 225.996L203.04 223.356H199.713L198.692 225.996H197.715L200.996 217.662H201.808L205.072 225.996H204.073ZM202.739 222.488L201.774 219.916C201.649 219.591 201.521 219.191 201.388 218.718C201.305 219.082 201.186 219.481 201.03 219.916L200.054 222.488H202.739ZM206.214 225.996V217.696H207.179V225.996H206.214Z" class="path-11"/>
<path d="M61.3318 221.557H62.2742C62.9063 221.557 63.3642 221.439 63.648 221.205C63.9319 220.97 64.0738 220.622 64.0738 220.16C64.0738 219.691 63.9205 219.354 63.614 219.15C63.3074 218.945 62.8457 218.843 62.2288 218.843H61.3318V221.557ZM61.3318 222.681V225.996H59.975V217.696H62.3196C63.3907 217.696 64.1836 217.897 64.6983 218.298C65.213 218.699 65.4704 219.305 65.4704 220.115C65.4704 221.148 64.9329 221.884 63.8581 222.323L66.2027 225.996H64.6585L62.6716 222.681H61.3318ZM70.0119 226.11C69.0355 226.11 68.271 225.826 67.7184 225.258C67.1697 224.687 66.8953 223.901 66.8953 222.902C66.8953 221.877 67.1507 221.07 67.6617 220.484C68.1726 219.897 68.8746 219.604 69.7678 219.604C70.5966 219.604 71.2514 219.856 71.732 220.359C72.2127 220.862 72.453 221.555 72.453 222.437V223.158H68.2691C68.288 223.767 68.4526 224.236 68.763 224.565C69.0733 224.891 69.5105 225.054 70.0744 225.054C70.4453 225.054 70.7897 225.02 71.1076 224.952C71.4293 224.88 71.7737 224.762 72.1408 224.6V225.684C71.8153 225.839 71.486 225.949 71.153 226.013C70.8199 226.077 70.4396 226.11 70.0119 226.11ZM69.7678 220.614C69.3439 220.614 69.0033 220.749 68.746 221.017C68.4924 221.286 68.341 221.678 68.2918 222.193H71.1416C71.1341 221.674 71.0092 221.282 70.767 221.017C70.5247 220.749 70.1917 220.614 69.7678 220.614ZM73.3273 228.789C72.9261 228.789 72.593 228.742 72.3281 228.647V227.591C72.5855 227.659 72.8485 227.694 73.1172 227.694C73.6849 227.694 73.9688 227.372 73.9688 226.728V219.717H75.3029V226.819C75.3029 227.466 75.1325 227.957 74.7919 228.29C74.4551 228.623 73.9669 228.789 73.3273 228.789ZM73.8893 218.054C73.8893 217.816 73.9536 217.632 74.0823 217.503C74.2148 217.375 74.4021 217.31 74.6443 217.31C74.879 217.31 75.0606 217.375 75.1893 217.503C75.3218 217.632 75.388 217.816 75.388 218.054C75.388 218.281 75.3218 218.461 75.1893 218.593C75.0606 218.722 74.879 218.786 74.6443 218.786C74.4021 218.786 74.2148 218.722 74.0823 218.593C73.9536 218.461 73.8893 218.281 73.8893 218.054ZM79.958 226.11C78.9815 226.11 78.217 225.826 77.6645 225.258C77.1157 224.687 76.8413 223.901 76.8413 222.902C76.8413 221.877 77.0968 221.07 77.6077 220.484C78.1186 219.897 78.8207 219.604 79.7139 219.604C80.5427 219.604 81.1974 219.856 81.6781 220.359C82.1587 220.862 82.3991 221.555 82.3991 222.437V223.158H78.2151C78.2341 223.767 78.3987 224.236 78.709 224.565C79.0194 224.891 79.4565 225.054 80.0204 225.054C80.3913 225.054 80.7357 225.02 81.0536 224.952C81.3753 224.88 81.7197 224.762 82.0868 224.6V225.684C81.7613 225.839 81.4321 225.949 81.099 226.013C80.766 226.077 80.3856 226.11 79.958 226.11ZM79.7139 220.614C79.29 220.614 78.9494 220.749 78.692 221.017C78.4384 221.286 78.287 221.678 78.2378 222.193H81.0877C81.0801 221.674 80.9552 221.282 80.713 221.017C80.4708 220.749 80.1377 220.614 79.7139 220.614ZM86.4467 226.11C85.4968 226.11 84.7739 225.833 84.2781 225.281C83.7861 224.724 83.5401 223.928 83.5401 222.891C83.5401 221.835 83.7975 221.023 84.3122 220.455C84.8307 219.888 85.5782 219.604 86.5546 219.604C87.2169 219.604 87.813 219.727 88.3428 219.973L87.9398 221.046C87.3759 220.826 86.9104 220.717 86.5432 220.717C85.4571 220.717 84.914 221.437 84.914 222.879C84.914 223.583 85.0483 224.113 85.317 224.469C85.5895 224.821 85.9869 224.997 86.5092 224.997C87.1034 224.997 87.6654 224.849 88.1952 224.554V225.718C87.9568 225.858 87.7013 225.958 87.4288 226.019C87.1601 226.079 86.8328 226.11 86.4467 226.11ZM92.0102 225.031C92.3356 225.031 92.6611 224.98 92.9866 224.878V225.883C92.839 225.947 92.6479 226 92.4132 226.042C92.1824 226.087 91.942 226.11 91.6923 226.11C90.4282 226.11 89.7961 225.444 89.7961 224.111V220.728H88.9389V220.137L89.8586 219.649L90.3127 218.321H91.1359V219.717H92.9242V220.728H91.1359V224.089C91.1359 224.41 91.2154 224.649 91.3743 224.804C91.5371 224.955 91.749 225.031 92.0102 225.031Z" class="path-12"/>
<path fill-rule="evenodd" clip-rule="evenodd" d="M40.7599 221.712C40.7599 220.895 40.0995 220.235 39.2831 220.235C38.4668 220.235 37.8064 220.895 37.8064 221.712C37.8064 222.528 38.4668 223.188 39.2831 223.188C40.0995 223.188 40.7599 222.528 40.7599 221.712ZM39.2831 219.578C38.4668 219.578 37.8064 218.918 37.8064 218.102C37.8064 217.285 38.4668 216.625 39.2831 216.625C40.0995 216.625 40.7599 217.285 40.7599 218.102C40.7599 218.918 40.0995 219.578 39.2831 219.578ZM39.2831 226.798C38.4668 226.798 37.8064 226.138 37.8064 225.321C37.8064 224.505 38.4668 223.845 39.2831 223.845C40.0995 223.845 40.7599 224.505 40.7599 225.321C40.7599 226.138 40.0995 226.798 39.2831 226.798ZM45.1198 221.712C45.1198 220.895 44.4593 220.235 43.643 220.235C42.8267 220.235 42.1663 220.895 42.1663 221.712C42.1663 222.528 42.8267 223.188 43.643 223.188C44.4593 223.188 45.1198 222.528 45.1198 221.712ZM43.643 219.578C42.8267 219.578 42.1663 218.918 42.1663 218.102C42.1663 217.285 42.8267 216.625 43.643 216.625C44.4593 216.625 45.1198 217.285 45.1198 218.102C45.1198 218.918 44.4593 219.578 43.643 219.578ZM43.643 226.798C42.8267 226.798 42.1663 226.138 42.1663 225.321C42.1663 224.505 42.8267 223.845 43.643 223.845C44.4593 223.845 45.1198 224.505 45.1198 225.321C45.1198 226.138 44.4593 226.798 43.643 226.798Z" class="path-13"/>
<rect x="12.3633" y="193.617" width="359.273" height="55.2733" rx="1.81663" stroke-width="0.726651" class="rect-10"/>
<rect x="1" y="260" width="383" height="58" rx="2.17995" class="rect-11"/>
<rect x="299.078" y="272.684" width="72.5057" height="32.6993" rx="2.17995" class="rect-12"/>
<path d="M328.348 284.735H329.756L326.85 293.035H325.419L322.524 284.735H323.92L325.652 289.896C325.743 290.142 325.839 290.46 325.941 290.85C326.043 291.236 326.11 291.523 326.14 291.712C326.189 291.425 326.265 291.092 326.367 290.713C326.469 290.335 326.552 290.055 326.617 289.873L328.348 284.735ZM336.279 289.884C336.279 290.91 336.016 291.711 335.49 292.286C334.964 292.861 334.231 293.149 333.293 293.149C332.706 293.149 332.188 293.016 331.737 292.751C331.287 292.486 330.941 292.106 330.699 291.61C330.456 291.114 330.335 290.539 330.335 289.884C330.335 288.866 330.596 288.072 331.119 287.5C331.641 286.929 332.377 286.643 333.327 286.643C334.235 286.643 334.954 286.936 335.484 287.523C336.014 288.106 336.279 288.893 336.279 289.884ZM331.709 289.884C331.709 291.334 332.245 292.059 333.316 292.059C334.375 292.059 334.905 291.334 334.905 289.884C334.905 288.45 334.372 287.733 333.304 287.733C332.744 287.733 332.337 287.918 332.084 288.289C331.834 288.66 331.709 289.192 331.709 289.884ZM340.156 292.07C340.482 292.07 340.807 292.019 341.133 291.917V292.922C340.985 292.986 340.794 293.039 340.559 293.081C340.329 293.126 340.088 293.149 339.838 293.149C338.574 293.149 337.942 292.483 337.942 291.15V287.767H337.085V287.177L338.005 286.688L338.459 285.36H339.282V286.756H341.07V287.767H339.282V291.128C339.282 291.449 339.362 291.688 339.521 291.843C339.683 291.994 339.895 292.07 340.156 292.07ZM345.135 293.149C344.159 293.149 343.394 292.865 342.842 292.297C342.293 291.726 342.018 290.94 342.018 289.941C342.018 288.916 342.274 288.109 342.785 287.523C343.296 286.936 343.998 286.643 344.891 286.643C345.72 286.643 346.375 286.895 346.855 287.398C347.336 287.901 347.576 288.594 347.576 289.476V290.197H343.392C343.411 290.806 343.576 291.275 343.886 291.605C344.196 291.93 344.634 292.093 345.197 292.093C345.568 292.093 345.913 292.059 346.231 291.991C346.552 291.919 346.897 291.801 347.264 291.639V292.723C346.938 292.878 346.609 292.988 346.276 293.052C345.943 293.117 345.563 293.149 345.135 293.149ZM344.891 287.653C344.467 287.653 344.126 287.788 343.869 288.056C343.616 288.325 343.464 288.717 343.415 289.232H346.265C346.257 288.713 346.132 288.321 345.89 288.056C345.648 287.788 345.315 287.653 344.891 287.653Z" class="path-14"/>
<rect x="129.363" y="273.047" width="152.779" height="31.9727" rx="1.81663" class="rect-13"/>
<path d="M154.887 288.596H155.83C156.462 288.596 156.92 288.478 157.203 288.244C157.487 288.009 157.629 287.661 157.629 287.199C157.629 286.73 157.476 286.393 157.169 286.189C156.863 285.984 156.401 285.882 155.784 285.882H154.887V288.596ZM154.887 289.72V293.035H153.53V284.735H155.875C156.946 284.735 157.739 284.936 158.254 285.337C158.768 285.738 159.026 286.344 159.026 287.154C159.026 288.187 158.488 288.923 157.413 289.362L159.758 293.035H158.214L156.227 289.72H154.887ZM163.567 293.149C162.591 293.149 161.826 292.865 161.274 292.297C160.725 291.726 160.451 290.94 160.451 289.941C160.451 288.916 160.706 288.109 161.217 287.523C161.728 286.936 162.43 286.643 163.323 286.643C164.152 286.643 164.807 286.895 165.287 287.398C165.768 287.901 166.008 288.594 166.008 289.476V290.197H161.824C161.843 290.806 162.008 291.275 162.318 291.605C162.629 291.93 163.066 292.093 163.63 292.093C164.001 292.093 164.345 292.059 164.663 291.991C164.985 291.919 165.329 291.801 165.696 291.639V292.723C165.371 292.878 165.041 292.988 164.708 293.052C164.375 293.117 163.995 293.149 163.567 293.149ZM163.323 287.653C162.899 287.653 162.559 287.788 162.301 288.056C162.048 288.325 161.896 288.717 161.847 289.232H164.697C164.689 288.713 164.565 288.321 164.322 288.056C164.08 287.788 163.747 287.653 163.323 287.653ZM170.675 287.767H169.142V293.035H167.802V287.767H166.769V287.142L167.802 286.734V286.325C167.802 285.583 167.976 285.034 168.325 284.679C168.673 284.319 169.205 284.139 169.92 284.139C170.389 284.139 170.851 284.217 171.305 284.372L170.953 285.383C170.624 285.277 170.31 285.224 170.011 285.224C169.708 285.224 169.486 285.318 169.346 285.508C169.21 285.693 169.142 285.973 169.142 286.348V286.756H170.675V287.767ZM176.176 293.035L175.988 292.212H175.92C175.735 292.503 175.47 292.732 175.126 292.899C174.785 293.065 174.395 293.149 173.956 293.149C173.195 293.149 172.628 292.959 172.253 292.581C171.878 292.203 171.691 291.629 171.691 290.861V286.756H173.036V290.628C173.036 291.109 173.135 291.47 173.332 291.712C173.528 291.951 173.837 292.07 174.257 292.07C174.817 292.07 175.228 291.904 175.489 291.57C175.754 291.234 175.886 290.672 175.886 289.884V286.756H177.226V293.035H176.176ZM183.346 291.247C183.346 291.86 183.123 292.331 182.676 292.66C182.229 292.986 181.59 293.149 180.757 293.149C179.921 293.149 179.249 293.022 178.742 292.768V291.616C179.48 291.957 180.167 292.127 180.803 292.127C181.624 292.127 182.034 291.879 182.034 291.383C182.034 291.224 181.989 291.092 181.898 290.986C181.807 290.88 181.658 290.77 181.45 290.657C181.242 290.543 180.952 290.414 180.581 290.27C179.858 289.99 179.368 289.71 179.111 289.43C178.857 289.15 178.73 288.787 178.73 288.34C178.73 287.803 178.946 287.387 179.378 287.091C179.813 286.792 180.403 286.643 181.149 286.643C181.887 286.643 182.585 286.792 183.244 287.091L182.812 288.096C182.135 287.816 181.565 287.676 181.103 287.676C180.399 287.676 180.048 287.877 180.048 288.278C180.048 288.475 180.138 288.641 180.32 288.777C180.505 288.914 180.907 289.101 181.524 289.339C182.042 289.54 182.419 289.724 182.653 289.89C182.888 290.057 183.062 290.25 183.176 290.469C183.289 290.685 183.346 290.944 183.346 291.247ZM187.535 293.149C186.559 293.149 185.794 292.865 185.242 292.297C184.693 291.726 184.419 290.94 184.419 289.941C184.419 288.916 184.674 288.109 185.185 287.523C185.696 286.936 186.398 286.643 187.291 286.643C188.12 286.643 188.775 286.895 189.256 287.398C189.736 287.901 189.977 288.594 189.977 289.476V290.197H185.793C185.812 290.806 185.976 291.275 186.286 291.605C186.597 291.93 187.034 292.093 187.598 292.093C187.969 292.093 188.313 292.059 188.631 291.991C188.953 291.919 189.297 291.801 189.664 291.639V292.723C189.339 292.878 189.01 292.988 188.676 293.052C188.343 293.117 187.963 293.149 187.535 293.149ZM187.291 287.653C186.867 287.653 186.527 287.788 186.269 288.056C186.016 288.325 185.865 288.717 185.815 289.232H188.665C188.658 288.713 188.533 288.321 188.29 288.056C188.048 287.788 187.715 287.653 187.291 287.653ZM196.851 292.07C197.177 292.07 197.502 292.019 197.828 291.917V292.922C197.68 292.986 197.489 293.039 197.254 293.081C197.024 293.126 196.783 293.149 196.533 293.149C195.269 293.149 194.637 292.483 194.637 291.15V287.767H193.78V287.177L194.7 286.688L195.154 285.36H195.977V286.756H197.765V287.767H195.977V291.128C195.977 291.449 196.057 291.688 196.216 291.843C196.378 291.994 196.59 292.07 196.851 292.07ZM204.657 289.884C204.657 290.91 204.394 291.711 203.868 292.286C203.342 292.861 202.61 293.149 201.671 293.149C201.084 293.149 200.566 293.016 200.116 292.751C199.665 292.486 199.319 292.106 199.077 291.61C198.834 291.114 198.713 290.539 198.713 289.884C198.713 288.866 198.975 288.072 199.497 287.5C200.019 286.929 200.755 286.643 201.705 286.643C202.613 286.643 203.333 286.936 203.862 287.523C204.392 288.106 204.657 288.893 204.657 289.884ZM200.087 289.884C200.087 291.334 200.623 292.059 201.694 292.059C202.753 292.059 203.283 291.334 203.283 289.884C203.283 288.45 202.75 287.733 201.682 287.733C201.122 287.733 200.715 287.918 200.462 288.289C200.212 288.66 200.087 289.192 200.087 289.884ZM214.507 293.035L213.678 290.73H210.504L209.693 293.035H208.262L211.367 284.701H212.843L215.949 293.035H214.507ZM213.32 289.561L212.542 287.301C212.486 287.15 212.406 286.912 212.304 286.586C212.206 286.261 212.137 286.022 212.1 285.871C211.997 286.336 211.848 286.845 211.651 287.398L210.902 289.561H213.32ZM220.087 286.643C220.356 286.643 220.577 286.662 220.751 286.7L220.621 287.943C220.432 287.898 220.235 287.875 220.03 287.875C219.497 287.875 219.063 288.049 218.73 288.397C218.401 288.745 218.236 289.198 218.236 289.754V293.035H216.902V286.756H217.947L218.123 287.863H218.191C218.399 287.489 218.67 287.192 219.003 286.972C219.34 286.753 219.701 286.643 220.087 286.643ZM225.128 286.643C225.912 286.643 226.521 286.927 226.956 287.494C227.395 288.062 227.615 288.859 227.615 289.884C227.615 290.914 227.393 291.716 226.951 292.291C226.508 292.863 225.893 293.149 225.106 293.149C224.311 293.149 223.694 292.863 223.255 292.291H223.164L222.92 293.035H221.921V284.202H223.255V286.302C223.255 286.457 223.247 286.688 223.232 286.995C223.217 287.301 223.206 287.496 223.198 287.58H223.255C223.679 286.955 224.303 286.643 225.128 286.643ZM224.782 287.733C224.245 287.733 223.857 287.892 223.618 288.21C223.384 288.524 223.262 289.052 223.255 289.794V289.884C223.255 290.649 223.376 291.203 223.618 291.548C223.86 291.888 224.256 292.059 224.805 292.059C225.278 292.059 225.635 291.871 225.878 291.497C226.124 291.122 226.247 290.581 226.247 289.873C226.247 288.446 225.758 287.733 224.782 287.733ZM230.499 293.035H229.165V286.756H230.499V293.035ZM229.085 285.093C229.085 284.855 229.149 284.671 229.278 284.542C229.411 284.414 229.598 284.349 229.84 284.349C230.075 284.349 230.256 284.414 230.385 284.542C230.518 284.671 230.584 284.855 230.584 285.093C230.584 285.32 230.518 285.5 230.385 285.632C230.256 285.761 230.075 285.825 229.84 285.825C229.598 285.825 229.411 285.761 229.278 285.632C229.149 285.5 229.085 285.32 229.085 285.093ZM234.751 292.07C235.076 292.07 235.402 292.019 235.727 291.917V292.922C235.58 292.986 235.388 293.039 235.154 293.081C234.923 293.126 234.683 293.149 234.433 293.149C233.169 293.149 232.537 292.483 232.537 291.15V287.767H231.68V287.177L232.599 286.688L233.053 285.36H233.876V286.756H235.665V287.767H233.876V291.128C233.876 291.449 233.956 291.688 234.115 291.843C234.278 291.994 234.49 292.07 234.751 292.07ZM240.172 286.643C240.441 286.643 240.662 286.662 240.836 286.7L240.706 287.943C240.517 287.898 240.32 287.875 240.115 287.875C239.582 287.875 239.148 288.049 238.815 288.397C238.486 288.745 238.322 289.198 238.322 289.754V293.035H236.987V286.756H238.032L238.208 287.863H238.276C238.484 287.489 238.755 287.192 239.088 286.972C239.425 286.753 239.786 286.643 240.172 286.643ZM245.934 293.035L245.668 292.161H245.622C245.319 292.543 245.015 292.804 244.708 292.944C244.402 293.081 244.008 293.149 243.527 293.149C242.91 293.149 242.428 292.982 242.08 292.649C241.735 292.316 241.563 291.845 241.563 291.236C241.563 290.588 241.803 290.1 242.284 289.771C242.765 289.442 243.497 289.262 244.481 289.232L245.565 289.198V288.863C245.565 288.461 245.471 288.162 245.282 287.966C245.096 287.765 244.807 287.665 244.413 287.665C244.091 287.665 243.783 287.712 243.488 287.807C243.192 287.901 242.909 288.013 242.636 288.142L242.205 287.188C242.545 287.01 242.918 286.876 243.323 286.785C243.728 286.69 244.11 286.643 244.47 286.643C245.268 286.643 245.87 286.817 246.275 287.165C246.684 287.513 246.888 288.06 246.888 288.806V293.035H245.934ZM243.947 292.127C244.432 292.127 244.82 291.992 245.111 291.724C245.406 291.451 245.554 291.071 245.554 290.583V290.038L244.748 290.072C244.12 290.094 243.662 290.2 243.374 290.39C243.09 290.575 242.948 290.861 242.948 291.247C242.948 291.527 243.032 291.745 243.198 291.9C243.365 292.051 243.614 292.127 243.947 292.127ZM251.089 292.07C251.415 292.07 251.74 292.019 252.065 291.917V292.922C251.918 292.986 251.727 293.039 251.492 293.081C251.261 293.126 251.021 293.149 250.771 293.149C249.507 293.149 248.875 292.483 248.875 291.15V287.767H248.018V287.177L248.937 286.688L249.392 285.36H250.215V286.756H252.003V287.767H250.215V291.128C250.215 291.449 250.294 291.688 250.453 291.843C250.616 291.994 250.828 292.07 251.089 292.07ZM256.068 293.149C255.091 293.149 254.327 292.865 253.774 292.297C253.225 291.726 252.951 290.94 252.951 289.941C252.951 288.916 253.207 288.109 253.717 287.523C254.228 286.936 254.93 286.643 255.824 286.643C256.652 286.643 257.307 286.895 257.788 287.398C258.269 287.901 258.509 288.594 258.509 289.476V290.197H254.325C254.344 290.806 254.508 291.275 254.819 291.605C255.129 291.93 255.566 292.093 256.13 292.093C256.501 292.093 256.845 292.059 257.163 291.991C257.485 291.919 257.829 291.801 258.197 291.639V292.723C257.871 292.878 257.542 292.988 257.209 293.052C256.876 293.117 256.495 293.149 256.068 293.149ZM255.824 287.653C255.4 287.653 255.059 287.788 254.802 288.056C254.548 288.325 254.397 288.717 254.348 289.232H257.197C257.19 288.713 257.065 288.321 256.823 288.056C256.581 287.788 256.248 287.653 255.824 287.653Z" class="path-15"/>
<rect x="129.363" y="273.047" width="152.779" height="31.9727" rx="1.81663" stroke-width="0.726651" class="rect-14"/>
<defs>
<filter id="filter0_d_13917_210955" x="21.82" y="24.2733" width="340.162" height="37.0591" filterUnits="userSpaceOnUse" color-interpolation-filters="sRGB">
<feFlood flood-opacity="0" result="BackgroundImageFix"/>
<feColorMatrix in="SourceAlpha" type="matrix" values="0 0 0 0 0 0 0 0 0 0 0 0 0 0 0 0 0 0 127 0" result="hardAlpha"/>
<feOffset dy="1.4533"/>
<feGaussianBlur stdDeviation="1.08998"/>
<feColorMatrix type="matrix" values="0 0 0 0 0 0 0 0 0 0 0 0 0 0 0 0 0 0 0.06 0"/>
<feBlend mode="normal" in2="BackgroundImageFix" result="effect1_dropShadow_13917_210955"/>
<feBlend mode="normal" in="SourceGraphic" in2="effect1_dropShadow_13917_210955" result="shape"/>
</filter>
<filter id="filter1_d_13917_210955" x="21.82" y="68.8983" width="340.162" height="37.0591" filterUnits="userSpaceOnUse" color-interpolation-filters="sRGB">
<feFlood flood-opacity="0" result="BackgroundImageFix"/>
<feColorMatrix in="SourceAlpha" type="matrix" values="0 0 0 0 0 0 0 0 0 0 0 0 0 0 0 0 0 0 127 0" result="hardAlpha"/>
<feOffset dy="1.4533"/>
<feGaussianBlur stdDeviation="1.08998"/>
<feColorMatrix type="matrix" values="0 0 0 0 0 0 0 0 0 0 0 0 0 0 0 0 0 0 0.06 0"/>
<feBlend mode="normal" in2="BackgroundImageFix" result="effect1_dropShadow_13917_210955"/>
<feBlend mode="normal" in="SourceGraphic" in2="effect1_dropShadow_13917_210955" result="shape"/>
</filter>
<filter id="filter2_d_13917_210955" x="21.82" y="204.273" width="338.888" height="37.0591" filterUnits="userSpaceOnUse" color-interpolation-filters="sRGB">
<feFlood flood-opacity="0" result="BackgroundImageFix"/>
<feColorMatrix in="SourceAlpha" type="matrix" values="0 0 0 0 0 0 0 0 0 0 0 0 0 0 0 0 0 0 127 0" result="hardAlpha"/>
<feOffset dy="1.4533"/>
<feGaussianBlur stdDeviation="1.08998"/>
<feColorMatrix type="matrix" values="0 0 0 0 0 0 0 0 0 0 0 0 0 0 0 0 0 0 0.06 0"/>
<feBlend mode="normal" in2="BackgroundImageFix" result="effect1_dropShadow_13917_210955"/>
<feBlend mode="normal" in="SourceGraphic" in2="effect1_dropShadow_13917_210955" result="shape"/>
</filter>
</defs>
</svg>
