<svg viewBox="0 0 280 254" fill="none" xmlns="http://www.w3.org/2000/svg">
<path fill-rule="evenodd" clip-rule="evenodd" d="M82.1951 0L222.154 9.15045L280 137.338L200.916 253.21L57.8025 247.105L0 106.814L82.1951 0ZM85.7529 7.27085L63.9207 113.967L192.185 53.7796L85.7529 7.27085ZM195.727 58.6916L65.5625 119.771L176.34 203.061L195.727 58.6916ZM172.12 207.33L62.7929 125.131V240.21L172.12 207.33ZM56.8537 229.206V121.593L8.29225 111.344L56.8537 229.206ZM8.64096 105.333L57.514 115.647L78.0922 15.0797L8.64096 105.333ZM77.551 241.988L194.485 246.976L177.069 212.058L77.551 241.988ZM182.389 209.412L199.795 244.309L264.443 149.588L182.389 209.412ZM266.4 121.646L220.049 18.9305L202.972 53.1691L266.4 121.646ZM197.999 49.8254L100.348 7.15348L215.527 14.6838L197.999 49.8254ZM201.499 60.3294L182.478 201.985L272.152 136.605L201.499 60.3294Z" fill="url(#paint0_linear_13407_171333)"/>
<defs>
<linearGradient id="paint0_linear_13407_171333" x1="140" y1="0" x2="140" y2="253.21" gradientUnits="userSpaceOnUse">
<stop class="stop-1"/>
<stop offset="1" class="stop-2"/>
</linearGradient>
</defs>
</svg>
