<svg width="48" height="48" viewBox="0 0 48 48" fill="none" xmlns="http://www.w3.org/2000/svg">
<path fill-rule="evenodd" clip-rule="evenodd" d="M15.7151 6L35.6632 7.30096L43.9078 25.526L32.6361 42L12.2385 41.132L4 21.1862L15.7151 6ZM16.2222 7.03373L13.1105 22.2033L31.3917 13.6461L16.2222 7.03373ZM31.8965 14.3445L13.3445 23.0284L29.1334 34.8701L31.8965 14.3445ZM28.5319 35.4771L12.9497 23.7905V40.1518L28.5319 35.4771ZM12.1032 38.5872V23.2874L5.18188 21.8302L12.1032 38.5872ZM5.23158 20.9756L12.1974 22.4421L15.1303 8.14394L5.23158 20.9756ZM15.0532 40.4045L31.7195 41.1137L29.2373 36.1493L15.0532 40.4045ZM29.9956 35.773L32.4763 40.7345L41.6905 27.2676L29.9956 35.773ZM41.9695 23.295L35.3631 8.69144L32.9292 13.5593L41.9695 23.295ZM32.2205 13.0839L18.3024 7.01704L34.7186 8.08766L32.2205 13.0839ZM32.7193 14.5773L30.0082 34.7171L42.7892 25.4218L32.7193 14.5773Z" fill="url(#paint0_linear_14360_27090)"/>
<defs>
<linearGradient id="paint0_linear_14360_27090" x1="23.9539" y1="6" x2="23.9539" y2="42" gradientUnits="userSpaceOnUse">
<stop stop-color="#6CC5FF"/>
<stop offset="1" stop-color="#B45FFF"/>
</linearGradient>
</defs>
</svg>
