<svg width="154" height="61" viewBox="0 0 154 61" fill="none" xmlns="http://www.w3.org/2000/svg">
<path fill-rule="evenodd" clip-rule="evenodd" d="M105.851 0L139.652 2.20441L153.622 33.0857L134.522 61L99.9596 59.5292L86 25.7322L105.851 0ZM106.71 1.7516L101.437 27.4555L132.414 12.9559L106.71 1.7516ZM133.269 14.1392L101.834 28.8536L128.587 48.9188L133.269 14.1392ZM127.568 49.9473L101.165 30.1449V57.8683L127.568 49.9473ZM99.7305 55.2172V29.2925L88.0026 26.8235L99.7305 55.2172ZM88.0868 25.3754L99.89 27.8603L104.86 3.63279L88.0868 25.3754ZM104.729 58.2965L132.969 59.4983L128.763 51.0863L104.729 58.2965ZM130.048 50.4487L134.252 58.8556L149.864 36.0368L130.048 50.4487ZM150.337 29.3054L139.143 4.5605L135.019 12.8088L150.337 29.3054ZM133.818 12.0033L110.235 1.72332L138.051 3.53743L133.818 12.0033ZM134.663 14.5338L130.069 48.6596L151.726 32.9092L134.663 14.5338Z" fill="url(#paint0_linear_17284_41875)"/>
<path fill-rule="evenodd" clip-rule="evenodd" d="M43.7504 14L62.0559 15.1938L69.6216 31.9181L59.2781 47.0356L40.5601 46.2391L33 27.9357L43.7504 14ZM44.2158 14.9486L41.3603 28.869L58.1361 21.0165L44.2158 14.9486ZM58.5994 21.6573L41.575 29.6262L56.0638 40.4928L58.5994 21.6573ZM55.5119 41.0498L41.2128 30.3255V45.3395L55.5119 41.0498ZM40.436 43.9038V29.8638L34.0846 28.5267L40.436 43.9038ZM34.1302 27.7425L40.5223 29.0882L43.2138 15.9674L34.1302 27.7425ZM43.143 45.5715L58.437 46.2223L56.1591 41.6666L43.143 45.5715ZM56.855 41.3213L59.1314 45.8742L67.5869 33.5163L56.855 41.3213ZM67.8429 29.8708L61.7805 16.4698L59.547 20.9368L67.8429 29.8708ZM58.8966 20.5006L46.1246 14.9333L61.189 15.9158L58.8966 20.5006ZM59.3544 21.871L56.8665 40.3524L68.5951 31.8225L59.3544 21.871Z" fill="url(#paint1_linear_17284_41875)"/>
<path fill-rule="evenodd" clip-rule="evenodd" d="M4.88129 23L13.193 23.5421L16.6283 31.1358L11.9317 38L3.4327 37.6383L0 29.3276L4.88129 23ZM5.09258 23.4307L3.79604 29.7514L11.4132 26.1859L5.09258 23.4307ZM11.6235 26.4769L3.89354 30.0952L10.4723 35.0292L11.6235 26.4769ZM10.2216 35.2821L3.72906 30.4127V37.2299L10.2216 35.2821ZM3.37635 36.578V30.2031L0.492449 29.5959L3.37635 36.578ZM0.513158 29.2399L3.41557 29.8509L4.63763 23.8933L0.513158 29.2399ZM4.60549 37.3352L11.5498 37.6307L10.5155 35.5622L4.60549 37.3352ZM10.8315 35.4054L11.8651 37.4727L15.7044 31.8615L10.8315 35.4054ZM15.8206 30.2062L13.068 24.1214L12.0538 26.1497L15.8206 30.2062ZM11.7585 25.9516L5.95932 23.4238L12.7994 23.8699L11.7585 25.9516ZM11.9664 26.5739L10.8367 34.9655L16.1622 31.0924L11.9664 26.5739Z" fill="url(#paint2_linear_17284_41875)"/>
<defs>
<linearGradient id="paint0_linear_17284_41875" x1="119.811" y1="0" x2="119.811" y2="61" gradientUnits="userSpaceOnUse">
<stop stop-color="#6CC5FF"/>
<stop offset="1" stop-color="#B45FFF"/>
</linearGradient>
<linearGradient id="paint1_linear_17284_41875" x1="51.3108" y1="14" x2="51.3108" y2="47.0356" gradientUnits="userSpaceOnUse">
<stop stop-color="#6CC5FF"/>
<stop offset="1" stop-color="#B45FFF"/>
</linearGradient>
<linearGradient id="paint2_linear_17284_41875" x1="8.31413" y1="23" x2="8.31413" y2="38" gradientUnits="userSpaceOnUse">
<stop stop-color="#6CC5FF"/>
<stop offset="1" stop-color="#B45FFF"/>
</linearGradient>
</defs>
</svg>
